*
%LPD*%
%LNtransceiverTOP*%
%FSLAX25Y25*%
%MOIN*%
%AD*%
%AD*%
%ADD10C,0.02*%
%ADD11C,0.03*%
%ADD12C,0.058*%
%ADD13R,0.058X0.058*%
%ADD14C,0.005*%
%ADD15C,0.01*%
%ADD17C,0.078016142*%
%ADD18C,0.084016142*%
%ADD20C,0.025*%
%ADD31R,0.05X0.05*%
%ADD33R,0.032X0.038*%
%ADD34R,0.038X0.032*%
%ADD38R,0.039370079X0.035433071*%
%ADD39R,0.165353937X0.12204685*%
%ADD40R,0.153542913X0.047244094*%
%ADD41R,0.236220079X0.153542913*%
%ADD42R,0.011024016X0.033464961*%
%ADD43R,0.033464961X0.011024016*%
%ADD44R,0.135827165X0.135827165*%
%ADD45C,0.014*%
%ADD46R,0.062011811X0.062011811*%
%ADD47C,0.062011811*%
%ADD48C,0.078007874*%
%ADD50C,0.072031102*%
%ADD55R,0.062988189X0.062988189*%
%AMD58_Rectangle*
20,1,0.032011,0.01343,-0.01343,-0.01343,0.01343,0*
%
%ADD58D58_Rectangle*%
%ADD66R,0.032011811X0.037988189*%
%AMD67_Rectangle*
20,1,0.032011,-0.01343,-0.01343,0.01343,0.01343,0*
%
%ADD67D67_Rectangle*%
%ADD68R,0.037988189X0.032011811*%
%ADD71R,0.153538976X0.047240157*%
%ADD72R,0.106298819X0.0315*%
%ADD73R,0.039370079X0.02361811*%
%ADD74R,0.02361811X0.039370079*%
%ADD75R,0.027559055X0.062988189*%
%ADD76R,0.059059055X0.059059055*%
%ADD77R,0.011811024X0.027559055*%
%ADD78R,0.027559055X0.011811024*%
%ADD79R,0.019688976X0.0315*%
%ADD80R,0.16535X0.122051181*%
%ADD81R,0.011020079X0.025201181*%
%ADD82R,0.025201181X0.011020079*%
%ADD83R,0.236220079X0.153538976*%
%ADD84C,0.012011811*%
G54D10*
%SRX1Y1I0.0J0.0*%
G36*
G1X0Y0D2*
G1X196850Y0D1*
G1X196850Y62385D1*
G1X181299Y62385D1*
G75*
G2X180298Y63386I0J1001D1*
G1X180298Y63647D1*
G1X166064Y63647D1*
G1X166017Y63514D1*
G2X165074Y62847I-944J333D1*
G1X156274Y62847D1*
G2X155330Y63514I-1J1000D1*
G1X155283Y63647D1*
G1X153904Y63647D1*
G1X153815Y63735D1*
G1X153554Y63735D1*
G2X152687Y63235I-867J501D1*
G1X148887Y63235D1*
G2X148078Y63647I0J1001D1*
G1X146379Y63647D1*
G1X146332Y63514D1*
G2X145389Y62847I-944J333D1*
G1X136589Y62847D1*
G2X135645Y63514I-1J1000D1*
G1X135598Y63647D1*
G1X134219Y63647D1*
G1X134130Y63735D1*
G1X133869Y63735D1*
G2X133002Y63235I-867J501D1*
G1X129202Y63235D1*
G2X128393Y63647I0J1001D1*
G1X126694Y63647D1*
G1X126647Y63514D1*
G2X125704Y62847I-944J333D1*
G1X116904Y62847D1*
G2X115903Y63848I0J1001D1*
G1X115903Y67648D1*
G2X116403Y68515I1001J0D1*
G1X116403Y71736D1*
G1X116491Y71824D1*
G1X116491Y73083D1*
G1X111392Y73083D1*
G2X110448Y73750I-1J1000D1*
G1X110401Y73883D1*
G1X102679Y73883D1*
G1X102631Y73750D1*
G2X101688Y73083I-944J333D1*
G1X92887Y73083D1*
G3X92487Y72683I0J-401D1*
G1X92487Y67607D1*
G1X92893Y67201D1*
G1X99299Y67201D1*
G1X99326Y67208D1*
G2X99326Y62392I673J-2408D1*
G1X99299Y62399D1*
G1X92487Y62399D1*
G1X92487Y52646D1*
G1X92932Y52201D1*
G1X99299Y52201D1*
G1X99326Y52208D1*
G2X99326Y47392I673J-2408D1*
G1X99299Y47399D1*
G1X92487Y47399D1*
G1X92487Y33878D1*
G1X71274Y33878D1*
G1X71201Y33806D1*
G1X71201Y26701D1*
G1X71208Y26674D1*
G2X66392Y26674I-2408J-674D1*
G1X66399Y26701D1*
G1X66399Y33878D1*
G1X64051Y33878D1*
G1X63701Y33528D1*
G1X63701Y26701D1*
G1X63708Y26674D1*
G2X58892Y26674I-2408J-674D1*
G1X58899Y26701D1*
G1X58899Y29683D1*
G1X55580Y29683D1*
G2X54940Y29915I1J1001D1*
G1X54799Y30031D1*
G1X54517Y29749D1*
G2X51771Y28611I-2747J2744D1*
G1X37962Y28611D1*
G1X37907Y28500D1*
G2X37009Y27940I-899J440D1*
G1X33072Y27940D1*
G2X32071Y28941I0J1001D1*
G1X32071Y32484D1*
G2X33072Y33485I1001J-1D1*
G1X36918Y33485D1*
G1X36918Y34914D1*
G1X18028Y53805D1*
G1X16552Y53805D1*
G1X16552Y53543D1*
G2X15551Y52543I-1002J1D1*
G1X0Y52543D1*
G1X0Y0D1*
G37*
G36*
G1X19768Y58006D2*
G1X38665Y39109D1*
G1X40323Y39109D1*
G1X40370Y39242D1*
G2X41313Y39909I943J-334D1*
G1X44480Y39909D1*
G1X44480Y52907D1*
G1X44087Y53299D1*
G1X37701Y53299D1*
G1X37674Y53292D1*
G2X37674Y58108I-674J2408D1*
G1X37701Y58101D1*
G1X44480Y58101D1*
G1X44480Y60387D1*
G1X44068Y60799D1*
G1X37701Y60799D1*
G1X37674Y60792D1*
G2X37674Y65608I-674J2408D1*
G1X37701Y65601D1*
G1X44480Y65601D1*
G1X44480Y68199D1*
G1X37701Y68199D1*
G1X37674Y68192D1*
G2X37674Y73008I-674J2408D1*
G1X37701Y73001D1*
G1X44009Y73001D1*
G1X44480Y73471D1*
G1X44480Y83033D1*
G1X52092Y83033D1*
G1X53792Y84733D1*
G1X53792Y86246D1*
G2X54793Y87246I1001J-2D1*
G1X57999Y87246D1*
G1X57999Y93999D1*
G1X57992Y94026D1*
G2X62808Y94026I2408J673D1*
G1X62801Y93999D1*
G1X62801Y83513D1*
G1X63281Y83033D1*
G1X78413Y83033D1*
G1X78413Y85365D1*
G2X78913Y86231I1001J-1D1*
G1X78913Y87800D1*
G1X78214Y88500D1*
G1X78214Y91897D1*
G1X78081Y91944D1*
G2X77548Y92387I333J943D1*
G1X77193Y92387D1*
G1X77105Y92299D1*
G1X75601Y92299D1*
G2X74735Y91799I-867J500D1*
G1X70935Y91799D1*
G2X69934Y92800I0J1001D1*
G1X69934Y96000D1*
G2X70935Y97000I1001J-2D1*
G1X74725Y97000D1*
G1X74725Y102695D1*
G1X78407Y102695D1*
G1X78407Y102689D1*
G1X80245Y102689D1*
G1X81904Y104348D1*
G3X81916Y104902I-283J283D1*
G2X81651Y105580I736J678D1*
G1X81651Y109380D1*
G2X82652Y110381I1001J-1D1*
G1X91452Y110381D1*
G2X92395Y109714I-1J-1001D1*
G1X92443Y109581D1*
G1X94171Y109581D1*
G1X94219Y109714D1*
G2X95162Y110381I943J-334D1*
G1X100261Y110381D1*
G1X100261Y110880D1*
G2X103550Y118819I11228J-1D1*
G1X115903Y131172D1*
G1X115903Y133002D1*
G2X116904Y134003I1001J-1D1*
G1X125704Y134003D1*
G2X126647Y133336I-1J-1001D1*
G1X126694Y133203D1*
G1X128393Y133203D1*
G2X129202Y133615I809J-590D1*
G1X133002Y133615D1*
G2X133869Y133115I0J-1002D1*
G1X134131Y133115D1*
G1X134219Y133203D1*
G1X135598Y133203D1*
G1X135645Y133336D1*
G2X136589Y134003I943J-335D1*
G1X145389Y134003D1*
G2X146332Y133336I-1J-1001D1*
G1X146379Y133203D1*
G1X148078Y133203D1*
G2X148887Y133615I809J-590D1*
G1X152687Y133615D1*
G2X153554Y133115I0J-1002D1*
G1X153816Y133115D1*
G1X153904Y133203D1*
G1X155283Y133203D1*
G1X155330Y133336D1*
G2X156274Y134003I943J-335D1*
G1X165074Y134003D1*
G2X166017Y133336I-1J-1001D1*
G1X166064Y133203D1*
G1X180298Y133203D1*
G1X180298Y133465D1*
G2X181299Y134465I1001J-2D1*
G1X196850Y134465D1*
G1X196850Y196850D1*
G1X0Y196850D1*
G1X0Y59269D1*
G1X15551Y59269D1*
G2X16552Y58268I-1J-1002D1*
G1X16552Y58006D1*
G1X19768Y58006D1*
G37*
G36*
G1X89752Y87784D2*
G1X92487Y87784D1*
G1X92487Y86560D1*
G3X92706Y86361I199J0D1*
G2X92796Y86365I90J-1021D1*
G1X101600Y86365D1*
G2X102466Y85865I-1J-1002D1*
G1X110525Y85865D1*
G2X110591Y85965I884J-512D1*
G1X110591Y88444D1*
G2X110391Y89045I802J600D1*
G1X110391Y92845D1*
G2X111392Y93846I1001J-1D1*
G1X132827Y93846D1*
G1X132827Y80564D1*
G1X121199Y80564D1*
G1X121199Y77941D1*
G1X121193Y77941D1*
G1X121193Y74084D1*
G2X120693Y73218I-1002J0D1*
G1X120693Y70084D1*
G1X120604Y69996D1*
G1X120604Y68649D1*
G1X125704Y68649D1*
G2X126618Y68056I-1J-1002D1*
G1X126670Y67937D1*
G1X128335Y67937D1*
G2X129202Y68437I866J-502D1*
G1X133002Y68437D1*
G2X133869Y67937I0J-1002D1*
G1X135622Y67937D1*
G1X135674Y68056D1*
G2X136589Y68649I914J-409D1*
G1X145389Y68649D1*
G2X146303Y68056I-1J-1002D1*
G1X146356Y67937D1*
G1X148020Y67937D1*
G2X148887Y68437I866J-502D1*
G1X152687Y68437D1*
G2X153554Y67937I0J-1002D1*
G1X155307Y67937D1*
G1X155359Y68056D1*
G2X156274Y68649I914J-409D1*
G1X165074Y68649D1*
G2X166017Y67982I-1J-1001D1*
G1X166064Y67849D1*
G1X180298Y67849D1*
G1X180298Y68110D1*
G2X181299Y69111I1001J-1D1*
G1X196850Y69111D1*
G1X196850Y127739D1*
G1X181299Y127739D1*
G2X180298Y128740I0J1001D1*
G1X180298Y129002D1*
G1X179840Y129002D1*
G1X179801Y129001D1*
G1X166064Y129001D1*
G1X166017Y128868D1*
G2X165074Y128201I-944J333D1*
G1X156274Y128201D1*
G2X155359Y128795I-1J1000D1*
G1X155307Y128913D1*
G1X153554Y128913D1*
G2X152687Y128413I-867J501D1*
G1X148887Y128413D1*
G2X148021Y128913I0J1001D1*
G1X146356Y128913D1*
G1X146303Y128795D1*
G2X145389Y128201I-915J406D1*
G1X136589Y128201D1*
G2X135674Y128795I-1J1000D1*
G1X135622Y128913D1*
G1X133869Y128913D1*
G2X133002Y128413I-867J501D1*
G1X129202Y128413D1*
G2X128336Y128913I0J1001D1*
G1X126670Y128913D1*
G1X126618Y128795D1*
G2X125704Y128201I-915J406D1*
G1X118874Y128201D1*
G1X106520Y115848D1*
G3X104463Y110880I4969J-4968D1*
G1X104463Y110246D1*
G2X104963Y109380I-501J-867D1*
G1X104963Y105580D1*
G2X103962Y104579I-1002J0D1*
G1X95162Y104579D1*
G2X94219Y105246I0J1000D1*
G1X94171Y105379D1*
G1X93376Y105379D1*
G1X93376Y97089D1*
G1X97176Y97089D1*
G2X98176Y96088I-2J-1002D1*
G1X98176Y92888D1*
G2X97176Y91887I-1001J-1D1*
G1X93376Y91887D1*
G2X92567Y92299I0J1001D1*
G1X90562Y92299D1*
G2X90029Y91856I-867J500D1*
G1X89896Y91809D1*
G1X89896Y88894D1*
G1X89470Y88467D1*
G3X89752Y87784I282J-284D1*
G37*
G36*
G1X116991Y81565D2*
G1X131826Y81565D1*
G1X131826Y92846D1*
G1X116991Y92846D1*
G1X116991Y81565D1*
G37*
%LPC*%
G36*
G1X23622Y20850D2*
G1X27559Y20850D1*
G3X28560Y21850I0J1000D1*
G1X28560Y25394D1*
G3X27559Y26394I-1002J-2D1*
G1X23622Y26394D1*
G3X22621Y25394I-1J-1001D1*
G1X22621Y21850D1*
G3X23622Y20850I1001J1D1*
G37*
G36*
G1X20400Y39409D2*
G1X23190Y36619D1*
G1X23190Y33393D1*
G1X23095Y33335D1*
G3X22621Y32484I527J-852D1*
G1X22621Y28941D1*
G3X23622Y27940I1001J0D1*
G1X27559Y27940D1*
G3X28560Y28941I-1J1001D1*
G1X28560Y32484D1*
G3X28086Y33335I-1002J-1D1*
G1X27991Y33393D1*
G1X27991Y34238D1*
G3X28497Y35108I-495J869D1*
G1X28497Y38908D1*
G3X27496Y39909I-1002J-1D1*
G1X26691Y39909D1*
G1X23795Y42804D1*
G1X23781Y42828D1*
G3X20400Y39409I-2180J-1227D1*
G37*
G36*
G1X181746Y180351D2*
G1X187546Y180351D1*
G3X188546Y181352I-2J1001D1*
G1X188546Y187152D1*
G3X187546Y188153I-1001J0D1*
G1X181746Y188153D1*
G3X180745Y187152I0J-1002D1*
G1X180745Y181352D1*
G3X181746Y180351I1001J0D1*
G37*
G36*
G1X141746Y170351D2*
G1X147546Y170351D1*
G3X148546Y171352I-2J1001D1*
G1X148546Y177152D1*
G3X147546Y178153I-1001J0D1*
G1X141746Y178153D1*
G3X140745Y177152I0J-1002D1*
G1X140745Y171352D1*
G3X141746Y170351I1001J0D1*
G37*
G36*
G1X50999Y153490D2*
G1X50999Y152511D1*
G1X50990Y152511D1*
G1X50990Y151109D1*
G1X50999Y151109D1*
G1X50999Y133099D1*
G1X81501Y133099D1*
G1X81501Y151109D1*
G1X81512Y151109D1*
G1X81512Y152511D1*
G1X81501Y152511D1*
G1X81501Y167001D1*
G1X50999Y167001D1*
G1X50999Y166195D1*
G1X50994Y166172D1*
G3X50968Y165945I978J-228D1*
G1X50968Y153740D1*
G3X50994Y153513I1004J0D1*
G1X50999Y153490D1*
G37*
G74*
G54D18*
G1X94646Y184252D3*
G1X114646Y184252D3*
G1X104646Y184252D3*
G1X124646Y184252D3*
G1X134646Y184252D3*
G54D17*
G1X94646Y174252D3*
G1X114646Y174252D3*
G1X104646Y174252D3*
G1X124646Y174252D3*
G1X134646Y174252D3*
G1X144646Y184252D3*
G1X154646Y174252D3*
G1X154646Y184252D3*
G1X174646Y174252D3*
G1X164646Y174252D3*
G1X174646Y184252D3*
G1X164646Y184252D3*
G1X184646Y174252D3*
%LPD*%
G36*
G1X52000Y134100D2*
G1X80500Y134100D1*
G1X80500Y150100D1*
G1X52000Y150100D1*
G1X52000Y134100D1*
G37*
G36*
G1X52000Y153500D2*
G1X80500Y153500D1*
G1X80500Y166000D1*
G1X52000Y166000D1*
G1X52000Y153500D1*
G37*
G1X25591Y30712D2*
G54D10*
G1X25591Y36702D1*
G1X25896Y37008D1*
G1X25896Y37308D1*
G1X21602Y41602D1*
G1X31496Y37008D2*
G1X31496Y26970D1*
G1X34844Y23622D1*
G1X35041Y23622D1*
G1X37000Y55700D2*
G1X45082Y55700D1*
G1X48513Y52269D1*
G1X37000Y63200D2*
G1X45062Y63200D1*
G1X48513Y59749D1*
G1X48513Y59449D1*
G1X48513Y74409D2*
G1X48513Y74109D1*
G1X45004Y70600D1*
G1X37000Y70600D1*
G1X48513Y51969D2*
G1X48513Y52269D1*
G1X61300Y26000D2*
G1X61300Y34523D1*
G1X64661Y37883D1*
G1X68800Y26000D2*
G1X68800Y34800D1*
G1X71883Y37883D1*
G1X72141Y37883D1*
G1X64961Y37883D2*
G1X64661Y37883D1*
G1X60400Y94700D2*
G1X60400Y82519D1*
G1X63873Y79046D1*
G1X64173Y79046D1*
G1X72441Y37883D2*
G1X72141Y37883D1*
G1X88494Y46063D2*
G1X88494Y40000D1*
G1X100000Y49800D2*
G1X91938Y49800D1*
G1X88494Y53243D1*
G1X88494Y53543D1*
G1X100000Y64800D2*
G1X91898Y64800D1*
G1X88494Y68204D1*
G1X88494Y68504D1*
G1X94400Y83465D2*
G1X94488Y83376D1*
G1X94488Y75984D1*
G1X112992Y83465D2*
G1X100000Y83465D1*
G1X112992Y90945D2*
G1X112992Y83465D1*
G1X9843Y29528D3*
G1X9449Y39764D3*
G1X5118Y39764D3*
G1X4331Y72835D3*
G1X9055Y72835D3*
G1X9843Y88583D3*
G1X9843Y108268D3*
G1X9843Y127953D3*
G1X9843Y147638D3*
G1X9843Y167323D3*
G1X9843Y187008D3*
G1X19685Y19685D3*
G1X19685Y59055D3*
G1X19685Y78740D3*
G1X19685Y98425D3*
G1X19685Y118110D3*
G1X19685Y157480D3*
G1X19685Y177165D3*
G1X29528Y9843D3*
G1X39370Y19685D3*
G1X29921Y49213D3*
G1X38189Y48425D3*
G1X39370Y59055D3*
G1X29528Y68898D3*
G1X39370Y78740D3*
G1X39370Y98425D3*
G1X29528Y88583D3*
G1X39370Y118110D3*
G1X29528Y108268D3*
G1X39370Y157480D3*
G1X39370Y177165D3*
G1X29528Y167323D3*
G1X49213Y9843D3*
G1X55512Y52362D3*
G1X49213Y88583D3*
G1X49213Y108268D3*
G1X49213Y127953D3*
G1X49213Y187008D3*
G1X68898Y9843D3*
G1X59055Y19685D3*
G1X62579Y42939D3*
G1X68504Y57480D3*
G1X64961Y57480D3*
G1X64961Y53937D3*
G1X68504Y53937D3*
G1X67721Y43701D3*
G1X64961Y43701D3*
G1X64961Y60630D3*
G1X68504Y60630D3*
G1X59055Y98425D3*
G1X68110Y100000D3*
G1X64173Y89370D3*
G1X59055Y118110D3*
G1X68898Y108268D3*
G1X68898Y127953D3*
G1X59055Y177165D3*
G1X68898Y187008D3*
G1X78740Y19685D3*
G1X76378Y43307D3*
G1X81792Y54034D3*
G1X78346Y46340D3*
G1X72047Y53937D3*
G1X72047Y57480D3*
G1X81890Y51181D3*
G1X80709Y48425D3*
G1X72047Y60630D3*
G1X75265Y70472D3*
G1X71654Y89370D3*
G1X78740Y118110D3*
G1X78740Y177165D3*
G1X88583Y9843D3*
G1X98425Y19685D3*
G1X98425Y39370D3*
G1X94094Y41339D3*
G1X98819Y71260D3*
G1X100000Y100394D3*
G1X98425Y118110D3*
G1X88583Y127953D3*
G1X98425Y137795D3*
G1X88583Y147638D3*
G1X98425Y157480D3*
G1X108268Y9843D3*
G1X108268Y29528D3*
G1X108268Y147638D3*
G1X127953Y9843D3*
G1X118110Y19685D3*
G1X118110Y39370D3*
G1X127953Y29528D3*
G1X127953Y49213D3*
G1X118110Y59055D3*
G1X118110Y118110D3*
G1X118110Y137795D3*
G1X127953Y147638D3*
G1X118110Y157480D3*
G1X137795Y19685D3*
G1X137795Y39370D3*
G1X131102Y55512D3*
G1X137795Y59055D3*
G1X137795Y78740D3*
G1X137795Y98425D3*
G1X137795Y137795D3*
G1X131496Y141339D3*
G1X137795Y157480D3*
G1X147638Y9843D3*
G1X157480Y19685D3*
G1X157480Y39370D3*
G1X147638Y29528D3*
G1X147638Y49213D3*
G1X150787Y55512D3*
G1X157480Y59055D3*
G1X157480Y78740D3*
G1X157480Y98425D3*
G1X147638Y88583D3*
G1X157480Y118110D3*
G1X157874Y138583D3*
G1X147638Y147638D3*
G1X150787Y141339D3*
G1X158268Y157480D3*
G1X167323Y9843D3*
G1X167323Y29528D3*
G1X167323Y49213D3*
G1X167323Y88583D3*
G1X167323Y108268D3*
G1X167323Y147638D3*
G1X187008Y9843D3*
G1X177165Y19685D3*
G1X177165Y39370D3*
G1X187008Y29528D3*
G1X187402Y49213D3*
G1X177165Y59055D3*
G1X177165Y78740D3*
G1X185827Y81890D3*
G1X177165Y98425D3*
G1X187008Y88583D3*
G1X177165Y118110D3*
G1X187008Y108268D3*
G1X186220Y114567D3*
G1X177953Y137795D3*
G1X187795Y147638D3*
G1X177953Y157480D3*
G1X192913Y49213D3*
G1X192520Y81890D3*
G1X192913Y114567D3*
G1X192520Y147638D3*
G54D42*
G1X69681Y47244D3*
G1X67721Y47244D3*
G1X65751Y47244D3*
G1X63781Y47244D3*
G1X61811Y47244D3*
G1X61811Y66734D3*
G1X63781Y66734D3*
G1X65751Y66734D3*
G1X67721Y66734D3*
G1X69681Y66734D3*
G1X75591Y47244D3*
G1X73621Y47244D3*
G1X71651Y47244D3*
G1X71651Y66734D3*
G1X73621Y66734D3*
G1X75591Y66734D3*
G54D40*
G1X7874Y45079D3*
G1X7874Y55906D3*
G1X7874Y66732D3*
G1X188976Y54921D3*
G1X188976Y65748D3*
G1X188976Y76575D3*
G1X188976Y120276D3*
G1X188976Y131102D3*
G1X188976Y141929D3*
G54D31*
G1X78000Y147600D3*
G1X78000Y156000D3*
G54D38*
G1X25591Y23622D3*
G1X25591Y30712D3*
G1X35041Y23622D3*
G1X35041Y30712D3*
G54D33*
G1X25896Y37008D3*
G1X31496Y37008D3*
G1X42913Y37008D3*
G1X48513Y37008D3*
G1X42913Y51969D3*
G1X48513Y51969D3*
G1X42913Y44488D3*
G1X48513Y44488D3*
G1X42913Y59449D3*
G1X48513Y59449D3*
G1X42913Y66929D3*
G1X48513Y66929D3*
G1X42913Y74409D3*
G1X48513Y74409D3*
G1X48000Y136000D3*
G1X53600Y136000D3*
G1X81014Y83465D3*
G1X84252Y107480D3*
G1X94094Y53543D3*
G1X88494Y53543D3*
G1X94094Y46063D3*
G1X88494Y46063D3*
G1X94094Y61024D3*
G1X88494Y61024D3*
G1X94094Y68504D3*
G1X88494Y68504D3*
G1X94488Y75984D3*
G1X100088Y75984D3*
G1X100000Y83465D3*
G1X94400Y83465D3*
G1X86614Y83465D3*
G1X96762Y107480D3*
G1X89852Y107480D3*
G1X112992Y83465D3*
G1X112992Y75984D3*
G1X112992Y90945D3*
G1X102362Y107480D3*
G1X118504Y65748D3*
G1X124104Y65748D3*
G1X118592Y83465D3*
G1X118592Y75984D3*
G1X130226Y83465D3*
G1X118592Y90945D3*
G1X130226Y90945D3*
G1X118504Y131102D3*
G1X124104Y131102D3*
G1X138189Y65748D3*
G1X143789Y65748D3*
G1X135826Y83465D3*
G1X135826Y90945D3*
G1X138189Y131102D3*
G1X143789Y131102D3*
G1X157874Y65748D3*
G1X157874Y131102D3*
G1X163474Y65748D3*
G1X163474Y131102D3*
G54D12*
G1X94646Y174252D3*
G1X94646Y184252D3*
G1X114646Y174252D3*
G1X104646Y174252D3*
G1X114646Y184252D3*
G1X104646Y184252D3*
G1X124646Y174252D3*
G1X124646Y184252D3*
G1X134646Y174252D3*
G1X144646Y184252D3*
G1X134646Y184252D3*
G1X154646Y174252D3*
G1X154646Y184252D3*
G1X174646Y174252D3*
G1X164646Y174252D3*
G1X174646Y184252D3*
G1X164646Y184252D3*
G1X184646Y174252D3*
G54D13*
G1X144646Y174252D3*
G1X184646Y184252D3*
G54D11*
G1X21602Y41602D3*
G1X37000Y55700D3*
G1X37000Y70600D3*
G1X37000Y63200D3*
G1X61300Y26000D3*
G1X68800Y26000D3*
G1X60400Y94700D3*
G1X65500Y146000D3*
G1X59500Y146000D3*
G1X60000Y138000D3*
G1X65500Y138000D3*
G1X71000Y138000D3*
G1X71000Y146000D3*
G1X76500Y138000D3*
G1X88494Y40000D3*
G1X100000Y49800D3*
G1X100000Y64800D3*
G1X124500Y90000D3*
G1X124500Y84500D3*
G1X94646Y179851D2*
G54D14*
G1X94646Y184252D1*
G1X94646Y188653D1*
G1X90245Y184252D2*
G1X94646Y184252D1*
G1X99046Y184252D1*
G1X104646Y179851D2*
G1X104646Y184252D1*
G1X104646Y188653D1*
G1X100245Y184252D2*
G1X104646Y184252D1*
G1X109046Y184252D1*
G1X114646Y179851D2*
G1X114646Y184252D1*
G1X114646Y188653D1*
G1X110245Y184252D2*
G1X114646Y184252D1*
G1X119046Y184252D1*
G1X124646Y179851D2*
G1X124646Y184252D1*
G1X124646Y188653D1*
G1X120245Y184252D2*
G1X124646Y184252D1*
G1X129046Y184252D1*
G1X134646Y179851D2*
G1X134646Y184252D1*
G1X134646Y188653D1*
G1X130245Y184252D2*
G1X134646Y184252D1*
G1X139046Y184252D1*
G54D41*
G1X27556Y136813D3*
G1X27556Y187793D3*
G1X55512Y52362D2*
G54D15*
G1X57184Y54034D1*
G1X58961Y54034D1*
G1X48513Y52269D2*
G1X54219Y57974D1*
G1X58961Y57974D1*
G1X48513Y44488D2*
G1X48513Y44788D1*
G1X53150Y49424D1*
G1X53150Y53167D1*
G1X55986Y56004D1*
G1X58961Y56004D1*
G1X58961Y63874D2*
G1X58961Y66862D1*
G1X51413Y74409D1*
G1X48513Y74409D1*
G1X48513Y59449D2*
G1X52362Y59449D1*
G1X52857Y59944D1*
G1X58961Y59944D1*
G1X48513Y66929D2*
G1X51575Y66929D1*
G1X56590Y61914D1*
G1X58961Y61914D1*
G1X56693Y84646D2*
G1X56393Y84646D1*
G1X52756Y81009D1*
G1X52756Y75789D1*
G1X56104Y72441D1*
G1X59080Y72441D1*
G1X61811Y69709D1*
G1X61811Y66734D1*
G1X62579Y42939D2*
G1X62646Y43006D1*
G1X62646Y44440D1*
G1X63362Y45156D1*
G1X63362Y45157D1*
G1X63781Y45576D1*
G1X63781Y47244D1*
G1X61811Y47244D2*
G1X61811Y46122D1*
G1X59917Y44228D1*
G1X59917Y42627D1*
G1X64661Y37883D1*
G1X72141Y37883D2*
G1X69721Y40304D1*
G1X69721Y44140D1*
G1X69681Y44180D1*
G1X69681Y47244D1*
G1X67721Y47244D2*
G1X67721Y43701D1*
G1X65751Y47244D2*
G1X65751Y44491D1*
G1X64961Y43701D1*
G1X56693Y79046D2*
G1X56993Y79046D1*
G1X63781Y72257D1*
G1X63781Y66734D1*
G1X64173Y79046D2*
G1X64173Y76146D1*
G1X65751Y74568D1*
G1X65751Y66734D1*
G1X71654Y79046D2*
G1X71354Y79046D1*
G1X67717Y75409D1*
G1X67717Y69713D1*
G1X67721Y69709D1*
G1X67721Y66734D1*
G1X79921Y37883D2*
G1X79621Y37883D1*
G1X76560Y40945D1*
G1X74409Y40945D1*
G1X71651Y43703D1*
G1X71651Y47244D1*
G1X78441Y54034D2*
G1X81792Y54034D1*
G1X76378Y43307D2*
G1X74585Y43307D1*
G1X73621Y44271D1*
G1X73621Y47244D1*
G1X75591Y47244D2*
G1X77442Y47244D1*
G1X78346Y46340D1*
G1X78441Y52064D2*
G1X81006Y52064D1*
G1X81890Y51181D1*
G1X80709Y48425D2*
G1X80709Y49094D1*
G1X79709Y50094D1*
G1X78441Y50094D1*
G1X78441Y56004D2*
G1X80933Y56004D1*
G1X80964Y56034D1*
G1X82621Y56034D1*
G1X82651Y56004D1*
G1X82972Y56004D1*
G1X85039Y53937D1*
G1X85039Y49818D1*
G1X88494Y46363D1*
G1X88494Y46063D1*
G1X88494Y53543D2*
G1X88494Y53843D1*
G1X84364Y57974D1*
G1X78441Y57974D1*
G1X88494Y61024D2*
G1X83465Y61024D1*
G1X82385Y59944D1*
G1X78441Y59944D1*
G1X88494Y68504D2*
G1X85031Y68504D1*
G1X83071Y66544D1*
G1X83071Y63569D1*
G1X81416Y61914D1*
G1X78441Y61914D1*
G1X73621Y66734D2*
G1X73621Y68828D1*
G1X75265Y70472D1*
G54D34*
G1X56693Y84646D3*
G1X56693Y79046D3*
G1X57480Y32283D3*
G1X57480Y37883D3*
G1X64961Y32283D3*
G1X64961Y37883D3*
G1X64173Y84646D3*
G1X64173Y79046D3*
G1X71654Y84646D3*
G1X71654Y79046D3*
G1X79921Y32283D3*
G1X79921Y37883D3*
G1X72441Y32283D3*
G1X72441Y37883D3*
G1X80315Y94488D3*
G1X80315Y100088D3*
G1X72835Y100000D3*
G1X72835Y94400D3*
G1X95276Y94488D3*
G1X95276Y100088D3*
G1X87795Y100000D3*
G1X87795Y94400D3*
G1X131102Y60236D3*
G1X131102Y65836D3*
G1X131102Y131014D3*
G1X131102Y136614D3*
G1X150787Y60236D3*
G1X150787Y65836D3*
G1X150787Y131014D3*
G1X150787Y136614D3*
G1X7874Y55906D2*
G54D45*
G1X18898Y55906D1*
G1X37795Y37008D1*
G1X42913Y37008D1*
G1X57480Y32283D2*
G1X54660Y32283D1*
G75*
G3X53670Y31873I0J-1400D1*
G74*
G1X53031Y31234D1*
G75*
G2X51770Y30712I-1260J1260D1*
G74*
G1X35041Y30712D1*
G1X48513Y37008D2*
G1X52362Y37008D1*
G1X53238Y37883D1*
G1X57480Y37883D1*
G1X57480Y44507D1*
G1X58961Y45988D1*
G1X58961Y50094D1*
G1X69681Y66734D2*
G1X69685Y66738D1*
G1X69685Y72834D1*
G1X72279Y75428D1*
G1X78971Y75428D1*
G1X81014Y77471D1*
G1X81014Y83465D1*
G1X86614Y83465D2*
G1X86614Y79921D1*
G1X79921Y73228D1*
G1X74803Y73228D1*
G1X71651Y70076D1*
G1X71651Y66734D1*
G1X94488Y75984D2*
G1X88976Y75984D1*
G1X79726Y66734D1*
G1X75591Y66734D1*
G1X81014Y83465D2*
G1X81014Y88670D1*
G1X80315Y89370D1*
G1X80315Y94488D1*
G1X72835Y94400D2*
G1X76235Y94400D1*
G1X76323Y94488D1*
G1X80315Y94488D1*
G1X87795Y100000D2*
G1X87795Y100181D1*
G1X84252Y103724D1*
G1X80315Y100088D2*
G1X80615Y100088D1*
G1X84252Y103724D1*
G1X84252Y107480D2*
G1X84252Y103724D1*
G1X86614Y83465D2*
G1X86614Y88583D1*
G1X87795Y89764D1*
G1X87795Y94400D1*
G1X100088Y75984D2*
G1X112992Y75984D1*
G1X87795Y94400D2*
G1X91787Y94400D1*
G1X91876Y94488D1*
G1X95276Y94488D1*
G1X89852Y107480D2*
G1X96762Y107480D1*
G1X118504Y131102D2*
G1X118504Y130802D1*
G1X105035Y117333D1*
G75*
G3X102362Y110880I6454J-6454D1*
G74*
G1X102362Y107480D1*
G1X118592Y75984D2*
G1X118592Y70954D1*
G1X118504Y70866D1*
G1X118504Y65748D1*
G1X124104Y65748D2*
G1X127614Y65748D1*
G1X127702Y65836D1*
G1X131102Y65836D1*
G1X131102Y131014D2*
G1X127702Y131014D1*
G1X127615Y131102D1*
G1X124104Y131102D1*
G1X131102Y65836D2*
G1X135000Y65836D1*
G1X135089Y65748D1*
G1X138189Y65748D1*
G1X143789Y65748D2*
G1X147299Y65748D1*
G1X147387Y65836D1*
G1X150787Y65836D1*
G1X138189Y131102D2*
G1X135089Y131102D1*
G1X135001Y131014D1*
G1X131102Y131014D1*
G1X150787Y131014D2*
G1X147387Y131014D1*
G1X147300Y131102D1*
G1X143789Y131102D1*
G1X150787Y65836D2*
G1X154685Y65836D1*
G1X154774Y65748D1*
G1X157874Y65748D1*
G1X157874Y131102D2*
G1X154774Y131102D1*
G1X154686Y131014D1*
G1X150787Y131014D1*
G1X163474Y65748D2*
G1X188976Y65748D1*
G1X188976Y131102D2*
G1X179802Y131102D1*
G1X179801Y131102D1*
G1X163474Y131102D1*
G54D39*
G1X60236Y159843D3*
G54D43*
G1X58961Y50094D3*
G1X58961Y52064D3*
G1X58961Y54034D3*
G1X58961Y56004D3*
G1X58961Y57974D3*
G1X58961Y59944D3*
G1X58961Y61914D3*
G1X58961Y63874D3*
G1X78441Y57974D3*
G1X78441Y56004D3*
G1X78441Y54034D3*
G1X78441Y52064D3*
G1X78441Y50094D3*
G1X78441Y63874D3*
G1X78441Y61914D3*
G1X78441Y59944D3*
G54D44*
G1X68701Y56984D3*
G54D10*
G36*
G1X210061Y31D2*
G1X406906Y31D1*
G1X406906Y100639D1*
G1X391449Y100639D1*
G75*
G2X390449Y101639I0J1000D1*
G1X390449Y101900D1*
G1X373825Y101900D1*
G1X373778Y101766D1*
G2X372835Y101101I-943J334D1*
G1X367737Y101101D1*
G1X367737Y99731D1*
G1X367537Y99531D1*
G1X367537Y99083D1*
G1X370161Y99083D1*
G2X371060Y98521I-1J-1001D1*
G1X371115Y98408D1*
G1X372249Y98408D1*
G1X382509Y88147D1*
G1X382509Y85441D1*
G3X383110Y85092I401J0D1*
G2X385586Y85092I1237J-2176D1*
G3X386187Y85441I199J348D1*
G1X386187Y85828D1*
G1X386143Y85883D1*
G2X389989Y85829I1945J1570D1*
G1X389989Y79968D1*
G1X390003Y79933D1*
G2X390073Y79565I-914J-365D1*
G1X390073Y76413D1*
G2X390013Y76072I-976J-5D1*
G1X390001Y76039D1*
G1X390001Y69703D1*
G1X390013Y69670D1*
G2X390073Y69328I-922J-338D1*
G1X390073Y66178D1*
G2X389072Y65177I-1001J-1D1*
G1X387104Y65177D1*
G2X386103Y66178I0J1001D1*
G1X386103Y69328D1*
G1X386104Y69377D1*
G1X386104Y69588D1*
G1X383446Y69588D1*
G1X383437Y69597D1*
G1X382591Y69597D1*
G1X382591Y69385D1*
G1X382593Y69328D1*
G1X382593Y66176D1*
G2X382523Y65809I-978J-4D1*
G1X382509Y65774D1*
G1X382509Y64410D1*
G2X378707Y64410I-1901J-1626D1*
G1X378707Y65774D1*
G1X378693Y65809D1*
G2X378623Y66177I952J371D1*
G1X378623Y69328D1*
G2X378664Y69612I1045J-7D1*
G1X378672Y69640D1*
G1X378672Y76102D1*
G1X378664Y76130D1*
G2X378623Y76414I997J289D1*
G1X378623Y79565D1*
G2X378693Y79933I1026J-5D1*
G1X378707Y79968D1*
G1X378707Y86572D1*
G1X377495Y87785D1*
G3X376809Y87500I-284J-286D1*
G2X371822Y87190I-2501J-46D1*
G1X371814Y87261D1*
G1X371504Y87570D1*
G3X371161Y87428I-142J-143D1*
G1X371161Y86959D1*
G1X371171Y86928D1*
G2X371277Y86271I-1970J-655D1*
G1X371277Y84063D1*
G1X371365Y83975D1*
G1X371365Y76429D1*
G2X371865Y75562I-500J-866D1*
G1X371865Y71764D1*
G2X370864Y70763I-1001J-1D1*
G1X362065Y70763D1*
G2X361257Y71173I-1J1000D1*
G3X360649Y71220I-325J-238D1*
G1X355970Y66542D1*
G1X356031Y66414D1*
G2X355835Y65276I-902J-431D1*
G1X353571Y63013D1*
G2X352627Y62748I-707J704D1*
G3X352141Y62262I-95J-392D1*
G2X351877Y61318I-969J-238D1*
G1X351006Y60447D1*
G1X351006Y57392D1*
G1X350795Y57181D1*
G1X350795Y46392D1*
G1X350929Y46345D1*
G2X351594Y45402I-336J-943D1*
G1X351594Y42199D1*
G2X351386Y41589I-994J-2D1*
G3X351704Y40941I318J-246D1*
G1X351956Y40941D1*
G1X351956Y35576D1*
G1X327423Y35576D1*
G2X326737Y35303I-686J723D1*
G1X317937Y35303D1*
G2X317276Y35552I-1J1000D1*
G1X311303Y35552D1*
G1X311303Y32118D1*
G1X313821Y32118D1*
G2X314013Y32099I-8J-1053D1*
G1X314032Y32096D1*
G1X314709Y32096D1*
G1X314709Y31581D1*
G1X314728Y31541D1*
G2X314822Y31117I-896J-421D1*
G1X314822Y27966D1*
G2X314728Y27543I-986J-4D1*
G1X314709Y27503D1*
G1X314709Y5561D1*
G1X302177Y5561D1*
G1X302177Y21276D1*
G1X293224Y21276D1*
G1X293224Y21205D1*
G1X287542Y21205D1*
G1X287542Y21064D1*
G1X287123Y21064D1*
G1X287123Y18007D1*
G2X287372Y17346I-749J-660D1*
G1X287372Y14144D1*
G2X286371Y13143I-1000J-2D1*
G1X284982Y13143D1*
G1X284963Y13140D1*
G2X283981Y13140I-491J2593D1*
G1X283962Y13143D1*
G1X282573Y13143D1*
G2X281572Y14144I0J1001D1*
G1X281572Y17346D1*
G2X281821Y18007I1007J-3D1*
G1X281821Y21064D1*
G1X278707Y21064D1*
G1X278707Y5921D1*
G1X246198Y5921D1*
G1X246198Y21117D1*
G1X272488Y21117D1*
G1X272488Y34166D1*
G1X261958Y34166D1*
G1X261958Y35396D1*
G1X255086Y35396D1*
G1X255004Y35314D1*
G1X249718Y35314D1*
G1X239232Y45800D1*
G1X239232Y54519D1*
G1X238362Y55390D1*
G2X238097Y56334I709J708D1*
G3X237611Y56820I-391J95D1*
G2X236667Y57084I-238J971D1*
G1X234403Y59348D1*
G2X234207Y60485I709J707D1*
G1X234268Y60614D1*
G1X231250Y63632D1*
G1X226558Y63632D1*
G1X226558Y63371D1*
G2X225557Y62370I-1001J-1D1*
G1X210061Y62370D1*
G1X210061Y31D1*
G37*
G36*
G1X249224Y88094D2*
G1X249224Y110631D1*
G1X255343Y110631D1*
G1X255343Y121310D1*
G1X277569Y121310D1*
G1X277569Y126771D1*
G2X282871Y126771I2651J-1D1*
G1X282871Y121310D1*
G1X291321Y121310D1*
G1X291321Y122864D1*
G2X295123Y122864I1901J1624D1*
G1X295123Y121310D1*
G1X311515Y121310D1*
G1X311515Y88132D1*
G1X345464Y88132D1*
G1X345464Y86710D1*
G1X345589Y86585D1*
G1X346905Y86585D1*
G1X348198Y87878D1*
G2X349613Y87878I707J-709D1*
G1X351877Y85614D1*
G2X352141Y84670I-707J-707D1*
G3X352627Y84184I391J-95D1*
G2X353571Y83919I235J-974D1*
G1X355835Y81655D1*
G2X356112Y80766I-705J-708D1*
G1X356092Y80662D1*
G1X360649Y76106D1*
G3X361257Y76153I283J283D1*
G2X362065Y76563I809J-595D1*
G1X367163Y76563D1*
G1X367163Y82241D1*
G1X367075Y82329D1*
G1X367075Y86271D1*
G2X367181Y86928I2137J-8D1*
G1X367191Y86959D1*
G1X367191Y87846D1*
G2X367203Y88001I1172J-13D1*
G1X367205Y88016D1*
G1X367205Y88233D1*
G1X363667Y88233D1*
G1X363667Y88016D1*
G1X363669Y88001D1*
G2X363682Y87846I-896J-154D1*
G1X363682Y86959D1*
G1X363691Y86928D1*
G2X363691Y85614I-1988J-657D1*
G1X363682Y85583D1*
G1X363682Y84696D1*
G2X362681Y83695I-1000J-1D1*
G1X360712Y83695D1*
G2X359860Y84170I-1J1000D1*
G1X357280Y84170D1*
G1X347775Y93675D1*
G1X347775Y95585D1*
G1X342759Y95585D1*
G2X341816Y96250I-1J1000D1*
G1X341769Y96384D1*
G1X339251Y96384D1*
G1X286072Y149563D1*
G1X279243Y149563D1*
G2X278300Y150228I-1J1000D1*
G1X278253Y150362D1*
G1X277209Y150362D1*
G1X277141Y150294D1*
G1X273954Y150294D1*
G1X273954Y148198D1*
G1X271793Y148198D1*
G1X271793Y129140D1*
G1X260425Y129140D1*
G1X260393Y129129D1*
G2X260069Y129075I-321J926D1*
G1X256867Y129075D1*
G2X256542Y129129I-3J989D1*
G1X256510Y129140D1*
G1X255562Y129140D1*
G1X255562Y149495D1*
G3X255843Y150174I-11J401D1*
G2X255702Y150362I748J708D1*
G1X252785Y150362D1*
G1X252738Y150228D1*
G2X251795Y149563I-942J334D1*
G1X246697Y149563D1*
G1X246697Y147571D1*
G1X228112Y128986D1*
G1X226558Y128986D1*
G1X226558Y128725D1*
G2X225557Y127724I-1001J-1D1*
G1X210061Y127724D1*
G1X210061Y69096D1*
G1X225557Y69096D1*
G2X226558Y68095I0J-1001D1*
G1X226558Y67834D1*
G1X231150Y67834D1*
G1X233874Y70558D1*
G1X233813Y70687D1*
G2X234009Y71824I906J429D1*
G1X236273Y74088D1*
G2X237217Y74352I707J-712D1*
G3X237703Y74838I95J390D1*
G2X237967Y75782I975J236D1*
G1X240231Y78046D1*
G2X241647Y78046I708J-709D1*
G1X242939Y76753D1*
G1X244256Y76753D1*
G1X244449Y76946D1*
G1X248284Y76946D1*
G3X248633Y77547I0J401D1*
G2X251480Y81193I2173J1237D1*
G1X251507Y81186D1*
G1X255343Y81186D1*
G1X255343Y88094D1*
G1X249224Y88094D1*
G37*
G36*
G1X227054Y133870D2*
G1X242495Y149311D1*
G1X242495Y149697D1*
G2X241995Y150564I502J867D1*
G1X241995Y154362D1*
G2X242996Y155363I1002J-2D1*
G1X251796Y155363D1*
G2X252738Y154698I-1J-1001D1*
G1X252785Y154564D1*
G1X255702Y154564D1*
G2X256568Y155065I868J-503D1*
G1X259268Y155065D1*
G3X259552Y155750I0J401D1*
G1X257355Y157948D1*
G1X257355Y160989D1*
G1X252057Y160989D1*
G2X251071Y161821I0J1000D1*
G1X251042Y161988D1*
G1X243102Y161988D1*
G1X220769Y184322D1*
G1X216756Y184322D1*
G2X216255Y184823I0J501D1*
G1X216255Y191024D1*
G2X216756Y191524I502J-3D1*
G1X222957Y191524D1*
G2X223457Y191024I-1J-501D1*
G1X223457Y187010D1*
G1X244677Y165790D1*
G1X251042Y165790D1*
G1X251071Y165957D1*
G2X252057Y166789I987J-171D1*
G1X260857Y166789D1*
G2X261843Y165957I-1J-1001D1*
G1X261872Y165790D1*
G1X265880Y165790D1*
G1X265937Y165893D1*
G2X266812Y166409I876J-488D1*
G1X270612Y166409D1*
G2X271612Y165408I-1J-1001D1*
G1X271612Y162206D1*
G2X270612Y161205I-1000J-2D1*
G1X266812Y161205D1*
G2X265903Y161789I1J1001D1*
G1X265849Y161906D1*
G1X264725Y161906D1*
G1X264643Y161988D1*
G1X261872Y161988D1*
G1X261843Y161821D1*
G2X261274Y161080I-985J166D1*
G1X261157Y161026D1*
G1X261157Y159522D1*
G1X264415Y156264D1*
G1X265766Y156264D1*
G1X265766Y158503D1*
G1X273954Y158503D1*
G1X273954Y154496D1*
G1X275401Y154496D1*
G1X275469Y154564D1*
G1X278253Y154564D1*
G1X278300Y154698D1*
G2X279243Y155363I944J-339D1*
G1X288042Y155363D1*
G2X289043Y154362I0J-1001D1*
G1X289043Y152534D1*
G1X340991Y100586D1*
G1X341769Y100586D1*
G1X341816Y100720D1*
G2X342760Y101385I944J-339D1*
G1X351559Y101385D1*
G2X352560Y100384I0J-1001D1*
G1X352560Y96586D1*
G2X352074Y95728I-999J-2D1*
G1X351977Y95669D1*
G1X351977Y95415D1*
G1X359020Y88372D1*
G1X359648Y88372D1*
G1X359648Y94516D1*
G1X359730Y94516D1*
G1X359730Y94735D1*
G1X359727Y94753D1*
G2X359711Y94931I1082J187D1*
G1X359711Y98082D1*
G2X360712Y99083I1002J-2D1*
G1X363335Y99083D1*
G1X363335Y101387D1*
G2X363034Y102102I702J716D1*
G1X363034Y105901D1*
G2X364035Y106902I1002J-2D1*
G1X372835Y106902D1*
G2X373778Y106236I-1J-1001D1*
G1X373825Y106102D1*
G1X390449Y106102D1*
G1X390449Y106363D1*
G2X391449Y107364I1001J-1D1*
G1X406906Y107364D1*
G1X406906Y196813D1*
G1X210061Y196813D1*
G1X210061Y134450D1*
G1X225557Y134450D1*
G2X226422Y133952I-1J-1002D1*
G3X227054Y133870I347J201D1*
G37*
G36*
G1X247199Y6922D2*
G1X277706Y6922D1*
G1X277706Y20116D1*
G1X247199Y20116D1*
G1X247199Y6922D1*
G37*
G36*
G1X238505Y63450D2*
G1X240769Y61186D1*
G2X241033Y60242I-707J-707D1*
G3X241519Y59756I391J-95D1*
G2X242463Y59491I235J-974D1*
G1X244727Y57228D1*
G2X244727Y55812I-707J-708D1*
G1X243434Y54520D1*
G1X243434Y47540D1*
G1X251458Y39516D1*
G1X253264Y39516D1*
G1X253346Y39598D1*
G1X261958Y39598D1*
G1X261958Y40166D1*
G1X271312Y40166D1*
G1X271354Y40188D1*
G2X271807Y40296I455J-906D1*
G1X272488Y40296D1*
G1X272488Y42789D1*
G1X272152Y42789D1*
G1X272065Y42792D1*
G1X272056Y42793D1*
G1X266862Y42793D1*
G1X266853Y42792D1*
G1X266767Y42789D1*
G1X263565Y42789D1*
G1X263478Y42792D1*
G1X263470Y42793D1*
G1X262462Y42793D1*
G1X262462Y64924D1*
G1X276355Y64924D1*
G1X276355Y55861D1*
G1X276364Y55840D1*
G1X287900Y55840D1*
G1X288543Y56483D1*
G1X288543Y57465D1*
G1X288623Y57545D1*
G1X288623Y65758D1*
G1X290812Y67947D1*
G1X290819Y68017D1*
G2X293571Y65266I2487J-264D1*
G1X293500Y65259D1*
G1X292425Y64183D1*
G1X292425Y55840D1*
G1X300257Y55840D1*
G1X300301Y55884D1*
G1X300301Y62976D1*
G2X304103Y62976I1901J1624D1*
G1X304103Y55840D1*
G1X311303Y55840D1*
G1X311303Y55826D1*
G1X314006Y55826D1*
G2X314006Y50524I0J-2651D1*
G1X311303Y50524D1*
G1X311303Y40854D1*
G1X317276Y40854D1*
G2X317937Y41103I662J-758D1*
G1X326737Y41103D1*
G2X327239Y40968I-2J-1006D1*
G1X327286Y40941D1*
G1X345685Y40941D1*
G3X346003Y41589I0J401D1*
G2X345794Y42201I797J613D1*
G1X345794Y45402D1*
G2X346460Y46345I1002J-2D1*
G1X346593Y46392D1*
G1X346593Y58919D1*
G1X346804Y59130D1*
G1X346804Y60448D1*
G1X345512Y61741D1*
G2X345512Y63156I709J707D1*
G1X347775Y65420D1*
G2X348719Y65684I707J-712D1*
G3X349205Y66170I95J390D1*
G2X349470Y67114I976J235D1*
G1X351734Y69378D1*
G2X352871Y69574I707J-710D1*
G1X352999Y69513D1*
G1X357149Y73663D1*
G1X354369Y76443D1*
G1X353975Y76443D1*
G1X352999Y77419D1*
G1X352871Y77358D1*
G2X351734Y77554I-430J903D1*
G1X349470Y79818D1*
G2X349205Y80762I709J708D1*
G3X348719Y81248I-391J95D1*
G2X347775Y81512I-238J971D1*
G1X346904Y82383D1*
G1X345464Y82383D1*
G1X345464Y81708D1*
G1X311515Y81708D1*
G1X311515Y71630D1*
G1X298575Y71630D1*
G2X295061Y71368I-1889J1638D1*
G1X285200Y71368D1*
G1X285171Y71201D1*
G2X284185Y70368I-986J166D1*
G1X280983Y70368D1*
G2X279982Y71369I0J1001D1*
G1X279982Y71630D1*
G1X255343Y71630D1*
G1X255343Y72744D1*
G1X246189Y72744D1*
G1X245996Y72551D1*
G1X242939Y72551D1*
G1X242069Y71681D1*
G2X241125Y71416I-707J704D1*
G3X240639Y70930I-95J-392D1*
G2X240375Y69986I-970J-238D1*
G1X238111Y67722D1*
G2X236973Y67526I-708J706D1*
G1X236845Y67587D1*
G1X235041Y65783D1*
G1X237239Y63585D1*
G1X237367Y63646D1*
G2X238505Y63450I430J-905D1*
G37*
G36*
G1X263463Y63923D2*
G1X263463Y43794D1*
G1X275354Y43794D1*
G1X275354Y63923D1*
G1X263463Y63923D1*
G37*
G36*
G1X250225Y109630D2*
G1X250225Y89095D1*
G1X260464Y89095D1*
G1X260464Y109630D1*
G1X250225Y109630D1*
G37*
G36*
G1X256563Y148494D2*
G1X256563Y130141D1*
G1X270792Y130141D1*
G1X270792Y148494D1*
G1X264943Y148494D1*
G1X264941Y148492D1*
G2X261369Y148494I-1786J901D1*
G1X256563Y148494D1*
G37*
G36*
G1X284876Y82766D2*
G1X297076Y82766D1*
G1X297076Y86642D1*
G1X284876Y86642D1*
G1X284876Y82766D1*
G37*
G36*
G1X303178Y31095D2*
G1X303178Y6562D1*
G1X313708Y6562D1*
G1X313708Y31095D1*
G1X303178Y31095D1*
G37*
G36*
G1X296356Y35365D2*
G2X296696Y34996I-542J-840D1*
G1X296753Y34890D1*
G1X298674Y34890D1*
G1X298674Y41873D1*
G1X296753Y41873D1*
G1X296696Y41767D1*
G2X296356Y41397I-875J462D1*
G1X296264Y41338D1*
G1X296264Y35424D1*
G1X296356Y35365D1*
G37*
G36*
G1X298699Y116128D2*
G1X298699Y97361D1*
G1X310431Y97361D1*
G1X310431Y116128D1*
G1X298699Y116128D1*
G37*
%LPC*%
G36*
G1X338638Y158582D2*
G1X355176Y158582D1*
G3X355324Y158593I6J918D1*
G1X355339Y158595D1*
G1X356382Y158595D1*
G1X356382Y173057D1*
G1X356415Y173057D1*
G1X356415Y174309D1*
G1X355970Y174309D1*
G1X355970Y192084D1*
G1X323504Y192084D1*
G1X323504Y174309D1*
G1X323386Y174309D1*
G1X323386Y173049D1*
G1X323372Y173049D1*
G1X323372Y158595D1*
G1X338473Y158595D1*
G1X338488Y158593D1*
G3X338638Y158582I143J924D1*
G37*
G74*
G54D48*
G1X279856Y187923D3*
G1X289856Y187923D3*
G1X299856Y187923D3*
G1X309856Y187923D3*
G54D50*
G1X229856Y187923D3*
G1X239856Y187923D3*
G1X249856Y187923D3*
G1X259856Y187923D3*
G1X269856Y187923D3*
%LPD*%
G36*
G1X324373Y159596D2*
G1X355381Y159596D1*
G1X355381Y172048D1*
G1X324373Y172048D1*
G1X324373Y159596D1*
G37*
G36*
G1X324505Y175313D2*
G1X354969Y175313D1*
G1X354969Y191083D1*
G1X324505Y191083D1*
G1X324505Y175313D1*
G37*
G1X250806Y78785D2*
G54D10*
G1X260819Y78785D1*
G1X264460Y82426D1*
G1X264460Y82725D1*
G1X219849Y9828D3*
G1X229691Y9828D3*
G1X229691Y19670D3*
G1X219849Y19670D3*
G1X219849Y29513D3*
G1X229691Y29513D3*
G1X229691Y39355D3*
G1X219849Y39355D3*
G1X229691Y49198D3*
G1X219849Y49198D3*
G1X229691Y59040D3*
G1X229691Y88568D3*
G1X219849Y88568D3*
G1X229691Y98410D3*
G1X229691Y108253D3*
G1X219849Y108253D3*
G1X219849Y98410D3*
G1X229691Y118095D3*
G1X219849Y157465D3*
G1X229691Y157465D3*
G1X229691Y167308D3*
G1X219849Y167308D3*
G1X219849Y177150D3*
G1X239534Y9828D3*
G1X239534Y19670D3*
G1X239534Y29513D3*
G1X244849Y24394D3*
G1X239534Y39355D3*
G1X245806Y67885D3*
G1X239534Y88568D3*
G1X239534Y108253D3*
G1X239534Y98410D3*
G1X246226Y96245D3*
G1X239534Y118095D3*
G1X249376Y118095D3*
G1X239534Y127938D3*
G1X239534Y137780D3*
G1X248195Y139355D3*
G1X247801Y132268D3*
G1X252919Y28331D3*
G1X254691Y49394D3*
G1X252706Y67885D3*
G1X259406Y67885D3*
G1X266506Y67885D3*
G1X259706Y61185D3*
G1X252706Y61185D3*
G1X263156Y149394D3*
G1X268667Y174001D3*
G1X270636Y28135D3*
G1X283431Y34228D3*
G1X284132Y39946D3*
G1X272406Y68085D3*
G1X279406Y61385D3*
G1X279306Y65085D3*
G1X283906Y65185D3*
G1X278806Y87885D3*
G1X280725Y85878D3*
G1X278806Y83885D3*
G1X282606Y83985D3*
G1X282706Y87985D3*
G1X269806Y152485D3*
G1X269806Y155085D3*
G1X294106Y36585D3*
G1X290506Y40185D3*
G1X290518Y36599D3*
G1X294006Y40285D3*
G1X292309Y38381D3*
G1X293667Y64158D3*
G1X308431Y157465D3*
G1X321817Y5891D3*
G1X322408Y13174D3*
G1X322408Y19670D3*
G1X318274Y49198D3*
G1X328116Y49198D3*
G1X328116Y59040D3*
G1X318274Y59040D3*
G1X318274Y68883D3*
G1X328116Y68883D3*
G1X311975Y58843D3*
G1X317880Y101363D3*
G1X328116Y118095D3*
G1X318274Y127938D3*
G1X319258Y110418D3*
G1X328116Y137780D3*
G1X318274Y147623D3*
G1X328116Y147623D3*
G1X318274Y157465D3*
G1X337959Y9828D3*
G1X347801Y9828D3*
G1X337959Y19670D3*
G1X347801Y19670D3*
G1X337959Y49198D3*
G1X337959Y59040D3*
G1X337959Y68883D3*
G1X337959Y78725D3*
G1X328904Y74788D3*
G1X347801Y118095D3*
G1X337959Y127938D3*
G1X347801Y127938D3*
G1X337959Y137780D3*
G1X347801Y137780D3*
G1X337959Y147623D3*
G1X357644Y9828D3*
G1X367486Y9828D3*
G1X357644Y19670D3*
G1X367486Y19670D3*
G1X357644Y29513D3*
G1X367486Y29513D3*
G1X357644Y39355D3*
G1X367486Y39355D3*
G1X357644Y49198D3*
G1X367486Y49198D3*
G1X367486Y59040D3*
G1X357644Y118095D3*
G1X367486Y118095D3*
G1X357644Y127938D3*
G1X367486Y127938D3*
G1X357644Y137780D3*
G1X357644Y147623D3*
G1X367486Y147623D3*
G1X367486Y157465D3*
G1X367486Y167308D3*
G1X367486Y177150D3*
G1X359415Y183843D3*
G1X387171Y9828D3*
G1X377329Y9828D3*
G1X387171Y19670D3*
G1X377329Y19670D3*
G1X377329Y29513D3*
G1X387171Y29513D3*
G1X377329Y39355D3*
G1X387171Y39355D3*
G1X377329Y49198D3*
G1X387171Y49198D3*
G1X377329Y59040D3*
G1X387171Y59040D3*
G1X387171Y108253D3*
G1X387171Y98410D3*
G1X387171Y118095D3*
G1X377329Y118095D3*
G1X387171Y127938D3*
G1X377329Y127938D3*
G1X387171Y147623D3*
G1X377329Y147623D3*
G1X387171Y157465D3*
G1X377329Y157465D3*
G1X387171Y167308D3*
G1X377329Y167308D3*
G1X377329Y177150D3*
G1X387171Y177150D3*
G1X397014Y9828D3*
G1X397014Y19670D3*
G1X397014Y29513D3*
G1X397014Y39355D3*
G1X397014Y49198D3*
G1X397014Y68883D3*
G1X397014Y59040D3*
G1X397014Y78725D3*
G1X397014Y127938D3*
G1X397014Y137780D3*
G1X397014Y147623D3*
G1X397014Y157465D3*
G1X397014Y167308D3*
G1X397014Y186993D3*
G1X397014Y177150D3*
G54D75*
G1X269850Y153379D3*
G54D71*
G1X217880Y54906D3*
G1X217880Y65733D3*
G1X217880Y76560D3*
G1X217880Y120260D3*
G1X217880Y141914D3*
G1X217880Y131087D3*
G1X399126Y93174D3*
G1X399126Y104001D3*
G1X399126Y114828D3*
G54D46*
G1X219856Y187923D3*
G54D80*
G1X346906Y165685D3*
G54D78*
G1X266306Y150426D3*
G1X266306Y152395D3*
G1X266306Y154363D3*
G1X266306Y156332D3*
G1X286040Y87847D3*
G1X286040Y85878D3*
G1X286040Y83910D3*
G1X275410Y83910D3*
G1X275410Y85878D3*
G1X275410Y87847D3*
G1X273393Y156332D3*
G1X273393Y154363D3*
G1X273393Y152395D3*
G1X273393Y150426D3*
G54D82*
G1X287191Y35428D3*
G1X287191Y37397D3*
G1X287191Y39365D3*
G1X287191Y41334D3*
G1X297427Y41334D3*
G1X297427Y39365D3*
G1X297427Y37397D3*
G1X297427Y35428D3*
G54D47*
G1X229856Y187923D3*
G1X239856Y187923D3*
G1X249856Y187923D3*
G1X259856Y187923D3*
G1X269856Y187923D3*
G1X279856Y187923D3*
G1X289856Y187923D3*
G1X299856Y187923D3*
G1X309856Y187923D3*
G54D79*
G1X365436Y86271D3*
G1X361696Y86271D3*
G1X361696Y96507D3*
G1X365436Y96507D3*
G1X388088Y67753D3*
G1X384348Y67753D3*
G1X380608Y67753D3*
G1X369176Y86271D3*
G1X380608Y77989D3*
G1X384348Y77989D3*
G1X388088Y77989D3*
G1X369176Y96507D3*
G54D83*
G1X379583Y137732D3*
G1X379583Y188716D3*
G54D11*
G1X250194Y11411D3*
G1X250806Y78785D3*
G1X256498Y11411D3*
G1X262802Y11411D3*
G1X269106Y11411D3*
G1X266348Y60267D3*
G1X255316Y105971D3*
G1X252952Y99273D3*
G1X265954Y133157D3*
G1X265954Y139067D3*
G1X265954Y145371D3*
G1X274622Y11411D3*
G1X271864Y60267D3*
G1X274983Y104102D3*
G1X280220Y126771D3*
G1X305748Y10229D3*
G1X305748Y24019D3*
G1X305748Y16927D3*
G1X293306Y67753D3*
G1X302202Y64601D3*
G1X296686Y73269D3*
G1X293140Y103198D3*
G1X301808Y100455D3*
G1X301808Y106759D3*
G1X301808Y113457D3*
G1X293222Y124489D3*
G1X314006Y53175D3*
G1X327812Y188317D3*
G1X339632Y188317D3*
G1X345542Y188317D3*
G1X334116Y178467D3*
G1X340026Y178467D3*
G1X345542Y178467D3*
G1X333722Y188317D3*
G1X336480Y183195D3*
G1X342390Y183195D3*
G1X380608Y62785D3*
G1X388088Y87454D3*
G1X374308Y87454D3*
G1X384348Y82919D3*
G54D55*
G1X280725Y85878D3*
G1X287191Y37397D2*
G54D84*
G1X282007Y37397D1*
G1X282006Y37396D1*
G1X279006Y37396D1*
G54D77*
G1X282693Y80564D3*
G1X280725Y80564D3*
G1X278756Y80564D3*
G1X278756Y91193D3*
G1X280725Y91193D3*
G1X282693Y91193D3*
G54D73*
G1X249406Y24015D3*
G1X249406Y18503D3*
G1X285755Y187923D2*
G54D14*
G1X289856Y187923D1*
G1X279856Y183822D2*
G1X279856Y187923D1*
G1X279856Y192024D1*
G1X275755Y187923D2*
G1X279856Y187923D1*
G1X283957Y187923D1*
G1X305755Y187923D2*
G1X309856Y187923D1*
G1X299856Y183822D2*
G1X299856Y187923D1*
G1X299856Y192024D1*
G1X295755Y187923D2*
G1X299856Y187923D1*
G1X303957Y187923D1*
G1X289856Y183822D2*
G1X289856Y187923D1*
G1X289856Y192024D1*
G1X289856Y187923D2*
G1X293957Y187923D1*
G1X309856Y183822D2*
G1X309856Y187923D1*
G1X309856Y192024D1*
G1X309856Y187923D2*
G1X313957Y187923D1*
G54D67*
G1X237586Y60267D3*
G1X241544Y56309D3*
G1X348694Y84695D3*
G1X352652Y80737D3*
G54D72*
G1X308506Y29542D3*
G1X308506Y38203D3*
G1X253658Y163889D2*
G54D15*
G1X243890Y163889D1*
G1X219856Y187923D1*
G1X258862Y82725D2*
G1X253841Y82725D1*
G1X271864Y85878D2*
G1X275410Y85878D1*
G1X275410Y87847D2*
G1X272258Y90999D1*
G1X264460Y90999D1*
G1X264460Y98879D2*
G1X269119Y98879D1*
G1X276805Y91193D1*
G1X278756Y91193D1*
G1X264730Y157859D2*
G1X266258Y156332D1*
G1X266306Y156332D1*
G1X266306Y150426D2*
G1X264187Y150426D1*
G1X263156Y149394D1*
G1X259256Y163889D2*
G1X259256Y158735D1*
G1X263628Y154363D1*
G1X266306Y154363D1*
G1X259256Y163889D2*
G1X265430Y163889D1*
G1X265512Y163807D1*
G1X268712Y163807D1*
G1X287191Y35428D2*
G1X284632Y35428D1*
G1X283431Y34228D1*
G1X287191Y39365D2*
G1X284996Y39365D1*
G1X284415Y39946D1*
G1X284132Y39946D1*
G1X289356Y43499D2*
G1X289356Y48542D1*
G1X287624Y50274D1*
G1X287624Y53175D1*
G1X287191Y41334D2*
G1X287133Y41334D1*
G1X286352Y42115D1*
G1X282625Y42115D1*
G1X279350Y45390D1*
G1X279350Y45689D1*
G1X279406Y58785D2*
G1X279432Y58759D1*
G1X279432Y53569D1*
G1X293306Y67753D2*
G1X290524Y64971D1*
G1X290524Y56758D1*
G1X290444Y56678D1*
G1X290444Y55696D1*
G1X287923Y53175D1*
G1X287624Y53175D1*
G1X276986Y73269D2*
G1X276986Y70604D1*
G1X282693Y80564D2*
G1X282693Y76578D1*
G1X282584Y76469D1*
G1X282584Y73269D1*
G1X296686Y73269D2*
G1X282584Y73269D1*
G1X286040Y87847D2*
G1X286040Y89738D1*
G1X286040Y87847D2*
G1X286040Y85878D1*
G1X280581Y96027D2*
G1X280725Y95883D1*
G1X280725Y91193D1*
G1X274983Y99227D2*
G1X274983Y104102D1*
G1X282693Y91193D2*
G1X282693Y94125D1*
G1X287542Y98974D1*
G1X287542Y99273D1*
G1X287542Y103871D1*
G1X287624Y103953D1*
G1X287624Y107153D1*
G1X287624Y115033D1*
G1X274622Y119761D2*
G1X274622Y122967D1*
G1X273393Y156332D2*
G1X275408Y156332D1*
G1X276070Y155891D2*
G1X276070Y155203D1*
G1X275163Y149394D2*
G1X274132Y150426D1*
G1X273393Y150426D1*
G1X276070Y155203D2*
G1X275230Y154363D1*
G1X273393Y154363D1*
G1X291325Y33263D2*
G1X291325Y30703D1*
G1X290075Y29453D1*
G1X290070Y29453D1*
G1X289356Y30167D1*
G1X289356Y33263D1*
G1X291325Y43499D2*
G1X291325Y47719D1*
G1X296781Y53175D1*
G1X297080Y53175D1*
G1X293293Y43499D2*
G1X293293Y46059D1*
G1X294893Y47659D1*
G1X306631Y53175D2*
G1X306930Y53175D1*
G1X297080Y53175D2*
G1X300280Y53175D1*
G1X302202Y55097D1*
G1X302202Y64601D1*
G1X308506Y79491D2*
G1X314512Y79491D1*
G1X293140Y99273D2*
G1X293140Y103198D1*
G1X293222Y107153D2*
G1X293222Y103280D1*
G1X293140Y103198D1*
G1X293222Y115033D2*
G1X293222Y124489D1*
G1X374308Y87454D2*
G1X370439Y91324D1*
G1X364005Y91324D1*
G1X361696Y93632D1*
G1X361696Y96507D1*
G1X380608Y67753D2*
G1X380608Y62785D1*
G1X369176Y96507D2*
G1X371461Y96507D1*
G1X380608Y87360D1*
G1X380608Y77989D1*
G1X380608Y75114D1*
G1X384233Y71489D1*
G1X387227Y71489D1*
G1X388088Y70628D1*
G1X388088Y67753D1*
G1X384348Y77989D2*
G1X384348Y82919D1*
G1X388088Y77989D2*
G1X388088Y87454D1*
G54D76*
G1X292309Y38381D3*
G54D58*
G1X237192Y70905D3*
G1X241150Y74863D3*
G1X348694Y62237D3*
G1X352652Y66195D3*
G1X264460Y82725D2*
G54D20*
G1X268711Y82725D1*
G1X271864Y85878D1*
G1X284472Y24413D2*
G1X284472Y15745D1*
G1X284472Y24413D2*
G1X279316Y24413D1*
G1X279004Y24101D1*
G1X275804Y24101D1*
G1X286040Y89738D2*
G1X289665Y93363D1*
G1X308506Y93363D1*
G1X280581Y99227D2*
G1X280581Y103333D1*
G1X280138Y103776D1*
G1X280138Y106677D1*
G1X280581Y99227D2*
G1X280581Y96027D1*
G1X280138Y112275D2*
G1X280138Y116479D1*
G1X280220Y116561D1*
G1X280220Y119761D1*
G1X280220Y126771D1*
G1X290070Y29453D2*
G1X290070Y24413D1*
G1X294893Y47659D2*
G1X301115Y47659D1*
G1X306631Y53175D1*
G1X308506Y38203D2*
G1X319538Y38203D1*
G1X297427Y37397D2*
G1X298233Y38203D1*
G1X308506Y38203D1*
G1X306930Y53175D2*
G1X314006Y53175D1*
G54D66*
G1X246254Y90999D3*
G1X250194Y152463D3*
G1X244596Y152463D3*
G1X265166Y45689D3*
G1X259568Y45689D3*
G1X265166Y53569D3*
G1X259568Y53569D3*
G1X258862Y82725D3*
G1X264460Y82725D3*
G1X258862Y74845D3*
G1X264460Y74845D3*
G1X251852Y90999D3*
G1X258862Y90999D3*
G1X264460Y90999D3*
G1X258862Y98879D3*
G1X264460Y98879D3*
G1X258468Y131975D3*
G1X252870Y131975D3*
G1X258468Y139461D3*
G1X252870Y139461D3*
G1X259256Y163889D3*
G1X253658Y163889D3*
G1X284472Y24413D3*
G1X273408Y37396D3*
G1X279006Y37396D3*
G1X279350Y45689D3*
G1X273752Y45689D3*
G1X273834Y53569D3*
G1X279432Y53569D3*
G1X276986Y73269D3*
G1X282584Y73269D3*
G1X274983Y99227D3*
G1X280581Y99227D3*
G1X287542Y99273D3*
G1X287624Y107153D3*
G1X274622Y119761D3*
G1X280220Y119761D3*
G1X287624Y115033D3*
G1X286442Y152463D3*
G1X280844Y152463D3*
G1X290070Y24413D3*
G1X295504Y84695D3*
G1X301102Y84695D3*
G1X308424Y106365D3*
G1X293140Y99273D3*
G1X293222Y107153D3*
G1X308424Y114245D3*
G1X293222Y115033D3*
G1X312052Y15351D3*
G1X317650Y15351D3*
G1X312052Y23231D3*
G1X317650Y23231D3*
G1X319538Y38203D3*
G1X325136Y38203D3*
G1X315992Y84695D3*
G1X321590Y84695D3*
G1X314022Y106365D3*
G1X314022Y114245D3*
G1X344360Y98485D3*
G1X363666Y73663D3*
G1X365636Y104001D3*
G1X349958Y98485D3*
G1X358938Y189105D3*
G1X353340Y189105D3*
G1X369264Y73663D3*
G1X371234Y104001D3*
G54D81*
G1X289356Y43499D3*
G1X291325Y43499D3*
G1X293293Y43499D3*
G1X295262Y43499D3*
G1X295262Y33263D3*
G1X293293Y33263D3*
G1X291325Y33263D3*
G1X289356Y33263D3*
G1X217880Y65733D2*
G54D45*
G1X232120Y65733D1*
G1X217880Y131087D2*
G1X227242Y131087D1*
G1X244596Y148441D1*
G1X244596Y152463D1*
G1X265166Y37497D2*
G1X254216Y37497D1*
G1X254134Y37415D1*
G1X250588Y37415D1*
G1X241333Y46670D1*
G1X241333Y56098D1*
G1X241544Y56309D1*
G1X232120Y65733D2*
G1X237586Y60267D1*
G1X237192Y70905D2*
G1X232120Y65833D1*
G1X232120Y65733D1*
G1X258862Y74845D2*
G1X245319Y74845D1*
G1X245126Y74652D1*
G1X241361Y74652D1*
G1X241150Y74863D1*
G1X273408Y37396D2*
G1X268667Y37396D1*
G1X268566Y37497D1*
G1X265166Y37497D1*
G1X264460Y74845D2*
G1X268436Y74845D1*
G1X275410Y81819D1*
G1X275410Y83910D1*
G1X258468Y152463D2*
G1X263360Y152463D1*
G1X263428Y152395D1*
G1X266306Y152395D1*
G1X258468Y152463D2*
G1X250194Y152463D1*
G1X280844Y152463D2*
G1X276339Y152463D1*
G1X276271Y152395D1*
G1X273393Y152395D1*
G1X344360Y98485D2*
G1X340121Y98485D1*
G1X286442Y152164D1*
G1X286442Y152463D1*
G1X301102Y84695D2*
G1X304712Y84695D1*
G1X305106Y85089D1*
G1X308506Y85089D1*
G1X312497Y85089D1*
G1X312891Y84695D1*
G1X315992Y84695D1*
G1X325136Y38203D2*
G1X332934Y38203D1*
G1X321590Y84695D2*
G1X325512Y84695D1*
G1X325594Y84777D1*
G1X328994Y84777D1*
G1X332934Y38203D2*
G1X340814Y38203D1*
G1X348694Y38203D1*
G1X328994Y84777D2*
G1X344425Y84777D1*
G1X344718Y84484D1*
G1X348483Y84484D1*
G1X348694Y84695D1*
G1X348694Y43801D2*
G1X348694Y58050D1*
G1X348905Y58261D1*
G1X348905Y62026D1*
G1X348694Y62237D1*
G1X352652Y66195D2*
G1X360120Y73663D1*
G1X349958Y98485D2*
G1X349876Y98403D1*
G1X349876Y94545D1*
G1X358150Y86271D1*
G1X361696Y86271D1*
G1X360120Y73663D2*
G1X363666Y73663D1*
G1X352652Y80737D2*
G1X354845Y78544D1*
G1X355239Y78544D1*
G1X360120Y73663D1*
G1X365436Y96507D2*
G1X365436Y100401D1*
G1X365636Y100601D1*
G1X365636Y104001D1*
G1X369264Y73663D2*
G1X369264Y83108D1*
G1X369176Y83196D1*
G1X369176Y86271D1*
G1X371234Y104001D2*
G1X399126Y104001D1*
G54D68*
G1X257286Y18503D3*
G1X257286Y24101D3*
G1X265954Y18503D3*
G1X265954Y24101D3*
G1X265166Y31899D3*
G1X265166Y37497D3*
G1X258468Y146865D3*
G1X258468Y152463D3*
G1X268712Y169405D3*
G1X268712Y163807D3*
G1X284472Y10147D3*
G1X284472Y15745D3*
G1X275804Y18503D3*
G1X275804Y24101D3*
G1X287624Y53175D3*
G1X287624Y58773D3*
G1X280138Y106677D3*
G1X280138Y112275D3*
G1X306930Y53175D3*
G1X306930Y58773D3*
G1X297080Y53175D3*
G1X297080Y58773D3*
G1X308506Y85089D3*
G1X308506Y79491D3*
G1X308506Y93363D3*
G1X308506Y98961D3*
G1X328994Y79179D3*
G1X328994Y84777D3*
G1X348694Y38203D3*
G1X348694Y43801D3*
G1X332934Y38203D3*
G1X332934Y43801D3*
G1X340814Y38203D3*
G1X340814Y43801D3*
G54D74*
G1X317958Y8653D3*
G1X312446Y8653D3*
G54D31*
G1X327024Y169405D3*
G1X327024Y177807D3*
G54D10*
G36*
G1X420061Y26D2*
G1X616906Y26D1*
G1X616906Y100634D1*
G1X601449Y100634D1*
G75*
G2X600449Y101634I-1J999D1*
G1X600449Y101895D1*
G1X583825Y101895D1*
G1X583778Y101761D1*
G2X582834Y101096I-944J336D1*
G1X577737Y101096D1*
G1X577737Y99726D1*
G1X577537Y99526D1*
G1X577537Y99078D1*
G1X580160Y99078D1*
G2X581060Y98516I-1J-1003D1*
G1X581115Y98403D1*
G1X582249Y98403D1*
G1X592509Y88142D1*
G1X592509Y85436D1*
G3X593110Y85087I401J-1D1*
G2X595586Y85087I1237J-2175D1*
G3X596187Y85436I199J349D1*
G1X596187Y85823D1*
G1X596143Y85878D1*
G2X599989Y85824I1945J1570D1*
G1X599989Y79963D1*
G1X600003Y79928D1*
G2X600073Y79560I-948J-371D1*
G1X600073Y76409D1*
G2X600013Y76067I-1017J2D1*
G1X600001Y76034D1*
G1X600001Y69698D1*
G1X600013Y69665D1*
G2X600073Y69323I-961J-345D1*
G1X600073Y66173D1*
G2X599072Y65172I-1002J0D1*
G1X597104Y65172D1*
G2X596103Y66173I-1J1000D1*
G1X596103Y69323D1*
G1X596104Y69372D1*
G1X596104Y69583D1*
G1X593446Y69583D1*
G1X593437Y69592D1*
G1X592591Y69592D1*
G1X592591Y69380D1*
G1X592593Y69323D1*
G1X592593Y66171D1*
G2X592523Y65804I-1013J2D1*
G1X592509Y65769D1*
G1X592509Y64405D1*
G2X588707Y64405I-1902J-1626D1*
G1X588707Y65769D1*
G1X588693Y65804D1*
G2X588623Y66172I917J365D1*
G1X588623Y69323D1*
G2X588664Y69607I983J2D1*
G1X588672Y69635D1*
G1X588672Y76097D1*
G1X588664Y76125D1*
G2X588623Y76409I937J280D1*
G1X588623Y79560D1*
G2X588693Y79928I990J2D1*
G1X588707Y79963D1*
G1X588707Y86567D1*
G1X587495Y87780D1*
G3X586809Y87495I-284J-285D1*
G2X581822Y87185I-2501J-46D1*
G1X581814Y87256D1*
G1X581504Y87565D1*
G3X581161Y87423I-143J-143D1*
G1X581161Y86954D1*
G1X581171Y86923D1*
G2X581277Y86266I-2018J-663D1*
G1X581277Y84058D1*
G1X581365Y83970D1*
G1X581365Y76424D1*
G2X581865Y75557I-504J-868D1*
G1X581865Y71759D1*
G2X580864Y70758I-1002J0D1*
G1X572065Y70758D1*
G2X571257Y71168I-2J998D1*
G3X570649Y71215I-325J-238D1*
G1X565970Y66537D1*
G1X566031Y66409D1*
G2X565835Y65271I-906J-430D1*
G1X563571Y63008D1*
G2X562627Y62743I-708J705D1*
G3X562141Y62257I-96J-391D1*
G2X561877Y61313I-974J-237D1*
G1X561006Y60442D1*
G1X561006Y57387D1*
G1X560795Y57176D1*
G1X560795Y46387D1*
G1X560929Y46340D1*
G2X561594Y45397I-338J-945D1*
G1X561594Y42194D1*
G2X561386Y41584I-1005J1D1*
G3X561704Y40936I317J-247D1*
G1X561956Y40936D1*
G1X561956Y35571D1*
G1X537423Y35571D1*
G2X536737Y35298I-687J726D1*
G1X527937Y35298D1*
G2X527276Y35547I-2J997D1*
G1X521303Y35547D1*
G1X521303Y32113D1*
G1X523821Y32113D1*
G2X524013Y32094I-8J-1059D1*
G1X524032Y32091D1*
G1X524709Y32091D1*
G1X524709Y31576D1*
G1X524728Y31536D1*
G2X524822Y31112I-921J-427D1*
G1X524822Y27962D1*
G2X524728Y27538I-1012J1D1*
G1X524709Y27498D1*
G1X524709Y5556D1*
G1X512177Y5556D1*
G1X512177Y21271D1*
G1X503224Y21271D1*
G1X503224Y21200D1*
G1X497542Y21200D1*
G1X497542Y21059D1*
G1X497123Y21059D1*
G1X497123Y18002D1*
G2X497372Y17341I-758J-663D1*
G1X497372Y14139D1*
G2X496371Y13138I-1002J0D1*
G1X494982Y13138D1*
G1X494963Y13135D1*
G2X493981Y13135I-491J2596D1*
G1X493962Y13138D1*
G1X492573Y13138D1*
G2X491572Y14139I-1J1000D1*
G1X491572Y17341D1*
G2X491821Y18002I998J1D1*
G1X491821Y21059D1*
G1X488707Y21059D1*
G1X488707Y5916D1*
G1X456198Y5916D1*
G1X456198Y21112D1*
G1X482488Y21112D1*
G1X482488Y34161D1*
G1X471958Y34161D1*
G1X471958Y35391D1*
G1X465086Y35391D1*
G1X465004Y35309D1*
G1X459718Y35309D1*
G1X449232Y45795D1*
G1X449232Y54514D1*
G1X448362Y55385D1*
G2X448097Y56329I704J707D1*
G3X447611Y56815I-392J94D1*
G2X446667Y57079I-238J970D1*
G1X444403Y59343D1*
G2X444207Y60480I706J707D1*
G1X444268Y60609D1*
G1X441250Y63627D1*
G1X436558Y63627D1*
G1X436558Y63366D1*
G2X435557Y62365I-1002J0D1*
G1X420061Y62365D1*
G1X420061Y26D1*
G37*
G36*
G1X459224Y88089D2*
G1X459224Y110626D1*
G1X465343Y110626D1*
G1X465343Y121305D1*
G1X487569Y121305D1*
G1X487569Y126766D1*
G2X492871Y126766I2651J-1D1*
G1X492871Y121305D1*
G1X501321Y121305D1*
G1X501321Y122859D1*
G2X505123Y122859I1901J1624D1*
G1X505123Y121305D1*
G1X521515Y121305D1*
G1X521515Y88127D1*
G1X555464Y88127D1*
G1X555464Y86705D1*
G1X555589Y86580D1*
G1X556905Y86580D1*
G1X558198Y87873D1*
G2X559613Y87873I707J-709D1*
G1X561877Y85609D1*
G2X562141Y84665I-711J-708D1*
G3X562627Y84179I390J-96D1*
G2X563571Y83914I235J-975D1*
G1X565835Y81650D1*
G2X566112Y80761I-710J-709D1*
G1X566092Y80657D1*
G1X570649Y76101D1*
G3X571257Y76148I283J283D1*
G2X572065Y76558I808J-592D1*
G1X577163Y76558D1*
G1X577163Y82236D1*
G1X577075Y82324D1*
G1X577075Y86266D1*
G2X577181Y86923I2087J0D1*
G1X577191Y86954D1*
G1X577191Y87841D1*
G2X577203Y87996I942J4D1*
G1X577205Y88011D1*
G1X577205Y88228D1*
G1X573667Y88228D1*
G1X573667Y88011D1*
G1X573669Y87996D1*
G2X573682Y87841I-1104J-171D1*
G1X573682Y86954D1*
G1X573691Y86923D1*
G2X573691Y85609I-2000J-657D1*
G1X573682Y85578D1*
G1X573682Y84691D1*
G2X572681Y83690I-1002J0D1*
G1X570711Y83690D1*
G2X569860Y84165I-1J998D1*
G1X567280Y84165D1*
G1X557775Y93670D1*
G1X557775Y95580D1*
G1X552758Y95580D1*
G2X551816Y96245I-1J999D1*
G1X551769Y96379D1*
G1X549251Y96379D1*
G1X496072Y149558D1*
G1X489243Y149558D1*
G2X488300Y150223I-2J999D1*
G1X488253Y150357D1*
G1X487209Y150357D1*
G1X487141Y150289D1*
G1X483954Y150289D1*
G1X483954Y148193D1*
G1X481793Y148193D1*
G1X481793Y129135D1*
G1X470425Y129135D1*
G1X470393Y129124D1*
G2X470068Y129070I-323J936D1*
G1X466866Y129070D1*
G2X466542Y129124I-3J985D1*
G1X466510Y129135D1*
G1X465562Y129135D1*
G1X465562Y149490D1*
G3X465843Y150169I-12J402D1*
G2X465702Y150357I693J666D1*
G1X462785Y150357D1*
G1X462738Y150223D1*
G2X461795Y149558I-944J336D1*
G1X456697Y149558D1*
G1X456697Y147566D1*
G1X438112Y128981D1*
G1X436558Y128981D1*
G1X436558Y128720D1*
G2X435557Y127719I-1002J0D1*
G1X420061Y127719D1*
G1X420061Y69091D1*
G1X435557Y69091D1*
G2X436558Y68090I-1J-1002D1*
G1X436558Y67829D1*
G1X441150Y67829D1*
G1X443874Y70553D1*
G1X443813Y70682D1*
G2X444009Y71819I903J429D1*
G1X446273Y74083D1*
G2X447217Y74347I707J-710D1*
G3X447703Y74833I94J391D1*
G2X447967Y75777I970J237D1*
G1X450231Y78041D1*
G2X451647Y78041I708J-709D1*
G1X452939Y76748D1*
G1X454256Y76748D1*
G1X454449Y76941D1*
G1X458284Y76941D1*
G3X458633Y77542I-1J401D1*
G2X461480Y81188I2172J1237D1*
G1X461507Y81181D1*
G1X465343Y81181D1*
G1X465343Y88089D1*
G1X459224Y88089D1*
G37*
G36*
G1X437054Y133865D2*
G1X452495Y149306D1*
G1X452495Y149692D1*
G2X451995Y150559I499J865D1*
G1X451995Y154357D1*
G2X452996Y155358I1000J0D1*
G1X461795Y155358D1*
G2X462738Y154693I-1J-1002D1*
G1X462785Y154559D1*
G1X465702Y154559D1*
G2X466568Y155060I867J-500D1*
G1X469268Y155060D1*
G3X469552Y155745I-1J401D1*
G1X467355Y157943D1*
G1X467355Y160984D1*
G1X462057Y160984D1*
G2X461071Y161816I-1J999D1*
G1X461042Y161983D1*
G1X453102Y161983D1*
G1X430769Y184317D1*
G1X426756Y184317D1*
G2X426255Y184818I-1J500D1*
G1X426255Y191019D1*
G2X426756Y191519I500J-1D1*
G1X432956Y191519D1*
G2X433457Y191019I-1J-502D1*
G1X433457Y187005D1*
G1X454677Y165785D1*
G1X461042Y165785D1*
G1X461071Y165952D1*
G2X462057Y166784I986J-169D1*
G1X470856Y166784D1*
G2X471843Y165952I-1J-1002D1*
G1X471872Y165785D1*
G1X475880Y165785D1*
G1X475937Y165888D1*
G2X476812Y166404I875J-485D1*
G1X480612Y166404D1*
G2X481612Y165403I-2J-1002D1*
G1X481612Y162201D1*
G2X480612Y161200I-1001J-1D1*
G1X476812Y161200D1*
G2X475903Y161784I0J999D1*
G1X475849Y161901D1*
G1X474725Y161901D1*
G1X474643Y161983D1*
G1X471872Y161983D1*
G1X471843Y161816D1*
G2X471274Y161075I-988J169D1*
G1X471157Y161021D1*
G1X471157Y159517D1*
G1X474415Y156259D1*
G1X475766Y156259D1*
G1X475766Y158498D1*
G1X483954Y158498D1*
G1X483954Y154491D1*
G1X485401Y154491D1*
G1X485469Y154559D1*
G1X488253Y154559D1*
G1X488300Y154693D1*
G2X489243Y155358I943J-337D1*
G1X498042Y155358D1*
G2X499043Y154357I-1J-1002D1*
G1X499043Y152529D1*
G1X550991Y100581D1*
G1X551769Y100581D1*
G1X551816Y100715D1*
G2X552759Y101380I943J-337D1*
G1X561559Y101380D1*
G2X562560Y100379I-1J-1002D1*
G1X562560Y96581D1*
G2X562074Y95723I-1002J0D1*
G1X561977Y95664D1*
G1X561977Y95410D1*
G1X569020Y88367D1*
G1X569648Y88367D1*
G1X569648Y94511D1*
G1X569730Y94511D1*
G1X569730Y94730D1*
G1X569727Y94748D1*
G2X569711Y94926I922J172D1*
G1X569711Y98077D1*
G2X570712Y99078I1000J0D1*
G1X573335Y99078D1*
G1X573335Y101382D1*
G2X573034Y102097I696J713D1*
G1X573034Y105896D1*
G2X574035Y106897I1001J-1D1*
G1X582835Y106897D1*
G2X583778Y106231I-2J-1003D1*
G1X583825Y106097D1*
G1X600449Y106097D1*
G1X600449Y106358D1*
G2X601449Y107359I1000J0D1*
G1X616906Y107359D1*
G1X616906Y196808D1*
G1X420061Y196808D1*
G1X420061Y134445D1*
G1X435557Y134445D1*
G2X436422Y133947I-2J-1003D1*
G3X437054Y133865I347J201D1*
G37*
G36*
G1X457199Y6917D2*
G1X487706Y6917D1*
G1X487706Y20111D1*
G1X457199Y20111D1*
G1X457199Y6917D1*
G37*
G36*
G1X448505Y63445D2*
G1X450769Y61181D1*
G2X451033Y60237I-711J-708D1*
G3X451519Y59751I390J-96D1*
G2X452463Y59486I235J-975D1*
G1X454727Y57223D1*
G2X454727Y55807I-710J-708D1*
G1X453434Y54515D1*
G1X453434Y47535D1*
G1X461458Y39511D1*
G1X463264Y39511D1*
G1X463346Y39593D1*
G1X471958Y39593D1*
G1X471958Y40161D1*
G1X481312Y40161D1*
G1X481354Y40183D1*
G2X481806Y40291I453J-900D1*
G1X482488Y40291D1*
G1X482488Y42784D1*
G1X482152Y42784D1*
G1X482065Y42787D1*
G1X482056Y42788D1*
G1X476862Y42788D1*
G1X476853Y42787D1*
G1X476767Y42784D1*
G1X473565Y42784D1*
G1X473478Y42787D1*
G1X473470Y42788D1*
G1X472462Y42788D1*
G1X472462Y64919D1*
G1X486355Y64919D1*
G1X486355Y55856D1*
G1X486364Y55835D1*
G1X497900Y55835D1*
G1X498543Y56478D1*
G1X498543Y57460D1*
G1X498623Y57540D1*
G1X498623Y65753D1*
G1X500812Y67942D1*
G1X500819Y68012D1*
G2X503571Y65261I2487J-264D1*
G1X503500Y65254D1*
G1X502425Y64178D1*
G1X502425Y55835D1*
G1X510257Y55835D1*
G1X510301Y55879D1*
G1X510301Y62971D1*
G2X514103Y62971I1901J1624D1*
G1X514103Y55835D1*
G1X521303Y55835D1*
G1X521303Y55821D1*
G1X524006Y55821D1*
G2X524006Y50519I-1J-2651D1*
G1X521303Y50519D1*
G1X521303Y40849D1*
G1X527276Y40849D1*
G2X527937Y41098I661J-754D1*
G1X536737Y41098D1*
G2X537239Y40963I-3J-1010D1*
G1X537286Y40936D1*
G1X555685Y40936D1*
G3X556003Y41584I-1J402D1*
G2X555794Y42196I786J610D1*
G1X555794Y45397D1*
G2X556460Y46340I1000J0D1*
G1X556593Y46387D1*
G1X556593Y58914D1*
G1X556804Y59125D1*
G1X556804Y60443D1*
G1X555512Y61736D1*
G2X555512Y63151I707J707D1*
G1X557775Y65415D1*
G2X558719Y65679I707J-710D1*
G3X559205Y66165I94J391D1*
G2X559470Y67109I971J236D1*
G1X561734Y69373D1*
G2X562871Y69569I707J-709D1*
G1X562999Y69508D1*
G1X567149Y73658D1*
G1X564369Y76438D1*
G1X563975Y76438D1*
G1X562999Y77414D1*
G1X562871Y77353D1*
G2X561734Y77549I-430J902D1*
G1X559470Y79813D1*
G2X559205Y80757I704J707D1*
G3X558719Y81243I-392J94D1*
G2X557775Y81507I-238J970D1*
G1X556904Y82378D1*
G1X555464Y82378D1*
G1X555464Y81703D1*
G1X521515Y81703D1*
G1X521515Y71625D1*
G1X508575Y71625D1*
G2X505061Y71363I-1889J1638D1*
G1X495200Y71363D1*
G1X495171Y71196D1*
G2X494185Y70363I-987J167D1*
G1X490983Y70363D1*
G2X489982Y71364I-1J1000D1*
G1X489982Y71625D1*
G1X465343Y71625D1*
G1X465343Y72739D1*
G1X456189Y72739D1*
G1X455996Y72546D1*
G1X452939Y72546D1*
G1X452069Y71676D1*
G2X451125Y71411I-708J706D1*
G3X450639Y70925I-96J-391D1*
G2X450375Y69981I-974J-237D1*
G1X448111Y67717D1*
G2X446973Y67521I-708J707D1*
G1X446845Y67582D1*
G1X445041Y65778D1*
G1X447239Y63580D1*
G1X447367Y63641D1*
G2X448505Y63445I430J-906D1*
G37*
G36*
G1X473463Y63918D2*
G1X473463Y43789D1*
G1X485354Y43789D1*
G1X485354Y63918D1*
G1X473463Y63918D1*
G37*
G36*
G1X460225Y109625D2*
G1X460225Y89090D1*
G1X470464Y89090D1*
G1X470464Y109625D1*
G1X460225Y109625D1*
G37*
G36*
G1X466563Y148489D2*
G1X466563Y130136D1*
G1X480792Y130136D1*
G1X480792Y148489D1*
G1X474943Y148489D1*
G1X474941Y148487D1*
G2X471369Y148489I-1786J901D1*
G1X466563Y148489D1*
G37*
G36*
G1X494876Y82761D2*
G1X507076Y82761D1*
G1X507076Y86637D1*
G1X494876Y86637D1*
G1X494876Y82761D1*
G37*
G36*
G1X513178Y31090D2*
G1X513178Y6557D1*
G1X523708Y6557D1*
G1X523708Y31090D1*
G1X513178Y31090D1*
G37*
G36*
G1X506356Y35360D2*
G2X506696Y34991I-552J-850D1*
G1X506753Y34885D1*
G1X508674Y34885D1*
G1X508674Y41868D1*
G1X506753Y41868D1*
G1X506696Y41762D1*
G2X506356Y41392I-886J472D1*
G1X506264Y41333D1*
G1X506264Y35419D1*
G1X506356Y35360D1*
G37*
G36*
G1X508699Y116123D2*
G1X508699Y97356D1*
G1X520431Y97356D1*
G1X520431Y116123D1*
G1X508699Y116123D1*
G37*
%LPC*%
G36*
G1X548638Y158577D2*
G1X565176Y158577D1*
G3X565324Y158588I4J944D1*
G1X565339Y158590D1*
G1X566382Y158590D1*
G1X566382Y173052D1*
G1X566415Y173052D1*
G1X566415Y174304D1*
G1X565970Y174304D1*
G1X565970Y192079D1*
G1X533504Y192079D1*
G1X533504Y174304D1*
G1X533386Y174304D1*
G1X533386Y173044D1*
G1X533372Y173044D1*
G1X533372Y158590D1*
G1X548473Y158590D1*
G1X548488Y158588D1*
G3X548638Y158577I142J922D1*
G37*
G74*
G54D48*
G1X489856Y187918D3*
G1X499856Y187918D3*
G1X509856Y187918D3*
G1X519856Y187918D3*
G54D50*
G1X439856Y187918D3*
G1X449856Y187918D3*
G1X459856Y187918D3*
G1X469856Y187918D3*
G1X479856Y187918D3*
%LPD*%
G36*
G1X534373Y159591D2*
G1X565381Y159591D1*
G1X565381Y172043D1*
G1X534373Y172043D1*
G1X534373Y159591D1*
G37*
G36*
G1X534505Y175308D2*
G1X564969Y175308D1*
G1X564969Y191078D1*
G1X534505Y191078D1*
G1X534505Y175308D1*
G37*
G1X460806Y78780D2*
G54D10*
G1X470819Y78780D1*
G1X474460Y82421D1*
G1X474460Y82720D1*
G1X429849Y9823D3*
G1X439691Y9823D3*
G1X439691Y19665D3*
G1X429849Y19665D3*
G1X429849Y29508D3*
G1X439691Y29508D3*
G1X439691Y39350D3*
G1X429849Y39350D3*
G1X439691Y49193D3*
G1X429849Y49193D3*
G1X439691Y59035D3*
G1X439691Y88563D3*
G1X429849Y88563D3*
G1X439691Y98405D3*
G1X439691Y108248D3*
G1X429849Y108248D3*
G1X429849Y98405D3*
G1X439691Y118090D3*
G1X429849Y157460D3*
G1X439691Y157460D3*
G1X439691Y167303D3*
G1X429849Y167303D3*
G1X429849Y177145D3*
G1X449534Y9823D3*
G1X449534Y19665D3*
G1X449534Y29508D3*
G1X454849Y24389D3*
G1X449534Y39350D3*
G1X455806Y67880D3*
G1X449534Y88563D3*
G1X449534Y108248D3*
G1X449534Y98405D3*
G1X456226Y96240D3*
G1X449534Y118090D3*
G1X459376Y118090D3*
G1X449534Y127933D3*
G1X449534Y137775D3*
G1X458195Y139350D3*
G1X457801Y132263D3*
G1X462919Y28326D3*
G1X464691Y49389D3*
G1X462706Y67880D3*
G1X469406Y67880D3*
G1X476506Y67880D3*
G1X469706Y61180D3*
G1X462706Y61180D3*
G1X473156Y149389D3*
G1X478667Y173996D3*
G1X480636Y28130D3*
G1X493431Y34223D3*
G1X494132Y39941D3*
G1X482406Y68080D3*
G1X489406Y61380D3*
G1X489306Y65080D3*
G1X493906Y65180D3*
G1X488806Y87880D3*
G1X490725Y85873D3*
G1X488806Y83880D3*
G1X492606Y83980D3*
G1X492706Y87980D3*
G1X479806Y152480D3*
G1X479806Y155080D3*
G1X504106Y36580D3*
G1X500506Y40180D3*
G1X500518Y36594D3*
G1X504006Y40280D3*
G1X502309Y38376D3*
G1X503667Y64153D3*
G1X518431Y157460D3*
G1X531817Y5886D3*
G1X532408Y13169D3*
G1X532408Y19665D3*
G1X528274Y49193D3*
G1X538116Y49193D3*
G1X538116Y59035D3*
G1X528274Y59035D3*
G1X528274Y68878D3*
G1X538116Y68878D3*
G1X521975Y58838D3*
G1X527880Y101358D3*
G1X538116Y118090D3*
G1X528274Y127933D3*
G1X529258Y110413D3*
G1X538116Y137775D3*
G1X528274Y147618D3*
G1X538116Y147618D3*
G1X528274Y157460D3*
G1X547959Y9823D3*
G1X557801Y9823D3*
G1X547959Y19665D3*
G1X557801Y19665D3*
G1X547959Y49193D3*
G1X547959Y59035D3*
G1X547959Y68878D3*
G1X547959Y78720D3*
G1X538904Y74783D3*
G1X557801Y118090D3*
G1X547959Y127933D3*
G1X557801Y127933D3*
G1X547959Y137775D3*
G1X557801Y137775D3*
G1X547959Y147618D3*
G1X567644Y9823D3*
G1X577486Y9823D3*
G1X567644Y19665D3*
G1X577486Y19665D3*
G1X567644Y29508D3*
G1X577486Y29508D3*
G1X567644Y39350D3*
G1X577486Y39350D3*
G1X567644Y49193D3*
G1X577486Y49193D3*
G1X577486Y59035D3*
G1X567644Y118090D3*
G1X577486Y118090D3*
G1X567644Y127933D3*
G1X577486Y127933D3*
G1X567644Y137775D3*
G1X567644Y147618D3*
G1X577486Y147618D3*
G1X577486Y157460D3*
G1X577486Y167303D3*
G1X577486Y177145D3*
G1X569415Y183838D3*
G1X597171Y9823D3*
G1X587329Y9823D3*
G1X597171Y19665D3*
G1X587329Y19665D3*
G1X587329Y29508D3*
G1X597171Y29508D3*
G1X587329Y39350D3*
G1X597171Y39350D3*
G1X587329Y49193D3*
G1X597171Y49193D3*
G1X587329Y59035D3*
G1X597171Y59035D3*
G1X597171Y108248D3*
G1X597171Y98405D3*
G1X597171Y118090D3*
G1X587329Y118090D3*
G1X597171Y127933D3*
G1X587329Y127933D3*
G1X597171Y147618D3*
G1X587329Y147618D3*
G1X597171Y157460D3*
G1X587329Y157460D3*
G1X597171Y167303D3*
G1X587329Y167303D3*
G1X587329Y177145D3*
G1X597171Y177145D3*
G1X607014Y9823D3*
G1X607014Y19665D3*
G1X607014Y29508D3*
G1X607014Y39350D3*
G1X607014Y49193D3*
G1X607014Y68878D3*
G1X607014Y59035D3*
G1X607014Y78720D3*
G1X607014Y127933D3*
G1X607014Y137775D3*
G1X607014Y147618D3*
G1X607014Y157460D3*
G1X607014Y167303D3*
G1X607014Y186988D3*
G1X607014Y177145D3*
G54D75*
G1X479850Y153374D3*
G54D71*
G1X427880Y54901D3*
G1X427880Y65728D3*
G1X427880Y76555D3*
G1X427880Y120255D3*
G1X427880Y141909D3*
G1X427880Y131082D3*
G1X609126Y93169D3*
G1X609126Y103996D3*
G1X609126Y114823D3*
G54D46*
G1X429856Y187918D3*
G54D80*
G1X556906Y165680D3*
G54D78*
G1X476306Y150421D3*
G1X476306Y152390D3*
G1X476306Y154358D3*
G1X476306Y156327D3*
G1X496040Y87842D3*
G1X496040Y85873D3*
G1X496040Y83905D3*
G1X485410Y83905D3*
G1X485410Y85873D3*
G1X485410Y87842D3*
G1X483393Y156327D3*
G1X483393Y154358D3*
G1X483393Y152390D3*
G1X483393Y150421D3*
G54D82*
G1X497191Y35423D3*
G1X497191Y37392D3*
G1X497191Y39360D3*
G1X497191Y41329D3*
G1X507427Y41329D3*
G1X507427Y39360D3*
G1X507427Y37392D3*
G1X507427Y35423D3*
G54D47*
G1X439856Y187918D3*
G1X449856Y187918D3*
G1X459856Y187918D3*
G1X469856Y187918D3*
G1X479856Y187918D3*
G1X489856Y187918D3*
G1X499856Y187918D3*
G1X509856Y187918D3*
G1X519856Y187918D3*
G54D79*
G1X575436Y86266D3*
G1X571696Y86266D3*
G1X571696Y96502D3*
G1X575436Y96502D3*
G1X598088Y67748D3*
G1X594348Y67748D3*
G1X590608Y67748D3*
G1X579176Y86266D3*
G1X590608Y77984D3*
G1X594348Y77984D3*
G1X598088Y77984D3*
G1X579176Y96502D3*
G54D83*
G1X589583Y137727D3*
G1X589583Y188711D3*
G54D11*
G1X460194Y11406D3*
G1X460806Y78780D3*
G1X466498Y11406D3*
G1X472802Y11406D3*
G1X479106Y11406D3*
G1X476348Y60262D3*
G1X465316Y105966D3*
G1X462952Y99268D3*
G1X475954Y133152D3*
G1X475954Y139062D3*
G1X475954Y145366D3*
G1X484622Y11406D3*
G1X481864Y60262D3*
G1X484983Y104097D3*
G1X490220Y126766D3*
G1X515748Y10224D3*
G1X515748Y24014D3*
G1X515748Y16922D3*
G1X503306Y67748D3*
G1X512202Y64596D3*
G1X506686Y73264D3*
G1X503140Y103193D3*
G1X511808Y100450D3*
G1X511808Y106754D3*
G1X511808Y113452D3*
G1X503222Y124484D3*
G1X524006Y53170D3*
G1X537812Y188312D3*
G1X549632Y188312D3*
G1X555542Y188312D3*
G1X544116Y178462D3*
G1X550026Y178462D3*
G1X555542Y178462D3*
G1X543722Y188312D3*
G1X546480Y183190D3*
G1X552390Y183190D3*
G1X590608Y62780D3*
G1X598088Y87449D3*
G1X584308Y87449D3*
G1X594348Y82914D3*
G54D55*
G1X490725Y85873D3*
G1X497191Y37392D2*
G54D84*
G1X492007Y37392D1*
G1X492006Y37391D1*
G1X489006Y37391D1*
G54D77*
G1X492693Y80559D3*
G1X490725Y80559D3*
G1X488756Y80559D3*
G1X488756Y91188D3*
G1X490725Y91188D3*
G1X492693Y91188D3*
G54D73*
G1X459406Y24010D3*
G1X459406Y18498D3*
G1X495755Y187918D2*
G54D14*
G1X499856Y187918D1*
G1X489856Y183817D2*
G1X489856Y187918D1*
G1X489856Y192019D1*
G1X485755Y187918D2*
G1X489856Y187918D1*
G1X493957Y187918D1*
G1X515755Y187918D2*
G1X519856Y187918D1*
G1X509856Y183817D2*
G1X509856Y187918D1*
G1X509856Y192019D1*
G1X505755Y187918D2*
G1X509856Y187918D1*
G1X513957Y187918D1*
G1X499856Y183817D2*
G1X499856Y187918D1*
G1X499856Y192019D1*
G1X499856Y187918D2*
G1X503957Y187918D1*
G1X519856Y183817D2*
G1X519856Y187918D1*
G1X519856Y192019D1*
G1X519856Y187918D2*
G1X523957Y187918D1*
G54D67*
G1X447586Y60262D3*
G1X451544Y56304D3*
G1X558694Y84690D3*
G1X562652Y80732D3*
G54D72*
G1X518506Y29537D3*
G1X518506Y38198D3*
G1X463658Y163884D2*
G54D15*
G1X453890Y163884D1*
G1X429856Y187918D1*
G1X468862Y82720D2*
G1X463841Y82720D1*
G1X481864Y85873D2*
G1X485410Y85873D1*
G1X485410Y87842D2*
G1X482258Y90994D1*
G1X474460Y90994D1*
G1X474460Y98874D2*
G1X479119Y98874D1*
G1X486805Y91188D1*
G1X488756Y91188D1*
G1X474730Y157854D2*
G1X476258Y156327D1*
G1X476306Y156327D1*
G1X476306Y150421D2*
G1X474187Y150421D1*
G1X473156Y149389D1*
G1X469256Y163884D2*
G1X469256Y158730D1*
G1X473628Y154358D1*
G1X476306Y154358D1*
G1X469256Y163884D2*
G1X475430Y163884D1*
G1X475512Y163802D1*
G1X478712Y163802D1*
G1X497191Y35423D2*
G1X494632Y35423D1*
G1X493431Y34223D1*
G1X497191Y39360D2*
G1X494996Y39360D1*
G1X494415Y39941D1*
G1X494132Y39941D1*
G1X499356Y43494D2*
G1X499356Y48537D1*
G1X497624Y50269D1*
G1X497624Y53170D1*
G1X497191Y41329D2*
G1X497133Y41329D1*
G1X496352Y42110D1*
G1X492625Y42110D1*
G1X489350Y45385D1*
G1X489350Y45684D1*
G1X489406Y58780D2*
G1X489432Y58754D1*
G1X489432Y53564D1*
G1X503306Y67748D2*
G1X500524Y64966D1*
G1X500524Y56753D1*
G1X500444Y56673D1*
G1X500444Y55691D1*
G1X497923Y53170D1*
G1X497624Y53170D1*
G1X486986Y73264D2*
G1X486986Y70599D1*
G1X492693Y80559D2*
G1X492693Y76573D1*
G1X492584Y76464D1*
G1X492584Y73264D1*
G1X506686Y73264D2*
G1X492584Y73264D1*
G1X496040Y87842D2*
G1X496040Y89733D1*
G1X496040Y87842D2*
G1X496040Y85873D1*
G1X490581Y96022D2*
G1X490725Y95878D1*
G1X490725Y91188D1*
G1X484983Y99222D2*
G1X484983Y104097D1*
G1X492693Y91188D2*
G1X492693Y94120D1*
G1X497542Y98969D1*
G1X497542Y99268D1*
G1X497542Y103866D1*
G1X497624Y103948D1*
G1X497624Y107148D1*
G1X497624Y115028D1*
G1X484622Y119756D2*
G1X484622Y122962D1*
G1X483393Y156327D2*
G1X485408Y156327D1*
G1X486070Y155886D2*
G1X486070Y155198D1*
G1X485163Y149389D2*
G1X484132Y150421D1*
G1X483393Y150421D1*
G1X486070Y155198D2*
G1X485230Y154358D1*
G1X483393Y154358D1*
G1X501325Y33258D2*
G1X501325Y30698D1*
G1X500075Y29448D1*
G1X500070Y29448D1*
G1X499356Y30162D1*
G1X499356Y33258D1*
G1X501325Y43494D2*
G1X501325Y47714D1*
G1X506781Y53170D1*
G1X507080Y53170D1*
G1X503293Y43494D2*
G1X503293Y46054D1*
G1X504893Y47654D1*
G1X516631Y53170D2*
G1X516930Y53170D1*
G1X507080Y53170D2*
G1X510280Y53170D1*
G1X512202Y55092D1*
G1X512202Y64596D1*
G1X518506Y79486D2*
G1X524512Y79486D1*
G1X503140Y99268D2*
G1X503140Y103193D1*
G1X503222Y107148D2*
G1X503222Y103275D1*
G1X503140Y103193D1*
G1X503222Y115028D2*
G1X503222Y124484D1*
G1X584308Y87449D2*
G1X580439Y91319D1*
G1X574005Y91319D1*
G1X571696Y93627D1*
G1X571696Y96502D1*
G1X590608Y67748D2*
G1X590608Y62780D1*
G1X579176Y96502D2*
G1X581461Y96502D1*
G1X590608Y87355D1*
G1X590608Y77984D1*
G1X590608Y75109D1*
G1X594233Y71484D1*
G1X597227Y71484D1*
G1X598088Y70623D1*
G1X598088Y67748D1*
G1X594348Y77984D2*
G1X594348Y82914D1*
G1X598088Y77984D2*
G1X598088Y87449D1*
G54D76*
G1X502309Y38376D3*
G54D58*
G1X447192Y70900D3*
G1X451150Y74858D3*
G1X558694Y62232D3*
G1X562652Y66190D3*
G1X474460Y82720D2*
G54D20*
G1X478711Y82720D1*
G1X481864Y85873D1*
G1X494472Y24408D2*
G1X494472Y15740D1*
G1X494472Y24408D2*
G1X489316Y24408D1*
G1X489004Y24096D1*
G1X485804Y24096D1*
G1X496040Y89733D2*
G1X499665Y93358D1*
G1X518506Y93358D1*
G1X490581Y99222D2*
G1X490581Y103328D1*
G1X490138Y103771D1*
G1X490138Y106672D1*
G1X490581Y99222D2*
G1X490581Y96022D1*
G1X490138Y112270D2*
G1X490138Y116474D1*
G1X490220Y116556D1*
G1X490220Y119756D1*
G1X490220Y126766D1*
G1X500070Y29448D2*
G1X500070Y24408D1*
G1X504893Y47654D2*
G1X511115Y47654D1*
G1X516631Y53170D1*
G1X518506Y38198D2*
G1X529538Y38198D1*
G1X507427Y37392D2*
G1X508233Y38198D1*
G1X518506Y38198D1*
G1X516930Y53170D2*
G1X524006Y53170D1*
G54D66*
G1X456254Y90994D3*
G1X460194Y152458D3*
G1X454596Y152458D3*
G1X475166Y45684D3*
G1X469568Y45684D3*
G1X475166Y53564D3*
G1X469568Y53564D3*
G1X468862Y82720D3*
G1X474460Y82720D3*
G1X468862Y74840D3*
G1X474460Y74840D3*
G1X461852Y90994D3*
G1X468862Y90994D3*
G1X474460Y90994D3*
G1X468862Y98874D3*
G1X474460Y98874D3*
G1X468468Y131970D3*
G1X462870Y131970D3*
G1X468468Y139456D3*
G1X462870Y139456D3*
G1X469256Y163884D3*
G1X463658Y163884D3*
G1X494472Y24408D3*
G1X483408Y37391D3*
G1X489006Y37391D3*
G1X489350Y45684D3*
G1X483752Y45684D3*
G1X483834Y53564D3*
G1X489432Y53564D3*
G1X486986Y73264D3*
G1X492584Y73264D3*
G1X484983Y99222D3*
G1X490581Y99222D3*
G1X497542Y99268D3*
G1X497624Y107148D3*
G1X484622Y119756D3*
G1X490220Y119756D3*
G1X497624Y115028D3*
G1X496442Y152458D3*
G1X490844Y152458D3*
G1X500070Y24408D3*
G1X505504Y84690D3*
G1X511102Y84690D3*
G1X518424Y106360D3*
G1X503140Y99268D3*
G1X503222Y107148D3*
G1X518424Y114240D3*
G1X503222Y115028D3*
G1X522052Y15346D3*
G1X527650Y15346D3*
G1X522052Y23226D3*
G1X527650Y23226D3*
G1X529538Y38198D3*
G1X535136Y38198D3*
G1X525992Y84690D3*
G1X531590Y84690D3*
G1X524022Y106360D3*
G1X524022Y114240D3*
G1X554360Y98480D3*
G1X573666Y73658D3*
G1X575636Y103996D3*
G1X559958Y98480D3*
G1X568938Y189100D3*
G1X563340Y189100D3*
G1X579264Y73658D3*
G1X581234Y103996D3*
G54D81*
G1X499356Y43494D3*
G1X501325Y43494D3*
G1X503293Y43494D3*
G1X505262Y43494D3*
G1X505262Y33258D3*
G1X503293Y33258D3*
G1X501325Y33258D3*
G1X499356Y33258D3*
G1X427880Y65728D2*
G54D45*
G1X442120Y65728D1*
G1X427880Y131082D2*
G1X437242Y131082D1*
G1X454596Y148436D1*
G1X454596Y152458D1*
G1X475166Y37492D2*
G1X464216Y37492D1*
G1X464134Y37410D1*
G1X460588Y37410D1*
G1X451333Y46665D1*
G1X451333Y56093D1*
G1X451544Y56304D1*
G1X442120Y65728D2*
G1X447586Y60262D1*
G1X447192Y70900D2*
G1X442120Y65828D1*
G1X442120Y65728D1*
G1X468862Y74840D2*
G1X455319Y74840D1*
G1X455126Y74647D1*
G1X451361Y74647D1*
G1X451150Y74858D1*
G1X483408Y37391D2*
G1X478667Y37391D1*
G1X478566Y37492D1*
G1X475166Y37492D1*
G1X474460Y74840D2*
G1X478436Y74840D1*
G1X485410Y81814D1*
G1X485410Y83905D1*
G1X468468Y152458D2*
G1X473360Y152458D1*
G1X473428Y152390D1*
G1X476306Y152390D1*
G1X468468Y152458D2*
G1X460194Y152458D1*
G1X490844Y152458D2*
G1X486339Y152458D1*
G1X486271Y152390D1*
G1X483393Y152390D1*
G1X554360Y98480D2*
G1X550121Y98480D1*
G1X496442Y152159D1*
G1X496442Y152458D1*
G1X511102Y84690D2*
G1X514712Y84690D1*
G1X515106Y85084D1*
G1X518506Y85084D1*
G1X522497Y85084D1*
G1X522891Y84690D1*
G1X525992Y84690D1*
G1X535136Y38198D2*
G1X542934Y38198D1*
G1X531590Y84690D2*
G1X535512Y84690D1*
G1X535594Y84772D1*
G1X538994Y84772D1*
G1X542934Y38198D2*
G1X550814Y38198D1*
G1X558694Y38198D1*
G1X538994Y84772D2*
G1X554425Y84772D1*
G1X554718Y84479D1*
G1X558483Y84479D1*
G1X558694Y84690D1*
G1X558694Y43796D2*
G1X558694Y58045D1*
G1X558905Y58256D1*
G1X558905Y62021D1*
G1X558694Y62232D1*
G1X562652Y66190D2*
G1X570120Y73658D1*
G1X559958Y98480D2*
G1X559876Y98398D1*
G1X559876Y94540D1*
G1X568150Y86266D1*
G1X571696Y86266D1*
G1X570120Y73658D2*
G1X573666Y73658D1*
G1X562652Y80732D2*
G1X564845Y78539D1*
G1X565239Y78539D1*
G1X570120Y73658D1*
G1X575436Y96502D2*
G1X575436Y100396D1*
G1X575636Y100596D1*
G1X575636Y103996D1*
G1X579264Y73658D2*
G1X579264Y83103D1*
G1X579176Y83191D1*
G1X579176Y86266D1*
G1X581234Y103996D2*
G1X609126Y103996D1*
G54D68*
G1X467286Y18498D3*
G1X467286Y24096D3*
G1X475954Y18498D3*
G1X475954Y24096D3*
G1X475166Y31894D3*
G1X475166Y37492D3*
G1X468468Y146860D3*
G1X468468Y152458D3*
G1X478712Y169400D3*
G1X478712Y163802D3*
G1X494472Y10142D3*
G1X494472Y15740D3*
G1X485804Y18498D3*
G1X485804Y24096D3*
G1X497624Y53170D3*
G1X497624Y58768D3*
G1X490138Y106672D3*
G1X490138Y112270D3*
G1X516930Y53170D3*
G1X516930Y58768D3*
G1X507080Y53170D3*
G1X507080Y58768D3*
G1X518506Y85084D3*
G1X518506Y79486D3*
G1X518506Y93358D3*
G1X518506Y98956D3*
G1X538994Y79174D3*
G1X538994Y84772D3*
G1X558694Y38198D3*
G1X558694Y43796D3*
G1X542934Y38198D3*
G1X542934Y43796D3*
G1X550814Y38198D3*
G1X550814Y43796D3*
G54D74*
G1X527958Y8648D3*
G1X522446Y8648D3*
G54D31*
G1X537024Y169400D3*
G1X537024Y177802D3*
G54D10*
G36*
G1X19Y209971D2*
G1X196869Y209971D1*
G1X196869Y272356D1*
G1X181318Y272356D1*
G75*
G2X180317Y273357I0J1001D1*
G1X180317Y273618D1*
G1X166083Y273618D1*
G1X166036Y273485D1*
G2X165093Y272818I-944J333D1*
G1X156293Y272818D1*
G2X155349Y273485I0J1002D1*
G1X155302Y273618D1*
G1X153923Y273618D1*
G1X153834Y273706D1*
G1X153573Y273706D1*
G2X152706Y273206I-867J501D1*
G1X148906Y273206D1*
G2X148097Y273618I1J1003D1*
G1X146398Y273618D1*
G1X146351Y273485D1*
G2X145408Y272818I-944J333D1*
G1X136608Y272818D1*
G2X135664Y273485I0J1002D1*
G1X135617Y273618D1*
G1X134238Y273618D1*
G1X134149Y273706D1*
G1X133888Y273706D1*
G2X133021Y273206I-867J501D1*
G1X129221Y273206D1*
G2X128412Y273618I1J1003D1*
G1X126713Y273618D1*
G1X126666Y273485D1*
G2X125723Y272818I-944J333D1*
G1X116923Y272818D1*
G2X115922Y273819I0J1001D1*
G1X115922Y277619D1*
G2X116422Y278486I1002J-1D1*
G1X116422Y281707D1*
G1X116510Y281795D1*
G1X116510Y283054D1*
G1X111411Y283054D1*
G2X110467Y283721I0J1002D1*
G1X110420Y283854D1*
G1X102698Y283854D1*
G1X102650Y283721D1*
G2X101707Y283054I-944J333D1*
G1X92906Y283054D1*
G3X92506Y282654I0J-401D1*
G1X92506Y277578D1*
G1X92912Y277172D1*
G1X99318Y277172D1*
G1X99345Y277179D1*
G2X99345Y272363I674J-2408D1*
G1X99318Y272370D1*
G1X92506Y272370D1*
G1X92506Y262617D1*
G1X92951Y262172D1*
G1X99318Y262172D1*
G1X99345Y262179D1*
G2X99345Y257363I674J-2408D1*
G1X99318Y257370D1*
G1X92506Y257370D1*
G1X92506Y243849D1*
G1X71293Y243849D1*
G1X71220Y243777D1*
G1X71220Y236672D1*
G1X71227Y236645D1*
G2X66411Y236645I-2408J-674D1*
G1X66418Y236672D1*
G1X66418Y243849D1*
G1X64070Y243849D1*
G1X63720Y243499D1*
G1X63720Y236672D1*
G1X63727Y236645D1*
G2X58911Y236645I-2408J-674D1*
G1X58918Y236672D1*
G1X58918Y239654D1*
G1X55599Y239654D1*
G2X54959Y239886I2J1005D1*
G1X54818Y240002D1*
G1X54536Y239720D1*
G2X51790Y238582I-2747J2745D1*
G1X37981Y238582D1*
G1X37926Y238471D1*
G2X37028Y237911I-899J440D1*
G1X33091Y237911D1*
G2X32090Y238912I0J1001D1*
G1X32090Y242455D1*
G2X33091Y243456I1001J-1D1*
G1X36937Y243456D1*
G1X36937Y244885D1*
G1X18047Y263776D1*
G1X16571Y263776D1*
G1X16571Y263514D1*
G2X15570Y262514I-1001J0D1*
G1X19Y262514D1*
G1X19Y209971D1*
G37*
G36*
G1X19787Y267977D2*
G1X38684Y249080D1*
G1X40342Y249080D1*
G1X40389Y249213D1*
G2X41332Y249880I943J-334D1*
G1X44499Y249880D1*
G1X44499Y262878D1*
G1X44106Y263270D1*
G1X37720Y263270D1*
G1X37693Y263263D1*
G2X37693Y268079I-674J2408D1*
G1X37720Y268072D1*
G1X44499Y268072D1*
G1X44499Y270358D1*
G1X44087Y270770D1*
G1X37720Y270770D1*
G1X37693Y270763D1*
G2X37693Y275579I-674J2408D1*
G1X37720Y275572D1*
G1X44499Y275572D1*
G1X44499Y278170D1*
G1X37720Y278170D1*
G1X37693Y278163D1*
G2X37693Y282979I-674J2408D1*
G1X37720Y282972D1*
G1X44028Y282972D1*
G1X44499Y283442D1*
G1X44499Y293004D1*
G1X52111Y293004D1*
G1X53811Y294704D1*
G1X53811Y296217D1*
G2X54812Y297217I1001J-2D1*
G1X58018Y297217D1*
G1X58018Y303970D1*
G1X58011Y303997D1*
G2X62827Y303997I2408J674D1*
G1X62820Y303970D1*
G1X62820Y293484D1*
G1X63300Y293004D1*
G1X78432Y293004D1*
G1X78432Y295336D1*
G2X78932Y296202I1002J-2D1*
G1X78932Y297771D1*
G1X78233Y298471D1*
G1X78233Y301868D1*
G1X78100Y301915D1*
G2X77567Y302358I337J948D1*
G1X77212Y302358D1*
G1X77124Y302270D1*
G1X75620Y302270D1*
G2X74754Y301770I-867J500D1*
G1X70954Y301770D1*
G2X69953Y302771I0J1001D1*
G1X69953Y305971D1*
G2X70954Y306971I1001J-2D1*
G1X74744Y306971D1*
G1X74744Y312666D1*
G1X78426Y312666D1*
G1X78426Y312660D1*
G1X80264Y312660D1*
G1X81923Y314319D1*
G3X81935Y314873I-281J283D1*
G2X81670Y315551I741J680D1*
G1X81670Y319351D1*
G2X82671Y320352I1001J-1D1*
G1X91471Y320352D1*
G2X92414Y319685I0J-1000D1*
G1X92462Y319552D1*
G1X94190Y319552D1*
G1X94238Y319685D1*
G2X95181Y320352I943J-335D1*
G1X100280Y320352D1*
G1X100280Y320851D1*
G2X103569Y328790I11230J-2D1*
G1X115922Y341143D1*
G1X115922Y342973D1*
G2X116923Y343974I1001J-1D1*
G1X125723Y343974D1*
G2X126666Y343307I0J-1000D1*
G1X126713Y343174D1*
G1X128412Y343174D1*
G2X129221Y343586I809J-589D1*
G1X133021Y343586D1*
G2X133888Y343086I1J-1000D1*
G1X134150Y343086D1*
G1X134238Y343174D1*
G1X135617Y343174D1*
G1X135664Y343307D1*
G2X136608Y343974I944J-335D1*
G1X145408Y343974D1*
G2X146351Y343307I0J-1000D1*
G1X146398Y343174D1*
G1X148097Y343174D1*
G2X148906Y343586I809J-589D1*
G1X152706Y343586D1*
G2X153573Y343086I1J-1000D1*
G1X153835Y343086D1*
G1X153923Y343174D1*
G1X155302Y343174D1*
G1X155349Y343307D1*
G2X156293Y343974I944J-335D1*
G1X165093Y343974D1*
G2X166036Y343307I0J-1000D1*
G1X166083Y343174D1*
G1X180317Y343174D1*
G1X180317Y343436D1*
G2X181318Y344436I1001J-2D1*
G1X196869Y344436D1*
G1X196869Y406821D1*
G1X19Y406821D1*
G1X19Y269240D1*
G1X15570Y269240D1*
G2X16571Y268239I0J-1001D1*
G1X16571Y267977D1*
G1X19787Y267977D1*
G37*
G36*
G1X89771Y297755D2*
G1X92506Y297755D1*
G1X92506Y296531D1*
G3X92725Y296332I200J0D1*
G2X92815Y296336I83J-877D1*
G1X101619Y296336D1*
G2X102485Y295836I0J-1000D1*
G1X110544Y295836D1*
G2X110610Y295936I966J-566D1*
G1X110610Y298415D1*
G2X110410Y299016I808J602D1*
G1X110410Y302816D1*
G2X111411Y303817I1001J-1D1*
G1X132846Y303817D1*
G1X132846Y290535D1*
G1X121218Y290535D1*
G1X121218Y287912D1*
G1X121212Y287912D1*
G1X121212Y284055D1*
G2X120712Y283189I-1001J0D1*
G1X120712Y280055D1*
G1X120623Y279967D1*
G1X120623Y278620D1*
G1X125723Y278620D1*
G2X126637Y278027I0J-1000D1*
G1X126689Y277908D1*
G1X128354Y277908D1*
G2X129221Y278408I866J-502D1*
G1X133021Y278408D1*
G2X133888Y277908I1J-1000D1*
G1X135641Y277908D1*
G1X135693Y278027D1*
G2X136608Y278620I914J-409D1*
G1X145408Y278620D1*
G2X146322Y278027I0J-1000D1*
G1X146375Y277908D1*
G1X148039Y277908D1*
G2X148906Y278408I866J-502D1*
G1X152706Y278408D1*
G2X153573Y277908I1J-1000D1*
G1X155326Y277908D1*
G1X155378Y278027D1*
G2X156293Y278620I914J-409D1*
G1X165093Y278620D1*
G2X166036Y277953I0J-1000D1*
G1X166083Y277820D1*
G1X180317Y277820D1*
G1X180317Y278081D1*
G2X181318Y279082I1001J-1D1*
G1X196869Y279082D1*
G1X196869Y337710D1*
G1X181318Y337710D1*
G2X180317Y338711I0J1001D1*
G1X180317Y338973D1*
G1X179859Y338973D1*
G1X179820Y338972D1*
G1X166083Y338972D1*
G1X166036Y338839D1*
G2X165093Y338172I-944J333D1*
G1X156293Y338172D1*
G2X155378Y338766I0J1002D1*
G1X155326Y338884D1*
G1X153573Y338884D1*
G2X152706Y338384I-867J500D1*
G1X148906Y338384D1*
G2X148040Y338884I1J1003D1*
G1X146375Y338884D1*
G1X146322Y338766D1*
G2X145408Y338172I-915J406D1*
G1X136608Y338172D1*
G2X135693Y338766I0J1002D1*
G1X135641Y338884D1*
G1X133888Y338884D1*
G2X133021Y338384I-867J500D1*
G1X129221Y338384D1*
G2X128355Y338884I1J1003D1*
G1X126689Y338884D1*
G1X126637Y338766D1*
G2X125723Y338172I-915J406D1*
G1X118893Y338172D1*
G1X106539Y325819D1*
G3X104482Y320851I4972J-4969D1*
G1X104482Y320217D1*
G2X104982Y319351I-499J-866D1*
G1X104982Y315551D1*
G2X103981Y314550I-1001J-1D1*
G1X95181Y314550D1*
G2X94238Y315217I1J1002D1*
G1X94190Y315350D1*
G1X93395Y315350D1*
G1X93395Y307060D1*
G1X97195Y307060D1*
G2X98195Y306059I-1J-1001D1*
G1X98195Y302859D1*
G2X97195Y301858I-1001J-1D1*
G1X93395Y301858D1*
G2X92586Y302270I1J1003D1*
G1X90581Y302270D1*
G2X90048Y301827I-866J499D1*
G1X89915Y301780D1*
G1X89915Y298865D1*
G1X89489Y298438D1*
G3X89771Y297755I282J-283D1*
G37*
G36*
G1X117010Y291536D2*
G1X131845Y291536D1*
G1X131845Y302817D1*
G1X117010Y302817D1*
G1X117010Y291536D1*
G37*
%LPC*%
G36*
G1X23641Y230821D2*
G1X27579Y230821D1*
G3X28579Y231821I-1J1000D1*
G1X28579Y235365D1*
G3X27578Y236365I-1001J-1D1*
G1X23641Y236365D1*
G3X22640Y235365I-1J-1001D1*
G1X22640Y231821D1*
G3X23641Y230821I1001J1D1*
G37*
G36*
G1X20419Y249380D2*
G1X23209Y246590D1*
G1X23209Y243364D1*
G1X23114Y243306D1*
G3X22640Y242455I528J-852D1*
G1X22640Y238912D1*
G3X23641Y237911I1001J0D1*
G1X27578Y237911D1*
G3X28579Y238912I0J1000D1*
G1X28579Y242455D1*
G3X28105Y243306I-999J1D1*
G1X28010Y243364D1*
G1X28010Y244209D1*
G3X28516Y245079I-494J869D1*
G1X28516Y248879D1*
G3X27515Y249880I-1001J0D1*
G1X26710Y249880D1*
G1X23814Y252775D1*
G1X23800Y252799D1*
G3X20419Y249380I-2180J-1227D1*
G37*
G36*
G1X181765Y390322D2*
G1X187565Y390322D1*
G3X188565Y391323I-1J1000D1*
G1X188565Y397123D1*
G3X187565Y398124I-1000J1D1*
G1X181765Y398124D1*
G3X180764Y397123I0J-1002D1*
G1X180764Y391323D1*
G3X181765Y390322I1001J0D1*
G37*
G36*
G1X141765Y380322D2*
G1X147565Y380322D1*
G3X148565Y381323I-1J1000D1*
G1X148565Y387123D1*
G3X147565Y388124I-1000J1D1*
G1X141765Y388124D1*
G3X140764Y387123I0J-1002D1*
G1X140764Y381323D1*
G3X141765Y380322I1001J0D1*
G37*
G36*
G1X51018Y363461D2*
G1X51018Y362482D1*
G1X51009Y362482D1*
G1X51009Y361080D1*
G1X51018Y361080D1*
G1X51018Y343070D1*
G1X81520Y343070D1*
G1X81520Y361080D1*
G1X81531Y361080D1*
G1X81531Y362482D1*
G1X81520Y362482D1*
G1X81520Y376972D1*
G1X51018Y376972D1*
G1X51018Y376166D1*
G1X51013Y376143D1*
G3X50987Y375916I1028J-233D1*
G1X50987Y363711D1*
G3X51013Y363484I1061J6D1*
G1X51018Y363461D1*
G37*
G74*
G54D18*
G1X94665Y394223D3*
G1X114665Y394223D3*
G1X104665Y394223D3*
G1X124665Y394223D3*
G1X134665Y394223D3*
G54D17*
G1X94665Y384223D3*
G1X114665Y384223D3*
G1X104665Y384223D3*
G1X124665Y384223D3*
G1X134665Y384223D3*
G1X144665Y394223D3*
G1X154665Y384223D3*
G1X154665Y394223D3*
G1X174665Y384223D3*
G1X164665Y384223D3*
G1X174665Y394223D3*
G1X164665Y394223D3*
G1X184665Y384223D3*
%LPD*%
G36*
G1X52019Y344071D2*
G1X80519Y344071D1*
G1X80519Y360071D1*
G1X52019Y360071D1*
G1X52019Y344071D1*
G37*
G36*
G1X52019Y363471D2*
G1X80519Y363471D1*
G1X80519Y375971D1*
G1X52019Y375971D1*
G1X52019Y363471D1*
G37*
G1X25610Y240683D2*
G54D10*
G1X25610Y246673D1*
G1X25915Y246979D1*
G1X25915Y247279D1*
G1X21621Y251573D1*
G1X31515Y246979D2*
G1X31515Y236941D1*
G1X34863Y233593D1*
G1X35060Y233593D1*
G1X37019Y265671D2*
G1X45101Y265671D1*
G1X48532Y262240D1*
G1X37019Y273171D2*
G1X45081Y273171D1*
G1X48532Y269720D1*
G1X48532Y269420D1*
G1X48532Y284380D2*
G1X48532Y284080D1*
G1X45023Y280571D1*
G1X37019Y280571D1*
G1X48532Y261940D2*
G1X48532Y262240D1*
G1X61319Y235971D2*
G1X61319Y244494D1*
G1X64680Y247854D1*
G1X68819Y235971D2*
G1X68819Y244771D1*
G1X71902Y247854D1*
G1X72160Y247854D1*
G1X64980Y247854D2*
G1X64680Y247854D1*
G1X60419Y304671D2*
G1X60419Y292490D1*
G1X63892Y289017D1*
G1X64192Y289017D1*
G1X72460Y247854D2*
G1X72160Y247854D1*
G1X88513Y256034D2*
G1X88513Y249971D1*
G1X100019Y259771D2*
G1X91957Y259771D1*
G1X88513Y263214D1*
G1X88513Y263514D1*
G1X100019Y274771D2*
G1X91917Y274771D1*
G1X88513Y278175D1*
G1X88513Y278475D1*
G1X94419Y293436D2*
G1X94507Y293347D1*
G1X94507Y285955D1*
G1X113011Y293436D2*
G1X100019Y293436D1*
G1X113011Y300916D2*
G1X113011Y293436D1*
G1X9862Y239499D3*
G1X9468Y249735D3*
G1X5137Y249735D3*
G1X4350Y282806D3*
G1X9074Y282806D3*
G1X9862Y298554D3*
G1X9862Y318239D3*
G1X9862Y337924D3*
G1X9862Y357609D3*
G1X9862Y377294D3*
G1X9862Y396979D3*
G1X19704Y229656D3*
G1X19704Y269026D3*
G1X19704Y288711D3*
G1X19704Y308396D3*
G1X19704Y328081D3*
G1X19704Y367451D3*
G1X19704Y387136D3*
G1X29547Y219814D3*
G1X39389Y229656D3*
G1X29940Y259184D3*
G1X38208Y258396D3*
G1X39389Y269026D3*
G1X29547Y278869D3*
G1X39389Y288711D3*
G1X39389Y308396D3*
G1X29547Y298554D3*
G1X39389Y328081D3*
G1X29547Y318239D3*
G1X39389Y367451D3*
G1X39389Y387136D3*
G1X29547Y377294D3*
G1X49232Y219814D3*
G1X55531Y262333D3*
G1X49232Y298554D3*
G1X49232Y318239D3*
G1X49232Y337924D3*
G1X49232Y396979D3*
G1X68917Y219814D3*
G1X59074Y229656D3*
G1X62598Y252910D3*
G1X68523Y267451D3*
G1X64980Y267451D3*
G1X64980Y263908D3*
G1X68523Y263908D3*
G1X67740Y253672D3*
G1X64980Y253672D3*
G1X64980Y270601D3*
G1X68523Y270601D3*
G1X59074Y308396D3*
G1X68129Y309971D3*
G1X64192Y299341D3*
G1X59074Y328081D3*
G1X68917Y318239D3*
G1X68917Y337924D3*
G1X59074Y387136D3*
G1X68917Y396979D3*
G1X78759Y229656D3*
G1X76397Y253278D3*
G1X81811Y264005D3*
G1X78365Y256311D3*
G1X72066Y263908D3*
G1X72066Y267451D3*
G1X81909Y261152D3*
G1X80728Y258396D3*
G1X72066Y270601D3*
G1X75284Y280443D3*
G1X71673Y299341D3*
G1X78759Y328081D3*
G1X78759Y387136D3*
G1X88602Y219814D3*
G1X98444Y229656D3*
G1X98444Y249341D3*
G1X94113Y251310D3*
G1X98838Y281231D3*
G1X100019Y310365D3*
G1X98444Y328081D3*
G1X88602Y337924D3*
G1X98444Y347766D3*
G1X88602Y357609D3*
G1X98444Y367451D3*
G1X108287Y219814D3*
G1X108287Y239499D3*
G1X108287Y357609D3*
G1X127972Y219814D3*
G1X118129Y229656D3*
G1X118129Y249341D3*
G1X127972Y239499D3*
G1X127972Y259184D3*
G1X118129Y269026D3*
G1X118129Y328081D3*
G1X118129Y347766D3*
G1X127972Y357609D3*
G1X118129Y367451D3*
G1X137814Y229656D3*
G1X137814Y249341D3*
G1X131121Y265483D3*
G1X137814Y269026D3*
G1X137814Y288711D3*
G1X137814Y308396D3*
G1X137814Y347766D3*
G1X131515Y351310D3*
G1X137814Y367451D3*
G1X147657Y219814D3*
G1X157499Y229656D3*
G1X157499Y249341D3*
G1X147657Y239499D3*
G1X147657Y259184D3*
G1X150806Y265483D3*
G1X157499Y269026D3*
G1X157499Y288711D3*
G1X157499Y308396D3*
G1X147657Y298554D3*
G1X157499Y328081D3*
G1X157893Y348554D3*
G1X147657Y357609D3*
G1X150806Y351310D3*
G1X158287Y367451D3*
G1X167342Y219814D3*
G1X167342Y239499D3*
G1X167342Y259184D3*
G1X167342Y298554D3*
G1X167342Y318239D3*
G1X167342Y357609D3*
G1X187027Y219814D3*
G1X177184Y229656D3*
G1X177184Y249341D3*
G1X187027Y239499D3*
G1X187421Y259184D3*
G1X177184Y269026D3*
G1X177184Y288711D3*
G1X185846Y291861D3*
G1X177184Y308396D3*
G1X187027Y298554D3*
G1X177184Y328081D3*
G1X187027Y318239D3*
G1X186239Y324538D3*
G1X177972Y347766D3*
G1X187814Y357609D3*
G1X177972Y367451D3*
G1X192932Y259184D3*
G1X192539Y291861D3*
G1X192932Y324538D3*
G1X192539Y357609D3*
G54D42*
G1X69700Y257215D3*
G1X67740Y257215D3*
G1X65770Y257215D3*
G1X63800Y257215D3*
G1X61830Y257215D3*
G1X61830Y276705D3*
G1X63800Y276705D3*
G1X65770Y276705D3*
G1X67740Y276705D3*
G1X69700Y276705D3*
G1X75610Y257215D3*
G1X73640Y257215D3*
G1X71670Y257215D3*
G1X71670Y276705D3*
G1X73640Y276705D3*
G1X75610Y276705D3*
G54D40*
G1X7893Y255050D3*
G1X7893Y265877D3*
G1X7893Y276703D3*
G1X188995Y264892D3*
G1X188995Y275719D3*
G1X188995Y286546D3*
G1X188995Y330247D3*
G1X188995Y341073D3*
G1X188995Y351900D3*
G54D31*
G1X78019Y357571D3*
G1X78019Y365971D3*
G54D38*
G1X25610Y233593D3*
G1X25610Y240683D3*
G1X35060Y233593D3*
G1X35060Y240683D3*
G54D33*
G1X25915Y246979D3*
G1X31515Y246979D3*
G1X42932Y246979D3*
G1X48532Y246979D3*
G1X42932Y261940D3*
G1X48532Y261940D3*
G1X42932Y254459D3*
G1X48532Y254459D3*
G1X42932Y269420D3*
G1X48532Y269420D3*
G1X42932Y276900D3*
G1X48532Y276900D3*
G1X42932Y284380D3*
G1X48532Y284380D3*
G1X48019Y345971D3*
G1X53619Y345971D3*
G1X81033Y293436D3*
G1X84271Y317451D3*
G1X94113Y263514D3*
G1X88513Y263514D3*
G1X94113Y256034D3*
G1X88513Y256034D3*
G1X94113Y270995D3*
G1X88513Y270995D3*
G1X94113Y278475D3*
G1X88513Y278475D3*
G1X94507Y285955D3*
G1X100107Y285955D3*
G1X100019Y293436D3*
G1X94419Y293436D3*
G1X86633Y293436D3*
G1X96781Y317451D3*
G1X89871Y317451D3*
G1X113011Y293436D3*
G1X113011Y285955D3*
G1X113011Y300916D3*
G1X102381Y317451D3*
G1X118523Y275719D3*
G1X124123Y275719D3*
G1X118611Y293436D3*
G1X118611Y285955D3*
G1X130245Y293436D3*
G1X118611Y300916D3*
G1X130245Y300916D3*
G1X118523Y341073D3*
G1X124123Y341073D3*
G1X138208Y275719D3*
G1X143808Y275719D3*
G1X135845Y293436D3*
G1X135845Y300916D3*
G1X138208Y341073D3*
G1X143808Y341073D3*
G1X157893Y275719D3*
G1X157893Y341073D3*
G1X163493Y275719D3*
G1X163493Y341073D3*
G54D12*
G1X94665Y384223D3*
G1X94665Y394223D3*
G1X114665Y384223D3*
G1X104665Y384223D3*
G1X114665Y394223D3*
G1X104665Y394223D3*
G1X124665Y384223D3*
G1X124665Y394223D3*
G1X134665Y384223D3*
G1X144665Y394223D3*
G1X134665Y394223D3*
G1X154665Y384223D3*
G1X154665Y394223D3*
G1X174665Y384223D3*
G1X164665Y384223D3*
G1X174665Y394223D3*
G1X164665Y394223D3*
G1X184665Y384223D3*
G54D13*
G1X144665Y384223D3*
G1X184665Y394223D3*
G54D11*
G1X21621Y251573D3*
G1X37019Y265671D3*
G1X37019Y280571D3*
G1X37019Y273171D3*
G1X61319Y235971D3*
G1X68819Y235971D3*
G1X60419Y304671D3*
G1X65519Y355971D3*
G1X59519Y355971D3*
G1X60019Y347971D3*
G1X65519Y347971D3*
G1X71019Y347971D3*
G1X71019Y355971D3*
G1X76519Y347971D3*
G1X88513Y249971D3*
G1X100019Y259771D3*
G1X100019Y274771D3*
G1X124519Y299971D3*
G1X124519Y294471D3*
G1X94665Y389822D2*
G54D14*
G1X94665Y394223D1*
G1X94665Y398624D1*
G1X90264Y394223D2*
G1X94665Y394223D1*
G1X99065Y394223D1*
G1X104665Y389822D2*
G1X104665Y394223D1*
G1X104665Y398624D1*
G1X100264Y394223D2*
G1X104665Y394223D1*
G1X109065Y394223D1*
G1X114665Y389822D2*
G1X114665Y394223D1*
G1X114665Y398624D1*
G1X110264Y394223D2*
G1X114665Y394223D1*
G1X119065Y394223D1*
G1X124665Y389822D2*
G1X124665Y394223D1*
G1X124665Y398624D1*
G1X120264Y394223D2*
G1X124665Y394223D1*
G1X129065Y394223D1*
G1X134665Y389822D2*
G1X134665Y394223D1*
G1X134665Y398624D1*
G1X130264Y394223D2*
G1X134665Y394223D1*
G1X139065Y394223D1*
G54D41*
G1X27575Y346784D3*
G1X27575Y397764D3*
G1X55531Y262333D2*
G54D15*
G1X57203Y264005D1*
G1X58980Y264005D1*
G1X48532Y262240D2*
G1X54238Y267945D1*
G1X58980Y267945D1*
G1X48532Y254459D2*
G1X48532Y254759D1*
G1X53169Y259395D1*
G1X53169Y263138D1*
G1X56005Y265975D1*
G1X58980Y265975D1*
G1X58980Y273845D2*
G1X58980Y276833D1*
G1X51432Y284380D1*
G1X48532Y284380D1*
G1X48532Y269420D2*
G1X52381Y269420D1*
G1X52876Y269915D1*
G1X58980Y269915D1*
G1X48532Y276900D2*
G1X51594Y276900D1*
G1X56609Y271885D1*
G1X58980Y271885D1*
G1X56712Y294617D2*
G1X56412Y294617D1*
G1X52775Y290980D1*
G1X52775Y285760D1*
G1X56123Y282412D1*
G1X59099Y282412D1*
G1X61830Y279680D1*
G1X61830Y276705D1*
G1X62598Y252910D2*
G1X62665Y252977D1*
G1X62665Y254411D1*
G1X63381Y255127D1*
G1X63381Y255128D1*
G1X63800Y255547D1*
G1X63800Y257215D1*
G1X61830Y257215D2*
G1X61830Y256093D1*
G1X59936Y254199D1*
G1X59936Y252598D1*
G1X64680Y247854D1*
G1X72160Y247854D2*
G1X69740Y250275D1*
G1X69740Y254111D1*
G1X69700Y254151D1*
G1X69700Y257215D1*
G1X67740Y257215D2*
G1X67740Y253672D1*
G1X65770Y257215D2*
G1X65770Y254462D1*
G1X64980Y253672D1*
G1X56712Y289017D2*
G1X57012Y289017D1*
G1X63800Y282228D1*
G1X63800Y276705D1*
G1X64192Y289017D2*
G1X64192Y286117D1*
G1X65770Y284539D1*
G1X65770Y276705D1*
G1X71673Y289017D2*
G1X71373Y289017D1*
G1X67736Y285380D1*
G1X67736Y279684D1*
G1X67740Y279680D1*
G1X67740Y276705D1*
G1X79940Y247854D2*
G1X79640Y247854D1*
G1X76579Y250916D1*
G1X74428Y250916D1*
G1X71670Y253674D1*
G1X71670Y257215D1*
G1X78460Y264005D2*
G1X81811Y264005D1*
G1X76397Y253278D2*
G1X74604Y253278D1*
G1X73640Y254242D1*
G1X73640Y257215D1*
G1X75610Y257215D2*
G1X77461Y257215D1*
G1X78365Y256311D1*
G1X78460Y262035D2*
G1X81025Y262035D1*
G1X81909Y261152D1*
G1X80728Y258396D2*
G1X80728Y259065D1*
G1X79728Y260065D1*
G1X78460Y260065D1*
G1X78460Y265975D2*
G1X80952Y265975D1*
G1X80983Y266005D1*
G1X82640Y266005D1*
G1X82670Y265975D1*
G1X82991Y265975D1*
G1X85058Y263908D1*
G1X85058Y259789D1*
G1X88513Y256334D1*
G1X88513Y256034D1*
G1X88513Y263514D2*
G1X88513Y263814D1*
G1X84383Y267945D1*
G1X78460Y267945D1*
G1X88513Y270995D2*
G1X83484Y270995D1*
G1X82404Y269915D1*
G1X78460Y269915D1*
G1X88513Y278475D2*
G1X85050Y278475D1*
G1X83090Y276515D1*
G1X83090Y273540D1*
G1X81435Y271885D1*
G1X78460Y271885D1*
G1X73640Y276705D2*
G1X73640Y278799D1*
G1X75284Y280443D1*
G54D34*
G1X56712Y294617D3*
G1X56712Y289017D3*
G1X57499Y242254D3*
G1X57499Y247854D3*
G1X64980Y242254D3*
G1X64980Y247854D3*
G1X64192Y294617D3*
G1X64192Y289017D3*
G1X71673Y294617D3*
G1X71673Y289017D3*
G1X79940Y242254D3*
G1X79940Y247854D3*
G1X72460Y242254D3*
G1X72460Y247854D3*
G1X80334Y304459D3*
G1X80334Y310059D3*
G1X72854Y309971D3*
G1X72854Y304371D3*
G1X95295Y304459D3*
G1X95295Y310059D3*
G1X87814Y309971D3*
G1X87814Y304371D3*
G1X131121Y270207D3*
G1X131121Y275807D3*
G1X131121Y340985D3*
G1X131121Y346585D3*
G1X150806Y270207D3*
G1X150806Y275807D3*
G1X150806Y340985D3*
G1X150806Y346585D3*
G1X7893Y265877D2*
G54D45*
G1X18917Y265877D1*
G1X37814Y246979D1*
G1X42932Y246979D1*
G1X57499Y242254D2*
G1X54679Y242254D1*
G75*
G3X53689Y241844I0J-1400D1*
G74*
G1X53050Y241205D1*
G75*
G2X51789Y240683I-1260J1260D1*
G74*
G1X35060Y240683D1*
G1X48532Y246979D2*
G1X52381Y246979D1*
G1X53257Y247854D1*
G1X57499Y247854D1*
G1X57499Y254478D1*
G1X58980Y255959D1*
G1X58980Y260065D1*
G1X69700Y276705D2*
G1X69704Y276709D1*
G1X69704Y282805D1*
G1X72298Y285399D1*
G1X78990Y285399D1*
G1X81033Y287442D1*
G1X81033Y293436D1*
G1X86633Y293436D2*
G1X86633Y289892D1*
G1X79940Y283199D1*
G1X74822Y283199D1*
G1X71670Y280047D1*
G1X71670Y276705D1*
G1X94507Y285955D2*
G1X88995Y285955D1*
G1X79745Y276705D1*
G1X75610Y276705D1*
G1X81033Y293436D2*
G1X81033Y298641D1*
G1X80334Y299341D1*
G1X80334Y304459D1*
G1X72854Y304371D2*
G1X76254Y304371D1*
G1X76342Y304459D1*
G1X80334Y304459D1*
G1X87814Y309971D2*
G1X87814Y310152D1*
G1X84271Y313695D1*
G1X80334Y310059D2*
G1X80634Y310059D1*
G1X84271Y313695D1*
G1X84271Y317451D2*
G1X84271Y313695D1*
G1X86633Y293436D2*
G1X86633Y298554D1*
G1X87814Y299735D1*
G1X87814Y304371D1*
G1X100107Y285955D2*
G1X113011Y285955D1*
G1X87814Y304371D2*
G1X91806Y304371D1*
G1X91895Y304459D1*
G1X95295Y304459D1*
G1X89871Y317451D2*
G1X96781Y317451D1*
G1X118523Y341073D2*
G1X118523Y340773D1*
G1X105054Y327304D1*
G75*
G3X102381Y320851I6454J-6454D1*
G74*
G1X102381Y317451D1*
G1X118611Y285955D2*
G1X118611Y280925D1*
G1X118523Y280837D1*
G1X118523Y275719D1*
G1X124123Y275719D2*
G1X127633Y275719D1*
G1X127721Y275807D1*
G1X131121Y275807D1*
G1X131121Y340985D2*
G1X127721Y340985D1*
G1X127634Y341073D1*
G1X124123Y341073D1*
G1X131121Y275807D2*
G1X135019Y275807D1*
G1X135108Y275719D1*
G1X138208Y275719D1*
G1X143808Y275719D2*
G1X147318Y275719D1*
G1X147406Y275807D1*
G1X150806Y275807D1*
G1X138208Y341073D2*
G1X135108Y341073D1*
G1X135020Y340985D1*
G1X131121Y340985D1*
G1X150806Y340985D2*
G1X147406Y340985D1*
G1X147319Y341073D1*
G1X143808Y341073D1*
G1X150806Y275807D2*
G1X154704Y275807D1*
G1X154793Y275719D1*
G1X157893Y275719D1*
G1X157893Y341073D2*
G1X154793Y341073D1*
G1X154705Y340985D1*
G1X150806Y340985D1*
G1X163493Y275719D2*
G1X188995Y275719D1*
G1X188995Y341073D2*
G1X179821Y341073D1*
G1X179820Y341073D1*
G1X163493Y341073D1*
G54D39*
G1X60255Y369814D3*
G54D43*
G1X58980Y260065D3*
G1X58980Y262035D3*
G1X58980Y264005D3*
G1X58980Y265975D3*
G1X58980Y267945D3*
G1X58980Y269915D3*
G1X58980Y271885D3*
G1X58980Y273845D3*
G1X78460Y267945D3*
G1X78460Y265975D3*
G1X78460Y264005D3*
G1X78460Y262035D3*
G1X78460Y260065D3*
G1X78460Y273845D3*
G1X78460Y271885D3*
G1X78460Y269915D3*
G54D44*
G1X68720Y266955D3*
G54D10*
G36*
G1X209977Y210005D2*
G1X406827Y210005D1*
G1X406827Y272390D1*
G1X391276Y272390D1*
G75*
G2X390275Y273391I-1J1000D1*
G1X390275Y273652D1*
G1X376041Y273652D1*
G1X375994Y273519D1*
G2X375051Y272852I-944J334D1*
G1X366250Y272852D1*
G2X365307Y273519I-1J999D1*
G1X365260Y273652D1*
G1X363881Y273652D1*
G1X363792Y273740D1*
G1X363531Y273740D1*
G2X362664Y273240I-867J501D1*
G1X358864Y273240D1*
G2X358055Y273652I-2J998D1*
G1X356356Y273652D1*
G1X356309Y273519D1*
G2X355366Y272852I-944J334D1*
G1X346565Y272852D1*
G2X345622Y273519I-1J999D1*
G1X345575Y273652D1*
G1X344196Y273652D1*
G1X344107Y273740D1*
G1X343846Y273740D1*
G2X342979Y273240I-867J501D1*
G1X339179Y273240D1*
G2X338370Y273652I-2J998D1*
G1X336671Y273652D1*
G1X336624Y273519D1*
G2X335681Y272852I-944J334D1*
G1X326881Y272852D1*
G2X325880Y273853I-1J1000D1*
G1X325880Y277653D1*
G2X326380Y278520I999J1D1*
G1X326380Y281741D1*
G1X326468Y281829D1*
G1X326468Y283088D1*
G1X321368Y283088D1*
G2X320425Y283755I-1J999D1*
G1X320378Y283888D1*
G1X312656Y283888D1*
G1X312608Y283755D1*
G2X311665Y283088I-944J334D1*
G1X302864Y283088D1*
G3X302464Y282688I-1J-400D1*
G1X302464Y277612D1*
G1X302870Y277206D1*
G1X309276Y277206D1*
G1X309303Y277213D1*
G2X309303Y272397I673J-2408D1*
G1X309276Y272404D1*
G1X302464Y272404D1*
G1X302464Y262651D1*
G1X302909Y262206D1*
G1X309276Y262206D1*
G1X309303Y262213D1*
G2X309303Y257397I673J-2408D1*
G1X309276Y257404D1*
G1X302464Y257404D1*
G1X302464Y243883D1*
G1X281251Y243883D1*
G1X281178Y243811D1*
G1X281178Y236706D1*
G1X281185Y236679D1*
G2X276369Y236679I-2408J-675D1*
G1X276376Y236706D1*
G1X276376Y243883D1*
G1X274028Y243883D1*
G1X273678Y243533D1*
G1X273678Y236706D1*
G1X273685Y236679D1*
G2X268869Y236679I-2408J-675D1*
G1X268876Y236706D1*
G1X268876Y239688D1*
G1X265557Y239688D1*
G2X264917Y239920I-1J996D1*
G1X264776Y240036D1*
G1X264494Y239754D1*
G2X261748Y238616I-2747J2744D1*
G1X247939Y238616D1*
G1X247884Y238505D1*
G2X246986Y237945I-899J441D1*
G1X243049Y237945D1*
G2X242048Y238946I-1J1000D1*
G1X242048Y242489D1*
G2X243049Y243490I1000J0D1*
G1X246895Y243490D1*
G1X246895Y244919D1*
G1X228005Y263810D1*
G1X226529Y263810D1*
G1X226529Y263548D1*
G2X225528Y262548I-1002J1D1*
G1X209977Y262548D1*
G1X209977Y210005D1*
G37*
G36*
G1X229745Y268011D2*
G1X248642Y249114D1*
G1X250300Y249114D1*
G1X250347Y249247D1*
G2X251290Y249914I943J-334D1*
G1X254457Y249914D1*
G1X254457Y262912D1*
G1X254064Y263304D1*
G1X247678Y263304D1*
G1X247651Y263297D1*
G2X247651Y268113I-675J2408D1*
G1X247678Y268106D1*
G1X254457Y268106D1*
G1X254457Y270392D1*
G1X254045Y270804D1*
G1X247678Y270804D1*
G1X247651Y270797D1*
G2X247651Y275613I-675J2408D1*
G1X247678Y275606D1*
G1X254457Y275606D1*
G1X254457Y278204D1*
G1X247678Y278204D1*
G1X247651Y278197D1*
G2X247651Y283013I-675J2408D1*
G1X247678Y283006D1*
G1X253986Y283006D1*
G1X254457Y283476D1*
G1X254457Y293038D1*
G1X262069Y293038D1*
G1X263769Y294738D1*
G1X263769Y296251D1*
G2X264770Y297251I1000J-1D1*
G1X267976Y297251D1*
G1X267976Y304004D1*
G1X267969Y304031D1*
G2X272785Y304031I2408J673D1*
G1X272778Y304004D1*
G1X272778Y293518D1*
G1X273258Y293038D1*
G1X288390Y293038D1*
G1X288390Y295370D1*
G2X288890Y296236I999J0D1*
G1X288890Y297805D1*
G1X288191Y298505D1*
G1X288191Y301902D1*
G1X288058Y301949D1*
G2X287525Y302392I329J938D1*
G1X287170Y302392D1*
G1X287082Y302304D1*
G1X285578Y302304D1*
G2X284712Y301804I-867J500D1*
G1X280912Y301804D1*
G2X279911Y302805I-1J1000D1*
G1X279911Y306005D1*
G2X280912Y307005I1000J-1D1*
G1X284702Y307005D1*
G1X284702Y312700D1*
G1X288384Y312700D1*
G1X288384Y312694D1*
G1X290222Y312694D1*
G1X291881Y314353D1*
G3X291893Y314907I-284J283D1*
G2X291628Y315585I730J676D1*
G1X291628Y319385D1*
G2X292629Y320386I1000J0D1*
G1X301429Y320386D1*
G2X302372Y319719I-2J-1003D1*
G1X302420Y319586D1*
G1X304148Y319586D1*
G1X304196Y319719D1*
G2X305139Y320386I943J-334D1*
G1X310238Y320386D1*
G1X310238Y320885D1*
G2X313527Y328824I11224J0D1*
G1X325880Y341177D1*
G1X325880Y343007D1*
G2X326881Y344008I1000J0D1*
G1X335681Y344008D1*
G2X336624Y343341I-2J-1003D1*
G1X336671Y343208D1*
G1X338370Y343208D1*
G2X339179Y343620I809J-590D1*
G1X342979Y343620D1*
G2X343846Y343120I-2J-1004D1*
G1X344108Y343120D1*
G1X344196Y343208D1*
G1X345575Y343208D1*
G1X345622Y343341D1*
G2X346566Y344008I943J-335D1*
G1X355366Y344008D1*
G2X356309Y343341I-2J-1003D1*
G1X356356Y343208D1*
G1X358055Y343208D1*
G2X358864Y343620I809J-590D1*
G1X362664Y343620D1*
G2X363531Y343120I-2J-1004D1*
G1X363793Y343120D1*
G1X363881Y343208D1*
G1X365260Y343208D1*
G1X365307Y343341D1*
G2X366251Y344008I943J-335D1*
G1X375051Y344008D1*
G2X375994Y343341I-2J-1003D1*
G1X376041Y343208D1*
G1X390275Y343208D1*
G1X390275Y343470D1*
G2X391276Y344470I1000J-1D1*
G1X406827Y344470D1*
G1X406827Y406855D1*
G1X209977Y406855D1*
G1X209977Y269274D1*
G1X225528Y269274D1*
G2X226529Y268273I-2J-1003D1*
G1X226529Y268011D1*
G1X229745Y268011D1*
G37*
G36*
G1X299729Y297789D2*
G1X302464Y297789D1*
G1X302464Y296565D1*
G3X302683Y296366I199J-1D1*
G2X302772Y296370I101J-1254D1*
G1X311577Y296370D1*
G2X312443Y295870I-3J-1004D1*
G1X320502Y295870D1*
G2X320568Y295970I789J-449D1*
G1X320568Y298449D1*
G2X320368Y299050I794J598D1*
G1X320368Y302850D1*
G2X321369Y303851I1000J0D1*
G1X342804Y303851D1*
G1X342804Y290569D1*
G1X331176Y290569D1*
G1X331176Y287946D1*
G1X331170Y287946D1*
G1X331170Y284089D1*
G2X330670Y283223I-1003J1D1*
G1X330670Y280089D1*
G1X330581Y280001D1*
G1X330581Y278654D1*
G1X335681Y278654D1*
G2X336595Y278061I-2J-1004D1*
G1X336647Y277942D1*
G1X338312Y277942D1*
G2X339179Y278442I866J-502D1*
G1X342979Y278442D1*
G2X343846Y277942I-2J-1004D1*
G1X345599Y277942D1*
G1X345651Y278061D1*
G2X346565Y278654I914J-409D1*
G1X355366Y278654D1*
G2X356280Y278061I-2J-1004D1*
G1X356333Y277942D1*
G1X357997Y277942D1*
G2X358864Y278442I866J-502D1*
G1X362664Y278442D1*
G2X363531Y277942I-2J-1004D1*
G1X365284Y277942D1*
G1X365336Y278061D1*
G2X366250Y278654I914J-409D1*
G1X375051Y278654D1*
G2X375994Y277987I-2J-1003D1*
G1X376041Y277854D1*
G1X390275Y277854D1*
G1X390275Y278115D1*
G2X391276Y279116I1000J0D1*
G1X406827Y279116D1*
G1X406827Y337744D1*
G1X391276Y337744D1*
G2X390275Y338745I-1J1000D1*
G1X390275Y339007D1*
G1X389817Y339007D1*
G1X389778Y339006D1*
G1X376041Y339006D1*
G1X375994Y338873D1*
G2X375051Y338206I-944J334D1*
G1X366250Y338206D1*
G2X365336Y338800I-1J999D1*
G1X365284Y338918D1*
G1X363531Y338918D1*
G2X362664Y338418I-867J501D1*
G1X358864Y338418D1*
G2X357998Y338918I-1J999D1*
G1X356333Y338918D1*
G1X356280Y338800D1*
G2X355366Y338206I-915J407D1*
G1X346565Y338206D1*
G2X345651Y338800I-1J999D1*
G1X345599Y338918D1*
G1X343846Y338918D1*
G2X342979Y338418I-867J501D1*
G1X339179Y338418D1*
G2X338313Y338918I-1J999D1*
G1X336647Y338918D1*
G1X336595Y338800D1*
G2X335681Y338206I-915J407D1*
G1X328851Y338206D1*
G1X316497Y325853D1*
G3X314440Y320885I4966J-4967D1*
G1X314440Y320251D1*
G2X314940Y319385I-504J-869D1*
G1X314940Y315585D1*
G2X313939Y314584I-1002J0D1*
G1X305139Y314584D1*
G2X304196Y315251I-1J999D1*
G1X304148Y315384D1*
G1X303353Y315384D1*
G1X303353Y307094D1*
G1X307153Y307094D1*
G2X308153Y306093I-3J-1003D1*
G1X308153Y302893D1*
G2X307153Y301892I-1001J-1D1*
G1X303353Y301892D1*
G2X302544Y302304I-1J998D1*
G1X300539Y302304D1*
G2X300006Y301861I-868J502D1*
G1X299873Y301814D1*
G1X299873Y298899D1*
G1X299447Y298472D1*
G3X299729Y297789I281J-284D1*
G37*
G36*
G1X326968Y291570D2*
G1X341803Y291570D1*
G1X341803Y302851D1*
G1X326968Y302851D1*
G1X326968Y291570D1*
G37*
%LPC*%
G36*
G1X233599Y230855D2*
G1X237536Y230855D1*
G3X238537Y231855I0J1000D1*
G1X238537Y235399D1*
G3X237536Y236399I-1002J-2D1*
G1X233598Y236399D1*
G3X232598Y235399I0J-1001D1*
G1X232598Y231855D1*
G3X233599Y230855I999J0D1*
G37*
G36*
G1X230377Y249414D2*
G1X233167Y246624D1*
G1X233167Y243398D1*
G1X233072Y243340D1*
G3X232598Y242489I525J-851D1*
G1X232598Y238946D1*
G3X233599Y237945I1000J-1D1*
G1X237536Y237945D1*
G3X238537Y238946I-1J1001D1*
G1X238537Y242489D1*
G3X238063Y243340I-1005J-2D1*
G1X237968Y243398D1*
G1X237968Y244243D1*
G3X238474Y245113I-497J870D1*
G1X238474Y248913D1*
G3X237473Y249914I-1002J-1D1*
G1X236668Y249914D1*
G1X233772Y252809D1*
G1X233758Y252833D1*
G3X230377Y249414I-2180J-1227D1*
G37*
G36*
G1X391723Y390356D2*
G1X397523Y390356D1*
G3X398523Y391357I-2J1001D1*
G1X398523Y397157D1*
G3X397523Y398158I-1002J-1D1*
G1X391723Y398158D1*
G3X390722Y397157I-1J-1001D1*
G1X390722Y391357D1*
G3X391723Y390356I1000J-1D1*
G37*
G36*
G1X351723Y380356D2*
G1X357523Y380356D1*
G3X358523Y381357I-2J1001D1*
G1X358523Y387157D1*
G3X357523Y388158I-1002J-1D1*
G1X351723Y388158D1*
G3X350722Y387157I-1J-1001D1*
G1X350722Y381357D1*
G3X351723Y380356I1000J-1D1*
G37*
G36*
G1X260976Y363495D2*
G1X260976Y362516D1*
G1X260967Y362516D1*
G1X260967Y361114D1*
G1X260976Y361114D1*
G1X260976Y343104D1*
G1X291478Y343104D1*
G1X291478Y361114D1*
G1X291489Y361114D1*
G1X291489Y362516D1*
G1X291478Y362516D1*
G1X291478Y377006D1*
G1X260976Y377006D1*
G1X260976Y376200D1*
G1X260971Y376177D1*
G3X260945Y375950I927J-222D1*
G1X260945Y363745D1*
G3X260971Y363518I947J-7D1*
G1X260976Y363495D1*
G37*
G74*
G54D18*
G1X304623Y394257D3*
G1X324623Y394257D3*
G1X314623Y394257D3*
G1X334623Y394257D3*
G1X344623Y394257D3*
G54D17*
G1X304623Y384257D3*
G1X324623Y384257D3*
G1X314623Y384257D3*
G1X334623Y384257D3*
G1X344623Y384257D3*
G1X354623Y394257D3*
G1X364623Y384257D3*
G1X364623Y394257D3*
G1X384623Y384257D3*
G1X374623Y384257D3*
G1X384623Y394257D3*
G1X374623Y394257D3*
G1X394623Y384257D3*
%LPD*%
G36*
G1X261977Y344105D2*
G1X290477Y344105D1*
G1X290477Y360105D1*
G1X261977Y360105D1*
G1X261977Y344105D1*
G37*
G36*
G1X261977Y363505D2*
G1X290477Y363505D1*
G1X290477Y376005D1*
G1X261977Y376005D1*
G1X261977Y363505D1*
G37*
G1X235568Y240717D2*
G54D10*
G1X235568Y246707D1*
G1X235873Y247013D1*
G1X235873Y247313D1*
G1X231579Y251607D1*
G1X241473Y247013D2*
G1X241473Y236975D1*
G1X244821Y233627D1*
G1X245018Y233627D1*
G1X246977Y265705D2*
G1X255059Y265705D1*
G1X258490Y262274D1*
G1X246977Y273205D2*
G1X255039Y273205D1*
G1X258490Y269754D1*
G1X258490Y269454D1*
G1X258490Y284414D2*
G1X258490Y284114D1*
G1X254981Y280605D1*
G1X246977Y280605D1*
G1X258490Y261974D2*
G1X258490Y262274D1*
G1X271277Y236005D2*
G1X271277Y244528D1*
G1X274638Y247888D1*
G1X278777Y236005D2*
G1X278777Y244805D1*
G1X281860Y247888D1*
G1X282118Y247888D1*
G1X274938Y247888D2*
G1X274638Y247888D1*
G1X270377Y304705D2*
G1X270377Y292524D1*
G1X273850Y289051D1*
G1X274150Y289051D1*
G1X282418Y247888D2*
G1X282118Y247888D1*
G1X298471Y256068D2*
G1X298471Y250005D1*
G1X309977Y259805D2*
G1X301915Y259805D1*
G1X298471Y263248D1*
G1X298471Y263548D1*
G1X309977Y274805D2*
G1X301875Y274805D1*
G1X298471Y278209D1*
G1X298471Y278509D1*
G1X304377Y293470D2*
G1X304465Y293381D1*
G1X304465Y285989D1*
G1X322969Y293470D2*
G1X309977Y293470D1*
G1X322969Y300950D2*
G1X322969Y293470D1*
G1X219820Y239533D3*
G1X219426Y249769D3*
G1X215095Y249769D3*
G1X214308Y282840D3*
G1X219032Y282840D3*
G1X219820Y298588D3*
G1X219820Y318273D3*
G1X219820Y337958D3*
G1X219820Y357643D3*
G1X219820Y377328D3*
G1X219820Y397013D3*
G1X229662Y229690D3*
G1X229662Y269060D3*
G1X229662Y288745D3*
G1X229662Y308430D3*
G1X229662Y328115D3*
G1X229662Y367485D3*
G1X229662Y387170D3*
G1X239505Y219848D3*
G1X249347Y229690D3*
G1X239898Y259218D3*
G1X248166Y258430D3*
G1X249347Y269060D3*
G1X239505Y278903D3*
G1X249347Y288745D3*
G1X249347Y308430D3*
G1X239505Y298588D3*
G1X249347Y328115D3*
G1X239505Y318273D3*
G1X249347Y367485D3*
G1X249347Y387170D3*
G1X239505Y377328D3*
G1X259190Y219848D3*
G1X265489Y262367D3*
G1X259190Y298588D3*
G1X259190Y318273D3*
G1X259190Y337958D3*
G1X259190Y397013D3*
G1X278875Y219848D3*
G1X269032Y229690D3*
G1X272556Y252944D3*
G1X278481Y267485D3*
G1X274938Y267485D3*
G1X274938Y263942D3*
G1X278481Y263942D3*
G1X277698Y253706D3*
G1X274938Y253706D3*
G1X274938Y270635D3*
G1X278481Y270635D3*
G1X269032Y308430D3*
G1X278087Y310005D3*
G1X274150Y299375D3*
G1X269032Y328115D3*
G1X278875Y318273D3*
G1X278875Y337958D3*
G1X269032Y387170D3*
G1X278875Y397013D3*
G1X288717Y229690D3*
G1X286355Y253312D3*
G1X291769Y264039D3*
G1X288323Y256345D3*
G1X282024Y263942D3*
G1X282024Y267485D3*
G1X291867Y261186D3*
G1X290686Y258430D3*
G1X282024Y270635D3*
G1X285242Y280477D3*
G1X281631Y299375D3*
G1X288717Y328115D3*
G1X288717Y387170D3*
G1X298560Y219848D3*
G1X308402Y229690D3*
G1X308402Y249375D3*
G1X304071Y251344D3*
G1X308796Y281265D3*
G1X309977Y310399D3*
G1X308402Y328115D3*
G1X298560Y337958D3*
G1X308402Y347800D3*
G1X298560Y357643D3*
G1X308402Y367485D3*
G1X318245Y219848D3*
G1X318245Y239533D3*
G1X318245Y357643D3*
G1X337930Y219848D3*
G1X328087Y229690D3*
G1X328087Y249375D3*
G1X337930Y239533D3*
G1X337930Y259218D3*
G1X328087Y269060D3*
G1X328087Y328115D3*
G1X328087Y347800D3*
G1X337930Y357643D3*
G1X328087Y367485D3*
G1X347772Y229690D3*
G1X347772Y249375D3*
G1X341079Y265517D3*
G1X347772Y269060D3*
G1X347772Y288745D3*
G1X347772Y308430D3*
G1X347772Y347800D3*
G1X341473Y351344D3*
G1X347772Y367485D3*
G1X357615Y219848D3*
G1X367457Y229690D3*
G1X367457Y249375D3*
G1X357615Y239533D3*
G1X357615Y259218D3*
G1X360764Y265517D3*
G1X367457Y269060D3*
G1X367457Y288745D3*
G1X367457Y308430D3*
G1X357615Y298588D3*
G1X367457Y328115D3*
G1X367851Y348588D3*
G1X357615Y357643D3*
G1X360764Y351344D3*
G1X368245Y367485D3*
G1X377300Y219848D3*
G1X377300Y239533D3*
G1X377300Y259218D3*
G1X377300Y298588D3*
G1X377300Y318273D3*
G1X377300Y357643D3*
G1X396985Y219848D3*
G1X387142Y229690D3*
G1X387142Y249375D3*
G1X396985Y239533D3*
G1X397379Y259218D3*
G1X387142Y269060D3*
G1X387142Y288745D3*
G1X395804Y291895D3*
G1X387142Y308430D3*
G1X396985Y298588D3*
G1X387142Y328115D3*
G1X396985Y318273D3*
G1X396197Y324572D3*
G1X387930Y347800D3*
G1X397772Y357643D3*
G1X387930Y367485D3*
G1X402890Y259218D3*
G1X402497Y291895D3*
G1X402890Y324572D3*
G1X402497Y357643D3*
G54D42*
G1X279658Y257249D3*
G1X277698Y257249D3*
G1X275728Y257249D3*
G1X273758Y257249D3*
G1X271788Y257249D3*
G1X271788Y276739D3*
G1X273758Y276739D3*
G1X275728Y276739D3*
G1X277698Y276739D3*
G1X279658Y276739D3*
G1X285568Y257249D3*
G1X283598Y257249D3*
G1X281628Y257249D3*
G1X281628Y276739D3*
G1X283598Y276739D3*
G1X285568Y276739D3*
G54D40*
G1X217851Y255084D3*
G1X217851Y265911D3*
G1X217851Y276737D3*
G1X398953Y264926D3*
G1X398953Y275753D3*
G1X398953Y286580D3*
G1X398953Y330281D3*
G1X398953Y341107D3*
G1X398953Y351934D3*
G54D31*
G1X287977Y357605D3*
G1X287977Y366005D3*
G54D38*
G1X235568Y233627D3*
G1X235568Y240717D3*
G1X245018Y233627D3*
G1X245018Y240717D3*
G54D33*
G1X235873Y247013D3*
G1X241473Y247013D3*
G1X252890Y247013D3*
G1X258490Y247013D3*
G1X252890Y261974D3*
G1X258490Y261974D3*
G1X252890Y254493D3*
G1X258490Y254493D3*
G1X252890Y269454D3*
G1X258490Y269454D3*
G1X252890Y276934D3*
G1X258490Y276934D3*
G1X252890Y284414D3*
G1X258490Y284414D3*
G1X257977Y346005D3*
G1X263577Y346005D3*
G1X290991Y293470D3*
G1X294229Y317485D3*
G1X304071Y263548D3*
G1X298471Y263548D3*
G1X304071Y256068D3*
G1X298471Y256068D3*
G1X304071Y271029D3*
G1X298471Y271029D3*
G1X304071Y278509D3*
G1X298471Y278509D3*
G1X304465Y285989D3*
G1X310065Y285989D3*
G1X309977Y293470D3*
G1X304377Y293470D3*
G1X296591Y293470D3*
G1X306739Y317485D3*
G1X299829Y317485D3*
G1X322969Y293470D3*
G1X322969Y285989D3*
G1X322969Y300950D3*
G1X312339Y317485D3*
G1X328481Y275753D3*
G1X334081Y275753D3*
G1X328569Y293470D3*
G1X328569Y285989D3*
G1X340203Y293470D3*
G1X328569Y300950D3*
G1X340203Y300950D3*
G1X328481Y341107D3*
G1X334081Y341107D3*
G1X348166Y275753D3*
G1X353766Y275753D3*
G1X345803Y293470D3*
G1X345803Y300950D3*
G1X348166Y341107D3*
G1X353766Y341107D3*
G1X367851Y275753D3*
G1X367851Y341107D3*
G1X373451Y275753D3*
G1X373451Y341107D3*
G54D12*
G1X304623Y384257D3*
G1X304623Y394257D3*
G1X324623Y384257D3*
G1X314623Y384257D3*
G1X324623Y394257D3*
G1X314623Y394257D3*
G1X334623Y384257D3*
G1X334623Y394257D3*
G1X344623Y384257D3*
G1X354623Y394257D3*
G1X344623Y394257D3*
G1X364623Y384257D3*
G1X364623Y394257D3*
G1X384623Y384257D3*
G1X374623Y384257D3*
G1X384623Y394257D3*
G1X374623Y394257D3*
G1X394623Y384257D3*
G54D13*
G1X354623Y384257D3*
G1X394623Y394257D3*
G54D11*
G1X231579Y251607D3*
G1X246977Y265705D3*
G1X246977Y280605D3*
G1X246977Y273205D3*
G1X271277Y236005D3*
G1X278777Y236005D3*
G1X270377Y304705D3*
G1X275477Y356005D3*
G1X269477Y356005D3*
G1X269977Y348005D3*
G1X275477Y348005D3*
G1X280977Y348005D3*
G1X280977Y356005D3*
G1X286477Y348005D3*
G1X298471Y250005D3*
G1X309977Y259805D3*
G1X309977Y274805D3*
G1X334477Y300005D3*
G1X334477Y294505D3*
G1X304623Y389856D2*
G54D14*
G1X304623Y394257D1*
G1X304623Y398658D1*
G1X300222Y394257D2*
G1X304623Y394257D1*
G1X309023Y394257D1*
G1X314623Y389856D2*
G1X314623Y394257D1*
G1X314623Y398658D1*
G1X310222Y394257D2*
G1X314623Y394257D1*
G1X319023Y394257D1*
G1X324623Y389856D2*
G1X324623Y394257D1*
G1X324623Y398658D1*
G1X320222Y394257D2*
G1X324623Y394257D1*
G1X329023Y394257D1*
G1X334623Y389856D2*
G1X334623Y394257D1*
G1X334623Y398658D1*
G1X330222Y394257D2*
G1X334623Y394257D1*
G1X339023Y394257D1*
G1X344623Y389856D2*
G1X344623Y394257D1*
G1X344623Y398658D1*
G1X340222Y394257D2*
G1X344623Y394257D1*
G1X349023Y394257D1*
G54D41*
G1X237533Y346818D3*
G1X237533Y397798D3*
G1X265489Y262367D2*
G54D15*
G1X267161Y264039D1*
G1X268938Y264039D1*
G1X258490Y262274D2*
G1X264196Y267979D1*
G1X268938Y267979D1*
G1X258490Y254493D2*
G1X258490Y254793D1*
G1X263127Y259429D1*
G1X263127Y263172D1*
G1X265963Y266009D1*
G1X268938Y266009D1*
G1X268938Y273879D2*
G1X268938Y276867D1*
G1X261390Y284414D1*
G1X258490Y284414D1*
G1X258490Y269454D2*
G1X262339Y269454D1*
G1X262834Y269949D1*
G1X268938Y269949D1*
G1X258490Y276934D2*
G1X261552Y276934D1*
G1X266567Y271919D1*
G1X268938Y271919D1*
G1X266670Y294651D2*
G1X266370Y294651D1*
G1X262733Y291014D1*
G1X262733Y285794D1*
G1X266081Y282446D1*
G1X269057Y282446D1*
G1X271788Y279714D1*
G1X271788Y276739D1*
G1X272556Y252944D2*
G1X272623Y253011D1*
G1X272623Y254445D1*
G1X273339Y255161D1*
G1X273339Y255162D1*
G1X273758Y255581D1*
G1X273758Y257249D1*
G1X271788Y257249D2*
G1X271788Y256127D1*
G1X269894Y254233D1*
G1X269894Y252632D1*
G1X274638Y247888D1*
G1X282118Y247888D2*
G1X279698Y250309D1*
G1X279698Y254145D1*
G1X279658Y254185D1*
G1X279658Y257249D1*
G1X277698Y257249D2*
G1X277698Y253706D1*
G1X275728Y257249D2*
G1X275728Y254496D1*
G1X274938Y253706D1*
G1X266670Y289051D2*
G1X266970Y289051D1*
G1X273758Y282262D1*
G1X273758Y276739D1*
G1X274150Y289051D2*
G1X274150Y286151D1*
G1X275728Y284573D1*
G1X275728Y276739D1*
G1X281631Y289051D2*
G1X281331Y289051D1*
G1X277694Y285414D1*
G1X277694Y279718D1*
G1X277698Y279714D1*
G1X277698Y276739D1*
G1X289898Y247888D2*
G1X289598Y247888D1*
G1X286537Y250950D1*
G1X284386Y250950D1*
G1X281628Y253708D1*
G1X281628Y257249D1*
G1X288418Y264039D2*
G1X291769Y264039D1*
G1X286355Y253312D2*
G1X284562Y253312D1*
G1X283598Y254276D1*
G1X283598Y257249D1*
G1X285568Y257249D2*
G1X287419Y257249D1*
G1X288323Y256345D1*
G1X288418Y262069D2*
G1X290983Y262069D1*
G1X291867Y261186D1*
G1X290686Y258430D2*
G1X290686Y259099D1*
G1X289686Y260099D1*
G1X288418Y260099D1*
G1X288418Y266009D2*
G1X290910Y266009D1*
G1X290941Y266039D1*
G1X292598Y266039D1*
G1X292628Y266009D1*
G1X292949Y266009D1*
G1X295016Y263942D1*
G1X295016Y259823D1*
G1X298471Y256368D1*
G1X298471Y256068D1*
G1X298471Y263548D2*
G1X298471Y263848D1*
G1X294341Y267979D1*
G1X288418Y267979D1*
G1X298471Y271029D2*
G1X293442Y271029D1*
G1X292362Y269949D1*
G1X288418Y269949D1*
G1X298471Y278509D2*
G1X295008Y278509D1*
G1X293048Y276549D1*
G1X293048Y273574D1*
G1X291393Y271919D1*
G1X288418Y271919D1*
G1X283598Y276739D2*
G1X283598Y278833D1*
G1X285242Y280477D1*
G54D34*
G1X266670Y294651D3*
G1X266670Y289051D3*
G1X267457Y242288D3*
G1X267457Y247888D3*
G1X274938Y242288D3*
G1X274938Y247888D3*
G1X274150Y294651D3*
G1X274150Y289051D3*
G1X281631Y294651D3*
G1X281631Y289051D3*
G1X289898Y242288D3*
G1X289898Y247888D3*
G1X282418Y242288D3*
G1X282418Y247888D3*
G1X290292Y304493D3*
G1X290292Y310093D3*
G1X282812Y310005D3*
G1X282812Y304405D3*
G1X305253Y304493D3*
G1X305253Y310093D3*
G1X297772Y310005D3*
G1X297772Y304405D3*
G1X341079Y270241D3*
G1X341079Y275841D3*
G1X341079Y341019D3*
G1X341079Y346619D3*
G1X360764Y270241D3*
G1X360764Y275841D3*
G1X360764Y341019D3*
G1X360764Y346619D3*
G1X217851Y265911D2*
G54D45*
G1X228875Y265911D1*
G1X247772Y247013D1*
G1X252890Y247013D1*
G1X267457Y242288D2*
G1X264637Y242288D1*
G75*
G3X263647Y241878I0J-1400D1*
G74*
G1X263008Y241239D1*
G75*
G2X261747Y240717I-1260J1260D1*
G74*
G1X245018Y240717D1*
G1X258490Y247013D2*
G1X262339Y247013D1*
G1X263215Y247888D1*
G1X267457Y247888D1*
G1X267457Y254512D1*
G1X268938Y255993D1*
G1X268938Y260099D1*
G1X279658Y276739D2*
G1X279662Y276743D1*
G1X279662Y282839D1*
G1X282256Y285433D1*
G1X288948Y285433D1*
G1X290991Y287476D1*
G1X290991Y293470D1*
G1X296591Y293470D2*
G1X296591Y289926D1*
G1X289898Y283233D1*
G1X284780Y283233D1*
G1X281628Y280081D1*
G1X281628Y276739D1*
G1X304465Y285989D2*
G1X298953Y285989D1*
G1X289703Y276739D1*
G1X285568Y276739D1*
G1X290991Y293470D2*
G1X290991Y298675D1*
G1X290292Y299375D1*
G1X290292Y304493D1*
G1X282812Y304405D2*
G1X286212Y304405D1*
G1X286300Y304493D1*
G1X290292Y304493D1*
G1X297772Y310005D2*
G1X297772Y310186D1*
G1X294229Y313729D1*
G1X290292Y310093D2*
G1X290592Y310093D1*
G1X294229Y313729D1*
G1X294229Y317485D2*
G1X294229Y313729D1*
G1X296591Y293470D2*
G1X296591Y298588D1*
G1X297772Y299769D1*
G1X297772Y304405D1*
G1X310065Y285989D2*
G1X322969Y285989D1*
G1X297772Y304405D2*
G1X301764Y304405D1*
G1X301853Y304493D1*
G1X305253Y304493D1*
G1X299829Y317485D2*
G1X306739Y317485D1*
G1X328481Y341107D2*
G1X328481Y340807D1*
G1X315012Y327338D1*
G75*
G3X312339Y320885I6454J-6454D1*
G74*
G1X312339Y317485D1*
G1X328569Y285989D2*
G1X328569Y280959D1*
G1X328481Y280871D1*
G1X328481Y275753D1*
G1X334081Y275753D2*
G1X337591Y275753D1*
G1X337679Y275841D1*
G1X341079Y275841D1*
G1X341079Y341019D2*
G1X337679Y341019D1*
G1X337592Y341107D1*
G1X334081Y341107D1*
G1X341079Y275841D2*
G1X344977Y275841D1*
G1X345066Y275753D1*
G1X348166Y275753D1*
G1X353766Y275753D2*
G1X357276Y275753D1*
G1X357364Y275841D1*
G1X360764Y275841D1*
G1X348166Y341107D2*
G1X345066Y341107D1*
G1X344978Y341019D1*
G1X341079Y341019D1*
G1X360764Y341019D2*
G1X357364Y341019D1*
G1X357277Y341107D1*
G1X353766Y341107D1*
G1X360764Y275841D2*
G1X364662Y275841D1*
G1X364751Y275753D1*
G1X367851Y275753D1*
G1X367851Y341107D2*
G1X364751Y341107D1*
G1X364663Y341019D1*
G1X360764Y341019D1*
G1X373451Y275753D2*
G1X398953Y275753D1*
G1X398953Y341107D2*
G1X389779Y341107D1*
G1X389778Y341107D1*
G1X373451Y341107D1*
G54D39*
G1X270213Y369848D3*
G54D43*
G1X268938Y260099D3*
G1X268938Y262069D3*
G1X268938Y264039D3*
G1X268938Y266009D3*
G1X268938Y267979D3*
G1X268938Y269949D3*
G1X268938Y271919D3*
G1X268938Y273879D3*
G1X288418Y267979D3*
G1X288418Y266009D3*
G1X288418Y264039D3*
G1X288418Y262069D3*
G1X288418Y260099D3*
G1X288418Y273879D3*
G1X288418Y271919D3*
G1X288418Y269949D3*
G54D44*
G1X278678Y266989D3*
G54D10*
G36*
G1X420052Y210034D2*
G1X616897Y210034D1*
G1X616897Y310642D1*
G1X601440Y310642D1*
G75*
G2X600440Y311642I-1J999D1*
G1X600440Y311903D1*
G1X583816Y311903D1*
G1X583769Y311769D1*
G2X582825Y311104I-944J336D1*
G1X577728Y311104D1*
G1X577728Y309734D1*
G1X577528Y309534D1*
G1X577528Y309086D1*
G1X580151Y309086D1*
G2X581051Y308524I-1J-1003D1*
G1X581106Y308411D1*
G1X582240Y308411D1*
G1X592500Y298150D1*
G1X592500Y295444D1*
G3X593101Y295095I401J-1D1*
G2X595577Y295095I1238J-2175D1*
G3X596178Y295444I199J349D1*
G1X596178Y295831D1*
G1X596134Y295886D1*
G2X599980Y295832I1945J1570D1*
G1X599980Y289971D1*
G1X599994Y289936D1*
G2X600064Y289568I-952J-372D1*
G1X600064Y286417D1*
G2X600004Y286075I-1022J3D1*
G1X599992Y286042D1*
G1X599992Y279706D1*
G1X600004Y279673D1*
G2X600064Y279331I-966J-346D1*
G1X600064Y276181D1*
G2X599063Y275180I-1002J0D1*
G1X597095Y275180D1*
G2X596094Y276181I-1J1000D1*
G1X596094Y279331D1*
G1X596095Y279380D1*
G1X596095Y279591D1*
G1X593437Y279591D1*
G1X593428Y279600D1*
G1X592582Y279600D1*
G1X592582Y279388D1*
G1X592584Y279331D1*
G1X592584Y276179D1*
G2X592514Y275812I-1018J3D1*
G1X592500Y275777D1*
G1X592500Y274413D1*
G2X588698Y274413I-1901J-1626D1*
G1X588698Y275777D1*
G1X588684Y275812D1*
G2X588614Y276180I914J364D1*
G1X588614Y279331D1*
G2X588655Y279615I977J3D1*
G1X588663Y279643D1*
G1X588663Y286105D1*
G1X588655Y286133D1*
G2X588614Y286417I932J279D1*
G1X588614Y289568D1*
G2X588684Y289936I986J3D1*
G1X588698Y289971D1*
G1X588698Y296575D1*
G1X587486Y297788D1*
G3X586800Y297503I-284J-285D1*
G2X581813Y297193I-2501J-46D1*
G1X581805Y297264D1*
G1X581495Y297573D1*
G3X581152Y297431I-143J-143D1*
G1X581152Y296962D1*
G1X581162Y296931D1*
G2X581268Y296274I-2022J-664D1*
G1X581268Y294066D1*
G1X581356Y293978D1*
G1X581356Y286432D1*
G2X581856Y285565I-504J-868D1*
G1X581856Y281767D1*
G2X580855Y280766I-1002J0D1*
G1X572055Y280766D1*
G2X571248Y281176I-1J998D1*
G3X570640Y281223I-325J-238D1*
G1X565961Y276545D1*
G1X566022Y276417D1*
G2X565826Y275279I-906J-430D1*
G1X563562Y273016D1*
G2X562618Y272751I-708J706D1*
G3X562132Y272265I-96J-391D1*
G2X561868Y271321I-975J-237D1*
G1X560997Y270450D1*
G1X560997Y267395D1*
G1X560786Y267184D1*
G1X560786Y256395D1*
G1X560920Y256348D1*
G2X561585Y255405I-339J-945D1*
G1X561585Y252203D1*
G2X561377Y251592I-1006J1D1*
G3X561695Y250944I317J-247D1*
G1X561947Y250944D1*
G1X561947Y245579D1*
G1X537414Y245579D1*
G2X536728Y245306I-687J727D1*
G1X527928Y245306D1*
G2X527267Y245555I-2J997D1*
G1X521294Y245555D1*
G1X521294Y242121D1*
G1X523812Y242121D1*
G2X524004Y242102I-7J-1051D1*
G1X524023Y242099D1*
G1X524700Y242099D1*
G1X524700Y241584D1*
G1X524719Y241544D1*
G2X524813Y241120I-923J-427D1*
G1X524813Y237970D1*
G2X524719Y237546I-1014J2D1*
G1X524700Y237506D1*
G1X524700Y215564D1*
G1X512168Y215564D1*
G1X512168Y231279D1*
G1X503215Y231279D1*
G1X503215Y231208D1*
G1X497533Y231208D1*
G1X497533Y231067D1*
G1X497114Y231067D1*
G1X497114Y228010D1*
G2X497363Y227349I-758J-663D1*
G1X497363Y224147D1*
G2X496362Y223146I-1002J0D1*
G1X494973Y223146D1*
G1X494954Y223143D1*
G2X493972Y223143I-491J2598D1*
G1X493953Y223146D1*
G1X492564Y223146D1*
G2X491563Y224147I-1J1000D1*
G1X491563Y227349D1*
G2X491812Y228010I997J1D1*
G1X491812Y231067D1*
G1X488698Y231067D1*
G1X488698Y215924D1*
G1X456189Y215924D1*
G1X456189Y231120D1*
G1X482479Y231120D1*
G1X482479Y244169D1*
G1X471949Y244169D1*
G1X471949Y245399D1*
G1X465077Y245399D1*
G1X464995Y245317D1*
G1X459709Y245317D1*
G1X449223Y255803D1*
G1X449223Y264522D1*
G1X448353Y265393D1*
G2X448088Y266337I704J706D1*
G3X447602Y266823I-392J94D1*
G2X446658Y267087I-238J970D1*
G1X444394Y269351D1*
G2X444198Y270488I706J707D1*
G1X444259Y270617D1*
G1X441241Y273635D1*
G1X436549Y273635D1*
G1X436549Y273374D1*
G2X435548Y272373I-1002J0D1*
G1X420052Y272373D1*
G1X420052Y210034D1*
G37*
G36*
G1X459215Y298097D2*
G1X459215Y320634D1*
G1X465334Y320634D1*
G1X465334Y331313D1*
G1X487560Y331313D1*
G1X487560Y336774D1*
G2X492862Y336774I2651J-1D1*
G1X492862Y331313D1*
G1X501312Y331313D1*
G1X501312Y332867D1*
G2X505114Y332867I1901J1624D1*
G1X505114Y331313D1*
G1X521506Y331313D1*
G1X521506Y298135D1*
G1X555455Y298135D1*
G1X555455Y296713D1*
G1X555580Y296588D1*
G1X556896Y296588D1*
G1X558189Y297881D1*
G2X559604Y297881I707J-709D1*
G1X561868Y295617D1*
G2X562132Y294673I-711J-708D1*
G3X562618Y294187I390J-96D1*
G2X563562Y293922I235J-975D1*
G1X565826Y291658D1*
G2X566103Y290769I-710J-709D1*
G1X566083Y290665D1*
G1X570640Y286109D1*
G3X571248Y286156I283J283D1*
G2X572056Y286566I807J-592D1*
G1X577154Y286566D1*
G1X577154Y292244D1*
G1X577066Y292332D1*
G1X577066Y296274D1*
G2X577172Y296931I2082J0D1*
G1X577182Y296962D1*
G1X577182Y297849D1*
G2X577194Y298004I920J6D1*
G1X577196Y298019D1*
G1X577196Y298236D1*
G1X573658Y298236D1*
G1X573658Y298019D1*
G1X573660Y298004D1*
G2X573673Y297849I-1120J-172D1*
G1X573673Y296962D1*
G1X573682Y296931D1*
G2X573682Y295617I-2002J-657D1*
G1X573673Y295586D1*
G1X573673Y294699D1*
G2X572672Y293698I-1002J0D1*
G1X570702Y293698D1*
G2X569851Y294173I-1J999D1*
G1X567271Y294173D1*
G1X557766Y303678D1*
G1X557766Y305588D1*
G1X552749Y305588D1*
G2X551807Y306253I-1J999D1*
G1X551760Y306387D1*
G1X549242Y306387D1*
G1X496063Y359566D1*
G1X489233Y359566D1*
G2X488291Y360231I-1J999D1*
G1X488244Y360365D1*
G1X487200Y360365D1*
G1X487132Y360297D1*
G1X483945Y360297D1*
G1X483945Y358201D1*
G1X481784Y358201D1*
G1X481784Y339143D1*
G1X470416Y339143D1*
G1X470384Y339132D1*
G2X470059Y339078I-324J940D1*
G1X466857Y339078D1*
G2X466533Y339132I-2J987D1*
G1X466501Y339143D1*
G1X465553Y339143D1*
G1X465553Y359498D1*
G3X465834Y360177I-12J402D1*
G2X465693Y360365I691J665D1*
G1X462776Y360365D1*
G1X462729Y360231D1*
G2X461786Y359566I-944J336D1*
G1X456688Y359566D1*
G1X456688Y357574D1*
G1X438103Y338989D1*
G1X436549Y338989D1*
G1X436549Y338728D1*
G2X435548Y337727I-1002J0D1*
G1X420052Y337727D1*
G1X420052Y279099D1*
G1X435548Y279099D1*
G2X436549Y278098I-1J-1002D1*
G1X436549Y277837D1*
G1X441141Y277837D1*
G1X443865Y280561D1*
G1X443804Y280690D1*
G2X444000Y281827I902J429D1*
G1X446264Y284091D1*
G2X447208Y284355I707J-709D1*
G3X447694Y284841I94J391D1*
G2X447958Y285785I970J237D1*
G1X450222Y288049D1*
G2X451638Y288049I708J-709D1*
G1X452930Y286756D1*
G1X454247Y286756D1*
G1X454440Y286949D1*
G1X458275Y286949D1*
G3X458624Y287550I-1J402D1*
G2X461471Y291196I2172J1237D1*
G1X461498Y291189D1*
G1X465334Y291189D1*
G1X465334Y298097D1*
G1X459215Y298097D1*
G37*
G36*
G1X437045Y343873D2*
G1X452486Y359314D1*
G1X452486Y359700D1*
G2X451986Y360567I499J865D1*
G1X451986Y364365D1*
G2X452987Y365366I1000J0D1*
G1X461786Y365366D1*
G2X462729Y364701I-1J-1002D1*
G1X462776Y364567D1*
G1X465693Y364567D1*
G2X466559Y365068I866J-500D1*
G1X469259Y365068D1*
G3X469543Y365753I-1J401D1*
G1X467346Y367951D1*
G1X467346Y370992D1*
G1X462048Y370992D1*
G2X461062Y371824I-1J999D1*
G1X461033Y371991D1*
G1X453093Y371991D1*
G1X430760Y394325D1*
G1X426747Y394325D1*
G2X426246Y394826I-1J500D1*
G1X426246Y401027D1*
G2X426747Y401527I500J-1D1*
G1X432947Y401527D1*
G2X433448Y401027I-1J-502D1*
G1X433448Y397013D1*
G1X454668Y375793D1*
G1X461033Y375793D1*
G1X461062Y375960D1*
G2X462048Y376792I986J-169D1*
G1X470847Y376792D1*
G2X471834Y375960I-1J-1002D1*
G1X471863Y375793D1*
G1X475871Y375793D1*
G1X475928Y375896D1*
G2X476803Y376412I875J-485D1*
G1X480603Y376412D1*
G2X481603Y375411I-2J-1002D1*
G1X481603Y372209D1*
G2X480603Y371208I-1001J-1D1*
G1X476803Y371208D1*
G2X475894Y371792I0J999D1*
G1X475840Y371909D1*
G1X474716Y371909D1*
G1X474634Y371991D1*
G1X471863Y371991D1*
G1X471834Y371824D1*
G2X471265Y371083I-989J169D1*
G1X471148Y371029D1*
G1X471148Y369525D1*
G1X474406Y366267D1*
G1X475757Y366267D1*
G1X475757Y368506D1*
G1X483945Y368506D1*
G1X483945Y364499D1*
G1X485392Y364499D1*
G1X485460Y364567D1*
G1X488244Y364567D1*
G1X488291Y364701D1*
G2X489234Y365366I943J-337D1*
G1X498033Y365366D1*
G2X499034Y364365I-1J-1002D1*
G1X499034Y362537D1*
G1X550982Y310589D1*
G1X551760Y310589D1*
G1X551807Y310723D1*
G2X552750Y311388I943J-337D1*
G1X561550Y311388D1*
G2X562551Y310387I-1J-1002D1*
G1X562551Y306589D1*
G2X562065Y305731I-1003J1D1*
G1X561968Y305672D1*
G1X561968Y305418D1*
G1X569011Y298375D1*
G1X569639Y298375D1*
G1X569639Y304519D1*
G1X569721Y304519D1*
G1X569721Y304738D1*
G1X569718Y304756D1*
G2X569702Y304934I910J171D1*
G1X569702Y308085D1*
G2X570703Y309086I1000J0D1*
G1X573326Y309086D1*
G1X573326Y311390D1*
G2X573025Y312105I696J713D1*
G1X573025Y315904D1*
G2X574026Y316905I1000J0D1*
G1X582826Y316905D1*
G2X583769Y316239I-2J-1003D1*
G1X583816Y316105D1*
G1X600440Y316105D1*
G1X600440Y316366D1*
G2X601440Y317367I1000J0D1*
G1X616897Y317367D1*
G1X616897Y406816D1*
G1X420052Y406816D1*
G1X420052Y344453D1*
G1X435548Y344453D1*
G2X436413Y343955I-2J-1003D1*
G3X437045Y343873I347J201D1*
G37*
G36*
G1X457190Y216925D2*
G1X487697Y216925D1*
G1X487697Y230119D1*
G1X457190Y230119D1*
G1X457190Y216925D1*
G37*
G36*
G1X448496Y273453D2*
G1X450760Y271189D1*
G2X451024Y270245I-712J-708D1*
G3X451510Y269759I390J-96D1*
G2X452454Y269494I235J-975D1*
G1X454718Y267231D1*
G2X454718Y265815I-710J-709D1*
G1X453425Y264523D1*
G1X453425Y257543D1*
G1X461449Y249519D1*
G1X463255Y249519D1*
G1X463337Y249601D1*
G1X471949Y249601D1*
G1X471949Y250169D1*
G1X481303Y250169D1*
G1X481345Y250191D1*
G2X481797Y250299I453J-899D1*
G1X482479Y250299D1*
G1X482479Y252792D1*
G1X482143Y252792D1*
G1X482056Y252795D1*
G1X482047Y252796D1*
G1X476853Y252796D1*
G1X476844Y252795D1*
G1X476758Y252792D1*
G1X473556Y252792D1*
G1X473469Y252795D1*
G1X473461Y252796D1*
G1X472453Y252796D1*
G1X472453Y274927D1*
G1X486346Y274927D1*
G1X486346Y265864D1*
G1X486355Y265843D1*
G1X497891Y265843D1*
G1X498534Y266486D1*
G1X498534Y267468D1*
G1X498614Y267548D1*
G1X498614Y275761D1*
G1X500803Y277950D1*
G1X500810Y278020D1*
G2X503562Y275269I2487J-264D1*
G1X503491Y275262D1*
G1X502416Y274186D1*
G1X502416Y265843D1*
G1X510248Y265843D1*
G1X510292Y265887D1*
G1X510292Y272979D1*
G2X514094Y272979I1901J1624D1*
G1X514094Y265843D1*
G1X521294Y265843D1*
G1X521294Y265829D1*
G1X523997Y265829D1*
G2X523997Y260527I-1J-2651D1*
G1X521294Y260527D1*
G1X521294Y250857D1*
G1X527267Y250857D1*
G2X527928Y251106I660J-753D1*
G1X536728Y251106D1*
G2X537230Y250971I-3J-1009D1*
G1X537277Y250944D1*
G1X555676Y250944D1*
G3X555994Y251592I-1J402D1*
G2X555785Y252204I786J610D1*
G1X555785Y255405D1*
G2X556451Y256348I1000J0D1*
G1X556584Y256395D1*
G1X556584Y268922D1*
G1X556795Y269133D1*
G1X556795Y270451D1*
G1X555503Y271744D1*
G2X555503Y273159I707J707D1*
G1X557766Y275423D1*
G2X558710Y275687I707J-710D1*
G3X559196Y276173I94J391D1*
G2X559461Y277117I971J236D1*
G1X561725Y279381D1*
G2X562862Y279577I707J-709D1*
G1X562990Y279516D1*
G1X567140Y283666D1*
G1X564360Y286446D1*
G1X563966Y286446D1*
G1X562990Y287422D1*
G1X562862Y287361D1*
G2X561725Y287557I-430J903D1*
G1X559461Y289821D1*
G2X559196Y290765I704J706D1*
G3X558710Y291251I-392J94D1*
G2X557766Y291515I-238J970D1*
G1X556895Y292386D1*
G1X555455Y292386D1*
G1X555455Y291711D1*
G1X521506Y291711D1*
G1X521506Y281633D1*
G1X508566Y281633D1*
G2X505052Y281371I-1889J1638D1*
G1X495191Y281371D1*
G1X495162Y281204D1*
G2X494176Y280371I-987J167D1*
G1X490974Y280371D1*
G2X489973Y281372I-1J1000D1*
G1X489973Y281633D1*
G1X465334Y281633D1*
G1X465334Y282747D1*
G1X456180Y282747D1*
G1X455987Y282554D1*
G1X452930Y282554D1*
G1X452060Y281684D1*
G2X451116Y281419I-708J706D1*
G3X450630Y280933I-96J-391D1*
G2X450366Y279989I-975J-237D1*
G1X448102Y277725D1*
G2X446964Y277529I-708J707D1*
G1X446836Y277590D1*
G1X445032Y275786D1*
G1X447230Y273588D1*
G1X447358Y273649D1*
G2X448496Y273453I429J-906D1*
G37*
G36*
G1X473454Y273926D2*
G1X473454Y253797D1*
G1X485345Y253797D1*
G1X485345Y273926D1*
G1X473454Y273926D1*
G37*
G36*
G1X460216Y319633D2*
G1X460216Y299098D1*
G1X470455Y299098D1*
G1X470455Y319633D1*
G1X460216Y319633D1*
G37*
G36*
G1X466554Y358497D2*
G1X466554Y340144D1*
G1X480783Y340144D1*
G1X480783Y358497D1*
G1X474934Y358497D1*
G1X474932Y358495D1*
G2X471360Y358497I-1786J901D1*
G1X466554Y358497D1*
G37*
G36*
G1X494867Y292769D2*
G1X507067Y292769D1*
G1X507067Y296645D1*
G1X494867Y296645D1*
G1X494867Y292769D1*
G37*
G36*
G1X513169Y241098D2*
G1X513169Y216565D1*
G1X523699Y216565D1*
G1X523699Y241098D1*
G1X513169Y241098D1*
G37*
G36*
G1X506347Y245368D2*
G2X506687Y244999I-553J-850D1*
G1X506744Y244893D1*
G1X508665Y244893D1*
G1X508665Y251876D1*
G1X506744Y251876D1*
G1X506687Y251770D1*
G2X506347Y251400I-888J474D1*
G1X506255Y251341D1*
G1X506255Y245427D1*
G1X506347Y245368D1*
G37*
G36*
G1X508690Y326131D2*
G1X508690Y307364D1*
G1X520422Y307364D1*
G1X520422Y326131D1*
G1X508690Y326131D1*
G37*
%LPC*%
G36*
G1X548629Y368585D2*
G1X565167Y368585D1*
G3X565315Y368596I3J958D1*
G1X565330Y368598D1*
G1X566373Y368598D1*
G1X566373Y383060D1*
G1X566406Y383060D1*
G1X566406Y384312D1*
G1X565961Y384312D1*
G1X565961Y402087D1*
G1X533495Y402087D1*
G1X533495Y384312D1*
G1X533377Y384312D1*
G1X533377Y383052D1*
G1X533363Y383052D1*
G1X533363Y368598D1*
G1X548464Y368598D1*
G1X548479Y368596D1*
G3X548629Y368585I143J932D1*
G37*
G74*
G54D48*
G1X489847Y397926D3*
G1X499847Y397926D3*
G1X509847Y397926D3*
G1X519847Y397926D3*
G54D50*
G1X439847Y397926D3*
G1X449847Y397926D3*
G1X459847Y397926D3*
G1X469847Y397926D3*
G1X479847Y397926D3*
%LPD*%
G36*
G1X534364Y369599D2*
G1X565372Y369599D1*
G1X565372Y382051D1*
G1X534364Y382051D1*
G1X534364Y369599D1*
G37*
G36*
G1X534496Y385316D2*
G1X564960Y385316D1*
G1X564960Y401086D1*
G1X534496Y401086D1*
G1X534496Y385316D1*
G37*
G1X460797Y288788D2*
G54D10*
G1X470810Y288788D1*
G1X474451Y292429D1*
G1X474451Y292728D1*
G1X429840Y219831D3*
G1X439682Y219831D3*
G1X439682Y229673D3*
G1X429840Y229673D3*
G1X429840Y239516D3*
G1X439682Y239516D3*
G1X439682Y249358D3*
G1X429840Y249358D3*
G1X439682Y259201D3*
G1X429840Y259201D3*
G1X439682Y269043D3*
G1X439682Y298571D3*
G1X429840Y298571D3*
G1X439682Y308413D3*
G1X439682Y318256D3*
G1X429840Y318256D3*
G1X429840Y308413D3*
G1X439682Y328098D3*
G1X429840Y367468D3*
G1X439682Y367468D3*
G1X439682Y377311D3*
G1X429840Y377311D3*
G1X429840Y387153D3*
G1X449525Y219831D3*
G1X449525Y229673D3*
G1X449525Y239516D3*
G1X454840Y234397D3*
G1X449525Y249358D3*
G1X455797Y277888D3*
G1X449525Y298571D3*
G1X449525Y318256D3*
G1X449525Y308413D3*
G1X456217Y306248D3*
G1X449525Y328098D3*
G1X459367Y328098D3*
G1X449525Y337941D3*
G1X449525Y347783D3*
G1X458186Y349358D3*
G1X457792Y342271D3*
G1X462910Y238334D3*
G1X464682Y259397D3*
G1X462697Y277888D3*
G1X469397Y277888D3*
G1X476497Y277888D3*
G1X469697Y271188D3*
G1X462697Y271188D3*
G1X473147Y359397D3*
G1X478658Y384004D3*
G1X480627Y238138D3*
G1X493422Y244231D3*
G1X494123Y249949D3*
G1X482397Y278088D3*
G1X489397Y271388D3*
G1X489297Y275088D3*
G1X493897Y275188D3*
G1X488797Y297888D3*
G1X490716Y295881D3*
G1X488797Y293888D3*
G1X492597Y293988D3*
G1X492697Y297988D3*
G1X479797Y362488D3*
G1X479797Y365088D3*
G1X504097Y246588D3*
G1X500497Y250188D3*
G1X500509Y246602D3*
G1X503997Y250288D3*
G1X502300Y248384D3*
G1X503658Y274161D3*
G1X518422Y367468D3*
G1X531808Y215894D3*
G1X532399Y223177D3*
G1X532399Y229673D3*
G1X528265Y259201D3*
G1X538107Y259201D3*
G1X538107Y269043D3*
G1X528265Y269043D3*
G1X528265Y278886D3*
G1X538107Y278886D3*
G1X521966Y268846D3*
G1X527871Y311366D3*
G1X538107Y328098D3*
G1X528265Y337941D3*
G1X529249Y320421D3*
G1X538107Y347783D3*
G1X528265Y357626D3*
G1X538107Y357626D3*
G1X528265Y367468D3*
G1X547950Y219831D3*
G1X557792Y219831D3*
G1X547950Y229673D3*
G1X557792Y229673D3*
G1X547950Y259201D3*
G1X547950Y269043D3*
G1X547950Y278886D3*
G1X547950Y288728D3*
G1X538895Y284791D3*
G1X557792Y328098D3*
G1X547950Y337941D3*
G1X557792Y337941D3*
G1X547950Y347783D3*
G1X557792Y347783D3*
G1X547950Y357626D3*
G1X567635Y219831D3*
G1X577477Y219831D3*
G1X567635Y229673D3*
G1X577477Y229673D3*
G1X567635Y239516D3*
G1X577477Y239516D3*
G1X567635Y249358D3*
G1X577477Y249358D3*
G1X567635Y259201D3*
G1X577477Y259201D3*
G1X577477Y269043D3*
G1X567635Y328098D3*
G1X577477Y328098D3*
G1X567635Y337941D3*
G1X577477Y337941D3*
G1X567635Y347783D3*
G1X567635Y357626D3*
G1X577477Y357626D3*
G1X577477Y367468D3*
G1X577477Y377311D3*
G1X577477Y387153D3*
G1X569406Y393846D3*
G1X597162Y219831D3*
G1X587320Y219831D3*
G1X597162Y229673D3*
G1X587320Y229673D3*
G1X587320Y239516D3*
G1X597162Y239516D3*
G1X587320Y249358D3*
G1X597162Y249358D3*
G1X587320Y259201D3*
G1X597162Y259201D3*
G1X587320Y269043D3*
G1X597162Y269043D3*
G1X597162Y318256D3*
G1X597162Y308413D3*
G1X597162Y328098D3*
G1X587320Y328098D3*
G1X597162Y337941D3*
G1X587320Y337941D3*
G1X597162Y357626D3*
G1X587320Y357626D3*
G1X597162Y367468D3*
G1X587320Y367468D3*
G1X597162Y377311D3*
G1X587320Y377311D3*
G1X587320Y387153D3*
G1X597162Y387153D3*
G1X607005Y219831D3*
G1X607005Y229673D3*
G1X607005Y239516D3*
G1X607005Y249358D3*
G1X607005Y259201D3*
G1X607005Y278886D3*
G1X607005Y269043D3*
G1X607005Y288728D3*
G1X607005Y337941D3*
G1X607005Y347783D3*
G1X607005Y357626D3*
G1X607005Y367468D3*
G1X607005Y377311D3*
G1X607005Y396996D3*
G1X607005Y387153D3*
G54D75*
G1X479841Y363382D3*
G54D71*
G1X427871Y264909D3*
G1X427871Y275736D3*
G1X427871Y286563D3*
G1X427871Y330263D3*
G1X427871Y351917D3*
G1X427871Y341090D3*
G1X609117Y303177D3*
G1X609117Y314004D3*
G1X609117Y324831D3*
G54D46*
G1X429847Y397926D3*
G54D80*
G1X556897Y375688D3*
G54D78*
G1X476297Y360429D3*
G1X476297Y362398D3*
G1X476297Y364366D3*
G1X476297Y366335D3*
G1X496031Y297850D3*
G1X496031Y295881D3*
G1X496031Y293913D3*
G1X485401Y293913D3*
G1X485401Y295881D3*
G1X485401Y297850D3*
G1X483384Y366335D3*
G1X483384Y364366D3*
G1X483384Y362398D3*
G1X483384Y360429D3*
G54D82*
G1X497182Y245431D3*
G1X497182Y247400D3*
G1X497182Y249368D3*
G1X497182Y251337D3*
G1X507418Y251337D3*
G1X507418Y249368D3*
G1X507418Y247400D3*
G1X507418Y245431D3*
G54D47*
G1X439847Y397926D3*
G1X449847Y397926D3*
G1X459847Y397926D3*
G1X469847Y397926D3*
G1X479847Y397926D3*
G1X489847Y397926D3*
G1X499847Y397926D3*
G1X509847Y397926D3*
G1X519847Y397926D3*
G54D79*
G1X575427Y296274D3*
G1X571687Y296274D3*
G1X571687Y306510D3*
G1X575427Y306510D3*
G1X598079Y277756D3*
G1X594339Y277756D3*
G1X590599Y277756D3*
G1X579167Y296274D3*
G1X590599Y287992D3*
G1X594339Y287992D3*
G1X598079Y287992D3*
G1X579167Y306510D3*
G54D83*
G1X589574Y347735D3*
G1X589574Y398719D3*
G54D11*
G1X460185Y221414D3*
G1X460797Y288788D3*
G1X466489Y221414D3*
G1X472793Y221414D3*
G1X479097Y221414D3*
G1X476339Y270270D3*
G1X465307Y315974D3*
G1X462943Y309276D3*
G1X475945Y343160D3*
G1X475945Y349070D3*
G1X475945Y355374D3*
G1X484613Y221414D3*
G1X481855Y270270D3*
G1X484974Y314105D3*
G1X490211Y336774D3*
G1X515739Y220232D3*
G1X515739Y234022D3*
G1X515739Y226930D3*
G1X503297Y277756D3*
G1X512193Y274604D3*
G1X506677Y283272D3*
G1X503131Y313201D3*
G1X511799Y310458D3*
G1X511799Y316762D3*
G1X511799Y323460D3*
G1X503213Y334492D3*
G1X523997Y263178D3*
G1X537803Y398320D3*
G1X549623Y398320D3*
G1X555533Y398320D3*
G1X544107Y388470D3*
G1X550017Y388470D3*
G1X555533Y388470D3*
G1X543713Y398320D3*
G1X546471Y393198D3*
G1X552381Y393198D3*
G1X590599Y272788D3*
G1X598079Y297457D3*
G1X584299Y297457D3*
G1X594339Y292922D3*
G54D55*
G1X490716Y295881D3*
G1X497182Y247400D2*
G54D84*
G1X491998Y247400D1*
G1X491997Y247399D1*
G1X488997Y247399D1*
G54D77*
G1X492684Y290567D3*
G1X490716Y290567D3*
G1X488747Y290567D3*
G1X488747Y301196D3*
G1X490716Y301196D3*
G1X492684Y301196D3*
G54D73*
G1X459397Y234018D3*
G1X459397Y228506D3*
G1X495746Y397926D2*
G54D14*
G1X499847Y397926D1*
G1X489847Y393825D2*
G1X489847Y397926D1*
G1X489847Y402027D1*
G1X485746Y397926D2*
G1X489847Y397926D1*
G1X493948Y397926D1*
G1X515746Y397926D2*
G1X519847Y397926D1*
G1X509847Y393825D2*
G1X509847Y397926D1*
G1X509847Y402027D1*
G1X505746Y397926D2*
G1X509847Y397926D1*
G1X513948Y397926D1*
G1X499847Y393825D2*
G1X499847Y397926D1*
G1X499847Y402027D1*
G1X499847Y397926D2*
G1X503948Y397926D1*
G1X519847Y393825D2*
G1X519847Y397926D1*
G1X519847Y402027D1*
G1X519847Y397926D2*
G1X523948Y397926D1*
G54D67*
G1X447577Y270270D3*
G1X451535Y266312D3*
G1X558685Y294698D3*
G1X562643Y290740D3*
G54D72*
G1X518497Y239545D3*
G1X518497Y248206D3*
G1X463649Y373892D2*
G54D15*
G1X453881Y373892D1*
G1X429847Y397926D1*
G1X468853Y292728D2*
G1X463832Y292728D1*
G1X481855Y295881D2*
G1X485401Y295881D1*
G1X485401Y297850D2*
G1X482249Y301002D1*
G1X474451Y301002D1*
G1X474451Y308882D2*
G1X479110Y308882D1*
G1X486796Y301196D1*
G1X488747Y301196D1*
G1X474721Y367862D2*
G1X476249Y366335D1*
G1X476297Y366335D1*
G1X476297Y360429D2*
G1X474178Y360429D1*
G1X473147Y359397D1*
G1X469247Y373892D2*
G1X469247Y368738D1*
G1X473619Y364366D1*
G1X476297Y364366D1*
G1X469247Y373892D2*
G1X475421Y373892D1*
G1X475503Y373810D1*
G1X478703Y373810D1*
G1X497182Y245431D2*
G1X494623Y245431D1*
G1X493422Y244231D1*
G1X497182Y249368D2*
G1X494987Y249368D1*
G1X494406Y249949D1*
G1X494123Y249949D1*
G1X499347Y253502D2*
G1X499347Y258545D1*
G1X497615Y260277D1*
G1X497615Y263178D1*
G1X497182Y251337D2*
G1X497124Y251337D1*
G1X496343Y252118D1*
G1X492616Y252118D1*
G1X489341Y255393D1*
G1X489341Y255692D1*
G1X489397Y268788D2*
G1X489423Y268762D1*
G1X489423Y263572D1*
G1X503297Y277756D2*
G1X500515Y274974D1*
G1X500515Y266761D1*
G1X500435Y266681D1*
G1X500435Y265699D1*
G1X497914Y263178D1*
G1X497615Y263178D1*
G1X486977Y283272D2*
G1X486977Y280607D1*
G1X492684Y290567D2*
G1X492684Y286581D1*
G1X492575Y286472D1*
G1X492575Y283272D1*
G1X506677Y283272D2*
G1X492575Y283272D1*
G1X496031Y297850D2*
G1X496031Y299741D1*
G1X496031Y297850D2*
G1X496031Y295881D1*
G1X490572Y306030D2*
G1X490716Y305886D1*
G1X490716Y301196D1*
G1X484974Y309230D2*
G1X484974Y314105D1*
G1X492684Y301196D2*
G1X492684Y304128D1*
G1X497533Y308977D1*
G1X497533Y309276D1*
G1X497533Y313874D1*
G1X497615Y313956D1*
G1X497615Y317156D1*
G1X497615Y325036D1*
G1X484613Y329764D2*
G1X484613Y332970D1*
G1X483384Y366335D2*
G1X485399Y366335D1*
G1X486061Y365894D2*
G1X486061Y365206D1*
G1X485154Y359397D2*
G1X484123Y360429D1*
G1X483384Y360429D1*
G1X486061Y365206D2*
G1X485221Y364366D1*
G1X483384Y364366D1*
G1X501316Y243266D2*
G1X501316Y240706D1*
G1X500066Y239456D1*
G1X500061Y239456D1*
G1X499347Y240170D1*
G1X499347Y243266D1*
G1X501316Y253502D2*
G1X501316Y257722D1*
G1X506772Y263178D1*
G1X507071Y263178D1*
G1X503284Y253502D2*
G1X503284Y256062D1*
G1X504884Y257662D1*
G1X516622Y263178D2*
G1X516921Y263178D1*
G1X507071Y263178D2*
G1X510271Y263178D1*
G1X512193Y265100D1*
G1X512193Y274604D1*
G1X518497Y289494D2*
G1X524503Y289494D1*
G1X503131Y309276D2*
G1X503131Y313201D1*
G1X503213Y317156D2*
G1X503213Y313283D1*
G1X503131Y313201D1*
G1X503213Y325036D2*
G1X503213Y334492D1*
G1X584299Y297457D2*
G1X580430Y301327D1*
G1X573996Y301327D1*
G1X571687Y303635D1*
G1X571687Y306510D1*
G1X590599Y277756D2*
G1X590599Y272788D1*
G1X579167Y306510D2*
G1X581452Y306510D1*
G1X590599Y297363D1*
G1X590599Y287992D1*
G1X590599Y285117D1*
G1X594224Y281492D1*
G1X597218Y281492D1*
G1X598079Y280631D1*
G1X598079Y277756D1*
G1X594339Y287992D2*
G1X594339Y292922D1*
G1X598079Y287992D2*
G1X598079Y297457D1*
G54D76*
G1X502300Y248384D3*
G54D58*
G1X447183Y280908D3*
G1X451141Y284866D3*
G1X558685Y272240D3*
G1X562643Y276198D3*
G1X474451Y292728D2*
G54D20*
G1X478702Y292728D1*
G1X481855Y295881D1*
G1X494463Y234416D2*
G1X494463Y225748D1*
G1X494463Y234416D2*
G1X489307Y234416D1*
G1X488995Y234104D1*
G1X485795Y234104D1*
G1X496031Y299741D2*
G1X499656Y303366D1*
G1X518497Y303366D1*
G1X490572Y309230D2*
G1X490572Y313336D1*
G1X490129Y313779D1*
G1X490129Y316680D1*
G1X490572Y309230D2*
G1X490572Y306030D1*
G1X490129Y322278D2*
G1X490129Y326482D1*
G1X490211Y326564D1*
G1X490211Y329764D1*
G1X490211Y336774D1*
G1X500061Y239456D2*
G1X500061Y234416D1*
G1X504884Y257662D2*
G1X511106Y257662D1*
G1X516622Y263178D1*
G1X518497Y248206D2*
G1X529529Y248206D1*
G1X507418Y247400D2*
G1X508224Y248206D1*
G1X518497Y248206D1*
G1X516921Y263178D2*
G1X523997Y263178D1*
G54D66*
G1X456245Y301002D3*
G1X460185Y362466D3*
G1X454587Y362466D3*
G1X475157Y255692D3*
G1X469559Y255692D3*
G1X475157Y263572D3*
G1X469559Y263572D3*
G1X468853Y292728D3*
G1X474451Y292728D3*
G1X468853Y284848D3*
G1X474451Y284848D3*
G1X461843Y301002D3*
G1X468853Y301002D3*
G1X474451Y301002D3*
G1X468853Y308882D3*
G1X474451Y308882D3*
G1X468459Y341978D3*
G1X462861Y341978D3*
G1X468459Y349464D3*
G1X462861Y349464D3*
G1X469247Y373892D3*
G1X463649Y373892D3*
G1X494463Y234416D3*
G1X483399Y247399D3*
G1X488997Y247399D3*
G1X489341Y255692D3*
G1X483743Y255692D3*
G1X483825Y263572D3*
G1X489423Y263572D3*
G1X486977Y283272D3*
G1X492575Y283272D3*
G1X484974Y309230D3*
G1X490572Y309230D3*
G1X497533Y309276D3*
G1X497615Y317156D3*
G1X484613Y329764D3*
G1X490211Y329764D3*
G1X497615Y325036D3*
G1X496433Y362466D3*
G1X490835Y362466D3*
G1X500061Y234416D3*
G1X505495Y294698D3*
G1X511093Y294698D3*
G1X518415Y316368D3*
G1X503131Y309276D3*
G1X503213Y317156D3*
G1X518415Y324248D3*
G1X503213Y325036D3*
G1X522043Y225354D3*
G1X527641Y225354D3*
G1X522043Y233234D3*
G1X527641Y233234D3*
G1X529529Y248206D3*
G1X535127Y248206D3*
G1X525983Y294698D3*
G1X531581Y294698D3*
G1X524013Y316368D3*
G1X524013Y324248D3*
G1X554351Y308488D3*
G1X573657Y283666D3*
G1X575627Y314004D3*
G1X559949Y308488D3*
G1X568929Y399108D3*
G1X563331Y399108D3*
G1X579255Y283666D3*
G1X581225Y314004D3*
G54D81*
G1X499347Y253502D3*
G1X501316Y253502D3*
G1X503284Y253502D3*
G1X505253Y253502D3*
G1X505253Y243266D3*
G1X503284Y243266D3*
G1X501316Y243266D3*
G1X499347Y243266D3*
G1X427871Y275736D2*
G54D45*
G1X442111Y275736D1*
G1X427871Y341090D2*
G1X437233Y341090D1*
G1X454587Y358444D1*
G1X454587Y362466D1*
G1X475157Y247500D2*
G1X464207Y247500D1*
G1X464125Y247418D1*
G1X460579Y247418D1*
G1X451324Y256673D1*
G1X451324Y266101D1*
G1X451535Y266312D1*
G1X442111Y275736D2*
G1X447577Y270270D1*
G1X447183Y280908D2*
G1X442111Y275836D1*
G1X442111Y275736D1*
G1X468853Y284848D2*
G1X455310Y284848D1*
G1X455117Y284655D1*
G1X451352Y284655D1*
G1X451141Y284866D1*
G1X483399Y247399D2*
G1X478658Y247399D1*
G1X478557Y247500D1*
G1X475157Y247500D1*
G1X474451Y284848D2*
G1X478427Y284848D1*
G1X485401Y291822D1*
G1X485401Y293913D1*
G1X468459Y362466D2*
G1X473351Y362466D1*
G1X473419Y362398D1*
G1X476297Y362398D1*
G1X468459Y362466D2*
G1X460185Y362466D1*
G1X490835Y362466D2*
G1X486330Y362466D1*
G1X486262Y362398D1*
G1X483384Y362398D1*
G1X554351Y308488D2*
G1X550112Y308488D1*
G1X496433Y362167D1*
G1X496433Y362466D1*
G1X511093Y294698D2*
G1X514703Y294698D1*
G1X515097Y295092D1*
G1X518497Y295092D1*
G1X522488Y295092D1*
G1X522882Y294698D1*
G1X525983Y294698D1*
G1X535127Y248206D2*
G1X542925Y248206D1*
G1X531581Y294698D2*
G1X535503Y294698D1*
G1X535585Y294780D1*
G1X538985Y294780D1*
G1X542925Y248206D2*
G1X550805Y248206D1*
G1X558685Y248206D1*
G1X538985Y294780D2*
G1X554416Y294780D1*
G1X554709Y294487D1*
G1X558474Y294487D1*
G1X558685Y294698D1*
G1X558685Y253804D2*
G1X558685Y268053D1*
G1X558896Y268264D1*
G1X558896Y272029D1*
G1X558685Y272240D1*
G1X562643Y276198D2*
G1X570111Y283666D1*
G1X559949Y308488D2*
G1X559867Y308406D1*
G1X559867Y304548D1*
G1X568141Y296274D1*
G1X571687Y296274D1*
G1X570111Y283666D2*
G1X573657Y283666D1*
G1X562643Y290740D2*
G1X564836Y288547D1*
G1X565230Y288547D1*
G1X570111Y283666D1*
G1X575427Y306510D2*
G1X575427Y310404D1*
G1X575627Y310604D1*
G1X575627Y314004D1*
G1X579255Y283666D2*
G1X579255Y293111D1*
G1X579167Y293199D1*
G1X579167Y296274D1*
G1X581225Y314004D2*
G1X609117Y314004D1*
G54D68*
G1X467277Y228506D3*
G1X467277Y234104D3*
G1X475945Y228506D3*
G1X475945Y234104D3*
G1X475157Y241902D3*
G1X475157Y247500D3*
G1X468459Y356868D3*
G1X468459Y362466D3*
G1X478703Y379408D3*
G1X478703Y373810D3*
G1X494463Y220150D3*
G1X494463Y225748D3*
G1X485795Y228506D3*
G1X485795Y234104D3*
G1X497615Y263178D3*
G1X497615Y268776D3*
G1X490129Y316680D3*
G1X490129Y322278D3*
G1X516921Y263178D3*
G1X516921Y268776D3*
G1X507071Y263178D3*
G1X507071Y268776D3*
G1X518497Y295092D3*
G1X518497Y289494D3*
G1X518497Y303366D3*
G1X518497Y308964D3*
G1X538985Y289182D3*
G1X538985Y294780D3*
G1X558685Y248206D3*
G1X558685Y253804D3*
G1X542925Y248206D3*
G1X542925Y253804D3*
G1X550805Y248206D3*
G1X550805Y253804D3*
G54D74*
G1X527949Y218656D3*
G1X522437Y218656D3*
G54D31*
G1X537015Y379408D3*
G1X537015Y387810D3*
G54D10*
G36*
G1X630010Y13D2*
G1X826855Y13D1*
G1X826855Y100621D1*
G1X811398Y100621D1*
G75*
G2X810398Y101621I0J1000D1*
G1X810398Y101882D1*
G1X793774Y101882D1*
G1X793727Y101748D1*
G2X792784Y101083I-942J334D1*
G1X787686Y101083D1*
G1X787686Y99713D1*
G1X787486Y99513D1*
G1X787486Y99065D1*
G1X790109Y99065D1*
G2X791009Y98503I-1J-1003D1*
G1X791064Y98390D1*
G1X792198Y98390D1*
G1X802458Y88129D1*
G1X802458Y85423D1*
G3X803059Y85074I401J-1D1*
G2X805535Y85074I1238J-2177D1*
G3X806136Y85423I199J348D1*
G1X806136Y85810D1*
G1X806092Y85865D1*
G2X809938Y85811I1945J1570D1*
G1X809938Y79950D1*
G1X809952Y79915D1*
G2X810022Y79547I-931J-368D1*
G1X810022Y76395D1*
G2X809962Y76054I-991J-2D1*
G1X809950Y76021D1*
G1X809950Y69685D1*
G1X809962Y69652D1*
G2X810022Y69310I-941J-342D1*
G1X810022Y66160D1*
G2X809021Y65159I-1001J-1D1*
G1X807053Y65159D1*
G2X806052Y66160I-1J1000D1*
G1X806052Y69310D1*
G1X806053Y69359D1*
G1X806053Y69570D1*
G1X803395Y69570D1*
G1X803386Y69579D1*
G1X802540Y69579D1*
G1X802540Y69367D1*
G1X802542Y69310D1*
G1X802542Y66158D1*
G2X802472Y65791I-992J-2D1*
G1X802458Y65756D1*
G1X802458Y64392D1*
G2X798656Y64392I-1901J-1626D1*
G1X798656Y65756D1*
G1X798642Y65791D1*
G2X798572Y66158I935J368D1*
G1X798572Y69310D1*
G2X798613Y69594I1022J-3D1*
G1X798621Y69622D1*
G1X798621Y76084D1*
G1X798613Y76112D1*
G2X798572Y76395I969J284D1*
G1X798572Y79547D1*
G2X798642Y79915I1012J-2D1*
G1X798656Y79950D1*
G1X798656Y86554D1*
G1X797444Y87767D1*
G3X796758Y87482I-284J-286D1*
G2X791771Y87172I-2501J-46D1*
G1X791763Y87243D1*
G1X791453Y87552D1*
G3X791110Y87410I-142J-143D1*
G1X791110Y86941D1*
G1X791120Y86910D1*
G2X791226Y86253I-1992J-659D1*
G1X791226Y84045D1*
G1X791314Y83957D1*
G1X791314Y76411D1*
G2X791814Y75544I-502J-868D1*
G1X791814Y71746D1*
G2X790813Y70745I-1001J-1D1*
G1X782014Y70745D1*
G2X781206Y71155I-2J997D1*
G3X780598Y71202I-325J-239D1*
G1X775919Y66524D1*
G1X775980Y66396D1*
G2X775784Y65258I-904J-431D1*
G1X773520Y62995D1*
G2X772576Y62730I-707J703D1*
G3X772090Y62244I-95J-392D1*
G2X771826Y61300I-971J-238D1*
G1X770955Y60429D1*
G1X770955Y57374D1*
G1X770744Y57163D1*
G1X770744Y46374D1*
G1X770878Y46327D1*
G2X771543Y45384I-338J-944D1*
G1X771543Y42181D1*
G2X771335Y41571I-997J-1D1*
G3X771653Y40923I317J-247D1*
G1X771905Y40923D1*
G1X771905Y35558D1*
G1X747372Y35558D1*
G2X746686Y35285I-685J722D1*
G1X737886Y35285D1*
G2X737225Y35534I-3J996D1*
G1X731252Y35534D1*
G1X731252Y32100D1*
G1X733770Y32100D1*
G2X733962Y32081I-13J-1104D1*
G1X733981Y32078D1*
G1X734658Y32078D1*
G1X734658Y31563D1*
G1X734677Y31523D1*
G2X734771Y31099I-908J-424D1*
G1X734771Y27948D1*
G2X734677Y27525I-994J-2D1*
G1X734658Y27485D1*
G1X734658Y5543D1*
G1X722126Y5543D1*
G1X722126Y21258D1*
G1X713173Y21258D1*
G1X713173Y21187D1*
G1X707491Y21187D1*
G1X707491Y21046D1*
G1X707072Y21046D1*
G1X707072Y17989D1*
G2X707321Y17328I-754J-662D1*
G1X707321Y14126D1*
G2X706320Y13125I-1001J-1D1*
G1X704931Y13125D1*
G1X704912Y13122D1*
G2X703930Y13122I-491J2582D1*
G1X703911Y13125D1*
G1X702522Y13125D1*
G2X701521Y14126I-1J1000D1*
G1X701521Y17328D1*
G2X701770Y17989I1005J-2D1*
G1X701770Y21046D1*
G1X698656Y21046D1*
G1X698656Y5903D1*
G1X666147Y5903D1*
G1X666147Y21099D1*
G1X692437Y21099D1*
G1X692437Y34148D1*
G1X681907Y34148D1*
G1X681907Y35378D1*
G1X675035Y35378D1*
G1X674953Y35296D1*
G1X669667Y35296D1*
G1X659181Y45782D1*
G1X659181Y54501D1*
G1X658311Y55372D1*
G2X658046Y56316I706J707D1*
G3X657560Y56802I-392J94D1*
G2X656616Y57066I-238J969D1*
G1X654352Y59330D1*
G2X654156Y60467I708J707D1*
G1X654217Y60596D1*
G1X651199Y63614D1*
G1X646507Y63614D1*
G1X646507Y63353D1*
G2X645506Y62352I-1001J-1D1*
G1X630010Y62352D1*
G1X630010Y13D1*
G37*
G36*
G1X669173Y88076D2*
G1X669173Y110613D1*
G1X675292Y110613D1*
G1X675292Y121292D1*
G1X697518Y121292D1*
G1X697518Y126753D1*
G2X702820Y126753I2651J-1D1*
G1X702820Y121292D1*
G1X711270Y121292D1*
G1X711270Y122846D1*
G2X715072Y122846I1901J1624D1*
G1X715072Y121292D1*
G1X731464Y121292D1*
G1X731464Y88114D1*
G1X765413Y88114D1*
G1X765413Y86692D1*
G1X765538Y86567D1*
G1X766854Y86567D1*
G1X768147Y87860D1*
G2X769562Y87860I707J-710D1*
G1X771826Y85596D1*
G2X772090Y84652I-709J-707D1*
G3X772576Y84166I390J-96D1*
G2X773520Y83901I235J-976D1*
G1X775784Y81637D1*
G2X776061Y80748I-708J-708D1*
G1X776041Y80644D1*
G1X780598Y76088D1*
G3X781206Y76135I283J282D1*
G2X782014Y76545I809J-595D1*
G1X787112Y76545D1*
G1X787112Y82223D1*
G1X787024Y82311D1*
G1X787024Y86253D1*
G2X787130Y86910I2118J-5D1*
G1X787140Y86941D1*
G1X787140Y87828D1*
G2X787152Y87983I1065J-5D1*
G1X787154Y87998D1*
G1X787154Y88215D1*
G1X783616Y88215D1*
G1X783616Y87998D1*
G1X783618Y87983D1*
G2X783631Y87828I-969J-160D1*
G1X783631Y86941D1*
G1X783640Y86910D1*
G2X783640Y85596I-1993J-658D1*
G1X783631Y85565D1*
G1X783631Y84678D1*
G2X782630Y83677I-1001J-1D1*
G1X780661Y83677D1*
G2X779809Y84152I-2J998D1*
G1X777229Y84152D1*
G1X767724Y93657D1*
G1X767724Y95567D1*
G1X762708Y95567D1*
G2X761765Y96232I-2J999D1*
G1X761718Y96366D1*
G1X759200Y96366D1*
G1X706021Y149545D1*
G1X699192Y149545D1*
G2X698249Y150210I-2J999D1*
G1X698202Y150344D1*
G1X697158Y150344D1*
G1X697090Y150276D1*
G1X693903Y150276D1*
G1X693903Y148180D1*
G1X691742Y148180D1*
G1X691742Y129122D1*
G1X680374Y129122D1*
G1X680342Y129111D1*
G2X680017Y129057I-320J917D1*
G1X676816Y129057D1*
G2X676491Y129111I-6J974D1*
G1X676459Y129122D1*
G1X675511Y129122D1*
G1X675511Y149477D1*
G3X675792Y150156I-11J401D1*
G2X675651Y150344I712J681D1*
G1X672734Y150344D1*
G1X672687Y150210D1*
G2X671744Y149545I-942J334D1*
G1X666646Y149545D1*
G1X666646Y147553D1*
G1X648061Y128968D1*
G1X646507Y128968D1*
G1X646507Y128707D1*
G2X645506Y127706I-1001J-1D1*
G1X630010Y127706D1*
G1X630010Y69078D1*
G1X645506Y69078D1*
G2X646507Y68077I-1J-1002D1*
G1X646507Y67816D1*
G1X651099Y67816D1*
G1X653823Y70540D1*
G1X653762Y70669D1*
G2X653958Y71806I905J429D1*
G1X656222Y74070D1*
G2X657166Y74334I708J-712D1*
G3X657652Y74820I95J390D1*
G2X657916Y75764I974J236D1*
G1X660180Y78028D1*
G2X661596Y78028I707J-710D1*
G1X662888Y76735D1*
G1X664205Y76735D1*
G1X664398Y76928D1*
G1X668233Y76928D1*
G3X668582Y77529I0J401D1*
G2X671429Y81175I2173J1237D1*
G1X671456Y81168D1*
G1X675292Y81168D1*
G1X675292Y88076D1*
G1X669173Y88076D1*
G37*
G36*
G1X647003Y133852D2*
G1X662444Y149293D1*
G1X662444Y149679D1*
G2X661944Y150546I500J866D1*
G1X661944Y154344D1*
G2X662945Y155345I1001J-1D1*
G1X671744Y155345D1*
G2X672687Y154680I-1J-1002D1*
G1X672734Y154546D1*
G1X675651Y154546D1*
G2X676517Y155047I868J-503D1*
G1X679217Y155047D1*
G3X679501Y155732I0J401D1*
G1X677304Y157930D1*
G1X677304Y160971D1*
G1X672006Y160971D1*
G2X671020Y161803I-1J999D1*
G1X670991Y161970D1*
G1X663051Y161970D1*
G1X640718Y184304D1*
G1X636705Y184304D1*
G2X636204Y184805I-1J500D1*
G1X636204Y191006D1*
G2X636705Y191506I501J-2D1*
G1X642905Y191506D1*
G2X643406Y191006I-1J-502D1*
G1X643406Y186992D1*
G1X664626Y165772D1*
G1X670991Y165772D1*
G1X671020Y165939D1*
G2X672006Y166771I987J-170D1*
G1X680805Y166771D1*
G2X681792Y165939I-1J-1002D1*
G1X681821Y165772D1*
G1X685829Y165772D1*
G1X685886Y165875D1*
G2X686761Y166391I877J-488D1*
G1X690561Y166391D1*
G2X691561Y165390I-2J-1002D1*
G1X691561Y162187D1*
G2X690561Y161187I-1000J-1D1*
G1X686761Y161187D1*
G2X685852Y161771I0J999D1*
G1X685798Y161888D1*
G1X684674Y161888D1*
G1X684592Y161970D1*
G1X681821Y161970D1*
G1X681792Y161803D1*
G2X681223Y161062I-985J167D1*
G1X681106Y161008D1*
G1X681106Y159504D1*
G1X684364Y156246D1*
G1X685715Y156246D1*
G1X685715Y158485D1*
G1X693903Y158485D1*
G1X693903Y154478D1*
G1X695350Y154478D1*
G1X695418Y154546D1*
G1X698202Y154546D1*
G1X698249Y154680D1*
G2X699192Y155345I944J-339D1*
G1X707991Y155345D1*
G2X708992Y154344I-1J-1002D1*
G1X708992Y152516D1*
G1X760940Y100568D1*
G1X761718Y100568D1*
G1X761765Y100702D1*
G2X762709Y101367I944J-339D1*
G1X771508Y101367D1*
G2X772509Y100366I-1J-1002D1*
G1X772509Y96568D1*
G2X772023Y95710I-999J-1D1*
G1X771926Y95651D1*
G1X771926Y95397D1*
G1X778969Y88354D1*
G1X779597Y88354D1*
G1X779597Y94498D1*
G1X779679Y94498D1*
G1X779679Y94717D1*
G1X779676Y94735D1*
G2X779660Y94913I1006J180D1*
G1X779660Y98064D1*
G2X780661Y99065I1001J-1D1*
G1X783284Y99065D1*
G1X783284Y101369D1*
G2X782983Y102084I699J715D1*
G1X782983Y105883D1*
G2X783984Y106884I1002J-2D1*
G1X792784Y106884D1*
G2X793727Y106218I-2J-1003D1*
G1X793774Y106084D1*
G1X810398Y106084D1*
G1X810398Y106345D1*
G2X811398Y107346I1001J-1D1*
G1X826855Y107346D1*
G1X826855Y196795D1*
G1X630010Y196795D1*
G1X630010Y134432D1*
G1X645506Y134432D1*
G2X646371Y133934I-2J-1004D1*
G3X647003Y133852I347J201D1*
G37*
G36*
G1X667148Y6904D2*
G1X697655Y6904D1*
G1X697655Y20098D1*
G1X667148Y20098D1*
G1X667148Y6904D1*
G37*
G36*
G1X658454Y63432D2*
G1X660718Y61168D1*
G2X660982Y60224I-709J-708D1*
G3X661468Y59738I390J-96D1*
G2X662412Y59473I235J-976D1*
G1X664676Y57210D1*
G2X664676Y55794I-708J-708D1*
G1X663383Y54502D1*
G1X663383Y47522D1*
G1X671407Y39498D1*
G1X673213Y39498D1*
G1X673295Y39580D1*
G1X681907Y39580D1*
G1X681907Y40148D1*
G1X691261Y40148D1*
G1X691303Y40170D1*
G2X691755Y40278I456J-911D1*
G1X692437Y40278D1*
G1X692437Y42771D1*
G1X692101Y42771D1*
G1X692014Y42774D1*
G1X692005Y42775D1*
G1X686811Y42775D1*
G1X686802Y42774D1*
G1X686716Y42771D1*
G1X683514Y42771D1*
G1X683427Y42774D1*
G1X683419Y42775D1*
G1X682411Y42775D1*
G1X682411Y64906D1*
G1X696304Y64906D1*
G1X696304Y55843D1*
G1X696313Y55822D1*
G1X707849Y55822D1*
G1X708492Y56465D1*
G1X708492Y57447D1*
G1X708572Y57527D1*
G1X708572Y65740D1*
G1X710761Y67929D1*
G1X710768Y67999D1*
G2X713520Y65248I2487J-264D1*
G1X713449Y65241D1*
G1X712374Y64165D1*
G1X712374Y55822D1*
G1X720206Y55822D1*
G1X720250Y55866D1*
G1X720250Y62958D1*
G2X724052Y62958I1901J1624D1*
G1X724052Y55822D1*
G1X731252Y55822D1*
G1X731252Y55808D1*
G1X733955Y55808D1*
G2X733955Y50506I0J-2651D1*
G1X731252Y50506D1*
G1X731252Y40836D1*
G1X737225Y40836D1*
G2X737886Y41085I663J-759D1*
G1X746686Y41085D1*
G2X747188Y40950I-4J-1013D1*
G1X747235Y40923D1*
G1X765634Y40923D1*
G3X765952Y41571I0J401D1*
G2X765743Y42183I792J612D1*
G1X765743Y45384D1*
G2X766409Y46327I1002J-2D1*
G1X766542Y46374D1*
G1X766542Y58901D1*
G1X766753Y59112D1*
G1X766753Y60430D1*
G1X765461Y61723D1*
G2X765461Y63138I708J707D1*
G1X767724Y65402D1*
G2X768668Y65666I707J-712D1*
G3X769154Y66152I95J390D1*
G2X769419Y67096I974J235D1*
G1X771683Y69360D1*
G2X772820Y69556I707J-711D1*
G1X772948Y69495D1*
G1X777098Y73645D1*
G1X774318Y76425D1*
G1X773924Y76425D1*
G1X772948Y77401D1*
G1X772820Y77340D1*
G2X771683Y77536I-430J902D1*
G1X769419Y79800D1*
G2X769154Y80744I706J707D1*
G3X768668Y81230I-392J94D1*
G2X767724Y81494I-238J969D1*
G1X766853Y82365D1*
G1X765413Y82365D1*
G1X765413Y81690D1*
G1X731464Y81690D1*
G1X731464Y71612D1*
G1X718524Y71612D1*
G2X715010Y71350I-1889J1637D1*
G1X705149Y71350D1*
G1X705120Y71183D1*
G2X704134Y70350I-986J166D1*
G1X700932Y70350D1*
G2X699931Y71351I-1J1000D1*
G1X699931Y71612D1*
G1X675292Y71612D1*
G1X675292Y72726D1*
G1X666138Y72726D1*
G1X665945Y72533D1*
G1X662888Y72533D1*
G1X662018Y71663D1*
G2X661074Y71398I-707J703D1*
G3X660588Y70912I-95J-392D1*
G2X660324Y69968I-971J-238D1*
G1X658060Y67704D1*
G2X656922Y67508I-708J705D1*
G1X656794Y67569D1*
G1X654990Y65765D1*
G1X657188Y63567D1*
G1X657316Y63628D1*
G2X658454Y63432I429J-907D1*
G37*
G36*
G1X683412Y63905D2*
G1X683412Y43776D1*
G1X695303Y43776D1*
G1X695303Y63905D1*
G1X683412Y63905D1*
G37*
G36*
G1X670174Y109612D2*
G1X670174Y89077D1*
G1X680413Y89077D1*
G1X680413Y109612D1*
G1X670174Y109612D1*
G37*
G36*
G1X676512Y148476D2*
G1X676512Y130123D1*
G1X690741Y130123D1*
G1X690741Y148476D1*
G1X684892Y148476D1*
G1X684890Y148474D1*
G2X681318Y148476I-1786J901D1*
G1X676512Y148476D1*
G37*
G36*
G1X704825Y82748D2*
G1X717025Y82748D1*
G1X717025Y86624D1*
G1X704825Y86624D1*
G1X704825Y82748D1*
G37*
G36*
G1X723127Y31077D2*
G1X723127Y6544D1*
G1X733657Y6544D1*
G1X733657Y31077D1*
G1X723127Y31077D1*
G37*
G36*
G1X716305Y35347D2*
G2X716645Y34978I-549J-847D1*
G1X716702Y34872D1*
G1X718623Y34872D1*
G1X718623Y41855D1*
G1X716702Y41855D1*
G1X716645Y41749D1*
G2X716305Y41379I-877J463D1*
G1X716213Y41320D1*
G1X716213Y35406D1*
G1X716305Y35347D1*
G37*
G36*
G1X718648Y116110D2*
G1X718648Y97343D1*
G1X730380Y97343D1*
G1X730380Y116110D1*
G1X718648Y116110D1*
G37*
%LPC*%
G36*
G1X758587Y158564D2*
G1X775125Y158564D1*
G3X775273Y158575I10J866D1*
G1X775288Y158577D1*
G1X776331Y158577D1*
G1X776331Y173039D1*
G1X776364Y173039D1*
G1X776364Y174291D1*
G1X775919Y174291D1*
G1X775919Y192066D1*
G1X743453Y192066D1*
G1X743453Y174291D1*
G1X743335Y174291D1*
G1X743335Y173031D1*
G1X743321Y173031D1*
G1X743321Y158577D1*
G1X758422Y158577D1*
G1X758437Y158575D1*
G3X758587Y158564I138J861D1*
G37*
G74*
G54D48*
G1X699805Y187905D3*
G1X709805Y187905D3*
G1X719805Y187905D3*
G1X729805Y187905D3*
G54D50*
G1X649805Y187905D3*
G1X659805Y187905D3*
G1X669805Y187905D3*
G1X679805Y187905D3*
G1X689805Y187905D3*
%LPD*%
G36*
G1X744322Y159578D2*
G1X775330Y159578D1*
G1X775330Y172030D1*
G1X744322Y172030D1*
G1X744322Y159578D1*
G37*
G36*
G1X744454Y175295D2*
G1X774918Y175295D1*
G1X774918Y191065D1*
G1X744454Y191065D1*
G1X744454Y175295D1*
G37*
G1X670755Y78767D2*
G54D10*
G1X680768Y78767D1*
G1X684409Y82408D1*
G1X684409Y82707D1*
G1X639798Y9810D3*
G1X649640Y9810D3*
G1X649640Y19652D3*
G1X639798Y19652D3*
G1X639798Y29495D3*
G1X649640Y29495D3*
G1X649640Y39337D3*
G1X639798Y39337D3*
G1X649640Y49180D3*
G1X639798Y49180D3*
G1X649640Y59022D3*
G1X649640Y88550D3*
G1X639798Y88550D3*
G1X649640Y98392D3*
G1X649640Y108235D3*
G1X639798Y108235D3*
G1X639798Y98392D3*
G1X649640Y118077D3*
G1X639798Y157447D3*
G1X649640Y157447D3*
G1X649640Y167290D3*
G1X639798Y167290D3*
G1X639798Y177132D3*
G1X659483Y9810D3*
G1X659483Y19652D3*
G1X659483Y29495D3*
G1X664798Y24376D3*
G1X659483Y39337D3*
G1X665755Y67867D3*
G1X659483Y88550D3*
G1X659483Y108235D3*
G1X659483Y98392D3*
G1X666175Y96227D3*
G1X659483Y118077D3*
G1X669325Y118077D3*
G1X659483Y127920D3*
G1X659483Y137762D3*
G1X668144Y139337D3*
G1X667750Y132250D3*
G1X672868Y28313D3*
G1X674640Y49376D3*
G1X672655Y67867D3*
G1X679355Y67867D3*
G1X686455Y67867D3*
G1X679655Y61167D3*
G1X672655Y61167D3*
G1X683105Y149376D3*
G1X688616Y173983D3*
G1X690585Y28117D3*
G1X703380Y34210D3*
G1X704081Y39928D3*
G1X692355Y68067D3*
G1X699355Y61367D3*
G1X699255Y65067D3*
G1X703855Y65167D3*
G1X698755Y87867D3*
G1X700674Y85860D3*
G1X698755Y83867D3*
G1X702555Y83967D3*
G1X702655Y87967D3*
G1X689755Y152467D3*
G1X689755Y155067D3*
G1X714055Y36567D3*
G1X710455Y40167D3*
G1X710467Y36581D3*
G1X713955Y40267D3*
G1X712258Y38363D3*
G1X713616Y64140D3*
G1X728380Y157447D3*
G1X741766Y5873D3*
G1X742357Y13156D3*
G1X742357Y19652D3*
G1X738223Y49180D3*
G1X748065Y49180D3*
G1X748065Y59022D3*
G1X738223Y59022D3*
G1X738223Y68865D3*
G1X748065Y68865D3*
G1X731924Y58825D3*
G1X737829Y101345D3*
G1X748065Y118077D3*
G1X738223Y127920D3*
G1X739207Y110400D3*
G1X748065Y137762D3*
G1X738223Y147605D3*
G1X748065Y147605D3*
G1X738223Y157447D3*
G1X757908Y9810D3*
G1X767750Y9810D3*
G1X757908Y19652D3*
G1X767750Y19652D3*
G1X757908Y49180D3*
G1X757908Y59022D3*
G1X757908Y68865D3*
G1X757908Y78707D3*
G1X748853Y74770D3*
G1X767750Y118077D3*
G1X757908Y127920D3*
G1X767750Y127920D3*
G1X757908Y137762D3*
G1X767750Y137762D3*
G1X757908Y147605D3*
G1X777593Y9810D3*
G1X787435Y9810D3*
G1X777593Y19652D3*
G1X787435Y19652D3*
G1X777593Y29495D3*
G1X787435Y29495D3*
G1X777593Y39337D3*
G1X787435Y39337D3*
G1X777593Y49180D3*
G1X787435Y49180D3*
G1X787435Y59022D3*
G1X777593Y118077D3*
G1X787435Y118077D3*
G1X777593Y127920D3*
G1X787435Y127920D3*
G1X777593Y137762D3*
G1X777593Y147605D3*
G1X787435Y147605D3*
G1X787435Y157447D3*
G1X787435Y167290D3*
G1X787435Y177132D3*
G1X779364Y183825D3*
G1X807120Y9810D3*
G1X797278Y9810D3*
G1X807120Y19652D3*
G1X797278Y19652D3*
G1X797278Y29495D3*
G1X807120Y29495D3*
G1X797278Y39337D3*
G1X807120Y39337D3*
G1X797278Y49180D3*
G1X807120Y49180D3*
G1X797278Y59022D3*
G1X807120Y59022D3*
G1X807120Y108235D3*
G1X807120Y98392D3*
G1X807120Y118077D3*
G1X797278Y118077D3*
G1X807120Y127920D3*
G1X797278Y127920D3*
G1X807120Y147605D3*
G1X797278Y147605D3*
G1X807120Y157447D3*
G1X797278Y157447D3*
G1X807120Y167290D3*
G1X797278Y167290D3*
G1X797278Y177132D3*
G1X807120Y177132D3*
G1X816963Y9810D3*
G1X816963Y19652D3*
G1X816963Y29495D3*
G1X816963Y39337D3*
G1X816963Y49180D3*
G1X816963Y68865D3*
G1X816963Y59022D3*
G1X816963Y78707D3*
G1X816963Y127920D3*
G1X816963Y137762D3*
G1X816963Y147605D3*
G1X816963Y157447D3*
G1X816963Y167290D3*
G1X816963Y186975D3*
G1X816963Y177132D3*
G54D75*
G1X689799Y153361D3*
G54D71*
G1X637829Y54888D3*
G1X637829Y65715D3*
G1X637829Y76542D3*
G1X637829Y120242D3*
G1X637829Y141896D3*
G1X637829Y131069D3*
G1X819075Y93156D3*
G1X819075Y103983D3*
G1X819075Y114810D3*
G54D46*
G1X639805Y187905D3*
G54D80*
G1X766855Y165667D3*
G54D78*
G1X686255Y150408D3*
G1X686255Y152377D3*
G1X686255Y154345D3*
G1X686255Y156314D3*
G1X705989Y87829D3*
G1X705989Y85860D3*
G1X705989Y83892D3*
G1X695359Y83892D3*
G1X695359Y85860D3*
G1X695359Y87829D3*
G1X693342Y156314D3*
G1X693342Y154345D3*
G1X693342Y152377D3*
G1X693342Y150408D3*
G54D82*
G1X707140Y35410D3*
G1X707140Y37379D3*
G1X707140Y39347D3*
G1X707140Y41316D3*
G1X717376Y41316D3*
G1X717376Y39347D3*
G1X717376Y37379D3*
G1X717376Y35410D3*
G54D47*
G1X649805Y187905D3*
G1X659805Y187905D3*
G1X669805Y187905D3*
G1X679805Y187905D3*
G1X689805Y187905D3*
G1X699805Y187905D3*
G1X709805Y187905D3*
G1X719805Y187905D3*
G1X729805Y187905D3*
G54D79*
G1X785385Y86253D3*
G1X781645Y86253D3*
G1X781645Y96489D3*
G1X785385Y96489D3*
G1X808037Y67735D3*
G1X804297Y67735D3*
G1X800557Y67735D3*
G1X789125Y86253D3*
G1X800557Y77971D3*
G1X804297Y77971D3*
G1X808037Y77971D3*
G1X789125Y96489D3*
G54D83*
G1X799532Y137714D3*
G1X799532Y188698D3*
G54D11*
G1X670143Y11393D3*
G1X670755Y78767D3*
G1X676447Y11393D3*
G1X682751Y11393D3*
G1X689055Y11393D3*
G1X686297Y60249D3*
G1X675265Y105953D3*
G1X672901Y99255D3*
G1X685903Y133139D3*
G1X685903Y139049D3*
G1X685903Y145353D3*
G1X694571Y11393D3*
G1X691813Y60249D3*
G1X694932Y104084D3*
G1X700169Y126753D3*
G1X725697Y10211D3*
G1X725697Y24001D3*
G1X725697Y16909D3*
G1X713255Y67735D3*
G1X722151Y64583D3*
G1X716635Y73251D3*
G1X713089Y103180D3*
G1X721757Y100437D3*
G1X721757Y106741D3*
G1X721757Y113439D3*
G1X713171Y124471D3*
G1X733955Y53157D3*
G1X747761Y188299D3*
G1X759581Y188299D3*
G1X765491Y188299D3*
G1X754065Y178449D3*
G1X759975Y178449D3*
G1X765491Y178449D3*
G1X753671Y188299D3*
G1X756429Y183177D3*
G1X762339Y183177D3*
G1X800557Y62767D3*
G1X808037Y87436D3*
G1X794257Y87436D3*
G1X804297Y82901D3*
G54D55*
G1X700674Y85860D3*
G1X707140Y37379D2*
G54D84*
G1X701956Y37379D1*
G1X701955Y37378D1*
G1X698955Y37378D1*
G54D77*
G1X702642Y80546D3*
G1X700674Y80546D3*
G1X698705Y80546D3*
G1X698705Y91175D3*
G1X700674Y91175D3*
G1X702642Y91175D3*
G54D73*
G1X669355Y23997D3*
G1X669355Y18485D3*
G1X705704Y187905D2*
G54D14*
G1X709805Y187905D1*
G1X699805Y183804D2*
G1X699805Y187905D1*
G1X699805Y192006D1*
G1X695704Y187905D2*
G1X699805Y187905D1*
G1X703906Y187905D1*
G1X725704Y187905D2*
G1X729805Y187905D1*
G1X719805Y183804D2*
G1X719805Y187905D1*
G1X719805Y192006D1*
G1X715704Y187905D2*
G1X719805Y187905D1*
G1X723906Y187905D1*
G1X709805Y183804D2*
G1X709805Y187905D1*
G1X709805Y192006D1*
G1X709805Y187905D2*
G1X713906Y187905D1*
G1X729805Y183804D2*
G1X729805Y187905D1*
G1X729805Y192006D1*
G1X729805Y187905D2*
G1X733906Y187905D1*
G54D67*
G1X657535Y60249D3*
G1X661493Y56291D3*
G1X768643Y84677D3*
G1X772601Y80719D3*
G54D72*
G1X728455Y29524D3*
G1X728455Y38185D3*
G1X673607Y163871D2*
G54D15*
G1X663839Y163871D1*
G1X639805Y187905D1*
G1X678811Y82707D2*
G1X673790Y82707D1*
G1X691813Y85860D2*
G1X695359Y85860D1*
G1X695359Y87829D2*
G1X692207Y90981D1*
G1X684409Y90981D1*
G1X684409Y98861D2*
G1X689068Y98861D1*
G1X696754Y91175D1*
G1X698705Y91175D1*
G1X684679Y157841D2*
G1X686207Y156314D1*
G1X686255Y156314D1*
G1X686255Y150408D2*
G1X684136Y150408D1*
G1X683105Y149376D1*
G1X679205Y163871D2*
G1X679205Y158717D1*
G1X683577Y154345D1*
G1X686255Y154345D1*
G1X679205Y163871D2*
G1X685379Y163871D1*
G1X685461Y163789D1*
G1X688661Y163789D1*
G1X707140Y35410D2*
G1X704581Y35410D1*
G1X703380Y34210D1*
G1X707140Y39347D2*
G1X704945Y39347D1*
G1X704364Y39928D1*
G1X704081Y39928D1*
G1X709305Y43481D2*
G1X709305Y48524D1*
G1X707573Y50256D1*
G1X707573Y53157D1*
G1X707140Y41316D2*
G1X707082Y41316D1*
G1X706301Y42097D1*
G1X702574Y42097D1*
G1X699299Y45372D1*
G1X699299Y45671D1*
G1X699355Y58767D2*
G1X699381Y58741D1*
G1X699381Y53551D1*
G1X713255Y67735D2*
G1X710473Y64953D1*
G1X710473Y56740D1*
G1X710393Y56660D1*
G1X710393Y55678D1*
G1X707872Y53157D1*
G1X707573Y53157D1*
G1X696935Y73251D2*
G1X696935Y70586D1*
G1X702642Y80546D2*
G1X702642Y76560D1*
G1X702533Y76451D1*
G1X702533Y73251D1*
G1X716635Y73251D2*
G1X702533Y73251D1*
G1X705989Y87829D2*
G1X705989Y89720D1*
G1X705989Y87829D2*
G1X705989Y85860D1*
G1X700530Y96009D2*
G1X700674Y95865D1*
G1X700674Y91175D1*
G1X694932Y99209D2*
G1X694932Y104084D1*
G1X702642Y91175D2*
G1X702642Y94107D1*
G1X707491Y98956D1*
G1X707491Y99255D1*
G1X707491Y103853D1*
G1X707573Y103935D1*
G1X707573Y107135D1*
G1X707573Y115015D1*
G1X694571Y119743D2*
G1X694571Y122949D1*
G1X693342Y156314D2*
G1X695357Y156314D1*
G1X696019Y155873D2*
G1X696019Y155185D1*
G1X695112Y149376D2*
G1X694081Y150408D1*
G1X693342Y150408D1*
G1X696019Y155185D2*
G1X695179Y154345D1*
G1X693342Y154345D1*
G1X711274Y33245D2*
G1X711274Y30685D1*
G1X710024Y29435D1*
G1X710019Y29435D1*
G1X709305Y30149D1*
G1X709305Y33245D1*
G1X711274Y43481D2*
G1X711274Y47701D1*
G1X716730Y53157D1*
G1X717029Y53157D1*
G1X713242Y43481D2*
G1X713242Y46041D1*
G1X714842Y47641D1*
G1X726580Y53157D2*
G1X726879Y53157D1*
G1X717029Y53157D2*
G1X720229Y53157D1*
G1X722151Y55079D1*
G1X722151Y64583D1*
G1X728455Y79473D2*
G1X734461Y79473D1*
G1X713089Y99255D2*
G1X713089Y103180D1*
G1X713171Y107135D2*
G1X713171Y103262D1*
G1X713089Y103180D1*
G1X713171Y115015D2*
G1X713171Y124471D1*
G1X794257Y87436D2*
G1X790388Y91306D1*
G1X783954Y91306D1*
G1X781645Y93614D1*
G1X781645Y96489D1*
G1X800557Y67735D2*
G1X800557Y62767D1*
G1X789125Y96489D2*
G1X791410Y96489D1*
G1X800557Y87342D1*
G1X800557Y77971D1*
G1X800557Y75096D1*
G1X804182Y71471D1*
G1X807176Y71471D1*
G1X808037Y70610D1*
G1X808037Y67735D1*
G1X804297Y77971D2*
G1X804297Y82901D1*
G1X808037Y77971D2*
G1X808037Y87436D1*
G54D76*
G1X712258Y38363D3*
G54D58*
G1X657141Y70887D3*
G1X661099Y74845D3*
G1X768643Y62219D3*
G1X772601Y66177D3*
G1X684409Y82707D2*
G54D20*
G1X688660Y82707D1*
G1X691813Y85860D1*
G1X704421Y24395D2*
G1X704421Y15727D1*
G1X704421Y24395D2*
G1X699265Y24395D1*
G1X698953Y24083D1*
G1X695753Y24083D1*
G1X705989Y89720D2*
G1X709614Y93345D1*
G1X728455Y93345D1*
G1X700530Y99209D2*
G1X700530Y103315D1*
G1X700087Y103758D1*
G1X700087Y106659D1*
G1X700530Y99209D2*
G1X700530Y96009D1*
G1X700087Y112257D2*
G1X700087Y116461D1*
G1X700169Y116543D1*
G1X700169Y119743D1*
G1X700169Y126753D1*
G1X710019Y29435D2*
G1X710019Y24395D1*
G1X714842Y47641D2*
G1X721064Y47641D1*
G1X726580Y53157D1*
G1X728455Y38185D2*
G1X739487Y38185D1*
G1X717376Y37379D2*
G1X718182Y38185D1*
G1X728455Y38185D1*
G1X726879Y53157D2*
G1X733955Y53157D1*
G54D66*
G1X666203Y90981D3*
G1X670143Y152445D3*
G1X664545Y152445D3*
G1X685115Y45671D3*
G1X679517Y45671D3*
G1X685115Y53551D3*
G1X679517Y53551D3*
G1X678811Y82707D3*
G1X684409Y82707D3*
G1X678811Y74827D3*
G1X684409Y74827D3*
G1X671801Y90981D3*
G1X678811Y90981D3*
G1X684409Y90981D3*
G1X678811Y98861D3*
G1X684409Y98861D3*
G1X678417Y131957D3*
G1X672819Y131957D3*
G1X678417Y139443D3*
G1X672819Y139443D3*
G1X679205Y163871D3*
G1X673607Y163871D3*
G1X704421Y24395D3*
G1X693357Y37378D3*
G1X698955Y37378D3*
G1X699299Y45671D3*
G1X693701Y45671D3*
G1X693783Y53551D3*
G1X699381Y53551D3*
G1X696935Y73251D3*
G1X702533Y73251D3*
G1X694932Y99209D3*
G1X700530Y99209D3*
G1X707491Y99255D3*
G1X707573Y107135D3*
G1X694571Y119743D3*
G1X700169Y119743D3*
G1X707573Y115015D3*
G1X706391Y152445D3*
G1X700793Y152445D3*
G1X710019Y24395D3*
G1X715453Y84677D3*
G1X721051Y84677D3*
G1X728373Y106347D3*
G1X713089Y99255D3*
G1X713171Y107135D3*
G1X728373Y114227D3*
G1X713171Y115015D3*
G1X732001Y15333D3*
G1X737599Y15333D3*
G1X732001Y23213D3*
G1X737599Y23213D3*
G1X739487Y38185D3*
G1X745085Y38185D3*
G1X735941Y84677D3*
G1X741539Y84677D3*
G1X733971Y106347D3*
G1X733971Y114227D3*
G1X764309Y98467D3*
G1X783615Y73645D3*
G1X785585Y103983D3*
G1X769907Y98467D3*
G1X778887Y189087D3*
G1X773289Y189087D3*
G1X789213Y73645D3*
G1X791183Y103983D3*
G54D81*
G1X709305Y43481D3*
G1X711274Y43481D3*
G1X713242Y43481D3*
G1X715211Y43481D3*
G1X715211Y33245D3*
G1X713242Y33245D3*
G1X711274Y33245D3*
G1X709305Y33245D3*
G1X637829Y65715D2*
G54D45*
G1X652069Y65715D1*
G1X637829Y131069D2*
G1X647191Y131069D1*
G1X664545Y148423D1*
G1X664545Y152445D1*
G1X685115Y37479D2*
G1X674165Y37479D1*
G1X674083Y37397D1*
G1X670537Y37397D1*
G1X661282Y46652D1*
G1X661282Y56080D1*
G1X661493Y56291D1*
G1X652069Y65715D2*
G1X657535Y60249D1*
G1X657141Y70887D2*
G1X652069Y65815D1*
G1X652069Y65715D1*
G1X678811Y74827D2*
G1X665268Y74827D1*
G1X665075Y74634D1*
G1X661310Y74634D1*
G1X661099Y74845D1*
G1X693357Y37378D2*
G1X688616Y37378D1*
G1X688515Y37479D1*
G1X685115Y37479D1*
G1X684409Y74827D2*
G1X688385Y74827D1*
G1X695359Y81801D1*
G1X695359Y83892D1*
G1X678417Y152445D2*
G1X683309Y152445D1*
G1X683377Y152377D1*
G1X686255Y152377D1*
G1X678417Y152445D2*
G1X670143Y152445D1*
G1X700793Y152445D2*
G1X696288Y152445D1*
G1X696220Y152377D1*
G1X693342Y152377D1*
G1X764309Y98467D2*
G1X760070Y98467D1*
G1X706391Y152146D1*
G1X706391Y152445D1*
G1X721051Y84677D2*
G1X724661Y84677D1*
G1X725055Y85071D1*
G1X728455Y85071D1*
G1X732446Y85071D1*
G1X732840Y84677D1*
G1X735941Y84677D1*
G1X745085Y38185D2*
G1X752883Y38185D1*
G1X741539Y84677D2*
G1X745461Y84677D1*
G1X745543Y84759D1*
G1X748943Y84759D1*
G1X752883Y38185D2*
G1X760763Y38185D1*
G1X768643Y38185D1*
G1X748943Y84759D2*
G1X764374Y84759D1*
G1X764667Y84466D1*
G1X768432Y84466D1*
G1X768643Y84677D1*
G1X768643Y43783D2*
G1X768643Y58032D1*
G1X768854Y58243D1*
G1X768854Y62008D1*
G1X768643Y62219D1*
G1X772601Y66177D2*
G1X780069Y73645D1*
G1X769907Y98467D2*
G1X769825Y98385D1*
G1X769825Y94527D1*
G1X778099Y86253D1*
G1X781645Y86253D1*
G1X780069Y73645D2*
G1X783615Y73645D1*
G1X772601Y80719D2*
G1X774794Y78526D1*
G1X775188Y78526D1*
G1X780069Y73645D1*
G1X785385Y96489D2*
G1X785385Y100383D1*
G1X785585Y100583D1*
G1X785585Y103983D1*
G1X789213Y73645D2*
G1X789213Y83090D1*
G1X789125Y83178D1*
G1X789125Y86253D1*
G1X791183Y103983D2*
G1X819075Y103983D1*
G54D68*
G1X677235Y18485D3*
G1X677235Y24083D3*
G1X685903Y18485D3*
G1X685903Y24083D3*
G1X685115Y31881D3*
G1X685115Y37479D3*
G1X678417Y146847D3*
G1X678417Y152445D3*
G1X688661Y169387D3*
G1X688661Y163789D3*
G1X704421Y10129D3*
G1X704421Y15727D3*
G1X695753Y18485D3*
G1X695753Y24083D3*
G1X707573Y53157D3*
G1X707573Y58755D3*
G1X700087Y106659D3*
G1X700087Y112257D3*
G1X726879Y53157D3*
G1X726879Y58755D3*
G1X717029Y53157D3*
G1X717029Y58755D3*
G1X728455Y85071D3*
G1X728455Y79473D3*
G1X728455Y93345D3*
G1X728455Y98943D3*
G1X748943Y79161D3*
G1X748943Y84759D3*
G1X768643Y38185D3*
G1X768643Y43783D3*
G1X752883Y38185D3*
G1X752883Y43783D3*
G1X760763Y38185D3*
G1X760763Y43783D3*
G54D74*
G1X737907Y8635D3*
G1X732395Y8635D3*
G54D31*
G1X746973Y169387D3*
G1X746973Y177789D3*
G54D10*
G36*
G1X629979Y210001D2*
G1X826829Y210001D1*
G1X826829Y272386D1*
G1X811278Y272386D1*
G75*
G2X810277Y273387I0J1001D1*
G1X810277Y273648D1*
G1X796043Y273648D1*
G1X795996Y273515D1*
G2X795053Y272848I-944J333D1*
G1X786253Y272848D1*
G2X785309Y273515I-1J1001D1*
G1X785262Y273648D1*
G1X783883Y273648D1*
G1X783794Y273736D1*
G1X783533Y273736D1*
G2X782666Y273236I-867J500D1*
G1X778866Y273236D1*
G2X778057Y273648I0J1001D1*
G1X776358Y273648D1*
G1X776311Y273515D1*
G2X775368Y272848I-944J333D1*
G1X766568Y272848D1*
G2X765624Y273515I-1J1001D1*
G1X765577Y273648D1*
G1X764198Y273648D1*
G1X764109Y273736D1*
G1X763848Y273736D1*
G2X762981Y273236I-867J500D1*
G1X759181Y273236D1*
G2X758372Y273648I0J1001D1*
G1X756673Y273648D1*
G1X756626Y273515D1*
G2X755683Y272848I-944J333D1*
G1X746883Y272848D1*
G2X745882Y273849I0J1001D1*
G1X745882Y277649D1*
G2X746382Y278516I1002J-1D1*
G1X746382Y281737D1*
G1X746470Y281825D1*
G1X746470Y283084D1*
G1X741371Y283084D1*
G2X740427Y283751I-1J1000D1*
G1X740380Y283884D1*
G1X732658Y283884D1*
G1X732610Y283751D1*
G2X731667Y283084I-944J333D1*
G1X722866Y283084D1*
G3X722466Y282684I0J-401D1*
G1X722466Y277608D1*
G1X722872Y277202D1*
G1X729278Y277202D1*
G1X729305Y277209D1*
G2X729305Y272393I674J-2408D1*
G1X729278Y272400D1*
G1X722466Y272400D1*
G1X722466Y262647D1*
G1X722911Y262202D1*
G1X729278Y262202D1*
G1X729305Y262209D1*
G2X729305Y257393I674J-2408D1*
G1X729278Y257400D1*
G1X722466Y257400D1*
G1X722466Y243879D1*
G1X701253Y243879D1*
G1X701180Y243807D1*
G1X701180Y236702D1*
G1X701187Y236675D1*
G2X696371Y236675I-2408J-674D1*
G1X696378Y236702D1*
G1X696378Y243879D1*
G1X694030Y243879D1*
G1X693680Y243529D1*
G1X693680Y236702D1*
G1X693687Y236675D1*
G2X688871Y236675I-2408J-674D1*
G1X688878Y236702D1*
G1X688878Y239684D1*
G1X685559Y239684D1*
G2X684919Y239916I1J1001D1*
G1X684778Y240032D1*
G1X684496Y239750D1*
G2X681750Y238612I-2746J2743D1*
G1X667941Y238612D1*
G1X667886Y238501D1*
G2X666988Y237941I-899J440D1*
G1X663051Y237941D1*
G2X662050Y238942I0J1001D1*
G1X662050Y242485D1*
G2X663051Y243486I1001J-1D1*
G1X666897Y243486D1*
G1X666897Y244915D1*
G1X648007Y263806D1*
G1X646531Y263806D1*
G1X646531Y263544D1*
G2X645530Y262544I-1001J0D1*
G1X629979Y262544D1*
G1X629979Y210001D1*
G37*
G36*
G1X649747Y268007D2*
G1X668644Y249110D1*
G1X670302Y249110D1*
G1X670349Y249243D1*
G2X671292Y249910I943J-335D1*
G1X674459Y249910D1*
G1X674459Y262908D1*
G1X674066Y263300D1*
G1X667680Y263300D1*
G1X667653Y263293D1*
G2X667653Y268109I-674J2408D1*
G1X667680Y268102D1*
G1X674459Y268102D1*
G1X674459Y270388D1*
G1X674047Y270800D1*
G1X667680Y270800D1*
G1X667653Y270793D1*
G2X667653Y275609I-674J2408D1*
G1X667680Y275602D1*
G1X674459Y275602D1*
G1X674459Y278200D1*
G1X667680Y278200D1*
G1X667653Y278193D1*
G2X667653Y283009I-674J2408D1*
G1X667680Y283002D1*
G1X673988Y283002D1*
G1X674459Y283472D1*
G1X674459Y293034D1*
G1X682071Y293034D1*
G1X683771Y294734D1*
G1X683771Y296247D1*
G2X684772Y297247I1001J-2D1*
G1X687978Y297247D1*
G1X687978Y304000D1*
G1X687971Y304027D1*
G2X692787Y304027I2408J673D1*
G1X692780Y304000D1*
G1X692780Y293514D1*
G1X693260Y293034D1*
G1X708392Y293034D1*
G1X708392Y295366D1*
G2X708892Y296232I1002J-2D1*
G1X708892Y297801D1*
G1X708193Y298501D1*
G1X708193Y301898D1*
G1X708060Y301945D1*
G2X707527Y302388I334J944D1*
G1X707172Y302388D1*
G1X707084Y302300D1*
G1X705580Y302300D1*
G2X704714Y301800I-867J500D1*
G1X700914Y301800D1*
G2X699913Y302801I0J1001D1*
G1X699913Y306001D1*
G2X700914Y307001I1001J-2D1*
G1X704704Y307001D1*
G1X704704Y312696D1*
G1X708386Y312696D1*
G1X708386Y312690D1*
G1X710224Y312690D1*
G1X711883Y314349D1*
G3X711895Y314903I-282J283D1*
G2X711630Y315581I737J679D1*
G1X711630Y319381D1*
G2X712631Y320382I1001J-1D1*
G1X721431Y320382D1*
G2X722374Y319715I-1J-1001D1*
G1X722422Y319582D1*
G1X724150Y319582D1*
G1X724198Y319715D1*
G2X725141Y320382I943J-335D1*
G1X730240Y320382D1*
G1X730240Y320881D1*
G2X733529Y328820I11229J-2D1*
G1X745882Y341173D1*
G1X745882Y343003D1*
G2X746883Y344004I1001J-1D1*
G1X755683Y344004D1*
G2X756626Y343337I-1J-1001D1*
G1X756673Y343204D1*
G1X758372Y343204D1*
G2X759181Y343616I809J-590D1*
G1X762981Y343616D1*
G2X763848Y343116I0J-1001D1*
G1X764110Y343116D1*
G1X764198Y343204D1*
G1X765577Y343204D1*
G1X765624Y343337D1*
G2X766568Y344004I944J-335D1*
G1X775368Y344004D1*
G2X776311Y343337I-1J-1001D1*
G1X776358Y343204D1*
G1X778057Y343204D1*
G2X778866Y343616I809J-590D1*
G1X782666Y343616D1*
G2X783533Y343116I0J-1001D1*
G1X783795Y343116D1*
G1X783883Y343204D1*
G1X785262Y343204D1*
G1X785309Y343337D1*
G2X786253Y344004I944J-335D1*
G1X795053Y344004D1*
G2X795996Y343337I-1J-1001D1*
G1X796043Y343204D1*
G1X810277Y343204D1*
G1X810277Y343466D1*
G2X811278Y344466I1001J-2D1*
G1X826829Y344466D1*
G1X826829Y406851D1*
G1X629979Y406851D1*
G1X629979Y269270D1*
G1X645530Y269270D1*
G2X646531Y268269I0J-1001D1*
G1X646531Y268007D1*
G1X649747Y268007D1*
G37*
G36*
G1X719731Y297785D2*
G1X722466Y297785D1*
G1X722466Y296561D1*
G3X722685Y296362I200J0D1*
G2X722775Y296366I91J-1048D1*
G1X731579Y296366D1*
G2X732445Y295866I-1J-1001D1*
G1X740504Y295866D1*
G2X740570Y295966I934J-546D1*
G1X740570Y298445D1*
G2X740370Y299046I804J601D1*
G1X740370Y302846D1*
G2X741371Y303847I1001J-1D1*
G1X762806Y303847D1*
G1X762806Y290565D1*
G1X751178Y290565D1*
G1X751178Y287942D1*
G1X751172Y287942D1*
G1X751172Y284085D1*
G2X750672Y283219I-1001J0D1*
G1X750672Y280085D1*
G1X750583Y279997D1*
G1X750583Y278650D1*
G1X755683Y278650D1*
G2X756597Y278057I0J-1001D1*
G1X756649Y277938D1*
G1X758314Y277938D1*
G2X759181Y278438I866J-502D1*
G1X762981Y278438D1*
G2X763848Y277938I0J-1001D1*
G1X765601Y277938D1*
G1X765653Y278057D1*
G2X766568Y278650I914J-410D1*
G1X775368Y278650D1*
G2X776282Y278057I0J-1001D1*
G1X776335Y277938D1*
G1X777999Y277938D1*
G2X778866Y278438I866J-502D1*
G1X782666Y278438D1*
G2X783533Y277938I0J-1001D1*
G1X785286Y277938D1*
G1X785338Y278057D1*
G2X786253Y278650I914J-410D1*
G1X795053Y278650D1*
G2X795996Y277983I-1J-1001D1*
G1X796043Y277850D1*
G1X810277Y277850D1*
G1X810277Y278111D1*
G2X811278Y279112I1001J-1D1*
G1X826829Y279112D1*
G1X826829Y337740D1*
G1X811278Y337740D1*
G2X810277Y338741I0J1001D1*
G1X810277Y339003D1*
G1X809819Y339003D1*
G1X809780Y339002D1*
G1X796043Y339002D1*
G1X795996Y338869D1*
G2X795053Y338202I-944J333D1*
G1X786253Y338202D1*
G2X785338Y338796I-1J1001D1*
G1X785286Y338914D1*
G1X783533Y338914D1*
G2X782666Y338414I-867J500D1*
G1X778866Y338414D1*
G2X778000Y338914I0J1001D1*
G1X776335Y338914D1*
G1X776282Y338796D1*
G2X775368Y338202I-915J406D1*
G1X766568Y338202D1*
G2X765653Y338796I-1J1001D1*
G1X765601Y338914D1*
G1X763848Y338914D1*
G2X762981Y338414I-867J500D1*
G1X759181Y338414D1*
G2X758315Y338914I0J1001D1*
G1X756649Y338914D1*
G1X756597Y338796D1*
G2X755683Y338202I-915J406D1*
G1X748853Y338202D1*
G1X736499Y325849D1*
G3X734442Y320881I4971J-4969D1*
G1X734442Y320247D1*
G2X734942Y319381I-501J-867D1*
G1X734942Y315581D1*
G2X733941Y314580I-1001J-1D1*
G1X725141Y314580D1*
G2X724198Y315247I0J1001D1*
G1X724150Y315380D1*
G1X723355Y315380D1*
G1X723355Y307090D1*
G1X727155Y307090D1*
G2X728155Y306089I-1J-1001D1*
G1X728155Y302889D1*
G2X727155Y301888I-1001J-1D1*
G1X723355Y301888D1*
G2X722546Y302300I0J1001D1*
G1X720541Y302300D1*
G2X720008Y301857I-866J499D1*
G1X719875Y301810D1*
G1X719875Y298895D1*
G1X719449Y298468D1*
G3X719731Y297785I282J-284D1*
G37*
G36*
G1X746970Y291566D2*
G1X761805Y291566D1*
G1X761805Y302847D1*
G1X746970Y302847D1*
G1X746970Y291566D1*
G37*
%LPC*%
G36*
G1X653601Y230851D2*
G1X657538Y230851D1*
G3X658539Y231851I0J1000D1*
G1X658539Y235395D1*
G3X657538Y236395I-1001J-1D1*
G1X653601Y236395D1*
G3X652600Y235395I-1J-1001D1*
G1X652600Y231851D1*
G3X653601Y230851I1001J1D1*
G37*
G36*
G1X650379Y249410D2*
G1X653169Y246620D1*
G1X653169Y243394D1*
G1X653074Y243336D1*
G3X652600Y242485I527J-852D1*
G1X652600Y238942D1*
G3X653601Y237941I1001J0D1*
G1X657538Y237941D1*
G3X658539Y238942I0J1000D1*
G1X658539Y242485D1*
G3X658065Y243336I-1001J0D1*
G1X657970Y243394D1*
G1X657970Y244239D1*
G3X658476Y245109I-495J869D1*
G1X658476Y248909D1*
G3X657475Y249910I-1001J0D1*
G1X656670Y249910D1*
G1X653774Y252805D1*
G1X653760Y252829D1*
G3X650379Y249410I-2180J-1227D1*
G37*
G36*
G1X811725Y390352D2*
G1X817525Y390352D1*
G3X818525Y391353I-1J1000D1*
G1X818525Y397153D1*
G3X817525Y398154I-1001J0D1*
G1X811725Y398154D1*
G3X810724Y397153I0J-1002D1*
G1X810724Y391353D1*
G3X811725Y390352I1001J0D1*
G37*
G36*
G1X771725Y380352D2*
G1X777525Y380352D1*
G3X778525Y381353I-1J1000D1*
G1X778525Y387153D1*
G3X777525Y388154I-1001J0D1*
G1X771725Y388154D1*
G3X770724Y387153I0J-1002D1*
G1X770724Y381353D1*
G3X771725Y380352I1001J0D1*
G37*
G36*
G1X680978Y363491D2*
G1X680978Y362512D1*
G1X680969Y362512D1*
G1X680969Y361110D1*
G1X680978Y361110D1*
G1X680978Y343100D1*
G1X711480Y343100D1*
G1X711480Y361110D1*
G1X711491Y361110D1*
G1X711491Y362512D1*
G1X711480Y362512D1*
G1X711480Y377002D1*
G1X680978Y377002D1*
G1X680978Y376196D1*
G1X680973Y376173D1*
G3X680947Y375946I999J-230D1*
G1X680947Y363741D1*
G3X680973Y363514I1025J2D1*
G1X680978Y363491D1*
G37*
G74*
G54D18*
G1X724625Y394253D3*
G1X744625Y394253D3*
G1X734625Y394253D3*
G1X754625Y394253D3*
G1X764625Y394253D3*
G54D17*
G1X724625Y384253D3*
G1X744625Y384253D3*
G1X734625Y384253D3*
G1X754625Y384253D3*
G1X764625Y384253D3*
G1X774625Y394253D3*
G1X784625Y384253D3*
G1X784625Y394253D3*
G1X804625Y384253D3*
G1X794625Y384253D3*
G1X804625Y394253D3*
G1X794625Y394253D3*
G1X814625Y384253D3*
%LPD*%
G36*
G1X681979Y344101D2*
G1X710479Y344101D1*
G1X710479Y360101D1*
G1X681979Y360101D1*
G1X681979Y344101D1*
G37*
G36*
G1X681979Y363501D2*
G1X710479Y363501D1*
G1X710479Y376001D1*
G1X681979Y376001D1*
G1X681979Y363501D1*
G37*
G1X655570Y240713D2*
G54D10*
G1X655570Y246703D1*
G1X655875Y247009D1*
G1X655875Y247309D1*
G1X651581Y251603D1*
G1X661475Y247009D2*
G1X661475Y236971D1*
G1X664823Y233623D1*
G1X665020Y233623D1*
G1X666979Y265701D2*
G1X675061Y265701D1*
G1X678492Y262270D1*
G1X666979Y273201D2*
G1X675041Y273201D1*
G1X678492Y269750D1*
G1X678492Y269450D1*
G1X678492Y284410D2*
G1X678492Y284110D1*
G1X674983Y280601D1*
G1X666979Y280601D1*
G1X678492Y261970D2*
G1X678492Y262270D1*
G1X691279Y236001D2*
G1X691279Y244524D1*
G1X694640Y247884D1*
G1X698779Y236001D2*
G1X698779Y244801D1*
G1X701862Y247884D1*
G1X702120Y247884D1*
G1X694940Y247884D2*
G1X694640Y247884D1*
G1X690379Y304701D2*
G1X690379Y292520D1*
G1X693852Y289047D1*
G1X694152Y289047D1*
G1X702420Y247884D2*
G1X702120Y247884D1*
G1X718473Y256064D2*
G1X718473Y250001D1*
G1X729979Y259801D2*
G1X721917Y259801D1*
G1X718473Y263244D1*
G1X718473Y263544D1*
G1X729979Y274801D2*
G1X721877Y274801D1*
G1X718473Y278205D1*
G1X718473Y278505D1*
G1X724379Y293466D2*
G1X724467Y293377D1*
G1X724467Y285985D1*
G1X742971Y293466D2*
G1X729979Y293466D1*
G1X742971Y300946D2*
G1X742971Y293466D1*
G1X639822Y239529D3*
G1X639428Y249765D3*
G1X635097Y249765D3*
G1X634310Y282836D3*
G1X639034Y282836D3*
G1X639822Y298584D3*
G1X639822Y318269D3*
G1X639822Y337954D3*
G1X639822Y357639D3*
G1X639822Y377324D3*
G1X639822Y397009D3*
G1X649664Y229686D3*
G1X649664Y269056D3*
G1X649664Y288741D3*
G1X649664Y308426D3*
G1X649664Y328111D3*
G1X649664Y367481D3*
G1X649664Y387166D3*
G1X659507Y219844D3*
G1X669349Y229686D3*
G1X659900Y259214D3*
G1X668168Y258426D3*
G1X669349Y269056D3*
G1X659507Y278899D3*
G1X669349Y288741D3*
G1X669349Y308426D3*
G1X659507Y298584D3*
G1X669349Y328111D3*
G1X659507Y318269D3*
G1X669349Y367481D3*
G1X669349Y387166D3*
G1X659507Y377324D3*
G1X679192Y219844D3*
G1X685491Y262363D3*
G1X679192Y298584D3*
G1X679192Y318269D3*
G1X679192Y337954D3*
G1X679192Y397009D3*
G1X698877Y219844D3*
G1X689034Y229686D3*
G1X692558Y252940D3*
G1X698483Y267481D3*
G1X694940Y267481D3*
G1X694940Y263938D3*
G1X698483Y263938D3*
G1X697700Y253702D3*
G1X694940Y253702D3*
G1X694940Y270631D3*
G1X698483Y270631D3*
G1X689034Y308426D3*
G1X698089Y310001D3*
G1X694152Y299371D3*
G1X689034Y328111D3*
G1X698877Y318269D3*
G1X698877Y337954D3*
G1X689034Y387166D3*
G1X698877Y397009D3*
G1X708719Y229686D3*
G1X706357Y253308D3*
G1X711771Y264035D3*
G1X708325Y256341D3*
G1X702026Y263938D3*
G1X702026Y267481D3*
G1X711869Y261182D3*
G1X710688Y258426D3*
G1X702026Y270631D3*
G1X705244Y280473D3*
G1X701633Y299371D3*
G1X708719Y328111D3*
G1X708719Y387166D3*
G1X718562Y219844D3*
G1X728404Y229686D3*
G1X728404Y249371D3*
G1X724073Y251340D3*
G1X728798Y281261D3*
G1X729979Y310395D3*
G1X728404Y328111D3*
G1X718562Y337954D3*
G1X728404Y347796D3*
G1X718562Y357639D3*
G1X728404Y367481D3*
G1X738247Y219844D3*
G1X738247Y239529D3*
G1X738247Y357639D3*
G1X757932Y219844D3*
G1X748089Y229686D3*
G1X748089Y249371D3*
G1X757932Y239529D3*
G1X757932Y259214D3*
G1X748089Y269056D3*
G1X748089Y328111D3*
G1X748089Y347796D3*
G1X757932Y357639D3*
G1X748089Y367481D3*
G1X767774Y229686D3*
G1X767774Y249371D3*
G1X761081Y265513D3*
G1X767774Y269056D3*
G1X767774Y288741D3*
G1X767774Y308426D3*
G1X767774Y347796D3*
G1X761475Y351340D3*
G1X767774Y367481D3*
G1X777617Y219844D3*
G1X787459Y229686D3*
G1X787459Y249371D3*
G1X777617Y239529D3*
G1X777617Y259214D3*
G1X780766Y265513D3*
G1X787459Y269056D3*
G1X787459Y288741D3*
G1X787459Y308426D3*
G1X777617Y298584D3*
G1X787459Y328111D3*
G1X787853Y348584D3*
G1X777617Y357639D3*
G1X780766Y351340D3*
G1X788247Y367481D3*
G1X797302Y219844D3*
G1X797302Y239529D3*
G1X797302Y259214D3*
G1X797302Y298584D3*
G1X797302Y318269D3*
G1X797302Y357639D3*
G1X816987Y219844D3*
G1X807144Y229686D3*
G1X807144Y249371D3*
G1X816987Y239529D3*
G1X817381Y259214D3*
G1X807144Y269056D3*
G1X807144Y288741D3*
G1X815806Y291891D3*
G1X807144Y308426D3*
G1X816987Y298584D3*
G1X807144Y328111D3*
G1X816987Y318269D3*
G1X816199Y324568D3*
G1X807932Y347796D3*
G1X817774Y357639D3*
G1X807932Y367481D3*
G1X822892Y259214D3*
G1X822499Y291891D3*
G1X822892Y324568D3*
G1X822499Y357639D3*
G54D42*
G1X699660Y257245D3*
G1X697700Y257245D3*
G1X695730Y257245D3*
G1X693760Y257245D3*
G1X691790Y257245D3*
G1X691790Y276735D3*
G1X693760Y276735D3*
G1X695730Y276735D3*
G1X697700Y276735D3*
G1X699660Y276735D3*
G1X705570Y257245D3*
G1X703600Y257245D3*
G1X701630Y257245D3*
G1X701630Y276735D3*
G1X703600Y276735D3*
G1X705570Y276735D3*
G54D40*
G1X637853Y255080D3*
G1X637853Y265907D3*
G1X637853Y276733D3*
G1X818955Y264922D3*
G1X818955Y275749D3*
G1X818955Y286576D3*
G1X818955Y330277D3*
G1X818955Y341103D3*
G1X818955Y351930D3*
G54D31*
G1X707979Y357601D3*
G1X707979Y366001D3*
G54D38*
G1X655570Y233623D3*
G1X655570Y240713D3*
G1X665020Y233623D3*
G1X665020Y240713D3*
G54D33*
G1X655875Y247009D3*
G1X661475Y247009D3*
G1X672892Y247009D3*
G1X678492Y247009D3*
G1X672892Y261970D3*
G1X678492Y261970D3*
G1X672892Y254489D3*
G1X678492Y254489D3*
G1X672892Y269450D3*
G1X678492Y269450D3*
G1X672892Y276930D3*
G1X678492Y276930D3*
G1X672892Y284410D3*
G1X678492Y284410D3*
G1X677979Y346001D3*
G1X683579Y346001D3*
G1X710993Y293466D3*
G1X714231Y317481D3*
G1X724073Y263544D3*
G1X718473Y263544D3*
G1X724073Y256064D3*
G1X718473Y256064D3*
G1X724073Y271025D3*
G1X718473Y271025D3*
G1X724073Y278505D3*
G1X718473Y278505D3*
G1X724467Y285985D3*
G1X730067Y285985D3*
G1X729979Y293466D3*
G1X724379Y293466D3*
G1X716593Y293466D3*
G1X726741Y317481D3*
G1X719831Y317481D3*
G1X742971Y293466D3*
G1X742971Y285985D3*
G1X742971Y300946D3*
G1X732341Y317481D3*
G1X748483Y275749D3*
G1X754083Y275749D3*
G1X748571Y293466D3*
G1X748571Y285985D3*
G1X760205Y293466D3*
G1X748571Y300946D3*
G1X760205Y300946D3*
G1X748483Y341103D3*
G1X754083Y341103D3*
G1X768168Y275749D3*
G1X773768Y275749D3*
G1X765805Y293466D3*
G1X765805Y300946D3*
G1X768168Y341103D3*
G1X773768Y341103D3*
G1X787853Y275749D3*
G1X787853Y341103D3*
G1X793453Y275749D3*
G1X793453Y341103D3*
G54D12*
G1X724625Y384253D3*
G1X724625Y394253D3*
G1X744625Y384253D3*
G1X734625Y384253D3*
G1X744625Y394253D3*
G1X734625Y394253D3*
G1X754625Y384253D3*
G1X754625Y394253D3*
G1X764625Y384253D3*
G1X774625Y394253D3*
G1X764625Y394253D3*
G1X784625Y384253D3*
G1X784625Y394253D3*
G1X804625Y384253D3*
G1X794625Y384253D3*
G1X804625Y394253D3*
G1X794625Y394253D3*
G1X814625Y384253D3*
G54D13*
G1X774625Y384253D3*
G1X814625Y394253D3*
G54D11*
G1X651581Y251603D3*
G1X666979Y265701D3*
G1X666979Y280601D3*
G1X666979Y273201D3*
G1X691279Y236001D3*
G1X698779Y236001D3*
G1X690379Y304701D3*
G1X695479Y356001D3*
G1X689479Y356001D3*
G1X689979Y348001D3*
G1X695479Y348001D3*
G1X700979Y348001D3*
G1X700979Y356001D3*
G1X706479Y348001D3*
G1X718473Y250001D3*
G1X729979Y259801D3*
G1X729979Y274801D3*
G1X754479Y300001D3*
G1X754479Y294501D3*
G1X724625Y389852D2*
G54D14*
G1X724625Y394253D1*
G1X724625Y398654D1*
G1X720224Y394253D2*
G1X724625Y394253D1*
G1X729025Y394253D1*
G1X734625Y389852D2*
G1X734625Y394253D1*
G1X734625Y398654D1*
G1X730224Y394253D2*
G1X734625Y394253D1*
G1X739025Y394253D1*
G1X744625Y389852D2*
G1X744625Y394253D1*
G1X744625Y398654D1*
G1X740224Y394253D2*
G1X744625Y394253D1*
G1X749025Y394253D1*
G1X754625Y389852D2*
G1X754625Y394253D1*
G1X754625Y398654D1*
G1X750224Y394253D2*
G1X754625Y394253D1*
G1X759025Y394253D1*
G1X764625Y389852D2*
G1X764625Y394253D1*
G1X764625Y398654D1*
G1X760224Y394253D2*
G1X764625Y394253D1*
G1X769025Y394253D1*
G54D41*
G1X657535Y346814D3*
G1X657535Y397794D3*
G1X685491Y262363D2*
G54D15*
G1X687163Y264035D1*
G1X688940Y264035D1*
G1X678492Y262270D2*
G1X684198Y267975D1*
G1X688940Y267975D1*
G1X678492Y254489D2*
G1X678492Y254789D1*
G1X683129Y259425D1*
G1X683129Y263168D1*
G1X685965Y266005D1*
G1X688940Y266005D1*
G1X688940Y273875D2*
G1X688940Y276863D1*
G1X681392Y284410D1*
G1X678492Y284410D1*
G1X678492Y269450D2*
G1X682341Y269450D1*
G1X682836Y269945D1*
G1X688940Y269945D1*
G1X678492Y276930D2*
G1X681554Y276930D1*
G1X686569Y271915D1*
G1X688940Y271915D1*
G1X686672Y294647D2*
G1X686372Y294647D1*
G1X682735Y291010D1*
G1X682735Y285790D1*
G1X686083Y282442D1*
G1X689059Y282442D1*
G1X691790Y279710D1*
G1X691790Y276735D1*
G1X692558Y252940D2*
G1X692625Y253007D1*
G1X692625Y254441D1*
G1X693341Y255157D1*
G1X693341Y255158D1*
G1X693760Y255577D1*
G1X693760Y257245D1*
G1X691790Y257245D2*
G1X691790Y256123D1*
G1X689896Y254229D1*
G1X689896Y252628D1*
G1X694640Y247884D1*
G1X702120Y247884D2*
G1X699700Y250305D1*
G1X699700Y254141D1*
G1X699660Y254181D1*
G1X699660Y257245D1*
G1X697700Y257245D2*
G1X697700Y253702D1*
G1X695730Y257245D2*
G1X695730Y254492D1*
G1X694940Y253702D1*
G1X686672Y289047D2*
G1X686972Y289047D1*
G1X693760Y282258D1*
G1X693760Y276735D1*
G1X694152Y289047D2*
G1X694152Y286147D1*
G1X695730Y284569D1*
G1X695730Y276735D1*
G1X701633Y289047D2*
G1X701333Y289047D1*
G1X697696Y285410D1*
G1X697696Y279714D1*
G1X697700Y279710D1*
G1X697700Y276735D1*
G1X709900Y247884D2*
G1X709600Y247884D1*
G1X706539Y250946D1*
G1X704388Y250946D1*
G1X701630Y253704D1*
G1X701630Y257245D1*
G1X708420Y264035D2*
G1X711771Y264035D1*
G1X706357Y253308D2*
G1X704564Y253308D1*
G1X703600Y254272D1*
G1X703600Y257245D1*
G1X705570Y257245D2*
G1X707421Y257245D1*
G1X708325Y256341D1*
G1X708420Y262065D2*
G1X710985Y262065D1*
G1X711869Y261182D1*
G1X710688Y258426D2*
G1X710688Y259095D1*
G1X709688Y260095D1*
G1X708420Y260095D1*
G1X708420Y266005D2*
G1X710912Y266005D1*
G1X710943Y266035D1*
G1X712600Y266035D1*
G1X712630Y266005D1*
G1X712951Y266005D1*
G1X715018Y263938D1*
G1X715018Y259819D1*
G1X718473Y256364D1*
G1X718473Y256064D1*
G1X718473Y263544D2*
G1X718473Y263844D1*
G1X714343Y267975D1*
G1X708420Y267975D1*
G1X718473Y271025D2*
G1X713444Y271025D1*
G1X712364Y269945D1*
G1X708420Y269945D1*
G1X718473Y278505D2*
G1X715010Y278505D1*
G1X713050Y276545D1*
G1X713050Y273570D1*
G1X711395Y271915D1*
G1X708420Y271915D1*
G1X703600Y276735D2*
G1X703600Y278829D1*
G1X705244Y280473D1*
G54D34*
G1X686672Y294647D3*
G1X686672Y289047D3*
G1X687459Y242284D3*
G1X687459Y247884D3*
G1X694940Y242284D3*
G1X694940Y247884D3*
G1X694152Y294647D3*
G1X694152Y289047D3*
G1X701633Y294647D3*
G1X701633Y289047D3*
G1X709900Y242284D3*
G1X709900Y247884D3*
G1X702420Y242284D3*
G1X702420Y247884D3*
G1X710294Y304489D3*
G1X710294Y310089D3*
G1X702814Y310001D3*
G1X702814Y304401D3*
G1X725255Y304489D3*
G1X725255Y310089D3*
G1X717774Y310001D3*
G1X717774Y304401D3*
G1X761081Y270237D3*
G1X761081Y275837D3*
G1X761081Y341015D3*
G1X761081Y346615D3*
G1X780766Y270237D3*
G1X780766Y275837D3*
G1X780766Y341015D3*
G1X780766Y346615D3*
G1X637853Y265907D2*
G54D45*
G1X648877Y265907D1*
G1X667774Y247009D1*
G1X672892Y247009D1*
G1X687459Y242284D2*
G1X684639Y242284D1*
G75*
G3X683649Y241874I0J-1400D1*
G74*
G1X683010Y241235D1*
G75*
G2X681749Y240713I-1260J1260D1*
G74*
G1X665020Y240713D1*
G1X678492Y247009D2*
G1X682341Y247009D1*
G1X683217Y247884D1*
G1X687459Y247884D1*
G1X687459Y254508D1*
G1X688940Y255989D1*
G1X688940Y260095D1*
G1X699660Y276735D2*
G1X699664Y276739D1*
G1X699664Y282835D1*
G1X702258Y285429D1*
G1X708950Y285429D1*
G1X710993Y287472D1*
G1X710993Y293466D1*
G1X716593Y293466D2*
G1X716593Y289922D1*
G1X709900Y283229D1*
G1X704782Y283229D1*
G1X701630Y280077D1*
G1X701630Y276735D1*
G1X724467Y285985D2*
G1X718955Y285985D1*
G1X709705Y276735D1*
G1X705570Y276735D1*
G1X710993Y293466D2*
G1X710993Y298671D1*
G1X710294Y299371D1*
G1X710294Y304489D1*
G1X702814Y304401D2*
G1X706214Y304401D1*
G1X706302Y304489D1*
G1X710294Y304489D1*
G1X717774Y310001D2*
G1X717774Y310182D1*
G1X714231Y313725D1*
G1X710294Y310089D2*
G1X710594Y310089D1*
G1X714231Y313725D1*
G1X714231Y317481D2*
G1X714231Y313725D1*
G1X716593Y293466D2*
G1X716593Y298584D1*
G1X717774Y299765D1*
G1X717774Y304401D1*
G1X730067Y285985D2*
G1X742971Y285985D1*
G1X717774Y304401D2*
G1X721766Y304401D1*
G1X721855Y304489D1*
G1X725255Y304489D1*
G1X719831Y317481D2*
G1X726741Y317481D1*
G1X748483Y341103D2*
G1X748483Y340803D1*
G1X735014Y327334D1*
G75*
G3X732341Y320881I6454J-6454D1*
G74*
G1X732341Y317481D1*
G1X748571Y285985D2*
G1X748571Y280955D1*
G1X748483Y280867D1*
G1X748483Y275749D1*
G1X754083Y275749D2*
G1X757593Y275749D1*
G1X757681Y275837D1*
G1X761081Y275837D1*
G1X761081Y341015D2*
G1X757681Y341015D1*
G1X757594Y341103D1*
G1X754083Y341103D1*
G1X761081Y275837D2*
G1X764979Y275837D1*
G1X765068Y275749D1*
G1X768168Y275749D1*
G1X773768Y275749D2*
G1X777278Y275749D1*
G1X777366Y275837D1*
G1X780766Y275837D1*
G1X768168Y341103D2*
G1X765068Y341103D1*
G1X764980Y341015D1*
G1X761081Y341015D1*
G1X780766Y341015D2*
G1X777366Y341015D1*
G1X777279Y341103D1*
G1X773768Y341103D1*
G1X780766Y275837D2*
G1X784664Y275837D1*
G1X784753Y275749D1*
G1X787853Y275749D1*
G1X787853Y341103D2*
G1X784753Y341103D1*
G1X784665Y341015D1*
G1X780766Y341015D1*
G1X793453Y275749D2*
G1X818955Y275749D1*
G1X818955Y341103D2*
G1X809781Y341103D1*
G1X809780Y341103D1*
G1X793453Y341103D1*
G54D39*
G1X690215Y369844D3*
G54D43*
G1X688940Y260095D3*
G1X688940Y262065D3*
G1X688940Y264035D3*
G1X688940Y266005D3*
G1X688940Y267975D3*
G1X688940Y269945D3*
G1X688940Y271915D3*
G1X688940Y273875D3*
G1X708420Y267975D3*
G1X708420Y266005D3*
G1X708420Y264035D3*
G1X708420Y262065D3*
G1X708420Y260095D3*
G1X708420Y273875D3*
G1X708420Y271915D3*
G1X708420Y269945D3*
G54D44*
G1X698680Y266985D3*
M2*
