*
%LPD*%
%LNtransceiverSMT*%
%FSLAX25Y25*%
%MOIN*%
%AD*%
%AD*%
%ADD12C,0.058*%
%ADD13R,0.058X0.058*%
%ADD24R,0.043307087X0.039370079*%
%ADD25R,0.157479921X0.051181102*%
%ADD26R,0.244094094X0.161416929*%
%ADD27R,0.173227953X0.129920866*%
%ADD28R,0.013779921X0.036220079*%
%ADD29C,0.05*%
%ADD30R,0.036220079X0.013779921*%
%ADD31R,0.05X0.05*%
%ADD32R,0.138583071X0.138583071*%
%ADD33R,0.032X0.038*%
%ADD34R,0.038X0.032*%
%ADD51C,0.067011811*%
%ADD52R,0.067011811X0.067011811*%
%ADD53R,0.043311024X0.027559055*%
%ADD54R,0.027559055X0.043311024*%
%ADD55R,0.062988189X0.062988189*%
%ADD56R,0.0315X0.066929134*%
%ADD57R,0.02361811X0.035429134*%
%AMD58_Rectangle*
20,1,0.032011,0.01343,-0.01343,-0.01343,0.01343,0*
%
%ADD58D58_Rectangle*%
%ADD59R,0.110240157X0.035429134*%
%ADD60R,0.066929134X0.066929134*%
%ADD61R,0.015748031X0.0315*%
%ADD62R,0.0315X0.015748031*%
%ADD63R,0.244090945X0.161420866*%
%ADD64R,0.014961024X0.029129921*%
%ADD65R,0.029129921X0.014961024*%
%ADD66R,0.032011811X0.037988189*%
%AMD67_Rectangle*
20,1,0.032011,-0.01343,-0.01343,0.01343,0.01343,0*
%
%ADD67D67_Rectangle*%
%ADD68R,0.037988189X0.032011811*%
G54D25*
%SRX1Y1I0.0J0.0*%
G1X7874Y45079D3*
G1X7874Y55906D3*
G1X7874Y66732D3*
G1X188976Y54921D3*
G1X188976Y65748D3*
G1X188976Y76575D3*
G1X188976Y120276D3*
G1X188976Y131102D3*
G1X188976Y141929D3*
G54D31*
G1X78000Y147600D3*
G1X78000Y156000D3*
G54D24*
G1X25591Y23622D3*
G1X25591Y30712D3*
G1X35041Y23622D3*
G1X35041Y30712D3*
G54D33*
G1X25896Y37008D3*
G1X31496Y37008D3*
G1X42913Y37008D3*
G1X48513Y37008D3*
G1X42913Y51969D3*
G1X48513Y51969D3*
G1X42913Y44488D3*
G1X48513Y44488D3*
G1X42913Y59449D3*
G1X48513Y59449D3*
G1X42913Y66929D3*
G1X48513Y66929D3*
G1X42913Y74409D3*
G1X48513Y74409D3*
G1X48000Y136000D3*
G1X53600Y136000D3*
G1X81014Y83465D3*
G1X84252Y107480D3*
G1X94094Y53543D3*
G1X88494Y53543D3*
G1X94094Y46063D3*
G1X88494Y46063D3*
G1X94094Y61024D3*
G1X88494Y61024D3*
G1X94094Y68504D3*
G1X88494Y68504D3*
G1X94488Y75984D3*
G1X100088Y75984D3*
G1X100000Y83465D3*
G1X94400Y83465D3*
G1X86614Y83465D3*
G1X96762Y107480D3*
G1X89852Y107480D3*
G1X112992Y83465D3*
G1X112992Y75984D3*
G1X112992Y90945D3*
G1X102362Y107480D3*
G1X118504Y65748D3*
G1X124104Y65748D3*
G1X118592Y83465D3*
G1X118592Y75984D3*
G1X130226Y83465D3*
G1X118592Y90945D3*
G1X130226Y90945D3*
G1X118504Y131102D3*
G1X124104Y131102D3*
G1X138189Y65748D3*
G1X143789Y65748D3*
G1X135826Y83465D3*
G1X135826Y90945D3*
G1X138189Y131102D3*
G1X143789Y131102D3*
G1X157874Y65748D3*
G1X157874Y131102D3*
G1X163474Y65748D3*
G1X163474Y131102D3*
G54D12*
G1X94646Y174252D3*
G1X94646Y184252D3*
G1X114646Y174252D3*
G1X104646Y174252D3*
G1X114646Y184252D3*
G1X104646Y184252D3*
G1X124646Y174252D3*
G1X124646Y184252D3*
G1X134646Y174252D3*
G1X144646Y184252D3*
G1X134646Y184252D3*
G1X154646Y174252D3*
G1X154646Y184252D3*
G1X174646Y174252D3*
G1X164646Y174252D3*
G1X174646Y184252D3*
G1X164646Y184252D3*
G1X184646Y174252D3*
G54D13*
G1X144646Y174252D3*
G1X184646Y184252D3*
G54D29*
G1X21602Y41602D3*
G1X37000Y55700D3*
G1X37000Y70600D3*
G1X37000Y63200D3*
G1X61300Y26000D3*
G1X68800Y26000D3*
G1X60400Y94700D3*
G1X65500Y146000D3*
G1X59500Y146000D3*
G1X60000Y138000D3*
G1X65500Y138000D3*
G1X71000Y138000D3*
G1X71000Y146000D3*
G1X76500Y138000D3*
G1X88494Y40000D3*
G1X100000Y49800D3*
G1X100000Y64800D3*
G1X124500Y90000D3*
G1X124500Y84500D3*
G54D26*
G1X27556Y136813D3*
G1X27556Y187793D3*
G54D34*
G1X56693Y84646D3*
G1X56693Y79046D3*
G1X57480Y32283D3*
G1X57480Y37883D3*
G1X64961Y32283D3*
G1X64961Y37883D3*
G1X64173Y84646D3*
G1X64173Y79046D3*
G1X71654Y84646D3*
G1X71654Y79046D3*
G1X79921Y32283D3*
G1X79921Y37883D3*
G1X72441Y32283D3*
G1X72441Y37883D3*
G1X80315Y94488D3*
G1X80315Y100088D3*
G1X72835Y100000D3*
G1X72835Y94400D3*
G1X95276Y94488D3*
G1X95276Y100088D3*
G1X87795Y100000D3*
G1X87795Y94400D3*
G1X131102Y60236D3*
G1X131102Y65836D3*
G1X131102Y131014D3*
G1X131102Y136614D3*
G1X150787Y60236D3*
G1X150787Y65836D3*
G1X150787Y131014D3*
G1X150787Y136614D3*
G54D27*
G1X60236Y159843D3*
G54D30*
G1X58961Y50094D3*
G1X58961Y52064D3*
G1X58961Y54034D3*
G1X58961Y56004D3*
G1X58961Y57974D3*
G1X58961Y59944D3*
G1X58961Y61914D3*
G1X58961Y63874D3*
G1X78441Y57974D3*
G1X78441Y56004D3*
G1X78441Y54034D3*
G1X78441Y52064D3*
G1X78441Y50094D3*
G1X78441Y63874D3*
G1X78441Y61914D3*
G1X78441Y59944D3*
G54D32*
G1X68701Y56984D3*
G54D28*
G1X69681Y47244D3*
G1X67721Y47244D3*
G1X65751Y47244D3*
G1X63781Y47244D3*
G1X61811Y47244D3*
G1X61811Y66734D3*
G1X63781Y66734D3*
G1X65751Y66734D3*
G1X67721Y66734D3*
G1X69681Y66734D3*
G1X75591Y47244D3*
G1X73621Y47244D3*
G1X71651Y47244D3*
G1X71651Y66734D3*
G1X73621Y66734D3*
G1X75591Y66734D3*
G54D25*
G1X217880Y54906D3*
G1X217880Y65733D3*
G1X217880Y76560D3*
G1X217880Y120260D3*
G1X217880Y141914D3*
G1X217880Y131087D3*
G1X399126Y93174D3*
G1X399126Y104001D3*
G1X399126Y114828D3*
G54D52*
G1X219856Y187923D3*
G54D62*
G1X266306Y150426D3*
G1X266306Y152395D3*
G1X266306Y154363D3*
G1X266306Y156332D3*
G1X286040Y87847D3*
G1X286040Y85878D3*
G1X286040Y83910D3*
G1X275410Y83910D3*
G1X275410Y85878D3*
G1X275410Y87847D3*
G1X273393Y156332D3*
G1X273393Y154363D3*
G1X273393Y152395D3*
G1X273393Y150426D3*
G54D65*
G1X287191Y35428D3*
G1X287191Y37397D3*
G1X287191Y39365D3*
G1X287191Y41334D3*
G1X297427Y41334D3*
G1X297427Y39365D3*
G1X297427Y37397D3*
G1X297427Y35428D3*
G54D51*
G1X229856Y187923D3*
G1X239856Y187923D3*
G1X249856Y187923D3*
G1X259856Y187923D3*
G1X269856Y187923D3*
G1X279856Y187923D3*
G1X289856Y187923D3*
G1X299856Y187923D3*
G1X309856Y187923D3*
G54D57*
G1X365436Y86271D3*
G1X361696Y86271D3*
G1X361696Y96507D3*
G1X365436Y96507D3*
G1X388088Y67753D3*
G1X384348Y67753D3*
G1X380608Y67753D3*
G1X369176Y86271D3*
G1X380608Y77989D3*
G1X384348Y77989D3*
G1X388088Y77989D3*
G1X369176Y96507D3*
G54D63*
G1X379583Y137732D3*
G1X379583Y188716D3*
G54D29*
G1X250194Y11411D3*
G1X250806Y78785D3*
G1X256498Y11411D3*
G1X262802Y11411D3*
G1X269106Y11411D3*
G1X266348Y60267D3*
G1X255316Y105971D3*
G1X252952Y99273D3*
G1X265954Y133157D3*
G1X265954Y139067D3*
G1X265954Y145371D3*
G1X274622Y11411D3*
G1X271864Y60267D3*
G1X274983Y104102D3*
G1X280220Y126771D3*
G1X305748Y10229D3*
G1X305748Y24019D3*
G1X305748Y16927D3*
G1X293306Y67753D3*
G1X302202Y64601D3*
G1X296686Y73269D3*
G1X293140Y103198D3*
G1X301808Y100455D3*
G1X301808Y106759D3*
G1X301808Y113457D3*
G1X293222Y124489D3*
G1X314006Y53175D3*
G1X327812Y188317D3*
G1X339632Y188317D3*
G1X345542Y188317D3*
G1X334116Y178467D3*
G1X340026Y178467D3*
G1X345542Y178467D3*
G1X333722Y188317D3*
G1X336480Y183195D3*
G1X342390Y183195D3*
G1X380608Y62785D3*
G1X388088Y87454D3*
G1X374308Y87454D3*
G1X384348Y82919D3*
G54D60*
G1X280725Y85878D3*
G54D61*
G1X282693Y80564D3*
G1X280725Y80564D3*
G1X278756Y80564D3*
G1X278756Y91193D3*
G1X280725Y91193D3*
G1X282693Y91193D3*
G54D53*
G1X249406Y24015D3*
G1X249406Y18503D3*
G54D67*
G1X237586Y60267D3*
G1X241544Y56309D3*
G1X348694Y84695D3*
G1X352652Y80737D3*
G54D59*
G1X308506Y29542D3*
G1X308506Y38203D3*
G54D58*
G1X237192Y70905D3*
G1X241150Y74863D3*
G1X348694Y62237D3*
G1X352652Y66195D3*
G54D55*
G1X292309Y38381D3*
G54D66*
G1X246254Y90999D3*
G1X250194Y152463D3*
G1X244596Y152463D3*
G1X265166Y45689D3*
G1X259568Y45689D3*
G1X265166Y53569D3*
G1X259568Y53569D3*
G1X258862Y82725D3*
G1X264460Y82725D3*
G1X258862Y74845D3*
G1X264460Y74845D3*
G1X251852Y90999D3*
G1X258862Y90999D3*
G1X264460Y90999D3*
G1X258862Y98879D3*
G1X264460Y98879D3*
G1X258468Y131975D3*
G1X252870Y131975D3*
G1X258468Y139461D3*
G1X252870Y139461D3*
G1X259256Y163889D3*
G1X253658Y163889D3*
G1X284472Y24413D3*
G1X273408Y37396D3*
G1X279006Y37396D3*
G1X279350Y45689D3*
G1X273752Y45689D3*
G1X273834Y53569D3*
G1X279432Y53569D3*
G1X276986Y73269D3*
G1X282584Y73269D3*
G1X274983Y99227D3*
G1X280581Y99227D3*
G1X287542Y99273D3*
G1X287624Y107153D3*
G1X274622Y119761D3*
G1X280220Y119761D3*
G1X287624Y115033D3*
G1X286442Y152463D3*
G1X280844Y152463D3*
G1X290070Y24413D3*
G1X295504Y84695D3*
G1X301102Y84695D3*
G1X308424Y106365D3*
G1X293140Y99273D3*
G1X293222Y107153D3*
G1X308424Y114245D3*
G1X293222Y115033D3*
G1X312052Y15351D3*
G1X317650Y15351D3*
G1X312052Y23231D3*
G1X317650Y23231D3*
G1X319538Y38203D3*
G1X325136Y38203D3*
G1X315992Y84695D3*
G1X321590Y84695D3*
G1X314022Y106365D3*
G1X314022Y114245D3*
G1X344360Y98485D3*
G1X363666Y73663D3*
G1X365636Y104001D3*
G1X349958Y98485D3*
G1X358938Y189105D3*
G1X353340Y189105D3*
G1X369264Y73663D3*
G1X371234Y104001D3*
G54D64*
G1X289356Y43499D3*
G1X291325Y43499D3*
G1X293293Y43499D3*
G1X295262Y43499D3*
G1X295262Y33263D3*
G1X293293Y33263D3*
G1X291325Y33263D3*
G1X289356Y33263D3*
G54D68*
G1X257286Y18503D3*
G1X257286Y24101D3*
G1X265954Y18503D3*
G1X265954Y24101D3*
G1X265166Y31899D3*
G1X265166Y37497D3*
G1X258468Y146865D3*
G1X258468Y152463D3*
G1X268712Y169405D3*
G1X268712Y163807D3*
G1X284472Y10147D3*
G1X284472Y15745D3*
G1X275804Y18503D3*
G1X275804Y24101D3*
G1X287624Y53175D3*
G1X287624Y58773D3*
G1X280138Y106677D3*
G1X280138Y112275D3*
G1X306930Y53175D3*
G1X306930Y58773D3*
G1X297080Y53175D3*
G1X297080Y58773D3*
G1X308506Y85089D3*
G1X308506Y79491D3*
G1X308506Y93363D3*
G1X308506Y98961D3*
G1X328994Y79179D3*
G1X328994Y84777D3*
G1X348694Y38203D3*
G1X348694Y43801D3*
G1X332934Y38203D3*
G1X332934Y43801D3*
G1X340814Y38203D3*
G1X340814Y43801D3*
G54D54*
G1X317958Y8653D3*
G1X312446Y8653D3*
G54D31*
G1X327024Y169405D3*
G1X327024Y177807D3*
G54D56*
G1X269850Y153379D3*
G54D27*
G1X346906Y165685D3*
G54D25*
G1X427880Y54901D3*
G1X427880Y65728D3*
G1X427880Y76555D3*
G1X427880Y120255D3*
G1X427880Y141909D3*
G1X427880Y131082D3*
G1X609126Y93169D3*
G1X609126Y103996D3*
G1X609126Y114823D3*
G54D52*
G1X429856Y187918D3*
G54D62*
G1X476306Y150421D3*
G1X476306Y152390D3*
G1X476306Y154358D3*
G1X476306Y156327D3*
G1X496040Y87842D3*
G1X496040Y85873D3*
G1X496040Y83905D3*
G1X485410Y83905D3*
G1X485410Y85873D3*
G1X485410Y87842D3*
G1X483393Y156327D3*
G1X483393Y154358D3*
G1X483393Y152390D3*
G1X483393Y150421D3*
G54D65*
G1X497191Y35423D3*
G1X497191Y37392D3*
G1X497191Y39360D3*
G1X497191Y41329D3*
G1X507427Y41329D3*
G1X507427Y39360D3*
G1X507427Y37392D3*
G1X507427Y35423D3*
G54D51*
G1X439856Y187918D3*
G1X449856Y187918D3*
G1X459856Y187918D3*
G1X469856Y187918D3*
G1X479856Y187918D3*
G1X489856Y187918D3*
G1X499856Y187918D3*
G1X509856Y187918D3*
G1X519856Y187918D3*
G54D57*
G1X575436Y86266D3*
G1X571696Y86266D3*
G1X571696Y96502D3*
G1X575436Y96502D3*
G1X598088Y67748D3*
G1X594348Y67748D3*
G1X590608Y67748D3*
G1X579176Y86266D3*
G1X590608Y77984D3*
G1X594348Y77984D3*
G1X598088Y77984D3*
G1X579176Y96502D3*
G54D63*
G1X589583Y137727D3*
G1X589583Y188711D3*
G54D29*
G1X460194Y11406D3*
G1X460806Y78780D3*
G1X466498Y11406D3*
G1X472802Y11406D3*
G1X479106Y11406D3*
G1X476348Y60262D3*
G1X465316Y105966D3*
G1X462952Y99268D3*
G1X475954Y133152D3*
G1X475954Y139062D3*
G1X475954Y145366D3*
G1X484622Y11406D3*
G1X481864Y60262D3*
G1X484983Y104097D3*
G1X490220Y126766D3*
G1X515748Y10224D3*
G1X515748Y24014D3*
G1X515748Y16922D3*
G1X503306Y67748D3*
G1X512202Y64596D3*
G1X506686Y73264D3*
G1X503140Y103193D3*
G1X511808Y100450D3*
G1X511808Y106754D3*
G1X511808Y113452D3*
G1X503222Y124484D3*
G1X524006Y53170D3*
G1X537812Y188312D3*
G1X549632Y188312D3*
G1X555542Y188312D3*
G1X544116Y178462D3*
G1X550026Y178462D3*
G1X555542Y178462D3*
G1X543722Y188312D3*
G1X546480Y183190D3*
G1X552390Y183190D3*
G1X590608Y62780D3*
G1X598088Y87449D3*
G1X584308Y87449D3*
G1X594348Y82914D3*
G54D60*
G1X490725Y85873D3*
G54D61*
G1X492693Y80559D3*
G1X490725Y80559D3*
G1X488756Y80559D3*
G1X488756Y91188D3*
G1X490725Y91188D3*
G1X492693Y91188D3*
G54D53*
G1X459406Y24010D3*
G1X459406Y18498D3*
G54D67*
G1X447586Y60262D3*
G1X451544Y56304D3*
G1X558694Y84690D3*
G1X562652Y80732D3*
G54D59*
G1X518506Y29537D3*
G1X518506Y38198D3*
G54D58*
G1X447192Y70900D3*
G1X451150Y74858D3*
G1X558694Y62232D3*
G1X562652Y66190D3*
G54D55*
G1X502309Y38376D3*
G54D66*
G1X456254Y90994D3*
G1X460194Y152458D3*
G1X454596Y152458D3*
G1X475166Y45684D3*
G1X469568Y45684D3*
G1X475166Y53564D3*
G1X469568Y53564D3*
G1X468862Y82720D3*
G1X474460Y82720D3*
G1X468862Y74840D3*
G1X474460Y74840D3*
G1X461852Y90994D3*
G1X468862Y90994D3*
G1X474460Y90994D3*
G1X468862Y98874D3*
G1X474460Y98874D3*
G1X468468Y131970D3*
G1X462870Y131970D3*
G1X468468Y139456D3*
G1X462870Y139456D3*
G1X469256Y163884D3*
G1X463658Y163884D3*
G1X494472Y24408D3*
G1X483408Y37391D3*
G1X489006Y37391D3*
G1X489350Y45684D3*
G1X483752Y45684D3*
G1X483834Y53564D3*
G1X489432Y53564D3*
G1X486986Y73264D3*
G1X492584Y73264D3*
G1X484983Y99222D3*
G1X490581Y99222D3*
G1X497542Y99268D3*
G1X497624Y107148D3*
G1X484622Y119756D3*
G1X490220Y119756D3*
G1X497624Y115028D3*
G1X496442Y152458D3*
G1X490844Y152458D3*
G1X500070Y24408D3*
G1X505504Y84690D3*
G1X511102Y84690D3*
G1X518424Y106360D3*
G1X503140Y99268D3*
G1X503222Y107148D3*
G1X518424Y114240D3*
G1X503222Y115028D3*
G1X522052Y15346D3*
G1X527650Y15346D3*
G1X522052Y23226D3*
G1X527650Y23226D3*
G1X529538Y38198D3*
G1X535136Y38198D3*
G1X525992Y84690D3*
G1X531590Y84690D3*
G1X524022Y106360D3*
G1X524022Y114240D3*
G1X554360Y98480D3*
G1X573666Y73658D3*
G1X575636Y103996D3*
G1X559958Y98480D3*
G1X568938Y189100D3*
G1X563340Y189100D3*
G1X579264Y73658D3*
G1X581234Y103996D3*
G54D64*
G1X499356Y43494D3*
G1X501325Y43494D3*
G1X503293Y43494D3*
G1X505262Y43494D3*
G1X505262Y33258D3*
G1X503293Y33258D3*
G1X501325Y33258D3*
G1X499356Y33258D3*
G54D68*
G1X467286Y18498D3*
G1X467286Y24096D3*
G1X475954Y18498D3*
G1X475954Y24096D3*
G1X475166Y31894D3*
G1X475166Y37492D3*
G1X468468Y146860D3*
G1X468468Y152458D3*
G1X478712Y169400D3*
G1X478712Y163802D3*
G1X494472Y10142D3*
G1X494472Y15740D3*
G1X485804Y18498D3*
G1X485804Y24096D3*
G1X497624Y53170D3*
G1X497624Y58768D3*
G1X490138Y106672D3*
G1X490138Y112270D3*
G1X516930Y53170D3*
G1X516930Y58768D3*
G1X507080Y53170D3*
G1X507080Y58768D3*
G1X518506Y85084D3*
G1X518506Y79486D3*
G1X518506Y93358D3*
G1X518506Y98956D3*
G1X538994Y79174D3*
G1X538994Y84772D3*
G1X558694Y38198D3*
G1X558694Y43796D3*
G1X542934Y38198D3*
G1X542934Y43796D3*
G1X550814Y38198D3*
G1X550814Y43796D3*
G54D54*
G1X527958Y8648D3*
G1X522446Y8648D3*
G54D31*
G1X537024Y169400D3*
G1X537024Y177802D3*
G54D56*
G1X479850Y153374D3*
G54D27*
G1X556906Y165680D3*
G54D25*
G1X7893Y255050D3*
G1X7893Y265877D3*
G1X7893Y276703D3*
G1X188995Y264892D3*
G1X188995Y275719D3*
G1X188995Y286546D3*
G1X188995Y330247D3*
G1X188995Y341073D3*
G1X188995Y351900D3*
G54D31*
G1X78019Y357571D3*
G1X78019Y365971D3*
G54D24*
G1X25610Y233593D3*
G1X25610Y240683D3*
G1X35060Y233593D3*
G1X35060Y240683D3*
G54D33*
G1X25915Y246979D3*
G1X31515Y246979D3*
G1X42932Y246979D3*
G1X48532Y246979D3*
G1X42932Y261940D3*
G1X48532Y261940D3*
G1X42932Y254459D3*
G1X48532Y254459D3*
G1X42932Y269420D3*
G1X48532Y269420D3*
G1X42932Y276900D3*
G1X48532Y276900D3*
G1X42932Y284380D3*
G1X48532Y284380D3*
G1X48019Y345971D3*
G1X53619Y345971D3*
G1X81033Y293436D3*
G1X84271Y317451D3*
G1X94113Y263514D3*
G1X88513Y263514D3*
G1X94113Y256034D3*
G1X88513Y256034D3*
G1X94113Y270995D3*
G1X88513Y270995D3*
G1X94113Y278475D3*
G1X88513Y278475D3*
G1X94507Y285955D3*
G1X100107Y285955D3*
G1X100019Y293436D3*
G1X94419Y293436D3*
G1X86633Y293436D3*
G1X96781Y317451D3*
G1X89871Y317451D3*
G1X113011Y293436D3*
G1X113011Y285955D3*
G1X113011Y300916D3*
G1X102381Y317451D3*
G1X118523Y275719D3*
G1X124123Y275719D3*
G1X118611Y293436D3*
G1X118611Y285955D3*
G1X130245Y293436D3*
G1X118611Y300916D3*
G1X130245Y300916D3*
G1X118523Y341073D3*
G1X124123Y341073D3*
G1X138208Y275719D3*
G1X143808Y275719D3*
G1X135845Y293436D3*
G1X135845Y300916D3*
G1X138208Y341073D3*
G1X143808Y341073D3*
G1X157893Y275719D3*
G1X157893Y341073D3*
G1X163493Y275719D3*
G1X163493Y341073D3*
G54D12*
G1X94665Y384223D3*
G1X94665Y394223D3*
G1X114665Y384223D3*
G1X104665Y384223D3*
G1X114665Y394223D3*
G1X104665Y394223D3*
G1X124665Y384223D3*
G1X124665Y394223D3*
G1X134665Y384223D3*
G1X144665Y394223D3*
G1X134665Y394223D3*
G1X154665Y384223D3*
G1X154665Y394223D3*
G1X174665Y384223D3*
G1X164665Y384223D3*
G1X174665Y394223D3*
G1X164665Y394223D3*
G1X184665Y384223D3*
G54D13*
G1X144665Y384223D3*
G1X184665Y394223D3*
G54D29*
G1X21621Y251573D3*
G1X37019Y265671D3*
G1X37019Y280571D3*
G1X37019Y273171D3*
G1X61319Y235971D3*
G1X68819Y235971D3*
G1X60419Y304671D3*
G1X65519Y355971D3*
G1X59519Y355971D3*
G1X60019Y347971D3*
G1X65519Y347971D3*
G1X71019Y347971D3*
G1X71019Y355971D3*
G1X76519Y347971D3*
G1X88513Y249971D3*
G1X100019Y259771D3*
G1X100019Y274771D3*
G1X124519Y299971D3*
G1X124519Y294471D3*
G54D26*
G1X27575Y346784D3*
G1X27575Y397764D3*
G54D34*
G1X56712Y294617D3*
G1X56712Y289017D3*
G1X57499Y242254D3*
G1X57499Y247854D3*
G1X64980Y242254D3*
G1X64980Y247854D3*
G1X64192Y294617D3*
G1X64192Y289017D3*
G1X71673Y294617D3*
G1X71673Y289017D3*
G1X79940Y242254D3*
G1X79940Y247854D3*
G1X72460Y242254D3*
G1X72460Y247854D3*
G1X80334Y304459D3*
G1X80334Y310059D3*
G1X72854Y309971D3*
G1X72854Y304371D3*
G1X95295Y304459D3*
G1X95295Y310059D3*
G1X87814Y309971D3*
G1X87814Y304371D3*
G1X131121Y270207D3*
G1X131121Y275807D3*
G1X131121Y340985D3*
G1X131121Y346585D3*
G1X150806Y270207D3*
G1X150806Y275807D3*
G1X150806Y340985D3*
G1X150806Y346585D3*
G54D27*
G1X60255Y369814D3*
G54D30*
G1X58980Y260065D3*
G1X58980Y262035D3*
G1X58980Y264005D3*
G1X58980Y265975D3*
G1X58980Y267945D3*
G1X58980Y269915D3*
G1X58980Y271885D3*
G1X58980Y273845D3*
G1X78460Y267945D3*
G1X78460Y265975D3*
G1X78460Y264005D3*
G1X78460Y262035D3*
G1X78460Y260065D3*
G1X78460Y273845D3*
G1X78460Y271885D3*
G1X78460Y269915D3*
G54D32*
G1X68720Y266955D3*
G54D28*
G1X69700Y257215D3*
G1X67740Y257215D3*
G1X65770Y257215D3*
G1X63800Y257215D3*
G1X61830Y257215D3*
G1X61830Y276705D3*
G1X63800Y276705D3*
G1X65770Y276705D3*
G1X67740Y276705D3*
G1X69700Y276705D3*
G1X75610Y257215D3*
G1X73640Y257215D3*
G1X71670Y257215D3*
G1X71670Y276705D3*
G1X73640Y276705D3*
G1X75610Y276705D3*
G54D25*
G1X217851Y255084D3*
G1X217851Y265911D3*
G1X217851Y276737D3*
G1X398953Y264926D3*
G1X398953Y275753D3*
G1X398953Y286580D3*
G1X398953Y330281D3*
G1X398953Y341107D3*
G1X398953Y351934D3*
G54D31*
G1X287977Y357605D3*
G1X287977Y366005D3*
G54D24*
G1X235568Y233627D3*
G1X235568Y240717D3*
G1X245018Y233627D3*
G1X245018Y240717D3*
G54D33*
G1X235873Y247013D3*
G1X241473Y247013D3*
G1X252890Y247013D3*
G1X258490Y247013D3*
G1X252890Y261974D3*
G1X258490Y261974D3*
G1X252890Y254493D3*
G1X258490Y254493D3*
G1X252890Y269454D3*
G1X258490Y269454D3*
G1X252890Y276934D3*
G1X258490Y276934D3*
G1X252890Y284414D3*
G1X258490Y284414D3*
G1X257977Y346005D3*
G1X263577Y346005D3*
G1X290991Y293470D3*
G1X294229Y317485D3*
G1X304071Y263548D3*
G1X298471Y263548D3*
G1X304071Y256068D3*
G1X298471Y256068D3*
G1X304071Y271029D3*
G1X298471Y271029D3*
G1X304071Y278509D3*
G1X298471Y278509D3*
G1X304465Y285989D3*
G1X310065Y285989D3*
G1X309977Y293470D3*
G1X304377Y293470D3*
G1X296591Y293470D3*
G1X306739Y317485D3*
G1X299829Y317485D3*
G1X322969Y293470D3*
G1X322969Y285989D3*
G1X322969Y300950D3*
G1X312339Y317485D3*
G1X328481Y275753D3*
G1X334081Y275753D3*
G1X328569Y293470D3*
G1X328569Y285989D3*
G1X340203Y293470D3*
G1X328569Y300950D3*
G1X340203Y300950D3*
G1X328481Y341107D3*
G1X334081Y341107D3*
G1X348166Y275753D3*
G1X353766Y275753D3*
G1X345803Y293470D3*
G1X345803Y300950D3*
G1X348166Y341107D3*
G1X353766Y341107D3*
G1X367851Y275753D3*
G1X367851Y341107D3*
G1X373451Y275753D3*
G1X373451Y341107D3*
G54D12*
G1X304623Y384257D3*
G1X304623Y394257D3*
G1X324623Y384257D3*
G1X314623Y384257D3*
G1X324623Y394257D3*
G1X314623Y394257D3*
G1X334623Y384257D3*
G1X334623Y394257D3*
G1X344623Y384257D3*
G1X354623Y394257D3*
G1X344623Y394257D3*
G1X364623Y384257D3*
G1X364623Y394257D3*
G1X384623Y384257D3*
G1X374623Y384257D3*
G1X384623Y394257D3*
G1X374623Y394257D3*
G1X394623Y384257D3*
G54D13*
G1X354623Y384257D3*
G1X394623Y394257D3*
G54D29*
G1X231579Y251607D3*
G1X246977Y265705D3*
G1X246977Y280605D3*
G1X246977Y273205D3*
G1X271277Y236005D3*
G1X278777Y236005D3*
G1X270377Y304705D3*
G1X275477Y356005D3*
G1X269477Y356005D3*
G1X269977Y348005D3*
G1X275477Y348005D3*
G1X280977Y348005D3*
G1X280977Y356005D3*
G1X286477Y348005D3*
G1X298471Y250005D3*
G1X309977Y259805D3*
G1X309977Y274805D3*
G1X334477Y300005D3*
G1X334477Y294505D3*
G54D26*
G1X237533Y346818D3*
G1X237533Y397798D3*
G54D34*
G1X266670Y294651D3*
G1X266670Y289051D3*
G1X267457Y242288D3*
G1X267457Y247888D3*
G1X274938Y242288D3*
G1X274938Y247888D3*
G1X274150Y294651D3*
G1X274150Y289051D3*
G1X281631Y294651D3*
G1X281631Y289051D3*
G1X289898Y242288D3*
G1X289898Y247888D3*
G1X282418Y242288D3*
G1X282418Y247888D3*
G1X290292Y304493D3*
G1X290292Y310093D3*
G1X282812Y310005D3*
G1X282812Y304405D3*
G1X305253Y304493D3*
G1X305253Y310093D3*
G1X297772Y310005D3*
G1X297772Y304405D3*
G1X341079Y270241D3*
G1X341079Y275841D3*
G1X341079Y341019D3*
G1X341079Y346619D3*
G1X360764Y270241D3*
G1X360764Y275841D3*
G1X360764Y341019D3*
G1X360764Y346619D3*
G54D27*
G1X270213Y369848D3*
G54D30*
G1X268938Y260099D3*
G1X268938Y262069D3*
G1X268938Y264039D3*
G1X268938Y266009D3*
G1X268938Y267979D3*
G1X268938Y269949D3*
G1X268938Y271919D3*
G1X268938Y273879D3*
G1X288418Y267979D3*
G1X288418Y266009D3*
G1X288418Y264039D3*
G1X288418Y262069D3*
G1X288418Y260099D3*
G1X288418Y273879D3*
G1X288418Y271919D3*
G1X288418Y269949D3*
G54D32*
G1X278678Y266989D3*
G54D28*
G1X279658Y257249D3*
G1X277698Y257249D3*
G1X275728Y257249D3*
G1X273758Y257249D3*
G1X271788Y257249D3*
G1X271788Y276739D3*
G1X273758Y276739D3*
G1X275728Y276739D3*
G1X277698Y276739D3*
G1X279658Y276739D3*
G1X285568Y257249D3*
G1X283598Y257249D3*
G1X281628Y257249D3*
G1X281628Y276739D3*
G1X283598Y276739D3*
G1X285568Y276739D3*
G54D25*
G1X427871Y264909D3*
G1X427871Y275736D3*
G1X427871Y286563D3*
G1X427871Y330263D3*
G1X427871Y351917D3*
G1X427871Y341090D3*
G1X609117Y303177D3*
G1X609117Y314004D3*
G1X609117Y324831D3*
G54D52*
G1X429847Y397926D3*
G54D62*
G1X476297Y360429D3*
G1X476297Y362398D3*
G1X476297Y364366D3*
G1X476297Y366335D3*
G1X496031Y297850D3*
G1X496031Y295881D3*
G1X496031Y293913D3*
G1X485401Y293913D3*
G1X485401Y295881D3*
G1X485401Y297850D3*
G1X483384Y366335D3*
G1X483384Y364366D3*
G1X483384Y362398D3*
G1X483384Y360429D3*
G54D65*
G1X497182Y245431D3*
G1X497182Y247400D3*
G1X497182Y249368D3*
G1X497182Y251337D3*
G1X507418Y251337D3*
G1X507418Y249368D3*
G1X507418Y247400D3*
G1X507418Y245431D3*
G54D51*
G1X439847Y397926D3*
G1X449847Y397926D3*
G1X459847Y397926D3*
G1X469847Y397926D3*
G1X479847Y397926D3*
G1X489847Y397926D3*
G1X499847Y397926D3*
G1X509847Y397926D3*
G1X519847Y397926D3*
G54D57*
G1X575427Y296274D3*
G1X571687Y296274D3*
G1X571687Y306510D3*
G1X575427Y306510D3*
G1X598079Y277756D3*
G1X594339Y277756D3*
G1X590599Y277756D3*
G1X579167Y296274D3*
G1X590599Y287992D3*
G1X594339Y287992D3*
G1X598079Y287992D3*
G1X579167Y306510D3*
G54D63*
G1X589574Y347735D3*
G1X589574Y398719D3*
G54D29*
G1X460185Y221414D3*
G1X460797Y288788D3*
G1X466489Y221414D3*
G1X472793Y221414D3*
G1X479097Y221414D3*
G1X476339Y270270D3*
G1X465307Y315974D3*
G1X462943Y309276D3*
G1X475945Y343160D3*
G1X475945Y349070D3*
G1X475945Y355374D3*
G1X484613Y221414D3*
G1X481855Y270270D3*
G1X484974Y314105D3*
G1X490211Y336774D3*
G1X515739Y220232D3*
G1X515739Y234022D3*
G1X515739Y226930D3*
G1X503297Y277756D3*
G1X512193Y274604D3*
G1X506677Y283272D3*
G1X503131Y313201D3*
G1X511799Y310458D3*
G1X511799Y316762D3*
G1X511799Y323460D3*
G1X503213Y334492D3*
G1X523997Y263178D3*
G1X537803Y398320D3*
G1X549623Y398320D3*
G1X555533Y398320D3*
G1X544107Y388470D3*
G1X550017Y388470D3*
G1X555533Y388470D3*
G1X543713Y398320D3*
G1X546471Y393198D3*
G1X552381Y393198D3*
G1X590599Y272788D3*
G1X598079Y297457D3*
G1X584299Y297457D3*
G1X594339Y292922D3*
G54D60*
G1X490716Y295881D3*
G54D61*
G1X492684Y290567D3*
G1X490716Y290567D3*
G1X488747Y290567D3*
G1X488747Y301196D3*
G1X490716Y301196D3*
G1X492684Y301196D3*
G54D53*
G1X459397Y234018D3*
G1X459397Y228506D3*
G54D67*
G1X447577Y270270D3*
G1X451535Y266312D3*
G1X558685Y294698D3*
G1X562643Y290740D3*
G54D59*
G1X518497Y239545D3*
G1X518497Y248206D3*
G54D58*
G1X447183Y280908D3*
G1X451141Y284866D3*
G1X558685Y272240D3*
G1X562643Y276198D3*
G54D55*
G1X502300Y248384D3*
G54D66*
G1X456245Y301002D3*
G1X460185Y362466D3*
G1X454587Y362466D3*
G1X475157Y255692D3*
G1X469559Y255692D3*
G1X475157Y263572D3*
G1X469559Y263572D3*
G1X468853Y292728D3*
G1X474451Y292728D3*
G1X468853Y284848D3*
G1X474451Y284848D3*
G1X461843Y301002D3*
G1X468853Y301002D3*
G1X474451Y301002D3*
G1X468853Y308882D3*
G1X474451Y308882D3*
G1X468459Y341978D3*
G1X462861Y341978D3*
G1X468459Y349464D3*
G1X462861Y349464D3*
G1X469247Y373892D3*
G1X463649Y373892D3*
G1X494463Y234416D3*
G1X483399Y247399D3*
G1X488997Y247399D3*
G1X489341Y255692D3*
G1X483743Y255692D3*
G1X483825Y263572D3*
G1X489423Y263572D3*
G1X486977Y283272D3*
G1X492575Y283272D3*
G1X484974Y309230D3*
G1X490572Y309230D3*
G1X497533Y309276D3*
G1X497615Y317156D3*
G1X484613Y329764D3*
G1X490211Y329764D3*
G1X497615Y325036D3*
G1X496433Y362466D3*
G1X490835Y362466D3*
G1X500061Y234416D3*
G1X505495Y294698D3*
G1X511093Y294698D3*
G1X518415Y316368D3*
G1X503131Y309276D3*
G1X503213Y317156D3*
G1X518415Y324248D3*
G1X503213Y325036D3*
G1X522043Y225354D3*
G1X527641Y225354D3*
G1X522043Y233234D3*
G1X527641Y233234D3*
G1X529529Y248206D3*
G1X535127Y248206D3*
G1X525983Y294698D3*
G1X531581Y294698D3*
G1X524013Y316368D3*
G1X524013Y324248D3*
G1X554351Y308488D3*
G1X573657Y283666D3*
G1X575627Y314004D3*
G1X559949Y308488D3*
G1X568929Y399108D3*
G1X563331Y399108D3*
G1X579255Y283666D3*
G1X581225Y314004D3*
G54D64*
G1X499347Y253502D3*
G1X501316Y253502D3*
G1X503284Y253502D3*
G1X505253Y253502D3*
G1X505253Y243266D3*
G1X503284Y243266D3*
G1X501316Y243266D3*
G1X499347Y243266D3*
G54D68*
G1X467277Y228506D3*
G1X467277Y234104D3*
G1X475945Y228506D3*
G1X475945Y234104D3*
G1X475157Y241902D3*
G1X475157Y247500D3*
G1X468459Y356868D3*
G1X468459Y362466D3*
G1X478703Y379408D3*
G1X478703Y373810D3*
G1X494463Y220150D3*
G1X494463Y225748D3*
G1X485795Y228506D3*
G1X485795Y234104D3*
G1X497615Y263178D3*
G1X497615Y268776D3*
G1X490129Y316680D3*
G1X490129Y322278D3*
G1X516921Y263178D3*
G1X516921Y268776D3*
G1X507071Y263178D3*
G1X507071Y268776D3*
G1X518497Y295092D3*
G1X518497Y289494D3*
G1X518497Y303366D3*
G1X518497Y308964D3*
G1X538985Y289182D3*
G1X538985Y294780D3*
G1X558685Y248206D3*
G1X558685Y253804D3*
G1X542925Y248206D3*
G1X542925Y253804D3*
G1X550805Y248206D3*
G1X550805Y253804D3*
G54D54*
G1X527949Y218656D3*
G1X522437Y218656D3*
G54D31*
G1X537015Y379408D3*
G1X537015Y387810D3*
G54D56*
G1X479841Y363382D3*
G54D27*
G1X556897Y375688D3*
G54D25*
G1X637829Y54888D3*
G1X637829Y65715D3*
G1X637829Y76542D3*
G1X637829Y120242D3*
G1X637829Y141896D3*
G1X637829Y131069D3*
G1X819075Y93156D3*
G1X819075Y103983D3*
G1X819075Y114810D3*
G54D52*
G1X639805Y187905D3*
G54D62*
G1X686255Y150408D3*
G1X686255Y152377D3*
G1X686255Y154345D3*
G1X686255Y156314D3*
G1X705989Y87829D3*
G1X705989Y85860D3*
G1X705989Y83892D3*
G1X695359Y83892D3*
G1X695359Y85860D3*
G1X695359Y87829D3*
G1X693342Y156314D3*
G1X693342Y154345D3*
G1X693342Y152377D3*
G1X693342Y150408D3*
G54D65*
G1X707140Y35410D3*
G1X707140Y37379D3*
G1X707140Y39347D3*
G1X707140Y41316D3*
G1X717376Y41316D3*
G1X717376Y39347D3*
G1X717376Y37379D3*
G1X717376Y35410D3*
G54D51*
G1X649805Y187905D3*
G1X659805Y187905D3*
G1X669805Y187905D3*
G1X679805Y187905D3*
G1X689805Y187905D3*
G1X699805Y187905D3*
G1X709805Y187905D3*
G1X719805Y187905D3*
G1X729805Y187905D3*
G54D57*
G1X785385Y86253D3*
G1X781645Y86253D3*
G1X781645Y96489D3*
G1X785385Y96489D3*
G1X808037Y67735D3*
G1X804297Y67735D3*
G1X800557Y67735D3*
G1X789125Y86253D3*
G1X800557Y77971D3*
G1X804297Y77971D3*
G1X808037Y77971D3*
G1X789125Y96489D3*
G54D63*
G1X799532Y137714D3*
G1X799532Y188698D3*
G54D29*
G1X670143Y11393D3*
G1X670755Y78767D3*
G1X676447Y11393D3*
G1X682751Y11393D3*
G1X689055Y11393D3*
G1X686297Y60249D3*
G1X675265Y105953D3*
G1X672901Y99255D3*
G1X685903Y133139D3*
G1X685903Y139049D3*
G1X685903Y145353D3*
G1X694571Y11393D3*
G1X691813Y60249D3*
G1X694932Y104084D3*
G1X700169Y126753D3*
G1X725697Y10211D3*
G1X725697Y24001D3*
G1X725697Y16909D3*
G1X713255Y67735D3*
G1X722151Y64583D3*
G1X716635Y73251D3*
G1X713089Y103180D3*
G1X721757Y100437D3*
G1X721757Y106741D3*
G1X721757Y113439D3*
G1X713171Y124471D3*
G1X733955Y53157D3*
G1X747761Y188299D3*
G1X759581Y188299D3*
G1X765491Y188299D3*
G1X754065Y178449D3*
G1X759975Y178449D3*
G1X765491Y178449D3*
G1X753671Y188299D3*
G1X756429Y183177D3*
G1X762339Y183177D3*
G1X800557Y62767D3*
G1X808037Y87436D3*
G1X794257Y87436D3*
G1X804297Y82901D3*
G54D60*
G1X700674Y85860D3*
G54D61*
G1X702642Y80546D3*
G1X700674Y80546D3*
G1X698705Y80546D3*
G1X698705Y91175D3*
G1X700674Y91175D3*
G1X702642Y91175D3*
G54D53*
G1X669355Y23997D3*
G1X669355Y18485D3*
G54D67*
G1X657535Y60249D3*
G1X661493Y56291D3*
G1X768643Y84677D3*
G1X772601Y80719D3*
G54D59*
G1X728455Y29524D3*
G1X728455Y38185D3*
G54D58*
G1X657141Y70887D3*
G1X661099Y74845D3*
G1X768643Y62219D3*
G1X772601Y66177D3*
G54D55*
G1X712258Y38363D3*
G54D66*
G1X666203Y90981D3*
G1X670143Y152445D3*
G1X664545Y152445D3*
G1X685115Y45671D3*
G1X679517Y45671D3*
G1X685115Y53551D3*
G1X679517Y53551D3*
G1X678811Y82707D3*
G1X684409Y82707D3*
G1X678811Y74827D3*
G1X684409Y74827D3*
G1X671801Y90981D3*
G1X678811Y90981D3*
G1X684409Y90981D3*
G1X678811Y98861D3*
G1X684409Y98861D3*
G1X678417Y131957D3*
G1X672819Y131957D3*
G1X678417Y139443D3*
G1X672819Y139443D3*
G1X679205Y163871D3*
G1X673607Y163871D3*
G1X704421Y24395D3*
G1X693357Y37378D3*
G1X698955Y37378D3*
G1X699299Y45671D3*
G1X693701Y45671D3*
G1X693783Y53551D3*
G1X699381Y53551D3*
G1X696935Y73251D3*
G1X702533Y73251D3*
G1X694932Y99209D3*
G1X700530Y99209D3*
G1X707491Y99255D3*
G1X707573Y107135D3*
G1X694571Y119743D3*
G1X700169Y119743D3*
G1X707573Y115015D3*
G1X706391Y152445D3*
G1X700793Y152445D3*
G1X710019Y24395D3*
G1X715453Y84677D3*
G1X721051Y84677D3*
G1X728373Y106347D3*
G1X713089Y99255D3*
G1X713171Y107135D3*
G1X728373Y114227D3*
G1X713171Y115015D3*
G1X732001Y15333D3*
G1X737599Y15333D3*
G1X732001Y23213D3*
G1X737599Y23213D3*
G1X739487Y38185D3*
G1X745085Y38185D3*
G1X735941Y84677D3*
G1X741539Y84677D3*
G1X733971Y106347D3*
G1X733971Y114227D3*
G1X764309Y98467D3*
G1X783615Y73645D3*
G1X785585Y103983D3*
G1X769907Y98467D3*
G1X778887Y189087D3*
G1X773289Y189087D3*
G1X789213Y73645D3*
G1X791183Y103983D3*
G54D64*
G1X709305Y43481D3*
G1X711274Y43481D3*
G1X713242Y43481D3*
G1X715211Y43481D3*
G1X715211Y33245D3*
G1X713242Y33245D3*
G1X711274Y33245D3*
G1X709305Y33245D3*
G54D68*
G1X677235Y18485D3*
G1X677235Y24083D3*
G1X685903Y18485D3*
G1X685903Y24083D3*
G1X685115Y31881D3*
G1X685115Y37479D3*
G1X678417Y146847D3*
G1X678417Y152445D3*
G1X688661Y169387D3*
G1X688661Y163789D3*
G1X704421Y10129D3*
G1X704421Y15727D3*
G1X695753Y18485D3*
G1X695753Y24083D3*
G1X707573Y53157D3*
G1X707573Y58755D3*
G1X700087Y106659D3*
G1X700087Y112257D3*
G1X726879Y53157D3*
G1X726879Y58755D3*
G1X717029Y53157D3*
G1X717029Y58755D3*
G1X728455Y85071D3*
G1X728455Y79473D3*
G1X728455Y93345D3*
G1X728455Y98943D3*
G1X748943Y79161D3*
G1X748943Y84759D3*
G1X768643Y38185D3*
G1X768643Y43783D3*
G1X752883Y38185D3*
G1X752883Y43783D3*
G1X760763Y38185D3*
G1X760763Y43783D3*
G54D54*
G1X737907Y8635D3*
G1X732395Y8635D3*
G54D31*
G1X746973Y169387D3*
G1X746973Y177789D3*
G54D56*
G1X689799Y153361D3*
G54D27*
G1X766855Y165667D3*
G54D25*
G1X637853Y255080D3*
G1X637853Y265907D3*
G1X637853Y276733D3*
G1X818955Y264922D3*
G1X818955Y275749D3*
G1X818955Y286576D3*
G1X818955Y330277D3*
G1X818955Y341103D3*
G1X818955Y351930D3*
G54D31*
G1X707979Y357601D3*
G1X707979Y366001D3*
G54D24*
G1X655570Y233623D3*
G1X655570Y240713D3*
G1X665020Y233623D3*
G1X665020Y240713D3*
G54D33*
G1X655875Y247009D3*
G1X661475Y247009D3*
G1X672892Y247009D3*
G1X678492Y247009D3*
G1X672892Y261970D3*
G1X678492Y261970D3*
G1X672892Y254489D3*
G1X678492Y254489D3*
G1X672892Y269450D3*
G1X678492Y269450D3*
G1X672892Y276930D3*
G1X678492Y276930D3*
G1X672892Y284410D3*
G1X678492Y284410D3*
G1X677979Y346001D3*
G1X683579Y346001D3*
G1X710993Y293466D3*
G1X714231Y317481D3*
G1X724073Y263544D3*
G1X718473Y263544D3*
G1X724073Y256064D3*
G1X718473Y256064D3*
G1X724073Y271025D3*
G1X718473Y271025D3*
G1X724073Y278505D3*
G1X718473Y278505D3*
G1X724467Y285985D3*
G1X730067Y285985D3*
G1X729979Y293466D3*
G1X724379Y293466D3*
G1X716593Y293466D3*
G1X726741Y317481D3*
G1X719831Y317481D3*
G1X742971Y293466D3*
G1X742971Y285985D3*
G1X742971Y300946D3*
G1X732341Y317481D3*
G1X748483Y275749D3*
G1X754083Y275749D3*
G1X748571Y293466D3*
G1X748571Y285985D3*
G1X760205Y293466D3*
G1X748571Y300946D3*
G1X760205Y300946D3*
G1X748483Y341103D3*
G1X754083Y341103D3*
G1X768168Y275749D3*
G1X773768Y275749D3*
G1X765805Y293466D3*
G1X765805Y300946D3*
G1X768168Y341103D3*
G1X773768Y341103D3*
G1X787853Y275749D3*
G1X787853Y341103D3*
G1X793453Y275749D3*
G1X793453Y341103D3*
G54D12*
G1X724625Y384253D3*
G1X724625Y394253D3*
G1X744625Y384253D3*
G1X734625Y384253D3*
G1X744625Y394253D3*
G1X734625Y394253D3*
G1X754625Y384253D3*
G1X754625Y394253D3*
G1X764625Y384253D3*
G1X774625Y394253D3*
G1X764625Y394253D3*
G1X784625Y384253D3*
G1X784625Y394253D3*
G1X804625Y384253D3*
G1X794625Y384253D3*
G1X804625Y394253D3*
G1X794625Y394253D3*
G1X814625Y384253D3*
G54D13*
G1X774625Y384253D3*
G1X814625Y394253D3*
G54D29*
G1X651581Y251603D3*
G1X666979Y265701D3*
G1X666979Y280601D3*
G1X666979Y273201D3*
G1X691279Y236001D3*
G1X698779Y236001D3*
G1X690379Y304701D3*
G1X695479Y356001D3*
G1X689479Y356001D3*
G1X689979Y348001D3*
G1X695479Y348001D3*
G1X700979Y348001D3*
G1X700979Y356001D3*
G1X706479Y348001D3*
G1X718473Y250001D3*
G1X729979Y259801D3*
G1X729979Y274801D3*
G1X754479Y300001D3*
G1X754479Y294501D3*
G54D26*
G1X657535Y346814D3*
G1X657535Y397794D3*
G54D34*
G1X686672Y294647D3*
G1X686672Y289047D3*
G1X687459Y242284D3*
G1X687459Y247884D3*
G1X694940Y242284D3*
G1X694940Y247884D3*
G1X694152Y294647D3*
G1X694152Y289047D3*
G1X701633Y294647D3*
G1X701633Y289047D3*
G1X709900Y242284D3*
G1X709900Y247884D3*
G1X702420Y242284D3*
G1X702420Y247884D3*
G1X710294Y304489D3*
G1X710294Y310089D3*
G1X702814Y310001D3*
G1X702814Y304401D3*
G1X725255Y304489D3*
G1X725255Y310089D3*
G1X717774Y310001D3*
G1X717774Y304401D3*
G1X761081Y270237D3*
G1X761081Y275837D3*
G1X761081Y341015D3*
G1X761081Y346615D3*
G1X780766Y270237D3*
G1X780766Y275837D3*
G1X780766Y341015D3*
G1X780766Y346615D3*
G54D27*
G1X690215Y369844D3*
G54D30*
G1X688940Y260095D3*
G1X688940Y262065D3*
G1X688940Y264035D3*
G1X688940Y266005D3*
G1X688940Y267975D3*
G1X688940Y269945D3*
G1X688940Y271915D3*
G1X688940Y273875D3*
G1X708420Y267975D3*
G1X708420Y266005D3*
G1X708420Y264035D3*
G1X708420Y262065D3*
G1X708420Y260095D3*
G1X708420Y273875D3*
G1X708420Y271915D3*
G1X708420Y269945D3*
G54D32*
G1X698680Y266985D3*
G54D28*
G1X699660Y257245D3*
G1X697700Y257245D3*
G1X695730Y257245D3*
G1X693760Y257245D3*
G1X691790Y257245D3*
G1X691790Y276735D3*
G1X693760Y276735D3*
G1X695730Y276735D3*
G1X697700Y276735D3*
G1X699660Y276735D3*
G1X705570Y257245D3*
G1X703600Y257245D3*
G1X701630Y257245D3*
G1X701630Y276735D3*
G1X703600Y276735D3*
G1X705570Y276735D3*
M2*
