*
%LPD*%
%LNtransceiverBOTTOM*%
%FSLAX25Y25*%
%MOIN*%
%AD*%
%AD*%
%ADD10C,0.02*%
%ADD11C,0.03*%
%ADD12C,0.058*%
%ADD13R,0.058X0.058*%
%ADD14C,0.005*%
%ADD15C,0.01*%
%ADD16C,0.050016142*%
%ADD17C,0.078016142*%
%ADD18C,0.084016142*%
%ADD46R,0.062011811X0.062011811*%
%ADD47C,0.062011811*%
%ADD48C,0.078007874*%
G54D10*
%SRX1Y1I0.0J0.0*%
G36*
G1X0Y0D2*
G1X196850Y0D1*
G1X196850Y196850D1*
G1X0Y196850D1*
G1X0Y0D1*
G37*
%LPC*%
G36*
G1X181746Y180351D2*
G1X187546Y180351D1*
G75*
G3X188546Y181352I-2J1001D1*
G1X188546Y187152D1*
G3X187546Y188153I-1001J0D1*
G1X181746Y188153D1*
G3X180745Y187152I0J-1002D1*
G1X180745Y181352D1*
G3X181746Y180351I1001J0D1*
G37*
G36*
G1X67418Y35501D2*
G1X80189Y35501D1*
G1X85333Y40646D1*
G2X86013Y40313I282J-283D1*
G3X88182Y42481I2481J-314D1*
G2X87849Y43161I-51J396D1*
G1X102236Y57548D1*
G1X107874Y57548D1*
G1X186546Y136220D1*
G1X186546Y170846D1*
G3X182745Y170846I-1901J3405D1*
G1X182745Y137795D1*
G1X177229Y132280D1*
G2X176546Y132563I-283J282D1*
G1X176546Y170846D1*
G3X172745Y170846I-1901J3405D1*
G1X172745Y131233D1*
G1X127252Y85740D1*
G2X126628Y85813I-284J283D1*
G3X123187Y82372I-2128J-1313D1*
G2X123260Y81748I-211J-341D1*
G1X104830Y63318D1*
G1X102691Y63318D1*
G2X102320Y63867I0J399D1*
G3X97680Y63867I-2320J933D1*
G2X97309Y63318I-372J-150D1*
G1X90594Y63318D1*
G2X90311Y64001I-1J400D1*
G1X166546Y140236D1*
G1X166546Y170846D1*
G3X162745Y170846I-1901J3405D1*
G1X162745Y141811D1*
G1X157229Y136295D1*
G2X156546Y136578I-283J282D1*
G1X156546Y170846D1*
G3X152745Y170846I-1901J3405D1*
G1X152745Y134961D1*
G1X147229Y129445D1*
G2X146546Y129728I-283J282D1*
G1X146546Y170351D1*
G1X147546Y170351D1*
G3X148546Y171352I-2J1001D1*
G1X148546Y177152D1*
G3X147546Y178153I-1001J0D1*
G1X141746Y178153D1*
G3X140745Y177152I0J-1002D1*
G1X140745Y171352D1*
G3X141746Y170351I1001J0D1*
G1X142745Y170351D1*
G1X142745Y128110D1*
G1X137229Y122594D1*
G2X136546Y122877I-283J283D1*
G1X136546Y170846D1*
G3X132745Y170846I-1901J3405D1*
G1X132745Y120866D1*
G1X127229Y115350D1*
G2X126546Y115633I-283J282D1*
G1X126546Y170846D1*
G3X122745Y170846I-1901J3405D1*
G1X122745Y113622D1*
G1X117229Y108106D1*
G2X116546Y108389I-283J283D1*
G1X116546Y170846D1*
G3X112745Y170846I-1901J3405D1*
G1X112745Y106772D1*
G1X107229Y101256D1*
G2X106546Y101539I-283J283D1*
G1X106546Y170846D1*
G3X102745Y170846I-1901J3405D1*
G1X102745Y100640D1*
G1X74363Y72258D1*
G3X73264Y70472I902J-1787D1*
G3X73393Y69765I1997J-1D1*
G2X73019Y69224I-375J-142D1*
G1X61417Y69224D1*
G1X55973Y63780D1*
G1X55973Y50000D1*
G1X61110Y44863D1*
G2X61119Y44307I-283J-283D1*
G3X61677Y41153I1460J-1369D1*
G1X63418Y39412D1*
G1X63507Y39412D1*
G1X67418Y35501D1*
G37*
G74*
G54D18*
G1X94646Y184252D3*
G1X114646Y184252D3*
G1X104646Y184252D3*
G1X124646Y184252D3*
G1X134646Y184252D3*
G54D16*
G1X21602Y41602D3*
G1X37000Y55700D3*
G1X37000Y70600D3*
G1X37000Y63200D3*
G1X68800Y26000D3*
G1X61300Y26000D3*
G1X60400Y94700D3*
G1X71000Y146000D3*
G1X65500Y146000D3*
G1X59500Y146000D3*
G1X65500Y138000D3*
G1X60000Y138000D3*
G1X71000Y138000D3*
G1X76500Y138000D3*
G1X100000Y49800D3*
G1X124500Y90000D3*
G54D17*
G1X94646Y174252D3*
G1X144646Y184252D3*
G1X154646Y184252D3*
G1X174646Y184252D3*
G1X164646Y184252D3*
%LPD*%
G54D10*
G1X9843Y29528D3*
G1X9449Y39764D3*
G1X5118Y39764D3*
G1X4331Y72835D3*
G1X9055Y72835D3*
G1X9843Y88583D3*
G1X9843Y108268D3*
G1X9843Y127953D3*
G1X9843Y147638D3*
G1X9843Y167323D3*
G1X9843Y187008D3*
G1X19685Y19685D3*
G1X19685Y59055D3*
G1X19685Y78740D3*
G1X19685Y98425D3*
G1X19685Y118110D3*
G1X19685Y157480D3*
G1X19685Y177165D3*
G1X29528Y9843D3*
G1X39370Y19685D3*
G1X29921Y49213D3*
G1X38189Y48425D3*
G1X39370Y59055D3*
G1X29528Y68898D3*
G1X39370Y78740D3*
G1X39370Y98425D3*
G1X29528Y88583D3*
G1X39370Y118110D3*
G1X29528Y108268D3*
G1X39370Y157480D3*
G1X39370Y177165D3*
G1X29528Y167323D3*
G1X49213Y9843D3*
G1X55512Y52362D3*
G1X49213Y88583D3*
G1X49213Y108268D3*
G1X49213Y127953D3*
G1X49213Y187008D3*
G1X68898Y9843D3*
G1X59055Y19685D3*
G1X62579Y42939D3*
G1X68504Y57480D3*
G1X64961Y57480D3*
G1X64961Y53937D3*
G1X68504Y53937D3*
G1X67721Y43701D3*
G1X64961Y43701D3*
G1X64961Y60630D3*
G1X68504Y60630D3*
G1X59055Y98425D3*
G1X68110Y100000D3*
G1X64173Y89370D3*
G1X59055Y118110D3*
G1X68898Y108268D3*
G1X68898Y127953D3*
G1X59055Y177165D3*
G1X68898Y187008D3*
G1X78740Y19685D3*
G1X76378Y43307D3*
G1X81792Y54034D3*
G1X78346Y46340D3*
G1X72047Y53937D3*
G1X72047Y57480D3*
G1X81890Y51181D3*
G1X80709Y48425D3*
G1X72047Y60630D3*
G1X75265Y70472D3*
G1X71654Y89370D3*
G1X78740Y118110D3*
G1X78740Y177165D3*
G1X88583Y9843D3*
G1X98425Y19685D3*
G1X98425Y39370D3*
G1X94094Y41339D3*
G1X98819Y71260D3*
G1X100000Y100394D3*
G1X98425Y118110D3*
G1X88583Y127953D3*
G1X98425Y137795D3*
G1X88583Y147638D3*
G1X98425Y157480D3*
G1X108268Y9843D3*
G1X108268Y29528D3*
G1X108268Y147638D3*
G1X127953Y9843D3*
G1X118110Y19685D3*
G1X118110Y39370D3*
G1X127953Y29528D3*
G1X127953Y49213D3*
G1X118110Y59055D3*
G1X118110Y118110D3*
G1X118110Y137795D3*
G1X127953Y147638D3*
G1X118110Y157480D3*
G1X137795Y19685D3*
G1X137795Y39370D3*
G1X131102Y55512D3*
G1X137795Y59055D3*
G1X137795Y78740D3*
G1X137795Y98425D3*
G1X137795Y137795D3*
G1X131496Y141339D3*
G1X137795Y157480D3*
G1X147638Y9843D3*
G1X157480Y19685D3*
G1X157480Y39370D3*
G1X147638Y29528D3*
G1X147638Y49213D3*
G1X150787Y55512D3*
G1X157480Y59055D3*
G1X157480Y78740D3*
G1X157480Y98425D3*
G1X147638Y88583D3*
G1X157480Y118110D3*
G1X157874Y138583D3*
G1X147638Y147638D3*
G1X150787Y141339D3*
G1X158268Y157480D3*
G1X167323Y9843D3*
G1X167323Y29528D3*
G1X167323Y49213D3*
G1X167323Y88583D3*
G1X167323Y108268D3*
G1X167323Y147638D3*
G1X187008Y9843D3*
G1X177165Y19685D3*
G1X177165Y39370D3*
G1X187008Y29528D3*
G1X187402Y49213D3*
G1X177165Y59055D3*
G1X177165Y78740D3*
G1X185827Y81890D3*
G1X177165Y98425D3*
G1X187008Y88583D3*
G1X177165Y118110D3*
G1X187008Y108268D3*
G1X186220Y114567D3*
G1X177953Y137795D3*
G1X187795Y147638D3*
G1X177953Y157480D3*
G1X192913Y49213D3*
G1X192520Y81890D3*
G1X192913Y114567D3*
G1X192520Y147638D3*
G54D11*
G1X21602Y41602D3*
G1X37000Y55700D3*
G1X37000Y70600D3*
G1X37000Y63200D3*
G1X61300Y26000D3*
G1X68800Y26000D3*
G1X60400Y94700D3*
G1X65500Y146000D3*
G1X59500Y146000D3*
G1X60000Y138000D3*
G1X65500Y138000D3*
G1X71000Y138000D3*
G1X71000Y146000D3*
G1X76500Y138000D3*
G1X88494Y40000D3*
G1X100000Y49800D3*
G1X100000Y64800D3*
G1X124500Y90000D3*
G1X124500Y84500D3*
G54D12*
G1X94646Y174252D3*
G1X94646Y184252D3*
G1X114646Y174252D3*
G1X104646Y174252D3*
G1X114646Y184252D3*
G1X104646Y184252D3*
G1X124646Y174252D3*
G1X124646Y184252D3*
G1X134646Y174252D3*
G1X144646Y184252D3*
G1X134646Y184252D3*
G1X154646Y174252D3*
G1X154646Y184252D3*
G1X174646Y174252D3*
G1X164646Y174252D3*
G1X174646Y184252D3*
G1X164646Y184252D3*
G1X184646Y174252D3*
G54D13*
G1X144646Y174252D3*
G1X184646Y184252D3*
G1X94646Y179851D2*
G54D14*
G1X94646Y184252D1*
G1X94646Y188653D1*
G1X90245Y184252D2*
G1X94646Y184252D1*
G1X99046Y184252D1*
G1X104646Y179851D2*
G1X104646Y184252D1*
G1X104646Y188653D1*
G1X100245Y184252D2*
G1X104646Y184252D1*
G1X109046Y184252D1*
G1X114646Y179851D2*
G1X114646Y184252D1*
G1X114646Y188653D1*
G1X110245Y184252D2*
G1X114646Y184252D1*
G1X119046Y184252D1*
G1X124646Y179851D2*
G1X124646Y184252D1*
G1X124646Y188653D1*
G1X120245Y184252D2*
G1X124646Y184252D1*
G1X129046Y184252D1*
G1X134646Y179851D2*
G1X134646Y184252D1*
G1X134646Y188653D1*
G1X130245Y184252D2*
G1X134646Y184252D1*
G1X139046Y184252D1*
G1X184646Y174252D2*
G54D15*
G1X184646Y137008D1*
G1X107087Y59449D1*
G1X101449Y59449D1*
G1X79402Y37402D1*
G1X68206Y37402D1*
G1X64294Y41313D1*
G1X64206Y41313D1*
G1X62579Y42939D1*
G1X134646Y174252D2*
G1X134646Y120079D1*
G1X77559Y62992D1*
G1X63386Y62992D1*
G1X62205Y61811D1*
G1X62205Y53150D1*
G1X70079Y45276D1*
G1X70079Y42520D1*
G1X73228Y39370D1*
G1X78370Y39370D1*
G1X83858Y44858D1*
G1X83858Y49213D1*
G1X81890Y51181D1*
G1X124646Y174252D2*
G1X124646Y112835D1*
G1X77165Y65354D1*
G1X62992Y65354D1*
G1X59843Y62205D1*
G1X59843Y52362D1*
G1X67721Y44484D1*
G1X67721Y43701D1*
G1X114646Y174252D2*
G1X114646Y105984D1*
G1X75984Y67323D1*
G1X62204Y67323D1*
G1X57874Y62993D1*
G1X57874Y50787D1*
G1X64961Y43701D1*
G1X144646Y174252D2*
G1X144646Y127322D1*
G1X74047Y56724D1*
G1X74047Y42094D1*
G1X75197Y40945D1*
G1X77202Y40945D1*
G1X80709Y44451D1*
G1X80709Y48425D1*
G1X174646Y174252D2*
G1X174646Y130446D1*
G1X105617Y61417D1*
G1X89175Y61417D1*
G1X81792Y54034D1*
G1X154646Y174252D2*
G1X154646Y134173D1*
G1X75984Y55512D1*
G1X75984Y45276D1*
G1X76378Y44882D1*
G1X76378Y43307D1*
G1X164646Y174252D2*
G1X164646Y141024D1*
G1X78346Y54724D1*
G1X78346Y46340D1*
G1X104646Y174252D2*
G1X104646Y99853D1*
G1X75265Y70472D1*
G54D10*
G36*
G1X210106Y-15D2*
G1X406906Y-15D1*
G1X406906Y196785D1*
G1X210106Y196785D1*
G1X210106Y-15D1*
G37*
%LPC*%
G36*
G1X216756Y184322D2*
G1X222956Y184322D1*
G75*
G3X223457Y184823I0J500D1*
G1X223457Y191024D1*
G3X222956Y191524I-501J-1D1*
G1X216756Y191524D1*
G3X216255Y191024I0J-502D1*
G1X216255Y184823D1*
G3X216756Y184322I501J0D1*
G37*
G36*
G1X341969Y180041D2*
G2X342297Y180696I313J252D1*
G3X340447Y181621I93J2498D1*
G2X340119Y180966I-313J-254D1*
G3X341969Y180041I-94J-2499D1*
G37*
G36*
G1X336059Y180041D2*
G2X336386Y180696I312J252D1*
G3X334537Y181620I93J2498D1*
G2X334210Y180966I-312J-253D1*
G3X336059Y180041I-95J-2499D1*
G37*
G36*
G1X230676Y184415D2*
G1X266550Y148541D1*
G2X266223Y147857I-284J-285D1*
G3X268440Y145639I-270J-2487D1*
G2X269124Y145966I399J42D1*
G1X289341Y125750D1*
G1X289341Y125681D1*
G1X290728Y124295D1*
G1X290736Y124224D1*
G3X294223Y122197I2486J265D1*
G2X294785Y121828I159J-369D1*
G1X294785Y74894D1*
G3X298587Y74894I1901J-1626D1*
G1X298587Y131880D1*
G1X243365Y187103D1*
G1X243386Y187209D1*
G3X240571Y184393I-3530J713D1*
G1X240676Y184415D1*
G1X294785Y130305D1*
G1X294785Y127149D1*
G2X294223Y126781I-401J-1D1*
G3X293486Y126976I-1005J-2306D1*
G1X293416Y126983D1*
G1X293143Y127256D1*
G1X293143Y127324D1*
G1X233365Y187103D1*
G1X233386Y187209D1*
G3X230571Y184393I-3530J713D1*
G1X230676Y184415D1*
G37*
G36*
G1X250676Y184415D2*
G1X304635Y130455D1*
G1X304635Y115052D1*
G2X303897Y114831I-402J-1D1*
G3X303897Y112083I-2089J-1374D1*
G2X304635Y111862I335J-222D1*
G1X304635Y108354D1*
G2X303897Y108133I-402J-1D1*
G3X303897Y105385I-2089J-1374D1*
G2X304635Y105164I335J-222D1*
G1X304635Y102050D1*
G2X303897Y101829I-402J-1D1*
G3X303897Y99081I-2089J-1374D1*
G2X304635Y98860I335J-222D1*
G1X304635Y69654D1*
G1X294931Y69654D1*
G3X294931Y65852I-1625J-1901D1*
G1X299428Y65852D1*
G2X299811Y65333I-1J-402D1*
G3X303827Y62700I2391J-733D1*
G1X312627Y62700D1*
G1X314741Y64814D1*
G1X314741Y135726D1*
G1X263365Y187103D1*
G1X263386Y187209D1*
G3X260571Y184393I-3530J713D1*
G1X260676Y184415D1*
G1X310939Y134152D1*
G1X310939Y66502D1*
G1X307943Y66502D1*
G2X307659Y67188I0J401D1*
G1X308437Y67966D1*
G1X308437Y132030D1*
G1X253365Y187103D1*
G1X253386Y187209D1*
G3X250571Y184393I-3530J713D1*
G1X250676Y184415D1*
G37*
G36*
G1X270676Y184415D2*
G1X378707Y76383D1*
G1X378707Y64410D1*
G3X382509Y64410I1901J-1626D1*
G1X382509Y77958D1*
G1X375680Y84786D1*
G2X375736Y85401I286J284D1*
G3X375934Y85554I-1266J1842D1*
G1X382493Y85554D1*
G2X382750Y84842I0J-403D1*
G3X385946Y84842I1597J-1925D1*
G2X386203Y85554I257J309D1*
G1X386461Y85554D1*
G1X386517Y85509D1*
G3X386463Y89355I1571J1945D1*
G1X375934Y89355D1*
G3X372255Y88881I-1625J-1902D1*
G2X371640Y88826I-331J228D1*
G1X273365Y187103D1*
G1X273386Y187209D1*
G3X270571Y184393I-3530J713D1*
G1X270676Y184415D1*
G37*
G74*
G54D16*
G1X250194Y11411D3*
G1X256498Y11411D3*
G1X262802Y11411D3*
G1X266348Y60267D3*
G1X250806Y78785D3*
G1X255316Y105971D3*
G1X252952Y99273D3*
G1X265954Y133157D3*
G1X265954Y139067D3*
G1X269106Y11411D3*
G1X274622Y11411D3*
G1X271864Y60267D3*
G1X280220Y126771D3*
G1X305748Y16927D3*
G1X305748Y10229D3*
G1X305748Y24019D3*
G1X314006Y53175D3*
G1X339632Y188317D3*
G1X327812Y188317D3*
G1X333722Y188317D3*
G1X345542Y188317D3*
G1X345542Y178467D3*
G54D48*
G1X279856Y187923D3*
G1X289856Y187923D3*
G1X299856Y187923D3*
G1X309856Y187923D3*
%LPD*%
G54D10*
G1X219849Y9828D3*
G1X229691Y9828D3*
G1X229691Y19670D3*
G1X219849Y19670D3*
G1X219849Y29513D3*
G1X229691Y29513D3*
G1X229691Y39355D3*
G1X219849Y39355D3*
G1X229691Y49198D3*
G1X219849Y49198D3*
G1X229691Y59040D3*
G1X229691Y88568D3*
G1X219849Y88568D3*
G1X229691Y98410D3*
G1X229691Y108253D3*
G1X219849Y108253D3*
G1X219849Y98410D3*
G1X229691Y118095D3*
G1X219849Y157465D3*
G1X229691Y157465D3*
G1X229691Y167308D3*
G1X219849Y167308D3*
G1X219849Y177150D3*
G1X239534Y9828D3*
G1X239534Y19670D3*
G1X239534Y29513D3*
G1X244849Y24394D3*
G1X239534Y39355D3*
G1X245806Y67885D3*
G1X239534Y88568D3*
G1X239534Y108253D3*
G1X239534Y98410D3*
G1X246226Y96245D3*
G1X239534Y118095D3*
G1X249376Y118095D3*
G1X239534Y127938D3*
G1X239534Y137780D3*
G1X248195Y139355D3*
G1X247801Y132268D3*
G1X252919Y28331D3*
G1X254691Y49394D3*
G1X252706Y67885D3*
G1X259406Y67885D3*
G1X266506Y67885D3*
G1X259706Y61185D3*
G1X252706Y61185D3*
G1X263156Y149394D3*
G1X268667Y174001D3*
G1X270636Y28135D3*
G1X283431Y34228D3*
G1X284132Y39946D3*
G1X272406Y68085D3*
G1X279406Y61385D3*
G1X279306Y65085D3*
G1X283906Y65185D3*
G1X278806Y87885D3*
G1X280725Y85878D3*
G1X278806Y83885D3*
G1X282606Y83985D3*
G1X282706Y87985D3*
G1X269806Y152485D3*
G1X269806Y155085D3*
G1X294106Y36585D3*
G1X290506Y40185D3*
G1X290518Y36599D3*
G1X294006Y40285D3*
G1X292309Y38381D3*
G1X293667Y64158D3*
G1X308431Y157465D3*
G1X321817Y5891D3*
G1X322408Y13174D3*
G1X322408Y19670D3*
G1X318274Y49198D3*
G1X328116Y49198D3*
G1X328116Y59040D3*
G1X318274Y59040D3*
G1X318274Y68883D3*
G1X328116Y68883D3*
G1X311975Y58843D3*
G1X317880Y101363D3*
G1X328116Y118095D3*
G1X318274Y127938D3*
G1X319258Y110418D3*
G1X328116Y137780D3*
G1X318274Y147623D3*
G1X328116Y147623D3*
G1X318274Y157465D3*
G1X337959Y9828D3*
G1X347801Y9828D3*
G1X337959Y19670D3*
G1X347801Y19670D3*
G1X337959Y49198D3*
G1X337959Y59040D3*
G1X337959Y68883D3*
G1X337959Y78725D3*
G1X328904Y74788D3*
G1X347801Y118095D3*
G1X337959Y127938D3*
G1X347801Y127938D3*
G1X337959Y137780D3*
G1X347801Y137780D3*
G1X337959Y147623D3*
G1X357644Y9828D3*
G1X367486Y9828D3*
G1X357644Y19670D3*
G1X367486Y19670D3*
G1X357644Y29513D3*
G1X367486Y29513D3*
G1X357644Y39355D3*
G1X367486Y39355D3*
G1X357644Y49198D3*
G1X367486Y49198D3*
G1X367486Y59040D3*
G1X357644Y118095D3*
G1X367486Y118095D3*
G1X357644Y127938D3*
G1X367486Y127938D3*
G1X357644Y137780D3*
G1X357644Y147623D3*
G1X367486Y147623D3*
G1X367486Y157465D3*
G1X367486Y167308D3*
G1X367486Y177150D3*
G1X359415Y183843D3*
G1X387171Y9828D3*
G1X377329Y9828D3*
G1X387171Y19670D3*
G1X377329Y19670D3*
G1X377329Y29513D3*
G1X387171Y29513D3*
G1X377329Y39355D3*
G1X387171Y39355D3*
G1X377329Y49198D3*
G1X387171Y49198D3*
G1X377329Y59040D3*
G1X387171Y59040D3*
G1X387171Y108253D3*
G1X387171Y98410D3*
G1X387171Y118095D3*
G1X377329Y118095D3*
G1X387171Y127938D3*
G1X377329Y127938D3*
G1X387171Y147623D3*
G1X377329Y147623D3*
G1X387171Y157465D3*
G1X377329Y157465D3*
G1X387171Y167308D3*
G1X377329Y167308D3*
G1X377329Y177150D3*
G1X387171Y177150D3*
G1X397014Y9828D3*
G1X397014Y19670D3*
G1X397014Y29513D3*
G1X397014Y39355D3*
G1X397014Y49198D3*
G1X397014Y68883D3*
G1X397014Y59040D3*
G1X397014Y78725D3*
G1X397014Y127938D3*
G1X397014Y137780D3*
G1X397014Y147623D3*
G1X397014Y157465D3*
G1X397014Y167308D3*
G1X397014Y186993D3*
G1X397014Y177150D3*
G54D46*
G1X219856Y187923D3*
G54D47*
G1X229856Y187923D3*
G1X239856Y187923D3*
G1X249856Y187923D3*
G1X259856Y187923D3*
G1X269856Y187923D3*
G1X279856Y187923D3*
G1X289856Y187923D3*
G1X299856Y187923D3*
G1X309856Y187923D3*
G54D11*
G1X250194Y11411D3*
G1X250806Y78785D3*
G1X256498Y11411D3*
G1X262802Y11411D3*
G1X269106Y11411D3*
G1X266348Y60267D3*
G1X255316Y105971D3*
G1X252952Y99273D3*
G1X265954Y133157D3*
G1X265954Y139067D3*
G1X265954Y145371D3*
G1X274622Y11411D3*
G1X271864Y60267D3*
G1X274983Y104102D3*
G1X280220Y126771D3*
G1X305748Y10229D3*
G1X305748Y24019D3*
G1X305748Y16927D3*
G1X293306Y67753D3*
G1X302202Y64601D3*
G1X296686Y73269D3*
G1X293140Y103198D3*
G1X301808Y100455D3*
G1X301808Y106759D3*
G1X301808Y113457D3*
G1X293222Y124489D3*
G1X314006Y53175D3*
G1X327812Y188317D3*
G1X339632Y188317D3*
G1X345542Y188317D3*
G1X334116Y178467D3*
G1X340026Y178467D3*
G1X345542Y178467D3*
G1X333722Y188317D3*
G1X336480Y183195D3*
G1X342390Y183195D3*
G1X380608Y62785D3*
G1X388088Y87454D3*
G1X374308Y87454D3*
G1X384348Y82919D3*
G1X285755Y187923D2*
G54D14*
G1X289856Y187923D1*
G1X279856Y183822D2*
G1X279856Y187923D1*
G1X279856Y192024D1*
G1X275755Y187923D2*
G1X279856Y187923D1*
G1X283957Y187923D1*
G1X305755Y187923D2*
G1X309856Y187923D1*
G1X299856Y183822D2*
G1X299856Y187923D1*
G1X299856Y192024D1*
G1X295755Y187923D2*
G1X299856Y187923D1*
G1X303957Y187923D1*
G1X289856Y183822D2*
G1X289856Y187923D1*
G1X289856Y192024D1*
G1X289856Y187923D2*
G1X293957Y187923D1*
G1X309856Y183822D2*
G1X309856Y187923D1*
G1X309856Y192024D1*
G1X309856Y187923D2*
G1X313957Y187923D1*
G1X296686Y73269D2*
G54D15*
G1X296686Y131093D1*
G1X239856Y187923D1*
G1X293222Y124489D2*
G1X291242Y126469D1*
G1X291242Y126537D1*
G1X229856Y187923D1*
G1X293306Y67753D2*
G1X305536Y67753D1*
G1X306536Y68753D1*
G1X306536Y131243D1*
G1X249856Y187923D1*
G1X259856Y187923D2*
G1X312840Y134939D1*
G1X312840Y65601D1*
G1X311840Y64601D1*
G1X302202Y64601D1*
G1X380608Y62785D2*
G1X380608Y77171D1*
G1X269856Y187923D1*
G1X388088Y87454D2*
G1X374308Y87454D1*
G54D10*
G36*
G1X420106Y-20D2*
G1X616906Y-20D1*
G1X616906Y196780D1*
G1X420106Y196780D1*
G1X420106Y-20D1*
G37*
%LPC*%
G36*
G1X426756Y184317D2*
G1X432956Y184317D1*
G75*
G3X433457Y184818I-1J501D1*
G1X433457Y191019D1*
G3X432956Y191519I-502J-2D1*
G1X426756Y191519D1*
G3X426255Y191019I-1J-501D1*
G1X426255Y184818D1*
G3X426756Y184317I500J-1D1*
G37*
G36*
G1X551969Y180036D2*
G2X552297Y180691I312J253D1*
G3X550447Y181616I93J2498D1*
G2X550119Y180961I-314J-253D1*
G3X551969Y180036I-94J-2500D1*
G37*
G36*
G1X546059Y180036D2*
G2X546386Y180691I311J253D1*
G3X544537Y181615I93J2498D1*
G2X544210Y180961I-313J-253D1*
G3X546059Y180036I-95J-2499D1*
G37*
G36*
G1X440676Y184410D2*
G1X476550Y148536D1*
G2X476223Y147852I-285J-285D1*
G3X478440Y145634I-270J-2487D1*
G2X479124Y145961I399J42D1*
G1X499341Y125745D1*
G1X499341Y125676D1*
G1X500728Y124290D1*
G1X500736Y124219D1*
G3X504223Y122192I2486J264D1*
G2X504785Y121823I159J-370D1*
G1X504785Y74889D1*
G3X508587Y74889I1901J-1626D1*
G1X508587Y131875D1*
G1X453365Y187098D1*
G1X453386Y187204D1*
G3X450571Y184388I-3531J713D1*
G1X450676Y184410D1*
G1X504785Y130300D1*
G1X504785Y127144D1*
G2X504223Y126776I-402J-1D1*
G3X503486Y126971I-1008J-2316D1*
G1X503416Y126978D1*
G1X503143Y127251D1*
G1X503143Y127319D1*
G1X443365Y187098D1*
G1X443386Y187204D1*
G3X440571Y184388I-3531J713D1*
G1X440676Y184410D1*
G37*
G36*
G1X460676Y184410D2*
G1X514635Y130450D1*
G1X514635Y115047D1*
G2X513897Y114826I-403J-1D1*
G3X513897Y112078I-2090J-1374D1*
G2X514635Y111857I335J-222D1*
G1X514635Y108349D1*
G2X513897Y108128I-403J-1D1*
G3X513897Y105380I-2090J-1374D1*
G2X514635Y105159I335J-222D1*
G1X514635Y102045D1*
G2X513897Y101824I-403J-1D1*
G3X513897Y99076I-2090J-1374D1*
G2X514635Y98855I335J-222D1*
G1X514635Y69649D1*
G1X504931Y69649D1*
G3X504931Y65847I-1626J-1901D1*
G1X509427Y65847D1*
G2X509811Y65328I-1J-402D1*
G3X513827Y62695I2390J-733D1*
G1X522627Y62695D1*
G1X524741Y64809D1*
G1X524741Y135721D1*
G1X473365Y187098D1*
G1X473386Y187204D1*
G3X470571Y184388I-3531J713D1*
G1X470676Y184410D1*
G1X520939Y134147D1*
G1X520939Y66497D1*
G1X517943Y66497D1*
G2X517659Y67183I-1J401D1*
G1X518437Y67961D1*
G1X518437Y132025D1*
G1X463365Y187098D1*
G1X463386Y187204D1*
G3X460571Y184388I-3531J713D1*
G1X460676Y184410D1*
G37*
G36*
G1X480676Y184410D2*
G1X588707Y76378D1*
G1X588707Y64405D1*
G3X592509Y64405I1900J-1626D1*
G1X592509Y77953D1*
G1X585680Y84781D1*
G2X585736Y85396I284J284D1*
G3X585934Y85549I-1450J2080D1*
G1X592493Y85549D1*
G2X592750Y84837I-1J-403D1*
G3X595946Y84837I1597J-1925D1*
G2X596203Y85549I256J309D1*
G1X596461Y85549D1*
G1X596517Y85504D1*
G3X596463Y89350I1570J1945D1*
G1X585934Y89350D1*
G3X582255Y88876I-1626J-1902D1*
G2X581640Y88821I-331J228D1*
G1X483365Y187098D1*
G1X483386Y187204D1*
G3X480571Y184388I-3531J713D1*
G1X480676Y184410D1*
G37*
G74*
G54D16*
G1X460194Y11406D3*
G1X466498Y11406D3*
G1X472802Y11406D3*
G1X476348Y60262D3*
G1X460806Y78780D3*
G1X465316Y105966D3*
G1X462952Y99268D3*
G1X475954Y133152D3*
G1X475954Y139062D3*
G1X479106Y11406D3*
G1X484622Y11406D3*
G1X481864Y60262D3*
G1X490220Y126766D3*
G1X515748Y16922D3*
G1X515748Y10224D3*
G1X515748Y24014D3*
G1X524006Y53170D3*
G1X549632Y188312D3*
G1X537812Y188312D3*
G1X543722Y188312D3*
G1X555542Y188312D3*
G1X555542Y178462D3*
G54D48*
G1X489856Y187918D3*
G1X499856Y187918D3*
G1X509856Y187918D3*
G1X519856Y187918D3*
%LPD*%
G54D10*
G1X429849Y9823D3*
G1X439691Y9823D3*
G1X439691Y19665D3*
G1X429849Y19665D3*
G1X429849Y29508D3*
G1X439691Y29508D3*
G1X439691Y39350D3*
G1X429849Y39350D3*
G1X439691Y49193D3*
G1X429849Y49193D3*
G1X439691Y59035D3*
G1X439691Y88563D3*
G1X429849Y88563D3*
G1X439691Y98405D3*
G1X439691Y108248D3*
G1X429849Y108248D3*
G1X429849Y98405D3*
G1X439691Y118090D3*
G1X429849Y157460D3*
G1X439691Y157460D3*
G1X439691Y167303D3*
G1X429849Y167303D3*
G1X429849Y177145D3*
G1X449534Y9823D3*
G1X449534Y19665D3*
G1X449534Y29508D3*
G1X454849Y24389D3*
G1X449534Y39350D3*
G1X455806Y67880D3*
G1X449534Y88563D3*
G1X449534Y108248D3*
G1X449534Y98405D3*
G1X456226Y96240D3*
G1X449534Y118090D3*
G1X459376Y118090D3*
G1X449534Y127933D3*
G1X449534Y137775D3*
G1X458195Y139350D3*
G1X457801Y132263D3*
G1X462919Y28326D3*
G1X464691Y49389D3*
G1X462706Y67880D3*
G1X469406Y67880D3*
G1X476506Y67880D3*
G1X469706Y61180D3*
G1X462706Y61180D3*
G1X473156Y149389D3*
G1X478667Y173996D3*
G1X480636Y28130D3*
G1X493431Y34223D3*
G1X494132Y39941D3*
G1X482406Y68080D3*
G1X489406Y61380D3*
G1X489306Y65080D3*
G1X493906Y65180D3*
G1X488806Y87880D3*
G1X490725Y85873D3*
G1X488806Y83880D3*
G1X492606Y83980D3*
G1X492706Y87980D3*
G1X479806Y152480D3*
G1X479806Y155080D3*
G1X504106Y36580D3*
G1X500506Y40180D3*
G1X500518Y36594D3*
G1X504006Y40280D3*
G1X502309Y38376D3*
G1X503667Y64153D3*
G1X518431Y157460D3*
G1X531817Y5886D3*
G1X532408Y13169D3*
G1X532408Y19665D3*
G1X528274Y49193D3*
G1X538116Y49193D3*
G1X538116Y59035D3*
G1X528274Y59035D3*
G1X528274Y68878D3*
G1X538116Y68878D3*
G1X521975Y58838D3*
G1X527880Y101358D3*
G1X538116Y118090D3*
G1X528274Y127933D3*
G1X529258Y110413D3*
G1X538116Y137775D3*
G1X528274Y147618D3*
G1X538116Y147618D3*
G1X528274Y157460D3*
G1X547959Y9823D3*
G1X557801Y9823D3*
G1X547959Y19665D3*
G1X557801Y19665D3*
G1X547959Y49193D3*
G1X547959Y59035D3*
G1X547959Y68878D3*
G1X547959Y78720D3*
G1X538904Y74783D3*
G1X557801Y118090D3*
G1X547959Y127933D3*
G1X557801Y127933D3*
G1X547959Y137775D3*
G1X557801Y137775D3*
G1X547959Y147618D3*
G1X567644Y9823D3*
G1X577486Y9823D3*
G1X567644Y19665D3*
G1X577486Y19665D3*
G1X567644Y29508D3*
G1X577486Y29508D3*
G1X567644Y39350D3*
G1X577486Y39350D3*
G1X567644Y49193D3*
G1X577486Y49193D3*
G1X577486Y59035D3*
G1X567644Y118090D3*
G1X577486Y118090D3*
G1X567644Y127933D3*
G1X577486Y127933D3*
G1X567644Y137775D3*
G1X567644Y147618D3*
G1X577486Y147618D3*
G1X577486Y157460D3*
G1X577486Y167303D3*
G1X577486Y177145D3*
G1X569415Y183838D3*
G1X597171Y9823D3*
G1X587329Y9823D3*
G1X597171Y19665D3*
G1X587329Y19665D3*
G1X587329Y29508D3*
G1X597171Y29508D3*
G1X587329Y39350D3*
G1X597171Y39350D3*
G1X587329Y49193D3*
G1X597171Y49193D3*
G1X587329Y59035D3*
G1X597171Y59035D3*
G1X597171Y108248D3*
G1X597171Y98405D3*
G1X597171Y118090D3*
G1X587329Y118090D3*
G1X597171Y127933D3*
G1X587329Y127933D3*
G1X597171Y147618D3*
G1X587329Y147618D3*
G1X597171Y157460D3*
G1X587329Y157460D3*
G1X597171Y167303D3*
G1X587329Y167303D3*
G1X587329Y177145D3*
G1X597171Y177145D3*
G1X607014Y9823D3*
G1X607014Y19665D3*
G1X607014Y29508D3*
G1X607014Y39350D3*
G1X607014Y49193D3*
G1X607014Y68878D3*
G1X607014Y59035D3*
G1X607014Y78720D3*
G1X607014Y127933D3*
G1X607014Y137775D3*
G1X607014Y147618D3*
G1X607014Y157460D3*
G1X607014Y167303D3*
G1X607014Y186988D3*
G1X607014Y177145D3*
G54D46*
G1X429856Y187918D3*
G54D47*
G1X439856Y187918D3*
G1X449856Y187918D3*
G1X459856Y187918D3*
G1X469856Y187918D3*
G1X479856Y187918D3*
G1X489856Y187918D3*
G1X499856Y187918D3*
G1X509856Y187918D3*
G1X519856Y187918D3*
G54D11*
G1X460194Y11406D3*
G1X460806Y78780D3*
G1X466498Y11406D3*
G1X472802Y11406D3*
G1X479106Y11406D3*
G1X476348Y60262D3*
G1X465316Y105966D3*
G1X462952Y99268D3*
G1X475954Y133152D3*
G1X475954Y139062D3*
G1X475954Y145366D3*
G1X484622Y11406D3*
G1X481864Y60262D3*
G1X484983Y104097D3*
G1X490220Y126766D3*
G1X515748Y10224D3*
G1X515748Y24014D3*
G1X515748Y16922D3*
G1X503306Y67748D3*
G1X512202Y64596D3*
G1X506686Y73264D3*
G1X503140Y103193D3*
G1X511808Y100450D3*
G1X511808Y106754D3*
G1X511808Y113452D3*
G1X503222Y124484D3*
G1X524006Y53170D3*
G1X537812Y188312D3*
G1X549632Y188312D3*
G1X555542Y188312D3*
G1X544116Y178462D3*
G1X550026Y178462D3*
G1X555542Y178462D3*
G1X543722Y188312D3*
G1X546480Y183190D3*
G1X552390Y183190D3*
G1X590608Y62780D3*
G1X598088Y87449D3*
G1X584308Y87449D3*
G1X594348Y82914D3*
G1X495755Y187918D2*
G54D14*
G1X499856Y187918D1*
G1X489856Y183817D2*
G1X489856Y187918D1*
G1X489856Y192019D1*
G1X485755Y187918D2*
G1X489856Y187918D1*
G1X493957Y187918D1*
G1X515755Y187918D2*
G1X519856Y187918D1*
G1X509856Y183817D2*
G1X509856Y187918D1*
G1X509856Y192019D1*
G1X505755Y187918D2*
G1X509856Y187918D1*
G1X513957Y187918D1*
G1X499856Y183817D2*
G1X499856Y187918D1*
G1X499856Y192019D1*
G1X499856Y187918D2*
G1X503957Y187918D1*
G1X519856Y183817D2*
G1X519856Y187918D1*
G1X519856Y192019D1*
G1X519856Y187918D2*
G1X523957Y187918D1*
G1X506686Y73264D2*
G54D15*
G1X506686Y131088D1*
G1X449856Y187918D1*
G1X503222Y124484D2*
G1X501242Y126464D1*
G1X501242Y126532D1*
G1X439856Y187918D1*
G1X503306Y67748D2*
G1X515536Y67748D1*
G1X516536Y68748D1*
G1X516536Y131238D1*
G1X459856Y187918D1*
G1X469856Y187918D2*
G1X522840Y134934D1*
G1X522840Y65596D1*
G1X521840Y64596D1*
G1X512202Y64596D1*
G1X590608Y62780D2*
G1X590608Y77166D1*
G1X479856Y187918D1*
G1X598088Y87449D2*
G1X584308Y87449D1*
G54D10*
G36*
G1X19Y209971D2*
G1X196869Y209971D1*
G1X196869Y406821D1*
G1X19Y406821D1*
G1X19Y209971D1*
G37*
%LPC*%
G36*
G1X181765Y390322D2*
G1X187565Y390322D1*
G75*
G3X188565Y391323I-1J1000D1*
G1X188565Y397123D1*
G3X187565Y398124I-1000J1D1*
G1X181765Y398124D1*
G3X180764Y397123I0J-1002D1*
G1X180764Y391323D1*
G3X181765Y390322I1001J0D1*
G37*
G36*
G1X67437Y245472D2*
G1X80208Y245472D1*
G1X85352Y250617D1*
G2X86032Y250284I283J-283D1*
G3X88201Y252452I2481J-314D1*
G2X87868Y253132I-50J397D1*
G1X102255Y267519D1*
G1X107893Y267519D1*
G1X186565Y346191D1*
G1X186565Y380817D1*
G3X182764Y380817I-1901J3406D1*
G1X182764Y347766D1*
G1X177248Y342251D1*
G2X176565Y342534I-283J283D1*
G1X176565Y380817D1*
G3X172764Y380817I-1901J3406D1*
G1X172764Y341204D1*
G1X127271Y295711D1*
G2X126647Y295784I-284J283D1*
G3X123206Y292343I-2128J-1314D1*
G2X123279Y291719I-210J-341D1*
G1X104849Y273289D1*
G1X102710Y273289D1*
G2X102339Y273838I0J400D1*
G3X97699Y273838I-2320J933D1*
G2X97328Y273289I-371J-150D1*
G1X90613Y273289D1*
G2X90330Y273972I0J400D1*
G1X166565Y350207D1*
G1X166565Y380817D1*
G3X162764Y380817I-1901J3406D1*
G1X162764Y351782D1*
G1X157248Y346266D1*
G2X156565Y346549I-283J283D1*
G1X156565Y380817D1*
G3X152764Y380817I-1901J3406D1*
G1X152764Y344932D1*
G1X147248Y339416D1*
G2X146565Y339699I-283J283D1*
G1X146565Y380322D1*
G1X147565Y380322D1*
G3X148565Y381323I-1J1000D1*
G1X148565Y387123D1*
G3X147565Y388124I-1000J1D1*
G1X141765Y388124D1*
G3X140764Y387123I0J-1002D1*
G1X140764Y381323D1*
G3X141765Y380322I1001J0D1*
G1X142764Y380322D1*
G1X142764Y338081D1*
G1X137248Y332565D1*
G2X136565Y332848I-283J283D1*
G1X136565Y380817D1*
G3X132764Y380817I-1901J3406D1*
G1X132764Y330837D1*
G1X127248Y325321D1*
G2X126565Y325604I-283J283D1*
G1X126565Y380817D1*
G3X122764Y380817I-1901J3406D1*
G1X122764Y323593D1*
G1X117248Y318077D1*
G2X116565Y318360I-283J283D1*
G1X116565Y380817D1*
G3X112764Y380817I-1901J3406D1*
G1X112764Y316743D1*
G1X107248Y311227D1*
G2X106565Y311510I-283J283D1*
G1X106565Y380817D1*
G3X102764Y380817I-1901J3406D1*
G1X102764Y310611D1*
G1X74382Y282229D1*
G3X73283Y280443I903J-1787D1*
G3X73412Y279736I2020J3D1*
G2X73038Y279195I-374J-142D1*
G1X61436Y279195D1*
G1X55992Y273751D1*
G1X55992Y259971D1*
G1X61129Y254834D1*
G2X61138Y254278I-282J-283D1*
G3X61696Y251124I1461J-1368D1*
G1X63437Y249383D1*
G1X63526Y249383D1*
G1X67437Y245472D1*
G37*
G74*
G54D18*
G1X94665Y394223D3*
G1X114665Y394223D3*
G1X104665Y394223D3*
G1X124665Y394223D3*
G1X134665Y394223D3*
G54D16*
G1X21621Y251573D3*
G1X37019Y265671D3*
G1X37019Y280571D3*
G1X37019Y273171D3*
G1X68819Y235971D3*
G1X61319Y235971D3*
G1X60419Y304671D3*
G1X71019Y355971D3*
G1X65519Y355971D3*
G1X59519Y355971D3*
G1X65519Y347971D3*
G1X60019Y347971D3*
G1X71019Y347971D3*
G1X76519Y347971D3*
G1X100019Y259771D3*
G1X124519Y299971D3*
G54D17*
G1X94665Y384223D3*
G1X144665Y394223D3*
G1X154665Y394223D3*
G1X174665Y394223D3*
G1X164665Y394223D3*
%LPD*%
G54D10*
G1X9862Y239499D3*
G1X9468Y249735D3*
G1X5137Y249735D3*
G1X4350Y282806D3*
G1X9074Y282806D3*
G1X9862Y298554D3*
G1X9862Y318239D3*
G1X9862Y337924D3*
G1X9862Y357609D3*
G1X9862Y377294D3*
G1X9862Y396979D3*
G1X19704Y229656D3*
G1X19704Y269026D3*
G1X19704Y288711D3*
G1X19704Y308396D3*
G1X19704Y328081D3*
G1X19704Y367451D3*
G1X19704Y387136D3*
G1X29547Y219814D3*
G1X39389Y229656D3*
G1X29940Y259184D3*
G1X38208Y258396D3*
G1X39389Y269026D3*
G1X29547Y278869D3*
G1X39389Y288711D3*
G1X39389Y308396D3*
G1X29547Y298554D3*
G1X39389Y328081D3*
G1X29547Y318239D3*
G1X39389Y367451D3*
G1X39389Y387136D3*
G1X29547Y377294D3*
G1X49232Y219814D3*
G1X55531Y262333D3*
G1X49232Y298554D3*
G1X49232Y318239D3*
G1X49232Y337924D3*
G1X49232Y396979D3*
G1X68917Y219814D3*
G1X59074Y229656D3*
G1X62598Y252910D3*
G1X68523Y267451D3*
G1X64980Y267451D3*
G1X64980Y263908D3*
G1X68523Y263908D3*
G1X67740Y253672D3*
G1X64980Y253672D3*
G1X64980Y270601D3*
G1X68523Y270601D3*
G1X59074Y308396D3*
G1X68129Y309971D3*
G1X64192Y299341D3*
G1X59074Y328081D3*
G1X68917Y318239D3*
G1X68917Y337924D3*
G1X59074Y387136D3*
G1X68917Y396979D3*
G1X78759Y229656D3*
G1X76397Y253278D3*
G1X81811Y264005D3*
G1X78365Y256311D3*
G1X72066Y263908D3*
G1X72066Y267451D3*
G1X81909Y261152D3*
G1X80728Y258396D3*
G1X72066Y270601D3*
G1X75284Y280443D3*
G1X71673Y299341D3*
G1X78759Y328081D3*
G1X78759Y387136D3*
G1X88602Y219814D3*
G1X98444Y229656D3*
G1X98444Y249341D3*
G1X94113Y251310D3*
G1X98838Y281231D3*
G1X100019Y310365D3*
G1X98444Y328081D3*
G1X88602Y337924D3*
G1X98444Y347766D3*
G1X88602Y357609D3*
G1X98444Y367451D3*
G1X108287Y219814D3*
G1X108287Y239499D3*
G1X108287Y357609D3*
G1X127972Y219814D3*
G1X118129Y229656D3*
G1X118129Y249341D3*
G1X127972Y239499D3*
G1X127972Y259184D3*
G1X118129Y269026D3*
G1X118129Y328081D3*
G1X118129Y347766D3*
G1X127972Y357609D3*
G1X118129Y367451D3*
G1X137814Y229656D3*
G1X137814Y249341D3*
G1X131121Y265483D3*
G1X137814Y269026D3*
G1X137814Y288711D3*
G1X137814Y308396D3*
G1X137814Y347766D3*
G1X131515Y351310D3*
G1X137814Y367451D3*
G1X147657Y219814D3*
G1X157499Y229656D3*
G1X157499Y249341D3*
G1X147657Y239499D3*
G1X147657Y259184D3*
G1X150806Y265483D3*
G1X157499Y269026D3*
G1X157499Y288711D3*
G1X157499Y308396D3*
G1X147657Y298554D3*
G1X157499Y328081D3*
G1X157893Y348554D3*
G1X147657Y357609D3*
G1X150806Y351310D3*
G1X158287Y367451D3*
G1X167342Y219814D3*
G1X167342Y239499D3*
G1X167342Y259184D3*
G1X167342Y298554D3*
G1X167342Y318239D3*
G1X167342Y357609D3*
G1X187027Y219814D3*
G1X177184Y229656D3*
G1X177184Y249341D3*
G1X187027Y239499D3*
G1X187421Y259184D3*
G1X177184Y269026D3*
G1X177184Y288711D3*
G1X185846Y291861D3*
G1X177184Y308396D3*
G1X187027Y298554D3*
G1X177184Y328081D3*
G1X187027Y318239D3*
G1X186239Y324538D3*
G1X177972Y347766D3*
G1X187814Y357609D3*
G1X177972Y367451D3*
G1X192932Y259184D3*
G1X192539Y291861D3*
G1X192932Y324538D3*
G1X192539Y357609D3*
G54D11*
G1X21621Y251573D3*
G1X37019Y265671D3*
G1X37019Y280571D3*
G1X37019Y273171D3*
G1X61319Y235971D3*
G1X68819Y235971D3*
G1X60419Y304671D3*
G1X65519Y355971D3*
G1X59519Y355971D3*
G1X60019Y347971D3*
G1X65519Y347971D3*
G1X71019Y347971D3*
G1X71019Y355971D3*
G1X76519Y347971D3*
G1X88513Y249971D3*
G1X100019Y259771D3*
G1X100019Y274771D3*
G1X124519Y299971D3*
G1X124519Y294471D3*
G54D12*
G1X94665Y384223D3*
G1X94665Y394223D3*
G1X114665Y384223D3*
G1X104665Y384223D3*
G1X114665Y394223D3*
G1X104665Y394223D3*
G1X124665Y384223D3*
G1X124665Y394223D3*
G1X134665Y384223D3*
G1X144665Y394223D3*
G1X134665Y394223D3*
G1X154665Y384223D3*
G1X154665Y394223D3*
G1X174665Y384223D3*
G1X164665Y384223D3*
G1X174665Y394223D3*
G1X164665Y394223D3*
G1X184665Y384223D3*
G54D13*
G1X144665Y384223D3*
G1X184665Y394223D3*
G1X94665Y389822D2*
G54D14*
G1X94665Y394223D1*
G1X94665Y398624D1*
G1X90264Y394223D2*
G1X94665Y394223D1*
G1X99065Y394223D1*
G1X104665Y389822D2*
G1X104665Y394223D1*
G1X104665Y398624D1*
G1X100264Y394223D2*
G1X104665Y394223D1*
G1X109065Y394223D1*
G1X114665Y389822D2*
G1X114665Y394223D1*
G1X114665Y398624D1*
G1X110264Y394223D2*
G1X114665Y394223D1*
G1X119065Y394223D1*
G1X124665Y389822D2*
G1X124665Y394223D1*
G1X124665Y398624D1*
G1X120264Y394223D2*
G1X124665Y394223D1*
G1X129065Y394223D1*
G1X134665Y389822D2*
G1X134665Y394223D1*
G1X134665Y398624D1*
G1X130264Y394223D2*
G1X134665Y394223D1*
G1X139065Y394223D1*
G1X184665Y384223D2*
G54D15*
G1X184665Y346979D1*
G1X107106Y269420D1*
G1X101468Y269420D1*
G1X79421Y247373D1*
G1X68225Y247373D1*
G1X64313Y251284D1*
G1X64225Y251284D1*
G1X62598Y252910D1*
G1X134665Y384223D2*
G1X134665Y330050D1*
G1X77578Y272963D1*
G1X63405Y272963D1*
G1X62224Y271782D1*
G1X62224Y263121D1*
G1X70098Y255247D1*
G1X70098Y252491D1*
G1X73247Y249341D1*
G1X78389Y249341D1*
G1X83877Y254829D1*
G1X83877Y259184D1*
G1X81909Y261152D1*
G1X124665Y384223D2*
G1X124665Y322806D1*
G1X77184Y275325D1*
G1X63011Y275325D1*
G1X59862Y272176D1*
G1X59862Y262333D1*
G1X67740Y254455D1*
G1X67740Y253672D1*
G1X114665Y384223D2*
G1X114665Y315955D1*
G1X76003Y277294D1*
G1X62223Y277294D1*
G1X57893Y272964D1*
G1X57893Y260758D1*
G1X64980Y253672D1*
G1X144665Y384223D2*
G1X144665Y337293D1*
G1X74066Y266695D1*
G1X74066Y252065D1*
G1X75216Y250916D1*
G1X77221Y250916D1*
G1X80728Y254422D1*
G1X80728Y258396D1*
G1X174665Y384223D2*
G1X174665Y340417D1*
G1X105636Y271388D1*
G1X89194Y271388D1*
G1X81811Y264005D1*
G1X154665Y384223D2*
G1X154665Y344144D1*
G1X76003Y265483D1*
G1X76003Y255247D1*
G1X76397Y254853D1*
G1X76397Y253278D1*
G1X164665Y384223D2*
G1X164665Y350995D1*
G1X78365Y264695D1*
G1X78365Y256311D1*
G1X104665Y384223D2*
G1X104665Y309824D1*
G1X75284Y280443D1*
G54D10*
G36*
G1X209977Y210005D2*
G1X406827Y210005D1*
G1X406827Y406855D1*
G1X209977Y406855D1*
G1X209977Y210005D1*
G37*
%LPC*%
G36*
G1X391723Y390356D2*
G1X397523Y390356D1*
G75*
G3X398523Y391357I-2J1001D1*
G1X398523Y397157D1*
G3X397523Y398158I-1002J-1D1*
G1X391723Y398158D1*
G3X390722Y397157I-1J-1001D1*
G1X390722Y391357D1*
G3X391723Y390356I1000J-1D1*
G37*
G36*
G1X277395Y245506D2*
G1X290166Y245506D1*
G1X295310Y250651D1*
G2X295990Y250318I282J-284D1*
G3X298159Y252486I2481J-314D1*
G2X297826Y253166I-51J396D1*
G1X312213Y267553D1*
G1X317851Y267553D1*
G1X396523Y346225D1*
G1X396523Y380851D1*
G3X392722Y380851I-1901J3405D1*
G1X392722Y347800D1*
G1X387206Y342285D1*
G2X386523Y342568I-284J282D1*
G1X386523Y380851D1*
G3X382722Y380851I-1901J3405D1*
G1X382722Y341238D1*
G1X337229Y295745D1*
G2X336605Y295818I-284J282D1*
G3X333164Y292377I-2129J-1313D1*
G2X333237Y291753I-212J-341D1*
G1X314807Y273323D1*
G1X312668Y273323D1*
G2X312297Y273872I-1J399D1*
G3X307657Y273872I-2320J932D1*
G2X307286Y273323I-372J-149D1*
G1X300571Y273323D1*
G2X300288Y274006I-1J399D1*
G1X376523Y350241D1*
G1X376523Y380851D1*
G3X372722Y380851I-1901J3405D1*
G1X372722Y351816D1*
G1X367206Y346300D1*
G2X366523Y346583I-284J282D1*
G1X366523Y380851D1*
G3X362722Y380851I-1901J3405D1*
G1X362722Y344966D1*
G1X357206Y339450D1*
G2X356523Y339733I-284J282D1*
G1X356523Y380356D1*
G1X357523Y380356D1*
G3X358523Y381357I-2J1001D1*
G1X358523Y387157D1*
G3X357523Y388158I-1002J-1D1*
G1X351723Y388158D1*
G3X350722Y387157I-1J-1001D1*
G1X350722Y381357D1*
G3X351723Y380356I1000J-1D1*
G1X352722Y380356D1*
G1X352722Y338115D1*
G1X347206Y332599D1*
G2X346523Y332882I-284J282D1*
G1X346523Y380851D1*
G3X342722Y380851I-1901J3405D1*
G1X342722Y330871D1*
G1X337206Y325355D1*
G2X336523Y325638I-284J282D1*
G1X336523Y380851D1*
G3X332722Y380851I-1901J3405D1*
G1X332722Y323627D1*
G1X327206Y318111D1*
G2X326523Y318394I-284J282D1*
G1X326523Y380851D1*
G3X322722Y380851I-1901J3405D1*
G1X322722Y316777D1*
G1X317206Y311261D1*
G2X316523Y311544I-284J282D1*
G1X316523Y380851D1*
G3X312722Y380851I-1901J3405D1*
G1X312722Y310645D1*
G1X284340Y282263D1*
G3X283241Y280477I900J-1786D1*
G3X283370Y279770I1973J-6D1*
G2X282996Y279229I-375J-141D1*
G1X271394Y279229D1*
G1X265950Y273785D1*
G1X265950Y260005D1*
G1X271087Y254868D1*
G2X271096Y254312I-285J-283D1*
G3X271654Y251158I1459J-1369D1*
G1X273395Y249417D1*
G1X273484Y249417D1*
G1X277395Y245506D1*
G37*
G74*
G54D18*
G1X304623Y394257D3*
G1X324623Y394257D3*
G1X314623Y394257D3*
G1X334623Y394257D3*
G1X344623Y394257D3*
G54D16*
G1X231579Y251607D3*
G1X246977Y265705D3*
G1X246977Y280605D3*
G1X246977Y273205D3*
G1X278777Y236005D3*
G1X271277Y236005D3*
G1X270377Y304705D3*
G1X280977Y356005D3*
G1X275477Y356005D3*
G1X269477Y356005D3*
G1X275477Y348005D3*
G1X269977Y348005D3*
G1X280977Y348005D3*
G1X286477Y348005D3*
G1X309977Y259805D3*
G1X334477Y300005D3*
G54D17*
G1X304623Y384257D3*
G1X354623Y394257D3*
G1X364623Y394257D3*
G1X384623Y394257D3*
G1X374623Y394257D3*
%LPD*%
G54D10*
G1X219820Y239533D3*
G1X219426Y249769D3*
G1X215095Y249769D3*
G1X214308Y282840D3*
G1X219032Y282840D3*
G1X219820Y298588D3*
G1X219820Y318273D3*
G1X219820Y337958D3*
G1X219820Y357643D3*
G1X219820Y377328D3*
G1X219820Y397013D3*
G1X229662Y229690D3*
G1X229662Y269060D3*
G1X229662Y288745D3*
G1X229662Y308430D3*
G1X229662Y328115D3*
G1X229662Y367485D3*
G1X229662Y387170D3*
G1X239505Y219848D3*
G1X249347Y229690D3*
G1X239898Y259218D3*
G1X248166Y258430D3*
G1X249347Y269060D3*
G1X239505Y278903D3*
G1X249347Y288745D3*
G1X249347Y308430D3*
G1X239505Y298588D3*
G1X249347Y328115D3*
G1X239505Y318273D3*
G1X249347Y367485D3*
G1X249347Y387170D3*
G1X239505Y377328D3*
G1X259190Y219848D3*
G1X265489Y262367D3*
G1X259190Y298588D3*
G1X259190Y318273D3*
G1X259190Y337958D3*
G1X259190Y397013D3*
G1X278875Y219848D3*
G1X269032Y229690D3*
G1X272556Y252944D3*
G1X278481Y267485D3*
G1X274938Y267485D3*
G1X274938Y263942D3*
G1X278481Y263942D3*
G1X277698Y253706D3*
G1X274938Y253706D3*
G1X274938Y270635D3*
G1X278481Y270635D3*
G1X269032Y308430D3*
G1X278087Y310005D3*
G1X274150Y299375D3*
G1X269032Y328115D3*
G1X278875Y318273D3*
G1X278875Y337958D3*
G1X269032Y387170D3*
G1X278875Y397013D3*
G1X288717Y229690D3*
G1X286355Y253312D3*
G1X291769Y264039D3*
G1X288323Y256345D3*
G1X282024Y263942D3*
G1X282024Y267485D3*
G1X291867Y261186D3*
G1X290686Y258430D3*
G1X282024Y270635D3*
G1X285242Y280477D3*
G1X281631Y299375D3*
G1X288717Y328115D3*
G1X288717Y387170D3*
G1X298560Y219848D3*
G1X308402Y229690D3*
G1X308402Y249375D3*
G1X304071Y251344D3*
G1X308796Y281265D3*
G1X309977Y310399D3*
G1X308402Y328115D3*
G1X298560Y337958D3*
G1X308402Y347800D3*
G1X298560Y357643D3*
G1X308402Y367485D3*
G1X318245Y219848D3*
G1X318245Y239533D3*
G1X318245Y357643D3*
G1X337930Y219848D3*
G1X328087Y229690D3*
G1X328087Y249375D3*
G1X337930Y239533D3*
G1X337930Y259218D3*
G1X328087Y269060D3*
G1X328087Y328115D3*
G1X328087Y347800D3*
G1X337930Y357643D3*
G1X328087Y367485D3*
G1X347772Y229690D3*
G1X347772Y249375D3*
G1X341079Y265517D3*
G1X347772Y269060D3*
G1X347772Y288745D3*
G1X347772Y308430D3*
G1X347772Y347800D3*
G1X341473Y351344D3*
G1X347772Y367485D3*
G1X357615Y219848D3*
G1X367457Y229690D3*
G1X367457Y249375D3*
G1X357615Y239533D3*
G1X357615Y259218D3*
G1X360764Y265517D3*
G1X367457Y269060D3*
G1X367457Y288745D3*
G1X367457Y308430D3*
G1X357615Y298588D3*
G1X367457Y328115D3*
G1X367851Y348588D3*
G1X357615Y357643D3*
G1X360764Y351344D3*
G1X368245Y367485D3*
G1X377300Y219848D3*
G1X377300Y239533D3*
G1X377300Y259218D3*
G1X377300Y298588D3*
G1X377300Y318273D3*
G1X377300Y357643D3*
G1X396985Y219848D3*
G1X387142Y229690D3*
G1X387142Y249375D3*
G1X396985Y239533D3*
G1X397379Y259218D3*
G1X387142Y269060D3*
G1X387142Y288745D3*
G1X395804Y291895D3*
G1X387142Y308430D3*
G1X396985Y298588D3*
G1X387142Y328115D3*
G1X396985Y318273D3*
G1X396197Y324572D3*
G1X387930Y347800D3*
G1X397772Y357643D3*
G1X387930Y367485D3*
G1X402890Y259218D3*
G1X402497Y291895D3*
G1X402890Y324572D3*
G1X402497Y357643D3*
G54D11*
G1X231579Y251607D3*
G1X246977Y265705D3*
G1X246977Y280605D3*
G1X246977Y273205D3*
G1X271277Y236005D3*
G1X278777Y236005D3*
G1X270377Y304705D3*
G1X275477Y356005D3*
G1X269477Y356005D3*
G1X269977Y348005D3*
G1X275477Y348005D3*
G1X280977Y348005D3*
G1X280977Y356005D3*
G1X286477Y348005D3*
G1X298471Y250005D3*
G1X309977Y259805D3*
G1X309977Y274805D3*
G1X334477Y300005D3*
G1X334477Y294505D3*
G54D12*
G1X304623Y384257D3*
G1X304623Y394257D3*
G1X324623Y384257D3*
G1X314623Y384257D3*
G1X324623Y394257D3*
G1X314623Y394257D3*
G1X334623Y384257D3*
G1X334623Y394257D3*
G1X344623Y384257D3*
G1X354623Y394257D3*
G1X344623Y394257D3*
G1X364623Y384257D3*
G1X364623Y394257D3*
G1X384623Y384257D3*
G1X374623Y384257D3*
G1X384623Y394257D3*
G1X374623Y394257D3*
G1X394623Y384257D3*
G54D13*
G1X354623Y384257D3*
G1X394623Y394257D3*
G1X304623Y389856D2*
G54D14*
G1X304623Y394257D1*
G1X304623Y398658D1*
G1X300222Y394257D2*
G1X304623Y394257D1*
G1X309023Y394257D1*
G1X314623Y389856D2*
G1X314623Y394257D1*
G1X314623Y398658D1*
G1X310222Y394257D2*
G1X314623Y394257D1*
G1X319023Y394257D1*
G1X324623Y389856D2*
G1X324623Y394257D1*
G1X324623Y398658D1*
G1X320222Y394257D2*
G1X324623Y394257D1*
G1X329023Y394257D1*
G1X334623Y389856D2*
G1X334623Y394257D1*
G1X334623Y398658D1*
G1X330222Y394257D2*
G1X334623Y394257D1*
G1X339023Y394257D1*
G1X344623Y389856D2*
G1X344623Y394257D1*
G1X344623Y398658D1*
G1X340222Y394257D2*
G1X344623Y394257D1*
G1X349023Y394257D1*
G1X394623Y384257D2*
G54D15*
G1X394623Y347013D1*
G1X317064Y269454D1*
G1X311426Y269454D1*
G1X289379Y247407D1*
G1X278183Y247407D1*
G1X274271Y251318D1*
G1X274183Y251318D1*
G1X272556Y252944D1*
G1X344623Y384257D2*
G1X344623Y330084D1*
G1X287536Y272997D1*
G1X273363Y272997D1*
G1X272182Y271816D1*
G1X272182Y263155D1*
G1X280056Y255281D1*
G1X280056Y252525D1*
G1X283205Y249375D1*
G1X288347Y249375D1*
G1X293835Y254863D1*
G1X293835Y259218D1*
G1X291867Y261186D1*
G1X334623Y384257D2*
G1X334623Y322840D1*
G1X287142Y275359D1*
G1X272969Y275359D1*
G1X269820Y272210D1*
G1X269820Y262367D1*
G1X277698Y254489D1*
G1X277698Y253706D1*
G1X324623Y384257D2*
G1X324623Y315989D1*
G1X285961Y277328D1*
G1X272181Y277328D1*
G1X267851Y272998D1*
G1X267851Y260792D1*
G1X274938Y253706D1*
G1X354623Y384257D2*
G1X354623Y337327D1*
G1X284024Y266729D1*
G1X284024Y252099D1*
G1X285174Y250950D1*
G1X287179Y250950D1*
G1X290686Y254456D1*
G1X290686Y258430D1*
G1X384623Y384257D2*
G1X384623Y340451D1*
G1X315594Y271422D1*
G1X299152Y271422D1*
G1X291769Y264039D1*
G1X364623Y384257D2*
G1X364623Y344178D1*
G1X285961Y265517D1*
G1X285961Y255281D1*
G1X286355Y254887D1*
G1X286355Y253312D1*
G1X374623Y384257D2*
G1X374623Y351029D1*
G1X288323Y264729D1*
G1X288323Y256345D1*
G1X314623Y384257D2*
G1X314623Y309858D1*
G1X285242Y280477D1*
G54D10*
G36*
G1X420097Y209988D2*
G1X616897Y209988D1*
G1X616897Y406788D1*
G1X420097Y406788D1*
G1X420097Y209988D1*
G37*
%LPC*%
G36*
G1X426747Y394325D2*
G1X432947Y394325D1*
G75*
G3X433448Y394826I-1J501D1*
G1X433448Y401027D1*
G3X432947Y401527I-502J-2D1*
G1X426746Y401527D1*
G3X426246Y401027I0J-501D1*
G1X426246Y394826D1*
G3X426747Y394325I500J-1D1*
G37*
G36*
G1X551960Y390044D2*
G2X552288Y390699I312J253D1*
G3X550438Y391624I93J2498D1*
G2X550110Y390969I-314J-253D1*
G3X551960Y390044I-94J-2499D1*
G37*
G36*
G1X546050Y390044D2*
G2X546377Y390699I311J253D1*
G3X544528Y391623I93J2498D1*
G2X544201Y390969I-313J-253D1*
G3X546050Y390044I-95J-2499D1*
G37*
G36*
G1X440667Y394418D2*
G1X476541Y358544D1*
G2X476214Y357860I-285J-285D1*
G3X478431Y355642I-270J-2487D1*
G2X479115Y355969I399J42D1*
G1X499332Y335753D1*
G1X499332Y335684D1*
G1X500719Y334298D1*
G1X500727Y334227D1*
G3X504214Y332200I2486J264D1*
G2X504776Y331831I159J-370D1*
G1X504776Y284897D1*
G3X508578Y284897I1901J-1626D1*
G1X508578Y341883D1*
G1X453356Y397106D1*
G1X453377Y397212D1*
G3X450562Y394396I-3531J713D1*
G1X450667Y394418D1*
G1X504776Y340308D1*
G1X504776Y337152D1*
G2X504214Y336784I-402J-1D1*
G3X503477Y336979I-1008J-2318D1*
G1X503407Y336986D1*
G1X503134Y337259D1*
G1X503134Y337327D1*
G1X443356Y397106D1*
G1X443377Y397212D1*
G3X440562Y394396I-3531J713D1*
G1X440667Y394418D1*
G37*
G36*
G1X460667Y394418D2*
G1X514626Y340458D1*
G1X514626Y325055D1*
G2X513888Y324834I-403J-1D1*
G3X513888Y322086I-2090J-1374D1*
G2X514626Y321865I335J-222D1*
G1X514626Y318357D1*
G2X513888Y318136I-403J-1D1*
G3X513888Y315388I-2090J-1374D1*
G2X514626Y315167I335J-222D1*
G1X514626Y312053D1*
G2X513888Y311832I-403J-1D1*
G3X513888Y309084I-2090J-1374D1*
G2X514626Y308863I335J-222D1*
G1X514626Y279657D1*
G1X504922Y279657D1*
G3X504922Y275855I-1626J-1901D1*
G1X509418Y275855D1*
G2X509802Y275336I-1J-402D1*
G3X513818Y272703I2390J-733D1*
G1X522618Y272703D1*
G1X524732Y274817D1*
G1X524732Y345729D1*
G1X473356Y397106D1*
G1X473377Y397212D1*
G3X470562Y394396I-3531J713D1*
G1X470667Y394418D1*
G1X520930Y344155D1*
G1X520930Y276505D1*
G1X517934Y276505D1*
G2X517650Y277191I-1J401D1*
G1X518428Y277969D1*
G1X518428Y342033D1*
G1X463356Y397106D1*
G1X463377Y397212D1*
G3X460562Y394396I-3531J713D1*
G1X460667Y394418D1*
G37*
G36*
G1X480667Y394418D2*
G1X588698Y286386D1*
G1X588698Y274413D1*
G3X592500Y274413I1901J-1626D1*
G1X592500Y287961D1*
G1X585671Y294789D1*
G2X585727Y295404I284J284D1*
G3X585925Y295557I-1476J2113D1*
G1X592484Y295557D1*
G2X592741Y294845I-1J-403D1*
G3X595937Y294845I1598J-1925D1*
G2X596194Y295557I256J309D1*
G1X596452Y295557D1*
G1X596508Y295512D1*
G3X596454Y299358I1570J1945D1*
G1X585925Y299358D1*
G3X582246Y298884I-1626J-1902D1*
G2X581631Y298829I-331J228D1*
G1X483356Y397106D1*
G1X483377Y397212D1*
G3X480562Y394396I-3531J713D1*
G1X480667Y394418D1*
G37*
G74*
G54D16*
G1X460185Y221414D3*
G1X466489Y221414D3*
G1X472793Y221414D3*
G1X476339Y270270D3*
G1X460797Y288788D3*
G1X465307Y315974D3*
G1X462943Y309276D3*
G1X475945Y343160D3*
G1X475945Y349070D3*
G1X479097Y221414D3*
G1X484613Y221414D3*
G1X481855Y270270D3*
G1X490211Y336774D3*
G1X515739Y226930D3*
G1X515739Y220232D3*
G1X515739Y234022D3*
G1X523997Y263178D3*
G1X549623Y398320D3*
G1X537803Y398320D3*
G1X543713Y398320D3*
G1X555533Y398320D3*
G1X555533Y388470D3*
G54D48*
G1X489847Y397926D3*
G1X499847Y397926D3*
G1X509847Y397926D3*
G1X519847Y397926D3*
%LPD*%
G54D10*
G1X429840Y219831D3*
G1X439682Y219831D3*
G1X439682Y229673D3*
G1X429840Y229673D3*
G1X429840Y239516D3*
G1X439682Y239516D3*
G1X439682Y249358D3*
G1X429840Y249358D3*
G1X439682Y259201D3*
G1X429840Y259201D3*
G1X439682Y269043D3*
G1X439682Y298571D3*
G1X429840Y298571D3*
G1X439682Y308413D3*
G1X439682Y318256D3*
G1X429840Y318256D3*
G1X429840Y308413D3*
G1X439682Y328098D3*
G1X429840Y367468D3*
G1X439682Y367468D3*
G1X439682Y377311D3*
G1X429840Y377311D3*
G1X429840Y387153D3*
G1X449525Y219831D3*
G1X449525Y229673D3*
G1X449525Y239516D3*
G1X454840Y234397D3*
G1X449525Y249358D3*
G1X455797Y277888D3*
G1X449525Y298571D3*
G1X449525Y318256D3*
G1X449525Y308413D3*
G1X456217Y306248D3*
G1X449525Y328098D3*
G1X459367Y328098D3*
G1X449525Y337941D3*
G1X449525Y347783D3*
G1X458186Y349358D3*
G1X457792Y342271D3*
G1X462910Y238334D3*
G1X464682Y259397D3*
G1X462697Y277888D3*
G1X469397Y277888D3*
G1X476497Y277888D3*
G1X469697Y271188D3*
G1X462697Y271188D3*
G1X473147Y359397D3*
G1X478658Y384004D3*
G1X480627Y238138D3*
G1X493422Y244231D3*
G1X494123Y249949D3*
G1X482397Y278088D3*
G1X489397Y271388D3*
G1X489297Y275088D3*
G1X493897Y275188D3*
G1X488797Y297888D3*
G1X490716Y295881D3*
G1X488797Y293888D3*
G1X492597Y293988D3*
G1X492697Y297988D3*
G1X479797Y362488D3*
G1X479797Y365088D3*
G1X504097Y246588D3*
G1X500497Y250188D3*
G1X500509Y246602D3*
G1X503997Y250288D3*
G1X502300Y248384D3*
G1X503658Y274161D3*
G1X518422Y367468D3*
G1X531808Y215894D3*
G1X532399Y223177D3*
G1X532399Y229673D3*
G1X528265Y259201D3*
G1X538107Y259201D3*
G1X538107Y269043D3*
G1X528265Y269043D3*
G1X528265Y278886D3*
G1X538107Y278886D3*
G1X521966Y268846D3*
G1X527871Y311366D3*
G1X538107Y328098D3*
G1X528265Y337941D3*
G1X529249Y320421D3*
G1X538107Y347783D3*
G1X528265Y357626D3*
G1X538107Y357626D3*
G1X528265Y367468D3*
G1X547950Y219831D3*
G1X557792Y219831D3*
G1X547950Y229673D3*
G1X557792Y229673D3*
G1X547950Y259201D3*
G1X547950Y269043D3*
G1X547950Y278886D3*
G1X547950Y288728D3*
G1X538895Y284791D3*
G1X557792Y328098D3*
G1X547950Y337941D3*
G1X557792Y337941D3*
G1X547950Y347783D3*
G1X557792Y347783D3*
G1X547950Y357626D3*
G1X567635Y219831D3*
G1X577477Y219831D3*
G1X567635Y229673D3*
G1X577477Y229673D3*
G1X567635Y239516D3*
G1X577477Y239516D3*
G1X567635Y249358D3*
G1X577477Y249358D3*
G1X567635Y259201D3*
G1X577477Y259201D3*
G1X577477Y269043D3*
G1X567635Y328098D3*
G1X577477Y328098D3*
G1X567635Y337941D3*
G1X577477Y337941D3*
G1X567635Y347783D3*
G1X567635Y357626D3*
G1X577477Y357626D3*
G1X577477Y367468D3*
G1X577477Y377311D3*
G1X577477Y387153D3*
G1X569406Y393846D3*
G1X597162Y219831D3*
G1X587320Y219831D3*
G1X597162Y229673D3*
G1X587320Y229673D3*
G1X587320Y239516D3*
G1X597162Y239516D3*
G1X587320Y249358D3*
G1X597162Y249358D3*
G1X587320Y259201D3*
G1X597162Y259201D3*
G1X587320Y269043D3*
G1X597162Y269043D3*
G1X597162Y318256D3*
G1X597162Y308413D3*
G1X597162Y328098D3*
G1X587320Y328098D3*
G1X597162Y337941D3*
G1X587320Y337941D3*
G1X597162Y357626D3*
G1X587320Y357626D3*
G1X597162Y367468D3*
G1X587320Y367468D3*
G1X597162Y377311D3*
G1X587320Y377311D3*
G1X587320Y387153D3*
G1X597162Y387153D3*
G1X607005Y219831D3*
G1X607005Y229673D3*
G1X607005Y239516D3*
G1X607005Y249358D3*
G1X607005Y259201D3*
G1X607005Y278886D3*
G1X607005Y269043D3*
G1X607005Y288728D3*
G1X607005Y337941D3*
G1X607005Y347783D3*
G1X607005Y357626D3*
G1X607005Y367468D3*
G1X607005Y377311D3*
G1X607005Y396996D3*
G1X607005Y387153D3*
G54D46*
G1X429847Y397926D3*
G54D47*
G1X439847Y397926D3*
G1X449847Y397926D3*
G1X459847Y397926D3*
G1X469847Y397926D3*
G1X479847Y397926D3*
G1X489847Y397926D3*
G1X499847Y397926D3*
G1X509847Y397926D3*
G1X519847Y397926D3*
G54D11*
G1X460185Y221414D3*
G1X460797Y288788D3*
G1X466489Y221414D3*
G1X472793Y221414D3*
G1X479097Y221414D3*
G1X476339Y270270D3*
G1X465307Y315974D3*
G1X462943Y309276D3*
G1X475945Y343160D3*
G1X475945Y349070D3*
G1X475945Y355374D3*
G1X484613Y221414D3*
G1X481855Y270270D3*
G1X484974Y314105D3*
G1X490211Y336774D3*
G1X515739Y220232D3*
G1X515739Y234022D3*
G1X515739Y226930D3*
G1X503297Y277756D3*
G1X512193Y274604D3*
G1X506677Y283272D3*
G1X503131Y313201D3*
G1X511799Y310458D3*
G1X511799Y316762D3*
G1X511799Y323460D3*
G1X503213Y334492D3*
G1X523997Y263178D3*
G1X537803Y398320D3*
G1X549623Y398320D3*
G1X555533Y398320D3*
G1X544107Y388470D3*
G1X550017Y388470D3*
G1X555533Y388470D3*
G1X543713Y398320D3*
G1X546471Y393198D3*
G1X552381Y393198D3*
G1X590599Y272788D3*
G1X598079Y297457D3*
G1X584299Y297457D3*
G1X594339Y292922D3*
G1X495746Y397926D2*
G54D14*
G1X499847Y397926D1*
G1X489847Y393825D2*
G1X489847Y397926D1*
G1X489847Y402027D1*
G1X485746Y397926D2*
G1X489847Y397926D1*
G1X493948Y397926D1*
G1X515746Y397926D2*
G1X519847Y397926D1*
G1X509847Y393825D2*
G1X509847Y397926D1*
G1X509847Y402027D1*
G1X505746Y397926D2*
G1X509847Y397926D1*
G1X513948Y397926D1*
G1X499847Y393825D2*
G1X499847Y397926D1*
G1X499847Y402027D1*
G1X499847Y397926D2*
G1X503948Y397926D1*
G1X519847Y393825D2*
G1X519847Y397926D1*
G1X519847Y402027D1*
G1X519847Y397926D2*
G1X523948Y397926D1*
G1X506677Y283272D2*
G54D15*
G1X506677Y341096D1*
G1X449847Y397926D1*
G1X503213Y334492D2*
G1X501233Y336472D1*
G1X501233Y336540D1*
G1X439847Y397926D1*
G1X503297Y277756D2*
G1X515527Y277756D1*
G1X516527Y278756D1*
G1X516527Y341246D1*
G1X459847Y397926D1*
G1X469847Y397926D2*
G1X522831Y344942D1*
G1X522831Y275604D1*
G1X521831Y274604D1*
G1X512193Y274604D1*
G1X590599Y272788D2*
G1X590599Y287174D1*
G1X479847Y397926D1*
G1X598079Y297457D2*
G1X584299Y297457D1*
G54D10*
G36*
G1X630055Y-33D2*
G1X826855Y-33D1*
G1X826855Y196767D1*
G1X630055Y196767D1*
G1X630055Y-33D1*
G37*
%LPC*%
G36*
G1X636705Y184304D2*
G1X642905Y184304D1*
G75*
G3X643406Y184805I0J500D1*
G1X643406Y191006D1*
G3X642905Y191506I-502J-2D1*
G1X636705Y191506D1*
G3X636204Y191006I0J-502D1*
G1X636204Y184805D1*
G3X636705Y184304I500J-1D1*
G37*
G36*
G1X761918Y180023D2*
G2X762246Y180678I313J252D1*
G3X760396Y181603I93J2498D1*
G2X760068Y180948I-313J-254D1*
G3X761918Y180023I-94J-2500D1*
G37*
G36*
G1X756008Y180023D2*
G2X756335Y180678I312J253D1*
G3X754486Y181602I93J2498D1*
G2X754159Y180948I-312J-253D1*
G3X756008Y180023I-95J-2500D1*
G37*
G36*
G1X650625Y184397D2*
G1X686499Y148523D1*
G2X686172Y147839I-284J-285D1*
G3X688389Y145621I-270J-2487D1*
G2X689073Y145948I400J42D1*
G1X709290Y125732D1*
G1X709290Y125663D1*
G1X710677Y124277D1*
G1X710685Y124206D1*
G3X714172Y122179I2486J264D1*
G2X714734Y121810I159J-370D1*
G1X714734Y74876D1*
G3X718536Y74876I1901J-1626D1*
G1X718536Y131862D1*
G1X663314Y187085D1*
G1X663335Y187191D1*
G3X660520Y184375I-3530J713D1*
G1X660625Y184397D1*
G1X714734Y130287D1*
G1X714734Y127130D1*
G2X714172Y126763I-401J0D1*
G3X713435Y126958I-1011J-2328D1*
G1X713365Y126965D1*
G1X713092Y127238D1*
G1X713092Y127306D1*
G1X653314Y187085D1*
G1X653335Y187191D1*
G3X650520Y184375I-3530J713D1*
G1X650625Y184397D1*
G37*
G36*
G1X670625Y184397D2*
G1X724584Y130437D1*
G1X724584Y115034D1*
G2X723846Y114813I-402J-1D1*
G3X723846Y112065I-2089J-1374D1*
G2X724584Y111844I335J-222D1*
G1X724584Y108336D1*
G2X723846Y108115I-402J-1D1*
G3X723846Y105367I-2089J-1374D1*
G2X724584Y105146I335J-222D1*
G1X724584Y102032D1*
G2X723846Y101811I-402J-1D1*
G3X723846Y99063I-2089J-1374D1*
G2X724584Y98842I335J-222D1*
G1X724584Y69636D1*
G1X714880Y69636D1*
G3X714880Y65834I-1625J-1901D1*
G1X719376Y65834D1*
G2X719760Y65315I-1J-402D1*
G3X723776Y62682I2390J-733D1*
G1X732576Y62682D1*
G1X734690Y64796D1*
G1X734690Y135708D1*
G1X683314Y187085D1*
G1X683335Y187191D1*
G3X680520Y184375I-3530J713D1*
G1X680625Y184397D1*
G1X730888Y134134D1*
G1X730888Y66484D1*
G1X727892Y66484D1*
G2X727608Y67170I0J401D1*
G1X728386Y67948D1*
G1X728386Y132012D1*
G1X673314Y187085D1*
G1X673335Y187191D1*
G3X670520Y184375I-3530J713D1*
G1X670625Y184397D1*
G37*
G36*
G1X690625Y184397D2*
G1X798656Y76365D1*
G1X798656Y64392D1*
G3X802458Y64392I1901J-1626D1*
G1X802458Y77940D1*
G1X795629Y84768D1*
G2X795685Y85383I285J284D1*
G3X795883Y85536I-1272J1849D1*
G1X802442Y85536D1*
G2X802699Y84824I-1J-403D1*
G3X805895Y84824I1598J-1925D1*
G2X806152Y85536I257J309D1*
G1X806410Y85536D1*
G1X806466Y85491D1*
G3X806412Y89337I1571J1945D1*
G1X795883Y89337D1*
G3X792204Y88863I-1625J-1903D1*
G2X791589Y88808I-331J227D1*
G1X693314Y187085D1*
G1X693335Y187191D1*
G3X690520Y184375I-3530J713D1*
G1X690625Y184397D1*
G37*
G74*
G54D16*
G1X670143Y11393D3*
G1X676447Y11393D3*
G1X682751Y11393D3*
G1X686297Y60249D3*
G1X670755Y78767D3*
G1X675265Y105953D3*
G1X672901Y99255D3*
G1X685903Y133139D3*
G1X685903Y139049D3*
G1X689055Y11393D3*
G1X694571Y11393D3*
G1X691813Y60249D3*
G1X700169Y126753D3*
G1X725697Y16909D3*
G1X725697Y10211D3*
G1X725697Y24001D3*
G1X733955Y53157D3*
G1X759581Y188299D3*
G1X747761Y188299D3*
G1X753671Y188299D3*
G1X765491Y188299D3*
G1X765491Y178449D3*
G54D48*
G1X699805Y187905D3*
G1X709805Y187905D3*
G1X719805Y187905D3*
G1X729805Y187905D3*
%LPD*%
G54D10*
G1X639798Y9810D3*
G1X649640Y9810D3*
G1X649640Y19652D3*
G1X639798Y19652D3*
G1X639798Y29495D3*
G1X649640Y29495D3*
G1X649640Y39337D3*
G1X639798Y39337D3*
G1X649640Y49180D3*
G1X639798Y49180D3*
G1X649640Y59022D3*
G1X649640Y88550D3*
G1X639798Y88550D3*
G1X649640Y98392D3*
G1X649640Y108235D3*
G1X639798Y108235D3*
G1X639798Y98392D3*
G1X649640Y118077D3*
G1X639798Y157447D3*
G1X649640Y157447D3*
G1X649640Y167290D3*
G1X639798Y167290D3*
G1X639798Y177132D3*
G1X659483Y9810D3*
G1X659483Y19652D3*
G1X659483Y29495D3*
G1X664798Y24376D3*
G1X659483Y39337D3*
G1X665755Y67867D3*
G1X659483Y88550D3*
G1X659483Y108235D3*
G1X659483Y98392D3*
G1X666175Y96227D3*
G1X659483Y118077D3*
G1X669325Y118077D3*
G1X659483Y127920D3*
G1X659483Y137762D3*
G1X668144Y139337D3*
G1X667750Y132250D3*
G1X672868Y28313D3*
G1X674640Y49376D3*
G1X672655Y67867D3*
G1X679355Y67867D3*
G1X686455Y67867D3*
G1X679655Y61167D3*
G1X672655Y61167D3*
G1X683105Y149376D3*
G1X688616Y173983D3*
G1X690585Y28117D3*
G1X703380Y34210D3*
G1X704081Y39928D3*
G1X692355Y68067D3*
G1X699355Y61367D3*
G1X699255Y65067D3*
G1X703855Y65167D3*
G1X698755Y87867D3*
G1X700674Y85860D3*
G1X698755Y83867D3*
G1X702555Y83967D3*
G1X702655Y87967D3*
G1X689755Y152467D3*
G1X689755Y155067D3*
G1X714055Y36567D3*
G1X710455Y40167D3*
G1X710467Y36581D3*
G1X713955Y40267D3*
G1X712258Y38363D3*
G1X713616Y64140D3*
G1X728380Y157447D3*
G1X741766Y5873D3*
G1X742357Y13156D3*
G1X742357Y19652D3*
G1X738223Y49180D3*
G1X748065Y49180D3*
G1X748065Y59022D3*
G1X738223Y59022D3*
G1X738223Y68865D3*
G1X748065Y68865D3*
G1X731924Y58825D3*
G1X737829Y101345D3*
G1X748065Y118077D3*
G1X738223Y127920D3*
G1X739207Y110400D3*
G1X748065Y137762D3*
G1X738223Y147605D3*
G1X748065Y147605D3*
G1X738223Y157447D3*
G1X757908Y9810D3*
G1X767750Y9810D3*
G1X757908Y19652D3*
G1X767750Y19652D3*
G1X757908Y49180D3*
G1X757908Y59022D3*
G1X757908Y68865D3*
G1X757908Y78707D3*
G1X748853Y74770D3*
G1X767750Y118077D3*
G1X757908Y127920D3*
G1X767750Y127920D3*
G1X757908Y137762D3*
G1X767750Y137762D3*
G1X757908Y147605D3*
G1X777593Y9810D3*
G1X787435Y9810D3*
G1X777593Y19652D3*
G1X787435Y19652D3*
G1X777593Y29495D3*
G1X787435Y29495D3*
G1X777593Y39337D3*
G1X787435Y39337D3*
G1X777593Y49180D3*
G1X787435Y49180D3*
G1X787435Y59022D3*
G1X777593Y118077D3*
G1X787435Y118077D3*
G1X777593Y127920D3*
G1X787435Y127920D3*
G1X777593Y137762D3*
G1X777593Y147605D3*
G1X787435Y147605D3*
G1X787435Y157447D3*
G1X787435Y167290D3*
G1X787435Y177132D3*
G1X779364Y183825D3*
G1X807120Y9810D3*
G1X797278Y9810D3*
G1X807120Y19652D3*
G1X797278Y19652D3*
G1X797278Y29495D3*
G1X807120Y29495D3*
G1X797278Y39337D3*
G1X807120Y39337D3*
G1X797278Y49180D3*
G1X807120Y49180D3*
G1X797278Y59022D3*
G1X807120Y59022D3*
G1X807120Y108235D3*
G1X807120Y98392D3*
G1X807120Y118077D3*
G1X797278Y118077D3*
G1X807120Y127920D3*
G1X797278Y127920D3*
G1X807120Y147605D3*
G1X797278Y147605D3*
G1X807120Y157447D3*
G1X797278Y157447D3*
G1X807120Y167290D3*
G1X797278Y167290D3*
G1X797278Y177132D3*
G1X807120Y177132D3*
G1X816963Y9810D3*
G1X816963Y19652D3*
G1X816963Y29495D3*
G1X816963Y39337D3*
G1X816963Y49180D3*
G1X816963Y68865D3*
G1X816963Y59022D3*
G1X816963Y78707D3*
G1X816963Y127920D3*
G1X816963Y137762D3*
G1X816963Y147605D3*
G1X816963Y157447D3*
G1X816963Y167290D3*
G1X816963Y186975D3*
G1X816963Y177132D3*
G54D46*
G1X639805Y187905D3*
G54D47*
G1X649805Y187905D3*
G1X659805Y187905D3*
G1X669805Y187905D3*
G1X679805Y187905D3*
G1X689805Y187905D3*
G1X699805Y187905D3*
G1X709805Y187905D3*
G1X719805Y187905D3*
G1X729805Y187905D3*
G54D11*
G1X670143Y11393D3*
G1X670755Y78767D3*
G1X676447Y11393D3*
G1X682751Y11393D3*
G1X689055Y11393D3*
G1X686297Y60249D3*
G1X675265Y105953D3*
G1X672901Y99255D3*
G1X685903Y133139D3*
G1X685903Y139049D3*
G1X685903Y145353D3*
G1X694571Y11393D3*
G1X691813Y60249D3*
G1X694932Y104084D3*
G1X700169Y126753D3*
G1X725697Y10211D3*
G1X725697Y24001D3*
G1X725697Y16909D3*
G1X713255Y67735D3*
G1X722151Y64583D3*
G1X716635Y73251D3*
G1X713089Y103180D3*
G1X721757Y100437D3*
G1X721757Y106741D3*
G1X721757Y113439D3*
G1X713171Y124471D3*
G1X733955Y53157D3*
G1X747761Y188299D3*
G1X759581Y188299D3*
G1X765491Y188299D3*
G1X754065Y178449D3*
G1X759975Y178449D3*
G1X765491Y178449D3*
G1X753671Y188299D3*
G1X756429Y183177D3*
G1X762339Y183177D3*
G1X800557Y62767D3*
G1X808037Y87436D3*
G1X794257Y87436D3*
G1X804297Y82901D3*
G1X705704Y187905D2*
G54D14*
G1X709805Y187905D1*
G1X699805Y183804D2*
G1X699805Y187905D1*
G1X699805Y192006D1*
G1X695704Y187905D2*
G1X699805Y187905D1*
G1X703906Y187905D1*
G1X725704Y187905D2*
G1X729805Y187905D1*
G1X719805Y183804D2*
G1X719805Y187905D1*
G1X719805Y192006D1*
G1X715704Y187905D2*
G1X719805Y187905D1*
G1X723906Y187905D1*
G1X709805Y183804D2*
G1X709805Y187905D1*
G1X709805Y192006D1*
G1X709805Y187905D2*
G1X713906Y187905D1*
G1X729805Y183804D2*
G1X729805Y187905D1*
G1X729805Y192006D1*
G1X729805Y187905D2*
G1X733906Y187905D1*
G1X716635Y73251D2*
G54D15*
G1X716635Y131075D1*
G1X659805Y187905D1*
G1X713171Y124471D2*
G1X711191Y126451D1*
G1X711191Y126519D1*
G1X649805Y187905D1*
G1X713255Y67735D2*
G1X725485Y67735D1*
G1X726485Y68735D1*
G1X726485Y131225D1*
G1X669805Y187905D1*
G1X679805Y187905D2*
G1X732789Y134921D1*
G1X732789Y65583D1*
G1X731789Y64583D1*
G1X722151Y64583D1*
G1X800557Y62767D2*
G1X800557Y77153D1*
G1X689805Y187905D1*
G1X808037Y87436D2*
G1X794257Y87436D1*
G54D10*
G36*
G1X629979Y210001D2*
G1X826829Y210001D1*
G1X826829Y406851D1*
G1X629979Y406851D1*
G1X629979Y210001D1*
G37*
%LPC*%
G36*
G1X811725Y390352D2*
G1X817525Y390352D1*
G75*
G3X818525Y391353I-1J1000D1*
G1X818525Y397153D1*
G3X817525Y398154I-1001J0D1*
G1X811725Y398154D1*
G3X810724Y397153I0J-1002D1*
G1X810724Y391353D1*
G3X811725Y390352I1001J0D1*
G37*
G36*
G1X697397Y245502D2*
G1X710168Y245502D1*
G1X715312Y250647D1*
G2X715992Y250314I283J-283D1*
G3X718161Y252482I2481J-314D1*
G2X717828Y253162I-50J397D1*
G1X732215Y267549D1*
G1X737853Y267549D1*
G1X816525Y346221D1*
G1X816525Y380847D1*
G3X812724Y380847I-1901J3405D1*
G1X812724Y347796D1*
G1X807208Y342281D1*
G2X806525Y342564I-283J283D1*
G1X806525Y380847D1*
G3X802724Y380847I-1901J3405D1*
G1X802724Y341234D1*
G1X757231Y295741D1*
G2X756607Y295814I-284J283D1*
G3X753166Y292373I-2128J-1314D1*
G2X753239Y291749I-210J-341D1*
G1X734809Y273319D1*
G1X732670Y273319D1*
G2X732299Y273868I0J400D1*
G3X727659Y273868I-2320J932D1*
G2X727288Y273319I-371J-150D1*
G1X720573Y273319D1*
G2X720290Y274002I0J400D1*
G1X796525Y350237D1*
G1X796525Y380847D1*
G3X792724Y380847I-1901J3405D1*
G1X792724Y351812D1*
G1X787208Y346296D1*
G2X786525Y346579I-283J283D1*
G1X786525Y380847D1*
G3X782724Y380847I-1901J3405D1*
G1X782724Y344962D1*
G1X777208Y339446D1*
G2X776525Y339729I-283J283D1*
G1X776525Y380352D1*
G1X777525Y380352D1*
G3X778525Y381353I-1J1000D1*
G1X778525Y387153D1*
G3X777525Y388154I-1001J0D1*
G1X771725Y388154D1*
G3X770724Y387153I0J-1002D1*
G1X770724Y381353D1*
G3X771725Y380352I1001J0D1*
G1X772724Y380352D1*
G1X772724Y338111D1*
G1X767208Y332595D1*
G2X766525Y332878I-283J283D1*
G1X766525Y380847D1*
G3X762724Y380847I-1901J3405D1*
G1X762724Y330867D1*
G1X757208Y325351D1*
G2X756525Y325634I-283J283D1*
G1X756525Y380847D1*
G3X752724Y380847I-1901J3405D1*
G1X752724Y323623D1*
G1X747208Y318107D1*
G2X746525Y318390I-283J283D1*
G1X746525Y380847D1*
G3X742724Y380847I-1901J3405D1*
G1X742724Y316773D1*
G1X737208Y311257D1*
G2X736525Y311540I-283J283D1*
G1X736525Y380847D1*
G3X732724Y380847I-1901J3405D1*
G1X732724Y310641D1*
G1X704342Y282259D1*
G3X703243Y280473I902J-1787D1*
G3X703372Y279766I2006J0D1*
G2X702998Y279225I-374J-142D1*
G1X691396Y279225D1*
G1X685952Y273781D1*
G1X685952Y260001D1*
G1X691089Y254864D1*
G2X691098Y254308I-283J-283D1*
G3X691656Y251154I1460J-1368D1*
G1X693397Y249413D1*
G1X693486Y249413D1*
G1X697397Y245502D1*
G37*
G74*
G54D18*
G1X724625Y394253D3*
G1X744625Y394253D3*
G1X734625Y394253D3*
G1X754625Y394253D3*
G1X764625Y394253D3*
G54D16*
G1X651581Y251603D3*
G1X666979Y265701D3*
G1X666979Y280601D3*
G1X666979Y273201D3*
G1X698779Y236001D3*
G1X691279Y236001D3*
G1X690379Y304701D3*
G1X700979Y356001D3*
G1X695479Y356001D3*
G1X689479Y356001D3*
G1X695479Y348001D3*
G1X689979Y348001D3*
G1X700979Y348001D3*
G1X706479Y348001D3*
G1X729979Y259801D3*
G1X754479Y300001D3*
G54D17*
G1X724625Y384253D3*
G1X774625Y394253D3*
G1X784625Y394253D3*
G1X804625Y394253D3*
G1X794625Y394253D3*
%LPD*%
G54D10*
G1X639822Y239529D3*
G1X639428Y249765D3*
G1X635097Y249765D3*
G1X634310Y282836D3*
G1X639034Y282836D3*
G1X639822Y298584D3*
G1X639822Y318269D3*
G1X639822Y337954D3*
G1X639822Y357639D3*
G1X639822Y377324D3*
G1X639822Y397009D3*
G1X649664Y229686D3*
G1X649664Y269056D3*
G1X649664Y288741D3*
G1X649664Y308426D3*
G1X649664Y328111D3*
G1X649664Y367481D3*
G1X649664Y387166D3*
G1X659507Y219844D3*
G1X669349Y229686D3*
G1X659900Y259214D3*
G1X668168Y258426D3*
G1X669349Y269056D3*
G1X659507Y278899D3*
G1X669349Y288741D3*
G1X669349Y308426D3*
G1X659507Y298584D3*
G1X669349Y328111D3*
G1X659507Y318269D3*
G1X669349Y367481D3*
G1X669349Y387166D3*
G1X659507Y377324D3*
G1X679192Y219844D3*
G1X685491Y262363D3*
G1X679192Y298584D3*
G1X679192Y318269D3*
G1X679192Y337954D3*
G1X679192Y397009D3*
G1X698877Y219844D3*
G1X689034Y229686D3*
G1X692558Y252940D3*
G1X698483Y267481D3*
G1X694940Y267481D3*
G1X694940Y263938D3*
G1X698483Y263938D3*
G1X697700Y253702D3*
G1X694940Y253702D3*
G1X694940Y270631D3*
G1X698483Y270631D3*
G1X689034Y308426D3*
G1X698089Y310001D3*
G1X694152Y299371D3*
G1X689034Y328111D3*
G1X698877Y318269D3*
G1X698877Y337954D3*
G1X689034Y387166D3*
G1X698877Y397009D3*
G1X708719Y229686D3*
G1X706357Y253308D3*
G1X711771Y264035D3*
G1X708325Y256341D3*
G1X702026Y263938D3*
G1X702026Y267481D3*
G1X711869Y261182D3*
G1X710688Y258426D3*
G1X702026Y270631D3*
G1X705244Y280473D3*
G1X701633Y299371D3*
G1X708719Y328111D3*
G1X708719Y387166D3*
G1X718562Y219844D3*
G1X728404Y229686D3*
G1X728404Y249371D3*
G1X724073Y251340D3*
G1X728798Y281261D3*
G1X729979Y310395D3*
G1X728404Y328111D3*
G1X718562Y337954D3*
G1X728404Y347796D3*
G1X718562Y357639D3*
G1X728404Y367481D3*
G1X738247Y219844D3*
G1X738247Y239529D3*
G1X738247Y357639D3*
G1X757932Y219844D3*
G1X748089Y229686D3*
G1X748089Y249371D3*
G1X757932Y239529D3*
G1X757932Y259214D3*
G1X748089Y269056D3*
G1X748089Y328111D3*
G1X748089Y347796D3*
G1X757932Y357639D3*
G1X748089Y367481D3*
G1X767774Y229686D3*
G1X767774Y249371D3*
G1X761081Y265513D3*
G1X767774Y269056D3*
G1X767774Y288741D3*
G1X767774Y308426D3*
G1X767774Y347796D3*
G1X761475Y351340D3*
G1X767774Y367481D3*
G1X777617Y219844D3*
G1X787459Y229686D3*
G1X787459Y249371D3*
G1X777617Y239529D3*
G1X777617Y259214D3*
G1X780766Y265513D3*
G1X787459Y269056D3*
G1X787459Y288741D3*
G1X787459Y308426D3*
G1X777617Y298584D3*
G1X787459Y328111D3*
G1X787853Y348584D3*
G1X777617Y357639D3*
G1X780766Y351340D3*
G1X788247Y367481D3*
G1X797302Y219844D3*
G1X797302Y239529D3*
G1X797302Y259214D3*
G1X797302Y298584D3*
G1X797302Y318269D3*
G1X797302Y357639D3*
G1X816987Y219844D3*
G1X807144Y229686D3*
G1X807144Y249371D3*
G1X816987Y239529D3*
G1X817381Y259214D3*
G1X807144Y269056D3*
G1X807144Y288741D3*
G1X815806Y291891D3*
G1X807144Y308426D3*
G1X816987Y298584D3*
G1X807144Y328111D3*
G1X816987Y318269D3*
G1X816199Y324568D3*
G1X807932Y347796D3*
G1X817774Y357639D3*
G1X807932Y367481D3*
G1X822892Y259214D3*
G1X822499Y291891D3*
G1X822892Y324568D3*
G1X822499Y357639D3*
G54D11*
G1X651581Y251603D3*
G1X666979Y265701D3*
G1X666979Y280601D3*
G1X666979Y273201D3*
G1X691279Y236001D3*
G1X698779Y236001D3*
G1X690379Y304701D3*
G1X695479Y356001D3*
G1X689479Y356001D3*
G1X689979Y348001D3*
G1X695479Y348001D3*
G1X700979Y348001D3*
G1X700979Y356001D3*
G1X706479Y348001D3*
G1X718473Y250001D3*
G1X729979Y259801D3*
G1X729979Y274801D3*
G1X754479Y300001D3*
G1X754479Y294501D3*
G54D12*
G1X724625Y384253D3*
G1X724625Y394253D3*
G1X744625Y384253D3*
G1X734625Y384253D3*
G1X744625Y394253D3*
G1X734625Y394253D3*
G1X754625Y384253D3*
G1X754625Y394253D3*
G1X764625Y384253D3*
G1X774625Y394253D3*
G1X764625Y394253D3*
G1X784625Y384253D3*
G1X784625Y394253D3*
G1X804625Y384253D3*
G1X794625Y384253D3*
G1X804625Y394253D3*
G1X794625Y394253D3*
G1X814625Y384253D3*
G54D13*
G1X774625Y384253D3*
G1X814625Y394253D3*
G1X724625Y389852D2*
G54D14*
G1X724625Y394253D1*
G1X724625Y398654D1*
G1X720224Y394253D2*
G1X724625Y394253D1*
G1X729025Y394253D1*
G1X734625Y389852D2*
G1X734625Y394253D1*
G1X734625Y398654D1*
G1X730224Y394253D2*
G1X734625Y394253D1*
G1X739025Y394253D1*
G1X744625Y389852D2*
G1X744625Y394253D1*
G1X744625Y398654D1*
G1X740224Y394253D2*
G1X744625Y394253D1*
G1X749025Y394253D1*
G1X754625Y389852D2*
G1X754625Y394253D1*
G1X754625Y398654D1*
G1X750224Y394253D2*
G1X754625Y394253D1*
G1X759025Y394253D1*
G1X764625Y389852D2*
G1X764625Y394253D1*
G1X764625Y398654D1*
G1X760224Y394253D2*
G1X764625Y394253D1*
G1X769025Y394253D1*
G1X814625Y384253D2*
G54D15*
G1X814625Y347009D1*
G1X737066Y269450D1*
G1X731428Y269450D1*
G1X709381Y247403D1*
G1X698185Y247403D1*
G1X694273Y251314D1*
G1X694185Y251314D1*
G1X692558Y252940D1*
G1X764625Y384253D2*
G1X764625Y330080D1*
G1X707538Y272993D1*
G1X693365Y272993D1*
G1X692184Y271812D1*
G1X692184Y263151D1*
G1X700058Y255277D1*
G1X700058Y252521D1*
G1X703207Y249371D1*
G1X708349Y249371D1*
G1X713837Y254859D1*
G1X713837Y259214D1*
G1X711869Y261182D1*
G1X754625Y384253D2*
G1X754625Y322836D1*
G1X707144Y275355D1*
G1X692971Y275355D1*
G1X689822Y272206D1*
G1X689822Y262363D1*
G1X697700Y254485D1*
G1X697700Y253702D1*
G1X744625Y384253D2*
G1X744625Y315985D1*
G1X705963Y277324D1*
G1X692183Y277324D1*
G1X687853Y272994D1*
G1X687853Y260788D1*
G1X694940Y253702D1*
G1X774625Y384253D2*
G1X774625Y337323D1*
G1X704026Y266725D1*
G1X704026Y252095D1*
G1X705176Y250946D1*
G1X707181Y250946D1*
G1X710688Y254452D1*
G1X710688Y258426D1*
G1X804625Y384253D2*
G1X804625Y340447D1*
G1X735596Y271418D1*
G1X719154Y271418D1*
G1X711771Y264035D1*
G1X784625Y384253D2*
G1X784625Y344174D1*
G1X705963Y265513D1*
G1X705963Y255277D1*
G1X706357Y254883D1*
G1X706357Y253308D1*
G1X794625Y384253D2*
G1X794625Y351025D1*
G1X708325Y264725D1*
G1X708325Y256341D1*
G1X734625Y384253D2*
G1X734625Y309854D1*
G1X705244Y280473D1*
M2*
