M48
INCH,TZ
FMAT,2
ICI,OFF
T01C.037
T02C.02
T03C.01
T04C.042012
%
T01
G05
X10465Y17425
X9465Y17425
X10465Y18425
X9465Y18425
X9467Y38422
X9467Y39422
X10467Y38422
X11465Y17425
X12465Y17425
X12465Y18425
X11465Y18425
X11467Y38422
X12467Y38422
X11467Y39422
X10467Y39422
X14465Y17425
X13465Y17425
X13465Y18425
X14465Y18425
X14467Y38422
X13467Y38422
X13467Y39422
X12467Y39422
X14467Y39422
X16465Y17425
X15465Y17425
X16465Y18425
X15465Y18425
X17465Y17425
X15467Y38422
X15467Y39422
X17465Y18425
X16467Y38422
X16467Y39422
X18465Y18425
X18465Y17425
X18467Y38422
X17467Y38422
X18467Y39422
X17467Y39422
X31463Y38425
X30463Y38425
X30463Y39425
X31463Y39425
X32463Y38425
X33463Y38425
X33463Y39425
X32463Y39425
X35463Y38425
X34463Y38425
X34463Y39425
X35463Y39425
X36463Y39425
X36463Y38425
X37463Y38425
X38463Y38425
X37463Y39425
X39463Y38425
X38463Y39425
X39463Y39425
X73463Y38425
X72463Y38425
X73463Y39425
X72463Y39425
X74463Y38425
X75463Y38425
X75463Y39425
X74463Y39425
X77463Y38425
X76463Y38425
X76463Y39425
X77463Y39425
X79463Y38425
X78463Y38425
X79463Y39425
X78463Y39425
X81463Y38425
X80463Y38425
X81463Y39425
X80463Y39425
T04
X22986Y18792
X21986Y18792
X24986Y18792
X23986Y18792
X25986Y18792
X26986Y18792
X27986Y18792
X29986Y18792
X28986Y18792
X30986Y18792
X42986Y18792
X43985Y39793
X42985Y39793
X44986Y18792
X43986Y18792
X44985Y39793
X45985Y39793
X45986Y18792
X46986Y18792
X47986Y18792
X47985Y39793
X48985Y39793
X46985Y39793
X49985Y39793
X48986Y18792
X50986Y18792
X49986Y18792
X50985Y39793
X51985Y39793
X51986Y18792
X63981Y18791
X64981Y18791
X65981Y18791
X66981Y18791
X68981Y18791
X67981Y18791
X70981Y18791
X69981Y18791
X72981Y18791
X71981Y18791
T02
X2160Y4160
X2162Y25157
X3700Y7060
X3700Y6320
X3700Y5570
X3702Y26567
X3702Y27317
X3702Y28057
X6880Y2600
X6130Y2600
X6040Y9470
X6550Y13800
X6000Y13800
X5950Y14600
X6550Y14600
X6132Y23597
X6882Y23597
X6042Y30467
X6002Y34797
X6552Y34797
X6552Y35597
X5952Y35597
X7100Y13800
X7650Y13800
X7100Y14600
X7102Y34797
X7652Y34797
X7102Y35597
X8851Y24997
X8849Y4000
X10000Y4980
X10000Y6480
X10002Y25977
X10002Y27477
X12450Y9000
X12450Y8450
X12452Y29447
X12452Y29997
X23158Y25160
X25021Y1141
X25651Y1141
X25081Y7878
X24698Y26570
X24698Y27320
X24698Y28060
X26911Y1141
X26281Y1141
X25296Y9927
X25532Y10597
X27463Y1141
X27187Y6026
X26635Y6026
X27499Y10410
X26596Y13315
X26596Y13906
X26596Y14537
X28022Y12677
X27128Y23600
X27878Y23600
X27038Y30470
X26998Y34800
X26948Y35600
X28648Y34800
X27548Y34800
X28098Y34800
X28098Y35600
X27548Y35600
X29331Y6775
X29314Y10319
X29323Y12448
X30575Y2401
X30575Y1692
X30575Y1022
X30221Y6460
X29669Y7326
X30181Y10045
X30181Y10675
X30181Y11345
X29847Y25000
X31401Y5317
X30998Y25980
X30998Y27480
X33412Y17846
X33648Y18319
X32782Y18831
X33373Y18831
X34003Y17846
X34239Y18319
X33964Y18831
X33448Y29450
X33448Y30000
X34555Y18831
X34555Y17846
X38061Y6278
X37431Y8745
X38809Y8745
X38435Y8291
X46021Y1141
X46651Y1141
X46081Y7878
X46020Y22142
X46080Y28879
X47281Y1141
X46296Y9927
X46532Y10597
X47280Y22142
X46650Y22142
X46295Y30928
X46531Y31598
X47911Y1141
X48463Y1141
X47635Y6026
X48187Y6026
X48499Y10410
X47596Y13315
X47596Y13906
X47596Y14537
X48462Y22142
X47910Y22142
X47634Y27027
X48186Y27027
X49022Y12677
X48498Y31411
X47595Y34316
X47595Y34907
X47595Y35538
X49021Y33678
X51221Y6460
X50331Y6775
X50669Y7326
X51181Y10045
X50314Y10319
X51181Y10675
X51181Y11345
X50323Y12448
X50330Y27776
X50313Y31320
X50322Y33449
X51575Y2401
X51575Y1692
X51575Y1022
X51220Y27461
X50668Y28327
X51180Y31046
X51180Y31676
X51180Y32346
X52401Y5317
X51574Y22023
X51574Y22693
X51574Y23402
X52400Y26318
X54412Y17846
X54648Y18319
X53782Y18831
X54373Y18831
X55003Y17846
X55239Y18319
X54964Y18831
X54411Y38847
X55002Y38847
X55555Y18831
X54647Y39320
X53781Y39832
X55555Y17846
X55554Y38847
X55238Y39320
X54372Y39832
X54963Y39832
X55554Y39832
X59061Y6278
X58431Y8745
X58430Y29746
X59435Y8291
X59809Y8745
X59060Y27279
X59434Y29292
X59808Y29746
X65158Y25160
X67016Y1140
X67646Y1140
X67076Y7877
X67291Y9926
X67527Y10596
X66698Y26570
X66698Y27320
X66698Y28060
X68906Y1140
X68276Y1140
X69458Y1140
X68630Y6025
X69182Y6025
X69494Y10409
X68591Y13314
X68591Y13905
X68591Y14536
X70017Y12676
X69128Y23600
X69878Y23600
X69038Y30470
X70098Y34800
X69548Y34800
X68998Y34800
X69548Y35600
X68948Y35600
X70098Y35600
X71326Y6774
X71309Y10318
X71318Y12447
X70648Y34800
X72570Y2400
X72570Y1691
X72570Y1021
X72216Y6459
X71664Y7325
X72176Y10044
X72176Y10674
X72176Y11344
X71847Y25000
X73396Y5316
X72998Y25980
X72998Y27480
X75407Y17845
X75643Y18318
X74777Y18830
X75368Y18830
X75998Y17845
X75959Y18830
X75448Y29450
X75448Y30000
X76550Y17845
X76234Y18318
X76550Y18830
X79426Y8744
X80056Y6277
X80430Y8290
X80804Y8744
T03
X984Y2953
X945Y3976
X512Y3976
X433Y7283
X906Y7283
X1965Y1969
X1969Y5906
X1969Y7874
X983Y8858
X1968Y9843
X983Y10827
X984Y12795
X984Y14764
X984Y16732
X984Y18701
X986Y23950
X947Y24973
X514Y24973
X435Y28280
X908Y28280
X985Y29855
X985Y31824
X986Y33792
X986Y35761
X986Y37729
X986Y39698
X2949Y984
X1966Y11811
X1969Y15748
X1967Y17717
X1967Y22966
X1971Y26903
X1971Y28871
X1970Y30840
X1968Y32808
X1971Y36745
X1969Y38714
X3934Y1969
X3819Y4843
X2992Y4921
X3937Y5906
X2953Y6890
X4918Y984
X3937Y7874
X2952Y8858
X3937Y9843
X2952Y10827
X3935Y11811
X3937Y15748
X2953Y16732
X3936Y17717
X2951Y21981
X3936Y22966
X3821Y25840
X2994Y25918
X3939Y26903
X2955Y27887
X3939Y28871
X2954Y29855
X3939Y30840
X2954Y31824
X3937Y32808
X3939Y36745
X2955Y37729
X3938Y38714
X6887Y984
X5903Y1969
X5551Y5236
X4921Y8858
X4921Y10827
X4920Y12795
X4921Y18701
X4920Y21981
X4923Y29855
X4923Y31824
X6258Y4294
X6772Y4370
X6496Y4370
X6496Y5394
X6850Y5394
X6496Y5748
X6497Y6063
X5553Y26233
X6850Y5748
X6851Y6063
X6417Y8937
X5906Y9843
X6811Y10000
X6890Y10827
X5904Y11811
X6889Y12795
X5905Y17717
X6890Y18701
X6889Y21981
X5905Y22966
X6260Y25291
X6774Y25367
X6498Y25367
X6852Y26391
X6498Y26391
X6852Y26745
X6498Y26745
X6853Y27060
X6499Y27060
X6419Y29934
X5908Y30840
X5906Y32808
X4922Y33792
X5907Y38714
X4923Y39698
X7872Y1969
X7638Y4331
X7835Y4634
X8071Y4843
X8189Y5118
X7205Y5394
X8179Y5403
X7205Y5748
X7205Y6063
X7526Y7047
X7165Y8937
X7873Y11811
X7874Y17717
X7874Y22966
X7640Y25328
X7837Y25631
X8073Y25840
X8191Y26115
X7207Y26391
X8181Y26400
X7207Y26745
X7207Y27060
X7528Y28044
X7167Y29934
X6813Y30997
X6892Y31824
X6891Y33792
X6892Y39698
X8856Y984
X9841Y1969
X9841Y3937
X9409Y4134
X9842Y11811
X8858Y12795
X9842Y13780
X8856Y14764
X7875Y32808
X7876Y38714
X10825Y984
X10827Y2953
X9882Y7126
X10000Y10039
X10825Y14764
X9842Y15748
X8858Y21981
X8860Y33792
X8858Y35761
X10827Y21981
X9843Y22966
X9411Y25131
X10829Y23950
X9843Y24934
X9884Y28123
X10002Y31036
X9844Y32808
X9844Y34777
X11810Y1969
X10827Y35761
X9844Y36745
X12794Y984
X13779Y1969
X12794Y2953
X11810Y3937
X12794Y4921
X11810Y5906
X11811Y11811
X11811Y13780
X11811Y15748
X11812Y22966
X11812Y24934
X11812Y26903
X11813Y32808
X11813Y34777
X11813Y36745
X14763Y2953
X13779Y3937
X13110Y5551
X14763Y4921
X14763Y984
X13779Y5906
X13779Y7874
X13779Y9843
X13780Y13780
X13150Y14134
X12794Y14764
X13780Y15748
X12796Y21981
X13781Y22966
X12796Y23950
X13781Y24934
X12796Y25918
X13112Y26548
X13781Y26903
X13781Y28871
X13781Y30840
X13782Y34777
X13152Y35131
X12796Y35761
X15748Y3937
X15748Y1969
X15079Y5551
X15748Y5906
X15748Y7874
X14763Y8858
X15748Y9843
X15748Y11811
X15079Y14134
X14763Y14764
X14765Y21981
X14765Y23950
X14765Y25918
X13782Y36745
X15081Y26548
X16732Y984
X16732Y2953
X16732Y4921
X16732Y8858
X16732Y10827
X15787Y13858
X16732Y14764
X15827Y15748
X16734Y21981
X15750Y22966
X16734Y23950
X15750Y24934
X16734Y25918
X15750Y26903
X15750Y28871
X14765Y29855
X15750Y30840
X15750Y32808
X15789Y34855
X15081Y35131
X14765Y35761
X15829Y36745
X18701Y984
X17717Y1969
X18701Y2953
X17717Y3937
X17717Y5906
X17717Y7874
X18583Y8189
X18701Y8858
X17717Y9843
X18701Y10827
X18622Y11457
X17717Y11811
X17795Y13780
X17795Y15748
X18703Y21981
X17719Y22966
X18703Y23950
X17719Y24934
X17719Y26903
X17719Y28871
X16734Y29855
X17719Y30840
X16734Y31824
X16734Y35761
X19291Y4921
X18740Y4921
X19252Y8189
X19291Y11457
X18780Y14764
X19252Y14764
X19293Y25918
X18742Y25918
X18585Y29186
X19254Y29186
X18703Y29855
X18703Y31824
X18624Y32454
X17719Y32808
X17797Y34777
X19293Y32454
X19254Y35761
X18782Y35761
X17797Y36745
X22970Y982
X21985Y982
X21985Y1967
X22969Y1967
X21986Y2951
X21985Y3935
X21985Y4919
X21985Y8856
X21985Y9841
X21985Y10825
X21985Y15746
X21985Y16730
X21985Y17715
X21982Y23953
X21510Y24976
X21943Y24976
X21904Y28283
X21431Y28283
X21981Y29858
X21981Y31827
X21982Y33795
X21982Y35764
X21982Y37732
X21982Y39701
X23954Y982
X23953Y1967
X23954Y2951
X22970Y2951
X22969Y3935
X23953Y3935
X22970Y4919
X22970Y5904
X23953Y8856
X22969Y8856
X23954Y9841
X22970Y9841
X22970Y10825
X24623Y9624
X23954Y10825
X22970Y11809
X24485Y2439
X24581Y6788
X24938Y11809
X23954Y11809
X23954Y12793
X23954Y13778
X22970Y15746
X22970Y16730
X23947Y21984
X22963Y22969
X22967Y26906
X22967Y28874
X22966Y30843
X22964Y32811
X22967Y36748
X22965Y38717
X24781Y13226
X24820Y13935
X24932Y22969
X24817Y25843
X23990Y25921
X25292Y2833
X25470Y4939
X25271Y6118
X25271Y6788
X25916Y21984
X24935Y26906
X23951Y27890
X24935Y28874
X23950Y29858
X24935Y30843
X23950Y31827
X24933Y32811
X24935Y36748
X23951Y37732
X24934Y38717
X25971Y6118
X26651Y6788
X25941Y6788
X26316Y14939
X26867Y17400
X26901Y22969
X26549Y26236
X25919Y29858
X26904Y30843
X25919Y31827
X26902Y32811
X25918Y33795
X26903Y38717
X25919Y39701
X27064Y2813
X27931Y6508
X27241Y6808
X28344Y3422
X28414Y3994
X27941Y6138
X28391Y6518
X27881Y8388
X28261Y8398
X28073Y8587
X27881Y8788
X26981Y15248
X26981Y15508
X28271Y8798
X27885Y21984
X27256Y25294
X27494Y25370
X27770Y25370
X27494Y26394
X27848Y26394
X27494Y26748
X27848Y26748
X27495Y27063
X27849Y27063
X27415Y29937
X29411Y3658
X29052Y3659
X29231Y3838
X29051Y4018
X28203Y26394
X28203Y26748
X28203Y27063
X29401Y4028
X29367Y6415
X28870Y22969
X28636Y25331
X28833Y25634
X29069Y25843
X29187Y26118
X29177Y26403
X28524Y28047
X28163Y29937
X27809Y31000
X27888Y31827
X27887Y33795
X27888Y39701
X29854Y21984
X28871Y32811
X29856Y33795
X29854Y35764
X28872Y38717
X32182Y589
X31828Y4919
X31198Y5884
X30407Y25134
X32241Y1967
X32241Y1317
X32812Y4919
X32812Y5904
X31828Y5904
X31828Y6888
X31788Y10136
X31828Y12793
X30844Y15746
X30839Y22969
X30839Y24937
X30880Y28126
X30998Y31039
X30840Y32811
X30840Y34780
X30840Y36748
X31926Y11041
X33796Y982
X32812Y6888
X32891Y7478
X32812Y11809
X32812Y13778
X32812Y14762
X31828Y14762
X31828Y15746
X31823Y21984
X32808Y22969
X31825Y23953
X32808Y24937
X32808Y26906
X32809Y32811
X32809Y34780
X31823Y35764
X32809Y36748
X34781Y982
X35765Y982
X33796Y1967
X34781Y1967
X33796Y4919
X33796Y5904
X33796Y6888
X33796Y7872
X34781Y11809
X33796Y12793
X33796Y13778
X33796Y14762
X33792Y21984
X33792Y23953
X33792Y25921
X34108Y26551
X34148Y35134
X33792Y35764
X36749Y982
X35765Y1967
X36749Y1967
X36749Y2951
X35765Y2951
X36749Y3935
X35765Y3935
X36750Y4919
X35765Y4919
X36749Y5904
X36749Y11809
X35765Y11809
X34781Y12793
X35765Y12793
X34781Y13778
X35765Y13778
X35765Y14762
X34777Y22969
X34777Y24937
X34777Y26906
X34777Y28874
X34777Y30843
X34778Y34780
X34778Y36748
X37733Y3935
X37733Y2951
X37733Y1967
X37733Y982
X37734Y4919
X37733Y5904
X37733Y11809
X36749Y12793
X37733Y12793
X36749Y14762
X36749Y15746
X36749Y16730
X36750Y17715
X35942Y18384
X35761Y21984
X36746Y22969
X35761Y23953
X36746Y24937
X35761Y25921
X36077Y26551
X36746Y26906
X36746Y28874
X35761Y29858
X36746Y30843
X36746Y32811
X36077Y35134
X35761Y35764
X36825Y36748
X36785Y34858
X39702Y982
X38718Y982
X39702Y1967
X38718Y1967
X38718Y2951
X39702Y2951
X39702Y3935
X38718Y3935
X38718Y4919
X39702Y4919
X39702Y5903
X38718Y5904
X39702Y6887
X39702Y7872
X38718Y9841
X38718Y10825
X38717Y11809
X38717Y12793
X39702Y12793
X38717Y14762
X37733Y14762
X37733Y15746
X38717Y15746
X38717Y16730
X37733Y16730
X37734Y17715
X38718Y17715
X37730Y21984
X38715Y22969
X37730Y23953
X38715Y24937
X37730Y25921
X38715Y26906
X38715Y28874
X37730Y29858
X38715Y30843
X37730Y31827
X38715Y32811
X37730Y35764
X39702Y18698
X39702Y17714
X39702Y16730
X39702Y15746
X39702Y14762
X39702Y13778
X39699Y21984
X39699Y23953
X40289Y25921
X39738Y25921
X39581Y29189
X40250Y29189
X39699Y29858
X39699Y31827
X39620Y32457
X38793Y34780
X38793Y36748
X40289Y32457
X40250Y35764
X39778Y35764
X43970Y982
X42985Y982
X42985Y1967
X44954Y982
X44953Y1967
X43969Y1967
X42986Y2951
X43970Y2951
X42985Y3935
X43969Y3935
X43970Y4919
X42985Y4919
X43970Y5904
X42985Y8856
X43969Y8856
X43970Y9841
X42985Y9841
X42985Y10825
X42985Y15746
X42985Y16730
X42985Y17715
X42984Y21983
X42984Y22968
X42985Y23952
X44954Y2951
X44953Y3935
X44953Y8856
X44954Y9841
X43970Y10825
X44954Y10825
X43970Y11809
X44954Y11809
X44954Y12793
X44954Y13778
X43970Y15746
X43970Y16730
X44953Y21983
X43969Y21983
X43968Y22968
X44952Y22968
X44953Y23952
X43969Y23952
X43968Y24936
X42984Y24936
X42984Y25920
X42984Y29857
X42984Y30842
X44952Y24936
X43969Y25920
X43969Y26905
X44952Y29857
X43968Y29857
X43969Y30842
X44953Y30842
X43969Y31826
X42984Y31826
X42984Y36747
X42984Y37731
X42984Y38716
X45485Y2439
X44953Y31826
X43969Y32810
X44953Y32810
X44953Y33794
X44953Y34779
X43969Y36747
X43969Y37731
X46292Y2833
X46470Y4939
X46271Y6118
X46971Y6118
X45581Y6788
X46271Y6788
X45623Y9624
X45938Y11809
X45781Y13226
X45820Y13935
X45484Y23440
X46941Y6788
X46291Y23834
X46469Y25940
X46270Y27119
X45580Y27789
X46270Y27789
X45622Y30625
X45937Y32810
X45780Y34227
X45819Y34936
X46970Y27119
X48064Y2813
X47651Y6788
X46940Y27789
X48241Y6808
X47316Y14939
X47981Y15248
X47981Y15508
X47867Y17400
X48063Y23814
X47650Y27789
X48240Y27809
X47315Y35940
X47980Y36249
X47980Y36509
X47866Y38401
X49344Y3422
X48941Y6138
X48931Y6508
X48881Y8388
X50052Y3659
X50231Y3838
X49414Y3994
X50051Y4018
X49391Y6518
X49261Y8398
X49073Y8587
X48881Y8788
X49271Y8798
X49343Y24423
X50051Y24660
X50230Y24839
X49413Y24995
X48940Y27139
X48930Y27509
X50050Y25019
X49390Y27519
X48880Y29389
X49260Y29399
X49072Y29588
X48880Y29789
X49270Y29799
X50411Y3658
X50401Y4028
X50367Y6415
X50410Y24659
X50400Y25029
X50366Y27416
X53182Y589
X53241Y1317
X53241Y1967
X52828Y4919
X52198Y5884
X52828Y5904
X52828Y6888
X52788Y10136
X52926Y11041
X52828Y12793
X52828Y14762
X51844Y15746
X52828Y15746
X53181Y21590
X53240Y22318
X53240Y22968
X52827Y25920
X52197Y26885
X52827Y26905
X52827Y27889
X52787Y31137
X51843Y36747
X52827Y33794
X52925Y32042
X54796Y982
X54796Y1967
X54796Y4919
X53812Y4919
X54796Y5904
X53812Y5904
X53812Y6888
X54796Y6888
X53891Y7478
X54796Y7872
X53812Y11809
X54796Y12793
X54796Y13778
X53812Y13778
X54796Y14762
X53812Y14762
X54795Y21983
X54795Y22968
X53811Y25920
X54795Y25920
X53811Y26905
X54795Y26905
X53811Y27889
X54795Y27889
X53890Y28479
X54795Y28873
X53811Y32810
X54795Y33794
X54795Y34779
X53811Y34779
X53811Y35763
X52827Y35763
X52827Y36747
X55781Y982
X56765Y982
X55781Y1967
X55781Y11809
X55781Y12793
X55781Y13778
X55780Y21983
X55780Y22968
X55780Y32810
X55780Y33794
X55780Y34779
X54795Y35763
X57749Y982
X56765Y1967
X57749Y1967
X56765Y2951
X57749Y2951
X57749Y3935
X56765Y3935
X57750Y4919
X56765Y4919
X57749Y5904
X56765Y11809
X57749Y11809
X57749Y12793
X56765Y12793
X56765Y13778
X57749Y14762
X56765Y14762
X57749Y15746
X57749Y16730
X57750Y17715
X56942Y18384
X56764Y21983
X57748Y21983
X57748Y22968
X56764Y22968
X57748Y23952
X56764Y23952
X57748Y24936
X56764Y24936
X57749Y25920
X56764Y25920
X57748Y26905
X57748Y32810
X56764Y32810
X56764Y33794
X56764Y34779
X56764Y35763
X56941Y39385
X59718Y982
X58733Y982
X59718Y1967
X58733Y1967
X59718Y2951
X58733Y2951
X58733Y3935
X59718Y3935
X59718Y4919
X58734Y4919
X58733Y5904
X59718Y5904
X59718Y9841
X59718Y10825
X59717Y11809
X58733Y11809
X58733Y12793
X59717Y12793
X58733Y14762
X59717Y14762
X58733Y15746
X59717Y15746
X58733Y16730
X59717Y16730
X59718Y17715
X58734Y17715
X58732Y21983
X59717Y21983
X59717Y22968
X58732Y22968
X59717Y23952
X58732Y23952
X59717Y24936
X58732Y24936
X58733Y25920
X59717Y25920
X59717Y26905
X58732Y26905
X59717Y30842
X59717Y31826
X58732Y32810
X59716Y32810
X58732Y33794
X57748Y33794
X58732Y35763
X57748Y35763
X57748Y36747
X58732Y36747
X57748Y37731
X58732Y37731
X58733Y38716
X57749Y38716
X60702Y18698
X60702Y17714
X60702Y16730
X60702Y15746
X60702Y14762
X60702Y13778
X60702Y12793
X60702Y7872
X60702Y6887
X60702Y5903
X60702Y4919
X60702Y3935
X60702Y2951
X60702Y1967
X60702Y982
X60701Y21983
X60701Y22968
X60701Y23952
X60701Y24936
X60701Y25920
X60701Y26904
X60701Y27888
X60701Y28873
X60701Y33794
X59716Y33794
X60701Y34779
X59716Y35763
X60701Y35763
X60701Y36747
X59716Y36747
X59716Y37731
X60701Y37731
X60701Y38715
X59717Y38716
X60701Y39699
X63980Y981
X64965Y981
X63980Y1966
X63981Y2950
X63980Y3934
X63980Y4918
X63980Y8855
X63980Y9840
X63980Y10824
X63980Y15745
X63980Y16729
X63980Y17714
X63982Y23953
X63510Y24976
X63943Y24976
X63431Y28283
X63904Y28283
X63981Y29858
X63981Y31827
X63982Y33795
X63982Y35764
X63982Y37732
X63982Y39701
X65949Y981
X64964Y1966
X65948Y1966
X65949Y2950
X64965Y2950
X64964Y3934
X65948Y3934
X64965Y4918
X64965Y5903
X64964Y8855
X65948Y8855
X65949Y9840
X64965Y9840
X65949Y10824
X64965Y10824
X65949Y11808
X64965Y11808
X65949Y12792
X65949Y13777
X64965Y15745
X64965Y16729
X65947Y21984
X64963Y22969
X64967Y26906
X65951Y27890
X64967Y28874
X65950Y29858
X64966Y30843
X65950Y31827
X64964Y32811
X64967Y36748
X65951Y37732
X64965Y38717
X66480Y2438
X67287Y2832
X67465Y4938
X67266Y6117
X66576Y6787
X67266Y6787
X66618Y9623
X66933Y11808
X66776Y13225
X66815Y13934
X66932Y22969
X66817Y25843
X65990Y25921
X67916Y21984
X66935Y26906
X66935Y28874
X66935Y30843
X66933Y32811
X66935Y36748
X66934Y38717
X67936Y6787
X67966Y6117
X69059Y2812
X68646Y6787
X69236Y6807
X68311Y14938
X68976Y15247
X68976Y15507
X68862Y17399
X68901Y22969
X69256Y25294
X69494Y25370
X68549Y26236
X67919Y29858
X68904Y30843
X67919Y31827
X68902Y32811
X67918Y33795
X68903Y38717
X67919Y39701
X70339Y3421
X70409Y3993
X69936Y6137
X69926Y6507
X70386Y6517
X69876Y8387
X70256Y8397
X70068Y8586
X69876Y8787
X70266Y8797
X69885Y21984
X69770Y25370
X70203Y26394
X69848Y26394
X69494Y26394
X69494Y26748
X69848Y26748
X69849Y27063
X69495Y27063
X69415Y29937
X70870Y22969
X70636Y25331
X70833Y25634
X70163Y29937
X69809Y31000
X69888Y31827
X69887Y33795
X69888Y39701
X71406Y3657
X71047Y3658
X71226Y3837
X71046Y4017
X71396Y4027
X71362Y6414
X71854Y21984
X71069Y25843
X71187Y26118
X71177Y26403
X70203Y26748
X70203Y27063
X70524Y28047
X70871Y32811
X72839Y15745
X72407Y25134
X71856Y33795
X71854Y35764
X70872Y38717
X73193Y5883
X74177Y588
X74236Y1316
X74236Y1966
X73823Y4918
X73783Y10135
X74807Y5903
X74807Y4918
X73823Y5903
X73823Y6887
X74807Y6887
X73921Y11040
X73823Y12792
X73823Y14761
X73823Y15745
X73823Y21984
X72839Y22969
X73825Y23953
X72839Y24937
X72880Y28126
X72998Y31039
X72840Y32811
X72840Y34780
X73823Y35764
X72840Y36748
X76776Y981
X75791Y981
X75791Y1966
X76776Y1966
X75791Y4918
X75791Y5903
X75791Y6887
X74886Y7477
X75791Y7871
X74807Y11808
X75791Y12792
X74807Y13777
X75791Y13777
X75791Y14761
X74807Y14761
X75792Y21984
X74808Y22969
X75792Y23953
X74808Y24937
X75792Y25921
X74808Y26906
X74809Y32811
X74809Y34780
X76108Y26551
X76148Y35134
X75792Y35764
X74809Y36748
X77760Y981
X78744Y981
X77760Y1966
X78744Y1966
X77760Y2950
X77760Y3934
X77760Y4918
X76776Y11808
X76776Y12792
X76776Y13777
X76777Y22969
X76777Y24937
X76777Y26906
X76777Y28874
X76777Y30843
X76778Y34780
X78744Y3934
X78744Y2950
X78745Y4918
X78744Y5903
X78744Y11808
X77760Y11808
X77760Y12792
X78744Y12792
X77760Y13777
X77760Y14761
X78744Y14761
X78744Y15745
X78744Y16729
X78745Y17714
X77937Y18383
X77761Y21984
X78746Y22969
X77761Y23953
X78746Y24937
X77761Y25921
X78077Y26551
X78746Y26906
X78746Y28874
X77761Y29858
X78746Y30843
X78746Y32811
X78077Y35134
X77761Y35764
X76778Y36748
X80713Y981
X79728Y981
X80713Y1966
X79728Y1966
X79728Y2950
X80713Y2950
X79728Y3934
X79729Y4918
X79728Y5903
X78785Y34858
X78825Y36748
X81697Y3934
X81697Y2950
X81697Y1966
X81697Y981
X80713Y3934
X81697Y4918
X80713Y4918
X81697Y5902
X80713Y5903
X79728Y11808
X79728Y12792
X79728Y14761
X79728Y15745
X79728Y16729
X79729Y17714
X79730Y21984
X79730Y23953
X79730Y25921
X79730Y29858
X79730Y31827
X79730Y35764
X81697Y7871
X81697Y6886
X80713Y9840
X80713Y10824
X80712Y11808
X80712Y12792
X81697Y12792
X81697Y13777
X81697Y14761
X80712Y14761
X81697Y15745
X80712Y15745
X80712Y16729
X81697Y16729
X81697Y17713
X80713Y17714
X81697Y18697
X81699Y21984
X80715Y22969
X81699Y23953
X80715Y24937
X80715Y26906
X80715Y28874
X80715Y30843
X80715Y32811
X82289Y25921
X81738Y25921
X81581Y29189
X82250Y29189
X81699Y29858
X81699Y31827
X81620Y32457
X80793Y34780
X82289Y32457
X81778Y35764
X80793Y36748
X82250Y35764
M30
