M48
INCH,TZ
FMAT,2
ICI,OFF
T01C.037
T02C.02
T03C.01
T04C.042012
%
T01
G05
X19465Y19425
X19465Y18425
X18465Y19425
X18465Y18425
X17465Y19425
X17465Y18425
X16465Y19425
X16465Y18425
X15465Y19425
X15465Y18425
X14465Y19425
X14465Y18425
X13465Y19425
X13465Y18425
X12465Y19425
X12465Y18425
X11465Y19425
X11465Y18425
X10465Y19425
X10465Y18425
T02
X7063Y14780
X7614Y15646
X7614Y14780
X13441Y9425
X8126Y15646
X8165Y14780
X7063Y15646
X13441Y9976
X8717Y14780
X7040Y10470
X9849Y5000
X4700Y6570
X7880Y3600
X11000Y7480
X7130Y3600
X3160Y5160
X4700Y8060
X11000Y5980
X4700Y7320
T03
X8526Y8047
X7496Y5370
X7772Y5370
X9071Y5843
X9189Y6118
X11276Y6630
X11709Y7378
X1433Y8283
X1906Y8283
X1945Y4976
X1512Y4976
X19780Y15764
X20252Y15764
X19622Y12457
X20291Y12457
X19583Y9189
X20252Y9189
X19740Y5921
X20291Y5921
X15764Y5921
X4819Y5843
X13795Y5921
X7417Y9937
X7811Y11000
X19701Y11827
X4937Y2968
X15764Y9858
X16079Y6551
X19701Y1984
X17732Y1984
X17732Y3953
X2968Y8874
X13795Y1984
X18795Y14780
X2968Y18717
X16787Y14858
X14780Y2968
X12811Y2968
X10843Y2968
X8874Y2968
X6906Y2968
X2968Y10843
X17732Y11827
X13795Y3953
X7890Y11827
X9858Y1984
X4937Y16748
X15764Y15764
X7850Y6394
X8205Y6394
X12811Y14780
X10843Y14780
X11000Y11039
X6906Y10843
X6906Y12811
X16748Y2968
X10843Y12811
X3953Y7890
X12811Y12811
X8874Y12811
X17732Y5921
X7496Y6748
X17732Y9858
X5921Y1984
X2968Y2968
X14150Y15134
X16079Y15134
X7850Y6748
X17732Y15764
X8165Y9937
X3992Y5921
X15764Y1984
X2968Y16748
X7496Y6394
X11827Y1984
X8205Y6748
X14780Y10843
X16748Y10843
X16748Y12811
X18717Y12811
X18717Y10843
X14780Y8874
X16748Y8874
X18717Y8874
X18717Y6906
X16748Y6906
X14780Y6906
X12811Y6906
X19701Y9858
X10843Y4937
X12811Y4937
X14780Y4937
X16748Y4937
X18717Y4937
X18717Y2968
X14780Y14780
X3953Y11827
X15764Y3953
X1984Y19701
X1984Y17732
X1984Y15764
X1984Y13795
X1984Y11827
X1984Y9858
X1984Y3953
X7890Y19701
X5921Y19701
X5921Y13795
X7890Y13795
X9858Y13795
X9858Y15764
X3953Y17732
X11827Y3953
X7496Y7063
X4937Y18717
X6906Y18717
X8874Y18717
X10843Y16748
X12811Y16748
X14780Y16748
X16827Y16748
X18795Y16748
X6472Y6157
X4937Y12811
X4937Y6906
X4937Y8874
X4937Y10843
X14110Y6551
X13795Y15764
X11827Y15764
X8205Y7063
X5921Y9858
X3953Y1984
X7850Y7063
X7890Y1984
X2968Y12811
X3953Y9858
X10409Y5134
X5921Y11827
X2968Y6906
X11157Y7890
X19701Y3953
X8835Y5634
X8638Y5331
X7258Y5294
X9179Y6403
T04
X22985Y19794
X23985Y19794
X24985Y19794
X25985Y19794
X26985Y19794
X27985Y19794
X28985Y19794
X29985Y19794
X30985Y19794
X31985Y19794
T02
X30322Y13450
X28186Y7028
X31180Y12347
X27634Y7028
X34372Y19833
X39434Y9293
X31180Y11677
X35554Y18848
X29021Y13679
X35002Y18848
X27595Y14908
X27595Y14317
X26295Y10929
X27595Y15539
X35554Y19833
X31574Y3403
X26080Y8880
X28462Y2143
X26531Y11599
X27910Y2143
X31180Y11047
X33781Y19833
X34963Y19833
X34647Y19321
X35238Y19321
X32400Y6319
X26019Y2143
X31574Y2694
X34411Y18848
X27280Y2143
X26649Y2143
X31574Y2024
X39060Y7280
X30668Y8328
X31220Y7462
X30330Y7777
X39808Y9747
X38430Y9747
X28498Y11412
X30313Y11321
T03
X39717Y13795
X38732Y13795
X37748Y13795
X40701Y13795
X40701Y14780
X36764Y15764
X40701Y15764
X39717Y15764
X38732Y15764
X37748Y15764
X40701Y19701
X37748Y18717
X38732Y18717
X39717Y18717
X40701Y18717
X40701Y16748
X40701Y17732
X39717Y17732
X39717Y16748
X38732Y16748
X38732Y17732
X37748Y17732
X37748Y16748
X32827Y16748
X31843Y16748
X32827Y13795
X32827Y15764
X34795Y15764
X33811Y15764
X33811Y14780
X34795Y14780
X34795Y13795
X33811Y12811
X39717Y12811
X38732Y12811
X37748Y12811
X36764Y12811
X36764Y13795
X36764Y14780
X35780Y14780
X35780Y13795
X35780Y12811
X22984Y16748
X23968Y16748
X23968Y17732
X22984Y17732
X22984Y18717
X23968Y12811
X24953Y14780
X24953Y13795
X25937Y12811
X24953Y12811
X24953Y11827
X24953Y10843
X23968Y10843
X23968Y11827
X22984Y11827
X29390Y7520
X36941Y19386
X33240Y2319
X32787Y11138
X25484Y3441
X28063Y3815
X33240Y2968
X22984Y10843
X26468Y5941
X32197Y6886
X34795Y2968
X23968Y6906
X28930Y7510
X33890Y8480
X26970Y7120
X28940Y7140
X25580Y7790
X26270Y7120
X25819Y14937
X39717Y11827
X39717Y10843
X40701Y7890
X40701Y8874
X26291Y3835
X27866Y18402
X33181Y1591
X27315Y15941
X30400Y5030
X27986Y16437
X24953Y9858
X34795Y7890
X29270Y9800
X34795Y8874
X29260Y9400
X28880Y9390
X32925Y12043
X29072Y9589
X25780Y14228
X30230Y4840
X30410Y4660
X30366Y7417
X28880Y9790
X23968Y9858
X24953Y4937
X23968Y4937
X22984Y4937
X22984Y3953
X23968Y3953
X24953Y3953
X24953Y2968
X23968Y2968
X22984Y2968
X22984Y1984
X23968Y1984
X24953Y1984
X38732Y6906
X40701Y6906
X39717Y6906
X37748Y6906
X36764Y3953
X36764Y4937
X36764Y5921
X37748Y5921
X37748Y4937
X37748Y3953
X38732Y3953
X38732Y4937
X38732Y5921
X39717Y5921
X39717Y4937
X39717Y3953
X40701Y5921
X40701Y4937
X40701Y3953
X40701Y1984
X40701Y2968
X39717Y2968
X39717Y1984
X38732Y1984
X38732Y2968
X37748Y2968
X37748Y1984
X36764Y1984
X36764Y2968
X35780Y2968
X35780Y1984
X34795Y1984
X33811Y5921
X32827Y5921
X32827Y6906
X26270Y7790
X26940Y7790
X32827Y7890
X34795Y6906
X34795Y5921
X27986Y16181
X33811Y7890
X33811Y6906
X28240Y7810
X22984Y5921
X23968Y5921
X25622Y10626
X29343Y4424
X29413Y4996
X27650Y7790
X30050Y5020
X30051Y4661
X22984Y9858
T04
X43987Y19792
X44987Y19792
X45987Y19792
X46987Y19792
X47987Y19792
X48987Y19792
X49987Y19792
X50987Y19792
X51987Y19792
X52987Y19792
T02
X51324Y13448
X49188Y7026
X52182Y12345
X48636Y7026
X55374Y19831
X60436Y9291
X52182Y11675
X56556Y18846
X50023Y13677
X56004Y18846
X48597Y14906
X48597Y14315
X47297Y10927
X48597Y15537
X56556Y19831
X52576Y3401
X47082Y8878
X49464Y2141
X47533Y11597
X48912Y2141
X52182Y11045
X54783Y19831
X55965Y19831
X55649Y19319
X56240Y19319
X53402Y6317
X47021Y2141
X52576Y2692
X55413Y18846
X48282Y2141
X47651Y2141
X52576Y2022
X60062Y7278
X51670Y8326
X52222Y7460
X51332Y7775
X60810Y9745
X59432Y9745
X49500Y11410
X51315Y11319
T03
X60719Y13793
X59734Y13793
X58750Y13793
X61703Y13793
X61703Y14778
X57766Y15762
X61703Y15762
X60719Y15762
X59734Y15762
X58750Y15762
X61703Y19699
X58750Y18715
X59734Y18715
X60719Y18715
X61703Y18715
X61703Y16746
X61703Y17730
X60719Y17730
X60719Y16746
X59734Y16746
X59734Y17730
X58750Y17730
X58750Y16746
X53829Y16746
X52845Y16746
X53829Y13793
X53829Y15762
X55797Y15762
X54813Y15762
X54813Y14778
X55797Y14778
X55797Y13793
X54813Y12809
X60719Y12809
X59734Y12809
X58750Y12809
X57766Y12809
X57766Y13793
X57766Y14778
X56782Y14778
X56782Y13793
X56782Y12809
X43986Y16746
X44970Y16746
X44970Y17730
X43986Y17730
X43986Y18715
X44970Y12809
X45955Y14778
X45955Y13793
X46939Y12809
X45955Y12809
X45955Y11825
X45955Y10841
X44970Y10841
X44970Y11825
X43986Y11825
X50392Y7518
X57943Y19384
X54242Y2317
X53789Y11136
X46486Y3439
X49065Y3813
X54242Y2966
X43986Y10841
X47470Y5939
X53199Y6884
X55797Y2966
X44970Y6904
X49932Y7508
X54892Y8478
X47972Y7118
X49942Y7138
X46582Y7788
X47272Y7118
X46821Y14935
X60719Y11825
X60719Y10841
X61703Y7888
X61703Y8872
X47293Y3833
X48868Y18400
X54183Y1589
X48317Y15939
X51402Y5028
X48988Y16435
X45955Y9856
X55797Y7888
X50272Y9798
X55797Y8872
X50262Y9398
X49882Y9388
X53927Y12041
X50074Y9587
X46782Y14226
X51232Y4838
X51412Y4658
X51368Y7415
X49882Y9788
X44970Y9856
X45955Y4935
X44970Y4935
X43986Y4935
X43986Y3951
X44970Y3951
X45955Y3951
X45955Y2966
X44970Y2966
X43986Y2966
X43986Y1982
X44970Y1982
X45955Y1982
X59734Y6904
X61703Y6904
X60719Y6904
X58750Y6904
X57766Y3951
X57766Y4935
X57766Y5919
X58750Y5919
X58750Y4935
X58750Y3951
X59734Y3951
X59734Y4935
X59734Y5919
X60719Y5919
X60719Y4935
X60719Y3951
X61703Y5919
X61703Y4935
X61703Y3951
X61703Y1982
X61703Y2966
X60719Y2966
X60719Y1982
X59734Y1982
X59734Y2966
X58750Y2966
X58750Y1982
X57766Y1982
X57766Y2966
X56782Y2966
X56782Y1982
X55797Y1982
X54813Y5919
X53829Y5919
X53829Y6904
X47272Y7788
X47942Y7788
X53829Y7888
X55797Y6904
X55797Y5919
X48988Y16179
X54813Y7888
X54813Y6904
X49242Y7808
X43986Y5919
X44970Y5919
X46624Y10624
X50345Y4422
X50415Y4994
X48652Y7788
X51052Y5018
X51053Y4659
X43986Y9856
T04
X64986Y19792
X65986Y19792
X66986Y19792
X67986Y19792
X68986Y19792
X69986Y19792
X70986Y19792
X71986Y19792
X72986Y19792
X73986Y19792
T02
X72323Y13448
X70187Y7026
X73181Y12345
X69635Y7026
X76373Y19831
X81435Y9291
X73181Y11675
X77555Y18846
X71022Y13677
X77003Y18846
X69596Y14906
X69596Y14315
X68296Y10927
X69596Y15537
X77555Y19831
X73575Y3401
X68081Y8878
X70463Y2141
X68532Y11597
X69911Y2141
X73181Y11045
X75782Y19831
X76964Y19831
X76648Y19319
X77239Y19319
X74401Y6317
X68020Y2141
X73575Y2692
X76412Y18846
X69281Y2141
X68650Y2141
X73575Y2022
X81061Y7278
X72669Y8326
X73221Y7460
X72331Y7775
X81809Y9745
X80431Y9745
X70499Y11410
X72314Y11319
T03
X81718Y13793
X80733Y13793
X79749Y13793
X82702Y13793
X82702Y14778
X78765Y15762
X82702Y15762
X81718Y15762
X80733Y15762
X79749Y15762
X82702Y19699
X79749Y18715
X80733Y18715
X81718Y18715
X82702Y18715
X82702Y16746
X82702Y17730
X81718Y17730
X81718Y16746
X80733Y16746
X80733Y17730
X79749Y17730
X79749Y16746
X74828Y16746
X73844Y16746
X74828Y13793
X74828Y15762
X76796Y15762
X75812Y15762
X75812Y14778
X76796Y14778
X76796Y13793
X75812Y12809
X81718Y12809
X80733Y12809
X79749Y12809
X78765Y12809
X78765Y13793
X78765Y14778
X77781Y14778
X77781Y13793
X77781Y12809
X64985Y16746
X65969Y16746
X65969Y17730
X64985Y17730
X64985Y18715
X65969Y12809
X66954Y14778
X66954Y13793
X67938Y12809
X66954Y12809
X66954Y11825
X66954Y10841
X65969Y10841
X65969Y11825
X64985Y11825
X71391Y7518
X78942Y19384
X75241Y2317
X74788Y11136
X67485Y3439
X70064Y3813
X75241Y2966
X64985Y10841
X68469Y5939
X74198Y6884
X76796Y2966
X65969Y6904
X70931Y7508
X75891Y8478
X68971Y7118
X70941Y7138
X67581Y7788
X68271Y7118
X67820Y14935
X81718Y11825
X81718Y10841
X82702Y7888
X82702Y8872
X68292Y3833
X69867Y18400
X75182Y1589
X69316Y15939
X72401Y5028
X69987Y16435
X66954Y9856
X76796Y7888
X71271Y9798
X76796Y8872
X71261Y9398
X70881Y9388
X74926Y12041
X71073Y9587
X67781Y14226
X72231Y4838
X72411Y4658
X72367Y7415
X70881Y9788
X65969Y9856
X66954Y4935
X65969Y4935
X64985Y4935
X64985Y3951
X65969Y3951
X66954Y3951
X66954Y2966
X65969Y2966
X64985Y2966
X64985Y1982
X65969Y1982
X66954Y1982
X80733Y6904
X82702Y6904
X81718Y6904
X79749Y6904
X78765Y3951
X78765Y4935
X78765Y5919
X79749Y5919
X79749Y4935
X79749Y3951
X80733Y3951
X80733Y4935
X80733Y5919
X81718Y5919
X81718Y4935
X81718Y3951
X82702Y5919
X82702Y4935
X82702Y3951
X82702Y1982
X82702Y2966
X81718Y2966
X81718Y1982
X80733Y1982
X80733Y2966
X79749Y2966
X79749Y1982
X78765Y1982
X78765Y2966
X77781Y2966
X77781Y1982
X76796Y1982
X75812Y5919
X74828Y5919
X74828Y6904
X68271Y7788
X68941Y7788
X74828Y7888
X76796Y6904
X76796Y5919
X69987Y16179
X75812Y7888
X75812Y6904
X70241Y7808
X64985Y5919
X65969Y5919
X67623Y10624
X71344Y4422
X71414Y4994
X69651Y7788
X72051Y5018
X72052Y4659
X64985Y9856
T04
X64986Y40789
X65986Y40789
X66986Y40789
X67986Y40789
X68986Y40789
X69986Y40789
X70986Y40789
X71986Y40789
X72986Y40789
X73986Y40789
T02
X72323Y34445
X70187Y28023
X73181Y33342
X69635Y28023
X76373Y40828
X81435Y30288
X73181Y32672
X77555Y39843
X71022Y34674
X77003Y39843
X69596Y35903
X69596Y35312
X68296Y31924
X69596Y36534
X77555Y40828
X73575Y24398
X68081Y29875
X70463Y23138
X68532Y32594
X69911Y23138
X73181Y32042
X75782Y40828
X76964Y40828
X76648Y40316
X77239Y40316
X74401Y27314
X68020Y23138
X73575Y23689
X76412Y39843
X69281Y23138
X68650Y23138
X73575Y23019
X81061Y28275
X72669Y29323
X73221Y28457
X72331Y28772
X81809Y30742
X80431Y30742
X70499Y32407
X72314Y32316
T03
X81718Y34790
X80733Y34790
X79749Y34790
X82702Y34790
X82702Y35775
X78765Y36759
X82702Y36759
X81718Y36759
X80733Y36759
X79749Y36759
X82702Y40696
X79749Y39712
X80733Y39712
X81718Y39712
X82702Y39712
X82702Y37743
X82702Y38727
X81718Y38727
X81718Y37743
X80733Y37743
X80733Y38727
X79749Y38727
X79749Y37743
X74828Y37743
X73844Y37743
X74828Y34790
X74828Y36759
X76796Y36759
X75812Y36759
X75812Y35775
X76796Y35775
X76796Y34790
X75812Y33806
X81718Y33806
X80733Y33806
X79749Y33806
X78765Y33806
X78765Y34790
X78765Y35775
X77781Y35775
X77781Y34790
X77781Y33806
X64985Y37743
X65969Y37743
X65969Y38727
X64985Y38727
X64985Y39712
X65969Y33806
X66954Y35775
X66954Y34790
X67938Y33806
X66954Y33806
X66954Y32822
X66954Y31838
X65969Y31838
X65969Y32822
X64985Y32822
X71391Y28515
X78942Y40381
X75241Y23314
X74788Y32133
X67485Y24436
X70064Y24810
X75241Y23963
X64985Y31838
X68469Y26936
X74198Y27881
X76796Y23963
X65969Y27901
X70931Y28505
X75891Y29475
X68971Y28115
X70941Y28135
X67581Y28785
X68271Y28115
X67820Y35932
X81718Y32822
X81718Y31838
X82702Y28885
X82702Y29869
X68292Y24830
X69867Y39397
X75182Y22586
X69316Y36936
X72401Y26025
X69987Y37432
X66954Y30853
X76796Y28885
X71271Y30795
X76796Y29869
X71261Y30395
X70881Y30385
X74926Y33038
X71073Y30584
X67781Y35223
X72231Y25835
X72411Y25655
X72367Y28412
X70881Y30785
X65969Y30853
X66954Y25932
X65969Y25932
X64985Y25932
X64985Y24948
X65969Y24948
X66954Y24948
X66954Y23963
X65969Y23963
X64985Y23963
X64985Y22979
X65969Y22979
X66954Y22979
X80733Y27901
X82702Y27901
X81718Y27901
X79749Y27901
X78765Y24948
X78765Y25932
X78765Y26916
X79749Y26916
X79749Y25932
X79749Y24948
X80733Y24948
X80733Y25932
X80733Y26916
X81718Y26916
X81718Y25932
X81718Y24948
X82702Y26916
X82702Y25932
X82702Y24948
X82702Y22979
X82702Y23963
X81718Y23963
X81718Y22979
X80733Y22979
X80733Y23963
X79749Y23963
X79749Y22979
X78765Y22979
X78765Y23963
X77781Y23963
X77781Y22979
X76796Y22979
X75812Y26916
X74828Y26916
X74828Y27901
X68271Y28785
X68941Y28785
X74828Y28885
X76796Y27901
X76796Y26916
X69987Y37176
X75812Y28885
X75812Y27901
X70241Y28805
X64985Y26916
X65969Y26916
X67623Y31621
X71344Y25419
X71414Y25991
X69651Y28785
X72051Y26015
X72052Y25656
X64985Y30853
T01
X19463Y40421
X19463Y39421
X18463Y40421
X18463Y39421
X17463Y40421
X17463Y39421
X16463Y40421
X16463Y39421
X15463Y40421
X15463Y39421
X14463Y40421
X14463Y39421
X13463Y40421
X13463Y39421
X12463Y40421
X12463Y39421
X11463Y40421
X11463Y39421
X10463Y40421
X10463Y39421
T02
X7061Y35776
X7612Y36642
X7612Y35776
X13439Y30421
X8124Y36642
X8163Y35776
X7061Y36642
X13439Y30972
X8715Y35776
X7038Y31466
X9847Y25996
X4698Y27566
X7878Y24596
X10998Y28476
X7128Y24596
X3158Y26156
X4698Y29056
X10998Y26976
X4698Y28316
T03
X8524Y29043
X7494Y26366
X7770Y26366
X9069Y26839
X9187Y27114
X11274Y27626
X11707Y28374
X1431Y29279
X1904Y29279
X1943Y25972
X1510Y25972
X19778Y36760
X20250Y36760
X19620Y33453
X20289Y33453
X19581Y30185
X20250Y30185
X19738Y26917
X20289Y26917
X15762Y26917
X4817Y26839
X13793Y26917
X7415Y30933
X7809Y31996
X19699Y32823
X4935Y23964
X15762Y30854
X16077Y27547
X19699Y22980
X17730Y22980
X17730Y24949
X2966Y29870
X13793Y22980
X18793Y35776
X2966Y39713
X16785Y35854
X14778Y23964
X12809Y23964
X10841Y23964
X8872Y23964
X6904Y23964
X2966Y31839
X17730Y32823
X13793Y24949
X7888Y32823
X9856Y22980
X4935Y37744
X15762Y36760
X7848Y27390
X8203Y27390
X12809Y35776
X10841Y35776
X10998Y32035
X6904Y31839
X6904Y33807
X16746Y23964
X10841Y33807
X3951Y28886
X12809Y33807
X8872Y33807
X17730Y26917
X7494Y27744
X17730Y30854
X5919Y22980
X2966Y23964
X14148Y36130
X16077Y36130
X7848Y27744
X17730Y36760
X8163Y30933
X3990Y26917
X15762Y22980
X2966Y37744
X7494Y27390
X11825Y22980
X8203Y27744
X14778Y31839
X16746Y31839
X16746Y33807
X18715Y33807
X18715Y31839
X14778Y29870
X16746Y29870
X18715Y29870
X18715Y27902
X16746Y27902
X14778Y27902
X12809Y27902
X19699Y30854
X10841Y25933
X12809Y25933
X14778Y25933
X16746Y25933
X18715Y25933
X18715Y23964
X14778Y35776
X3951Y32823
X15762Y24949
X1982Y40697
X1982Y38728
X1982Y36760
X1982Y34791
X1982Y32823
X1982Y30854
X1982Y24949
X7888Y40697
X5919Y40697
X5919Y34791
X7888Y34791
X9856Y34791
X9856Y36760
X3951Y38728
X11825Y24949
X7494Y28059
X4935Y39713
X6904Y39713
X8872Y39713
X10841Y37744
X12809Y37744
X14778Y37744
X16825Y37744
X18793Y37744
X6470Y27153
X4935Y33807
X4935Y27902
X4935Y29870
X4935Y31839
X14108Y27547
X13793Y36760
X11825Y36760
X8203Y28059
X5919Y30854
X3951Y22980
X7848Y28059
X7888Y22980
X2966Y33807
X3951Y30854
X10407Y26130
X5919Y32823
X2966Y27902
X11155Y28886
X19699Y24949
X8833Y26630
X8636Y26327
X7256Y26290
X9177Y27399
T01
X40469Y40424
X40469Y39424
X39469Y40424
X39469Y39424
X38469Y40424
X38469Y39424
X37469Y40424
X37469Y39424
X36469Y40424
X36469Y39424
X35469Y40424
X35469Y39424
X34469Y40424
X34469Y39424
X33469Y40424
X33469Y39424
X32469Y40424
X32469Y39424
X31469Y40424
X31469Y39424
T02
X28067Y35779
X28618Y36645
X28618Y35779
X34445Y30424
X29130Y36645
X29169Y35779
X28067Y36645
X34445Y30975
X29721Y35779
X28044Y31469
X30853Y25999
X25704Y27569
X28884Y24599
X32004Y28479
X28134Y24599
X24164Y26159
X25704Y29059
X32004Y26979
X25704Y28319
T03
X29530Y29046
X28500Y26369
X28776Y26369
X30075Y26842
X30193Y27117
X32280Y27629
X32713Y28377
X22437Y29282
X22910Y29282
X22949Y25975
X22516Y25975
X40784Y36763
X41256Y36763
X40626Y33456
X41295Y33456
X40587Y30188
X41256Y30188
X40744Y26920
X41295Y26920
X36768Y26920
X25823Y26842
X34799Y26920
X28421Y30936
X28815Y31999
X40705Y32826
X25941Y23967
X36768Y30857
X37083Y27550
X40705Y22983
X38736Y22983
X38736Y24952
X23972Y29873
X34799Y22983
X39799Y35779
X23972Y39716
X37791Y35857
X35784Y23967
X33815Y23967
X31847Y23967
X29878Y23967
X27910Y23967
X23972Y31842
X38736Y32826
X34799Y24952
X28894Y32826
X30862Y22983
X25941Y37747
X36768Y36763
X28854Y27393
X29209Y27393
X33815Y35779
X31847Y35779
X32004Y32038
X27910Y31842
X27910Y33810
X37752Y23967
X31847Y33810
X24957Y28889
X33815Y33810
X29878Y33810
X38736Y26920
X28500Y27747
X38736Y30857
X26925Y22983
X23972Y23967
X35154Y36133
X37083Y36133
X28854Y27747
X38736Y36763
X29169Y30936
X24996Y26920
X36768Y22983
X23972Y37747
X28500Y27393
X32831Y22983
X29209Y27747
X35784Y31842
X37752Y31842
X37752Y33810
X39721Y33810
X39721Y31842
X35784Y29873
X37752Y29873
X39721Y29873
X39721Y27905
X37752Y27905
X35784Y27905
X33815Y27905
X40705Y30857
X31847Y25936
X33815Y25936
X35784Y25936
X37752Y25936
X39721Y25936
X39721Y23967
X35784Y35779
X24957Y32826
X36768Y24952
X22988Y40700
X22988Y38731
X22988Y36763
X22988Y34794
X22988Y32826
X22988Y30857
X22988Y24952
X28894Y40700
X26925Y40700
X26925Y34794
X28894Y34794
X30862Y34794
X30862Y36763
X24957Y38731
X32831Y24952
X28500Y28062
X25941Y39716
X27910Y39716
X29878Y39716
X31847Y37747
X33815Y37747
X35784Y37747
X37831Y37747
X39799Y37747
X27476Y27156
X25941Y33810
X25941Y27905
X25941Y29873
X25941Y31842
X35114Y27550
X34799Y36763
X32831Y36763
X29209Y28062
X26925Y30857
X24957Y22983
X28854Y28062
X28894Y22983
X23972Y33810
X24957Y30857
X31413Y26133
X26925Y32826
X23972Y27905
X32161Y28889
X40705Y24952
X29839Y26633
X29642Y26330
X28262Y26293
X30183Y27402
T01
X61468Y40428
X61468Y39428
X60468Y40428
X60468Y39428
X59468Y40428
X59468Y39428
X58468Y40428
X58468Y39428
X57468Y40428
X57468Y39428
X56468Y40428
X56468Y39428
X55468Y40428
X55468Y39428
X54468Y40428
X54468Y39428
X53468Y40428
X53468Y39428
X52468Y40428
X52468Y39428
T02
X49066Y35783
X49617Y36649
X49617Y35783
X55444Y30428
X50129Y36649
X50168Y35783
X49066Y36649
X55444Y30979
X50720Y35783
X49043Y31473
X51852Y26003
X46703Y27573
X49883Y24603
X53003Y28483
X49133Y24603
X45163Y26163
X46703Y29063
X53003Y26983
X46703Y28323
T03
X50529Y29050
X49499Y26373
X49775Y26373
X51074Y26846
X51192Y27121
X53279Y27633
X53712Y28381
X43436Y29286
X43909Y29286
X43948Y25979
X43515Y25979
X61783Y36767
X62255Y36767
X61625Y33460
X62294Y33460
X61586Y30192
X62255Y30192
X61743Y26924
X62294Y26924
X57767Y26924
X46822Y26846
X55798Y26924
X49420Y30940
X49814Y32003
X61704Y32830
X46940Y23971
X57767Y30861
X58082Y27554
X61704Y22987
X59735Y22987
X59735Y24956
X44971Y29877
X55798Y22987
X60798Y35783
X44971Y39720
X58790Y35861
X56783Y23971
X54814Y23971
X52846Y23971
X50877Y23971
X48909Y23971
X44971Y31846
X59735Y32830
X55798Y24956
X49893Y32830
X51861Y22987
X46940Y37751
X57767Y36767
X49853Y27397
X50208Y27397
X54814Y35783
X52846Y35783
X53003Y32042
X48909Y31846
X48909Y33814
X58751Y23971
X52846Y33814
X45956Y28893
X54814Y33814
X50877Y33814
X59735Y26924
X49499Y27751
X59735Y30861
X47924Y22987
X44971Y23971
X56153Y36137
X58082Y36137
X49853Y27751
X59735Y36767
X50168Y30940
X45995Y26924
X57767Y22987
X44971Y37751
X49499Y27397
X53830Y22987
X50208Y27751
X56783Y31846
X58751Y31846
X58751Y33814
X60720Y33814
X60720Y31846
X56783Y29877
X58751Y29877
X60720Y29877
X60720Y27909
X58751Y27909
X56783Y27909
X54814Y27909
X61704Y30861
X52846Y25940
X54814Y25940
X56783Y25940
X58751Y25940
X60720Y25940
X60720Y23971
X56783Y35783
X45956Y32830
X57767Y24956
X43987Y40704
X43987Y38735
X43987Y36767
X43987Y34798
X43987Y32830
X43987Y30861
X43987Y24956
X49893Y40704
X47924Y40704
X47924Y34798
X49893Y34798
X51861Y34798
X51861Y36767
X45956Y38735
X53830Y24956
X49499Y28066
X46940Y39720
X48909Y39720
X50877Y39720
X52846Y37751
X54814Y37751
X56783Y37751
X58830Y37751
X60798Y37751
X48475Y27160
X46940Y33814
X46940Y27909
X46940Y29877
X46940Y31846
X56113Y27554
X55798Y36767
X53830Y36767
X50208Y28066
X47924Y30861
X45956Y22987
X49853Y28066
X49893Y22987
X44971Y33814
X45956Y30861
X52412Y26137
X47924Y32830
X44971Y27909
X53160Y28893
X61704Y24956
X50838Y26637
X50641Y26334
X49261Y26297
X51182Y27406
M30
