*
%LPD*%
%LNtransceiverBOTTOM*%
%FSLAX25Y25*%
%MOIN*%
%AD*%
%AD*%
%ADD10C,0.02*%
%ADD11C,0.03*%
%ADD12C,0.058*%
%ADD13R,0.058X0.058*%
%ADD14C,0.005*%
%ADD15C,0.01*%
%ADD16C,0.050003937*%
%ADD17C,0.078003937*%
%ADD18C,0.084003937*%
%ADD43R,0.062011811X0.062011811*%
%ADD44C,0.062011811*%
%ADD45C,0.087992126*%
G54D10*
%SRX1Y1I0.0J0.0*%
G36*
G1X10000Y10000D2*
G1X206850Y10000D1*
G1X206850Y206850D1*
G1X10000Y206850D1*
G1X10000Y10000D1*
G37*
%LPC*%
G36*
G1X191746Y190352D2*
G1X197546Y190352D1*
G75*
G3X198546Y191352I-1J1000D1*
G1X198546Y197152D1*
G3X197546Y198152I-1001J-1D1*
G1X191746Y198152D1*
G3X190746Y197152I0J-1001D1*
G1X190746Y191352D1*
G3X191746Y190352I1000J0D1*
G37*
G36*
G1X78348Y155280D2*
G2X79054Y155280I353J-189D1*
G3X79054Y157633I2205J1176D1*
G2X78348Y157633I-353J188D1*
G3X78348Y155280I-2206J-1177D1*
G37*
G36*
G1X77418Y45501D2*
G1X90189Y45501D1*
G1X95334Y50647D1*
G2X96014Y50314I283J-283D1*
G3X98180Y52480I2480J-314D1*
G2X97847Y53160I-51J397D1*
G1X112236Y67549D1*
G1X119842Y67549D1*
G1X185916Y133622D1*
G1X185916Y152913D1*
G1X196546Y163543D1*
G1X196546Y180846D1*
G3X192745Y180846I-1901J3405D1*
G1X192745Y165118D1*
G1X187229Y159601D1*
G2X186546Y159884I-283J283D1*
G1X186546Y180846D1*
G3X182746Y180846I-1901J3405D1*
G1X182746Y157675D1*
G1X177229Y152158D1*
G2X176546Y152441I-283J282D1*
G1X176546Y180846D1*
G3X172746Y180846I-1901J3405D1*
G1X172746Y151811D1*
G1X167229Y146294D1*
G2X166546Y146577I-283J283D1*
G1X166546Y180846D1*
G3X162746Y180846I-1901J3405D1*
G1X162746Y144960D1*
G1X157229Y139444D1*
G2X156546Y139726I-284J282D1*
G1X156546Y180352D1*
G1X157546Y180352D1*
G3X158546Y181352I-1J1000D1*
G1X158546Y187152D1*
G3X157546Y188152I-1001J-1D1*
G1X151746Y188152D1*
G3X150746Y187152I0J-1001D1*
G1X150746Y181352D1*
G3X151746Y180352I1000J0D1*
G1X152746Y180352D1*
G1X152746Y138110D1*
G1X147229Y132593D1*
G2X146546Y132876I-283J282D1*
G1X146546Y180846D1*
G3X142746Y180846I-1901J3405D1*
G1X142746Y130866D1*
G1X137229Y125349D1*
G2X136546Y125632I-283J283D1*
G1X136546Y180846D1*
G3X132746Y180846I-1901J3405D1*
G1X132746Y123622D1*
G1X127229Y118105D1*
G2X126546Y118388I-283J282D1*
G1X126546Y180846D1*
G3X122745Y180846I-1901J3405D1*
G1X122745Y116771D1*
G1X117229Y111255D1*
G2X116546Y111537I-284J282D1*
G1X116546Y180846D1*
G3X112746Y180846I-1901J3405D1*
G1X112746Y110640D1*
G1X84364Y82258D1*
G1X84336Y82244D1*
G3X83394Y79764I929J-1772D1*
G2X83020Y79223I-375J-142D1*
G1X71417Y79223D1*
G1X65974Y73780D1*
G1X65974Y60000D1*
G1X71111Y54864D1*
G2X71120Y54307I-284J-284D1*
G3X70580Y52940I1457J-1366D1*
G3X71678Y51154I1999J-2D1*
G1X73418Y49413D1*
G1X73507Y49413D1*
G1X77418Y45501D1*
G37*
G74*
G54D16*
G1X31602Y51602D3*
G1X47000Y65700D3*
G1X47000Y80600D3*
G1X47000Y73200D3*
G1X78800Y36000D3*
G1X71300Y36000D3*
G1X70400Y104700D3*
G1X70630Y147795D3*
G1X76142Y147795D3*
G1X81653Y147795D3*
G1X70630Y156456D3*
G1X87165Y147795D3*
G1X110000Y59800D3*
G54D18*
G1X104646Y194252D3*
G1X124646Y194252D3*
G1X114646Y194252D3*
G1X134646Y194252D3*
G1X144646Y194252D3*
G54D17*
G1X104646Y184252D3*
G1X154646Y194252D3*
G1X164646Y194252D3*
G1X184646Y194252D3*
G1X174646Y194252D3*
%LPD*%
G36*
G1X100927Y69516D2*
G1X107863Y69516D1*
G75*
G2X108146Y69399I0J-401D1*
G3X108712Y69399I283J282D1*
G1X110662Y71349D1*
G1X118268Y71349D1*
G1X182115Y135196D1*
G1X182115Y150704D1*
G3X181432Y150987I-401J-1D1*
G1X100644Y70199D1*
G3X100927Y69516I282J-283D1*
G37*
%LPC*%
G74*
G54D16*
G1X110000Y74800D3*
G1X134409Y94252D3*
G1X134409Y99764D3*
%LPD*%
G54D10*
G1X19842Y39528D3*
G1X15118Y49764D3*
G1X19449Y49764D3*
G1X19055Y82835D3*
G1X14331Y82835D3*
G1X19842Y98583D3*
G1X19842Y118268D3*
G1X19842Y137953D3*
G1X19842Y157638D3*
G1X19842Y177323D3*
G1X19842Y197008D3*
G1X29685Y29685D3*
G1X29685Y69055D3*
G1X29685Y88740D3*
G1X29685Y108425D3*
G1X29685Y128110D3*
G1X29685Y167480D3*
G1X29685Y187165D3*
G1X39528Y19842D3*
G1X49370Y29685D3*
G1X39921Y59213D3*
G1X48189Y58425D3*
G1X49370Y69055D3*
G1X39528Y78898D3*
G1X49370Y88740D3*
G1X39528Y98583D3*
G1X49370Y108425D3*
G1X49370Y128110D3*
G1X39528Y118268D3*
G1X49370Y167480D3*
G1X49370Y187165D3*
G1X39528Y177323D3*
G1X59213Y19842D3*
G1X64724Y61575D3*
G1X59213Y98583D3*
G1X59213Y118268D3*
G1X59213Y137953D3*
G1X59213Y197008D3*
G1X78898Y19842D3*
G1X69055Y29685D3*
G1X72579Y52939D3*
G1X74961Y63937D3*
G1X78504Y67480D3*
G1X74961Y67480D3*
G1X78504Y63937D3*
G1X77721Y53701D3*
G1X74961Y53701D3*
G1X78504Y70630D3*
G1X74961Y70630D3*
G1X69055Y108425D3*
G1X78110Y110000D3*
G1X74173Y99370D3*
G1X69055Y128110D3*
G1X78898Y118268D3*
G1X78898Y137953D3*
G1X69055Y187165D3*
G1X78898Y197008D3*
G1X88740Y29685D3*
G1X86378Y53307D3*
G1X91792Y64034D3*
G1X88347Y56340D3*
G1X82047Y67480D3*
G1X82047Y63937D3*
G1X91890Y61181D3*
G1X90709Y58425D3*
G1X82047Y70630D3*
G1X85265Y80472D3*
G1X81654Y99370D3*
G1X88740Y128110D3*
G1X88740Y187165D3*
G1X98583Y19842D3*
G1X108425Y29685D3*
G1X104094Y51339D3*
G1X108425Y49370D3*
G1X110000Y110394D3*
G1X108425Y128110D3*
G1X98583Y137953D3*
G1X98583Y157638D3*
G1X108425Y147795D3*
G1X108425Y167480D3*
G1X118268Y19842D3*
G1X118268Y39528D3*
G1X112756Y66299D3*
G1X111575Y78898D3*
G1X117086Y73779D3*
G1X118268Y157638D3*
G1X137953Y19842D3*
G1X128110Y29685D3*
G1X128110Y49370D3*
G1X137953Y39528D3*
G1X137953Y59213D3*
G1X128110Y69055D3*
G1X128110Y128110D3*
G1X137953Y157638D3*
G1X128110Y147795D3*
G1X128110Y167480D3*
G1X147795Y29685D3*
G1X147795Y49370D3*
G1X141102Y65512D3*
G1X147795Y69055D3*
G1X147795Y88740D3*
G1X147795Y108425D3*
G1X147795Y147795D3*
G1X141496Y151339D3*
G1X147795Y167480D3*
G1X157638Y19842D3*
G1X167480Y29685D3*
G1X157638Y39528D3*
G1X167480Y49370D3*
G1X160787Y65512D3*
G1X157638Y59213D3*
G1X167480Y69055D3*
G1X167480Y88740D3*
G1X167480Y108425D3*
G1X157638Y98583D3*
G1X167480Y128110D3*
G1X160787Y151339D3*
G1X157638Y157638D3*
G1X167874Y148583D3*
G1X168268Y167480D3*
G1X177323Y19842D3*
G1X177323Y39528D3*
G1X177323Y59213D3*
G1X177323Y98583D3*
G1X177323Y118268D3*
G1X177323Y157638D3*
G1X197008Y19842D3*
G1X187165Y29685D3*
G1X197008Y39528D3*
G1X187165Y49370D3*
G1X197402Y59213D3*
G1X187165Y69055D3*
G1X187165Y88740D3*
G1X195827Y91890D3*
G1X197008Y98583D3*
G1X187165Y108425D3*
G1X187165Y128110D3*
G1X197008Y118268D3*
G1X196220Y124567D3*
G1X187953Y147795D3*
G1X197795Y157638D3*
G1X187953Y167480D3*
G1X202913Y59213D3*
G1X202520Y91890D3*
G1X202913Y124567D3*
G1X202520Y157638D3*
G54D11*
G1X31602Y51602D3*
G1X47000Y65700D3*
G1X47000Y73200D3*
G1X47000Y80600D3*
G1X71300Y36000D3*
G1X78800Y36000D3*
G1X70400Y104700D3*
G1X70630Y156456D3*
G1X81653Y147795D3*
G1X81260Y156456D3*
G1X76142Y147795D3*
G1X76142Y156456D3*
G1X70630Y147795D3*
G1X87165Y147795D3*
G1X98495Y50000D3*
G1X110000Y59800D3*
G1X110000Y74800D3*
G1X134409Y99764D3*
G1X134409Y94252D3*
G54D12*
G1X104646Y184252D3*
G1X104646Y194252D3*
G1X124646Y184252D3*
G1X114646Y184252D3*
G1X124646Y194252D3*
G1X114646Y194252D3*
G1X134646Y184252D3*
G1X134646Y194252D3*
G1X144646Y184252D3*
G1X154646Y194252D3*
G1X144646Y194252D3*
G1X164646Y184252D3*
G1X164646Y194252D3*
G1X184646Y184252D3*
G1X174646Y184252D3*
G1X184646Y194252D3*
G1X174646Y194252D3*
G1X194646Y184252D3*
G54D13*
G1X154646Y184252D3*
G1X194646Y194252D3*
G1X104646Y189852D2*
G54D14*
G1X104646Y194252D1*
G1X104646Y198652D1*
G1X100246Y194252D2*
G1X104646Y194252D1*
G1X109046Y194252D1*
G1X114646Y189852D2*
G1X114646Y194252D1*
G1X114646Y198652D1*
G1X110246Y194252D2*
G1X114646Y194252D1*
G1X119046Y194252D1*
G1X124646Y189852D2*
G1X124646Y194252D1*
G1X124646Y198652D1*
G1X120246Y194252D2*
G1X124646Y194252D1*
G1X129046Y194252D1*
G1X134646Y189852D2*
G1X134646Y194252D1*
G1X134646Y198652D1*
G1X130246Y194252D2*
G1X134646Y194252D1*
G1X139046Y194252D1*
G1X144646Y189852D2*
G1X144646Y194252D1*
G1X144646Y198652D1*
G1X140245Y194252D2*
G1X144646Y194252D1*
G1X149046Y194252D1*
G1X194646Y184252D2*
G54D15*
G1X194646Y180052D1*
G1X194645Y180052D1*
G1X194645Y164330D1*
G1X184015Y153700D1*
G1X184015Y134409D1*
G1X119055Y69449D1*
G1X111449Y69449D1*
G1X89402Y47402D1*
G1X78206Y47402D1*
G1X74294Y51313D1*
G1X74205Y51313D1*
G1X72579Y52939D1*
G1X144646Y184252D2*
G1X144646Y130079D1*
G1X87559Y72992D1*
G1X73386Y72992D1*
G1X72205Y71811D1*
G1X72205Y63150D1*
G1X80079Y55276D1*
G1X80079Y52520D1*
G1X83228Y49370D1*
G1X88370Y49370D1*
G1X93858Y54858D1*
G1X93858Y59213D1*
G1X91890Y61181D1*
G1X134646Y184252D2*
G1X134646Y122835D1*
G1X87165Y75354D1*
G1X72992Y75354D1*
G1X69842Y72205D1*
G1X69842Y62362D1*
G1X77721Y54484D1*
G1X77721Y53701D1*
G1X124646Y184252D2*
G1X124646Y115984D1*
G1X85984Y77323D1*
G1X72204Y77323D1*
G1X67874Y72992D1*
G1X67874Y60787D1*
G1X74961Y53701D1*
G1X154646Y184252D2*
G1X154646Y137322D1*
G1X84047Y66724D1*
G1X84047Y52094D1*
G1X85197Y50945D1*
G1X87202Y50945D1*
G1X90709Y54451D1*
G1X90709Y58425D1*
G1X91792Y64034D2*
G1X184646Y156888D1*
G1X184646Y184252D1*
G1X164646Y184252D2*
G1X164646Y144173D1*
G1X85984Y65512D1*
G1X85984Y55276D1*
G1X86378Y54882D1*
G1X86378Y53307D1*
G1X174646Y184252D2*
G1X174646Y151024D1*
G1X88347Y64724D1*
G1X88347Y56340D1*
G1X114646Y184252D2*
G1X114646Y109853D1*
G1X85265Y80472D1*
G54D10*
G36*
G1X220098Y10001D2*
G1X416898Y10001D1*
G1X416898Y206801D1*
G1X220098Y206801D1*
G1X220098Y10001D1*
G37*
%LPC*%
G36*
G1X226747Y193838D2*
G1X232949Y193838D1*
G75*
G3X233949Y194838I0J999D1*
G1X233949Y201040D1*
G3X232949Y202040I-1001J-1D1*
G1X226747Y202040D1*
G3X225747Y201040I0J-1001D1*
G1X225747Y194838D1*
G3X226747Y193838I999J-1D1*
G37*
G36*
G1X350440Y191636D2*
G2X350112Y190981I-313J-254D1*
G3X351960Y190058I-94J-2499D1*
G2X352288Y190712I313J252D1*
G3X350440Y191636I94J2498D1*
G37*
G36*
G1X344530Y191636D2*
G2X344202Y190981I-313J-254D1*
G3X346050Y190058I-94J-2499D1*
G2X346377Y190712I312J252D1*
G3X344530Y191636I95J2498D1*
G37*
G36*
G1X241075Y194025D2*
G1X276543Y158556D1*
G2X276216Y157872I-284J-285D1*
G3X278432Y155657I-270J-2486D1*
G2X279116Y155984I399J42D1*
G1X299334Y135766D1*
G1X299334Y135698D1*
G1X300720Y134311D1*
G1X300728Y134240D1*
G3X304215Y132214I2485J264D1*
G2X304778Y131845I160J-370D1*
G1X304778Y84910D1*
G3X308578Y84910I1899J-1626D1*
G1X308578Y141896D1*
G1X253763Y196712D1*
G1X253795Y196825D1*
G3X250962Y193993I-3947J1115D1*
G1X251075Y194025D1*
G1X304778Y140322D1*
G1X304778Y137164D1*
G2X304215Y136796I-402J-1D1*
G3X303478Y136991I-1008J-2319D1*
G1X303408Y136999D1*
G1X303134Y137272D1*
G1X303134Y137340D1*
G1X243763Y196712D1*
G1X243795Y196825D1*
G3X240962Y193993I-3947J1115D1*
G1X241075Y194025D1*
G37*
G36*
G1X261075Y194025D2*
G1X314628Y140472D1*
G1X314628Y125066D1*
G2X313890Y124846I-402J0D1*
G3X313890Y122100I-2090J-1374D1*
G2X314628Y121880I336J-221D1*
G1X314628Y118368D1*
G2X313890Y118148I-402J0D1*
G3X313890Y115402I-2090J-1373D1*
G2X314628Y115182I336J-221D1*
G1X314628Y112064D1*
G2X313890Y111844I-402J0D1*
G3X313890Y109099I-2090J-1373D1*
G2X314628Y108878I335J-222D1*
G1X314628Y79669D1*
G1X304923Y79669D1*
G3X304923Y75869I-1625J-1900D1*
G1X309420Y75869D1*
G2X309804Y75349I-1J-403D1*
G3X313819Y72717I2390J-733D1*
G1X322619Y72717D1*
G1X324732Y74830D1*
G1X324732Y145742D1*
G1X273763Y196712D1*
G1X273795Y196825D1*
G3X270962Y193993I-3947J1115D1*
G1X271075Y194025D1*
G1X320932Y144168D1*
G1X320932Y76517D1*
G1X317934Y76517D1*
G2X317650Y77204I0J402D1*
G1X318428Y77982D1*
G1X318428Y142046D1*
G1X263763Y196712D1*
G1X263795Y196825D1*
G3X260962Y193993I-3947J1115D1*
G1X261075Y194025D1*
G37*
G36*
G1X281075Y194025D2*
G1X388700Y86400D1*
G1X388700Y74426D1*
G3X392500Y74426I1900J-1626D1*
G1X392500Y87974D1*
G1X385672Y94802D1*
G2X385727Y95417I284J284D1*
G3X385925Y95570I-1294J1878D1*
G1X392487Y95570D1*
G2X392743Y94859I-2J-402D1*
G3X395937Y94859I1597J-1925D1*
G2X396194Y95570I257J308D1*
G1X396454Y95570D1*
G1X396509Y95525D1*
G3X396455Y99371I1571J1945D1*
G1X385925Y99371D1*
G3X382247Y98897I-1625J-1902D1*
G2X381632Y98842I-331J228D1*
G1X283763Y196712D1*
G1X283795Y196825D1*
G3X280962Y193993I-3947J1115D1*
G1X281075Y194025D1*
G37*
G74*
G54D16*
G1X260186Y21427D3*
G1X260798Y88801D3*
G1X279098Y21427D3*
G1X272794Y21427D3*
G1X266490Y21427D3*
G1X276340Y70283D3*
G1X262944Y109289D3*
G1X265308Y115987D3*
G1X275946Y149083D3*
G1X275946Y143173D3*
G1X284614Y21427D3*
G1X281856Y70283D3*
G1X290212Y136787D3*
G1X315740Y20245D3*
G1X315740Y34035D3*
G1X315740Y26943D3*
G1X323998Y63191D3*
G1X337804Y198333D3*
G1X343714Y198333D3*
G1X355534Y188483D3*
G1X355534Y198333D3*
G1X349624Y198333D3*
G54D45*
G1X289848Y197939D3*
G1X299848Y197939D3*
G1X309848Y197939D3*
G1X319848Y197939D3*
%LPD*%
G54D10*
G1X239683Y19843D3*
G1X229840Y19843D3*
G1X229840Y29686D3*
G1X239683Y29686D3*
G1X239683Y39529D3*
G1X229840Y39529D3*
G1X239683Y59214D3*
G1X229840Y59214D3*
G1X229840Y49371D3*
G1X239683Y49371D3*
G1X239683Y69056D3*
G1X229840Y98584D3*
G1X239683Y98584D3*
G1X229840Y108426D3*
G1X229840Y118269D3*
G1X239683Y118269D3*
G1X239683Y108426D3*
G1X239683Y128111D3*
G1X229840Y177324D3*
G1X239683Y177324D3*
G1X239683Y167481D3*
G1X229840Y167481D3*
G1X229840Y187166D3*
G1X249526Y19843D3*
G1X249526Y29686D3*
G1X249526Y39529D3*
G1X254841Y34410D3*
G1X249526Y49371D3*
G1X255798Y77901D3*
G1X249526Y98584D3*
G1X256218Y106261D3*
G1X249526Y108426D3*
G1X249526Y118269D3*
G1X249526Y128111D3*
G1X259368Y128111D3*
G1X249526Y137954D3*
G1X257793Y142285D3*
G1X258187Y149371D3*
G1X249526Y147796D3*
G1X262911Y38347D3*
G1X264683Y59410D3*
G1X276498Y77901D3*
G1X269398Y77901D3*
G1X262698Y77901D3*
G1X262698Y71201D3*
G1X269698Y71201D3*
G1X273148Y159410D3*
G1X278659Y184017D3*
G1X280628Y38151D3*
G1X294124Y49962D3*
G1X293423Y44243D3*
G1X282398Y78101D3*
G1X289398Y71401D3*
G1X289298Y75101D3*
G1X293898Y75201D3*
G1X288798Y97901D3*
G1X290717Y95894D3*
G1X288798Y93901D3*
G1X292598Y94001D3*
G1X292698Y98001D3*
G1X279856Y161811D3*
G1X279856Y164371D3*
G1X300510Y46615D3*
G1X300498Y50201D3*
G1X304098Y46601D3*
G1X302301Y48397D3*
G1X303998Y50301D3*
G1X303659Y74174D3*
G1X318423Y167481D3*
G1X331809Y15907D3*
G1X332400Y29686D3*
G1X332400Y23190D3*
G1X328266Y59214D3*
G1X338108Y59214D3*
G1X338108Y69056D3*
G1X338108Y78899D3*
G1X328266Y78899D3*
G1X328266Y69056D3*
G1X321966Y68859D3*
G1X327872Y111379D3*
G1X329250Y120434D3*
G1X338108Y128111D3*
G1X328266Y137954D3*
G1X338108Y147796D3*
G1X338108Y157639D3*
G1X328266Y157639D3*
G1X328266Y167481D3*
G1X347951Y19843D3*
G1X357793Y19843D3*
G1X357793Y29686D3*
G1X347951Y29686D3*
G1X347951Y59214D3*
G1X347951Y69056D3*
G1X347951Y78899D3*
G1X347951Y88741D3*
G1X338896Y84804D3*
G1X357793Y128111D3*
G1X357793Y137954D3*
G1X347951Y137954D3*
G1X357793Y147796D3*
G1X347951Y147796D3*
G1X347951Y157639D3*
G1X367636Y19843D3*
G1X377478Y19843D3*
G1X367636Y29686D3*
G1X377478Y29686D3*
G1X377478Y39529D3*
G1X367636Y39529D3*
G1X377478Y49371D3*
G1X377478Y59214D3*
G1X367636Y59214D3*
G1X367636Y49371D3*
G1X377478Y69056D3*
G1X367636Y137954D3*
G1X367636Y128111D3*
G1X377478Y128111D3*
G1X377478Y137954D3*
G1X367636Y147796D3*
G1X377478Y157639D3*
G1X367636Y157639D3*
G1X377478Y167481D3*
G1X377478Y177324D3*
G1X369407Y193859D3*
G1X377478Y187166D3*
G1X387321Y19843D3*
G1X397163Y19843D3*
G1X387321Y29686D3*
G1X397163Y29686D3*
G1X397163Y39529D3*
G1X387321Y39529D3*
G1X397163Y49371D3*
G1X397163Y59214D3*
G1X387321Y59214D3*
G1X387321Y49371D3*
G1X397163Y69056D3*
G1X387321Y69056D3*
G1X397163Y108426D3*
G1X397163Y118269D3*
G1X387321Y128111D3*
G1X397163Y128111D3*
G1X387321Y137954D3*
G1X397163Y137954D3*
G1X387321Y157639D3*
G1X397163Y157639D3*
G1X387321Y177324D3*
G1X387321Y167481D3*
G1X397163Y167481D3*
G1X397163Y177324D3*
G1X397163Y187166D3*
G1X387321Y187166D3*
G1X407006Y19843D3*
G1X407006Y29686D3*
G1X407006Y39529D3*
G1X407006Y49371D3*
G1X407006Y59214D3*
G1X407006Y69056D3*
G1X407006Y78899D3*
G1X407006Y88741D3*
G1X407006Y137954D3*
G1X407006Y157639D3*
G1X407006Y147796D3*
G1X407006Y177324D3*
G1X407006Y167481D3*
G1X407006Y187166D3*
G1X407006Y197009D3*
G54D43*
G1X229848Y197939D3*
G54D44*
G1X239848Y197939D3*
G1X249848Y197939D3*
G1X259848Y197939D3*
G1X269848Y197939D3*
G1X279848Y197939D3*
G1X289848Y197939D3*
G1X299848Y197939D3*
G1X309848Y197939D3*
G1X319848Y197939D3*
G54D11*
G1X260186Y21427D3*
G1X260798Y88801D3*
G1X266490Y21427D3*
G1X272794Y21427D3*
G1X279098Y21427D3*
G1X276340Y70283D3*
G1X265308Y115987D3*
G1X262944Y109289D3*
G1X275946Y155387D3*
G1X275946Y143173D3*
G1X275946Y149083D3*
G1X284614Y21427D3*
G1X281856Y70283D3*
G1X284975Y114118D3*
G1X290212Y136787D3*
G1X315740Y20245D3*
G1X315740Y26943D3*
G1X315740Y34035D3*
G1X303298Y77769D3*
G1X312194Y74617D3*
G1X306678Y83285D3*
G1X303132Y113214D3*
G1X311800Y110471D3*
G1X311800Y116775D3*
G1X311800Y123473D3*
G1X303214Y134505D3*
G1X323998Y63191D3*
G1X337804Y198333D3*
G1X344108Y188483D3*
G1X352382Y193211D3*
G1X346472Y193211D3*
G1X349624Y198333D3*
G1X355534Y198333D3*
G1X350018Y188483D3*
G1X355534Y188483D3*
G1X343714Y198333D3*
G1X390600Y72801D3*
G1X384300Y97470D3*
G1X398080Y97470D3*
G1X394340Y92935D3*
G1X295247Y197939D2*
G54D14*
G1X299848Y197939D1*
G1X289848Y193339D2*
G1X289848Y197939D1*
G1X289848Y202540D1*
G1X285247Y197939D2*
G1X289848Y197939D1*
G1X294449Y197939D1*
G1X315247Y197939D2*
G1X319848Y197939D1*
G1X309848Y193339D2*
G1X309848Y197939D1*
G1X309848Y202540D1*
G1X305247Y197939D2*
G1X309848Y197939D1*
G1X314449Y197939D1*
G1X299848Y193339D2*
G1X299848Y197939D1*
G1X299848Y202540D1*
G1X299848Y197939D2*
G1X304449Y197939D1*
G1X319848Y193339D2*
G1X319848Y197939D1*
G1X319848Y202540D1*
G1X319848Y197939D2*
G1X324449Y197939D1*
G1X306678Y83285D2*
G54D15*
G1X306678Y141109D1*
G1X249848Y197939D1*
G1X303214Y134505D2*
G1X301234Y136485D1*
G1X301234Y136553D1*
G1X239848Y197939D1*
G1X303298Y77769D2*
G1X315528Y77769D1*
G1X316528Y78769D1*
G1X316528Y141259D1*
G1X259848Y197939D1*
G1X269848Y197939D2*
G1X322832Y144955D1*
G1X322832Y75617D1*
G1X321832Y74617D1*
G1X312194Y74617D1*
G1X390600Y72801D2*
G1X390600Y87187D1*
G1X279848Y197939D1*
G1X398080Y97470D2*
G1X384300Y97470D1*
G54D10*
G36*
G1X430116Y9978D2*
G1X626916Y9978D1*
G1X626916Y206778D1*
G1X430116Y206778D1*
G1X430116Y9978D1*
G37*
%LPC*%
G36*
G1X436765Y193815D2*
G1X442967Y193815D1*
G75*
G3X443967Y194816I-1J1000D1*
G1X443967Y201017D1*
G3X442967Y202017I-1000J0D1*
G1X436765Y202017D1*
G3X435765Y201017I0J-1001D1*
G1X435765Y194815D1*
G3X436765Y193815I1000J0D1*
G37*
G36*
G1X560458Y191613D2*
G2X560130Y190958I-313J-254D1*
G3X561978Y190035I-94J-2499D1*
G2X562306Y190689I313J252D1*
G3X560458Y191613I94J2498D1*
G37*
G36*
G1X554548Y191613D2*
G2X554220Y190958I-313J-254D1*
G3X556068Y190035I-94J-2499D1*
G2X556395Y190689I312J252D1*
G3X554548Y191613I95J2498D1*
G37*
G36*
G1X451093Y194002D2*
G1X486561Y158533D1*
G2X486234Y157849I-284J-285D1*
G3X488450Y155634I-270J-2486D1*
G2X489134Y155961I399J42D1*
G1X509352Y135743D1*
G1X509352Y135675D1*
G1X510738Y134288D1*
G1X510746Y134217D1*
G3X514233Y132191I2486J265D1*
G2X514796Y131822I160J-369D1*
G1X514796Y84887D1*
G3X518596Y84887I1899J-1625D1*
G1X518596Y141873D1*
G1X463781Y196689D1*
G1X463813Y196802D1*
G3X460980Y193970I-3947J1115D1*
G1X461093Y194002D1*
G1X514796Y140299D1*
G1X514796Y137141D1*
G2X514233Y136773I-402J0D1*
G3X513496Y136968I-999J-2284D1*
G1X513426Y136976D1*
G1X513152Y137249D1*
G1X513152Y137317D1*
G1X453781Y196689D1*
G1X453813Y196802D1*
G3X450980Y193970I-3947J1115D1*
G1X451093Y194002D1*
G37*
G36*
G1X471093Y194002D2*
G1X524646Y140449D1*
G1X524646Y125043D1*
G2X523908Y124823I-403J0D1*
G3X523908Y122077I-2090J-1373D1*
G2X524646Y121857I336J-220D1*
G1X524646Y118345D1*
G2X523908Y118125I-403J0D1*
G3X523908Y115379I-2090J-1373D1*
G2X524646Y115159I336J-221D1*
G1X524646Y112041D1*
G2X523908Y111821I-403J0D1*
G3X523908Y109076I-2090J-1373D1*
G2X524646Y108855I335J-221D1*
G1X524646Y79646D1*
G1X514941Y79646D1*
G3X514941Y75846I-1625J-1901D1*
G1X519438Y75846D1*
G2X519822Y75326I0J-402D1*
G3X523837Y72694I2390J-733D1*
G1X532637Y72694D1*
G1X534750Y74807D1*
G1X534750Y145719D1*
G1X483781Y196689D1*
G1X483813Y196802D1*
G3X480980Y193970I-3947J1115D1*
G1X481093Y194002D1*
G1X530950Y144145D1*
G1X530950Y76494D1*
G1X527952Y76494D1*
G2X527668Y77181I0J402D1*
G1X528446Y77959D1*
G1X528446Y142023D1*
G1X473781Y196689D1*
G1X473813Y196802D1*
G3X470980Y193970I-3947J1115D1*
G1X471093Y194002D1*
G37*
G36*
G1X491093Y194002D2*
G1X598718Y86377D1*
G1X598718Y74403D1*
G3X602518Y74403I1899J-1625D1*
G1X602518Y87951D1*
G1X595690Y94779D1*
G2X595745Y95394I284J284D1*
G3X595943Y95547I-1387J1998D1*
G1X602505Y95547D1*
G2X602761Y94836I-1J-402D1*
G3X605955Y94836I1596J-1924D1*
G2X606212Y95547I257J308D1*
G1X606472Y95547D1*
G1X606527Y95502D1*
G3X606473Y99348I1571J1945D1*
G1X595943Y99348D1*
G3X592265Y98874I-1625J-1901D1*
G2X591650Y98819I-331J229D1*
G1X493781Y196689D1*
G1X493813Y196802D1*
G3X490980Y193970I-3947J1115D1*
G1X491093Y194002D1*
G37*
G74*
G54D16*
G1X470204Y21404D3*
G1X470816Y88778D3*
G1X489116Y21404D3*
G1X482812Y21404D3*
G1X476508Y21404D3*
G1X486358Y70260D3*
G1X472962Y109266D3*
G1X475326Y115964D3*
G1X485964Y149060D3*
G1X485964Y143150D3*
G1X494632Y21404D3*
G1X491874Y70260D3*
G1X500230Y136764D3*
G1X525758Y20222D3*
G1X525758Y34012D3*
G1X525758Y26920D3*
G1X534016Y63168D3*
G1X547822Y198310D3*
G1X553732Y198310D3*
G1X565552Y188460D3*
G1X565552Y198310D3*
G1X559642Y198310D3*
G54D45*
G1X499866Y197916D3*
G1X509866Y197916D3*
G1X519866Y197916D3*
G1X529866Y197916D3*
%LPD*%
G54D10*
G1X449701Y19820D3*
G1X439858Y19820D3*
G1X439858Y29663D3*
G1X449701Y29663D3*
G1X449701Y39506D3*
G1X439858Y39506D3*
G1X449701Y59191D3*
G1X439858Y59191D3*
G1X439858Y49348D3*
G1X449701Y49348D3*
G1X449701Y69033D3*
G1X439858Y98561D3*
G1X449701Y98561D3*
G1X439858Y108403D3*
G1X439858Y118246D3*
G1X449701Y118246D3*
G1X449701Y108403D3*
G1X449701Y128088D3*
G1X439858Y177301D3*
G1X449701Y177301D3*
G1X449701Y167458D3*
G1X439858Y167458D3*
G1X439858Y187143D3*
G1X459544Y19820D3*
G1X459544Y29663D3*
G1X459544Y39506D3*
G1X464859Y34387D3*
G1X459544Y49348D3*
G1X465816Y77878D3*
G1X459544Y98561D3*
G1X466236Y106238D3*
G1X459544Y108403D3*
G1X459544Y118246D3*
G1X459544Y128088D3*
G1X469386Y128088D3*
G1X459544Y137931D3*
G1X467811Y142262D3*
G1X468205Y149348D3*
G1X459544Y147773D3*
G1X472929Y38324D3*
G1X474701Y59387D3*
G1X486516Y77878D3*
G1X479416Y77878D3*
G1X472716Y77878D3*
G1X472716Y71178D3*
G1X479716Y71178D3*
G1X483166Y159387D3*
G1X488677Y183994D3*
G1X490646Y38128D3*
G1X504142Y49939D3*
G1X503441Y44220D3*
G1X492416Y78078D3*
G1X499416Y71378D3*
G1X499316Y75078D3*
G1X503916Y75178D3*
G1X498816Y97878D3*
G1X500735Y95871D3*
G1X498816Y93878D3*
G1X502616Y93978D3*
G1X502716Y97978D3*
G1X489874Y161788D3*
G1X489874Y164348D3*
G1X510528Y46592D3*
G1X510516Y50178D3*
G1X514116Y46578D3*
G1X512319Y48374D3*
G1X514016Y50278D3*
G1X513677Y74151D3*
G1X528441Y167458D3*
G1X541827Y15884D3*
G1X542418Y29663D3*
G1X542418Y23167D3*
G1X538284Y59191D3*
G1X548126Y59191D3*
G1X548126Y69033D3*
G1X548126Y78876D3*
G1X538284Y78876D3*
G1X538284Y69033D3*
G1X531984Y68836D3*
G1X537890Y111356D3*
G1X539268Y120411D3*
G1X548126Y128088D3*
G1X538284Y137931D3*
G1X548126Y147773D3*
G1X548126Y157616D3*
G1X538284Y157616D3*
G1X538284Y167458D3*
G1X557969Y19820D3*
G1X567811Y19820D3*
G1X567811Y29663D3*
G1X557969Y29663D3*
G1X557969Y59191D3*
G1X557969Y69033D3*
G1X557969Y78876D3*
G1X557969Y88718D3*
G1X548914Y84781D3*
G1X567811Y128088D3*
G1X567811Y137931D3*
G1X557969Y137931D3*
G1X567811Y147773D3*
G1X557969Y147773D3*
G1X557969Y157616D3*
G1X577654Y19820D3*
G1X587496Y19820D3*
G1X577654Y29663D3*
G1X587496Y29663D3*
G1X587496Y39506D3*
G1X577654Y39506D3*
G1X587496Y49348D3*
G1X587496Y59191D3*
G1X577654Y59191D3*
G1X577654Y49348D3*
G1X587496Y69033D3*
G1X577654Y137931D3*
G1X577654Y128088D3*
G1X587496Y128088D3*
G1X587496Y137931D3*
G1X577654Y147773D3*
G1X587496Y157616D3*
G1X577654Y157616D3*
G1X587496Y167458D3*
G1X587496Y177301D3*
G1X579425Y193836D3*
G1X587496Y187143D3*
G1X597339Y19820D3*
G1X607181Y19820D3*
G1X597339Y29663D3*
G1X607181Y29663D3*
G1X607181Y39506D3*
G1X597339Y39506D3*
G1X607181Y49348D3*
G1X607181Y59191D3*
G1X597339Y59191D3*
G1X597339Y49348D3*
G1X607181Y69033D3*
G1X597339Y69033D3*
G1X607181Y108403D3*
G1X607181Y118246D3*
G1X597339Y128088D3*
G1X607181Y128088D3*
G1X597339Y137931D3*
G1X607181Y137931D3*
G1X597339Y157616D3*
G1X607181Y157616D3*
G1X597339Y177301D3*
G1X597339Y167458D3*
G1X607181Y167458D3*
G1X607181Y177301D3*
G1X607181Y187143D3*
G1X597339Y187143D3*
G1X617024Y19820D3*
G1X617024Y29663D3*
G1X617024Y39506D3*
G1X617024Y49348D3*
G1X617024Y59191D3*
G1X617024Y69033D3*
G1X617024Y78876D3*
G1X617024Y88718D3*
G1X617024Y137931D3*
G1X617024Y157616D3*
G1X617024Y147773D3*
G1X617024Y177301D3*
G1X617024Y167458D3*
G1X617024Y187143D3*
G1X617024Y196986D3*
G54D43*
G1X439866Y197916D3*
G54D44*
G1X449866Y197916D3*
G1X459866Y197916D3*
G1X469866Y197916D3*
G1X479866Y197916D3*
G1X489866Y197916D3*
G1X499866Y197916D3*
G1X509866Y197916D3*
G1X519866Y197916D3*
G1X529866Y197916D3*
G54D11*
G1X470204Y21404D3*
G1X470816Y88778D3*
G1X476508Y21404D3*
G1X482812Y21404D3*
G1X489116Y21404D3*
G1X486358Y70260D3*
G1X475326Y115964D3*
G1X472962Y109266D3*
G1X485964Y155364D3*
G1X485964Y143150D3*
G1X485964Y149060D3*
G1X494632Y21404D3*
G1X491874Y70260D3*
G1X494993Y114095D3*
G1X500230Y136764D3*
G1X525758Y20222D3*
G1X525758Y26920D3*
G1X525758Y34012D3*
G1X513316Y77746D3*
G1X522212Y74594D3*
G1X516696Y83262D3*
G1X513150Y113191D3*
G1X521818Y110448D3*
G1X521818Y116752D3*
G1X521818Y123450D3*
G1X513232Y134482D3*
G1X534016Y63168D3*
G1X547822Y198310D3*
G1X554126Y188460D3*
G1X562400Y193188D3*
G1X556490Y193188D3*
G1X559642Y198310D3*
G1X565552Y198310D3*
G1X560036Y188460D3*
G1X565552Y188460D3*
G1X553732Y198310D3*
G1X600618Y72778D3*
G1X594318Y97447D3*
G1X608098Y97447D3*
G1X604358Y92912D3*
G1X505265Y197916D2*
G54D14*
G1X509866Y197916D1*
G1X499866Y193316D2*
G1X499866Y197916D1*
G1X499866Y202517D1*
G1X495265Y197916D2*
G1X499866Y197916D1*
G1X504467Y197916D1*
G1X525265Y197916D2*
G1X529866Y197916D1*
G1X519866Y193316D2*
G1X519866Y197916D1*
G1X519866Y202517D1*
G1X515265Y197916D2*
G1X519866Y197916D1*
G1X524467Y197916D1*
G1X509866Y193316D2*
G1X509866Y197916D1*
G1X509866Y202517D1*
G1X509866Y197916D2*
G1X514467Y197916D1*
G1X529866Y193316D2*
G1X529866Y197916D1*
G1X529866Y202517D1*
G1X529866Y197916D2*
G1X534467Y197916D1*
G1X516696Y83262D2*
G54D15*
G1X516696Y141086D1*
G1X459866Y197916D1*
G1X513232Y134482D2*
G1X511252Y136462D1*
G1X511252Y136530D1*
G1X449866Y197916D1*
G1X513316Y77746D2*
G1X525546Y77746D1*
G1X526546Y78746D1*
G1X526546Y141236D1*
G1X469866Y197916D1*
G1X479866Y197916D2*
G1X532850Y144932D1*
G1X532850Y75594D1*
G1X531850Y74594D1*
G1X522212Y74594D1*
G1X600618Y72778D2*
G1X600618Y87164D1*
G1X489866Y197916D1*
G1X608098Y97447D2*
G1X594318Y97447D1*
G54D10*
G36*
G1X640113Y9975D2*
G1X836913Y9975D1*
G1X836913Y206775D1*
G1X640113Y206775D1*
G1X640113Y9975D1*
G37*
%LPC*%
G36*
G1X646762Y193812D2*
G1X652964Y193812D1*
G75*
G3X653964Y194813I-2J1001D1*
G1X653964Y201014D1*
G3X652964Y202014I-1000J0D1*
G1X646762Y202014D1*
G3X645762Y201014I-1J-1000D1*
G1X645762Y194812D1*
G3X646762Y193812I1000J0D1*
G37*
G36*
G1X770455Y191610D2*
G2X770127Y190955I-314J-253D1*
G3X771975Y190032I-94J-2499D1*
G2X772303Y190686I312J252D1*
G3X770455Y191610I94J2498D1*
G37*
G36*
G1X764545Y191610D2*
G2X764217Y190955I-314J-253D1*
G3X766065Y190032I-94J-2499D1*
G2X766392Y190686I312J252D1*
G3X764545Y191610I95J2498D1*
G37*
G36*
G1X661090Y193999D2*
G1X696558Y158530D1*
G2X696231Y157846I-285J-285D1*
G3X698447Y155631I-270J-2486D1*
G2X699131Y155958I399J43D1*
G1X719349Y135740D1*
G1X719349Y135672D1*
G1X720735Y134285D1*
G1X720743Y134214D1*
G3X724230Y132188I2486J265D1*
G2X724793Y131819I160J-369D1*
G1X724793Y84884D1*
G3X728593Y84884I1899J-1625D1*
G1X728593Y141870D1*
G1X673778Y196686D1*
G1X673810Y196799D1*
G3X670977Y193967I-3947J1115D1*
G1X671090Y193999D1*
G1X724793Y140296D1*
G1X724793Y137138D1*
G2X724230Y136770I-403J0D1*
G3X723493Y136965I-997J-2275D1*
G1X723423Y136973D1*
G1X723149Y137246D1*
G1X723149Y137314D1*
G1X663778Y196686D1*
G1X663810Y196799D1*
G3X660977Y193967I-3947J1115D1*
G1X661090Y193999D1*
G37*
G36*
G1X681090Y193999D2*
G1X734643Y140446D1*
G1X734643Y125040D1*
G2X733905Y124820I-403J1D1*
G3X733905Y122074I-2091J-1373D1*
G2X734643Y121854I336J-220D1*
G1X734643Y118342D1*
G2X733905Y118122I-403J1D1*
G3X733905Y115376I-2091J-1373D1*
G2X734643Y115156I336J-220D1*
G1X734643Y112038D1*
G2X733905Y111818I-403J1D1*
G3X733905Y109073I-2090J-1373D1*
G2X734643Y108852I335J-221D1*
G1X734643Y79643D1*
G1X724938Y79643D1*
G3X724938Y75843I-1626J-1901D1*
G1X729435Y75843D1*
G2X729819Y75323I-1J-402D1*
G3X733834Y72691I2390J-733D1*
G1X742634Y72691D1*
G1X744747Y74804D1*
G1X744747Y145716D1*
G1X693778Y196686D1*
G1X693810Y196799D1*
G3X690977Y193967I-3947J1115D1*
G1X691090Y193999D1*
G1X740947Y144142D1*
G1X740947Y76491D1*
G1X737949Y76491D1*
G2X737665Y77178I0J402D1*
G1X738443Y77956D1*
G1X738443Y142020D1*
G1X683778Y196686D1*
G1X683810Y196799D1*
G3X680977Y193967I-3947J1115D1*
G1X681090Y193999D1*
G37*
G36*
G1X701090Y193999D2*
G1X808715Y86374D1*
G1X808715Y74400D1*
G3X812515Y74400I1900J-1625D1*
G1X812515Y87948D1*
G1X805687Y94776D1*
G2X805742Y95391I283J284D1*
G3X805940Y95544I-1577J2244D1*
G1X812502Y95544D1*
G2X812758Y94833I-2J-402D1*
G3X815952Y94833I1597J-1924D1*
G2X816209Y95544I256J309D1*
G1X816469Y95544D1*
G1X816524Y95499D1*
G3X816470Y99345I1570J1945D1*
G1X805940Y99345D1*
G3X802262Y98871I-1625J-1900D1*
G2X801647Y98816I-331J229D1*
G1X703778Y196686D1*
G1X703810Y196799D1*
G3X700977Y193967I-3947J1115D1*
G1X701090Y193999D1*
G37*
G74*
G54D16*
G1X680201Y21401D3*
G1X680813Y88775D3*
G1X699113Y21401D3*
G1X692809Y21401D3*
G1X686505Y21401D3*
G1X696355Y70257D3*
G1X682959Y109263D3*
G1X685323Y115961D3*
G1X695961Y149057D3*
G1X695961Y143147D3*
G1X704629Y21401D3*
G1X701871Y70257D3*
G1X710227Y136761D3*
G1X735755Y20219D3*
G1X735755Y34009D3*
G1X735755Y26917D3*
G1X744013Y63165D3*
G1X757819Y198307D3*
G1X763729Y198307D3*
G1X775549Y188457D3*
G1X775549Y198307D3*
G1X769639Y198307D3*
G54D45*
G1X709863Y197913D3*
G1X719863Y197913D3*
G1X729863Y197913D3*
G1X739863Y197913D3*
%LPD*%
G54D10*
G1X659698Y19817D3*
G1X649855Y19817D3*
G1X649855Y29660D3*
G1X659698Y29660D3*
G1X659698Y39503D3*
G1X649855Y39503D3*
G1X659698Y59188D3*
G1X649855Y59188D3*
G1X649855Y49345D3*
G1X659698Y49345D3*
G1X659698Y69030D3*
G1X649855Y98558D3*
G1X659698Y98558D3*
G1X649855Y108400D3*
G1X649855Y118243D3*
G1X659698Y118243D3*
G1X659698Y108400D3*
G1X659698Y128085D3*
G1X649855Y177298D3*
G1X659698Y177298D3*
G1X659698Y167455D3*
G1X649855Y167455D3*
G1X649855Y187140D3*
G1X669541Y19817D3*
G1X669541Y29660D3*
G1X669541Y39503D3*
G1X674856Y34384D3*
G1X669541Y49345D3*
G1X675813Y77875D3*
G1X669541Y98558D3*
G1X676233Y106235D3*
G1X669541Y108400D3*
G1X669541Y118243D3*
G1X669541Y128085D3*
G1X679383Y128085D3*
G1X669541Y137928D3*
G1X677808Y142259D3*
G1X678202Y149345D3*
G1X669541Y147770D3*
G1X682926Y38321D3*
G1X684698Y59384D3*
G1X696513Y77875D3*
G1X689413Y77875D3*
G1X682713Y77875D3*
G1X682713Y71175D3*
G1X689713Y71175D3*
G1X693163Y159384D3*
G1X698674Y183991D3*
G1X700643Y38125D3*
G1X714139Y49936D3*
G1X713438Y44217D3*
G1X702413Y78075D3*
G1X709413Y71375D3*
G1X709313Y75075D3*
G1X713913Y75175D3*
G1X708813Y97875D3*
G1X710732Y95868D3*
G1X708813Y93875D3*
G1X712613Y93975D3*
G1X712713Y97975D3*
G1X699871Y161785D3*
G1X699871Y164345D3*
G1X720525Y46589D3*
G1X720513Y50175D3*
G1X724113Y46575D3*
G1X722316Y48371D3*
G1X724013Y50275D3*
G1X723674Y74148D3*
G1X738438Y167455D3*
G1X751824Y15881D3*
G1X752415Y29660D3*
G1X752415Y23164D3*
G1X748281Y59188D3*
G1X758123Y59188D3*
G1X758123Y69030D3*
G1X758123Y78873D3*
G1X748281Y78873D3*
G1X748281Y69030D3*
G1X741981Y68833D3*
G1X747887Y111353D3*
G1X749265Y120408D3*
G1X758123Y128085D3*
G1X748281Y137928D3*
G1X758123Y147770D3*
G1X758123Y157613D3*
G1X748281Y157613D3*
G1X748281Y167455D3*
G1X767966Y19817D3*
G1X777808Y19817D3*
G1X777808Y29660D3*
G1X767966Y29660D3*
G1X767966Y59188D3*
G1X767966Y69030D3*
G1X767966Y78873D3*
G1X767966Y88715D3*
G1X758911Y84778D3*
G1X777808Y128085D3*
G1X777808Y137928D3*
G1X767966Y137928D3*
G1X777808Y147770D3*
G1X767966Y147770D3*
G1X767966Y157613D3*
G1X787651Y19817D3*
G1X797493Y19817D3*
G1X787651Y29660D3*
G1X797493Y29660D3*
G1X797493Y39503D3*
G1X787651Y39503D3*
G1X797493Y49345D3*
G1X797493Y59188D3*
G1X787651Y59188D3*
G1X787651Y49345D3*
G1X797493Y69030D3*
G1X787651Y137928D3*
G1X787651Y128085D3*
G1X797493Y128085D3*
G1X797493Y137928D3*
G1X787651Y147770D3*
G1X797493Y157613D3*
G1X787651Y157613D3*
G1X797493Y167455D3*
G1X797493Y177298D3*
G1X789422Y193833D3*
G1X797493Y187140D3*
G1X807336Y19817D3*
G1X817178Y19817D3*
G1X807336Y29660D3*
G1X817178Y29660D3*
G1X817178Y39503D3*
G1X807336Y39503D3*
G1X817178Y49345D3*
G1X817178Y59188D3*
G1X807336Y59188D3*
G1X807336Y49345D3*
G1X817178Y69030D3*
G1X807336Y69030D3*
G1X817178Y108400D3*
G1X817178Y118243D3*
G1X807336Y128085D3*
G1X817178Y128085D3*
G1X807336Y137928D3*
G1X817178Y137928D3*
G1X807336Y157613D3*
G1X817178Y157613D3*
G1X807336Y177298D3*
G1X807336Y167455D3*
G1X817178Y167455D3*
G1X817178Y177298D3*
G1X817178Y187140D3*
G1X807336Y187140D3*
G1X827021Y19817D3*
G1X827021Y29660D3*
G1X827021Y39503D3*
G1X827021Y49345D3*
G1X827021Y59188D3*
G1X827021Y69030D3*
G1X827021Y78873D3*
G1X827021Y88715D3*
G1X827021Y137928D3*
G1X827021Y157613D3*
G1X827021Y147770D3*
G1X827021Y177298D3*
G1X827021Y167455D3*
G1X827021Y187140D3*
G1X827021Y196983D3*
G54D43*
G1X649863Y197913D3*
G54D44*
G1X659863Y197913D3*
G1X669863Y197913D3*
G1X679863Y197913D3*
G1X689863Y197913D3*
G1X699863Y197913D3*
G1X709863Y197913D3*
G1X719863Y197913D3*
G1X729863Y197913D3*
G1X739863Y197913D3*
G54D11*
G1X680201Y21401D3*
G1X680813Y88775D3*
G1X686505Y21401D3*
G1X692809Y21401D3*
G1X699113Y21401D3*
G1X696355Y70257D3*
G1X685323Y115961D3*
G1X682959Y109263D3*
G1X695961Y155361D3*
G1X695961Y143147D3*
G1X695961Y149057D3*
G1X704629Y21401D3*
G1X701871Y70257D3*
G1X704990Y114092D3*
G1X710227Y136761D3*
G1X735755Y20219D3*
G1X735755Y26917D3*
G1X735755Y34009D3*
G1X723313Y77743D3*
G1X732209Y74591D3*
G1X726693Y83259D3*
G1X723147Y113188D3*
G1X731815Y110445D3*
G1X731815Y116749D3*
G1X731815Y123447D3*
G1X723229Y134479D3*
G1X744013Y63165D3*
G1X757819Y198307D3*
G1X764123Y188457D3*
G1X772397Y193185D3*
G1X766487Y193185D3*
G1X769639Y198307D3*
G1X775549Y198307D3*
G1X770033Y188457D3*
G1X775549Y188457D3*
G1X763729Y198307D3*
G1X810615Y72775D3*
G1X804315Y97444D3*
G1X818095Y97444D3*
G1X814355Y92909D3*
G1X715262Y197913D2*
G54D14*
G1X719863Y197913D1*
G1X709863Y193313D2*
G1X709863Y197913D1*
G1X709863Y202514D1*
G1X705262Y197913D2*
G1X709863Y197913D1*
G1X714464Y197913D1*
G1X735262Y197913D2*
G1X739863Y197913D1*
G1X729863Y193313D2*
G1X729863Y197913D1*
G1X729863Y202514D1*
G1X725262Y197913D2*
G1X729863Y197913D1*
G1X734464Y197913D1*
G1X719863Y193313D2*
G1X719863Y197913D1*
G1X719863Y202514D1*
G1X719863Y197913D2*
G1X724464Y197913D1*
G1X739863Y193313D2*
G1X739863Y197913D1*
G1X739863Y202514D1*
G1X739863Y197913D2*
G1X744464Y197913D1*
G1X726693Y83259D2*
G54D15*
G1X726693Y141083D1*
G1X669863Y197913D1*
G1X723229Y134479D2*
G1X721249Y136459D1*
G1X721249Y136527D1*
G1X659863Y197913D1*
G1X723313Y77743D2*
G1X735543Y77743D1*
G1X736543Y78743D1*
G1X736543Y141233D1*
G1X679863Y197913D1*
G1X689863Y197913D2*
G1X742847Y144929D1*
G1X742847Y75591D1*
G1X741847Y74591D1*
G1X732209Y74591D1*
G1X810615Y72775D2*
G1X810615Y87161D1*
G1X699863Y197913D1*
G1X818095Y97444D2*
G1X804315Y97444D1*
G54D10*
G36*
G1X640112Y219951D2*
G1X836912Y219951D1*
G1X836912Y416751D1*
G1X640112Y416751D1*
G1X640112Y219951D1*
G37*
%LPC*%
G36*
G1X646761Y403788D2*
G1X652963Y403788D1*
G75*
G3X653963Y404788I0J999D1*
G1X653963Y410990D1*
G3X652963Y411990I-1001J-1D1*
G1X646761Y411990D1*
G3X645761Y410990I1J-1002D1*
G1X645761Y404788D1*
G3X646761Y403788I999J-1D1*
G37*
G36*
G1X770454Y401586D2*
G2X770126Y400931I-313J-254D1*
G3X771974Y400008I-94J-2499D1*
G2X772302Y400662I313J251D1*
G3X770454Y401586I94J2499D1*
G37*
G36*
G1X764544Y401586D2*
G2X764216Y400931I-313J-254D1*
G3X766064Y400008I-94J-2499D1*
G2X766391Y400662I313J252D1*
G3X764544Y401586I95J2499D1*
G37*
G36*
G1X661089Y403975D2*
G1X696557Y368506D1*
G2X696230Y367822I-284J-285D1*
G3X698446Y365607I-270J-2486D1*
G2X699130Y365934I400J42D1*
G1X719348Y345716D1*
G1X719348Y345648D1*
G1X720734Y344261D1*
G1X720742Y344190D1*
G3X724229Y342164I2485J264D1*
G2X724792Y341795I160J-370D1*
G1X724792Y294860D1*
G3X728592Y294860I1900J-1626D1*
G1X728592Y351846D1*
G1X673777Y406662D1*
G1X673809Y406775D1*
G3X670976Y403943I-3947J1115D1*
G1X671089Y403975D1*
G1X724792Y350272D1*
G1X724792Y347114D1*
G2X724229Y346746I-402J-1D1*
G3X723492Y346941I-1009J-2322D1*
G1X723422Y346949D1*
G1X723148Y347222D1*
G1X723148Y347290D1*
G1X663777Y406662D1*
G1X663809Y406775D1*
G3X660976Y403943I-3947J1115D1*
G1X661089Y403975D1*
G37*
G36*
G1X681089Y403975D2*
G1X734642Y350422D1*
G1X734642Y335016D1*
G2X733904Y334796I-402J0D1*
G3X733904Y332050I-2090J-1374D1*
G2X734642Y331830I336J-221D1*
G1X734642Y328318D1*
G2X733904Y328098I-402J0D1*
G3X733904Y325352I-2090J-1373D1*
G2X734642Y325132I336J-221D1*
G1X734642Y322014D1*
G2X733904Y321794I-402J0D1*
G3X733904Y319049I-2090J-1373D1*
G2X734642Y318828I335J-222D1*
G1X734642Y289619D1*
G1X724937Y289619D1*
G3X724937Y285819I-1625J-1900D1*
G1X729434Y285819D1*
G2X729818Y285299I-1J-402D1*
G3X733833Y282667I2390J-733D1*
G1X742633Y282667D1*
G1X744746Y284780D1*
G1X744746Y355692D1*
G1X693777Y406662D1*
G1X693809Y406775D1*
G3X690976Y403943I-3947J1115D1*
G1X691089Y403975D1*
G1X740946Y354118D1*
G1X740946Y286467D1*
G1X737948Y286467D1*
G2X737664Y287154I0J402D1*
G1X738442Y287932D1*
G1X738442Y351996D1*
G1X683777Y406662D1*
G1X683809Y406775D1*
G3X680976Y403943I-3947J1115D1*
G1X681089Y403975D1*
G37*
G36*
G1X701089Y403975D2*
G1X808714Y296350D1*
G1X808714Y284376D1*
G3X812514Y284376I1900J-1626D1*
G1X812514Y297924D1*
G1X805686Y304752D1*
G2X805741Y305367I285J284D1*
G3X805939Y305520I-1219J1781D1*
G1X812501Y305520D1*
G2X812757Y304809I-1J-402D1*
G3X815951Y304809I1597J-1925D1*
G2X816208Y305520I257J308D1*
G1X816468Y305520D1*
G1X816523Y305475D1*
G3X816469Y309321I1571J1945D1*
G1X805939Y309321D1*
G3X802261Y308847I-1625J-1902D1*
G2X801646Y308792I-331J227D1*
G1X703777Y406662D1*
G1X703809Y406775D1*
G3X700976Y403943I-3947J1115D1*
G1X701089Y403975D1*
G37*
G74*
G54D16*
G1X680200Y231377D3*
G1X680812Y298751D3*
G1X699112Y231377D3*
G1X692808Y231377D3*
G1X686504Y231377D3*
G1X696354Y280233D3*
G1X682958Y319239D3*
G1X685322Y325937D3*
G1X695960Y359033D3*
G1X695960Y353123D3*
G1X704628Y231377D3*
G1X701870Y280233D3*
G1X710226Y346737D3*
G1X735754Y230195D3*
G1X735754Y243985D3*
G1X735754Y236893D3*
G1X744012Y273141D3*
G1X757818Y408283D3*
G1X763728Y408283D3*
G1X775548Y398433D3*
G1X775548Y408283D3*
G1X769638Y408283D3*
G54D45*
G1X709862Y407889D3*
G1X719862Y407889D3*
G1X729862Y407889D3*
G1X739862Y407889D3*
%LPD*%
G54D10*
G1X659697Y229793D3*
G1X649854Y229793D3*
G1X649854Y239636D3*
G1X659697Y239636D3*
G1X659697Y249479D3*
G1X649854Y249479D3*
G1X659697Y269164D3*
G1X649854Y269164D3*
G1X649854Y259321D3*
G1X659697Y259321D3*
G1X659697Y279006D3*
G1X649854Y308534D3*
G1X659697Y308534D3*
G1X649854Y318376D3*
G1X649854Y328219D3*
G1X659697Y328219D3*
G1X659697Y318376D3*
G1X659697Y338061D3*
G1X649854Y387274D3*
G1X659697Y387274D3*
G1X659697Y377431D3*
G1X649854Y377431D3*
G1X649854Y397116D3*
G1X669540Y229793D3*
G1X669540Y239636D3*
G1X669540Y249479D3*
G1X674855Y244360D3*
G1X669540Y259321D3*
G1X675812Y287851D3*
G1X669540Y308534D3*
G1X676232Y316211D3*
G1X669540Y318376D3*
G1X669540Y328219D3*
G1X669540Y338061D3*
G1X679382Y338061D3*
G1X669540Y347904D3*
G1X677807Y352235D3*
G1X678201Y359321D3*
G1X669540Y357746D3*
G1X682925Y248297D3*
G1X684697Y269360D3*
G1X696512Y287851D3*
G1X689412Y287851D3*
G1X682712Y287851D3*
G1X682712Y281151D3*
G1X689712Y281151D3*
G1X693162Y369360D3*
G1X698673Y393967D3*
G1X700642Y248101D3*
G1X714138Y259912D3*
G1X713437Y254193D3*
G1X702412Y288051D3*
G1X709412Y281351D3*
G1X709312Y285051D3*
G1X713912Y285151D3*
G1X708812Y307851D3*
G1X710731Y305844D3*
G1X708812Y303851D3*
G1X712612Y303951D3*
G1X712712Y307951D3*
G1X699870Y371761D3*
G1X699870Y374321D3*
G1X720524Y256565D3*
G1X720512Y260151D3*
G1X724112Y256551D3*
G1X722315Y258347D3*
G1X724012Y260251D3*
G1X723673Y284124D3*
G1X738437Y377431D3*
G1X751823Y225857D3*
G1X752414Y239636D3*
G1X752414Y233140D3*
G1X748280Y269164D3*
G1X758122Y269164D3*
G1X758122Y279006D3*
G1X758122Y288849D3*
G1X748280Y288849D3*
G1X748280Y279006D3*
G1X741980Y278809D3*
G1X747886Y321329D3*
G1X749264Y330384D3*
G1X758122Y338061D3*
G1X748280Y347904D3*
G1X758122Y357746D3*
G1X758122Y367589D3*
G1X748280Y367589D3*
G1X748280Y377431D3*
G1X767965Y229793D3*
G1X777807Y229793D3*
G1X777807Y239636D3*
G1X767965Y239636D3*
G1X767965Y269164D3*
G1X767965Y279006D3*
G1X767965Y288849D3*
G1X767965Y298691D3*
G1X758910Y294754D3*
G1X777807Y338061D3*
G1X777807Y347904D3*
G1X767965Y347904D3*
G1X777807Y357746D3*
G1X767965Y357746D3*
G1X767965Y367589D3*
G1X787650Y229793D3*
G1X797492Y229793D3*
G1X787650Y239636D3*
G1X797492Y239636D3*
G1X797492Y249479D3*
G1X787650Y249479D3*
G1X797492Y259321D3*
G1X797492Y269164D3*
G1X787650Y269164D3*
G1X787650Y259321D3*
G1X797492Y279006D3*
G1X787650Y347904D3*
G1X787650Y338061D3*
G1X797492Y338061D3*
G1X797492Y347904D3*
G1X787650Y357746D3*
G1X797492Y367589D3*
G1X787650Y367589D3*
G1X797492Y377431D3*
G1X797492Y387274D3*
G1X789421Y403809D3*
G1X797492Y397116D3*
G1X807335Y229793D3*
G1X817177Y229793D3*
G1X807335Y239636D3*
G1X817177Y239636D3*
G1X817177Y249479D3*
G1X807335Y249479D3*
G1X817177Y259321D3*
G1X817177Y269164D3*
G1X807335Y269164D3*
G1X807335Y259321D3*
G1X817177Y279006D3*
G1X807335Y279006D3*
G1X817177Y318376D3*
G1X817177Y328219D3*
G1X807335Y338061D3*
G1X817177Y338061D3*
G1X807335Y347904D3*
G1X817177Y347904D3*
G1X807335Y367589D3*
G1X817177Y367589D3*
G1X807335Y387274D3*
G1X807335Y377431D3*
G1X817177Y377431D3*
G1X817177Y387274D3*
G1X817177Y397116D3*
G1X807335Y397116D3*
G1X827020Y229793D3*
G1X827020Y239636D3*
G1X827020Y249479D3*
G1X827020Y259321D3*
G1X827020Y269164D3*
G1X827020Y279006D3*
G1X827020Y288849D3*
G1X827020Y298691D3*
G1X827020Y347904D3*
G1X827020Y367589D3*
G1X827020Y357746D3*
G1X827020Y387274D3*
G1X827020Y377431D3*
G1X827020Y397116D3*
G1X827020Y406959D3*
G54D43*
G1X649862Y407889D3*
G54D44*
G1X659862Y407889D3*
G1X669862Y407889D3*
G1X679862Y407889D3*
G1X689862Y407889D3*
G1X699862Y407889D3*
G1X709862Y407889D3*
G1X719862Y407889D3*
G1X729862Y407889D3*
G1X739862Y407889D3*
G54D11*
G1X680200Y231377D3*
G1X680812Y298751D3*
G1X686504Y231377D3*
G1X692808Y231377D3*
G1X699112Y231377D3*
G1X696354Y280233D3*
G1X685322Y325937D3*
G1X682958Y319239D3*
G1X695960Y365337D3*
G1X695960Y353123D3*
G1X695960Y359033D3*
G1X704628Y231377D3*
G1X701870Y280233D3*
G1X704989Y324068D3*
G1X710226Y346737D3*
G1X735754Y230195D3*
G1X735754Y236893D3*
G1X735754Y243985D3*
G1X723312Y287719D3*
G1X732208Y284567D3*
G1X726692Y293235D3*
G1X723146Y323164D3*
G1X731814Y320421D3*
G1X731814Y326725D3*
G1X731814Y333423D3*
G1X723228Y344455D3*
G1X744012Y273141D3*
G1X757818Y408283D3*
G1X764122Y398433D3*
G1X772396Y403161D3*
G1X766486Y403161D3*
G1X769638Y408283D3*
G1X775548Y408283D3*
G1X770032Y398433D3*
G1X775548Y398433D3*
G1X763728Y408283D3*
G1X810614Y282751D3*
G1X804314Y307420D3*
G1X818094Y307420D3*
G1X814354Y302885D3*
G1X715261Y407889D2*
G54D14*
G1X719862Y407889D1*
G1X709862Y403289D2*
G1X709862Y407889D1*
G1X709862Y412490D1*
G1X705261Y407889D2*
G1X709862Y407889D1*
G1X714463Y407889D1*
G1X735261Y407889D2*
G1X739862Y407889D1*
G1X729862Y403289D2*
G1X729862Y407889D1*
G1X729862Y412490D1*
G1X725261Y407889D2*
G1X729862Y407889D1*
G1X734463Y407889D1*
G1X719862Y403289D2*
G1X719862Y407889D1*
G1X719862Y412490D1*
G1X719862Y407889D2*
G1X724463Y407889D1*
G1X739862Y403289D2*
G1X739862Y407889D1*
G1X739862Y412490D1*
G1X739862Y407889D2*
G1X744463Y407889D1*
G1X726692Y293235D2*
G54D15*
G1X726692Y351059D1*
G1X669862Y407889D1*
G1X723228Y344455D2*
G1X721248Y346435D1*
G1X721248Y346503D1*
G1X659862Y407889D1*
G1X723312Y287719D2*
G1X735542Y287719D1*
G1X736542Y288719D1*
G1X736542Y351209D1*
G1X679862Y407889D1*
G1X689862Y407889D2*
G1X742846Y354905D1*
G1X742846Y285567D1*
G1X741846Y284567D1*
G1X732208Y284567D1*
G1X810614Y282751D2*
G1X810614Y297137D1*
G1X699862Y407889D1*
G1X818094Y307420D2*
G1X804314Y307420D1*
G54D10*
G36*
G1X9976Y219957D2*
G1X206826Y219957D1*
G1X206826Y416807D1*
G1X9976Y416807D1*
G1X9976Y219957D1*
G37*
%LPC*%
G36*
G1X191722Y400309D2*
G1X197522Y400309D1*
G75*
G3X198522Y401309I-2J1001D1*
G1X198522Y407109D1*
G3X197522Y408109I-1001J-1D1*
G1X191722Y408109D1*
G3X190722Y407109I-2J-999D1*
G1X190722Y401309D1*
G3X191722Y400309I999J-1D1*
G37*
G36*
G1X78324Y365237D2*
G2X79030Y365237I353J-188D1*
G3X79030Y367590I2205J1176D1*
G2X78324Y367590I-353J188D1*
G3X78324Y365237I-2207J-1177D1*
G37*
G36*
G1X77394Y255458D2*
G1X90165Y255458D1*
G1X95310Y260604D1*
G2X95990Y260271I282J-283D1*
G3X98156Y262437I2479J-314D1*
G2X97823Y263117I-51J396D1*
G1X112212Y277506D1*
G1X119818Y277506D1*
G1X185892Y343579D1*
G1X185892Y362870D1*
G1X196522Y373500D1*
G1X196522Y390803D1*
G3X192721Y390803I-1901J3406D1*
G1X192721Y375075D1*
G1X187205Y369558D1*
G2X186522Y369841I-283J283D1*
G1X186522Y390803D1*
G3X182722Y390803I-1900J3406D1*
G1X182722Y367632D1*
G1X177205Y362115D1*
G2X176522Y362398I-283J283D1*
G1X176522Y390803D1*
G3X172722Y390803I-1900J3406D1*
G1X172722Y361768D1*
G1X167205Y356251D1*
G2X166522Y356534I-283J283D1*
G1X166522Y390803D1*
G3X162722Y390803I-1900J3406D1*
G1X162722Y354917D1*
G1X157205Y349401D1*
G2X156522Y349683I-284J282D1*
G1X156522Y390309D1*
G1X157522Y390309D1*
G3X158522Y391309I-2J1001D1*
G1X158522Y397109D1*
G3X157522Y398109I-1001J-1D1*
G1X151722Y398109D1*
G3X150722Y397109I-2J-999D1*
G1X150722Y391309D1*
G3X151722Y390309I999J-1D1*
G1X152722Y390309D1*
G1X152722Y348067D1*
G1X147205Y342550D1*
G2X146522Y342833I-283J283D1*
G1X146522Y390803D1*
G3X142722Y390803I-1900J3406D1*
G1X142722Y340823D1*
G1X137205Y335306D1*
G2X136522Y335589I-283J283D1*
G1X136522Y390803D1*
G3X132722Y390803I-1900J3406D1*
G1X132722Y333579D1*
G1X127205Y328062D1*
G2X126522Y328345I-283J283D1*
G1X126522Y390803D1*
G3X122721Y390803I-1901J3406D1*
G1X122721Y326728D1*
G1X117205Y321212D1*
G2X116522Y321494I-284J282D1*
G1X116522Y390803D1*
G3X112722Y390803I-1900J3406D1*
G1X112722Y320597D1*
G1X84340Y292215D1*
G1X84312Y292201D1*
G3X83370Y289721I927J-1772D1*
G2X82996Y289180I-376J-141D1*
G1X71393Y289180D1*
G1X65950Y283737D1*
G1X65950Y269957D1*
G1X71087Y264821D1*
G2X71096Y264264I-285J-284D1*
G3X70555Y262897I1456J-1368D1*
G3X71654Y261111I2001J0D1*
G1X73394Y259370D1*
G1X73483Y259370D1*
G1X77394Y255458D1*
G37*
G74*
G54D16*
G1X31578Y261559D3*
G1X46976Y275657D3*
G1X46976Y290557D3*
G1X46976Y283157D3*
G1X78776Y245957D3*
G1X71276Y245957D3*
G1X70376Y314657D3*
G1X70606Y357752D3*
G1X76118Y357752D3*
G1X81629Y357752D3*
G1X70606Y366413D3*
G1X87141Y357752D3*
G1X109976Y269757D3*
G54D18*
G1X104622Y404209D3*
G1X124622Y404209D3*
G1X114622Y404209D3*
G1X134622Y404209D3*
G1X144622Y404209D3*
G54D17*
G1X104622Y394209D3*
G1X154622Y404209D3*
G1X164622Y404209D3*
G1X184622Y404209D3*
G1X174622Y404209D3*
%LPD*%
G36*
G1X100903Y279473D2*
G1X107839Y279473D1*
G75*
G2X108122Y279356I0J-400D1*
G3X108688Y279356I283J283D1*
G1X110638Y281306D1*
G1X118244Y281306D1*
G1X182091Y345153D1*
G1X182091Y360661D1*
G3X181408Y360944I-401J0D1*
G1X100620Y280156D1*
G3X100903Y279473I282J-284D1*
G37*
%LPC*%
G74*
G54D16*
G1X109976Y284757D3*
G1X134385Y304209D3*
G1X134385Y309721D3*
%LPD*%
G54D10*
G1X19818Y249485D3*
G1X15094Y259721D3*
G1X19425Y259721D3*
G1X19031Y292792D3*
G1X14307Y292792D3*
G1X19818Y308540D3*
G1X19818Y328225D3*
G1X19818Y347910D3*
G1X19818Y367595D3*
G1X19818Y387280D3*
G1X19818Y406965D3*
G1X29661Y239642D3*
G1X29661Y279012D3*
G1X29661Y298697D3*
G1X29661Y318382D3*
G1X29661Y338067D3*
G1X29661Y377437D3*
G1X29661Y397122D3*
G1X39504Y229799D3*
G1X49346Y239642D3*
G1X39897Y269170D3*
G1X48165Y268382D3*
G1X49346Y279012D3*
G1X39504Y288855D3*
G1X49346Y298697D3*
G1X39504Y308540D3*
G1X49346Y318382D3*
G1X49346Y338067D3*
G1X39504Y328225D3*
G1X49346Y377437D3*
G1X49346Y397122D3*
G1X39504Y387280D3*
G1X59189Y229799D3*
G1X64700Y271532D3*
G1X59189Y308540D3*
G1X59189Y328225D3*
G1X59189Y347910D3*
G1X59189Y406965D3*
G1X78874Y229799D3*
G1X69031Y239642D3*
G1X72555Y262896D3*
G1X74937Y273894D3*
G1X78480Y277437D3*
G1X74937Y277437D3*
G1X78480Y273894D3*
G1X77697Y263658D3*
G1X74937Y263658D3*
G1X78480Y280587D3*
G1X74937Y280587D3*
G1X69031Y318382D3*
G1X78086Y319957D3*
G1X74149Y309327D3*
G1X69031Y338067D3*
G1X78874Y328225D3*
G1X78874Y347910D3*
G1X69031Y397122D3*
G1X78874Y406965D3*
G1X88716Y239642D3*
G1X86354Y263264D3*
G1X91768Y273991D3*
G1X88323Y266297D3*
G1X82023Y277437D3*
G1X82023Y273894D3*
G1X91866Y271138D3*
G1X90685Y268382D3*
G1X82023Y280587D3*
G1X85241Y290429D3*
G1X81630Y309327D3*
G1X88716Y338067D3*
G1X88716Y397122D3*
G1X98559Y229799D3*
G1X108401Y239642D3*
G1X104070Y261296D3*
G1X108401Y259327D3*
G1X109976Y320351D3*
G1X108401Y338067D3*
G1X98559Y347910D3*
G1X98559Y367595D3*
G1X108401Y357752D3*
G1X108401Y377437D3*
G1X118244Y229799D3*
G1X118244Y249485D3*
G1X112732Y276256D3*
G1X111551Y288855D3*
G1X117062Y283736D3*
G1X118244Y367595D3*
G1X137929Y229799D3*
G1X128086Y239642D3*
G1X128086Y259327D3*
G1X137929Y249485D3*
G1X137929Y269170D3*
G1X128086Y279012D3*
G1X128086Y338067D3*
G1X137929Y367595D3*
G1X128086Y357752D3*
G1X128086Y377437D3*
G1X147771Y239642D3*
G1X147771Y259327D3*
G1X141078Y275469D3*
G1X147771Y279012D3*
G1X147771Y298697D3*
G1X147771Y318382D3*
G1X147771Y357752D3*
G1X141472Y361296D3*
G1X147771Y377437D3*
G1X157614Y229799D3*
G1X167456Y239642D3*
G1X157614Y249485D3*
G1X167456Y259327D3*
G1X160763Y275469D3*
G1X157614Y269170D3*
G1X167456Y279012D3*
G1X167456Y298697D3*
G1X167456Y318382D3*
G1X157614Y308540D3*
G1X167456Y338067D3*
G1X160763Y361296D3*
G1X157614Y367595D3*
G1X167850Y358540D3*
G1X168244Y377437D3*
G1X177299Y229799D3*
G1X177299Y249485D3*
G1X177299Y269170D3*
G1X177299Y308540D3*
G1X177299Y328225D3*
G1X177299Y367595D3*
G1X196984Y229799D3*
G1X187141Y239642D3*
G1X196984Y249485D3*
G1X187141Y259327D3*
G1X197378Y269170D3*
G1X187141Y279012D3*
G1X187141Y298697D3*
G1X195803Y301847D3*
G1X196984Y308540D3*
G1X187141Y318382D3*
G1X187141Y338067D3*
G1X196984Y328225D3*
G1X196196Y334524D3*
G1X187929Y357752D3*
G1X197771Y367595D3*
G1X187929Y377437D3*
G1X202889Y269170D3*
G1X202496Y301847D3*
G1X202889Y334524D3*
G1X202496Y367595D3*
G54D11*
G1X31578Y261559D3*
G1X46976Y275657D3*
G1X46976Y283157D3*
G1X46976Y290557D3*
G1X71276Y245957D3*
G1X78776Y245957D3*
G1X70376Y314657D3*
G1X70606Y366413D3*
G1X81629Y357752D3*
G1X81236Y366413D3*
G1X76118Y357752D3*
G1X76118Y366413D3*
G1X70606Y357752D3*
G1X87141Y357752D3*
G1X98471Y259957D3*
G1X109976Y269757D3*
G1X109976Y284757D3*
G1X134385Y309721D3*
G1X134385Y304209D3*
G54D12*
G1X104622Y394209D3*
G1X104622Y404209D3*
G1X124622Y394209D3*
G1X114622Y394209D3*
G1X124622Y404209D3*
G1X114622Y404209D3*
G1X134622Y394209D3*
G1X134622Y404209D3*
G1X144622Y394209D3*
G1X154622Y404209D3*
G1X144622Y404209D3*
G1X164622Y394209D3*
G1X164622Y404209D3*
G1X184622Y394209D3*
G1X174622Y394209D3*
G1X184622Y404209D3*
G1X174622Y404209D3*
G1X194622Y394209D3*
G54D13*
G1X154622Y394209D3*
G1X194622Y404209D3*
G1X104622Y399809D2*
G54D14*
G1X104622Y404209D1*
G1X104622Y408609D1*
G1X100222Y404209D2*
G1X104622Y404209D1*
G1X109022Y404209D1*
G1X114622Y399809D2*
G1X114622Y404209D1*
G1X114622Y408609D1*
G1X110222Y404209D2*
G1X114622Y404209D1*
G1X119022Y404209D1*
G1X124622Y399809D2*
G1X124622Y404209D1*
G1X124622Y408609D1*
G1X120222Y404209D2*
G1X124622Y404209D1*
G1X129022Y404209D1*
G1X134622Y399809D2*
G1X134622Y404209D1*
G1X134622Y408609D1*
G1X130222Y404209D2*
G1X134622Y404209D1*
G1X139022Y404209D1*
G1X144622Y399809D2*
G1X144622Y404209D1*
G1X144622Y408609D1*
G1X140221Y404209D2*
G1X144622Y404209D1*
G1X149022Y404209D1*
G1X194622Y394209D2*
G54D15*
G1X194622Y390009D1*
G1X194621Y390009D1*
G1X194621Y374287D1*
G1X183991Y363657D1*
G1X183991Y344366D1*
G1X119031Y279406D1*
G1X111425Y279406D1*
G1X89378Y257359D1*
G1X78182Y257359D1*
G1X74270Y261270D1*
G1X74181Y261270D1*
G1X72555Y262896D1*
G1X144622Y394209D2*
G1X144622Y340036D1*
G1X87535Y282949D1*
G1X73362Y282949D1*
G1X72181Y281768D1*
G1X72181Y273107D1*
G1X80055Y265233D1*
G1X80055Y262477D1*
G1X83204Y259327D1*
G1X88346Y259327D1*
G1X93834Y264815D1*
G1X93834Y269170D1*
G1X91866Y271138D1*
G1X134622Y394209D2*
G1X134622Y332792D1*
G1X87141Y285311D1*
G1X72968Y285311D1*
G1X69818Y282162D1*
G1X69818Y272319D1*
G1X77697Y264441D1*
G1X77697Y263658D1*
G1X124622Y394209D2*
G1X124622Y325941D1*
G1X85960Y287280D1*
G1X72180Y287280D1*
G1X67850Y282949D1*
G1X67850Y270744D1*
G1X74937Y263658D1*
G1X154622Y394209D2*
G1X154622Y347279D1*
G1X84023Y276681D1*
G1X84023Y262051D1*
G1X85173Y260902D1*
G1X87178Y260902D1*
G1X90685Y264408D1*
G1X90685Y268382D1*
G1X91768Y273991D2*
G1X184622Y366845D1*
G1X184622Y394209D1*
G1X164622Y394209D2*
G1X164622Y354130D1*
G1X85960Y275469D1*
G1X85960Y265233D1*
G1X86354Y264839D1*
G1X86354Y263264D1*
G1X174622Y394209D2*
G1X174622Y360981D1*
G1X88323Y274681D1*
G1X88323Y266297D1*
G1X114622Y394209D2*
G1X114622Y319810D1*
G1X85241Y290429D1*
G54D10*
G36*
G1X220042Y219995D2*
G1X416892Y219995D1*
G1X416892Y416845D1*
G1X220042Y416845D1*
G1X220042Y219995D1*
G37*
%LPC*%
G36*
G1X401788Y400347D2*
G1X407588Y400347D1*
G75*
G3X408588Y401347I1J998D1*
G1X408588Y407147D1*
G3X407588Y408147I-1001J-1D1*
G1X401788Y408147D1*
G3X400788Y407147I1J-1002D1*
G1X400788Y401347D1*
G3X401788Y400347I999J0D1*
G37*
G36*
G1X288390Y365275D2*
G2X289096Y365275I352J-189D1*
G3X289096Y367628I2206J1176D1*
G2X288390Y367628I-354J187D1*
G3X288390Y365275I-2206J-1177D1*
G37*
G36*
G1X287460Y255496D2*
G1X300231Y255496D1*
G1X305376Y260642D1*
G2X306056Y260309I282J-284D1*
G3X308222Y262475I2480J-315D1*
G2X307889Y263155I-50J397D1*
G1X322278Y277544D1*
G1X329884Y277544D1*
G1X395958Y343617D1*
G1X395958Y362908D1*
G1X406588Y373538D1*
G1X406588Y390841D1*
G3X402787Y390841I-1901J3405D1*
G1X402787Y375113D1*
G1X397271Y369596D1*
G2X396588Y369879I-284J282D1*
G1X396588Y390841D1*
G3X392788Y390841I-1901J3405D1*
G1X392788Y367670D1*
G1X387271Y362153D1*
G2X386588Y362436I-284J282D1*
G1X386588Y390841D1*
G3X382788Y390841I-1901J3405D1*
G1X382788Y361806D1*
G1X377271Y356289D1*
G2X376588Y356572I-284J282D1*
G1X376588Y390841D1*
G3X372788Y390841I-1901J3405D1*
G1X372788Y354955D1*
G1X367271Y349439D1*
G2X366588Y349721I-284J281D1*
G1X366588Y390347D1*
G1X367588Y390347D1*
G3X368588Y391347I1J998D1*
G1X368588Y397147D1*
G3X367588Y398147I-1001J-1D1*
G1X361788Y398147D1*
G3X360788Y397147I1J-1002D1*
G1X360788Y391347D1*
G3X361788Y390347I999J0D1*
G1X362788Y390347D1*
G1X362788Y348105D1*
G1X357271Y342588D1*
G2X356588Y342871I-284J282D1*
G1X356588Y390841D1*
G3X352788Y390841I-1901J3405D1*
G1X352788Y340861D1*
G1X347271Y335344D1*
G2X346588Y335627I-284J282D1*
G1X346588Y390841D1*
G3X342788Y390841I-1901J3405D1*
G1X342788Y333617D1*
G1X337271Y328100D1*
G2X336588Y328383I-284J282D1*
G1X336588Y390841D1*
G3X332787Y390841I-1901J3405D1*
G1X332787Y326766D1*
G1X327271Y321250D1*
G2X326588Y321532I-284J281D1*
G1X326588Y390841D1*
G3X322788Y390841I-1901J3405D1*
G1X322788Y320635D1*
G1X294406Y292253D1*
G1X294378Y292239D1*
G3X293436Y289759I931J-1773D1*
G2X293062Y289218I-374J-142D1*
G1X281459Y289218D1*
G1X276016Y283775D1*
G1X276016Y269995D1*
G1X281153Y264859D1*
G2X281162Y264302I-282J-284D1*
G3X280622Y262934I1463J-1369D1*
G3X281720Y261149I1999J-1D1*
G1X283460Y259408D1*
G1X283549Y259408D1*
G1X287460Y255496D1*
G37*
G74*
G54D16*
G1X241644Y261597D3*
G1X257042Y275695D3*
G1X257042Y290595D3*
G1X257042Y283195D3*
G1X288842Y245995D3*
G1X281342Y245995D3*
G1X280442Y314695D3*
G1X280672Y357790D3*
G1X286184Y357790D3*
G1X291695Y357790D3*
G1X280672Y366451D3*
G1X297207Y357790D3*
G1X320042Y269795D3*
G54D18*
G1X314688Y404247D3*
G1X334688Y404247D3*
G1X324688Y404247D3*
G1X344688Y404247D3*
G1X354688Y404247D3*
G54D17*
G1X314688Y394247D3*
G1X364688Y404247D3*
G1X374688Y404247D3*
G1X394688Y404247D3*
G1X384688Y404247D3*
%LPD*%
G36*
G1X310969Y279511D2*
G1X317905Y279511D1*
G75*
G2X318188Y279394I-1J-403D1*
G3X318754Y279394I283J281D1*
G1X320704Y281344D1*
G1X328310Y281344D1*
G1X392157Y345191D1*
G1X392157Y360699D1*
G3X391474Y360982I-401J-1D1*
G1X310686Y280194D1*
G3X310969Y279511I283J-283D1*
G37*
%LPC*%
G74*
G54D16*
G1X320042Y284795D3*
G1X344451Y304247D3*
G1X344451Y309759D3*
%LPD*%
G54D10*
G1X229884Y249523D3*
G1X225160Y259759D3*
G1X229491Y259759D3*
G1X229097Y292830D3*
G1X224373Y292830D3*
G1X229884Y308578D3*
G1X229884Y328263D3*
G1X229884Y347948D3*
G1X229884Y367633D3*
G1X229884Y387318D3*
G1X229884Y407003D3*
G1X239727Y239680D3*
G1X239727Y279050D3*
G1X239727Y298735D3*
G1X239727Y318420D3*
G1X239727Y338105D3*
G1X239727Y377475D3*
G1X239727Y397160D3*
G1X249570Y229837D3*
G1X259412Y239680D3*
G1X249963Y269208D3*
G1X258231Y268420D3*
G1X259412Y279050D3*
G1X249570Y288893D3*
G1X259412Y298735D3*
G1X249570Y308578D3*
G1X259412Y318420D3*
G1X259412Y338105D3*
G1X249570Y328263D3*
G1X259412Y377475D3*
G1X259412Y397160D3*
G1X249570Y387318D3*
G1X269255Y229837D3*
G1X274766Y271570D3*
G1X269255Y308578D3*
G1X269255Y328263D3*
G1X269255Y347948D3*
G1X269255Y407003D3*
G1X288940Y229837D3*
G1X279097Y239680D3*
G1X282621Y262934D3*
G1X285003Y273932D3*
G1X288546Y277475D3*
G1X285003Y277475D3*
G1X288546Y273932D3*
G1X287763Y263696D3*
G1X285003Y263696D3*
G1X288546Y280625D3*
G1X285003Y280625D3*
G1X279097Y318420D3*
G1X288152Y319995D3*
G1X284215Y309365D3*
G1X279097Y338105D3*
G1X288940Y328263D3*
G1X288940Y347948D3*
G1X279097Y397160D3*
G1X288940Y407003D3*
G1X298782Y239680D3*
G1X296420Y263302D3*
G1X301834Y274029D3*
G1X298389Y266335D3*
G1X292089Y277475D3*
G1X292089Y273932D3*
G1X301932Y271176D3*
G1X300751Y268420D3*
G1X292089Y280625D3*
G1X295307Y290467D3*
G1X291696Y309365D3*
G1X298782Y338105D3*
G1X298782Y397160D3*
G1X308625Y229837D3*
G1X318467Y239680D3*
G1X314136Y261334D3*
G1X318467Y259365D3*
G1X320042Y320389D3*
G1X318467Y338105D3*
G1X308625Y347948D3*
G1X308625Y367633D3*
G1X318467Y357790D3*
G1X318467Y377475D3*
G1X328310Y229837D3*
G1X328310Y249523D3*
G1X322798Y276294D3*
G1X321617Y288893D3*
G1X327128Y283774D3*
G1X328310Y367633D3*
G1X347995Y229837D3*
G1X338152Y239680D3*
G1X338152Y259365D3*
G1X347995Y249523D3*
G1X347995Y269208D3*
G1X338152Y279050D3*
G1X338152Y338105D3*
G1X347995Y367633D3*
G1X338152Y357790D3*
G1X338152Y377475D3*
G1X357837Y239680D3*
G1X357837Y259365D3*
G1X351144Y275507D3*
G1X357837Y279050D3*
G1X357837Y298735D3*
G1X357837Y318420D3*
G1X357837Y357790D3*
G1X351538Y361334D3*
G1X357837Y377475D3*
G1X367680Y229837D3*
G1X377522Y239680D3*
G1X367680Y249523D3*
G1X377522Y259365D3*
G1X370829Y275507D3*
G1X367680Y269208D3*
G1X377522Y279050D3*
G1X377522Y298735D3*
G1X377522Y318420D3*
G1X367680Y308578D3*
G1X377522Y338105D3*
G1X370829Y361334D3*
G1X367680Y367633D3*
G1X377916Y358578D3*
G1X378310Y377475D3*
G1X387365Y229837D3*
G1X387365Y249523D3*
G1X387365Y269208D3*
G1X387365Y308578D3*
G1X387365Y328263D3*
G1X387365Y367633D3*
G1X407050Y229837D3*
G1X397207Y239680D3*
G1X407050Y249523D3*
G1X397207Y259365D3*
G1X407444Y269208D3*
G1X397207Y279050D3*
G1X397207Y298735D3*
G1X405869Y301885D3*
G1X407050Y308578D3*
G1X397207Y318420D3*
G1X397207Y338105D3*
G1X407050Y328263D3*
G1X406262Y334562D3*
G1X397995Y357790D3*
G1X407837Y367633D3*
G1X397995Y377475D3*
G1X412955Y269208D3*
G1X412562Y301885D3*
G1X412955Y334562D3*
G1X412562Y367633D3*
G54D11*
G1X241644Y261597D3*
G1X257042Y275695D3*
G1X257042Y283195D3*
G1X257042Y290595D3*
G1X281342Y245995D3*
G1X288842Y245995D3*
G1X280442Y314695D3*
G1X280672Y366451D3*
G1X291695Y357790D3*
G1X291302Y366451D3*
G1X286184Y357790D3*
G1X286184Y366451D3*
G1X280672Y357790D3*
G1X297207Y357790D3*
G1X308537Y259995D3*
G1X320042Y269795D3*
G1X320042Y284795D3*
G1X344451Y309759D3*
G1X344451Y304247D3*
G54D12*
G1X314688Y394247D3*
G1X314688Y404247D3*
G1X334688Y394247D3*
G1X324688Y394247D3*
G1X334688Y404247D3*
G1X324688Y404247D3*
G1X344688Y394247D3*
G1X344688Y404247D3*
G1X354688Y394247D3*
G1X364688Y404247D3*
G1X354688Y404247D3*
G1X374688Y394247D3*
G1X374688Y404247D3*
G1X394688Y394247D3*
G1X384688Y394247D3*
G1X394688Y404247D3*
G1X384688Y404247D3*
G1X404688Y394247D3*
G54D13*
G1X364688Y394247D3*
G1X404688Y404247D3*
G1X314688Y399847D2*
G54D14*
G1X314688Y404247D1*
G1X314688Y408647D1*
G1X310288Y404247D2*
G1X314688Y404247D1*
G1X319088Y404247D1*
G1X324688Y399847D2*
G1X324688Y404247D1*
G1X324688Y408647D1*
G1X320288Y404247D2*
G1X324688Y404247D1*
G1X329088Y404247D1*
G1X334688Y399847D2*
G1X334688Y404247D1*
G1X334688Y408647D1*
G1X330288Y404247D2*
G1X334688Y404247D1*
G1X339088Y404247D1*
G1X344688Y399847D2*
G1X344688Y404247D1*
G1X344688Y408647D1*
G1X340288Y404247D2*
G1X344688Y404247D1*
G1X349088Y404247D1*
G1X354688Y399847D2*
G1X354688Y404247D1*
G1X354688Y408647D1*
G1X350287Y404247D2*
G1X354688Y404247D1*
G1X359088Y404247D1*
G1X404688Y394247D2*
G54D15*
G1X404688Y390047D1*
G1X404687Y390047D1*
G1X404687Y374325D1*
G1X394057Y363695D1*
G1X394057Y344404D1*
G1X329097Y279444D1*
G1X321491Y279444D1*
G1X299444Y257397D1*
G1X288248Y257397D1*
G1X284336Y261308D1*
G1X284247Y261308D1*
G1X282621Y262934D1*
G1X354688Y394247D2*
G1X354688Y340074D1*
G1X297601Y282987D1*
G1X283428Y282987D1*
G1X282247Y281806D1*
G1X282247Y273145D1*
G1X290121Y265271D1*
G1X290121Y262515D1*
G1X293270Y259365D1*
G1X298412Y259365D1*
G1X303900Y264853D1*
G1X303900Y269208D1*
G1X301932Y271176D1*
G1X344688Y394247D2*
G1X344688Y332830D1*
G1X297207Y285349D1*
G1X283034Y285349D1*
G1X279884Y282200D1*
G1X279884Y272357D1*
G1X287763Y264479D1*
G1X287763Y263696D1*
G1X334688Y394247D2*
G1X334688Y325979D1*
G1X296026Y287318D1*
G1X282246Y287318D1*
G1X277916Y282987D1*
G1X277916Y270782D1*
G1X285003Y263696D1*
G1X364688Y394247D2*
G1X364688Y347317D1*
G1X294089Y276719D1*
G1X294089Y262089D1*
G1X295239Y260940D1*
G1X297244Y260940D1*
G1X300751Y264446D1*
G1X300751Y268420D1*
G1X301834Y274029D2*
G1X394688Y366883D1*
G1X394688Y394247D1*
G1X374688Y394247D2*
G1X374688Y354168D1*
G1X296026Y275507D1*
G1X296026Y265271D1*
G1X296420Y264877D1*
G1X296420Y263302D1*
G1X384688Y394247D2*
G1X384688Y361019D1*
G1X298389Y274719D1*
G1X298389Y266335D1*
G1X324688Y394247D2*
G1X324688Y319848D1*
G1X295307Y290467D1*
G54D10*
G36*
G1X430026Y220025D2*
G1X626876Y220025D1*
G1X626876Y416875D1*
G1X430026Y416875D1*
G1X430026Y220025D1*
G37*
%LPC*%
G36*
G1X611772Y400377D2*
G1X617572Y400377D1*
G75*
G3X618572Y401377I-1J1000D1*
G1X618572Y407177D1*
G3X617572Y408177I-1000J0D1*
G1X611772Y408177D1*
G3X610772Y407177I-1J-1000D1*
G1X610772Y401377D1*
G3X611772Y400377I1000J0D1*
G37*
G36*
G1X498374Y365305D2*
G2X499080Y365305I353J-188D1*
G3X499080Y367658I2205J1176D1*
G2X498374Y367658I-353J188D1*
G3X498374Y365305I-2206J-1177D1*
G37*
G36*
G1X497444Y255526D2*
G1X510215Y255526D1*
G1X515360Y260672D1*
G2X516040Y260339I283J-283D1*
G3X518206Y262505I2479J-314D1*
G2X517873Y263185I-50J397D1*
G1X532262Y277574D1*
G1X539868Y277574D1*
G1X605942Y343647D1*
G1X605942Y362938D1*
G1X616572Y373568D1*
G1X616572Y390871D1*
G3X612771Y390871I-1901J3406D1*
G1X612771Y375143D1*
G1X607255Y369626D1*
G2X606572Y369909I-283J283D1*
G1X606572Y390871D1*
G3X602772Y390871I-1900J3406D1*
G1X602772Y367700D1*
G1X597255Y362183D1*
G2X596572Y362466I-283J283D1*
G1X596572Y390871D1*
G3X592772Y390871I-1900J3406D1*
G1X592772Y361836D1*
G1X587255Y356319D1*
G2X586572Y356602I-283J283D1*
G1X586572Y390871D1*
G3X582772Y390871I-1900J3406D1*
G1X582772Y354985D1*
G1X577255Y349469D1*
G2X576572Y349751I-284J282D1*
G1X576572Y390377D1*
G1X577572Y390377D1*
G3X578572Y391377I-1J1000D1*
G1X578572Y397177D1*
G3X577572Y398177I-1000J0D1*
G1X571772Y398177D1*
G3X570772Y397177I-1J-1000D1*
G1X570772Y391377D1*
G3X571772Y390377I1000J0D1*
G1X572772Y390377D1*
G1X572772Y348135D1*
G1X567255Y342618D1*
G2X566572Y342901I-283J283D1*
G1X566572Y390871D1*
G3X562772Y390871I-1900J3406D1*
G1X562772Y340891D1*
G1X557255Y335374D1*
G2X556572Y335657I-283J283D1*
G1X556572Y390871D1*
G3X552772Y390871I-1900J3406D1*
G1X552772Y333647D1*
G1X547255Y328130D1*
G2X546572Y328413I-283J283D1*
G1X546572Y390871D1*
G3X542771Y390871I-1901J3406D1*
G1X542771Y326796D1*
G1X537255Y321280D1*
G2X536572Y321562I-284J282D1*
G1X536572Y390871D1*
G3X532772Y390871I-1900J3406D1*
G1X532772Y320665D1*
G1X504390Y292283D1*
G1X504362Y292269D1*
G3X503420Y289789I928J-1772D1*
G2X503046Y289248I-375J-141D1*
G1X491443Y289248D1*
G1X486000Y283805D1*
G1X486000Y270025D1*
G1X491137Y264889D1*
G2X491146Y264332I-284J-284D1*
G3X490605Y262965I1460J-1369D1*
G3X491704Y261179I2003J1D1*
G1X493444Y259438D1*
G1X493533Y259438D1*
G1X497444Y255526D1*
G37*
G74*
G54D16*
G1X451628Y261627D3*
G1X467026Y275725D3*
G1X467026Y290625D3*
G1X467026Y283225D3*
G1X498826Y246025D3*
G1X491326Y246025D3*
G1X490426Y314725D3*
G1X490656Y357820D3*
G1X496168Y357820D3*
G1X501679Y357820D3*
G1X490656Y366481D3*
G1X507191Y357820D3*
G1X530026Y269825D3*
G54D18*
G1X524672Y404277D3*
G1X544672Y404277D3*
G1X534672Y404277D3*
G1X554672Y404277D3*
G1X564672Y404277D3*
G54D17*
G1X524672Y394277D3*
G1X574672Y404277D3*
G1X584672Y404277D3*
G1X604672Y404277D3*
G1X594672Y404277D3*
%LPD*%
G36*
G1X520953Y279541D2*
G1X527889Y279541D1*
G75*
G2X528172Y279424I1J-398D1*
G3X528738Y279424I283J283D1*
G1X530688Y281374D1*
G1X538294Y281374D1*
G1X602141Y345221D1*
G1X602141Y360729D1*
G3X601458Y361012I-401J0D1*
G1X520670Y280224D1*
G3X520953Y279541I283J-283D1*
G37*
%LPC*%
G74*
G54D16*
G1X530026Y284825D3*
G1X554435Y304277D3*
G1X554435Y309789D3*
%LPD*%
G54D10*
G1X439868Y249553D3*
G1X435144Y259789D3*
G1X439475Y259789D3*
G1X439081Y292860D3*
G1X434357Y292860D3*
G1X439868Y308608D3*
G1X439868Y328293D3*
G1X439868Y347978D3*
G1X439868Y367663D3*
G1X439868Y387348D3*
G1X439868Y407033D3*
G1X449711Y239710D3*
G1X449711Y279080D3*
G1X449711Y298765D3*
G1X449711Y318450D3*
G1X449711Y338135D3*
G1X449711Y377505D3*
G1X449711Y397190D3*
G1X459554Y229867D3*
G1X469396Y239710D3*
G1X459947Y269238D3*
G1X468215Y268450D3*
G1X469396Y279080D3*
G1X459554Y288923D3*
G1X469396Y298765D3*
G1X459554Y308608D3*
G1X469396Y318450D3*
G1X469396Y338135D3*
G1X459554Y328293D3*
G1X469396Y377505D3*
G1X469396Y397190D3*
G1X459554Y387348D3*
G1X479239Y229867D3*
G1X484750Y271600D3*
G1X479239Y308608D3*
G1X479239Y328293D3*
G1X479239Y347978D3*
G1X479239Y407033D3*
G1X498924Y229867D3*
G1X489081Y239710D3*
G1X492605Y262964D3*
G1X494987Y273962D3*
G1X498530Y277505D3*
G1X494987Y277505D3*
G1X498530Y273962D3*
G1X497747Y263726D3*
G1X494987Y263726D3*
G1X498530Y280655D3*
G1X494987Y280655D3*
G1X489081Y318450D3*
G1X498136Y320025D3*
G1X494199Y309395D3*
G1X489081Y338135D3*
G1X498924Y328293D3*
G1X498924Y347978D3*
G1X489081Y397190D3*
G1X498924Y407033D3*
G1X508766Y239710D3*
G1X506404Y263332D3*
G1X511818Y274059D3*
G1X508373Y266365D3*
G1X502073Y277505D3*
G1X502073Y273962D3*
G1X511916Y271206D3*
G1X510735Y268450D3*
G1X502073Y280655D3*
G1X505291Y290497D3*
G1X501680Y309395D3*
G1X508766Y338135D3*
G1X508766Y397190D3*
G1X518609Y229867D3*
G1X528451Y239710D3*
G1X524120Y261364D3*
G1X528451Y259395D3*
G1X530026Y320419D3*
G1X528451Y338135D3*
G1X518609Y347978D3*
G1X518609Y367663D3*
G1X528451Y357820D3*
G1X528451Y377505D3*
G1X538294Y229867D3*
G1X538294Y249553D3*
G1X532782Y276324D3*
G1X531601Y288923D3*
G1X537112Y283804D3*
G1X538294Y367663D3*
G1X557979Y229867D3*
G1X548136Y239710D3*
G1X548136Y259395D3*
G1X557979Y249553D3*
G1X557979Y269238D3*
G1X548136Y279080D3*
G1X548136Y338135D3*
G1X557979Y367663D3*
G1X548136Y357820D3*
G1X548136Y377505D3*
G1X567821Y239710D3*
G1X567821Y259395D3*
G1X561128Y275537D3*
G1X567821Y279080D3*
G1X567821Y298765D3*
G1X567821Y318450D3*
G1X567821Y357820D3*
G1X561522Y361364D3*
G1X567821Y377505D3*
G1X577664Y229867D3*
G1X587506Y239710D3*
G1X577664Y249553D3*
G1X587506Y259395D3*
G1X580813Y275537D3*
G1X577664Y269238D3*
G1X587506Y279080D3*
G1X587506Y298765D3*
G1X587506Y318450D3*
G1X577664Y308608D3*
G1X587506Y338135D3*
G1X580813Y361364D3*
G1X577664Y367663D3*
G1X587900Y358608D3*
G1X588294Y377505D3*
G1X597349Y229867D3*
G1X597349Y249553D3*
G1X597349Y269238D3*
G1X597349Y308608D3*
G1X597349Y328293D3*
G1X597349Y367663D3*
G1X617034Y229867D3*
G1X607191Y239710D3*
G1X617034Y249553D3*
G1X607191Y259395D3*
G1X617428Y269238D3*
G1X607191Y279080D3*
G1X607191Y298765D3*
G1X615853Y301915D3*
G1X617034Y308608D3*
G1X607191Y318450D3*
G1X607191Y338135D3*
G1X617034Y328293D3*
G1X616246Y334592D3*
G1X607979Y357820D3*
G1X617821Y367663D3*
G1X607979Y377505D3*
G1X622939Y269238D3*
G1X622546Y301915D3*
G1X622939Y334592D3*
G1X622546Y367663D3*
G54D11*
G1X451628Y261627D3*
G1X467026Y275725D3*
G1X467026Y283225D3*
G1X467026Y290625D3*
G1X491326Y246025D3*
G1X498826Y246025D3*
G1X490426Y314725D3*
G1X490656Y366481D3*
G1X501679Y357820D3*
G1X501286Y366481D3*
G1X496168Y357820D3*
G1X496168Y366481D3*
G1X490656Y357820D3*
G1X507191Y357820D3*
G1X518521Y260025D3*
G1X530026Y269825D3*
G1X530026Y284825D3*
G1X554435Y309789D3*
G1X554435Y304277D3*
G54D12*
G1X524672Y394277D3*
G1X524672Y404277D3*
G1X544672Y394277D3*
G1X534672Y394277D3*
G1X544672Y404277D3*
G1X534672Y404277D3*
G1X554672Y394277D3*
G1X554672Y404277D3*
G1X564672Y394277D3*
G1X574672Y404277D3*
G1X564672Y404277D3*
G1X584672Y394277D3*
G1X584672Y404277D3*
G1X604672Y394277D3*
G1X594672Y394277D3*
G1X604672Y404277D3*
G1X594672Y404277D3*
G1X614672Y394277D3*
G54D13*
G1X574672Y394277D3*
G1X614672Y404277D3*
G1X524672Y399877D2*
G54D14*
G1X524672Y404277D1*
G1X524672Y408677D1*
G1X520272Y404277D2*
G1X524672Y404277D1*
G1X529072Y404277D1*
G1X534672Y399877D2*
G1X534672Y404277D1*
G1X534672Y408677D1*
G1X530272Y404277D2*
G1X534672Y404277D1*
G1X539072Y404277D1*
G1X544672Y399877D2*
G1X544672Y404277D1*
G1X544672Y408677D1*
G1X540272Y404277D2*
G1X544672Y404277D1*
G1X549072Y404277D1*
G1X554672Y399877D2*
G1X554672Y404277D1*
G1X554672Y408677D1*
G1X550272Y404277D2*
G1X554672Y404277D1*
G1X559072Y404277D1*
G1X564672Y399877D2*
G1X564672Y404277D1*
G1X564672Y408677D1*
G1X560271Y404277D2*
G1X564672Y404277D1*
G1X569072Y404277D1*
G1X614672Y394277D2*
G54D15*
G1X614672Y390077D1*
G1X614671Y390077D1*
G1X614671Y374355D1*
G1X604041Y363725D1*
G1X604041Y344434D1*
G1X539081Y279474D1*
G1X531475Y279474D1*
G1X509428Y257427D1*
G1X498232Y257427D1*
G1X494320Y261338D1*
G1X494231Y261338D1*
G1X492605Y262964D1*
G1X564672Y394277D2*
G1X564672Y340104D1*
G1X507585Y283017D1*
G1X493412Y283017D1*
G1X492231Y281836D1*
G1X492231Y273175D1*
G1X500105Y265301D1*
G1X500105Y262545D1*
G1X503254Y259395D1*
G1X508396Y259395D1*
G1X513884Y264883D1*
G1X513884Y269238D1*
G1X511916Y271206D1*
G1X554672Y394277D2*
G1X554672Y332860D1*
G1X507191Y285379D1*
G1X493018Y285379D1*
G1X489868Y282230D1*
G1X489868Y272387D1*
G1X497747Y264509D1*
G1X497747Y263726D1*
G1X544672Y394277D2*
G1X544672Y326009D1*
G1X506010Y287348D1*
G1X492230Y287348D1*
G1X487900Y283017D1*
G1X487900Y270812D1*
G1X494987Y263726D1*
G1X574672Y394277D2*
G1X574672Y347347D1*
G1X504073Y276749D1*
G1X504073Y262119D1*
G1X505223Y260970D1*
G1X507228Y260970D1*
G1X510735Y264476D1*
G1X510735Y268450D1*
G1X511818Y274059D2*
G1X604672Y366913D1*
G1X604672Y394277D1*
G1X584672Y394277D2*
G1X584672Y354198D1*
G1X506010Y275537D1*
G1X506010Y265301D1*
G1X506404Y264907D1*
G1X506404Y263332D1*
G1X594672Y394277D2*
G1X594672Y361049D1*
G1X508373Y274749D1*
G1X508373Y266365D1*
G1X534672Y394277D2*
G1X534672Y319878D1*
G1X505291Y290497D1*
M2*
