*
%LPD*%
%LNtransceiverTOP*%
%FSLAX25Y25*%
%MOIN*%
%AD*%
%AD*%
%ADD10C,0.02*%
%ADD11C,0.03*%
%ADD12C,0.058*%
%ADD13R,0.058X0.058*%
%ADD14C,0.005*%
%ADD15C,0.01*%
%ADD17C,0.078003937*%
%ADD18C,0.084003937*%
%ADD23R,0.032X0.038*%
%ADD24R,0.038X0.032*%
%ADD26R,0.05X0.05*%
%ADD35R,0.153542913X0.047244094*%
%ADD36R,0.135827165X0.135827165*%
%ADD37R,0.011024016X0.033464961*%
%ADD38R,0.033464961X0.011024016*%
%ADD39R,0.236220079X0.153542913*%
%ADD40R,0.165353937X0.12204685*%
%ADD41R,0.039370079X0.035433071*%
%ADD42C,0.014*%
%ADD43R,0.062011811X0.062011811*%
%ADD44C,0.062011811*%
%ADD45C,0.087992126*%
%ADD46C,0.082016142*%
%ADD52R,0.062988189X0.062988189*%
%AMD54_Rectangle*
20,1,0.032011,0.01343,-0.01343,-0.01343,0.01343,0*
%
%ADD54D54_Rectangle*%
%ADD64R,0.032011811X0.037988189*%
%AMD65_Rectangle*
20,1,0.032011,-0.01343,-0.01343,0.01343,0.01343,0*
%
%ADD65D65_Rectangle*%
%ADD66R,0.037988189X0.032011811*%
%ADD69R,0.059059055X0.059059055*%
%ADD70R,0.027559055X0.062988189*%
%ADD71R,0.106298819X0.0315*%
%ADD72R,0.153538976X0.047240157*%
%ADD73R,0.011020079X0.025201181*%
%ADD74R,0.025201181X0.011020079*%
%ADD75R,0.16535X0.122051181*%
%ADD76R,0.236220079X0.153538976*%
%ADD77R,0.011811024X0.027559055*%
%ADD78R,0.027559055X0.011811024*%
%ADD79R,0.019688976X0.0315*%
%ADD80R,0.039370079X0.02361811*%
%ADD81R,0.02361811X0.039370079*%
%ADD82C,0.012011811*%
%ADD83C,0.025*%
G54D10*
%SRX1Y1I0.0J0.0*%
G36*
G1X10000Y10000D2*
G1X206850Y10000D1*
G1X206850Y72205D1*
G1X125354Y72205D1*
G1X125354Y82441D1*
G1X102487Y82441D1*
G1X102487Y77606D1*
G1X102893Y77200D1*
G1X109299Y77200D1*
G75*
G2X109299Y72400I701J-2400D1*
G1X102487Y72400D1*
G1X102487Y62645D1*
G1X102932Y62200D1*
G1X109299Y62200D1*
G2X109299Y57400I701J-2400D1*
G1X102487Y57400D1*
G1X102487Y43878D1*
G1X81273Y43878D1*
G1X81200Y43806D1*
G1X81200Y36701D1*
G2X76400Y36701I-2400J-702D1*
G1X76400Y43878D1*
G1X74050Y43878D1*
G1X73700Y43529D1*
G1X73700Y36701D1*
G2X68900Y36701I-2400J-702D1*
G1X68900Y39683D1*
G1X65580Y39683D1*
G2X64940Y39915I0J1000D1*
G1X64799Y40032D1*
G1X64516Y39749D1*
G2X61771Y38612I-2746J2746D1*
G1X47962Y38612D1*
G1X47907Y38500D1*
G2X47009Y37940I-899J440D1*
G1X43072Y37940D1*
G2X42072Y38941I0J1000D1*
G1X42072Y42484D1*
G2X43072Y43484I1000J-1D1*
G1X46918Y43484D1*
G1X46918Y44915D1*
G1X28028Y63805D1*
G1X26551Y63805D1*
G1X26551Y63543D1*
G2X25551Y62543I-1001J0D1*
G1X10000Y62543D1*
G1X10000Y10000D1*
G37*
G36*
G1X29768Y68006D2*
G1X48665Y49108D1*
G1X50323Y49108D1*
G1X50370Y49241D1*
G2X51313Y49908I943J-334D1*
G1X54480Y49908D1*
G1X54480Y62908D1*
G1X54088Y63300D1*
G1X47701Y63300D1*
G2X47701Y68100I-702J2400D1*
G1X54480Y68100D1*
G1X54480Y70388D1*
G1X54068Y70800D1*
G1X47701Y70800D1*
G2X47701Y75600I-702J2400D1*
G1X54480Y75600D1*
G1X54480Y78200D1*
G1X47701Y78200D1*
G2X47701Y83000I-702J2400D1*
G1X54010Y83000D1*
G1X54480Y83470D1*
G1X54480Y93033D1*
G1X62093Y93033D1*
G1X63793Y94733D1*
G1X63793Y96246D1*
G2X64793Y97246I1000J-1D1*
G1X68000Y97246D1*
G1X68000Y103999D1*
G2X72800Y103999I2400J701D1*
G1X72800Y93513D1*
G1X73280Y93033D1*
G1X88414Y93033D1*
G1X88414Y95365D1*
G2X88914Y96231I1000J-1D1*
G1X88914Y97801D1*
G1X88215Y98500D1*
G1X88215Y101898D1*
G1X88082Y101945D1*
G2X87549Y102388I333J943D1*
G1X87193Y102388D1*
G1X87104Y102299D1*
G1X85601Y102299D1*
G2X84735Y101799I-867J500D1*
G1X80935Y101799D1*
G2X79934Y102800I-1J1000D1*
G1X79934Y106000D1*
G2X80935Y107000I1000J-1D1*
G1X84725Y107000D1*
G1X84725Y112695D1*
G1X88408Y112695D1*
G1X88408Y112688D1*
G1X90245Y112688D1*
G1X91247Y113690D1*
G1X91145Y113937D1*
G1X91102Y113937D1*
G1X91102Y121023D1*
G1X110261Y121023D1*
G1X110267Y121217D1*
G2X113550Y128819I11222J-337D1*
G1X125354Y140623D1*
G1X125354Y144645D1*
G1X206850Y144645D1*
G1X206850Y206850D1*
G1X10000Y206850D1*
G1X10000Y69268D1*
G1X25551Y69268D1*
G2X26551Y68268I-1J-1001D1*
G1X26551Y68006D1*
G1X29768Y68006D1*
G37*
G36*
G1X99752Y97784D2*
G1X102487Y97784D1*
G1X102487Y96559D1*
G3X102706Y96360I199J0D1*
G2X102800Y96365I101J-1019D1*
G1X111600Y96365D1*
G2X112466Y95865I-1J-1001D1*
G1X120526Y95865D1*
G2X120592Y95965I876J-507D1*
G1X120592Y98445D1*
G2X120392Y99045I800J600D1*
G1X120392Y102845D1*
G2X121392Y103845I1000J-1D1*
G1X125991Y103845D1*
G1X125991Y103846D1*
G1X142827Y103846D1*
G1X142827Y90564D1*
G1X121392Y90564D1*
G2X120526Y91064I0J1000D1*
G1X112466Y91064D1*
G2X111600Y90564I-867J500D1*
G1X106888Y90564D1*
G1X106888Y89527D1*
G1X131260Y89527D1*
G1X131260Y79291D1*
G1X206850Y79291D1*
G1X206850Y137559D1*
G1X128230Y137559D1*
G1X116520Y125848D1*
G3X114486Y121456I4969J-4969D1*
G3X114884Y121023I398J-34D1*
G1X115512Y121023D1*
G1X115512Y113937D1*
G1X103376Y113937D1*
G1X103376Y107088D1*
G1X107176Y107088D1*
G2X108176Y106088I-1J-1001D1*
G1X108176Y102888D1*
G2X107176Y101888I-1001J0D1*
G1X103375Y101888D1*
G2X102567Y102299I0J999D1*
G1X100561Y102299D1*
G2X100029Y101857I-867J501D1*
G1X99896Y101810D1*
G1X99896Y98894D1*
G1X99469Y98467D1*
G3X99752Y97784I283J-283D1*
G37*
G36*
G1X126991Y91565D2*
G1X141826Y91565D1*
G1X141826Y102846D1*
G1X126991Y102846D1*
G1X126991Y91565D1*
G37*
%LPC*%
G36*
G1X33622Y30850D2*
G1X37559Y30850D1*
G3X38559Y31850I-1J1000D1*
G1X38559Y35394D1*
G3X37559Y36394I-1001J-1D1*
G1X33622Y36394D1*
G3X32622Y35394I0J-1001D1*
G1X32622Y31850D1*
G3X33622Y30850I1000J0D1*
G37*
G36*
G1X30400Y49409D2*
G1X33190Y46619D1*
G1X33190Y43393D1*
G1X33096Y43334D1*
G3X32622Y42484I525J-851D1*
G1X32622Y38940D1*
G3X33622Y37940I1000J0D1*
G1X37559Y37940D1*
G3X38559Y38941I-1J1000D1*
G1X38559Y42484D1*
G3X38086Y43334I-1000J0D1*
G1X37991Y43393D1*
G1X37991Y44239D1*
G3X38496Y45108I-495J868D1*
G1X38496Y48908D1*
G3X37496Y49908I-1001J-1D1*
G1X36690Y49908D1*
G1X33795Y52804D1*
G1X33781Y52828D1*
G3X30376Y49423I-2180J-1226D1*
G1X30400Y49409D1*
G37*
G36*
G1X191746Y190352D2*
G1X197546Y190352D1*
G3X198546Y191352I-1J1000D1*
G1X198546Y197152D1*
G3X197546Y198152I-1001J-1D1*
G1X191746Y198152D1*
G3X190746Y197152I0J-1001D1*
G1X190746Y191352D1*
G3X191746Y190352I1000J0D1*
G37*
G36*
G1X151746Y180352D2*
G1X157546Y180352D1*
G3X158546Y181352I-1J1000D1*
G1X158546Y187152D1*
G3X157546Y188152I-1001J-1D1*
G1X151746Y188152D1*
G3X150746Y187152I0J-1001D1*
G1X150746Y181352D1*
G3X151746Y180352I1000J0D1*
G37*
G36*
G1X61000Y163490D2*
G1X61000Y162511D1*
G1X60990Y162511D1*
G1X60990Y161109D1*
G1X61000Y161109D1*
G1X61000Y143100D1*
G1X91500Y143100D1*
G1X91500Y161109D1*
G1X91512Y161109D1*
G1X91512Y162511D1*
G1X91500Y162511D1*
G1X91500Y177000D1*
G1X61000Y177000D1*
G1X61000Y176195D1*
G1X60995Y176172D1*
G3X60968Y175945I975J-232D1*
G1X60968Y163740D1*
G3X60995Y163512I1005J3D1*
G1X61000Y163490D1*
G37*
G74*
G54D18*
G1X104646Y194252D3*
G1X124646Y194252D3*
G1X114646Y194252D3*
G1X134646Y194252D3*
G1X144646Y194252D3*
G54D17*
G1X104646Y184252D3*
G1X124646Y184252D3*
G1X114646Y184252D3*
G1X134646Y184252D3*
G1X144646Y184252D3*
G1X154646Y194252D3*
G1X164646Y184252D3*
G1X164646Y194252D3*
G1X184646Y184252D3*
G1X174646Y184252D3*
G1X184646Y194252D3*
G1X174646Y194252D3*
G1X194646Y184252D3*
%LPD*%
G36*
G1X62000Y144100D2*
G1X90500Y144100D1*
G1X90500Y160100D1*
G1X62000Y160100D1*
G1X62000Y144100D1*
G37*
G36*
G1X62000Y163500D2*
G1X90500Y163500D1*
G1X90500Y176000D1*
G1X62000Y176000D1*
G1X62000Y163500D1*
G37*
G1X35896Y47008D2*
G54D10*
G1X35896Y47308D1*
G1X31602Y51602D1*
G1X35591Y40712D2*
G1X35591Y46702D1*
G1X35896Y47008D1*
G1X47000Y65700D2*
G1X55082Y65700D1*
G1X58513Y62268D1*
G1X58513Y84409D2*
G1X58513Y84109D1*
G1X55004Y80600D1*
G1X47000Y80600D1*
G1X47000Y73200D2*
G1X55062Y73200D1*
G1X58513Y69749D1*
G1X58513Y69449D1*
G1X58513Y61968D2*
G1X58513Y62268D1*
G1X71300Y36000D2*
G1X71300Y44523D1*
G1X74661Y47884D1*
G1X78800Y36000D2*
G1X78800Y44800D1*
G1X81884Y47884D1*
G1X82141Y47884D1*
G1X74961Y47884D2*
G1X74661Y47884D1*
G1X70400Y104700D2*
G1X70400Y92519D1*
G1X73873Y89046D1*
G1X74173Y89046D1*
G1X82441Y47884D2*
G1X82141Y47884D1*
G1X98495Y56063D2*
G1X98495Y50000D1*
G1X110000Y59800D2*
G1X101938Y59800D1*
G1X98495Y63243D1*
G1X98495Y63543D1*
G1X110000Y74800D2*
G1X101898Y74800D1*
G1X98495Y78204D1*
G1X98495Y78504D1*
G1X104400Y93465D2*
G1X104488Y93376D1*
G1X104488Y85984D1*
G1X122992Y93465D2*
G1X110000Y93465D1*
G1X122992Y100945D2*
G1X122992Y93465D1*
G1X19842Y39528D3*
G1X15118Y49764D3*
G1X19449Y49764D3*
G1X19055Y82835D3*
G1X14331Y82835D3*
G1X19842Y98583D3*
G1X19842Y118268D3*
G1X19842Y137953D3*
G1X19842Y157638D3*
G1X19842Y177323D3*
G1X19842Y197008D3*
G1X29685Y29685D3*
G1X29685Y69055D3*
G1X29685Y88740D3*
G1X29685Y108425D3*
G1X29685Y128110D3*
G1X29685Y167480D3*
G1X29685Y187165D3*
G1X39528Y19842D3*
G1X49370Y29685D3*
G1X39921Y59213D3*
G1X48189Y58425D3*
G1X49370Y69055D3*
G1X39528Y78898D3*
G1X49370Y88740D3*
G1X39528Y98583D3*
G1X49370Y108425D3*
G1X49370Y128110D3*
G1X39528Y118268D3*
G1X49370Y167480D3*
G1X49370Y187165D3*
G1X39528Y177323D3*
G1X59213Y19842D3*
G1X64724Y61575D3*
G1X59213Y98583D3*
G1X59213Y118268D3*
G1X59213Y137953D3*
G1X59213Y197008D3*
G1X78898Y19842D3*
G1X69055Y29685D3*
G1X72579Y52939D3*
G1X74961Y63937D3*
G1X78504Y67480D3*
G1X74961Y67480D3*
G1X78504Y63937D3*
G1X77721Y53701D3*
G1X74961Y53701D3*
G1X78504Y70630D3*
G1X74961Y70630D3*
G1X69055Y108425D3*
G1X78110Y110000D3*
G1X74173Y99370D3*
G1X69055Y128110D3*
G1X78898Y118268D3*
G1X78898Y137953D3*
G1X69055Y187165D3*
G1X78898Y197008D3*
G1X88740Y29685D3*
G1X86378Y53307D3*
G1X91792Y64034D3*
G1X88347Y56340D3*
G1X82047Y67480D3*
G1X82047Y63937D3*
G1X91890Y61181D3*
G1X90709Y58425D3*
G1X82047Y70630D3*
G1X85265Y80472D3*
G1X81654Y99370D3*
G1X88740Y128110D3*
G1X88740Y187165D3*
G1X98583Y19842D3*
G1X108425Y29685D3*
G1X104094Y51339D3*
G1X108425Y49370D3*
G1X110000Y110394D3*
G1X108425Y128110D3*
G1X98583Y137953D3*
G1X98583Y157638D3*
G1X108425Y147795D3*
G1X108425Y167480D3*
G1X118268Y19842D3*
G1X118268Y39528D3*
G1X112756Y66299D3*
G1X111575Y78898D3*
G1X117086Y73779D3*
G1X118268Y157638D3*
G1X137953Y19842D3*
G1X128110Y29685D3*
G1X128110Y49370D3*
G1X137953Y39528D3*
G1X137953Y59213D3*
G1X128110Y69055D3*
G1X128110Y128110D3*
G1X137953Y157638D3*
G1X128110Y147795D3*
G1X128110Y167480D3*
G1X147795Y29685D3*
G1X147795Y49370D3*
G1X141102Y65512D3*
G1X147795Y69055D3*
G1X147795Y88740D3*
G1X147795Y108425D3*
G1X147795Y147795D3*
G1X141496Y151339D3*
G1X147795Y167480D3*
G1X157638Y19842D3*
G1X167480Y29685D3*
G1X157638Y39528D3*
G1X167480Y49370D3*
G1X160787Y65512D3*
G1X157638Y59213D3*
G1X167480Y69055D3*
G1X167480Y88740D3*
G1X167480Y108425D3*
G1X157638Y98583D3*
G1X167480Y128110D3*
G1X160787Y151339D3*
G1X157638Y157638D3*
G1X167874Y148583D3*
G1X168268Y167480D3*
G1X177323Y19842D3*
G1X177323Y39528D3*
G1X177323Y59213D3*
G1X177323Y98583D3*
G1X177323Y118268D3*
G1X177323Y157638D3*
G1X197008Y19842D3*
G1X187165Y29685D3*
G1X197008Y39528D3*
G1X187165Y49370D3*
G1X197402Y59213D3*
G1X187165Y69055D3*
G1X187165Y88740D3*
G1X195827Y91890D3*
G1X197008Y98583D3*
G1X187165Y108425D3*
G1X187165Y128110D3*
G1X197008Y118268D3*
G1X196220Y124567D3*
G1X187953Y147795D3*
G1X197795Y157638D3*
G1X187953Y167480D3*
G1X202913Y59213D3*
G1X202520Y91890D3*
G1X202913Y124567D3*
G1X202520Y157638D3*
G54D37*
G1X79681Y57244D3*
G1X77721Y57244D3*
G1X75751Y57244D3*
G1X73781Y57244D3*
G1X71811Y57244D3*
G1X71811Y76734D3*
G1X73781Y76734D3*
G1X75751Y76734D3*
G1X77721Y76734D3*
G1X79681Y76734D3*
G1X85591Y57244D3*
G1X83621Y57244D3*
G1X81651Y57244D3*
G1X81651Y76734D3*
G1X83621Y76734D3*
G1X85591Y76734D3*
G54D35*
G1X17874Y55079D3*
G1X17874Y65906D3*
G1X17874Y76732D3*
G1X198976Y64921D3*
G1X198976Y75748D3*
G1X198976Y86575D3*
G1X198976Y130276D3*
G1X198976Y141102D3*
G1X198976Y151929D3*
G54D41*
G1X35591Y33622D3*
G1X35591Y40712D3*
G1X45041Y33622D3*
G1X45041Y40712D3*
G54D26*
G1X88000Y157600D3*
G1X88000Y166000D3*
G54D12*
G1X104646Y184252D3*
G1X104646Y194252D3*
G1X124646Y184252D3*
G1X114646Y184252D3*
G1X124646Y194252D3*
G1X114646Y194252D3*
G1X134646Y184252D3*
G1X134646Y194252D3*
G1X144646Y184252D3*
G1X154646Y194252D3*
G1X144646Y194252D3*
G1X164646Y184252D3*
G1X164646Y194252D3*
G1X184646Y184252D3*
G1X174646Y184252D3*
G1X184646Y194252D3*
G1X174646Y194252D3*
G1X194646Y184252D3*
G54D23*
G1X35896Y47008D3*
G1X41496Y47008D3*
G1X52913Y47008D3*
G1X58513Y47008D3*
G1X52913Y61968D3*
G1X58513Y61968D3*
G1X52913Y54488D3*
G1X58513Y54488D3*
G1X52913Y69449D3*
G1X58513Y69449D3*
G1X52913Y76929D3*
G1X58513Y76929D3*
G1X52913Y84409D3*
G1X58513Y84409D3*
G1X58000Y146000D3*
G1X63600Y146000D3*
G1X91014Y93465D3*
G1X94252Y117480D3*
G1X104094Y63543D3*
G1X98495Y63543D3*
G1X104094Y56063D3*
G1X98495Y56063D3*
G1X104094Y71024D3*
G1X98495Y71024D3*
G1X104094Y78504D3*
G1X98495Y78504D3*
G1X104488Y85984D3*
G1X110088Y85984D3*
G1X110000Y93465D3*
G1X104400Y93465D3*
G1X96614Y93465D3*
G1X106762Y117480D3*
G1X99852Y117480D3*
G1X122992Y93465D3*
G1X122992Y85984D3*
G1X122992Y100945D3*
G1X112362Y117480D3*
G1X128504Y75748D3*
G1X134104Y75748D3*
G1X128592Y93465D3*
G1X128592Y85984D3*
G1X140226Y93465D3*
G1X128592Y100945D3*
G1X140226Y100945D3*
G1X128504Y141102D3*
G1X134104Y141102D3*
G1X148189Y75748D3*
G1X153789Y75748D3*
G1X145826Y93465D3*
G1X145826Y100945D3*
G1X148189Y141102D3*
G1X153789Y141102D3*
G1X167874Y75748D3*
G1X167874Y141102D3*
G1X173474Y75748D3*
G1X173474Y141102D3*
G54D13*
G1X154646Y184252D3*
G1X194646Y194252D3*
G54D11*
G1X31602Y51602D3*
G1X47000Y65700D3*
G1X47000Y73200D3*
G1X47000Y80600D3*
G1X71300Y36000D3*
G1X78800Y36000D3*
G1X70400Y104700D3*
G1X70630Y156456D3*
G1X81653Y147795D3*
G1X81260Y156456D3*
G1X76142Y147795D3*
G1X76142Y156456D3*
G1X70630Y147795D3*
G1X87165Y147795D3*
G1X98495Y50000D3*
G1X110000Y59800D3*
G1X110000Y74800D3*
G1X134409Y99764D3*
G1X134409Y94252D3*
G1X104646Y189852D2*
G54D14*
G1X104646Y194252D1*
G1X104646Y198652D1*
G1X100246Y194252D2*
G1X104646Y194252D1*
G1X109046Y194252D1*
G1X114646Y189852D2*
G1X114646Y194252D1*
G1X114646Y198652D1*
G1X110246Y194252D2*
G1X114646Y194252D1*
G1X119046Y194252D1*
G1X124646Y189852D2*
G1X124646Y194252D1*
G1X124646Y198652D1*
G1X120246Y194252D2*
G1X124646Y194252D1*
G1X129046Y194252D1*
G1X134646Y189852D2*
G1X134646Y194252D1*
G1X134646Y198652D1*
G1X130246Y194252D2*
G1X134646Y194252D1*
G1X139046Y194252D1*
G1X144646Y189852D2*
G1X144646Y194252D1*
G1X144646Y198652D1*
G1X140245Y194252D2*
G1X144646Y194252D1*
G1X149046Y194252D1*
G54D39*
G1X37556Y146813D3*
G1X37556Y197792D3*
G1X64724Y61575D2*
G54D15*
G1X67184Y64034D1*
G1X68961Y64034D1*
G1X58513Y62268D2*
G1X64219Y67974D1*
G1X68961Y67974D1*
G1X68961Y66004D2*
G1X65986Y66004D1*
G1X61968Y61986D1*
G1X61968Y58243D1*
G1X58513Y54788D1*
G1X58513Y54488D1*
G1X68961Y73874D2*
G1X68961Y76862D1*
G1X61413Y84409D1*
G1X58513Y84409D1*
G1X58513Y69449D2*
G1X62362Y69449D1*
G1X62858Y69944D1*
G1X68961Y69944D1*
G1X58513Y76929D2*
G1X61575Y76929D1*
G1X66590Y71914D1*
G1X68961Y71914D1*
G1X66693Y94646D2*
G1X66393Y94646D1*
G1X62756Y91009D1*
G1X62756Y85789D1*
G1X66104Y82441D1*
G1X69079Y82441D1*
G1X71811Y79709D1*
G1X71811Y76734D1*
G1X72579Y52939D2*
G1X72646Y53006D1*
G1X72646Y54440D1*
G1X73362Y55156D1*
G1X73362Y55157D1*
G1X73781Y55576D1*
G1X73781Y57244D1*
G1X71811Y57244D2*
G1X71811Y56122D1*
G1X69917Y54228D1*
G1X69917Y52627D1*
G1X74661Y47884D1*
G1X82141Y47884D2*
G1X79721Y50304D1*
G1X79721Y54140D1*
G1X79681Y54180D1*
G1X79681Y57244D1*
G1X77721Y57244D2*
G1X77721Y53701D1*
G1X75751Y57244D2*
G1X75751Y54491D1*
G1X74961Y53701D1*
G1X66693Y89046D2*
G1X66993Y89046D1*
G1X73781Y82257D1*
G1X73781Y76734D1*
G1X74173Y89046D2*
G1X74173Y86146D1*
G1X75751Y84568D1*
G1X75751Y76734D1*
G1X81654Y89046D2*
G1X81354Y89046D1*
G1X77716Y85409D1*
G1X77716Y79713D1*
G1X77721Y79709D1*
G1X77721Y76734D1*
G1X89921Y47884D2*
G1X89621Y47884D1*
G1X86560Y50945D1*
G1X84409Y50945D1*
G1X81651Y53703D1*
G1X81651Y57244D1*
G1X88441Y64034D2*
G1X91792Y64034D1*
G1X86378Y53307D2*
G1X84585Y53307D1*
G1X83621Y54271D1*
G1X83621Y57244D1*
G1X85591Y57244D2*
G1X87442Y57244D1*
G1X88347Y56340D1*
G1X88441Y62064D2*
G1X91006Y62064D1*
G1X91890Y61181D1*
G1X90709Y58425D2*
G1X90709Y59094D1*
G1X89709Y60094D1*
G1X88441Y60094D1*
G1X88441Y66004D2*
G1X90933Y66004D1*
G1X90964Y66034D1*
G1X92621Y66034D1*
G1X92651Y66004D1*
G1X92972Y66004D1*
G1X95039Y63937D1*
G1X95039Y59818D1*
G1X98495Y56363D1*
G1X98495Y56063D1*
G1X98495Y63543D2*
G1X98495Y63843D1*
G1X94364Y67974D1*
G1X88441Y67974D1*
G1X98495Y71024D2*
G1X93465Y71024D1*
G1X92385Y69944D1*
G1X88441Y69944D1*
G1X98495Y78504D2*
G1X95031Y78504D1*
G1X93071Y76544D1*
G1X93071Y73569D1*
G1X91416Y71914D1*
G1X88441Y71914D1*
G1X83621Y76734D2*
G1X83621Y78828D1*
G1X85265Y80472D1*
G54D24*
G1X66693Y94646D3*
G1X66693Y89046D3*
G1X67480Y42284D3*
G1X67480Y47884D3*
G1X74961Y42284D3*
G1X74961Y47884D3*
G1X74173Y94646D3*
G1X74173Y89046D3*
G1X81654Y94646D3*
G1X81654Y89046D3*
G1X89921Y42284D3*
G1X89921Y47884D3*
G1X82441Y42284D3*
G1X82441Y47884D3*
G1X90315Y104488D3*
G1X90315Y110088D3*
G1X82835Y110000D3*
G1X82835Y104400D3*
G1X105276Y104488D3*
G1X105276Y110088D3*
G1X97795Y110000D3*
G1X97795Y104400D3*
G1X141102Y70236D3*
G1X141102Y75836D3*
G1X141102Y141014D3*
G1X141102Y146614D3*
G1X160787Y70236D3*
G1X160787Y75836D3*
G1X160787Y141014D3*
G1X160787Y146614D3*
G1X17874Y65906D2*
G54D42*
G1X28898Y65906D1*
G1X47795Y47008D1*
G1X52913Y47008D1*
G1X67480Y42284D2*
G1X64660Y42284D1*
G75*
G3X63670Y41873I1J-1400D1*
G74*
G1X63031Y41234D1*
G75*
G2X61771Y40712I-1260J1260D1*
G74*
G1X45041Y40712D1*
G1X58513Y47008D2*
G1X62362Y47008D1*
G1X63238Y47884D1*
G1X67480Y47884D1*
G1X67480Y54508D1*
G1X68961Y55988D1*
G1X68961Y60094D1*
G1X79681Y76734D2*
G1X79685Y76738D1*
G1X79685Y82834D1*
G1X82279Y85428D1*
G1X88971Y85428D1*
G1X91014Y87471D1*
G1X91014Y93465D1*
G1X96614Y93465D2*
G1X96614Y89921D1*
G1X89921Y83228D1*
G1X84803Y83228D1*
G1X81651Y80076D1*
G1X81651Y76734D1*
G1X104488Y85984D2*
G1X98976Y85984D1*
G1X89726Y76734D1*
G1X85591Y76734D1*
G1X91014Y93465D2*
G1X91014Y98671D1*
G1X90315Y99370D1*
G1X90315Y104488D1*
G1X82835Y104400D2*
G1X86235Y104400D1*
G1X86323Y104488D1*
G1X90315Y104488D1*
G1X97795Y110000D2*
G1X97795Y110181D1*
G1X94252Y113724D1*
G1X90315Y110088D2*
G1X90615Y110088D1*
G1X94252Y113724D1*
G1X94252Y117480D2*
G1X94252Y113724D1*
G1X96614Y93465D2*
G1X96614Y98583D1*
G1X97795Y99764D1*
G1X97795Y104400D1*
G1X110088Y85984D2*
G1X122992Y85984D1*
G1X97795Y104400D2*
G1X101787Y104400D1*
G1X101876Y104488D1*
G1X105276Y104488D1*
G1X99852Y117480D2*
G1X106762Y117480D1*
G1X128504Y141102D2*
G1X128504Y140802D1*
G1X115035Y127334D1*
G75*
G3X112362Y120880I6454J-6454D1*
G74*
G1X112362Y117480D1*
G1X128592Y85984D2*
G1X128592Y80954D1*
G1X128504Y80866D1*
G1X128504Y75748D1*
G1X134104Y75748D2*
G1X137614Y75748D1*
G1X137702Y75836D1*
G1X141102Y75836D1*
G1X141102Y141014D2*
G1X137702Y141014D1*
G1X137615Y141102D1*
G1X134104Y141102D1*
G1X141102Y75836D2*
G1X145000Y75836D1*
G1X145089Y75748D1*
G1X148189Y75748D1*
G1X153789Y75748D2*
G1X157299Y75748D1*
G1X157387Y75836D1*
G1X160787Y75836D1*
G1X148189Y141102D2*
G1X145089Y141102D1*
G1X145001Y141014D1*
G1X141102Y141014D1*
G1X160787Y141014D2*
G1X157387Y141014D1*
G1X157300Y141102D1*
G1X153789Y141102D1*
G1X160787Y75836D2*
G1X164685Y75836D1*
G1X164774Y75748D1*
G1X167874Y75748D1*
G1X167874Y141102D2*
G1X164774Y141102D1*
G1X164686Y141014D1*
G1X160787Y141014D1*
G1X173474Y75748D2*
G1X198976Y75748D1*
G1X198976Y141102D2*
G1X189802Y141102D1*
G1X189801Y141102D1*
G1X173474Y141102D1*
G54D40*
G1X70236Y169842D3*
G54D38*
G1X68961Y60094D3*
G1X68961Y62064D3*
G1X68961Y64034D3*
G1X68961Y66004D3*
G1X68961Y67974D3*
G1X68961Y69944D3*
G1X68961Y71914D3*
G1X68961Y73874D3*
G1X88441Y67974D3*
G1X88441Y66004D3*
G1X88441Y64034D3*
G1X88441Y62064D3*
G1X88441Y60094D3*
G1X88441Y73874D3*
G1X88441Y71914D3*
G1X88441Y69944D3*
G54D36*
G1X78701Y66984D3*
G54D10*
G36*
G1X220053Y10047D2*
G1X416898Y10047D1*
G1X416898Y110655D1*
G1X401441Y110655D1*
G75*
G2X400441Y111655I-1J999D1*
G1X400441Y111917D1*
G1X383817Y111917D1*
G1X383769Y111783D1*
G2X382827Y111118I-942J333D1*
G1X377728Y111118D1*
G1X377728Y109747D1*
G1X377528Y109547D1*
G1X377528Y109009D1*
G1X377769Y109009D1*
G1X377805Y109023D1*
G2X378184Y109098I384J-947D1*
G1X380153Y109098D1*
G2X381052Y108536I-1J-1002D1*
G1X381107Y108423D1*
G1X382240Y108423D1*
G1X392500Y98163D1*
G1X392500Y95456D1*
G3X393101Y95107I401J-1D1*
G2X395579Y95107I1239J-2176D1*
G3X396180Y95456I199J348D1*
G1X396180Y95844D1*
G1X396135Y95899D1*
G2X399980Y95845I1944J1570D1*
G1X399980Y89984D1*
G1X399994Y89948D1*
G2X400065Y89580I-932J-371D1*
G1X400065Y86430D1*
G2X400005Y86090I-993J-1D1*
G1X399993Y86057D1*
G1X399993Y79717D1*
G1X400005Y79684D1*
G2X400065Y79344I-941J-342D1*
G1X400065Y76194D1*
G2X399064Y75194I-1000J-1D1*
G1X397095Y75194D1*
G2X396095Y76194I-1J999D1*
G1X396095Y79344D1*
G1X396096Y79394D1*
G1X396097Y79399D1*
G1X396097Y79605D1*
G1X393438Y79605D1*
G1X393430Y79613D1*
G1X392583Y79613D1*
G1X392583Y79401D1*
G1X392585Y79344D1*
G1X392585Y76194D1*
G2X392514Y75826I-996J1D1*
G1X392500Y75790D1*
G1X392500Y74426D1*
G2X388700Y74426I-1900J-1626D1*
G1X388700Y75790D1*
G1X388686Y75826D1*
G2X388615Y76194I930J370D1*
G1X388615Y79344D1*
G2X388656Y79626I1016J-4D1*
G1X388664Y79654D1*
G1X388664Y86120D1*
G1X388656Y86148D1*
G2X388615Y86430I965J284D1*
G1X388615Y89580D1*
G2X388686Y89948I1009J-4D1*
G1X388700Y89984D1*
G1X388700Y96589D1*
G1X387486Y97802D1*
G3X386800Y97518I-284J-285D1*
G2X381814Y97206I-2500J-49D1*
G1X381807Y97277D1*
G1X381496Y97587D1*
G3X381153Y97445I-142J-143D1*
G1X381153Y96975D1*
G1X381163Y96944D1*
G2X381268Y96288I-1995J-656D1*
G1X381268Y94079D1*
G1X381356Y93991D1*
G1X381356Y86445D1*
G2X381857Y85578I-501J-868D1*
G1X381857Y81779D1*
G2X380856Y80779I-1000J-1D1*
G1X372057Y80779D1*
G2X371249Y81190I-1J998D1*
G3X370640Y81237I-325J-239D1*
G1X365962Y76558D1*
G1X366023Y76430D1*
G2X365827Y75293I-903J-430D1*
G1X363563Y73029D1*
G2X362619Y72765I-707J705D1*
G3X362133Y72279I-95J-392D1*
G2X361868Y71335I-971J-237D1*
G1X360997Y70463D1*
G1X360997Y67408D1*
G1X360786Y67197D1*
G1X360786Y56408D1*
G1X360920Y56360D1*
G2X361586Y55418I-335J-943D1*
G1X361586Y52217D1*
G2X361377Y51605I-997J-2D1*
G3X361695Y50957I317J-247D1*
G1X361948Y50957D1*
G1X361948Y45592D1*
G1X337415Y45592D1*
G2X336728Y45319I-685J722D1*
G1X327929Y45319D1*
G2X327268Y45569I-2J996D1*
G1X321295Y45569D1*
G1X321295Y42133D1*
G1X323816Y42133D1*
G2X324005Y42115I-9J-1088D1*
G1X324024Y42111D1*
G1X324700Y42111D1*
G1X324700Y41597D1*
G1X324719Y41557D1*
G2X324813Y41133I-909J-424D1*
G1X324813Y37983D1*
G2X324719Y37560I-996J-1D1*
G1X324700Y37519D1*
G1X324700Y15578D1*
G1X312170Y15578D1*
G1X312170Y31292D1*
G1X303216Y31292D1*
G1X303216Y31221D1*
G1X297534Y31221D1*
G1X297534Y31080D1*
G1X297114Y31080D1*
G1X297114Y28022D1*
G2X297364Y27361I-752J-663D1*
G1X297364Y24160D1*
G2X296364Y23160I-1000J-1D1*
G1X294974Y23160D1*
G1X294955Y23157D1*
G2X293973Y23157I-491J2582D1*
G1X293954Y23160D1*
G1X292564Y23160D1*
G2X291564Y24160I-1J999D1*
G1X291564Y27361D1*
G2X291814Y28022I1003J-2D1*
G1X291814Y31080D1*
G1X288698Y31080D1*
G1X288698Y15938D1*
G1X256191Y15938D1*
G1X256191Y31132D1*
G1X282480Y31132D1*
G1X282480Y44182D1*
G1X271950Y44182D1*
G1X271950Y45413D1*
G1X265078Y45413D1*
G1X264997Y45331D1*
G1X259710Y45331D1*
G1X249225Y55816D1*
G1X249225Y64535D1*
G1X248354Y65406D1*
G2X248090Y66351I708J707D1*
G3X247604Y66836I-392J93D1*
G2X246659Y67101I-238J969D1*
G1X244396Y69364D1*
G2X244200Y70502I707J707D1*
G1X244261Y70630D1*
G1X241242Y73649D1*
G1X236549Y73649D1*
G1X236549Y73387D1*
G2X235549Y72387I-1000J-1D1*
G1X220053Y72387D1*
G1X220053Y10047D1*
G37*
G36*
G1X259217Y98111D2*
G1X259217Y120646D1*
G1X265335Y120646D1*
G1X265335Y131326D1*
G1X287562Y131326D1*
G1X287562Y136787D1*
G2X292862Y136787I2650J-1D1*
G1X292862Y131326D1*
G1X301314Y131326D1*
G1X301314Y132880D1*
G2X305114Y132880I1900J1624D1*
G1X305114Y131326D1*
G1X321507Y131326D1*
G1X321507Y98148D1*
G1X355456Y98148D1*
G1X355456Y96725D1*
G1X355581Y96600D1*
G1X356897Y96600D1*
G1X358190Y97893D1*
G2X359605Y97893I707J-709D1*
G1X361868Y95629D1*
G2X362133Y94685I-708J-708D1*
G3X362619Y94199I390J-96D1*
G2X363563Y93935I236J-974D1*
G1X365827Y91671D1*
G2X366103Y90782I-709J-708D1*
G1X366084Y90678D1*
G1X370640Y86121D1*
G3X371249Y86168I284J283D1*
G2X372057Y86579I809J-593D1*
G1X377156Y86579D1*
G1X377156Y92257D1*
G1X377068Y92345D1*
G1X377068Y96288D1*
G2X377173Y96944I2114J-3D1*
G1X377183Y96975D1*
G1X377183Y97862D1*
G2X377196Y98017I1047J-10D1*
G1X377198Y98032D1*
G1X377198Y98249D1*
G1X373658Y98249D1*
G1X373658Y98032D1*
G1X373661Y98017D1*
G2X373673Y97862I-985J-155D1*
G1X373673Y96975D1*
G1X373683Y96944D1*
G2X373683Y95630I-1994J-657D1*
G1X373673Y95599D1*
G1X373673Y94712D1*
G2X372673Y93712I-1000J-1D1*
G1X370703Y93712D1*
G2X369852Y94187I-1J998D1*
G1X367272Y94187D1*
G1X357768Y103691D1*
G1X357768Y105601D1*
G1X352751Y105601D1*
G2X351809Y106267I0J999D1*
G1X351761Y106401D1*
G1X349243Y106401D1*
G1X296064Y159579D1*
G1X289235Y159579D1*
G2X288293Y160245I0J999D1*
G1X288245Y160379D1*
G1X287202Y160379D1*
G1X287134Y160311D1*
G1X283946Y160311D1*
G1X283946Y158214D1*
G1X281784Y158214D1*
G1X281784Y139157D1*
G1X270417Y139157D1*
G1X270385Y139146D1*
G2X270060Y139092I-320J920D1*
G1X266859Y139092D1*
G2X266503Y139157I-5J985D1*
G1X265555Y139157D1*
G1X265555Y159510D1*
G3X265836Y160189I-10J401D1*
G2X265694Y160379I704J674D1*
G1X262777Y160379D1*
G1X262729Y160245D1*
G2X261787Y159579I-942J332D1*
G1X256688Y159579D1*
G1X256688Y157587D1*
G1X238104Y139003D1*
G1X236549Y139003D1*
G1X236549Y138741D1*
G2X235549Y137741I-1000J-1D1*
G1X220053Y137741D1*
G1X220053Y79111D1*
G1X235549Y79111D1*
G2X236549Y78111I-1J-1001D1*
G1X236549Y77849D1*
G1X241142Y77849D1*
G1X243867Y80574D1*
G1X243806Y80702D1*
G2X244002Y81840I903J430D1*
G1X246265Y84103D1*
G2X247210Y84368I708J-711D1*
G3X247696Y84853I95J389D1*
G2X247960Y85798I972J237D1*
G1X250224Y88062D1*
G2X251638Y88062I707J-709D1*
G1X252932Y86768D1*
G1X254248Y86768D1*
G1X254441Y86961D1*
G1X258277Y86961D1*
G3X258626Y87562I0J401D1*
G2X261499Y91201I2172J1238D1*
G1X265335Y91201D1*
G1X265335Y98111D1*
G1X259217Y98111D1*
G37*
G36*
G1X237046Y143885D2*
G1X252488Y159327D1*
G1X252488Y159713D1*
G2X251987Y160580I498J866D1*
G1X251987Y164378D1*
G2X252988Y165379I1001J-1D1*
G1X261787Y165379D1*
G2X262729Y164713I-3J-1003D1*
G1X262777Y164579D1*
G1X265694Y164579D1*
G2X266560Y165080I867J-502D1*
G1X269262Y165080D1*
G3X269546Y165766I0J401D1*
G1X267348Y167964D1*
G1X267348Y171005D1*
G1X262049Y171005D1*
G2X261063Y171837I-1J999D1*
G1X261035Y172005D1*
G1X253095Y172005D1*
G1X231262Y193838D1*
G1X226747Y193838D1*
G2X225747Y194838I0J1000D1*
G1X225747Y201040D1*
G2X226747Y202040I1000J-1D1*
G1X232949Y202040D1*
G2X233949Y201040I-1J-1001D1*
G1X233949Y196526D1*
G1X254669Y175805D1*
G1X261035Y175805D1*
G1X261063Y175972D1*
G2X262049Y176805I986J-169D1*
G1X270849Y176805D1*
G2X271835Y175972I-2J-1002D1*
G1X271863Y175805D1*
G1X275872Y175805D1*
G1X275930Y175909D1*
G2X276805Y176424I876J-488D1*
G1X280603Y176424D1*
G2X281603Y175424I-1J-1001D1*
G1X281603Y172222D1*
G2X280603Y171222I-1000J-1D1*
G1X276805Y171222D1*
G2X275895Y171806I-2J999D1*
G1X275842Y171923D1*
G1X274717Y171923D1*
G1X274635Y172005D1*
G1X271863Y172005D1*
G1X271835Y171837D1*
G2X271265Y171096I-985J167D1*
G1X271148Y171043D1*
G1X271148Y169538D1*
G1X274407Y166279D1*
G1X275758Y166279D1*
G1X275758Y168519D1*
G1X283946Y168519D1*
G1X283946Y164511D1*
G1X285392Y164511D1*
G1X285460Y164579D1*
G1X288245Y164579D1*
G1X288293Y164713D1*
G2X289235Y165379I943J-336D1*
G1X298034Y165379D1*
G2X299035Y164378I-1J-1002D1*
G1X299035Y162549D1*
G1X350983Y110601D1*
G1X351761Y110601D1*
G1X351809Y110735D1*
G2X352751Y111401I943J-336D1*
G1X361550Y111401D1*
G2X362551Y110400I-1J-1002D1*
G1X362551Y106601D1*
G2X362066Y105744I-999J-1D1*
G1X361968Y105686D1*
G1X361968Y105431D1*
G1X369012Y98387D1*
G1X369640Y98387D1*
G1X369640Y104532D1*
G1X369723Y104532D1*
G1X369723Y104751D1*
G1X369720Y104769D1*
G2X369704Y104947I994J179D1*
G1X369704Y108098D1*
G2X370704Y109098I1000J-1D1*
G1X373328Y109098D1*
G1X373328Y111403D1*
G2X373027Y112118I698J714D1*
G1X373027Y115917D1*
G2X374027Y116917I1000J-1D1*
G1X382827Y116917D1*
G2X383769Y116251I-3J-1003D1*
G1X383817Y116117D1*
G1X400441Y116117D1*
G1X400441Y116379D1*
G2X401441Y117379I1000J-1D1*
G1X416898Y117379D1*
G1X416898Y206829D1*
G1X220053Y206829D1*
G1X220053Y144465D1*
G1X235549Y144465D1*
G2X236414Y143967I-2J-1003D1*
G3X237046Y143885I347J201D1*
G37*
G36*
G1X257191Y16938D2*
G1X287698Y16938D1*
G1X287698Y30132D1*
G1X257191Y30132D1*
G1X257191Y16938D1*
G37*
G36*
G1X248496Y73465D2*
G1X250760Y71201D1*
G2X251024Y70257I-709J-708D1*
G3X251510Y69771I390J-96D1*
G2X252455Y69507I237J-974D1*
G1X254718Y67243D1*
G2X254718Y65829I-707J-707D1*
G1X253425Y64536D1*
G1X253425Y57556D1*
G1X261450Y49531D1*
G1X263255Y49531D1*
G1X263337Y49613D1*
G1X271950Y49613D1*
G1X271950Y50182D1*
G1X281305Y50182D1*
G1X281348Y50204D1*
G2X281799Y50312I455J-908D1*
G1X282480Y50312D1*
G1X282480Y52805D1*
G1X282144Y52805D1*
G2X282056Y52809I-11J727D1*
G1X282047Y52810D1*
G1X276855Y52810D1*
G1X276846Y52809D1*
G2X276758Y52805I-77J719D1*
G1X273557Y52805D1*
G1X273470Y52809D1*
G1X273461Y52810D1*
G1X272455Y52810D1*
G1X272455Y74939D1*
G1X286346Y74939D1*
G1X286346Y65878D1*
G1X286355Y65856D1*
G1X297893Y65856D1*
G1X298536Y66499D1*
G1X298536Y67481D1*
G1X298616Y67561D1*
G1X298616Y75774D1*
G1X300804Y77963D1*
G1X300812Y78033D1*
G2X303562Y75283I2485J-265D1*
G1X303492Y75275D1*
G1X302416Y74200D1*
G1X302416Y65856D1*
G1X310250Y65856D1*
G1X310294Y65900D1*
G1X310294Y72992D1*
G2X314094Y72992I1900J1624D1*
G1X314094Y65856D1*
G1X321295Y65856D1*
G1X321295Y65841D1*
G1X323998Y65841D1*
G2X323998Y60541I0J-2651D1*
G1X321295Y60541D1*
G1X321295Y50869D1*
G1X327268Y50869D1*
G2X327929Y51119I663J-757D1*
G1X336728Y51119D1*
G2X337230Y50984I-3J-1012D1*
G1X337277Y50957D1*
G1X355678Y50957D1*
G3X355996Y51605I0J401D1*
G2X355787Y52217I790J611D1*
G1X355787Y55418D1*
G2X356452Y56360I1001J-2D1*
G1X356586Y56408D1*
G1X356586Y68935D1*
G1X356797Y69146D1*
G1X356797Y70465D1*
G1X355504Y71757D1*
G2X355504Y73172I707J707D1*
G1X357768Y75435D1*
G2X358712Y75699I707J-711D1*
G3X359198Y76185I95J390D1*
G2X359462Y77130I972J237D1*
G1X361726Y79393D1*
G2X362863Y79589I707J-710D1*
G1X362992Y79528D1*
G1X367142Y83679D1*
G1X364361Y86460D1*
G1X363967Y86460D1*
G1X362992Y87435D1*
G1X362863Y87375D1*
G2X361726Y87570I-431J900D1*
G1X359462Y89834D1*
G2X359198Y90778I707J706D1*
G3X358712Y91264I-392J94D1*
G2X357768Y91529I-238J969D1*
G1X356897Y92400D1*
G1X355456Y92400D1*
G1X355456Y91724D1*
G1X321507Y91724D1*
G1X321507Y81646D1*
G1X308566Y81646D1*
G2X305053Y81385I-1888J1637D1*
G1X295191Y81385D1*
G1X295162Y81217D1*
G2X294176Y80385I-986J167D1*
G1X290975Y80385D1*
G2X289975Y81385I-1J999D1*
G1X289975Y81646D1*
G1X265335Y81646D1*
G1X265335Y82761D1*
G1X256181Y82761D1*
G1X255988Y82568D1*
G1X252931Y82568D1*
G1X252061Y81697D1*
G2X251116Y81433I-707J705D1*
G3X250630Y80947I-95J-392D1*
G2X250366Y80003I-970J-238D1*
G1X248102Y77739D1*
G2X246965Y77543I-707J704D1*
G1X246837Y77604D1*
G1X245032Y75799D1*
G1X247231Y73600D1*
G1X247359Y73661D1*
G2X248496Y73465I429J-905D1*
G37*
G36*
G1X273455Y73939D2*
G1X273455Y53810D1*
G1X285346Y53810D1*
G1X285346Y73939D1*
G1X273455Y73939D1*
G37*
G36*
G1X260217Y119646D2*
G1X260217Y99111D1*
G1X270456Y99111D1*
G1X270456Y119646D1*
G1X260217Y119646D1*
G37*
G36*
G1X266555Y158510D2*
G1X266555Y140157D1*
G1X280784Y140157D1*
G1X280784Y158510D1*
G1X274935Y158510D1*
G1X274933Y158508D1*
G2X271361Y158510I-1786J901D1*
G1X266555Y158510D1*
G37*
G36*
G1X294866Y92782D2*
G1X307068Y92782D1*
G1X307068Y96658D1*
G1X294866Y96658D1*
G1X294866Y92782D1*
G37*
G36*
G1X313170Y41111D2*
G1X313170Y16578D1*
G1X323700Y16578D1*
G1X323700Y41111D1*
G1X313170Y41111D1*
G37*
G36*
G1X306346Y45380D2*
G2X306686Y45012I-548J-847D1*
G1X306743Y44906D1*
G1X308666Y44906D1*
G1X308666Y51889D1*
G1X306744Y51889D1*
G1X306687Y51783D1*
G2X306346Y51414I-875J466D1*
G1X306254Y51355D1*
G1X306254Y45439D1*
G1X306346Y45380D1*
G37*
G36*
G1X308691Y126144D2*
G1X308691Y107377D1*
G1X320423Y107377D1*
G1X320423Y126144D1*
G1X308691Y126144D1*
G37*
%LPC*%
G36*
G1X348631Y168598D2*
G1X365167Y168598D1*
G3X365315Y168609I8J882D1*
G1X365330Y168612D1*
G1X366373Y168612D1*
G1X366373Y183073D1*
G1X366407Y183073D1*
G1X366407Y184325D1*
G1X365961Y184325D1*
G1X365961Y202099D1*
G1X333497Y202099D1*
G1X333497Y184325D1*
G1X333378Y184325D1*
G1X333378Y183064D1*
G1X333365Y183064D1*
G1X333365Y168612D1*
G1X348466Y168612D1*
G1X348481Y168609D1*
G3X348631Y168598I139J877D1*
G37*
G74*
G54D46*
G1X239848Y197939D3*
G1X249848Y197939D3*
G1X259848Y197939D3*
G1X269848Y197939D3*
G1X279848Y197939D3*
G54D45*
G1X289848Y197939D3*
G1X299848Y197939D3*
G1X309848Y197939D3*
G1X319848Y197939D3*
%LPD*%
G36*
G1X334365Y169612D2*
G1X365373Y169612D1*
G1X365373Y182064D1*
G1X334365Y182064D1*
G1X334365Y169612D1*
G37*
G36*
G1X334497Y185329D2*
G1X364961Y185329D1*
G1X364961Y201099D1*
G1X334497Y201099D1*
G1X334497Y185329D1*
G37*
G1X260798Y88801D2*
G54D10*
G1X270811Y88801D1*
G1X274452Y92442D1*
G1X274452Y92741D1*
G1X239683Y19843D3*
G1X229840Y19843D3*
G1X229840Y29686D3*
G1X239683Y29686D3*
G1X239683Y39529D3*
G1X229840Y39529D3*
G1X239683Y59214D3*
G1X229840Y59214D3*
G1X229840Y49371D3*
G1X239683Y49371D3*
G1X239683Y69056D3*
G1X229840Y98584D3*
G1X239683Y98584D3*
G1X229840Y108426D3*
G1X229840Y118269D3*
G1X239683Y118269D3*
G1X239683Y108426D3*
G1X239683Y128111D3*
G1X229840Y177324D3*
G1X239683Y177324D3*
G1X239683Y167481D3*
G1X229840Y167481D3*
G1X229840Y187166D3*
G1X249526Y19843D3*
G1X249526Y29686D3*
G1X249526Y39529D3*
G1X254841Y34410D3*
G1X249526Y49371D3*
G1X255798Y77901D3*
G1X249526Y98584D3*
G1X256218Y106261D3*
G1X249526Y108426D3*
G1X249526Y118269D3*
G1X249526Y128111D3*
G1X259368Y128111D3*
G1X249526Y137954D3*
G1X257793Y142285D3*
G1X258187Y149371D3*
G1X249526Y147796D3*
G1X262911Y38347D3*
G1X264683Y59410D3*
G1X276498Y77901D3*
G1X269398Y77901D3*
G1X262698Y77901D3*
G1X262698Y71201D3*
G1X269698Y71201D3*
G1X273148Y159410D3*
G1X278659Y184017D3*
G1X280628Y38151D3*
G1X294124Y49962D3*
G1X293423Y44243D3*
G1X282398Y78101D3*
G1X289398Y71401D3*
G1X289298Y75101D3*
G1X293898Y75201D3*
G1X288798Y97901D3*
G1X290717Y95894D3*
G1X288798Y93901D3*
G1X292598Y94001D3*
G1X292698Y98001D3*
G1X279856Y161811D3*
G1X279856Y164371D3*
G1X300510Y46615D3*
G1X300498Y50201D3*
G1X304098Y46601D3*
G1X302301Y48397D3*
G1X303998Y50301D3*
G1X303659Y74174D3*
G1X318423Y167481D3*
G1X331809Y15907D3*
G1X332400Y29686D3*
G1X332400Y23190D3*
G1X328266Y59214D3*
G1X338108Y59214D3*
G1X338108Y69056D3*
G1X338108Y78899D3*
G1X328266Y78899D3*
G1X328266Y69056D3*
G1X321966Y68859D3*
G1X327872Y111379D3*
G1X329250Y120434D3*
G1X338108Y128111D3*
G1X328266Y137954D3*
G1X338108Y147796D3*
G1X338108Y157639D3*
G1X328266Y157639D3*
G1X328266Y167481D3*
G1X347951Y19843D3*
G1X357793Y19843D3*
G1X357793Y29686D3*
G1X347951Y29686D3*
G1X347951Y59214D3*
G1X347951Y69056D3*
G1X347951Y78899D3*
G1X347951Y88741D3*
G1X338896Y84804D3*
G1X357793Y128111D3*
G1X357793Y137954D3*
G1X347951Y137954D3*
G1X357793Y147796D3*
G1X347951Y147796D3*
G1X347951Y157639D3*
G1X367636Y19843D3*
G1X377478Y19843D3*
G1X367636Y29686D3*
G1X377478Y29686D3*
G1X377478Y39529D3*
G1X367636Y39529D3*
G1X377478Y49371D3*
G1X377478Y59214D3*
G1X367636Y59214D3*
G1X367636Y49371D3*
G1X377478Y69056D3*
G1X367636Y137954D3*
G1X367636Y128111D3*
G1X377478Y128111D3*
G1X377478Y137954D3*
G1X367636Y147796D3*
G1X377478Y157639D3*
G1X367636Y157639D3*
G1X377478Y167481D3*
G1X377478Y177324D3*
G1X369407Y193859D3*
G1X377478Y187166D3*
G1X387321Y19843D3*
G1X397163Y19843D3*
G1X387321Y29686D3*
G1X397163Y29686D3*
G1X397163Y39529D3*
G1X387321Y39529D3*
G1X397163Y49371D3*
G1X397163Y59214D3*
G1X387321Y59214D3*
G1X387321Y49371D3*
G1X397163Y69056D3*
G1X387321Y69056D3*
G1X397163Y108426D3*
G1X397163Y118269D3*
G1X387321Y128111D3*
G1X397163Y128111D3*
G1X387321Y137954D3*
G1X397163Y137954D3*
G1X387321Y157639D3*
G1X397163Y157639D3*
G1X387321Y177324D3*
G1X387321Y167481D3*
G1X397163Y167481D3*
G1X397163Y177324D3*
G1X397163Y187166D3*
G1X387321Y187166D3*
G1X407006Y19843D3*
G1X407006Y29686D3*
G1X407006Y39529D3*
G1X407006Y49371D3*
G1X407006Y59214D3*
G1X407006Y69056D3*
G1X407006Y78899D3*
G1X407006Y88741D3*
G1X407006Y137954D3*
G1X407006Y157639D3*
G1X407006Y147796D3*
G1X407006Y177324D3*
G1X407006Y167481D3*
G1X407006Y187166D3*
G1X407006Y197009D3*
G54D72*
G1X227872Y64922D3*
G1X227872Y75749D3*
G1X227872Y86576D3*
G1X227872Y130276D3*
G1X227872Y151930D3*
G1X227872Y141103D3*
G1X409118Y103190D3*
G1X409118Y114017D3*
G1X409118Y124844D3*
G54D70*
G1X279842Y163395D3*
G54D78*
G1X276298Y160442D3*
G1X276298Y162411D3*
G1X276298Y164379D3*
G1X276298Y166348D3*
G1X296032Y97863D3*
G1X296032Y95894D3*
G1X296032Y93926D3*
G1X285402Y93926D3*
G1X285402Y95894D3*
G1X285402Y97863D3*
G1X283385Y166348D3*
G1X283385Y164379D3*
G1X283385Y162411D3*
G1X283385Y160442D3*
G54D43*
G1X229848Y197939D3*
G54D75*
G1X356898Y175701D3*
G54D79*
G1X375428Y96287D3*
G1X371688Y96287D3*
G1X371688Y106523D3*
G1X375428Y106523D3*
G1X398080Y77769D3*
G1X394340Y77769D3*
G1X390600Y77769D3*
G1X379168Y96287D3*
G1X390600Y88005D3*
G1X394340Y88005D3*
G1X398080Y88005D3*
G1X379168Y106523D3*
G54D44*
G1X239848Y197939D3*
G1X249848Y197939D3*
G1X259848Y197939D3*
G1X269848Y197939D3*
G1X279848Y197939D3*
G1X289848Y197939D3*
G1X299848Y197939D3*
G1X309848Y197939D3*
G1X319848Y197939D3*
G54D74*
G1X297183Y45444D3*
G1X297183Y47413D3*
G1X297183Y49381D3*
G1X297183Y51350D3*
G1X307419Y51350D3*
G1X307419Y49381D3*
G1X307419Y47413D3*
G1X307419Y45444D3*
G54D76*
G1X389575Y147748D3*
G1X389575Y198732D3*
G54D11*
G1X260186Y21427D3*
G1X260798Y88801D3*
G1X266490Y21427D3*
G1X272794Y21427D3*
G1X279098Y21427D3*
G1X276340Y70283D3*
G1X265308Y115987D3*
G1X262944Y109289D3*
G1X275946Y155387D3*
G1X275946Y143173D3*
G1X275946Y149083D3*
G1X284614Y21427D3*
G1X281856Y70283D3*
G1X284975Y114118D3*
G1X290212Y136787D3*
G1X315740Y20245D3*
G1X315740Y26943D3*
G1X315740Y34035D3*
G1X303298Y77769D3*
G1X312194Y74617D3*
G1X306678Y83285D3*
G1X303132Y113214D3*
G1X311800Y110471D3*
G1X311800Y116775D3*
G1X311800Y123473D3*
G1X303214Y134505D3*
G1X323998Y63191D3*
G1X337804Y198333D3*
G1X344108Y188483D3*
G1X352382Y193211D3*
G1X346472Y193211D3*
G1X349624Y198333D3*
G1X355534Y198333D3*
G1X350018Y188483D3*
G1X355534Y188483D3*
G1X343714Y198333D3*
G1X390600Y72801D3*
G1X384300Y97470D3*
G1X398080Y97470D3*
G1X394340Y92935D3*
G54D52*
G1X290717Y95894D3*
G1X295247Y197939D2*
G54D14*
G1X299848Y197939D1*
G1X289848Y193339D2*
G1X289848Y197939D1*
G1X289848Y202540D1*
G1X285247Y197939D2*
G1X289848Y197939D1*
G1X294449Y197939D1*
G1X315247Y197939D2*
G1X319848Y197939D1*
G1X309848Y193339D2*
G1X309848Y197939D1*
G1X309848Y202540D1*
G1X305247Y197939D2*
G1X309848Y197939D1*
G1X314449Y197939D1*
G1X299848Y193339D2*
G1X299848Y197939D1*
G1X299848Y202540D1*
G1X299848Y197939D2*
G1X304449Y197939D1*
G1X319848Y193339D2*
G1X319848Y197939D1*
G1X319848Y202540D1*
G1X319848Y197939D2*
G1X324449Y197939D1*
G54D80*
G1X259398Y34031D3*
G1X259398Y28519D3*
G54D77*
G1X292685Y90580D3*
G1X290717Y90580D3*
G1X288748Y90580D3*
G1X288748Y101209D3*
G1X290717Y101209D3*
G1X292685Y101209D3*
G1X263650Y173905D2*
G54D15*
G1X253882Y173905D1*
G1X229848Y197939D1*
G1X268854Y92741D2*
G1X263833Y92741D1*
G1X281856Y95894D2*
G1X285402Y95894D1*
G1X285402Y97863D2*
G1X282250Y101015D1*
G1X274452Y101015D1*
G1X274452Y108895D2*
G1X279111Y108895D1*
G1X286797Y101209D1*
G1X288748Y101209D1*
G1X274722Y167875D2*
G1X276250Y166348D1*
G1X276298Y166348D1*
G1X276298Y160442D2*
G1X274179Y160442D1*
G1X273148Y159410D1*
G1X269248Y173905D2*
G1X269248Y168751D1*
G1X273620Y164379D1*
G1X276298Y164379D1*
G1X269248Y173905D2*
G1X275422Y173905D1*
G1X275504Y173823D1*
G1X278704Y173823D1*
G1X297183Y45444D2*
G1X294624Y45444D1*
G1X293423Y44243D1*
G1X297183Y49381D2*
G1X294988Y49381D1*
G1X294407Y49962D1*
G1X294124Y49962D1*
G1X299348Y53515D2*
G1X299348Y58558D1*
G1X297616Y60290D1*
G1X297616Y63191D1*
G1X297183Y51350D2*
G1X297125Y51350D1*
G1X296344Y52131D1*
G1X292617Y52131D1*
G1X289342Y55406D1*
G1X289342Y55705D1*
G1X289398Y68801D2*
G1X289424Y68775D1*
G1X289424Y63585D1*
G1X303298Y77769D2*
G1X300516Y74987D1*
G1X300516Y66774D1*
G1X300436Y66694D1*
G1X300436Y65712D1*
G1X297915Y63191D1*
G1X297616Y63191D1*
G1X286978Y83285D2*
G1X286978Y80619D1*
G1X292685Y90580D2*
G1X292685Y86594D1*
G1X292576Y86485D1*
G1X292576Y83285D1*
G1X306678Y83285D2*
G1X292576Y83285D1*
G1X296032Y97863D2*
G1X296032Y99754D1*
G1X296032Y95894D2*
G1X296032Y97863D1*
G1X290573Y106043D2*
G1X290717Y105899D1*
G1X290717Y101209D1*
G1X284975Y109243D2*
G1X284975Y114118D1*
G1X292685Y101209D2*
G1X292685Y104141D1*
G1X297534Y108990D1*
G1X297534Y109289D1*
G1X297534Y113887D1*
G1X297616Y113969D1*
G1X297616Y117169D1*
G1X297616Y125049D1*
G1X284614Y129777D2*
G1X284614Y132983D1*
G1X286062Y165907D2*
G1X286062Y165219D1*
G1X285156Y159410D2*
G1X284124Y160442D1*
G1X283385Y160442D1*
G1X285400Y166348D2*
G1X283385Y166348D1*
G1X286062Y165219D2*
G1X285222Y164379D1*
G1X283385Y164379D1*
G1X301317Y43279D2*
G1X301317Y40719D1*
G1X300067Y39469D1*
G1X300062Y39469D1*
G1X299348Y40183D1*
G1X299348Y43279D1*
G1X301317Y53515D2*
G1X301317Y57735D1*
G1X306773Y63191D1*
G1X307072Y63191D1*
G1X303285Y53515D2*
G1X303285Y56075D1*
G1X304885Y57675D1*
G1X316623Y63191D2*
G1X316922Y63191D1*
G1X307072Y63191D2*
G1X310272Y63191D1*
G1X312194Y65113D1*
G1X312194Y74617D1*
G1X318498Y89507D2*
G1X324504Y89507D1*
G1X303132Y109289D2*
G1X303132Y113214D1*
G1X303214Y117169D2*
G1X303214Y113296D1*
G1X303132Y113214D1*
G1X303214Y125049D2*
G1X303214Y134505D1*
G1X384300Y97470D2*
G1X380431Y101340D1*
G1X373997Y101340D1*
G1X371688Y103648D1*
G1X371688Y106523D1*
G1X390600Y77769D2*
G1X390600Y72801D1*
G1X379168Y106523D2*
G1X381453Y106523D1*
G1X390600Y97376D1*
G1X390600Y88005D1*
G1X390600Y85130D1*
G1X394225Y81505D1*
G1X397219Y81505D1*
G1X398080Y80644D1*
G1X398080Y77769D1*
G1X394340Y88005D2*
G1X394340Y92935D1*
G1X398080Y88005D2*
G1X398080Y97470D1*
G54D65*
G1X247578Y70283D3*
G1X251536Y66325D3*
G1X358686Y94711D3*
G1X362645Y90752D3*
G54D71*
G1X318498Y39558D3*
G1X318498Y48219D3*
G1X227872Y75749D2*
G54D42*
G1X242112Y75749D1*
G1X227872Y141103D2*
G1X237234Y141103D1*
G1X254588Y158457D1*
G1X254588Y162479D1*
G1X275158Y47513D2*
G1X264208Y47513D1*
G1X264126Y47431D1*
G1X260580Y47431D1*
G1X251325Y56686D1*
G1X251325Y66114D1*
G1X251536Y66325D1*
G1X242112Y75749D2*
G1X247578Y70283D1*
G1X247184Y80921D2*
G1X242112Y75849D1*
G1X242112Y75749D1*
G1X268854Y84861D2*
G1X255311Y84861D1*
G1X255118Y84668D1*
G1X251353Y84668D1*
G1X251142Y84879D1*
G1X283400Y47412D2*
G1X278659Y47412D1*
G1X278558Y47513D1*
G1X275158Y47513D1*
G1X274452Y84861D2*
G1X278428Y84861D1*
G1X285402Y91835D1*
G1X285402Y93926D1*
G1X268460Y162479D2*
G1X273352Y162479D1*
G1X273420Y162411D1*
G1X276298Y162411D1*
G1X268460Y162479D2*
G1X260186Y162479D1*
G1X290836Y162479D2*
G1X286331Y162479D1*
G1X286263Y162411D1*
G1X283385Y162411D1*
G1X354352Y108501D2*
G1X350113Y108501D1*
G1X296434Y162180D1*
G1X296434Y162479D1*
G1X311094Y94711D2*
G1X314704Y94711D1*
G1X315098Y95105D1*
G1X318498Y95105D1*
G1X322489Y95105D1*
G1X322883Y94711D1*
G1X325984Y94711D1*
G1X335128Y48219D2*
G1X342926Y48219D1*
G1X331582Y94711D2*
G1X335504Y94711D1*
G1X335586Y94793D1*
G1X338986Y94793D1*
G1X342926Y48219D2*
G1X350806Y48219D1*
G1X358686Y48219D1*
G1X338986Y94793D2*
G1X354417Y94793D1*
G1X354710Y94500D1*
G1X358475Y94500D1*
G1X358686Y94711D1*
G1X358686Y53817D2*
G1X358686Y68066D1*
G1X358897Y68277D1*
G1X358897Y72042D1*
G1X358686Y72253D1*
G1X362645Y76211D2*
G1X362644Y76211D1*
G1X370112Y83679D1*
G1X359950Y108501D2*
G1X359868Y108419D1*
G1X359868Y104561D1*
G1X368142Y96287D1*
G1X371688Y96287D1*
G1X370112Y83679D2*
G1X373658Y83679D1*
G1X362645Y90752D2*
G1X362644Y90753D1*
G1X364837Y88560D1*
G1X365231Y88560D1*
G1X370112Y83679D1*
G1X375428Y106523D2*
G1X375428Y110417D1*
G1X375628Y110617D1*
G1X375628Y114017D1*
G1X379256Y83679D2*
G1X379256Y93124D1*
G1X379168Y93212D1*
G1X379168Y96287D1*
G1X381226Y114017D2*
G1X409118Y114017D1*
G54D54*
G1X247184Y80921D3*
G1X251142Y84879D3*
G1X358686Y72253D3*
G1X362645Y76211D3*
G54D69*
G1X302301Y48397D3*
G1X297183Y47413D2*
G54D82*
G1X291999Y47413D1*
G1X291998Y47412D1*
G1X288998Y47412D1*
G54D64*
G1X256246Y101015D3*
G1X260186Y162479D3*
G1X254588Y162479D3*
G1X275158Y55705D3*
G1X269560Y55705D3*
G1X275158Y63585D3*
G1X269560Y63585D3*
G1X268854Y92741D3*
G1X274452Y92741D3*
G1X268854Y84861D3*
G1X274452Y84861D3*
G1X261844Y101015D3*
G1X268854Y101015D3*
G1X274452Y101015D3*
G1X268854Y108895D3*
G1X274452Y108895D3*
G1X268460Y141991D3*
G1X262862Y141991D3*
G1X268460Y149477D3*
G1X262862Y149477D3*
G1X269248Y173905D3*
G1X263650Y173905D3*
G1X294464Y34429D3*
G1X283400Y47412D3*
G1X288998Y47412D3*
G1X289342Y55705D3*
G1X283744Y55705D3*
G1X283826Y63585D3*
G1X289424Y63585D3*
G1X286978Y83285D3*
G1X292576Y83285D3*
G1X284975Y109243D3*
G1X290573Y109243D3*
G1X297534Y109289D3*
G1X297616Y117169D3*
G1X284614Y129777D3*
G1X290212Y129777D3*
G1X297616Y125049D3*
G1X296434Y162479D3*
G1X290836Y162479D3*
G1X300062Y34429D3*
G1X305496Y94711D3*
G1X311094Y94711D3*
G1X318416Y116381D3*
G1X303132Y109289D3*
G1X303214Y117169D3*
G1X318416Y124261D3*
G1X303214Y125049D3*
G1X322044Y25367D3*
G1X327642Y25367D3*
G1X322044Y33247D3*
G1X327642Y33247D3*
G1X329530Y48219D3*
G1X335128Y48219D3*
G1X325984Y94711D3*
G1X331582Y94711D3*
G1X324014Y116381D3*
G1X324014Y124261D3*
G1X354352Y108501D3*
G1X373658Y83679D3*
G1X375628Y114017D3*
G1X359950Y108501D3*
G1X368930Y199121D3*
G1X363332Y199121D3*
G1X379256Y83679D3*
G1X381226Y114017D3*
G54D73*
G1X299348Y53515D3*
G1X301317Y53515D3*
G1X303285Y53515D3*
G1X305254Y53515D3*
G1X305254Y43279D3*
G1X303285Y43279D3*
G1X301317Y43279D3*
G1X299348Y43279D3*
G1X274452Y92741D2*
G54D83*
G1X278703Y92741D1*
G1X281856Y95894D1*
G1X294464Y34429D2*
G1X294464Y25761D1*
G1X294464Y34429D2*
G1X289308Y34429D1*
G1X288996Y34117D1*
G1X285796Y34117D1*
G1X296032Y99754D2*
G1X299657Y103379D1*
G1X318498Y103379D1*
G1X290573Y109243D2*
G1X290573Y113349D1*
G1X290130Y113792D1*
G1X290130Y116693D1*
G1X290573Y109243D2*
G1X290573Y106043D1*
G1X290130Y122291D2*
G1X290130Y126495D1*
G1X290212Y126577D1*
G1X290212Y129777D1*
G1X290212Y136787D1*
G1X300062Y39469D2*
G1X300062Y34429D1*
G1X304885Y57675D2*
G1X311107Y57675D1*
G1X316623Y63191D1*
G1X318498Y48219D2*
G1X329530Y48219D1*
G1X307419Y47413D2*
G1X308225Y48219D1*
G1X318498Y48219D1*
G1X316922Y63191D2*
G1X323998Y63191D1*
G54D66*
G1X267278Y28519D3*
G1X267278Y34117D3*
G1X275946Y28519D3*
G1X275946Y34117D3*
G1X275158Y41915D3*
G1X275158Y47513D3*
G1X268460Y156881D3*
G1X268460Y162479D3*
G1X278704Y179421D3*
G1X278704Y173823D3*
G1X294464Y20163D3*
G1X294464Y25761D3*
G1X285796Y28519D3*
G1X285796Y34117D3*
G1X297616Y63191D3*
G1X297616Y68789D3*
G1X290130Y116693D3*
G1X290130Y122291D3*
G1X316922Y63191D3*
G1X316922Y68789D3*
G1X307072Y63191D3*
G1X307072Y68789D3*
G1X318498Y95105D3*
G1X318498Y89507D3*
G1X318498Y103379D3*
G1X318498Y108977D3*
G1X338986Y89195D3*
G1X338986Y94793D3*
G1X358686Y48219D3*
G1X358686Y53817D3*
G1X342926Y48219D3*
G1X342926Y53817D3*
G1X350806Y48219D3*
G1X350806Y53817D3*
G54D81*
G1X327950Y18669D3*
G1X322438Y18669D3*
G54D26*
G1X337016Y179421D3*
G1X337016Y187823D3*
G54D10*
G36*
G1X430071Y10024D2*
G1X626916Y10024D1*
G1X626916Y110632D1*
G1X611459Y110632D1*
G75*
G2X610459Y111632I0J1000D1*
G1X610459Y111894D1*
G1X593835Y111894D1*
G1X593787Y111760D1*
G2X592845Y111095I-942J334D1*
G1X587746Y111095D1*
G1X587746Y109724D1*
G1X587546Y109524D1*
G1X587546Y108986D1*
G1X587787Y108986D1*
G1X587823Y109000D1*
G2X588202Y109075I380J-928D1*
G1X590171Y109075D1*
G2X591070Y108513I0J-1000D1*
G1X591125Y108400D1*
G1X592258Y108400D1*
G1X602518Y98140D1*
G1X602518Y95433D1*
G3X603119Y95084I402J0D1*
G2X605597Y95084I1239J-2172D1*
G3X606198Y95433I199J348D1*
G1X606198Y95821D1*
G1X606153Y95876D1*
G2X609998Y95822I1944J1570D1*
G1X609998Y89961D1*
G1X610012Y89925D1*
G2X610083Y89557I-919J-369D1*
G1X610083Y86407D1*
G2X610023Y86067I-987J-2D1*
G1X610011Y86034D1*
G1X610011Y79694D1*
G1X610023Y79661D1*
G2X610083Y79321I-926J-339D1*
G1X610083Y76171D1*
G2X609082Y75171I-1001J0D1*
G1X607113Y75171D1*
G2X606113Y76171I0J1000D1*
G1X606113Y79321D1*
G1X606114Y79371D1*
G1X606115Y79376D1*
G1X606115Y79582D1*
G1X603456Y79582D1*
G1X603448Y79590D1*
G1X602601Y79590D1*
G1X602601Y79378D1*
G1X602603Y79321D1*
G1X602603Y76171D1*
G2X602532Y75803I-991J0D1*
G1X602518Y75767D1*
G1X602518Y74403D1*
G2X598718Y74403I-1901J-1625D1*
G1X598718Y75767D1*
G1X598704Y75803D1*
G2X598633Y76171I942J372D1*
G1X598633Y79321D1*
G2X598674Y79603I1024J-6D1*
G1X598682Y79631D1*
G1X598682Y86097D1*
G1X598674Y86125D1*
G2X598633Y86407I985J287D1*
G1X598633Y89557D1*
G2X598704Y89925I1012J-5D1*
G1X598718Y89961D1*
G1X598718Y96566D1*
G1X597504Y97779D1*
G3X596818Y97495I-285J-285D1*
G2X591832Y97183I-2500J-49D1*
G1X591825Y97254D1*
G1X591514Y97564D1*
G3X591171Y97422I-143J-143D1*
G1X591171Y96952D1*
G1X591181Y96921D1*
G2X591286Y96265I-1978J-653D1*
G1X591286Y94056D1*
G1X591374Y93968D1*
G1X591374Y86422D1*
G2X591875Y85555I-498J-866D1*
G1X591875Y81757D1*
G2X590874Y80756I-1001J-1D1*
G1X582075Y80756D1*
G2X581267Y81167I1J1001D1*
G3X580658Y81214I-325J-238D1*
G1X575980Y76535D1*
G1X576041Y76407D1*
G2X575845Y75270I-902J-430D1*
G1X573581Y73006D1*
G2X572637Y72742I-707J707D1*
G3X572151Y72256I-95J-392D1*
G2X571886Y71312I-971J-237D1*
G1X571015Y70440D1*
G1X571015Y67385D1*
G1X570804Y67174D1*
G1X570804Y56385D1*
G1X570938Y56337D1*
G2X571604Y55395I-333J-942D1*
G1X571604Y52194D1*
G2X571395Y51582I-997J-2D1*
G3X571713Y50934I318J-246D1*
G1X571966Y50934D1*
G1X571966Y45569D1*
G1X547433Y45569D1*
G2X546746Y45296I-687J726D1*
G1X537947Y45296D1*
G2X537286Y45546I1J1002D1*
G1X531313Y45546D1*
G1X531313Y42110D1*
G1X533834Y42110D1*
G2X534023Y42092I1J-992D1*
G1X534042Y42088D1*
G1X534718Y42088D1*
G1X534718Y41574D1*
G1X534737Y41534D1*
G2X534831Y41110I-899J-422D1*
G1X534831Y37960D1*
G2X534737Y37537I-994J-2D1*
G1X534718Y37496D1*
G1X534718Y15555D1*
G1X522188Y15555D1*
G1X522188Y31269D1*
G1X513234Y31269D1*
G1X513234Y31198D1*
G1X507552Y31198D1*
G1X507552Y31057D1*
G1X507132Y31057D1*
G1X507132Y27999D1*
G2X507382Y27338I-748J-661D1*
G1X507382Y24137D1*
G2X506382Y23137I-1000J-1D1*
G1X504992Y23137D1*
G1X504973Y23134D1*
G2X503991Y23134I-491J2605D1*
G1X503972Y23137D1*
G1X502582Y23137D1*
G2X501582Y24137I0J1000D1*
G1X501582Y27338D1*
G2X501832Y27999I1003J-2D1*
G1X501832Y31057D1*
G1X498716Y31057D1*
G1X498716Y15915D1*
G1X466209Y15915D1*
G1X466209Y31109D1*
G1X492498Y31109D1*
G1X492498Y44159D1*
G1X481968Y44159D1*
G1X481968Y45390D1*
G1X475096Y45390D1*
G1X475015Y45308D1*
G1X469728Y45308D1*
G1X459243Y55793D1*
G1X459243Y64512D1*
G1X458372Y65383D1*
G2X458108Y66328I710J707D1*
G3X457622Y66813I-391J94D1*
G2X456677Y67078I-237J972D1*
G1X454414Y69341D1*
G2X454218Y70479I708J707D1*
G1X454279Y70607D1*
G1X451260Y73626D1*
G1X446567Y73626D1*
G1X446567Y73364D1*
G2X445567Y72364I-1000J-1D1*
G1X430071Y72364D1*
G1X430071Y10024D1*
G37*
G36*
G1X469235Y98088D2*
G1X469235Y120623D1*
G1X475353Y120623D1*
G1X475353Y131303D1*
G1X497580Y131303D1*
G1X497580Y136764D1*
G2X502880Y136764I2650J0D1*
G1X502880Y131303D1*
G1X511332Y131303D1*
G1X511332Y132857D1*
G2X515132Y132857I1900J1625D1*
G1X515132Y131303D1*
G1X531525Y131303D1*
G1X531525Y98125D1*
G1X565474Y98125D1*
G1X565474Y96702D1*
G1X565599Y96577D1*
G1X566915Y96577D1*
G1X568208Y97870D1*
G2X569623Y97870I707J-708D1*
G1X571886Y95606D1*
G2X572151Y94662I-706J-708D1*
G3X572637Y94176I391J-95D1*
G2X573581Y93912I237J-971D1*
G1X575845Y91648D1*
G2X576121Y90759I-707J-707D1*
G1X576102Y90655D1*
G1X580658Y86098D1*
G3X581267Y86145I284J284D1*
G2X582075Y86556I808J-590D1*
G1X587174Y86556D1*
G1X587174Y92234D1*
G1X587086Y92322D1*
G1X587086Y96265D1*
G2X587191Y96921I2121J-4D1*
G1X587201Y96952D1*
G1X587201Y97839D1*
G2X587214Y97994I1086J-14D1*
G1X587216Y98009D1*
G1X587216Y98226D1*
G1X583676Y98226D1*
G1X583676Y98009D1*
G1X583679Y97994D1*
G2X583691Y97839I-933J-150D1*
G1X583691Y96952D1*
G1X583701Y96921D1*
G2X583701Y95607I-1991J-657D1*
G1X583691Y95576D1*
G1X583691Y94689D1*
G2X582691Y93689I-1000J-1D1*
G1X580721Y93689D1*
G2X579870Y94164I0J1001D1*
G1X577290Y94164D1*
G1X567786Y103668D1*
G1X567786Y105578D1*
G1X562769Y105578D1*
G2X561827Y106244I1J1001D1*
G1X561779Y106378D1*
G1X559261Y106378D1*
G1X506082Y159556D1*
G1X499253Y159556D1*
G2X498311Y160222I1J1001D1*
G1X498263Y160356D1*
G1X497220Y160356D1*
G1X497152Y160288D1*
G1X493964Y160288D1*
G1X493964Y158191D1*
G1X491802Y158191D1*
G1X491802Y139134D1*
G1X480435Y139134D1*
G1X480403Y139123D1*
G2X480079Y139069I-325J946D1*
G1X476877Y139069D1*
G2X476521Y139134I0J1009D1*
G1X475573Y139134D1*
G1X475573Y159487D1*
G3X475854Y160166I-10J401D1*
G2X475712Y160356I746J706D1*
G1X472795Y160356D1*
G1X472747Y160222D1*
G2X471805Y159556I-943J333D1*
G1X466706Y159556D1*
G1X466706Y157564D1*
G1X448122Y138980D1*
G1X446567Y138980D1*
G1X446567Y138718D1*
G2X445567Y137718I-1000J-1D1*
G1X430071Y137718D1*
G1X430071Y79088D1*
G1X445567Y79088D1*
G2X446567Y78088I0J-1000D1*
G1X446567Y77826D1*
G1X451160Y77826D1*
G1X453885Y80551D1*
G1X453824Y80679D1*
G2X454020Y81817I904J430D1*
G1X456283Y84080D1*
G2X457228Y84345I708J-708D1*
G3X457714Y84830I95J390D1*
G2X457978Y85775I972J237D1*
G1X460242Y88039D1*
G2X461656Y88039I707J-707D1*
G1X462950Y86745D1*
G1X464266Y86745D1*
G1X464459Y86938D1*
G1X468295Y86938D1*
G3X468644Y87539I0J401D1*
G2X471517Y91178I2171J1238D1*
G1X475353Y91178D1*
G1X475353Y98088D1*
G1X469235Y98088D1*
G37*
G36*
G1X447064Y143862D2*
G1X462506Y159304D1*
G1X462506Y159690D1*
G2X462005Y160557I500J867D1*
G1X462005Y164355D1*
G2X463006Y165356I1000J0D1*
G1X471805Y165356D1*
G2X472747Y164690I-1J-1001D1*
G1X472795Y164556D1*
G1X475712Y164556D1*
G2X476578Y165057I866J-500D1*
G1X479280Y165057D1*
G3X479564Y165743I0J401D1*
G1X477366Y167941D1*
G1X477366Y170982D1*
G1X472067Y170982D1*
G2X471081Y171814I0J1000D1*
G1X471053Y171982D1*
G1X463113Y171982D1*
G1X441280Y193815D1*
G1X436765Y193815D1*
G2X435765Y194816I1J1001D1*
G1X435765Y201017D1*
G2X436765Y202017I1000J-1D1*
G1X442967Y202017D1*
G2X443967Y201017I0J-1000D1*
G1X443967Y196503D1*
G1X464687Y175782D1*
G1X471053Y175782D1*
G1X471081Y175949D1*
G2X472067Y176782I986J-168D1*
G1X480867Y176782D1*
G2X481853Y175949I-1J-1001D1*
G1X481881Y175782D1*
G1X485890Y175782D1*
G1X485948Y175886D1*
G2X486823Y176401I875J-486D1*
G1X490621Y176401D1*
G2X491621Y175401I0J-1000D1*
G1X491621Y172199D1*
G2X490621Y171199I-1000J-1D1*
G1X486823Y171199D1*
G2X485913Y171783I0J1001D1*
G1X485860Y171900D1*
G1X484735Y171900D1*
G1X484653Y171982D1*
G1X481881Y171982D1*
G1X481853Y171814D1*
G2X481283Y171073I-986J168D1*
G1X481166Y171020D1*
G1X481166Y169515D1*
G1X484425Y166256D1*
G1X485776Y166256D1*
G1X485776Y168496D1*
G1X493964Y168496D1*
G1X493964Y164488D1*
G1X495410Y164488D1*
G1X495478Y164556D1*
G1X498263Y164556D1*
G1X498311Y164690D1*
G2X499253Y165356I942J-335D1*
G1X508052Y165356D1*
G2X509053Y164355I-1J-1001D1*
G1X509053Y162526D1*
G1X561001Y110578D1*
G1X561779Y110578D1*
G1X561827Y110712D1*
G2X562769Y111378I942J-335D1*
G1X571568Y111378D1*
G2X572569Y110377I0J-1001D1*
G1X572569Y106578D1*
G2X572084Y105721I-1000J-1D1*
G1X571986Y105663D1*
G1X571986Y105408D1*
G1X579030Y98364D1*
G1X579658Y98364D1*
G1X579658Y104509D1*
G1X579741Y104509D1*
G1X579741Y104728D1*
G1X579738Y104746D1*
G2X579722Y104925I1046J183D1*
G1X579722Y108075D1*
G2X580722Y109075I1000J-1D1*
G1X583346Y109075D1*
G1X583346Y111380D1*
G2X583045Y112095I702J716D1*
G1X583045Y115894D1*
G2X584045Y116894I1000J-1D1*
G1X592845Y116894D1*
G2X593787Y116228I-1J-1001D1*
G1X593835Y116094D1*
G1X610459Y116094D1*
G1X610459Y116356D1*
G2X611459Y117356I1000J-1D1*
G1X626916Y117356D1*
G1X626916Y206806D1*
G1X430071Y206806D1*
G1X430071Y144442D1*
G1X445567Y144442D1*
G2X446432Y143944I0J-1000D1*
G3X447064Y143862I347J202D1*
G37*
G36*
G1X467209Y16915D2*
G1X497716Y16915D1*
G1X497716Y30109D1*
G1X467209Y30109D1*
G1X467209Y16915D1*
G37*
G36*
G1X458514Y73442D2*
G1X460778Y71178D1*
G2X461042Y70234I-707J-707D1*
G3X461528Y69748I391J-95D1*
G2X462473Y69484I238J-971D1*
G1X464736Y67220D1*
G2X464736Y65806I-707J-708D1*
G1X463443Y64513D1*
G1X463443Y57533D1*
G1X471468Y49508D1*
G1X473273Y49508D1*
G1X473355Y49590D1*
G1X481968Y49590D1*
G1X481968Y50159D1*
G1X491323Y50159D1*
G1X491366Y50181D1*
G2X491817Y50289I452J-895D1*
G1X492498Y50289D1*
G1X492498Y52782D1*
G1X492162Y52782D1*
G2X492074Y52786I3J1058D1*
G1X492065Y52787D1*
G1X486873Y52787D1*
G1X486864Y52786D1*
G2X486776Y52782I-91J1034D1*
G1X483575Y52782D1*
G1X483488Y52786D1*
G1X483479Y52787D1*
G1X482473Y52787D1*
G1X482473Y74916D1*
G1X496364Y74916D1*
G1X496364Y65855D1*
G1X496373Y65833D1*
G1X507911Y65833D1*
G1X508554Y66476D1*
G1X508554Y67458D1*
G1X508634Y67538D1*
G1X508634Y75751D1*
G1X510822Y77940D1*
G1X510830Y78010D1*
G2X513580Y75260I2486J-264D1*
G1X513510Y75252D1*
G1X512434Y74177D1*
G1X512434Y65833D1*
G1X520268Y65833D1*
G1X520312Y65877D1*
G1X520312Y72969D1*
G2X524112Y72969I1900J1625D1*
G1X524112Y65833D1*
G1X531313Y65833D1*
G1X531313Y65818D1*
G1X534016Y65818D1*
G2X534016Y60518I0J-2651D1*
G1X531313Y60518D1*
G1X531313Y50846D1*
G1X537286Y50846D1*
G2X537947Y51096I661J-751D1*
G1X546746Y51096D1*
G2X547248Y50961I0J-999D1*
G1X547295Y50934D1*
G1X565696Y50934D1*
G3X566014Y51582I0J401D1*
G2X565805Y52194I795J613D1*
G1X565805Y55395D1*
G2X566470Y56337I1001J-2D1*
G1X566604Y56385D1*
G1X566604Y68912D1*
G1X566815Y69123D1*
G1X566815Y70442D1*
G1X565522Y71734D1*
G2X565522Y73149I707J707D1*
G1X567786Y75412D1*
G2X568730Y75676I706J-709D1*
G3X569216Y76162I95J390D1*
G2X569480Y77107I972J237D1*
G1X571744Y79370D1*
G2X572881Y79566I707J-707D1*
G1X573010Y79505D1*
G1X577160Y83656D1*
G1X574379Y86437D1*
G1X573985Y86437D1*
G1X573010Y87412D1*
G1X572881Y87352D1*
G2X571744Y87547I-431J902D1*
G1X569480Y89811D1*
G2X569216Y90755I710J707D1*
G3X568730Y91241I-391J95D1*
G2X567786Y91506I-237J972D1*
G1X566915Y92377D1*
G1X565474Y92377D1*
G1X565474Y91701D1*
G1X531525Y91701D1*
G1X531525Y81623D1*
G1X518584Y81623D1*
G2X515071Y81362I-1888J1639D1*
G1X505209Y81362D1*
G1X505180Y81194D1*
G2X504194Y80362I-986J167D1*
G1X500993Y80362D1*
G2X499993Y81362I0J1000D1*
G1X499993Y81623D1*
G1X475353Y81623D1*
G1X475353Y82738D1*
G1X466199Y82738D1*
G1X466006Y82545D1*
G1X462949Y82545D1*
G1X462079Y81674D1*
G2X461134Y81410I-708J708D1*
G3X460648Y80924I-95J-392D1*
G2X460384Y79980I-970J-238D1*
G1X458120Y77716D1*
G2X456983Y77520I-708J706D1*
G1X456855Y77581D1*
G1X455050Y75776D1*
G1X457249Y73577D1*
G1X457377Y73638D1*
G2X458514Y73442I429J-903D1*
G37*
G36*
G1X483473Y73916D2*
G1X483473Y53787D1*
G1X495364Y53787D1*
G1X495364Y73916D1*
G1X483473Y73916D1*
G37*
G36*
G1X470235Y119623D2*
G1X470235Y99088D1*
G1X480474Y99088D1*
G1X480474Y119623D1*
G1X470235Y119623D1*
G37*
G36*
G1X476573Y158487D2*
G1X476573Y140134D1*
G1X490802Y140134D1*
G1X490802Y158487D1*
G1X484953Y158487D1*
G1X484951Y158485D1*
G2X481379Y158487I-1786J902D1*
G1X476573Y158487D1*
G37*
G36*
G1X504884Y92759D2*
G1X517086Y92759D1*
G1X517086Y96635D1*
G1X504884Y96635D1*
G1X504884Y92759D1*
G37*
G36*
G1X523188Y41088D2*
G1X523188Y16555D1*
G1X533718Y16555D1*
G1X533718Y41088D1*
G1X523188Y41088D1*
G37*
G36*
G1X516364Y45357D2*
G2X516704Y44989I-539J-840D1*
G1X516761Y44883D1*
G1X518684Y44883D1*
G1X518684Y51866D1*
G1X516762Y51866D1*
G1X516705Y51760D1*
G2X516364Y51391I-879J469D1*
G1X516272Y51332D1*
G1X516272Y45416D1*
G1X516364Y45357D1*
G37*
G36*
G1X518709Y126121D2*
G1X518709Y107354D1*
G1X530441Y107354D1*
G1X530441Y126121D1*
G1X518709Y126121D1*
G37*
%LPC*%
G36*
G1X558649Y168575D2*
G1X575185Y168575D1*
G3X575333Y168586I-1J1011D1*
G1X575348Y168589D1*
G1X576391Y168589D1*
G1X576391Y183050D1*
G1X576425Y183050D1*
G1X576425Y184302D1*
G1X575979Y184302D1*
G1X575979Y202076D1*
G1X543515Y202076D1*
G1X543515Y184302D1*
G1X543396Y184302D1*
G1X543396Y183041D1*
G1X543383Y183041D1*
G1X543383Y168589D1*
G1X558484Y168589D1*
G1X558499Y168586D1*
G3X558649Y168575I149J1011D1*
G37*
G74*
G54D46*
G1X449866Y197916D3*
G1X459866Y197916D3*
G1X469866Y197916D3*
G1X479866Y197916D3*
G1X489866Y197916D3*
G54D45*
G1X499866Y197916D3*
G1X509866Y197916D3*
G1X519866Y197916D3*
G1X529866Y197916D3*
%LPD*%
G36*
G1X544383Y169589D2*
G1X575391Y169589D1*
G1X575391Y182041D1*
G1X544383Y182041D1*
G1X544383Y169589D1*
G37*
G36*
G1X544515Y185306D2*
G1X574979Y185306D1*
G1X574979Y201076D1*
G1X544515Y201076D1*
G1X544515Y185306D1*
G37*
G1X470816Y88778D2*
G54D10*
G1X480829Y88778D1*
G1X484470Y92419D1*
G1X484470Y92718D1*
G1X449701Y19820D3*
G1X439858Y19820D3*
G1X439858Y29663D3*
G1X449701Y29663D3*
G1X449701Y39506D3*
G1X439858Y39506D3*
G1X449701Y59191D3*
G1X439858Y59191D3*
G1X439858Y49348D3*
G1X449701Y49348D3*
G1X449701Y69033D3*
G1X439858Y98561D3*
G1X449701Y98561D3*
G1X439858Y108403D3*
G1X439858Y118246D3*
G1X449701Y118246D3*
G1X449701Y108403D3*
G1X449701Y128088D3*
G1X439858Y177301D3*
G1X449701Y177301D3*
G1X449701Y167458D3*
G1X439858Y167458D3*
G1X439858Y187143D3*
G1X459544Y19820D3*
G1X459544Y29663D3*
G1X459544Y39506D3*
G1X464859Y34387D3*
G1X459544Y49348D3*
G1X465816Y77878D3*
G1X459544Y98561D3*
G1X466236Y106238D3*
G1X459544Y108403D3*
G1X459544Y118246D3*
G1X459544Y128088D3*
G1X469386Y128088D3*
G1X459544Y137931D3*
G1X467811Y142262D3*
G1X468205Y149348D3*
G1X459544Y147773D3*
G1X472929Y38324D3*
G1X474701Y59387D3*
G1X486516Y77878D3*
G1X479416Y77878D3*
G1X472716Y77878D3*
G1X472716Y71178D3*
G1X479716Y71178D3*
G1X483166Y159387D3*
G1X488677Y183994D3*
G1X490646Y38128D3*
G1X504142Y49939D3*
G1X503441Y44220D3*
G1X492416Y78078D3*
G1X499416Y71378D3*
G1X499316Y75078D3*
G1X503916Y75178D3*
G1X498816Y97878D3*
G1X500735Y95871D3*
G1X498816Y93878D3*
G1X502616Y93978D3*
G1X502716Y97978D3*
G1X489874Y161788D3*
G1X489874Y164348D3*
G1X510528Y46592D3*
G1X510516Y50178D3*
G1X514116Y46578D3*
G1X512319Y48374D3*
G1X514016Y50278D3*
G1X513677Y74151D3*
G1X528441Y167458D3*
G1X541827Y15884D3*
G1X542418Y29663D3*
G1X542418Y23167D3*
G1X538284Y59191D3*
G1X548126Y59191D3*
G1X548126Y69033D3*
G1X548126Y78876D3*
G1X538284Y78876D3*
G1X538284Y69033D3*
G1X531984Y68836D3*
G1X537890Y111356D3*
G1X539268Y120411D3*
G1X548126Y128088D3*
G1X538284Y137931D3*
G1X548126Y147773D3*
G1X548126Y157616D3*
G1X538284Y157616D3*
G1X538284Y167458D3*
G1X557969Y19820D3*
G1X567811Y19820D3*
G1X567811Y29663D3*
G1X557969Y29663D3*
G1X557969Y59191D3*
G1X557969Y69033D3*
G1X557969Y78876D3*
G1X557969Y88718D3*
G1X548914Y84781D3*
G1X567811Y128088D3*
G1X567811Y137931D3*
G1X557969Y137931D3*
G1X567811Y147773D3*
G1X557969Y147773D3*
G1X557969Y157616D3*
G1X577654Y19820D3*
G1X587496Y19820D3*
G1X577654Y29663D3*
G1X587496Y29663D3*
G1X587496Y39506D3*
G1X577654Y39506D3*
G1X587496Y49348D3*
G1X587496Y59191D3*
G1X577654Y59191D3*
G1X577654Y49348D3*
G1X587496Y69033D3*
G1X577654Y137931D3*
G1X577654Y128088D3*
G1X587496Y128088D3*
G1X587496Y137931D3*
G1X577654Y147773D3*
G1X587496Y157616D3*
G1X577654Y157616D3*
G1X587496Y167458D3*
G1X587496Y177301D3*
G1X579425Y193836D3*
G1X587496Y187143D3*
G1X597339Y19820D3*
G1X607181Y19820D3*
G1X597339Y29663D3*
G1X607181Y29663D3*
G1X607181Y39506D3*
G1X597339Y39506D3*
G1X607181Y49348D3*
G1X607181Y59191D3*
G1X597339Y59191D3*
G1X597339Y49348D3*
G1X607181Y69033D3*
G1X597339Y69033D3*
G1X607181Y108403D3*
G1X607181Y118246D3*
G1X597339Y128088D3*
G1X607181Y128088D3*
G1X597339Y137931D3*
G1X607181Y137931D3*
G1X597339Y157616D3*
G1X607181Y157616D3*
G1X597339Y177301D3*
G1X597339Y167458D3*
G1X607181Y167458D3*
G1X607181Y177301D3*
G1X607181Y187143D3*
G1X597339Y187143D3*
G1X617024Y19820D3*
G1X617024Y29663D3*
G1X617024Y39506D3*
G1X617024Y49348D3*
G1X617024Y59191D3*
G1X617024Y69033D3*
G1X617024Y78876D3*
G1X617024Y88718D3*
G1X617024Y137931D3*
G1X617024Y157616D3*
G1X617024Y147773D3*
G1X617024Y177301D3*
G1X617024Y167458D3*
G1X617024Y187143D3*
G1X617024Y196986D3*
G54D72*
G1X437890Y64899D3*
G1X437890Y75726D3*
G1X437890Y86553D3*
G1X437890Y130253D3*
G1X437890Y151907D3*
G1X437890Y141080D3*
G1X619136Y103167D3*
G1X619136Y113994D3*
G1X619136Y124821D3*
G54D70*
G1X489860Y163372D3*
G54D78*
G1X486316Y160419D3*
G1X486316Y162388D3*
G1X486316Y164356D3*
G1X486316Y166325D3*
G1X506050Y97840D3*
G1X506050Y95871D3*
G1X506050Y93903D3*
G1X495420Y93903D3*
G1X495420Y95871D3*
G1X495420Y97840D3*
G1X493403Y166325D3*
G1X493403Y164356D3*
G1X493403Y162388D3*
G1X493403Y160419D3*
G54D43*
G1X439866Y197916D3*
G54D75*
G1X566916Y175678D3*
G54D79*
G1X585446Y96264D3*
G1X581706Y96264D3*
G1X581706Y106500D3*
G1X585446Y106500D3*
G1X608098Y77746D3*
G1X604358Y77746D3*
G1X600618Y77746D3*
G1X589186Y96264D3*
G1X600618Y87982D3*
G1X604358Y87982D3*
G1X608098Y87982D3*
G1X589186Y106500D3*
G54D44*
G1X449866Y197916D3*
G1X459866Y197916D3*
G1X469866Y197916D3*
G1X479866Y197916D3*
G1X489866Y197916D3*
G1X499866Y197916D3*
G1X509866Y197916D3*
G1X519866Y197916D3*
G1X529866Y197916D3*
G54D74*
G1X507201Y45421D3*
G1X507201Y47390D3*
G1X507201Y49358D3*
G1X507201Y51327D3*
G1X517437Y51327D3*
G1X517437Y49358D3*
G1X517437Y47390D3*
G1X517437Y45421D3*
G54D76*
G1X599593Y147725D3*
G1X599593Y198709D3*
G54D11*
G1X470204Y21404D3*
G1X470816Y88778D3*
G1X476508Y21404D3*
G1X482812Y21404D3*
G1X489116Y21404D3*
G1X486358Y70260D3*
G1X475326Y115964D3*
G1X472962Y109266D3*
G1X485964Y155364D3*
G1X485964Y143150D3*
G1X485964Y149060D3*
G1X494632Y21404D3*
G1X491874Y70260D3*
G1X494993Y114095D3*
G1X500230Y136764D3*
G1X525758Y20222D3*
G1X525758Y26920D3*
G1X525758Y34012D3*
G1X513316Y77746D3*
G1X522212Y74594D3*
G1X516696Y83262D3*
G1X513150Y113191D3*
G1X521818Y110448D3*
G1X521818Y116752D3*
G1X521818Y123450D3*
G1X513232Y134482D3*
G1X534016Y63168D3*
G1X547822Y198310D3*
G1X554126Y188460D3*
G1X562400Y193188D3*
G1X556490Y193188D3*
G1X559642Y198310D3*
G1X565552Y198310D3*
G1X560036Y188460D3*
G1X565552Y188460D3*
G1X553732Y198310D3*
G1X600618Y72778D3*
G1X594318Y97447D3*
G1X608098Y97447D3*
G1X604358Y92912D3*
G54D52*
G1X500735Y95871D3*
G1X505265Y197916D2*
G54D14*
G1X509866Y197916D1*
G1X499866Y193316D2*
G1X499866Y197916D1*
G1X499866Y202517D1*
G1X495265Y197916D2*
G1X499866Y197916D1*
G1X504467Y197916D1*
G1X525265Y197916D2*
G1X529866Y197916D1*
G1X519866Y193316D2*
G1X519866Y197916D1*
G1X519866Y202517D1*
G1X515265Y197916D2*
G1X519866Y197916D1*
G1X524467Y197916D1*
G1X509866Y193316D2*
G1X509866Y197916D1*
G1X509866Y202517D1*
G1X509866Y197916D2*
G1X514467Y197916D1*
G1X529866Y193316D2*
G1X529866Y197916D1*
G1X529866Y202517D1*
G1X529866Y197916D2*
G1X534467Y197916D1*
G54D80*
G1X469416Y34008D3*
G1X469416Y28496D3*
G54D77*
G1X502703Y90557D3*
G1X500735Y90557D3*
G1X498766Y90557D3*
G1X498766Y101186D3*
G1X500735Y101186D3*
G1X502703Y101186D3*
G1X473668Y173882D2*
G54D15*
G1X463900Y173882D1*
G1X439866Y197916D1*
G1X478872Y92718D2*
G1X473851Y92718D1*
G1X491874Y95871D2*
G1X495420Y95871D1*
G1X495420Y97840D2*
G1X492268Y100992D1*
G1X484470Y100992D1*
G1X484470Y108872D2*
G1X489129Y108872D1*
G1X496815Y101186D1*
G1X498766Y101186D1*
G1X484740Y167852D2*
G1X486268Y166325D1*
G1X486316Y166325D1*
G1X486316Y160419D2*
G1X484197Y160419D1*
G1X483166Y159387D1*
G1X479266Y173882D2*
G1X479266Y168728D1*
G1X483638Y164356D1*
G1X486316Y164356D1*
G1X479266Y173882D2*
G1X485440Y173882D1*
G1X485522Y173800D1*
G1X488722Y173800D1*
G1X507201Y45421D2*
G1X504642Y45421D1*
G1X503441Y44220D1*
G1X507201Y49358D2*
G1X505006Y49358D1*
G1X504425Y49939D1*
G1X504142Y49939D1*
G1X509366Y53492D2*
G1X509366Y58535D1*
G1X507634Y60267D1*
G1X507634Y63168D1*
G1X507201Y51327D2*
G1X507143Y51327D1*
G1X506362Y52108D1*
G1X502635Y52108D1*
G1X499360Y55383D1*
G1X499360Y55682D1*
G1X499416Y68778D2*
G1X499442Y68752D1*
G1X499442Y63562D1*
G1X513316Y77746D2*
G1X510534Y74964D1*
G1X510534Y66751D1*
G1X510454Y66671D1*
G1X510454Y65689D1*
G1X507933Y63168D1*
G1X507634Y63168D1*
G1X496996Y83262D2*
G1X496996Y80596D1*
G1X502703Y90557D2*
G1X502703Y86571D1*
G1X502594Y86462D1*
G1X502594Y83262D1*
G1X516696Y83262D2*
G1X502594Y83262D1*
G1X506050Y97840D2*
G1X506050Y99731D1*
G1X506050Y95871D2*
G1X506050Y97840D1*
G1X500591Y106020D2*
G1X500735Y105876D1*
G1X500735Y101186D1*
G1X494993Y109220D2*
G1X494993Y114095D1*
G1X502703Y101186D2*
G1X502703Y104118D1*
G1X507552Y108967D1*
G1X507552Y109266D1*
G1X507552Y113864D1*
G1X507634Y113946D1*
G1X507634Y117146D1*
G1X507634Y125026D1*
G1X494632Y129754D2*
G1X494632Y132960D1*
G1X496080Y165884D2*
G1X496080Y165196D1*
G1X495174Y159387D2*
G1X494142Y160419D1*
G1X493403Y160419D1*
G1X495418Y166325D2*
G1X493403Y166325D1*
G1X496080Y165196D2*
G1X495240Y164356D1*
G1X493403Y164356D1*
G1X511335Y43256D2*
G1X511335Y40696D1*
G1X510085Y39446D1*
G1X510080Y39446D1*
G1X509366Y40160D1*
G1X509366Y43256D1*
G1X511335Y53492D2*
G1X511335Y57712D1*
G1X516791Y63168D1*
G1X517090Y63168D1*
G1X513303Y53492D2*
G1X513303Y56052D1*
G1X514903Y57652D1*
G1X526641Y63168D2*
G1X526940Y63168D1*
G1X517090Y63168D2*
G1X520290Y63168D1*
G1X522212Y65090D1*
G1X522212Y74594D1*
G1X528516Y89484D2*
G1X534522Y89484D1*
G1X513150Y109266D2*
G1X513150Y113191D1*
G1X513232Y117146D2*
G1X513232Y113273D1*
G1X513150Y113191D1*
G1X513232Y125026D2*
G1X513232Y134482D1*
G1X594318Y97447D2*
G1X590449Y101317D1*
G1X584015Y101317D1*
G1X581706Y103625D1*
G1X581706Y106500D1*
G1X600618Y77746D2*
G1X600618Y72778D1*
G1X589186Y106500D2*
G1X591471Y106500D1*
G1X600618Y97353D1*
G1X600618Y87982D1*
G1X600618Y85107D1*
G1X604243Y81482D1*
G1X607237Y81482D1*
G1X608098Y80621D1*
G1X608098Y77746D1*
G1X604358Y87982D2*
G1X604358Y92912D1*
G1X608098Y87982D2*
G1X608098Y97447D1*
G54D65*
G1X457596Y70260D3*
G1X461554Y66302D3*
G1X568704Y94688D3*
G1X572663Y90729D3*
G54D71*
G1X528516Y39535D3*
G1X528516Y48196D3*
G1X437890Y75726D2*
G54D42*
G1X452130Y75726D1*
G1X437890Y141080D2*
G1X447252Y141080D1*
G1X464606Y158434D1*
G1X464606Y162456D1*
G1X485176Y47490D2*
G1X474226Y47490D1*
G1X474144Y47408D1*
G1X470598Y47408D1*
G1X461343Y56663D1*
G1X461343Y66091D1*
G1X461554Y66302D1*
G1X452130Y75726D2*
G1X457596Y70260D1*
G1X457202Y80898D2*
G1X452130Y75826D1*
G1X452130Y75726D1*
G1X478872Y84838D2*
G1X465329Y84838D1*
G1X465136Y84645D1*
G1X461371Y84645D1*
G1X461160Y84856D1*
G1X493418Y47389D2*
G1X488677Y47389D1*
G1X488576Y47490D1*
G1X485176Y47490D1*
G1X484470Y84838D2*
G1X488446Y84838D1*
G1X495420Y91812D1*
G1X495420Y93903D1*
G1X478478Y162456D2*
G1X483370Y162456D1*
G1X483438Y162388D1*
G1X486316Y162388D1*
G1X478478Y162456D2*
G1X470204Y162456D1*
G1X500854Y162456D2*
G1X496349Y162456D1*
G1X496281Y162388D1*
G1X493403Y162388D1*
G1X564370Y108478D2*
G1X560131Y108478D1*
G1X506452Y162157D1*
G1X506452Y162456D1*
G1X521112Y94688D2*
G1X524722Y94688D1*
G1X525116Y95082D1*
G1X528516Y95082D1*
G1X532507Y95082D1*
G1X532901Y94688D1*
G1X536002Y94688D1*
G1X545146Y48196D2*
G1X552944Y48196D1*
G1X541600Y94688D2*
G1X545522Y94688D1*
G1X545604Y94770D1*
G1X549004Y94770D1*
G1X552944Y48196D2*
G1X560824Y48196D1*
G1X568704Y48196D1*
G1X549004Y94770D2*
G1X564435Y94770D1*
G1X564728Y94477D1*
G1X568493Y94477D1*
G1X568704Y94688D1*
G1X568704Y53794D2*
G1X568704Y68043D1*
G1X568915Y68254D1*
G1X568915Y72019D1*
G1X568704Y72230D1*
G1X572663Y76188D2*
G1X572662Y76188D1*
G1X580130Y83656D1*
G1X569968Y108478D2*
G1X569886Y108396D1*
G1X569886Y104538D1*
G1X578160Y96264D1*
G1X581706Y96264D1*
G1X580130Y83656D2*
G1X583676Y83656D1*
G1X572663Y90729D2*
G1X572662Y90730D1*
G1X574855Y88537D1*
G1X575249Y88537D1*
G1X580130Y83656D1*
G1X585446Y106500D2*
G1X585446Y110394D1*
G1X585646Y110594D1*
G1X585646Y113994D1*
G1X589274Y83656D2*
G1X589274Y93101D1*
G1X589186Y93189D1*
G1X589186Y96264D1*
G1X591244Y113994D2*
G1X619136Y113994D1*
G54D54*
G1X457202Y80898D3*
G1X461160Y84856D3*
G1X568704Y72230D3*
G1X572663Y76188D3*
G54D69*
G1X512319Y48374D3*
G1X507201Y47390D2*
G54D82*
G1X502017Y47390D1*
G1X502016Y47389D1*
G1X499016Y47389D1*
G54D64*
G1X466264Y100992D3*
G1X470204Y162456D3*
G1X464606Y162456D3*
G1X485176Y55682D3*
G1X479578Y55682D3*
G1X485176Y63562D3*
G1X479578Y63562D3*
G1X478872Y92718D3*
G1X484470Y92718D3*
G1X478872Y84838D3*
G1X484470Y84838D3*
G1X471862Y100992D3*
G1X478872Y100992D3*
G1X484470Y100992D3*
G1X478872Y108872D3*
G1X484470Y108872D3*
G1X478478Y141968D3*
G1X472880Y141968D3*
G1X478478Y149454D3*
G1X472880Y149454D3*
G1X479266Y173882D3*
G1X473668Y173882D3*
G1X504482Y34406D3*
G1X493418Y47389D3*
G1X499016Y47389D3*
G1X499360Y55682D3*
G1X493762Y55682D3*
G1X493844Y63562D3*
G1X499442Y63562D3*
G1X496996Y83262D3*
G1X502594Y83262D3*
G1X494993Y109220D3*
G1X500591Y109220D3*
G1X507552Y109266D3*
G1X507634Y117146D3*
G1X494632Y129754D3*
G1X500230Y129754D3*
G1X507634Y125026D3*
G1X506452Y162456D3*
G1X500854Y162456D3*
G1X510080Y34406D3*
G1X515514Y94688D3*
G1X521112Y94688D3*
G1X528434Y116358D3*
G1X513150Y109266D3*
G1X513232Y117146D3*
G1X528434Y124238D3*
G1X513232Y125026D3*
G1X532062Y25344D3*
G1X537660Y25344D3*
G1X532062Y33224D3*
G1X537660Y33224D3*
G1X539548Y48196D3*
G1X545146Y48196D3*
G1X536002Y94688D3*
G1X541600Y94688D3*
G1X534032Y116358D3*
G1X534032Y124238D3*
G1X564370Y108478D3*
G1X583676Y83656D3*
G1X585646Y113994D3*
G1X569968Y108478D3*
G1X578948Y199098D3*
G1X573350Y199098D3*
G1X589274Y83656D3*
G1X591244Y113994D3*
G54D73*
G1X509366Y53492D3*
G1X511335Y53492D3*
G1X513303Y53492D3*
G1X515272Y53492D3*
G1X515272Y43256D3*
G1X513303Y43256D3*
G1X511335Y43256D3*
G1X509366Y43256D3*
G1X484470Y92718D2*
G54D83*
G1X488721Y92718D1*
G1X491874Y95871D1*
G1X504482Y34406D2*
G1X504482Y25738D1*
G1X504482Y34406D2*
G1X499326Y34406D1*
G1X499014Y34094D1*
G1X495814Y34094D1*
G1X506050Y99731D2*
G1X509675Y103356D1*
G1X528516Y103356D1*
G1X500591Y109220D2*
G1X500591Y113326D1*
G1X500148Y113769D1*
G1X500148Y116670D1*
G1X500591Y109220D2*
G1X500591Y106020D1*
G1X500148Y122268D2*
G1X500148Y126472D1*
G1X500230Y126554D1*
G1X500230Y129754D1*
G1X500230Y136764D1*
G1X510080Y39446D2*
G1X510080Y34406D1*
G1X514903Y57652D2*
G1X521125Y57652D1*
G1X526641Y63168D1*
G1X528516Y48196D2*
G1X539548Y48196D1*
G1X517437Y47390D2*
G1X518243Y48196D1*
G1X528516Y48196D1*
G1X526940Y63168D2*
G1X534016Y63168D1*
G54D66*
G1X477296Y28496D3*
G1X477296Y34094D3*
G1X485964Y28496D3*
G1X485964Y34094D3*
G1X485176Y41892D3*
G1X485176Y47490D3*
G1X478478Y156858D3*
G1X478478Y162456D3*
G1X488722Y179398D3*
G1X488722Y173800D3*
G1X504482Y20140D3*
G1X504482Y25738D3*
G1X495814Y28496D3*
G1X495814Y34094D3*
G1X507634Y63168D3*
G1X507634Y68766D3*
G1X500148Y116670D3*
G1X500148Y122268D3*
G1X526940Y63168D3*
G1X526940Y68766D3*
G1X517090Y63168D3*
G1X517090Y68766D3*
G1X528516Y95082D3*
G1X528516Y89484D3*
G1X528516Y103356D3*
G1X528516Y108954D3*
G1X549004Y89172D3*
G1X549004Y94770D3*
G1X568704Y48196D3*
G1X568704Y53794D3*
G1X552944Y48196D3*
G1X552944Y53794D3*
G1X560824Y48196D3*
G1X560824Y53794D3*
G54D81*
G1X537968Y18646D3*
G1X532456Y18646D3*
G54D26*
G1X547034Y179398D3*
G1X547034Y187800D3*
G54D10*
G36*
G1X640068Y10021D2*
G1X836913Y10021D1*
G1X836913Y110629D1*
G1X821456Y110629D1*
G75*
G2X820456Y111629I0J1000D1*
G1X820456Y111891D1*
G1X803832Y111891D1*
G1X803784Y111757D1*
G2X802842Y111092I-944J336D1*
G1X797743Y111092D1*
G1X797743Y109721D1*
G1X797543Y109521D1*
G1X797543Y108983D1*
G1X797784Y108983D1*
G1X797820Y108997D1*
G2X798199Y109072I377J-915D1*
G1X800168Y109072D1*
G2X801067Y108510I0J-1000D1*
G1X801122Y108397D1*
G1X802255Y108397D1*
G1X812515Y98137D1*
G1X812515Y95430D1*
G3X813116Y95081I402J0D1*
G2X815594Y95081I1239J-2171D1*
G3X816195Y95430I198J349D1*
G1X816195Y95818D1*
G1X816150Y95873D1*
G2X819995Y95819I1944J1571D1*
G1X819995Y89958D1*
G1X820009Y89922D1*
G2X820080Y89554I-934J-371D1*
G1X820080Y86404D1*
G2X820020Y86064I-1010J2D1*
G1X820008Y86031D1*
G1X820008Y79691D1*
G1X820020Y79658D1*
G2X820080Y79318I-944J-342D1*
G1X820080Y76168D1*
G2X819079Y75168I-1002J1D1*
G1X817110Y75168D1*
G2X816110Y76168I0J1000D1*
G1X816110Y79318D1*
G1X816111Y79368D1*
G1X816112Y79373D1*
G1X816112Y79579D1*
G1X813453Y79579D1*
G1X813445Y79587D1*
G1X812598Y79587D1*
G1X812598Y79375D1*
G1X812600Y79318D1*
G1X812600Y76168D1*
G2X812529Y75800I-1010J3D1*
G1X812515Y75764D1*
G1X812515Y74400D1*
G2X808715Y74400I-1900J-1625D1*
G1X808715Y75764D1*
G1X808701Y75800D1*
G2X808630Y76168I928J369D1*
G1X808630Y79318D1*
G2X808671Y79600I993J-1D1*
G1X808679Y79628D1*
G1X808679Y86094D1*
G1X808671Y86122D1*
G2X808630Y86404I958J283D1*
G1X808630Y89554D1*
G2X808701Y89922I994J-1D1*
G1X808715Y89958D1*
G1X808715Y96563D1*
G1X807501Y97776D1*
G3X806815Y97492I-285J-284D1*
G2X801829Y97180I-2500J-48D1*
G1X801822Y97251D1*
G1X801511Y97561D1*
G3X801168Y97419I-143J-142D1*
G1X801168Y96949D1*
G1X801178Y96918D1*
G2X801283Y96262I-1999J-657D1*
G1X801283Y94053D1*
G1X801371Y93965D1*
G1X801371Y86419D1*
G2X801872Y85552I-499J-867D1*
G1X801872Y81754D1*
G2X800871Y80753I-1002J0D1*
G1X792072Y80753D1*
G2X791264Y81164I1J1002D1*
G3X790655Y81211I-325J-237D1*
G1X785977Y76532D1*
G1X786038Y76404D1*
G2X785842Y75267I-904J-430D1*
G1X783578Y73003D1*
G2X782634Y72739I-708J709D1*
G3X782148Y72253I-96J-391D1*
G2X781883Y71309I-974J-236D1*
G1X781012Y70437D1*
G1X781012Y67382D1*
G1X780801Y67171D1*
G1X780801Y56382D1*
G1X780935Y56334D1*
G2X781601Y55392I-334J-943D1*
G1X781601Y52191D1*
G2X781392Y51579I-1003J0D1*
G3X781710Y50931I318J-246D1*
G1X781963Y50931D1*
G1X781963Y45566D1*
G1X757430Y45566D1*
G2X756743Y45293I-689J730D1*
G1X747944Y45293D1*
G2X747283Y45543I1J1003D1*
G1X741310Y45543D1*
G1X741310Y42107D1*
G1X743831Y42107D1*
G2X744020Y42089I4J-957D1*
G1X744039Y42085D1*
G1X744715Y42085D1*
G1X744715Y41571D1*
G1X744734Y41531D1*
G2X744828Y41108I-910J-424D1*
G1X744828Y37957D1*
G2X744734Y37534I-1008J1D1*
G1X744715Y37493D1*
G1X744715Y15552D1*
G1X732185Y15552D1*
G1X732185Y31266D1*
G1X723231Y31266D1*
G1X723231Y31195D1*
G1X717549Y31195D1*
G1X717549Y31054D1*
G1X717129Y31054D1*
G1X717129Y27996D1*
G2X717379Y27335I-751J-662D1*
G1X717379Y24134D1*
G2X716379Y23134I-1001J0D1*
G1X714989Y23134D1*
G1X714970Y23131D1*
G2X713988Y23131I-491J2618D1*
G1X713969Y23134D1*
G1X712579Y23134D1*
G2X711579Y24134I0J1000D1*
G1X711579Y27335D1*
G2X711829Y27996I998J0D1*
G1X711829Y31054D1*
G1X708713Y31054D1*
G1X708713Y15912D1*
G1X676206Y15912D1*
G1X676206Y31106D1*
G1X702495Y31106D1*
G1X702495Y44156D1*
G1X691965Y44156D1*
G1X691965Y45387D1*
G1X685093Y45387D1*
G1X685012Y45305D1*
G1X679725Y45305D1*
G1X669240Y55790D1*
G1X669240Y64509D1*
G1X668369Y65380D1*
G2X668105Y66325I708J707D1*
G3X667619Y66810I-391J94D1*
G2X666674Y67075I-237J973D1*
G1X664411Y69338D1*
G2X664215Y70476I707J707D1*
G1X664276Y70604D1*
G1X661257Y73623D1*
G1X656564Y73623D1*
G1X656564Y73361D1*
G2X655564Y72361I-1001J0D1*
G1X640068Y72361D1*
G1X640068Y10021D1*
G37*
G36*
G1X679232Y98085D2*
G1X679232Y120620D1*
G1X685350Y120620D1*
G1X685350Y131300D1*
G1X707577Y131300D1*
G1X707577Y136761D1*
G2X712877Y136761I2650J0D1*
G1X712877Y131300D1*
G1X721329Y131300D1*
G1X721329Y132854D1*
G2X725129Y132854I1900J1625D1*
G1X725129Y131300D1*
G1X741522Y131300D1*
G1X741522Y98122D1*
G1X775471Y98122D1*
G1X775471Y96699D1*
G1X775596Y96574D1*
G1X776912Y96574D1*
G1X778205Y97867D1*
G2X779620Y97867I707J-707D1*
G1X781883Y95603D1*
G2X782148Y94659I-708J-708D1*
G3X782634Y94173I391J-95D1*
G2X783578Y93909I237J-970D1*
G1X785842Y91645D1*
G2X786118Y90756I-709J-708D1*
G1X786099Y90652D1*
G1X790655Y86095D1*
G3X791264Y86142I284J284D1*
G2X792072Y86553I807J-588D1*
G1X797171Y86553D1*
G1X797171Y92231D1*
G1X797083Y92319D1*
G1X797083Y96262D1*
G2X797188Y96918I2094J1D1*
G1X797198Y96949D1*
G1X797198Y97836D1*
G2X797211Y97991I976J-4D1*
G1X797213Y98006D1*
G1X797213Y98223D1*
G1X793673Y98223D1*
G1X793673Y98006D1*
G1X793676Y97991D1*
G2X793688Y97836I-1021J-158D1*
G1X793688Y96949D1*
G1X793698Y96918D1*
G2X793698Y95604I-1997J-657D1*
G1X793688Y95573D1*
G1X793688Y94686D1*
G2X792688Y93686I-1001J0D1*
G1X790718Y93686D1*
G2X789867Y94161I0J1001D1*
G1X787287Y94161D1*
G1X777783Y103665D1*
G1X777783Y105575D1*
G1X772766Y105575D1*
G2X771824Y106241I1J1001D1*
G1X771776Y106375D1*
G1X769258Y106375D1*
G1X716079Y159553D1*
G1X709250Y159553D1*
G2X708308Y160219I1J1001D1*
G1X708260Y160353D1*
G1X707217Y160353D1*
G1X707149Y160285D1*
G1X703961Y160285D1*
G1X703961Y158188D1*
G1X701799Y158188D1*
G1X701799Y139131D1*
G1X690432Y139131D1*
G1X690400Y139120D1*
G2X690075Y139066I-328J965D1*
G1X686874Y139066D1*
G2X686518Y139131I2J1020D1*
G1X685570Y139131D1*
G1X685570Y159484D1*
G3X685851Y160163I-11J401D1*
G2X685709Y160353I732J695D1*
G1X682792Y160353D1*
G1X682744Y160219D1*
G2X681802Y159553I-944J335D1*
G1X676703Y159553D1*
G1X676703Y157561D1*
G1X658119Y138977D1*
G1X656564Y138977D1*
G1X656564Y138715D1*
G2X655564Y137715I-1001J0D1*
G1X640068Y137715D1*
G1X640068Y79085D1*
G1X655564Y79085D1*
G2X656564Y78085I0J-1000D1*
G1X656564Y77823D1*
G1X661157Y77823D1*
G1X663882Y80548D1*
G1X663821Y80676D1*
G2X664017Y81814I902J430D1*
G1X666280Y84077D1*
G2X667225Y84342I707J-706D1*
G3X667711Y84827I95J390D1*
G2X667975Y85772I969J238D1*
G1X670239Y88036D1*
G2X671653Y88036I707J-707D1*
G1X672947Y86742D1*
G1X674263Y86742D1*
G1X674456Y86935D1*
G1X678292Y86935D1*
G3X678641Y87536I-1J402D1*
G2X681514Y91175I2171J1239D1*
G1X685350Y91175D1*
G1X685350Y98085D1*
G1X679232Y98085D1*
G37*
G36*
G1X657061Y143859D2*
G1X672503Y159301D1*
G1X672503Y159687D1*
G2X672002Y160554I499J866D1*
G1X672002Y164352D1*
G2X673003Y165353I1000J-1D1*
G1X681802Y165353D1*
G2X682744Y164687I-1J-1001D1*
G1X682792Y164553D1*
G1X685709Y164553D1*
G2X686575Y165054I865J-498D1*
G1X689277Y165054D1*
G3X689561Y165740I-1J401D1*
G1X687363Y167938D1*
G1X687363Y170979D1*
G1X682064Y170979D1*
G2X681078Y171811I0J1000D1*
G1X681050Y171979D1*
G1X673110Y171979D1*
G1X651277Y193812D1*
G1X646762Y193812D1*
G2X645762Y194813I0J1000D1*
G1X645762Y201014D1*
G2X646762Y202014I999J0D1*
G1X652964Y202014D1*
G2X653964Y201014I0J-1000D1*
G1X653964Y196500D1*
G1X674684Y175779D1*
G1X681050Y175779D1*
G1X681078Y175946D1*
G2X682064Y176779I985J-167D1*
G1X690864Y176779D1*
G2X691850Y175946I-1J-1001D1*
G1X691878Y175779D1*
G1X695887Y175779D1*
G1X695945Y175883D1*
G2X696820Y176398I873J-484D1*
G1X700618Y176398D1*
G2X701618Y175398I0J-1000D1*
G1X701618Y172196D1*
G2X700618Y171196I-1001J0D1*
G1X696820Y171196D1*
G2X695910Y171780I0J1001D1*
G1X695857Y171897D1*
G1X694732Y171897D1*
G1X694650Y171979D1*
G1X691878Y171979D1*
G1X691850Y171811D1*
G2X691280Y171070I-988J170D1*
G1X691163Y171017D1*
G1X691163Y169512D1*
G1X694422Y166253D1*
G1X695773Y166253D1*
G1X695773Y168493D1*
G1X703961Y168493D1*
G1X703961Y164485D1*
G1X705407Y164485D1*
G1X705475Y164553D1*
G1X708260Y164553D1*
G1X708308Y164687D1*
G2X709250Y165353I941J-333D1*
G1X718049Y165353D1*
G2X719050Y164352I0J-1001D1*
G1X719050Y162523D1*
G1X770998Y110575D1*
G1X771776Y110575D1*
G1X771824Y110709D1*
G2X772766Y111375I941J-333D1*
G1X781565Y111375D1*
G2X782566Y110374I0J-1001D1*
G1X782566Y106575D1*
G2X782081Y105718I-1002J0D1*
G1X781983Y105660D1*
G1X781983Y105405D1*
G1X789027Y98361D1*
G1X789655Y98361D1*
G1X789655Y104506D1*
G1X789738Y104506D1*
G1X789738Y104725D1*
G1X789735Y104743D1*
G2X789719Y104922I969J176D1*
G1X789719Y108072D1*
G2X790719Y109072I999J0D1*
G1X793343Y109072D1*
G1X793343Y111377D1*
G2X793042Y112092I699J715D1*
G1X793042Y115891D1*
G2X794042Y116891I999J0D1*
G1X802842Y116891D1*
G2X803784Y116225I-1J-1001D1*
G1X803832Y116091D1*
G1X820456Y116091D1*
G1X820456Y116353D1*
G2X821456Y117353I999J0D1*
G1X836913Y117353D1*
G1X836913Y206803D1*
G1X640068Y206803D1*
G1X640068Y144439D1*
G1X655564Y144439D1*
G2X656429Y143941I0J-1000D1*
G3X657061Y143859I347J202D1*
G37*
G36*
G1X677206Y16912D2*
G1X707713Y16912D1*
G1X707713Y30106D1*
G1X677206Y30106D1*
G1X677206Y16912D1*
G37*
G36*
G1X668511Y73439D2*
G1X670775Y71175D1*
G2X671039Y70231I-709J-708D1*
G3X671525Y69745I391J-95D1*
G2X672470Y69481I238J-970D1*
G1X674733Y67217D1*
G2X674733Y65803I-708J-707D1*
G1X673440Y64510D1*
G1X673440Y57530D1*
G1X681465Y49505D1*
G1X683270Y49505D1*
G1X683352Y49587D1*
G1X691965Y49587D1*
G1X691965Y50156D1*
G1X701320Y50156D1*
G1X701363Y50178D1*
G2X701814Y50286I450J-885D1*
G1X702495Y50286D1*
G1X702495Y52779D1*
G1X702159Y52779D1*
G2X702071Y52783I15J1324D1*
G1X702062Y52784D1*
G1X696870Y52784D1*
G1X696861Y52783D1*
G2X696773Y52779I-105J1334D1*
G1X693572Y52779D1*
G1X693485Y52783D1*
G1X693476Y52784D1*
G1X692470Y52784D1*
G1X692470Y74913D1*
G1X706361Y74913D1*
G1X706361Y65852D1*
G1X706370Y65830D1*
G1X717908Y65830D1*
G1X718551Y66473D1*
G1X718551Y67455D1*
G1X718631Y67535D1*
G1X718631Y75748D1*
G1X720819Y77937D1*
G1X720827Y78007D1*
G2X723577Y75257I2486J-264D1*
G1X723507Y75249D1*
G1X722431Y74174D1*
G1X722431Y65830D1*
G1X730265Y65830D1*
G1X730309Y65874D1*
G1X730309Y72966D1*
G2X734109Y72966I1900J1625D1*
G1X734109Y65830D1*
G1X741310Y65830D1*
G1X741310Y65815D1*
G1X744013Y65815D1*
G2X744013Y60515I-1J-2650D1*
G1X741310Y60515D1*
G1X741310Y50843D1*
G1X747283Y50843D1*
G2X747944Y51093I660J-747D1*
G1X756743Y51093D1*
G2X757245Y50958I1J-996D1*
G1X757292Y50931D1*
G1X775693Y50931D1*
G3X776011Y51579I-1J402D1*
G2X775802Y52191I791J611D1*
G1X775802Y55392D1*
G2X776467Y56334I999J0D1*
G1X776601Y56382D1*
G1X776601Y68909D1*
G1X776812Y69120D1*
G1X776812Y70439D1*
G1X775519Y71731D1*
G2X775519Y73146I706J707D1*
G1X777783Y75409D1*
G2X778727Y75673I706J-707D1*
G3X779213Y76159I94J391D1*
G2X779477Y77104I969J238D1*
G1X781741Y79367D1*
G2X782878Y79563I707J-706D1*
G1X783007Y79502D1*
G1X787157Y83653D1*
G1X784376Y86434D1*
G1X783982Y86434D1*
G1X783007Y87409D1*
G1X782878Y87349D1*
G2X781741Y87544I-431J903D1*
G1X779477Y89808D1*
G2X779213Y90752I708J706D1*
G3X778727Y91238I-391J95D1*
G2X777783Y91503I-236J973D1*
G1X776912Y92374D1*
G1X775471Y92374D1*
G1X775471Y91698D1*
G1X741522Y91698D1*
G1X741522Y81620D1*
G1X728581Y81620D1*
G2X725068Y81359I-1889J1640D1*
G1X715206Y81359D1*
G1X715177Y81191D1*
G2X714191Y80359I-987J168D1*
G1X710990Y80359D1*
G2X709990Y81359I0J1000D1*
G1X709990Y81620D1*
G1X685350Y81620D1*
G1X685350Y82735D1*
G1X676196Y82735D1*
G1X676003Y82542D1*
G1X672946Y82542D1*
G1X672076Y81671D1*
G2X671131Y81407I-708J710D1*
G3X670645Y80921I-96J-391D1*
G2X670381Y79977I-973J-237D1*
G1X668117Y77713D1*
G2X666980Y77517I-708J708D1*
G1X666852Y77578D1*
G1X665047Y75773D1*
G1X667246Y73574D1*
G1X667374Y73635D1*
G2X668511Y73439I429J-902D1*
G37*
G36*
G1X693470Y73913D2*
G1X693470Y53784D1*
G1X705361Y53784D1*
G1X705361Y73913D1*
G1X693470Y73913D1*
G37*
G36*
G1X680232Y119620D2*
G1X680232Y99085D1*
G1X690471Y99085D1*
G1X690471Y119620D1*
G1X680232Y119620D1*
G37*
G36*
G1X686570Y158484D2*
G1X686570Y140131D1*
G1X700799Y140131D1*
G1X700799Y158484D1*
G1X694950Y158484D1*
G1X694948Y158482D1*
G2X691376Y158484I-1786J902D1*
G1X686570Y158484D1*
G37*
G36*
G1X714881Y92756D2*
G1X727083Y92756D1*
G1X727083Y96632D1*
G1X714881Y96632D1*
G1X714881Y92756D1*
G37*
G36*
G1X733185Y41085D2*
G1X733185Y16552D1*
G1X743715Y16552D1*
G1X743715Y41085D1*
G1X733185Y41085D1*
G37*
G36*
G1X726361Y45354D2*
G2X726701Y44986I-541J-841D1*
G1X726758Y44880D1*
G1X728681Y44880D1*
G1X728681Y51863D1*
G1X726759Y51863D1*
G1X726702Y51757D1*
G2X726361Y51388I-887J477D1*
G1X726269Y51329D1*
G1X726269Y45413D1*
G1X726361Y45354D1*
G37*
G36*
G1X728706Y126118D2*
G1X728706Y107351D1*
G1X740438Y107351D1*
G1X740438Y126118D1*
G1X728706Y126118D1*
G37*
%LPC*%
G36*
G1X768646Y168572D2*
G1X785182Y168572D1*
G3X785330Y168583I-8J1099D1*
G1X785345Y168586D1*
G1X786388Y168586D1*
G1X786388Y183047D1*
G1X786422Y183047D1*
G1X786422Y184299D1*
G1X785976Y184299D1*
G1X785976Y202073D1*
G1X753512Y202073D1*
G1X753512Y184299D1*
G1X753393Y184299D1*
G1X753393Y183038D1*
G1X753380Y183038D1*
G1X753380Y168586D1*
G1X768481Y168586D1*
G1X768496Y168583D1*
G3X768646Y168572I154J1081D1*
G37*
G74*
G54D46*
G1X659863Y197913D3*
G1X669863Y197913D3*
G1X679863Y197913D3*
G1X689863Y197913D3*
G1X699863Y197913D3*
G54D45*
G1X709863Y197913D3*
G1X719863Y197913D3*
G1X729863Y197913D3*
G1X739863Y197913D3*
%LPD*%
G36*
G1X754380Y169586D2*
G1X785388Y169586D1*
G1X785388Y182038D1*
G1X754380Y182038D1*
G1X754380Y169586D1*
G37*
G36*
G1X754512Y185303D2*
G1X784976Y185303D1*
G1X784976Y201073D1*
G1X754512Y201073D1*
G1X754512Y185303D1*
G37*
G1X680813Y88775D2*
G54D10*
G1X690826Y88775D1*
G1X694467Y92416D1*
G1X694467Y92715D1*
G1X659698Y19817D3*
G1X649855Y19817D3*
G1X649855Y29660D3*
G1X659698Y29660D3*
G1X659698Y39503D3*
G1X649855Y39503D3*
G1X659698Y59188D3*
G1X649855Y59188D3*
G1X649855Y49345D3*
G1X659698Y49345D3*
G1X659698Y69030D3*
G1X649855Y98558D3*
G1X659698Y98558D3*
G1X649855Y108400D3*
G1X649855Y118243D3*
G1X659698Y118243D3*
G1X659698Y108400D3*
G1X659698Y128085D3*
G1X649855Y177298D3*
G1X659698Y177298D3*
G1X659698Y167455D3*
G1X649855Y167455D3*
G1X649855Y187140D3*
G1X669541Y19817D3*
G1X669541Y29660D3*
G1X669541Y39503D3*
G1X674856Y34384D3*
G1X669541Y49345D3*
G1X675813Y77875D3*
G1X669541Y98558D3*
G1X676233Y106235D3*
G1X669541Y108400D3*
G1X669541Y118243D3*
G1X669541Y128085D3*
G1X679383Y128085D3*
G1X669541Y137928D3*
G1X677808Y142259D3*
G1X678202Y149345D3*
G1X669541Y147770D3*
G1X682926Y38321D3*
G1X684698Y59384D3*
G1X696513Y77875D3*
G1X689413Y77875D3*
G1X682713Y77875D3*
G1X682713Y71175D3*
G1X689713Y71175D3*
G1X693163Y159384D3*
G1X698674Y183991D3*
G1X700643Y38125D3*
G1X714139Y49936D3*
G1X713438Y44217D3*
G1X702413Y78075D3*
G1X709413Y71375D3*
G1X709313Y75075D3*
G1X713913Y75175D3*
G1X708813Y97875D3*
G1X710732Y95868D3*
G1X708813Y93875D3*
G1X712613Y93975D3*
G1X712713Y97975D3*
G1X699871Y161785D3*
G1X699871Y164345D3*
G1X720525Y46589D3*
G1X720513Y50175D3*
G1X724113Y46575D3*
G1X722316Y48371D3*
G1X724013Y50275D3*
G1X723674Y74148D3*
G1X738438Y167455D3*
G1X751824Y15881D3*
G1X752415Y29660D3*
G1X752415Y23164D3*
G1X748281Y59188D3*
G1X758123Y59188D3*
G1X758123Y69030D3*
G1X758123Y78873D3*
G1X748281Y78873D3*
G1X748281Y69030D3*
G1X741981Y68833D3*
G1X747887Y111353D3*
G1X749265Y120408D3*
G1X758123Y128085D3*
G1X748281Y137928D3*
G1X758123Y147770D3*
G1X758123Y157613D3*
G1X748281Y157613D3*
G1X748281Y167455D3*
G1X767966Y19817D3*
G1X777808Y19817D3*
G1X777808Y29660D3*
G1X767966Y29660D3*
G1X767966Y59188D3*
G1X767966Y69030D3*
G1X767966Y78873D3*
G1X767966Y88715D3*
G1X758911Y84778D3*
G1X777808Y128085D3*
G1X777808Y137928D3*
G1X767966Y137928D3*
G1X777808Y147770D3*
G1X767966Y147770D3*
G1X767966Y157613D3*
G1X787651Y19817D3*
G1X797493Y19817D3*
G1X787651Y29660D3*
G1X797493Y29660D3*
G1X797493Y39503D3*
G1X787651Y39503D3*
G1X797493Y49345D3*
G1X797493Y59188D3*
G1X787651Y59188D3*
G1X787651Y49345D3*
G1X797493Y69030D3*
G1X787651Y137928D3*
G1X787651Y128085D3*
G1X797493Y128085D3*
G1X797493Y137928D3*
G1X787651Y147770D3*
G1X797493Y157613D3*
G1X787651Y157613D3*
G1X797493Y167455D3*
G1X797493Y177298D3*
G1X789422Y193833D3*
G1X797493Y187140D3*
G1X807336Y19817D3*
G1X817178Y19817D3*
G1X807336Y29660D3*
G1X817178Y29660D3*
G1X817178Y39503D3*
G1X807336Y39503D3*
G1X817178Y49345D3*
G1X817178Y59188D3*
G1X807336Y59188D3*
G1X807336Y49345D3*
G1X817178Y69030D3*
G1X807336Y69030D3*
G1X817178Y108400D3*
G1X817178Y118243D3*
G1X807336Y128085D3*
G1X817178Y128085D3*
G1X807336Y137928D3*
G1X817178Y137928D3*
G1X807336Y157613D3*
G1X817178Y157613D3*
G1X807336Y177298D3*
G1X807336Y167455D3*
G1X817178Y167455D3*
G1X817178Y177298D3*
G1X817178Y187140D3*
G1X807336Y187140D3*
G1X827021Y19817D3*
G1X827021Y29660D3*
G1X827021Y39503D3*
G1X827021Y49345D3*
G1X827021Y59188D3*
G1X827021Y69030D3*
G1X827021Y78873D3*
G1X827021Y88715D3*
G1X827021Y137928D3*
G1X827021Y157613D3*
G1X827021Y147770D3*
G1X827021Y177298D3*
G1X827021Y167455D3*
G1X827021Y187140D3*
G1X827021Y196983D3*
G54D72*
G1X647887Y64896D3*
G1X647887Y75723D3*
G1X647887Y86550D3*
G1X647887Y130250D3*
G1X647887Y151904D3*
G1X647887Y141077D3*
G1X829133Y103164D3*
G1X829133Y113991D3*
G1X829133Y124818D3*
G54D70*
G1X699857Y163369D3*
G54D78*
G1X696313Y160416D3*
G1X696313Y162385D3*
G1X696313Y164353D3*
G1X696313Y166322D3*
G1X716047Y97837D3*
G1X716047Y95868D3*
G1X716047Y93900D3*
G1X705417Y93900D3*
G1X705417Y95868D3*
G1X705417Y97837D3*
G1X703400Y166322D3*
G1X703400Y164353D3*
G1X703400Y162385D3*
G1X703400Y160416D3*
G54D43*
G1X649863Y197913D3*
G54D75*
G1X776913Y175675D3*
G54D79*
G1X795443Y96261D3*
G1X791703Y96261D3*
G1X791703Y106497D3*
G1X795443Y106497D3*
G1X818095Y77743D3*
G1X814355Y77743D3*
G1X810615Y77743D3*
G1X799183Y96261D3*
G1X810615Y87979D3*
G1X814355Y87979D3*
G1X818095Y87979D3*
G1X799183Y106497D3*
G54D44*
G1X659863Y197913D3*
G1X669863Y197913D3*
G1X679863Y197913D3*
G1X689863Y197913D3*
G1X699863Y197913D3*
G1X709863Y197913D3*
G1X719863Y197913D3*
G1X729863Y197913D3*
G1X739863Y197913D3*
G54D74*
G1X717198Y45418D3*
G1X717198Y47387D3*
G1X717198Y49355D3*
G1X717198Y51324D3*
G1X727434Y51324D3*
G1X727434Y49355D3*
G1X727434Y47387D3*
G1X727434Y45418D3*
G54D76*
G1X809590Y147722D3*
G1X809590Y198706D3*
G54D11*
G1X680201Y21401D3*
G1X680813Y88775D3*
G1X686505Y21401D3*
G1X692809Y21401D3*
G1X699113Y21401D3*
G1X696355Y70257D3*
G1X685323Y115961D3*
G1X682959Y109263D3*
G1X695961Y155361D3*
G1X695961Y143147D3*
G1X695961Y149057D3*
G1X704629Y21401D3*
G1X701871Y70257D3*
G1X704990Y114092D3*
G1X710227Y136761D3*
G1X735755Y20219D3*
G1X735755Y26917D3*
G1X735755Y34009D3*
G1X723313Y77743D3*
G1X732209Y74591D3*
G1X726693Y83259D3*
G1X723147Y113188D3*
G1X731815Y110445D3*
G1X731815Y116749D3*
G1X731815Y123447D3*
G1X723229Y134479D3*
G1X744013Y63165D3*
G1X757819Y198307D3*
G1X764123Y188457D3*
G1X772397Y193185D3*
G1X766487Y193185D3*
G1X769639Y198307D3*
G1X775549Y198307D3*
G1X770033Y188457D3*
G1X775549Y188457D3*
G1X763729Y198307D3*
G1X810615Y72775D3*
G1X804315Y97444D3*
G1X818095Y97444D3*
G1X814355Y92909D3*
G54D52*
G1X710732Y95868D3*
G1X715262Y197913D2*
G54D14*
G1X719863Y197913D1*
G1X709863Y193313D2*
G1X709863Y197913D1*
G1X709863Y202514D1*
G1X705262Y197913D2*
G1X709863Y197913D1*
G1X714464Y197913D1*
G1X735262Y197913D2*
G1X739863Y197913D1*
G1X729863Y193313D2*
G1X729863Y197913D1*
G1X729863Y202514D1*
G1X725262Y197913D2*
G1X729863Y197913D1*
G1X734464Y197913D1*
G1X719863Y193313D2*
G1X719863Y197913D1*
G1X719863Y202514D1*
G1X719863Y197913D2*
G1X724464Y197913D1*
G1X739863Y193313D2*
G1X739863Y197913D1*
G1X739863Y202514D1*
G1X739863Y197913D2*
G1X744464Y197913D1*
G54D80*
G1X679413Y34005D3*
G1X679413Y28493D3*
G54D77*
G1X712700Y90554D3*
G1X710732Y90554D3*
G1X708763Y90554D3*
G1X708763Y101183D3*
G1X710732Y101183D3*
G1X712700Y101183D3*
G1X683665Y173879D2*
G54D15*
G1X673897Y173879D1*
G1X649863Y197913D1*
G1X688869Y92715D2*
G1X683848Y92715D1*
G1X701871Y95868D2*
G1X705417Y95868D1*
G1X705417Y97837D2*
G1X702265Y100989D1*
G1X694467Y100989D1*
G1X694467Y108869D2*
G1X699126Y108869D1*
G1X706812Y101183D1*
G1X708763Y101183D1*
G1X694737Y167849D2*
G1X696265Y166322D1*
G1X696313Y166322D1*
G1X696313Y160416D2*
G1X694194Y160416D1*
G1X693163Y159384D1*
G1X689263Y173879D2*
G1X689263Y168725D1*
G1X693635Y164353D1*
G1X696313Y164353D1*
G1X689263Y173879D2*
G1X695437Y173879D1*
G1X695519Y173797D1*
G1X698719Y173797D1*
G1X717198Y45418D2*
G1X714639Y45418D1*
G1X713438Y44217D1*
G1X717198Y49355D2*
G1X715003Y49355D1*
G1X714422Y49936D1*
G1X714139Y49936D1*
G1X719363Y53489D2*
G1X719363Y58532D1*
G1X717631Y60264D1*
G1X717631Y63165D1*
G1X717198Y51324D2*
G1X717140Y51324D1*
G1X716359Y52105D1*
G1X712632Y52105D1*
G1X709357Y55380D1*
G1X709357Y55679D1*
G1X709413Y68775D2*
G1X709439Y68749D1*
G1X709439Y63559D1*
G1X723313Y77743D2*
G1X720531Y74961D1*
G1X720531Y66748D1*
G1X720451Y66668D1*
G1X720451Y65686D1*
G1X717930Y63165D1*
G1X717631Y63165D1*
G1X706993Y83259D2*
G1X706993Y80593D1*
G1X712700Y90554D2*
G1X712700Y86568D1*
G1X712591Y86459D1*
G1X712591Y83259D1*
G1X726693Y83259D2*
G1X712591Y83259D1*
G1X716047Y97837D2*
G1X716047Y99728D1*
G1X716047Y95868D2*
G1X716047Y97837D1*
G1X710588Y106017D2*
G1X710732Y105873D1*
G1X710732Y101183D1*
G1X704990Y109217D2*
G1X704990Y114092D1*
G1X712700Y101183D2*
G1X712700Y104115D1*
G1X717549Y108964D1*
G1X717549Y109263D1*
G1X717549Y113861D1*
G1X717631Y113943D1*
G1X717631Y117143D1*
G1X717631Y125023D1*
G1X704629Y129751D2*
G1X704629Y132957D1*
G1X706077Y165881D2*
G1X706077Y165193D1*
G1X705171Y159384D2*
G1X704139Y160416D1*
G1X703400Y160416D1*
G1X705415Y166322D2*
G1X703400Y166322D1*
G1X706077Y165193D2*
G1X705237Y164353D1*
G1X703400Y164353D1*
G1X721332Y43253D2*
G1X721332Y40693D1*
G1X720082Y39443D1*
G1X720077Y39443D1*
G1X719363Y40157D1*
G1X719363Y43253D1*
G1X721332Y53489D2*
G1X721332Y57709D1*
G1X726788Y63165D1*
G1X727087Y63165D1*
G1X723300Y53489D2*
G1X723300Y56049D1*
G1X724900Y57649D1*
G1X736638Y63165D2*
G1X736937Y63165D1*
G1X727087Y63165D2*
G1X730287Y63165D1*
G1X732209Y65087D1*
G1X732209Y74591D1*
G1X738513Y89481D2*
G1X744519Y89481D1*
G1X723147Y109263D2*
G1X723147Y113188D1*
G1X723229Y117143D2*
G1X723229Y113270D1*
G1X723147Y113188D1*
G1X723229Y125023D2*
G1X723229Y134479D1*
G1X804315Y97444D2*
G1X800446Y101314D1*
G1X794012Y101314D1*
G1X791703Y103622D1*
G1X791703Y106497D1*
G1X810615Y77743D2*
G1X810615Y72775D1*
G1X799183Y106497D2*
G1X801468Y106497D1*
G1X810615Y97350D1*
G1X810615Y87979D1*
G1X810615Y85104D1*
G1X814240Y81479D1*
G1X817234Y81479D1*
G1X818095Y80618D1*
G1X818095Y77743D1*
G1X814355Y87979D2*
G1X814355Y92909D1*
G1X818095Y87979D2*
G1X818095Y97444D1*
G54D65*
G1X667593Y70257D3*
G1X671551Y66299D3*
G1X778701Y94685D3*
G1X782660Y90726D3*
G54D71*
G1X738513Y39532D3*
G1X738513Y48193D3*
G1X647887Y75723D2*
G54D42*
G1X662127Y75723D1*
G1X647887Y141077D2*
G1X657249Y141077D1*
G1X674603Y158431D1*
G1X674603Y162453D1*
G1X695173Y47487D2*
G1X684223Y47487D1*
G1X684141Y47405D1*
G1X680595Y47405D1*
G1X671340Y56660D1*
G1X671340Y66088D1*
G1X671551Y66299D1*
G1X662127Y75723D2*
G1X667593Y70257D1*
G1X667199Y80895D2*
G1X662127Y75823D1*
G1X662127Y75723D1*
G1X688869Y84835D2*
G1X675326Y84835D1*
G1X675133Y84642D1*
G1X671368Y84642D1*
G1X671157Y84853D1*
G1X703415Y47386D2*
G1X698674Y47386D1*
G1X698573Y47487D1*
G1X695173Y47487D1*
G1X694467Y84835D2*
G1X698443Y84835D1*
G1X705417Y91809D1*
G1X705417Y93900D1*
G1X688475Y162453D2*
G1X693367Y162453D1*
G1X693435Y162385D1*
G1X696313Y162385D1*
G1X688475Y162453D2*
G1X680201Y162453D1*
G1X710851Y162453D2*
G1X706346Y162453D1*
G1X706278Y162385D1*
G1X703400Y162385D1*
G1X774367Y108475D2*
G1X770128Y108475D1*
G1X716449Y162154D1*
G1X716449Y162453D1*
G1X731109Y94685D2*
G1X734719Y94685D1*
G1X735113Y95079D1*
G1X738513Y95079D1*
G1X742504Y95079D1*
G1X742898Y94685D1*
G1X745999Y94685D1*
G1X755143Y48193D2*
G1X762941Y48193D1*
G1X751597Y94685D2*
G1X755519Y94685D1*
G1X755601Y94767D1*
G1X759001Y94767D1*
G1X762941Y48193D2*
G1X770821Y48193D1*
G1X778701Y48193D1*
G1X759001Y94767D2*
G1X774432Y94767D1*
G1X774725Y94474D1*
G1X778490Y94474D1*
G1X778701Y94685D1*
G1X778701Y53791D2*
G1X778701Y68040D1*
G1X778912Y68251D1*
G1X778912Y72016D1*
G1X778701Y72227D1*
G1X782660Y76185D2*
G1X782659Y76185D1*
G1X790127Y83653D1*
G1X779965Y108475D2*
G1X779883Y108393D1*
G1X779883Y104535D1*
G1X788157Y96261D1*
G1X791703Y96261D1*
G1X790127Y83653D2*
G1X793673Y83653D1*
G1X782660Y90726D2*
G1X782659Y90727D1*
G1X784852Y88534D1*
G1X785246Y88534D1*
G1X790127Y83653D1*
G1X795443Y106497D2*
G1X795443Y110391D1*
G1X795643Y110591D1*
G1X795643Y113991D1*
G1X799271Y83653D2*
G1X799271Y93098D1*
G1X799183Y93186D1*
G1X799183Y96261D1*
G1X801241Y113991D2*
G1X829133Y113991D1*
G54D54*
G1X667199Y80895D3*
G1X671157Y84853D3*
G1X778701Y72227D3*
G1X782660Y76185D3*
G54D69*
G1X722316Y48371D3*
G1X717198Y47387D2*
G54D82*
G1X712014Y47387D1*
G1X712013Y47386D1*
G1X709013Y47386D1*
G54D64*
G1X676261Y100989D3*
G1X680201Y162453D3*
G1X674603Y162453D3*
G1X695173Y55679D3*
G1X689575Y55679D3*
G1X695173Y63559D3*
G1X689575Y63559D3*
G1X688869Y92715D3*
G1X694467Y92715D3*
G1X688869Y84835D3*
G1X694467Y84835D3*
G1X681859Y100989D3*
G1X688869Y100989D3*
G1X694467Y100989D3*
G1X688869Y108869D3*
G1X694467Y108869D3*
G1X688475Y141965D3*
G1X682877Y141965D3*
G1X688475Y149451D3*
G1X682877Y149451D3*
G1X689263Y173879D3*
G1X683665Y173879D3*
G1X714479Y34403D3*
G1X703415Y47386D3*
G1X709013Y47386D3*
G1X709357Y55679D3*
G1X703759Y55679D3*
G1X703841Y63559D3*
G1X709439Y63559D3*
G1X706993Y83259D3*
G1X712591Y83259D3*
G1X704990Y109217D3*
G1X710588Y109217D3*
G1X717549Y109263D3*
G1X717631Y117143D3*
G1X704629Y129751D3*
G1X710227Y129751D3*
G1X717631Y125023D3*
G1X716449Y162453D3*
G1X710851Y162453D3*
G1X720077Y34403D3*
G1X725511Y94685D3*
G1X731109Y94685D3*
G1X738431Y116355D3*
G1X723147Y109263D3*
G1X723229Y117143D3*
G1X738431Y124235D3*
G1X723229Y125023D3*
G1X742059Y25341D3*
G1X747657Y25341D3*
G1X742059Y33221D3*
G1X747657Y33221D3*
G1X749545Y48193D3*
G1X755143Y48193D3*
G1X745999Y94685D3*
G1X751597Y94685D3*
G1X744029Y116355D3*
G1X744029Y124235D3*
G1X774367Y108475D3*
G1X793673Y83653D3*
G1X795643Y113991D3*
G1X779965Y108475D3*
G1X788945Y199095D3*
G1X783347Y199095D3*
G1X799271Y83653D3*
G1X801241Y113991D3*
G54D73*
G1X719363Y53489D3*
G1X721332Y53489D3*
G1X723300Y53489D3*
G1X725269Y53489D3*
G1X725269Y43253D3*
G1X723300Y43253D3*
G1X721332Y43253D3*
G1X719363Y43253D3*
G1X694467Y92715D2*
G54D83*
G1X698718Y92715D1*
G1X701871Y95868D1*
G1X714479Y34403D2*
G1X714479Y25735D1*
G1X714479Y34403D2*
G1X709323Y34403D1*
G1X709011Y34091D1*
G1X705811Y34091D1*
G1X716047Y99728D2*
G1X719672Y103353D1*
G1X738513Y103353D1*
G1X710588Y109217D2*
G1X710588Y113323D1*
G1X710145Y113766D1*
G1X710145Y116667D1*
G1X710588Y109217D2*
G1X710588Y106017D1*
G1X710145Y122265D2*
G1X710145Y126469D1*
G1X710227Y126551D1*
G1X710227Y129751D1*
G1X710227Y136761D1*
G1X720077Y39443D2*
G1X720077Y34403D1*
G1X724900Y57649D2*
G1X731122Y57649D1*
G1X736638Y63165D1*
G1X738513Y48193D2*
G1X749545Y48193D1*
G1X727434Y47387D2*
G1X728240Y48193D1*
G1X738513Y48193D1*
G1X736937Y63165D2*
G1X744013Y63165D1*
G54D66*
G1X687293Y28493D3*
G1X687293Y34091D3*
G1X695961Y28493D3*
G1X695961Y34091D3*
G1X695173Y41889D3*
G1X695173Y47487D3*
G1X688475Y156855D3*
G1X688475Y162453D3*
G1X698719Y179395D3*
G1X698719Y173797D3*
G1X714479Y20137D3*
G1X714479Y25735D3*
G1X705811Y28493D3*
G1X705811Y34091D3*
G1X717631Y63165D3*
G1X717631Y68763D3*
G1X710145Y116667D3*
G1X710145Y122265D3*
G1X736937Y63165D3*
G1X736937Y68763D3*
G1X727087Y63165D3*
G1X727087Y68763D3*
G1X738513Y95079D3*
G1X738513Y89481D3*
G1X738513Y103353D3*
G1X738513Y108951D3*
G1X759001Y89169D3*
G1X759001Y94767D3*
G1X778701Y48193D3*
G1X778701Y53791D3*
G1X762941Y48193D3*
G1X762941Y53791D3*
G1X770821Y48193D3*
G1X770821Y53791D3*
G54D81*
G1X747965Y18643D3*
G1X742453Y18643D3*
G54D26*
G1X757031Y179395D3*
G1X757031Y187797D3*
G54D10*
G36*
G1X640067Y219997D2*
G1X836912Y219997D1*
G1X836912Y320605D1*
G1X821455Y320605D1*
G75*
G2X820455Y321605I-1J999D1*
G1X820455Y321867D1*
G1X803831Y321867D1*
G1X803783Y321733D1*
G2X802841Y321068I-941J332D1*
G1X797742Y321068D1*
G1X797742Y319697D1*
G1X797542Y319497D1*
G1X797542Y318959D1*
G1X797783Y318959D1*
G1X797819Y318973D1*
G2X798198Y319048I385J-953D1*
G1X800167Y319048D1*
G2X801066Y318486I-1J-1002D1*
G1X801121Y318373D1*
G1X802254Y318373D1*
G1X812514Y308113D1*
G1X812514Y305406D1*
G3X813115Y305057I401J-1D1*
G2X815593Y305057I1239J-2176D1*
G3X816194Y305406I199J348D1*
G1X816194Y305794D1*
G1X816149Y305849D1*
G2X819994Y305795I1944J1570D1*
G1X819994Y299934D1*
G1X820008Y299898D1*
G2X820079Y299530I-921J-369D1*
G1X820079Y296380D1*
G2X820019Y296040I-980J-3D1*
G1X820007Y296007D1*
G1X820007Y289667D1*
G1X820019Y289634D1*
G2X820079Y289294I-930J-340D1*
G1X820079Y286144D1*
G2X819079Y285144I-1000J-1D1*
G1X817109Y285144D1*
G2X816109Y286144I-1J999D1*
G1X816109Y289294D1*
G1X816110Y289344D1*
G1X816111Y289349D1*
G1X816111Y289555D1*
G1X813452Y289555D1*
G1X813444Y289563D1*
G1X812597Y289563D1*
G1X812597Y289351D1*
G1X812599Y289294D1*
G1X812599Y286144D1*
G2X812528Y285776I-983J-2D1*
G1X812514Y285740D1*
G1X812514Y284376D1*
G2X808714Y284376I-1900J-1626D1*
G1X808714Y285740D1*
G1X808700Y285776D1*
G2X808629Y286144I940J372D1*
G1X808629Y289294D1*
G2X808670Y289576I1037J-7D1*
G1X808678Y289604D1*
G1X808678Y296070D1*
G1X808670Y296098D1*
G2X808629Y296380I984J287D1*
G1X808629Y299530D1*
G2X808700Y299898I1020J-7D1*
G1X808714Y299934D1*
G1X808714Y306539D1*
G1X807500Y307752D1*
G3X806814Y307468I-284J-285D1*
G2X801828Y307156I-2500J-49D1*
G1X801821Y307227D1*
G1X801510Y307537D1*
G3X801167Y307395I-142J-143D1*
G1X801167Y306925D1*
G1X801177Y306894D1*
G2X801282Y306238I-1981J-654D1*
G1X801282Y304029D1*
G1X801370Y303941D1*
G1X801370Y296395D1*
G2X801871Y295528I-500J-867D1*
G1X801871Y291729D1*
G2X800871Y290729I-1000J-1D1*
G1X792071Y290729D1*
G2X791263Y291140I-1J998D1*
G3X790654Y291187I-325J-239D1*
G1X785976Y286508D1*
G1X786037Y286380D1*
G2X785841Y285243I-902J-431D1*
G1X783577Y282979D1*
G2X782633Y282715I-706J704D1*
G3X782147Y282229I-95J-392D1*
G2X781882Y281285I-970J-238D1*
G1X781011Y280413D1*
G1X781011Y277358D1*
G1X780800Y277147D1*
G1X780800Y266358D1*
G1X780934Y266310D1*
G2X781600Y265368I-334J-943D1*
G1X781600Y262167D1*
G2X781391Y261555I-993J-3D1*
G3X781709Y260907I318J-246D1*
G1X781962Y260907D1*
G1X781962Y255542D1*
G1X757429Y255542D1*
G2X756742Y255269I-684J720D1*
G1X747943Y255269D1*
G2X747282Y255519I-2J996D1*
G1X741309Y255519D1*
G1X741309Y252083D1*
G1X743830Y252083D1*
G2X744019Y252065I-10J-1104D1*
G1X744038Y252061D1*
G1X744714Y252061D1*
G1X744714Y251547D1*
G1X744733Y251507D1*
G2X744827Y251083I-901J-423D1*
G1X744827Y247933D1*
G2X744733Y247510I-987J-3D1*
G1X744714Y247469D1*
G1X744714Y225528D1*
G1X732184Y225528D1*
G1X732184Y241242D1*
G1X723230Y241242D1*
G1X723230Y241171D1*
G1X717548Y241171D1*
G1X717548Y241030D1*
G1X717128Y241030D1*
G1X717128Y237972D1*
G2X717378Y237311I-749J-662D1*
G1X717378Y234110D1*
G2X716378Y233110I-999J-2D1*
G1X714988Y233110D1*
G1X714969Y233107D1*
G2X713987Y233107I-491J2579D1*
G1X713968Y233110D1*
G1X712578Y233110D1*
G2X711578Y234110I-1J999D1*
G1X711578Y237311D1*
G2X711828Y237972I1007J-4D1*
G1X711828Y241030D1*
G1X708712Y241030D1*
G1X708712Y225888D1*
G1X676205Y225888D1*
G1X676205Y241082D1*
G1X702494Y241082D1*
G1X702494Y254132D1*
G1X691964Y254132D1*
G1X691964Y255363D1*
G1X685092Y255363D1*
G1X685011Y255281D1*
G1X679724Y255281D1*
G1X669239Y265766D1*
G1X669239Y274485D1*
G1X668368Y275356D1*
G2X668104Y276301I709J707D1*
G3X667618Y276786I-392J93D1*
G2X666673Y277051I-238J969D1*
G1X664410Y279314D1*
G2X664214Y280452I708J707D1*
G1X664275Y280580D1*
G1X661256Y283599D1*
G1X656563Y283599D1*
G1X656563Y283337D1*
G2X655563Y282337I-999J-2D1*
G1X640067Y282337D1*
G1X640067Y219997D1*
G37*
G36*
G1X679231Y308061D2*
G1X679231Y330596D1*
G1X685349Y330596D1*
G1X685349Y341276D1*
G1X707576Y341276D1*
G1X707576Y346737D1*
G2X712876Y346737I2649J-1D1*
G1X712876Y341276D1*
G1X721328Y341276D1*
G1X721328Y342830D1*
G2X725128Y342830I1899J1624D1*
G1X725128Y341276D1*
G1X741521Y341276D1*
G1X741521Y308098D1*
G1X775470Y308098D1*
G1X775470Y306675D1*
G1X775595Y306550D1*
G1X776911Y306550D1*
G1X778204Y307843D1*
G2X779619Y307843I707J-709D1*
G1X781882Y305579D1*
G2X782147Y304635I-706J-708D1*
G3X782633Y304149I390J-96D1*
G2X783577Y303885I236J-974D1*
G1X785841Y301621D1*
G2X786117Y300732I-707J-707D1*
G1X786098Y300628D1*
G1X790654Y296071D1*
G3X791263Y296118I284J282D1*
G2X792071Y296529I810J-594D1*
G1X797170Y296529D1*
G1X797170Y302207D1*
G1X797082Y302295D1*
G1X797082Y306238D1*
G2X797187Y306894I2130J-5D1*
G1X797197Y306925D1*
G1X797197Y307812D1*
G2X797210Y307967I1125J-17D1*
G1X797212Y307982D1*
G1X797212Y308199D1*
G1X793672Y308199D1*
G1X793672Y307982D1*
G1X793675Y307967D1*
G2X793687Y307812I-926J-150D1*
G1X793687Y306925D1*
G1X793697Y306894D1*
G2X793697Y305580I-1990J-657D1*
G1X793687Y305549D1*
G1X793687Y304662D1*
G2X792687Y303662I-999J-2D1*
G1X790717Y303662D1*
G2X789866Y304137I-1J999D1*
G1X787286Y304137D1*
G1X777782Y313641D1*
G1X777782Y315551D1*
G1X772765Y315551D1*
G2X771823Y316217I0J999D1*
G1X771775Y316351D1*
G1X769257Y316351D1*
G1X716078Y369529D1*
G1X709249Y369529D1*
G2X708307Y370195I0J1000D1*
G1X708259Y370329D1*
G1X707216Y370329D1*
G1X707148Y370261D1*
G1X703960Y370261D1*
G1X703960Y368164D1*
G1X701798Y368164D1*
G1X701798Y349107D1*
G1X690431Y349107D1*
G1X690399Y349096D1*
G2X690075Y349042I-319J912D1*
G1X686873Y349042D1*
G2X686517Y349107I-5J982D1*
G1X685569Y349107D1*
G1X685569Y369460D1*
G3X685850Y370139I-10J401D1*
G2X685708Y370329I718J685D1*
G1X682791Y370329D1*
G1X682743Y370195D1*
G2X681801Y369529I-941J331D1*
G1X676702Y369529D1*
G1X676702Y367537D1*
G1X658118Y348953D1*
G1X656563Y348953D1*
G1X656563Y348691D1*
G2X655563Y347691I-999J-2D1*
G1X640067Y347691D1*
G1X640067Y289061D1*
G1X655563Y289061D1*
G2X656563Y288061I-1J-1001D1*
G1X656563Y287799D1*
G1X661156Y287799D1*
G1X663881Y290524D1*
G1X663820Y290652D1*
G2X664016Y291790I904J430D1*
G1X666279Y294053D1*
G2X667224Y294318I709J-712D1*
G3X667710Y294803I96J389D1*
G2X667974Y295748I973J237D1*
G1X670238Y298012D1*
G2X671652Y298012I707J-709D1*
G1X672946Y296718D1*
G1X674262Y296718D1*
G1X674455Y296911D1*
G1X678291Y296911D1*
G3X678640Y297512I0J401D1*
G2X681513Y301151I2172J1238D1*
G1X685349Y301151D1*
G1X685349Y308061D1*
G1X679231Y308061D1*
G37*
G36*
G1X657060Y353835D2*
G1X672502Y369277D1*
G1X672502Y369663D1*
G2X672001Y370530I499J866D1*
G1X672001Y374328D1*
G2X673002Y375329I1001J-1D1*
G1X681801Y375329D1*
G2X682743Y374663I-3J-1002D1*
G1X682791Y374529D1*
G1X685708Y374529D1*
G2X686574Y375030I868J-503D1*
G1X689276Y375030D1*
G3X689560Y375716I0J401D1*
G1X687362Y377914D1*
G1X687362Y380955D1*
G1X682063Y380955D1*
G2X681077Y381787I-1J999D1*
G1X681049Y381955D1*
G1X673109Y381955D1*
G1X651276Y403788D1*
G1X646761Y403788D1*
G2X645761Y404788I0J1000D1*
G1X645761Y410990D1*
G2X646761Y411990I1001J-2D1*
G1X652963Y411990D1*
G2X653963Y410990I-1J-1001D1*
G1X653963Y406476D1*
G1X674683Y385755D1*
G1X681049Y385755D1*
G1X681077Y385922D1*
G2X682063Y386755I987J-169D1*
G1X690863Y386755D1*
G2X691849Y385922I-1J-1002D1*
G1X691877Y385755D1*
G1X695886Y385755D1*
G1X695944Y385859D1*
G2X696819Y386374I876J-489D1*
G1X700617Y386374D1*
G2X701617Y385374I-1J-1001D1*
G1X701617Y382172D1*
G2X700617Y381172I-999J-2D1*
G1X696819Y381172D1*
G2X695909Y381756I-2J999D1*
G1X695856Y381873D1*
G1X694731Y381873D1*
G1X694649Y381955D1*
G1X691877Y381955D1*
G1X691849Y381787D1*
G2X691279Y381046I-984J166D1*
G1X691162Y380993D1*
G1X691162Y379488D1*
G1X694421Y376229D1*
G1X695772Y376229D1*
G1X695772Y378469D1*
G1X703960Y378469D1*
G1X703960Y374461D1*
G1X705406Y374461D1*
G1X705474Y374529D1*
G1X708259Y374529D1*
G1X708307Y374663D1*
G2X709249Y375329I944J-337D1*
G1X718049Y375329D1*
G2X719049Y374328I-1J-1001D1*
G1X719049Y372499D1*
G1X770997Y320551D1*
G1X771775Y320551D1*
G1X771823Y320685D1*
G2X772765Y321351I944J-337D1*
G1X781565Y321351D1*
G2X782565Y320350I-1J-1001D1*
G1X782565Y316551D1*
G2X782080Y315694I-997J-2D1*
G1X781982Y315636D1*
G1X781982Y315381D1*
G1X789026Y308337D1*
G1X789654Y308337D1*
G1X789654Y314482D1*
G1X789737Y314482D1*
G1X789737Y314701D1*
G1X789734Y314719D1*
G2X789718Y314897I1050J184D1*
G1X789718Y318048D1*
G2X790718Y319048I1001J-2D1*
G1X793342Y319048D1*
G1X793342Y321353D1*
G2X793041Y322068I700J715D1*
G1X793041Y325867D1*
G2X794041Y326867I1001J-2D1*
G1X802841Y326867D1*
G2X803783Y326201I-3J-1002D1*
G1X803831Y326067D1*
G1X820455Y326067D1*
G1X820455Y326329D1*
G2X821455Y327329I1001J-2D1*
G1X836912Y327329D1*
G1X836912Y416779D1*
G1X640067Y416779D1*
G1X640067Y354415D1*
G1X655563Y354415D1*
G2X656428Y353917I-1J-1002D1*
G3X657060Y353835I347J201D1*
G37*
G36*
G1X677205Y226888D2*
G1X707712Y226888D1*
G1X707712Y240082D1*
G1X677205Y240082D1*
G1X677205Y226888D1*
G37*
G36*
G1X668510Y283415D2*
G1X670774Y281151D1*
G2X671038Y280207I-707J-707D1*
G3X671524Y279721I390J-96D1*
G2X672469Y279457I237J-974D1*
G1X674732Y277193D1*
G2X674732Y275779I-707J-707D1*
G1X673439Y274486D1*
G1X673439Y267506D1*
G1X681464Y259481D1*
G1X683269Y259481D1*
G1X683351Y259563D1*
G1X691964Y259563D1*
G1X691964Y260132D1*
G1X701319Y260132D1*
G1X701362Y260154D1*
G2X701813Y260262I456J-913D1*
G1X702494Y260262D1*
G1X702494Y262755D1*
G1X702158Y262755D1*
G2X702070Y262759I-13J691D1*
G1X702061Y262760D1*
G1X696869Y262760D1*
G1X696860Y262759D1*
G2X696772Y262755I-75J675D1*
G1X693571Y262755D1*
G1X693484Y262759D1*
G1X693475Y262760D1*
G1X692469Y262760D1*
G1X692469Y284889D1*
G1X706360Y284889D1*
G1X706360Y275828D1*
G1X706369Y275806D1*
G1X717907Y275806D1*
G1X718550Y276449D1*
G1X718550Y277431D1*
G1X718630Y277511D1*
G1X718630Y285724D1*
G1X720818Y287913D1*
G1X720826Y287983D1*
G2X723576Y285233I2485J-265D1*
G1X723506Y285225D1*
G1X722430Y284150D1*
G1X722430Y275806D1*
G1X730264Y275806D1*
G1X730308Y275850D1*
G1X730308Y282942D1*
G2X734108Y282942I1899J1624D1*
G1X734108Y275806D1*
G1X741309Y275806D1*
G1X741309Y275791D1*
G1X744012Y275791D1*
G2X744012Y270491I0J-2651D1*
G1X741309Y270491D1*
G1X741309Y260819D1*
G1X747282Y260819D1*
G2X747943Y261069I664J-759D1*
G1X756742Y261069D1*
G2X757244Y260934I-3J-1012D1*
G1X757291Y260907D1*
G1X775692Y260907D1*
G3X776010Y261555I0J401D1*
G2X775801Y262167I793J612D1*
G1X775801Y265368D1*
G2X776466Y266310I1002J-3D1*
G1X776600Y266358D1*
G1X776600Y278885D1*
G1X776811Y279096D1*
G1X776811Y280415D1*
G1X775518Y281707D1*
G2X775518Y283122I708J707D1*
G1X777782Y285385D1*
G2X778726Y285649I708J-712D1*
G3X779212Y286135I95J390D1*
G2X779476Y287080I973J237D1*
G1X781740Y289343D1*
G2X782877Y289539I707J-710D1*
G1X783006Y289478D1*
G1X787156Y293629D1*
G1X784375Y296410D1*
G1X783981Y296410D1*
G1X783006Y297385D1*
G1X782877Y297325D1*
G2X781740Y297520I-431J900D1*
G1X779476Y299784D1*
G2X779212Y300728I709J707D1*
G3X778726Y301214I-392J94D1*
G2X777782Y301479I-238J969D1*
G1X776911Y302350D1*
G1X775470Y302350D1*
G1X775470Y301674D1*
G1X741521Y301674D1*
G1X741521Y291596D1*
G1X728580Y291596D1*
G2X725067Y291335I-1888J1637D1*
G1X715205Y291335D1*
G1X715176Y291167D1*
G2X714190Y290335I-985J166D1*
G1X710989Y290335D1*
G2X709989Y291335I-1J999D1*
G1X709989Y291596D1*
G1X685349Y291596D1*
G1X685349Y292711D1*
G1X676195Y292711D1*
G1X676002Y292518D1*
G1X672945Y292518D1*
G1X672075Y291647D1*
G2X671130Y291383I-707J704D1*
G3X670644Y290897I-95J-392D1*
G2X670380Y289953I-969J-239D1*
G1X668116Y287689D1*
G2X666979Y287493I-707J704D1*
G1X666851Y287554D1*
G1X665046Y285749D1*
G1X667245Y283550D1*
G1X667373Y283611D1*
G2X668510Y283415I429J-906D1*
G37*
G36*
G1X693469Y283889D2*
G1X693469Y263760D1*
G1X705360Y263760D1*
G1X705360Y283889D1*
G1X693469Y283889D1*
G37*
G36*
G1X680231Y329596D2*
G1X680231Y309061D1*
G1X690470Y309061D1*
G1X690470Y329596D1*
G1X680231Y329596D1*
G37*
G36*
G1X686569Y368460D2*
G1X686569Y350107D1*
G1X700798Y350107D1*
G1X700798Y368460D1*
G1X694949Y368460D1*
G1X694947Y368458D1*
G2X691375Y368460I-1786J901D1*
G1X686569Y368460D1*
G37*
G36*
G1X714880Y302732D2*
G1X727082Y302732D1*
G1X727082Y306608D1*
G1X714880Y306608D1*
G1X714880Y302732D1*
G37*
G36*
G1X733184Y251061D2*
G1X733184Y226528D1*
G1X743714Y226528D1*
G1X743714Y251061D1*
G1X733184Y251061D1*
G37*
G36*
G1X726360Y255330D2*
G2X726700Y254962I-546J-845D1*
G1X726757Y254856D1*
G1X728680Y254856D1*
G1X728680Y261839D1*
G1X726758Y261839D1*
G1X726701Y261733D1*
G2X726360Y261364I-870J461D1*
G1X726268Y261305D1*
G1X726268Y255389D1*
G1X726360Y255330D1*
G37*
G36*
G1X728705Y336094D2*
G1X728705Y317327D1*
G1X740437Y317327D1*
G1X740437Y336094D1*
G1X728705Y336094D1*
G37*
%LPC*%
G36*
G1X768645Y378548D2*
G1X785181Y378548D1*
G3X785329Y378559I10J856D1*
G1X785344Y378562D1*
G1X786387Y378562D1*
G1X786387Y393023D1*
G1X786421Y393023D1*
G1X786421Y394275D1*
G1X785975Y394275D1*
G1X785975Y412049D1*
G1X753511Y412049D1*
G1X753511Y394275D1*
G1X753392Y394275D1*
G1X753392Y393014D1*
G1X753379Y393014D1*
G1X753379Y378562D1*
G1X768480Y378562D1*
G1X768495Y378559D1*
G3X768645Y378548I138J859D1*
G37*
G74*
G54D46*
G1X659862Y407889D3*
G1X669862Y407889D3*
G1X679862Y407889D3*
G1X689862Y407889D3*
G1X699862Y407889D3*
G54D45*
G1X709862Y407889D3*
G1X719862Y407889D3*
G1X729862Y407889D3*
G1X739862Y407889D3*
%LPD*%
G36*
G1X754379Y379562D2*
G1X785387Y379562D1*
G1X785387Y392014D1*
G1X754379Y392014D1*
G1X754379Y379562D1*
G37*
G36*
G1X754511Y395279D2*
G1X784975Y395279D1*
G1X784975Y411049D1*
G1X754511Y411049D1*
G1X754511Y395279D1*
G37*
G1X680812Y298751D2*
G54D10*
G1X690825Y298751D1*
G1X694466Y302392D1*
G1X694466Y302691D1*
G1X659697Y229793D3*
G1X649854Y229793D3*
G1X649854Y239636D3*
G1X659697Y239636D3*
G1X659697Y249479D3*
G1X649854Y249479D3*
G1X659697Y269164D3*
G1X649854Y269164D3*
G1X649854Y259321D3*
G1X659697Y259321D3*
G1X659697Y279006D3*
G1X649854Y308534D3*
G1X659697Y308534D3*
G1X649854Y318376D3*
G1X649854Y328219D3*
G1X659697Y328219D3*
G1X659697Y318376D3*
G1X659697Y338061D3*
G1X649854Y387274D3*
G1X659697Y387274D3*
G1X659697Y377431D3*
G1X649854Y377431D3*
G1X649854Y397116D3*
G1X669540Y229793D3*
G1X669540Y239636D3*
G1X669540Y249479D3*
G1X674855Y244360D3*
G1X669540Y259321D3*
G1X675812Y287851D3*
G1X669540Y308534D3*
G1X676232Y316211D3*
G1X669540Y318376D3*
G1X669540Y328219D3*
G1X669540Y338061D3*
G1X679382Y338061D3*
G1X669540Y347904D3*
G1X677807Y352235D3*
G1X678201Y359321D3*
G1X669540Y357746D3*
G1X682925Y248297D3*
G1X684697Y269360D3*
G1X696512Y287851D3*
G1X689412Y287851D3*
G1X682712Y287851D3*
G1X682712Y281151D3*
G1X689712Y281151D3*
G1X693162Y369360D3*
G1X698673Y393967D3*
G1X700642Y248101D3*
G1X714138Y259912D3*
G1X713437Y254193D3*
G1X702412Y288051D3*
G1X709412Y281351D3*
G1X709312Y285051D3*
G1X713912Y285151D3*
G1X708812Y307851D3*
G1X710731Y305844D3*
G1X708812Y303851D3*
G1X712612Y303951D3*
G1X712712Y307951D3*
G1X699870Y371761D3*
G1X699870Y374321D3*
G1X720524Y256565D3*
G1X720512Y260151D3*
G1X724112Y256551D3*
G1X722315Y258347D3*
G1X724012Y260251D3*
G1X723673Y284124D3*
G1X738437Y377431D3*
G1X751823Y225857D3*
G1X752414Y239636D3*
G1X752414Y233140D3*
G1X748280Y269164D3*
G1X758122Y269164D3*
G1X758122Y279006D3*
G1X758122Y288849D3*
G1X748280Y288849D3*
G1X748280Y279006D3*
G1X741980Y278809D3*
G1X747886Y321329D3*
G1X749264Y330384D3*
G1X758122Y338061D3*
G1X748280Y347904D3*
G1X758122Y357746D3*
G1X758122Y367589D3*
G1X748280Y367589D3*
G1X748280Y377431D3*
G1X767965Y229793D3*
G1X777807Y229793D3*
G1X777807Y239636D3*
G1X767965Y239636D3*
G1X767965Y269164D3*
G1X767965Y279006D3*
G1X767965Y288849D3*
G1X767965Y298691D3*
G1X758910Y294754D3*
G1X777807Y338061D3*
G1X777807Y347904D3*
G1X767965Y347904D3*
G1X777807Y357746D3*
G1X767965Y357746D3*
G1X767965Y367589D3*
G1X787650Y229793D3*
G1X797492Y229793D3*
G1X787650Y239636D3*
G1X797492Y239636D3*
G1X797492Y249479D3*
G1X787650Y249479D3*
G1X797492Y259321D3*
G1X797492Y269164D3*
G1X787650Y269164D3*
G1X787650Y259321D3*
G1X797492Y279006D3*
G1X787650Y347904D3*
G1X787650Y338061D3*
G1X797492Y338061D3*
G1X797492Y347904D3*
G1X787650Y357746D3*
G1X797492Y367589D3*
G1X787650Y367589D3*
G1X797492Y377431D3*
G1X797492Y387274D3*
G1X789421Y403809D3*
G1X797492Y397116D3*
G1X807335Y229793D3*
G1X817177Y229793D3*
G1X807335Y239636D3*
G1X817177Y239636D3*
G1X817177Y249479D3*
G1X807335Y249479D3*
G1X817177Y259321D3*
G1X817177Y269164D3*
G1X807335Y269164D3*
G1X807335Y259321D3*
G1X817177Y279006D3*
G1X807335Y279006D3*
G1X817177Y318376D3*
G1X817177Y328219D3*
G1X807335Y338061D3*
G1X817177Y338061D3*
G1X807335Y347904D3*
G1X817177Y347904D3*
G1X807335Y367589D3*
G1X817177Y367589D3*
G1X807335Y387274D3*
G1X807335Y377431D3*
G1X817177Y377431D3*
G1X817177Y387274D3*
G1X817177Y397116D3*
G1X807335Y397116D3*
G1X827020Y229793D3*
G1X827020Y239636D3*
G1X827020Y249479D3*
G1X827020Y259321D3*
G1X827020Y269164D3*
G1X827020Y279006D3*
G1X827020Y288849D3*
G1X827020Y298691D3*
G1X827020Y347904D3*
G1X827020Y367589D3*
G1X827020Y357746D3*
G1X827020Y387274D3*
G1X827020Y377431D3*
G1X827020Y397116D3*
G1X827020Y406959D3*
G54D72*
G1X647886Y274872D3*
G1X647886Y285699D3*
G1X647886Y296526D3*
G1X647886Y340226D3*
G1X647886Y361880D3*
G1X647886Y351053D3*
G1X829132Y313140D3*
G1X829132Y323967D3*
G1X829132Y334794D3*
G54D70*
G1X699856Y373345D3*
G54D78*
G1X696312Y370392D3*
G1X696312Y372361D3*
G1X696312Y374329D3*
G1X696312Y376298D3*
G1X716046Y307813D3*
G1X716046Y305844D3*
G1X716046Y303876D3*
G1X705416Y303876D3*
G1X705416Y305844D3*
G1X705416Y307813D3*
G1X703399Y376298D3*
G1X703399Y374329D3*
G1X703399Y372361D3*
G1X703399Y370392D3*
G54D43*
G1X649862Y407889D3*
G54D75*
G1X776912Y385651D3*
G54D79*
G1X795442Y306237D3*
G1X791702Y306237D3*
G1X791702Y316473D3*
G1X795442Y316473D3*
G1X818094Y287719D3*
G1X814354Y287719D3*
G1X810614Y287719D3*
G1X799182Y306237D3*
G1X810614Y297955D3*
G1X814354Y297955D3*
G1X818094Y297955D3*
G1X799182Y316473D3*
G54D44*
G1X659862Y407889D3*
G1X669862Y407889D3*
G1X679862Y407889D3*
G1X689862Y407889D3*
G1X699862Y407889D3*
G1X709862Y407889D3*
G1X719862Y407889D3*
G1X729862Y407889D3*
G1X739862Y407889D3*
G54D74*
G1X717197Y255394D3*
G1X717197Y257363D3*
G1X717197Y259331D3*
G1X717197Y261300D3*
G1X727433Y261300D3*
G1X727433Y259331D3*
G1X727433Y257363D3*
G1X727433Y255394D3*
G54D76*
G1X809589Y357698D3*
G1X809589Y408682D3*
G54D11*
G1X680200Y231377D3*
G1X680812Y298751D3*
G1X686504Y231377D3*
G1X692808Y231377D3*
G1X699112Y231377D3*
G1X696354Y280233D3*
G1X685322Y325937D3*
G1X682958Y319239D3*
G1X695960Y365337D3*
G1X695960Y353123D3*
G1X695960Y359033D3*
G1X704628Y231377D3*
G1X701870Y280233D3*
G1X704989Y324068D3*
G1X710226Y346737D3*
G1X735754Y230195D3*
G1X735754Y236893D3*
G1X735754Y243985D3*
G1X723312Y287719D3*
G1X732208Y284567D3*
G1X726692Y293235D3*
G1X723146Y323164D3*
G1X731814Y320421D3*
G1X731814Y326725D3*
G1X731814Y333423D3*
G1X723228Y344455D3*
G1X744012Y273141D3*
G1X757818Y408283D3*
G1X764122Y398433D3*
G1X772396Y403161D3*
G1X766486Y403161D3*
G1X769638Y408283D3*
G1X775548Y408283D3*
G1X770032Y398433D3*
G1X775548Y398433D3*
G1X763728Y408283D3*
G1X810614Y282751D3*
G1X804314Y307420D3*
G1X818094Y307420D3*
G1X814354Y302885D3*
G54D52*
G1X710731Y305844D3*
G1X715261Y407889D2*
G54D14*
G1X719862Y407889D1*
G1X709862Y403289D2*
G1X709862Y407889D1*
G1X709862Y412490D1*
G1X705261Y407889D2*
G1X709862Y407889D1*
G1X714463Y407889D1*
G1X735261Y407889D2*
G1X739862Y407889D1*
G1X729862Y403289D2*
G1X729862Y407889D1*
G1X729862Y412490D1*
G1X725261Y407889D2*
G1X729862Y407889D1*
G1X734463Y407889D1*
G1X719862Y403289D2*
G1X719862Y407889D1*
G1X719862Y412490D1*
G1X719862Y407889D2*
G1X724463Y407889D1*
G1X739862Y403289D2*
G1X739862Y407889D1*
G1X739862Y412490D1*
G1X739862Y407889D2*
G1X744463Y407889D1*
G54D80*
G1X679412Y243981D3*
G1X679412Y238469D3*
G54D77*
G1X712699Y300530D3*
G1X710731Y300530D3*
G1X708762Y300530D3*
G1X708762Y311159D3*
G1X710731Y311159D3*
G1X712699Y311159D3*
G1X683664Y383855D2*
G54D15*
G1X673896Y383855D1*
G1X649862Y407889D1*
G1X688868Y302691D2*
G1X683847Y302691D1*
G1X701870Y305844D2*
G1X705416Y305844D1*
G1X705416Y307813D2*
G1X702264Y310965D1*
G1X694466Y310965D1*
G1X694466Y318845D2*
G1X699125Y318845D1*
G1X706811Y311159D1*
G1X708762Y311159D1*
G1X694736Y377825D2*
G1X696264Y376298D1*
G1X696312Y376298D1*
G1X696312Y370392D2*
G1X694193Y370392D1*
G1X693162Y369360D1*
G1X689262Y383855D2*
G1X689262Y378701D1*
G1X693634Y374329D1*
G1X696312Y374329D1*
G1X689262Y383855D2*
G1X695436Y383855D1*
G1X695518Y383773D1*
G1X698718Y383773D1*
G1X717197Y255394D2*
G1X714638Y255394D1*
G1X713437Y254193D1*
G1X717197Y259331D2*
G1X715002Y259331D1*
G1X714421Y259912D1*
G1X714138Y259912D1*
G1X719362Y263465D2*
G1X719362Y268508D1*
G1X717630Y270240D1*
G1X717630Y273141D1*
G1X717197Y261300D2*
G1X717139Y261300D1*
G1X716358Y262081D1*
G1X712631Y262081D1*
G1X709356Y265356D1*
G1X709356Y265655D1*
G1X709412Y278751D2*
G1X709438Y278725D1*
G1X709438Y273535D1*
G1X723312Y287719D2*
G1X720530Y284937D1*
G1X720530Y276724D1*
G1X720450Y276644D1*
G1X720450Y275662D1*
G1X717929Y273141D1*
G1X717630Y273141D1*
G1X706992Y293235D2*
G1X706992Y290569D1*
G1X712699Y300530D2*
G1X712699Y296544D1*
G1X712590Y296435D1*
G1X712590Y293235D1*
G1X726692Y293235D2*
G1X712590Y293235D1*
G1X716046Y307813D2*
G1X716046Y309704D1*
G1X716046Y305844D2*
G1X716046Y307813D1*
G1X710587Y315993D2*
G1X710731Y315849D1*
G1X710731Y311159D1*
G1X704989Y319193D2*
G1X704989Y324068D1*
G1X712699Y311159D2*
G1X712699Y314091D1*
G1X717548Y318940D1*
G1X717548Y319239D1*
G1X717548Y323837D1*
G1X717630Y323919D1*
G1X717630Y327119D1*
G1X717630Y334999D1*
G1X704628Y339727D2*
G1X704628Y342933D1*
G1X706076Y375857D2*
G1X706076Y375169D1*
G1X705170Y369360D2*
G1X704138Y370392D1*
G1X703399Y370392D1*
G1X705414Y376298D2*
G1X703399Y376298D1*
G1X706076Y375169D2*
G1X705236Y374329D1*
G1X703399Y374329D1*
G1X721331Y253229D2*
G1X721331Y250669D1*
G1X720081Y249419D1*
G1X720076Y249419D1*
G1X719362Y250133D1*
G1X719362Y253229D1*
G1X721331Y263465D2*
G1X721331Y267685D1*
G1X726787Y273141D1*
G1X727086Y273141D1*
G1X723299Y263465D2*
G1X723299Y266025D1*
G1X724899Y267625D1*
G1X736637Y273141D2*
G1X736936Y273141D1*
G1X727086Y273141D2*
G1X730286Y273141D1*
G1X732208Y275063D1*
G1X732208Y284567D1*
G1X738512Y299457D2*
G1X744518Y299457D1*
G1X723146Y319239D2*
G1X723146Y323164D1*
G1X723228Y327119D2*
G1X723228Y323246D1*
G1X723146Y323164D1*
G1X723228Y334999D2*
G1X723228Y344455D1*
G1X804314Y307420D2*
G1X800445Y311290D1*
G1X794011Y311290D1*
G1X791702Y313598D1*
G1X791702Y316473D1*
G1X810614Y287719D2*
G1X810614Y282751D1*
G1X799182Y316473D2*
G1X801467Y316473D1*
G1X810614Y307326D1*
G1X810614Y297955D1*
G1X810614Y295080D1*
G1X814239Y291455D1*
G1X817233Y291455D1*
G1X818094Y290594D1*
G1X818094Y287719D1*
G1X814354Y297955D2*
G1X814354Y302885D1*
G1X818094Y297955D2*
G1X818094Y307420D1*
G54D65*
G1X667592Y280233D3*
G1X671550Y276275D3*
G1X778700Y304661D3*
G1X782659Y300702D3*
G54D71*
G1X738512Y249508D3*
G1X738512Y258169D3*
G1X647886Y285699D2*
G54D42*
G1X662126Y285699D1*
G1X647886Y351053D2*
G1X657248Y351053D1*
G1X674602Y368407D1*
G1X674602Y372429D1*
G1X695172Y257463D2*
G1X684222Y257463D1*
G1X684140Y257381D1*
G1X680594Y257381D1*
G1X671339Y266636D1*
G1X671339Y276064D1*
G1X671550Y276275D1*
G1X662126Y285699D2*
G1X667592Y280233D1*
G1X667198Y290871D2*
G1X662126Y285799D1*
G1X662126Y285699D1*
G1X688868Y294811D2*
G1X675325Y294811D1*
G1X675132Y294618D1*
G1X671367Y294618D1*
G1X671156Y294829D1*
G1X703414Y257362D2*
G1X698673Y257362D1*
G1X698572Y257463D1*
G1X695172Y257463D1*
G1X694466Y294811D2*
G1X698442Y294811D1*
G1X705416Y301785D1*
G1X705416Y303876D1*
G1X688474Y372429D2*
G1X693366Y372429D1*
G1X693434Y372361D1*
G1X696312Y372361D1*
G1X688474Y372429D2*
G1X680200Y372429D1*
G1X710850Y372429D2*
G1X706345Y372429D1*
G1X706277Y372361D1*
G1X703399Y372361D1*
G1X774366Y318451D2*
G1X770127Y318451D1*
G1X716448Y372130D1*
G1X716448Y372429D1*
G1X731108Y304661D2*
G1X734718Y304661D1*
G1X735112Y305055D1*
G1X738512Y305055D1*
G1X742503Y305055D1*
G1X742897Y304661D1*
G1X745998Y304661D1*
G1X755142Y258169D2*
G1X762940Y258169D1*
G1X751596Y304661D2*
G1X755518Y304661D1*
G1X755600Y304743D1*
G1X759000Y304743D1*
G1X762940Y258169D2*
G1X770820Y258169D1*
G1X778700Y258169D1*
G1X759000Y304743D2*
G1X774431Y304743D1*
G1X774724Y304450D1*
G1X778489Y304450D1*
G1X778700Y304661D1*
G1X778700Y263767D2*
G1X778700Y278016D1*
G1X778911Y278227D1*
G1X778911Y281992D1*
G1X778700Y282203D1*
G1X782659Y286161D2*
G1X782658Y286161D1*
G1X790126Y293629D1*
G1X779964Y318451D2*
G1X779882Y318369D1*
G1X779882Y314511D1*
G1X788156Y306237D1*
G1X791702Y306237D1*
G1X790126Y293629D2*
G1X793672Y293629D1*
G1X782659Y300702D2*
G1X782658Y300703D1*
G1X784851Y298510D1*
G1X785245Y298510D1*
G1X790126Y293629D1*
G1X795442Y316473D2*
G1X795442Y320367D1*
G1X795642Y320567D1*
G1X795642Y323967D1*
G1X799270Y293629D2*
G1X799270Y303074D1*
G1X799182Y303162D1*
G1X799182Y306237D1*
G1X801240Y323967D2*
G1X829132Y323967D1*
G54D54*
G1X667198Y290871D3*
G1X671156Y294829D3*
G1X778700Y282203D3*
G1X782659Y286161D3*
G54D69*
G1X722315Y258347D3*
G1X717197Y257363D2*
G54D82*
G1X712013Y257363D1*
G1X712012Y257362D1*
G1X709012Y257362D1*
G54D64*
G1X676260Y310965D3*
G1X680200Y372429D3*
G1X674602Y372429D3*
G1X695172Y265655D3*
G1X689574Y265655D3*
G1X695172Y273535D3*
G1X689574Y273535D3*
G1X688868Y302691D3*
G1X694466Y302691D3*
G1X688868Y294811D3*
G1X694466Y294811D3*
G1X681858Y310965D3*
G1X688868Y310965D3*
G1X694466Y310965D3*
G1X688868Y318845D3*
G1X694466Y318845D3*
G1X688474Y351941D3*
G1X682876Y351941D3*
G1X688474Y359427D3*
G1X682876Y359427D3*
G1X689262Y383855D3*
G1X683664Y383855D3*
G1X714478Y244379D3*
G1X703414Y257362D3*
G1X709012Y257362D3*
G1X709356Y265655D3*
G1X703758Y265655D3*
G1X703840Y273535D3*
G1X709438Y273535D3*
G1X706992Y293235D3*
G1X712590Y293235D3*
G1X704989Y319193D3*
G1X710587Y319193D3*
G1X717548Y319239D3*
G1X717630Y327119D3*
G1X704628Y339727D3*
G1X710226Y339727D3*
G1X717630Y334999D3*
G1X716448Y372429D3*
G1X710850Y372429D3*
G1X720076Y244379D3*
G1X725510Y304661D3*
G1X731108Y304661D3*
G1X738430Y326331D3*
G1X723146Y319239D3*
G1X723228Y327119D3*
G1X738430Y334211D3*
G1X723228Y334999D3*
G1X742058Y235317D3*
G1X747656Y235317D3*
G1X742058Y243197D3*
G1X747656Y243197D3*
G1X749544Y258169D3*
G1X755142Y258169D3*
G1X745998Y304661D3*
G1X751596Y304661D3*
G1X744028Y326331D3*
G1X744028Y334211D3*
G1X774366Y318451D3*
G1X793672Y293629D3*
G1X795642Y323967D3*
G1X779964Y318451D3*
G1X788944Y409071D3*
G1X783346Y409071D3*
G1X799270Y293629D3*
G1X801240Y323967D3*
G54D73*
G1X719362Y263465D3*
G1X721331Y263465D3*
G1X723299Y263465D3*
G1X725268Y263465D3*
G1X725268Y253229D3*
G1X723299Y253229D3*
G1X721331Y253229D3*
G1X719362Y253229D3*
G1X694466Y302691D2*
G54D83*
G1X698717Y302691D1*
G1X701870Y305844D1*
G1X714478Y244379D2*
G1X714478Y235711D1*
G1X714478Y244379D2*
G1X709322Y244379D1*
G1X709010Y244067D1*
G1X705810Y244067D1*
G1X716046Y309704D2*
G1X719671Y313329D1*
G1X738512Y313329D1*
G1X710587Y319193D2*
G1X710587Y323299D1*
G1X710144Y323742D1*
G1X710144Y326643D1*
G1X710587Y319193D2*
G1X710587Y315993D1*
G1X710144Y332241D2*
G1X710144Y336445D1*
G1X710226Y336527D1*
G1X710226Y339727D1*
G1X710226Y346737D1*
G1X720076Y249419D2*
G1X720076Y244379D1*
G1X724899Y267625D2*
G1X731121Y267625D1*
G1X736637Y273141D1*
G1X738512Y258169D2*
G1X749544Y258169D1*
G1X727433Y257363D2*
G1X728239Y258169D1*
G1X738512Y258169D1*
G1X736936Y273141D2*
G1X744012Y273141D1*
G54D66*
G1X687292Y238469D3*
G1X687292Y244067D3*
G1X695960Y238469D3*
G1X695960Y244067D3*
G1X695172Y251865D3*
G1X695172Y257463D3*
G1X688474Y366831D3*
G1X688474Y372429D3*
G1X698718Y389371D3*
G1X698718Y383773D3*
G1X714478Y230113D3*
G1X714478Y235711D3*
G1X705810Y238469D3*
G1X705810Y244067D3*
G1X717630Y273141D3*
G1X717630Y278739D3*
G1X710144Y326643D3*
G1X710144Y332241D3*
G1X736936Y273141D3*
G1X736936Y278739D3*
G1X727086Y273141D3*
G1X727086Y278739D3*
G1X738512Y305055D3*
G1X738512Y299457D3*
G1X738512Y313329D3*
G1X738512Y318927D3*
G1X759000Y299145D3*
G1X759000Y304743D3*
G1X778700Y258169D3*
G1X778700Y263767D3*
G1X762940Y258169D3*
G1X762940Y263767D3*
G1X770820Y258169D3*
G1X770820Y263767D3*
G54D81*
G1X747964Y228619D3*
G1X742452Y228619D3*
G54D26*
G1X757030Y389371D3*
G1X757030Y397773D3*
G54D10*
G36*
G1X9976Y219957D2*
G1X206826Y219957D1*
G1X206826Y282162D1*
G1X125330Y282162D1*
G1X125330Y292398D1*
G1X102463Y292398D1*
G1X102463Y287563D1*
G1X102869Y287157D1*
G1X109275Y287157D1*
G75*
G2X109275Y282357I700J-2400D1*
G1X102463Y282357D1*
G1X102463Y272602D1*
G1X102908Y272157D1*
G1X109275Y272157D1*
G2X109275Y267357I700J-2400D1*
G1X102463Y267357D1*
G1X102463Y253835D1*
G1X81249Y253835D1*
G1X81176Y253763D1*
G1X81176Y246658D1*
G2X76376Y246658I-2401J-701D1*
G1X76376Y253835D1*
G1X74026Y253835D1*
G1X73676Y253486D1*
G1X73676Y246658D1*
G2X68876Y246658I-2401J-701D1*
G1X68876Y249640D1*
G1X65556Y249640D1*
G2X64916Y249872I1J1001D1*
G1X64775Y249989D1*
G1X64492Y249706D1*
G2X61747Y248569I-2748J2751D1*
G1X47938Y248569D1*
G1X47883Y248457D1*
G2X46985Y247897I-900J442D1*
G1X43048Y247897D1*
G2X42048Y248898I0J1000D1*
G1X42048Y252441D1*
G2X43048Y253441I998J1D1*
G1X46894Y253441D1*
G1X46894Y254872D1*
G1X28004Y273762D1*
G1X26527Y273762D1*
G1X26527Y273500D1*
G2X25527Y272500I-1002J1D1*
G1X9976Y272500D1*
G1X9976Y219957D1*
G37*
G36*
G1X29744Y277963D2*
G1X48641Y259065D1*
G1X50299Y259065D1*
G1X50346Y259198D1*
G2X51289Y259865I941J-332D1*
G1X54456Y259865D1*
G1X54456Y272865D1*
G1X54064Y273257D1*
G1X47677Y273257D1*
G2X47677Y278057I-702J2400D1*
G1X54456Y278057D1*
G1X54456Y280345D1*
G1X54044Y280757D1*
G1X47677Y280757D1*
G2X47677Y285557I-702J2400D1*
G1X54456Y285557D1*
G1X54456Y288157D1*
G1X47677Y288157D1*
G2X47677Y292957I-702J2400D1*
G1X53986Y292957D1*
G1X54456Y293427D1*
G1X54456Y302990D1*
G1X62069Y302990D1*
G1X63769Y304690D1*
G1X63769Y306203D1*
G2X64769Y307203I998J1D1*
G1X67976Y307203D1*
G1X67976Y313956D1*
G2X72776Y313956I2399J701D1*
G1X72776Y303470D1*
G1X73256Y302990D1*
G1X88390Y302990D1*
G1X88390Y305322D1*
G2X88890Y306188I997J1D1*
G1X88890Y307758D1*
G1X88191Y308457D1*
G1X88191Y311855D1*
G1X88058Y311902D1*
G2X87525Y312345I332J942D1*
G1X87169Y312345D1*
G1X87080Y312256D1*
G1X85577Y312256D1*
G2X84711Y311756I-868J503D1*
G1X80910Y311756D1*
G2X79910Y312757I0J1000D1*
G1X79910Y315957D1*
G2X80910Y316957I999J0D1*
G1X84701Y316957D1*
G1X84701Y322652D1*
G1X88384Y322652D1*
G1X88384Y322645D1*
G1X90221Y322645D1*
G1X91223Y323647D1*
G1X91121Y323894D1*
G1X91078Y323894D1*
G1X91078Y330980D1*
G1X110237Y330980D1*
G1X110243Y331174D1*
G2X113526Y338776I11216J-334D1*
G1X125330Y350580D1*
G1X125330Y354602D1*
G1X206826Y354602D1*
G1X206826Y416807D1*
G1X9976Y416807D1*
G1X9976Y279225D1*
G1X25527Y279225D1*
G2X26527Y278225I-1J-1001D1*
G1X26527Y277963D1*
G1X29744Y277963D1*
G37*
G36*
G1X99728Y307741D2*
G1X102463Y307741D1*
G1X102463Y306516D1*
G3X102682Y306317I199J-1D1*
G2X102776Y306322I90J-820D1*
G1X111576Y306322D1*
G2X112442Y305822I-1J-1001D1*
G1X120502Y305822D1*
G2X120568Y305922I689J-383D1*
G1X120568Y308402D1*
G2X120368Y309002I794J598D1*
G1X120368Y312802D1*
G2X121368Y313802I998J1D1*
G1X125967Y313802D1*
G1X125967Y313803D1*
G1X142803Y313803D1*
G1X142803Y300521D1*
G1X121368Y300521D1*
G2X120502Y301021I0J1000D1*
G1X112442Y301021D1*
G2X111576Y300521I-868J503D1*
G1X106864Y300521D1*
G1X106864Y299484D1*
G1X131236Y299484D1*
G1X131236Y289248D1*
G1X206826Y289248D1*
G1X206826Y347516D1*
G1X128206Y347516D1*
G1X116496Y335805D1*
G3X114462Y331413I4961J-4965D1*
G3X114860Y330980I397J-34D1*
G1X115488Y330980D1*
G1X115488Y323894D1*
G1X103352Y323894D1*
G1X103352Y317045D1*
G1X107152Y317045D1*
G2X108152Y316045I-1J-1001D1*
G1X108152Y312845D1*
G2X107152Y311845I-1002J1D1*
G1X103350Y311845D1*
G2X102543Y312256I1J1000D1*
G1X100537Y312256D1*
G2X100005Y311814I-872J508D1*
G1X99872Y311767D1*
G1X99872Y308851D1*
G1X99445Y308424D1*
G3X99728Y307741I282J-284D1*
G37*
G36*
G1X126967Y301522D2*
G1X141802Y301522D1*
G1X141802Y312803D1*
G1X126967Y312803D1*
G1X126967Y301522D1*
G37*
%LPC*%
G36*
G1X33598Y240807D2*
G1X37535Y240807D1*
G3X38535Y241807I-2J1001D1*
G1X38535Y245351D1*
G3X37535Y246351I-1001J-1D1*
G1X33598Y246351D1*
G3X32598Y245351I-2J-999D1*
G1X32598Y241807D1*
G3X33598Y240807I999J-1D1*
G37*
G36*
G1X30376Y259366D2*
G1X33166Y256576D1*
G1X33166Y253350D1*
G1X33072Y253291D1*
G3X32598Y252441I522J-849D1*
G1X32598Y248897D1*
G3X33598Y247897I999J-1D1*
G1X37535Y247897D1*
G3X38535Y248898I-2J1001D1*
G1X38535Y252442D1*
G3X38062Y253291I-1002J-2D1*
G1X37967Y253350D1*
G1X37967Y254196D1*
G3X38472Y255065I-499J870D1*
G1X38472Y258865D1*
G3X37472Y259865I-1001J-1D1*
G1X36666Y259865D1*
G1X33771Y262761D1*
G1X33757Y262785D1*
G3X30352Y259380I-2180J-1226D1*
G1X30376Y259366D1*
G37*
G36*
G1X191722Y400309D2*
G1X197522Y400309D1*
G3X198522Y401309I-2J1001D1*
G1X198522Y407109D1*
G3X197522Y408109I-1001J-1D1*
G1X191722Y408109D1*
G3X190722Y407109I-2J-999D1*
G1X190722Y401309D1*
G3X191722Y400309I999J-1D1*
G37*
G36*
G1X151722Y390309D2*
G1X157522Y390309D1*
G3X158522Y391309I-2J1001D1*
G1X158522Y397109D1*
G3X157522Y398109I-1001J-1D1*
G1X151722Y398109D1*
G3X150722Y397109I-2J-999D1*
G1X150722Y391309D1*
G3X151722Y390309I999J-1D1*
G37*
G36*
G1X60976Y373447D2*
G1X60976Y372468D1*
G1X60966Y372468D1*
G1X60966Y371066D1*
G1X60976Y371066D1*
G1X60976Y353057D1*
G1X91476Y353057D1*
G1X91476Y371066D1*
G1X91488Y371066D1*
G1X91488Y372468D1*
G1X91476Y372468D1*
G1X91476Y386957D1*
G1X60976Y386957D1*
G1X60976Y386152D1*
G1X60971Y386129D1*
G3X60944Y385902I907J-223D1*
G1X60944Y373697D1*
G3X60971Y373469I945J-4D1*
G1X60976Y373447D1*
G37*
G74*
G54D18*
G1X104622Y404209D3*
G1X124622Y404209D3*
G1X114622Y404209D3*
G1X134622Y404209D3*
G1X144622Y404209D3*
G54D17*
G1X104622Y394209D3*
G1X124622Y394209D3*
G1X114622Y394209D3*
G1X134622Y394209D3*
G1X144622Y394209D3*
G1X154622Y404209D3*
G1X164622Y394209D3*
G1X164622Y404209D3*
G1X184622Y394209D3*
G1X174622Y394209D3*
G1X184622Y404209D3*
G1X174622Y404209D3*
G1X194622Y394209D3*
%LPD*%
G36*
G1X61976Y354057D2*
G1X90476Y354057D1*
G1X90476Y370057D1*
G1X61976Y370057D1*
G1X61976Y354057D1*
G37*
G36*
G1X61976Y373457D2*
G1X90476Y373457D1*
G1X90476Y385957D1*
G1X61976Y385957D1*
G1X61976Y373457D1*
G37*
G1X35872Y256965D2*
G54D10*
G1X35872Y257265D1*
G1X31578Y261559D1*
G1X35567Y250669D2*
G1X35567Y256659D1*
G1X35872Y256965D1*
G1X46976Y275657D2*
G1X55058Y275657D1*
G1X58489Y272225D1*
G1X58489Y294366D2*
G1X58489Y294066D1*
G1X54980Y290557D1*
G1X46976Y290557D1*
G1X46976Y283157D2*
G1X55038Y283157D1*
G1X58489Y279706D1*
G1X58489Y279406D1*
G1X58489Y271925D2*
G1X58489Y272225D1*
G1X71276Y245957D2*
G1X71276Y254480D1*
G1X74637Y257841D1*
G1X78776Y245957D2*
G1X78776Y254757D1*
G1X81860Y257841D1*
G1X82117Y257841D1*
G1X74937Y257841D2*
G1X74637Y257841D1*
G1X70376Y314657D2*
G1X70376Y302476D1*
G1X73849Y299003D1*
G1X74149Y299003D1*
G1X82417Y257841D2*
G1X82117Y257841D1*
G1X98471Y266020D2*
G1X98471Y259957D1*
G1X109976Y269757D2*
G1X101914Y269757D1*
G1X98471Y273200D1*
G1X98471Y273500D1*
G1X109976Y284757D2*
G1X101874Y284757D1*
G1X98471Y288161D1*
G1X98471Y288461D1*
G1X104376Y303422D2*
G1X104464Y303333D1*
G1X104464Y295941D1*
G1X122968Y303422D2*
G1X109976Y303422D1*
G1X122968Y310902D2*
G1X122968Y303422D1*
G1X19818Y249485D3*
G1X15094Y259721D3*
G1X19425Y259721D3*
G1X19031Y292792D3*
G1X14307Y292792D3*
G1X19818Y308540D3*
G1X19818Y328225D3*
G1X19818Y347910D3*
G1X19818Y367595D3*
G1X19818Y387280D3*
G1X19818Y406965D3*
G1X29661Y239642D3*
G1X29661Y279012D3*
G1X29661Y298697D3*
G1X29661Y318382D3*
G1X29661Y338067D3*
G1X29661Y377437D3*
G1X29661Y397122D3*
G1X39504Y229799D3*
G1X49346Y239642D3*
G1X39897Y269170D3*
G1X48165Y268382D3*
G1X49346Y279012D3*
G1X39504Y288855D3*
G1X49346Y298697D3*
G1X39504Y308540D3*
G1X49346Y318382D3*
G1X49346Y338067D3*
G1X39504Y328225D3*
G1X49346Y377437D3*
G1X49346Y397122D3*
G1X39504Y387280D3*
G1X59189Y229799D3*
G1X64700Y271532D3*
G1X59189Y308540D3*
G1X59189Y328225D3*
G1X59189Y347910D3*
G1X59189Y406965D3*
G1X78874Y229799D3*
G1X69031Y239642D3*
G1X72555Y262896D3*
G1X74937Y273894D3*
G1X78480Y277437D3*
G1X74937Y277437D3*
G1X78480Y273894D3*
G1X77697Y263658D3*
G1X74937Y263658D3*
G1X78480Y280587D3*
G1X74937Y280587D3*
G1X69031Y318382D3*
G1X78086Y319957D3*
G1X74149Y309327D3*
G1X69031Y338067D3*
G1X78874Y328225D3*
G1X78874Y347910D3*
G1X69031Y397122D3*
G1X78874Y406965D3*
G1X88716Y239642D3*
G1X86354Y263264D3*
G1X91768Y273991D3*
G1X88323Y266297D3*
G1X82023Y277437D3*
G1X82023Y273894D3*
G1X91866Y271138D3*
G1X90685Y268382D3*
G1X82023Y280587D3*
G1X85241Y290429D3*
G1X81630Y309327D3*
G1X88716Y338067D3*
G1X88716Y397122D3*
G1X98559Y229799D3*
G1X108401Y239642D3*
G1X104070Y261296D3*
G1X108401Y259327D3*
G1X109976Y320351D3*
G1X108401Y338067D3*
G1X98559Y347910D3*
G1X98559Y367595D3*
G1X108401Y357752D3*
G1X108401Y377437D3*
G1X118244Y229799D3*
G1X118244Y249485D3*
G1X112732Y276256D3*
G1X111551Y288855D3*
G1X117062Y283736D3*
G1X118244Y367595D3*
G1X137929Y229799D3*
G1X128086Y239642D3*
G1X128086Y259327D3*
G1X137929Y249485D3*
G1X137929Y269170D3*
G1X128086Y279012D3*
G1X128086Y338067D3*
G1X137929Y367595D3*
G1X128086Y357752D3*
G1X128086Y377437D3*
G1X147771Y239642D3*
G1X147771Y259327D3*
G1X141078Y275469D3*
G1X147771Y279012D3*
G1X147771Y298697D3*
G1X147771Y318382D3*
G1X147771Y357752D3*
G1X141472Y361296D3*
G1X147771Y377437D3*
G1X157614Y229799D3*
G1X167456Y239642D3*
G1X157614Y249485D3*
G1X167456Y259327D3*
G1X160763Y275469D3*
G1X157614Y269170D3*
G1X167456Y279012D3*
G1X167456Y298697D3*
G1X167456Y318382D3*
G1X157614Y308540D3*
G1X167456Y338067D3*
G1X160763Y361296D3*
G1X157614Y367595D3*
G1X167850Y358540D3*
G1X168244Y377437D3*
G1X177299Y229799D3*
G1X177299Y249485D3*
G1X177299Y269170D3*
G1X177299Y308540D3*
G1X177299Y328225D3*
G1X177299Y367595D3*
G1X196984Y229799D3*
G1X187141Y239642D3*
G1X196984Y249485D3*
G1X187141Y259327D3*
G1X197378Y269170D3*
G1X187141Y279012D3*
G1X187141Y298697D3*
G1X195803Y301847D3*
G1X196984Y308540D3*
G1X187141Y318382D3*
G1X187141Y338067D3*
G1X196984Y328225D3*
G1X196196Y334524D3*
G1X187929Y357752D3*
G1X197771Y367595D3*
G1X187929Y377437D3*
G1X202889Y269170D3*
G1X202496Y301847D3*
G1X202889Y334524D3*
G1X202496Y367595D3*
G54D37*
G1X79657Y267201D3*
G1X77697Y267201D3*
G1X75727Y267201D3*
G1X73757Y267201D3*
G1X71787Y267201D3*
G1X71787Y286691D3*
G1X73757Y286691D3*
G1X75727Y286691D3*
G1X77697Y286691D3*
G1X79657Y286691D3*
G1X85567Y267201D3*
G1X83597Y267201D3*
G1X81627Y267201D3*
G1X81627Y286691D3*
G1X83597Y286691D3*
G1X85567Y286691D3*
G54D35*
G1X17850Y265036D3*
G1X17850Y275863D3*
G1X17850Y286689D3*
G1X198952Y274878D3*
G1X198952Y285705D3*
G1X198952Y296532D3*
G1X198952Y340233D3*
G1X198952Y351059D3*
G1X198952Y361886D3*
G54D41*
G1X35567Y243579D3*
G1X35567Y250669D3*
G1X45017Y243579D3*
G1X45017Y250669D3*
G54D26*
G1X87976Y367557D3*
G1X87976Y375957D3*
G54D12*
G1X104622Y394209D3*
G1X104622Y404209D3*
G1X124622Y394209D3*
G1X114622Y394209D3*
G1X124622Y404209D3*
G1X114622Y404209D3*
G1X134622Y394209D3*
G1X134622Y404209D3*
G1X144622Y394209D3*
G1X154622Y404209D3*
G1X144622Y404209D3*
G1X164622Y394209D3*
G1X164622Y404209D3*
G1X184622Y394209D3*
G1X174622Y394209D3*
G1X184622Y404209D3*
G1X174622Y404209D3*
G1X194622Y394209D3*
G54D23*
G1X35872Y256965D3*
G1X41472Y256965D3*
G1X52889Y256965D3*
G1X58489Y256965D3*
G1X52889Y271925D3*
G1X58489Y271925D3*
G1X52889Y264445D3*
G1X58489Y264445D3*
G1X52889Y279406D3*
G1X58489Y279406D3*
G1X52889Y286886D3*
G1X58489Y286886D3*
G1X52889Y294366D3*
G1X58489Y294366D3*
G1X57976Y355957D3*
G1X63576Y355957D3*
G1X90990Y303422D3*
G1X94228Y327437D3*
G1X104070Y273500D3*
G1X98471Y273500D3*
G1X104070Y266020D3*
G1X98471Y266020D3*
G1X104070Y280981D3*
G1X98471Y280981D3*
G1X104070Y288461D3*
G1X98471Y288461D3*
G1X104464Y295941D3*
G1X110064Y295941D3*
G1X109976Y303422D3*
G1X104376Y303422D3*
G1X96590Y303422D3*
G1X106738Y327437D3*
G1X99828Y327437D3*
G1X122968Y303422D3*
G1X122968Y295941D3*
G1X122968Y310902D3*
G1X112338Y327437D3*
G1X128480Y285705D3*
G1X134080Y285705D3*
G1X128568Y303422D3*
G1X128568Y295941D3*
G1X140202Y303422D3*
G1X128568Y310902D3*
G1X140202Y310902D3*
G1X128480Y351059D3*
G1X134080Y351059D3*
G1X148165Y285705D3*
G1X153765Y285705D3*
G1X145802Y303422D3*
G1X145802Y310902D3*
G1X148165Y351059D3*
G1X153765Y351059D3*
G1X167850Y285705D3*
G1X167850Y351059D3*
G1X173450Y285705D3*
G1X173450Y351059D3*
G54D13*
G1X154622Y394209D3*
G1X194622Y404209D3*
G54D11*
G1X31578Y261559D3*
G1X46976Y275657D3*
G1X46976Y283157D3*
G1X46976Y290557D3*
G1X71276Y245957D3*
G1X78776Y245957D3*
G1X70376Y314657D3*
G1X70606Y366413D3*
G1X81629Y357752D3*
G1X81236Y366413D3*
G1X76118Y357752D3*
G1X76118Y366413D3*
G1X70606Y357752D3*
G1X87141Y357752D3*
G1X98471Y259957D3*
G1X109976Y269757D3*
G1X109976Y284757D3*
G1X134385Y309721D3*
G1X134385Y304209D3*
G1X104622Y399809D2*
G54D14*
G1X104622Y404209D1*
G1X104622Y408609D1*
G1X100222Y404209D2*
G1X104622Y404209D1*
G1X109022Y404209D1*
G1X114622Y399809D2*
G1X114622Y404209D1*
G1X114622Y408609D1*
G1X110222Y404209D2*
G1X114622Y404209D1*
G1X119022Y404209D1*
G1X124622Y399809D2*
G1X124622Y404209D1*
G1X124622Y408609D1*
G1X120222Y404209D2*
G1X124622Y404209D1*
G1X129022Y404209D1*
G1X134622Y399809D2*
G1X134622Y404209D1*
G1X134622Y408609D1*
G1X130222Y404209D2*
G1X134622Y404209D1*
G1X139022Y404209D1*
G1X144622Y399809D2*
G1X144622Y404209D1*
G1X144622Y408609D1*
G1X140221Y404209D2*
G1X144622Y404209D1*
G1X149022Y404209D1*
G54D39*
G1X37532Y356770D3*
G1X37532Y407749D3*
G1X64700Y271532D2*
G54D15*
G1X67160Y273991D1*
G1X68937Y273991D1*
G1X58489Y272225D2*
G1X64195Y277931D1*
G1X68937Y277931D1*
G1X68937Y275961D2*
G1X65962Y275961D1*
G1X61944Y271943D1*
G1X61944Y268200D1*
G1X58489Y264745D1*
G1X58489Y264445D1*
G1X68937Y283831D2*
G1X68937Y286819D1*
G1X61389Y294366D1*
G1X58489Y294366D1*
G1X58489Y279406D2*
G1X62338Y279406D1*
G1X62834Y279901D1*
G1X68937Y279901D1*
G1X58489Y286886D2*
G1X61551Y286886D1*
G1X66566Y281871D1*
G1X68937Y281871D1*
G1X66669Y304603D2*
G1X66369Y304603D1*
G1X62732Y300966D1*
G1X62732Y295746D1*
G1X66080Y292398D1*
G1X69055Y292398D1*
G1X71787Y289666D1*
G1X71787Y286691D1*
G1X72555Y262896D2*
G1X72622Y262963D1*
G1X72622Y264397D1*
G1X73338Y265113D1*
G1X73338Y265114D1*
G1X73757Y265533D1*
G1X73757Y267201D1*
G1X71787Y267201D2*
G1X71787Y266079D1*
G1X69893Y264185D1*
G1X69893Y262584D1*
G1X74637Y257841D1*
G1X82117Y257841D2*
G1X79697Y260261D1*
G1X79697Y264097D1*
G1X79657Y264137D1*
G1X79657Y267201D1*
G1X77697Y267201D2*
G1X77697Y263658D1*
G1X75727Y267201D2*
G1X75727Y264448D1*
G1X74937Y263658D1*
G1X66669Y299003D2*
G1X66969Y299003D1*
G1X73757Y292214D1*
G1X73757Y286691D1*
G1X74149Y299003D2*
G1X74149Y296103D1*
G1X75727Y294525D1*
G1X75727Y286691D1*
G1X81630Y299003D2*
G1X81330Y299003D1*
G1X77692Y295366D1*
G1X77692Y289670D1*
G1X77697Y289666D1*
G1X77697Y286691D1*
G1X89897Y257841D2*
G1X89597Y257841D1*
G1X86536Y260902D1*
G1X84385Y260902D1*
G1X81627Y263660D1*
G1X81627Y267201D1*
G1X88417Y273991D2*
G1X91768Y273991D1*
G1X86354Y263264D2*
G1X84561Y263264D1*
G1X83597Y264228D1*
G1X83597Y267201D1*
G1X85567Y267201D2*
G1X87418Y267201D1*
G1X88323Y266297D1*
G1X88417Y272021D2*
G1X90982Y272021D1*
G1X91866Y271138D1*
G1X90685Y268382D2*
G1X90685Y269051D1*
G1X89685Y270051D1*
G1X88417Y270051D1*
G1X88417Y275961D2*
G1X90909Y275961D1*
G1X90940Y275991D1*
G1X92597Y275991D1*
G1X92627Y275961D1*
G1X92948Y275961D1*
G1X95015Y273894D1*
G1X95015Y269775D1*
G1X98471Y266320D1*
G1X98471Y266020D1*
G1X98471Y273500D2*
G1X98471Y273800D1*
G1X94340Y277931D1*
G1X88417Y277931D1*
G1X98471Y280981D2*
G1X93441Y280981D1*
G1X92361Y279901D1*
G1X88417Y279901D1*
G1X98471Y288461D2*
G1X95007Y288461D1*
G1X93047Y286501D1*
G1X93047Y283526D1*
G1X91392Y281871D1*
G1X88417Y281871D1*
G1X83597Y286691D2*
G1X83597Y288785D1*
G1X85241Y290429D1*
G54D24*
G1X66669Y304603D3*
G1X66669Y299003D3*
G1X67456Y252241D3*
G1X67456Y257841D3*
G1X74937Y252241D3*
G1X74937Y257841D3*
G1X74149Y304603D3*
G1X74149Y299003D3*
G1X81630Y304603D3*
G1X81630Y299003D3*
G1X89897Y252241D3*
G1X89897Y257841D3*
G1X82417Y252241D3*
G1X82417Y257841D3*
G1X90291Y314445D3*
G1X90291Y320045D3*
G1X82811Y319957D3*
G1X82811Y314357D3*
G1X105252Y314445D3*
G1X105252Y320045D3*
G1X97771Y319957D3*
G1X97771Y314357D3*
G1X141078Y280193D3*
G1X141078Y285793D3*
G1X141078Y350971D3*
G1X141078Y356571D3*
G1X160763Y280193D3*
G1X160763Y285793D3*
G1X160763Y350971D3*
G1X160763Y356571D3*
G1X17850Y275863D2*
G54D42*
G1X28874Y275863D1*
G1X47771Y256965D1*
G1X52889Y256965D1*
G1X67456Y252241D2*
G1X64636Y252241D1*
G75*
G3X63646Y251830I1J-1400D1*
G74*
G1X63007Y251191D1*
G75*
G2X61747Y250669I-1260J1260D1*
G74*
G1X45017Y250669D1*
G1X58489Y256965D2*
G1X62338Y256965D1*
G1X63214Y257841D1*
G1X67456Y257841D1*
G1X67456Y264465D1*
G1X68937Y265945D1*
G1X68937Y270051D1*
G1X79657Y286691D2*
G1X79661Y286695D1*
G1X79661Y292791D1*
G1X82255Y295385D1*
G1X88947Y295385D1*
G1X90990Y297428D1*
G1X90990Y303422D1*
G1X96590Y303422D2*
G1X96590Y299878D1*
G1X89897Y293185D1*
G1X84779Y293185D1*
G1X81627Y290033D1*
G1X81627Y286691D1*
G1X104464Y295941D2*
G1X98952Y295941D1*
G1X89702Y286691D1*
G1X85567Y286691D1*
G1X90990Y303422D2*
G1X90990Y308628D1*
G1X90291Y309327D1*
G1X90291Y314445D1*
G1X82811Y314357D2*
G1X86211Y314357D1*
G1X86299Y314445D1*
G1X90291Y314445D1*
G1X97771Y319957D2*
G1X97771Y320138D1*
G1X94228Y323681D1*
G1X90291Y320045D2*
G1X90591Y320045D1*
G1X94228Y323681D1*
G1X94228Y327437D2*
G1X94228Y323681D1*
G1X96590Y303422D2*
G1X96590Y308540D1*
G1X97771Y309721D1*
G1X97771Y314357D1*
G1X110064Y295941D2*
G1X122968Y295941D1*
G1X97771Y314357D2*
G1X101763Y314357D1*
G1X101852Y314445D1*
G1X105252Y314445D1*
G1X99828Y327437D2*
G1X106738Y327437D1*
G1X128480Y351059D2*
G1X128480Y350759D1*
G1X115011Y337291D1*
G75*
G3X112338Y330837I6454J-6454D1*
G74*
G1X112338Y327437D1*
G1X128568Y295941D2*
G1X128568Y290911D1*
G1X128480Y290823D1*
G1X128480Y285705D1*
G1X134080Y285705D2*
G1X137590Y285705D1*
G1X137678Y285793D1*
G1X141078Y285793D1*
G1X141078Y350971D2*
G1X137678Y350971D1*
G1X137591Y351059D1*
G1X134080Y351059D1*
G1X141078Y285793D2*
G1X144976Y285793D1*
G1X145065Y285705D1*
G1X148165Y285705D1*
G1X153765Y285705D2*
G1X157275Y285705D1*
G1X157363Y285793D1*
G1X160763Y285793D1*
G1X148165Y351059D2*
G1X145065Y351059D1*
G1X144977Y350971D1*
G1X141078Y350971D1*
G1X160763Y350971D2*
G1X157363Y350971D1*
G1X157276Y351059D1*
G1X153765Y351059D1*
G1X160763Y285793D2*
G1X164661Y285793D1*
G1X164750Y285705D1*
G1X167850Y285705D1*
G1X167850Y351059D2*
G1X164750Y351059D1*
G1X164662Y350971D1*
G1X160763Y350971D1*
G1X173450Y285705D2*
G1X198952Y285705D1*
G1X198952Y351059D2*
G1X189778Y351059D1*
G1X189777Y351059D1*
G1X173450Y351059D1*
G54D40*
G1X70212Y379799D3*
G54D38*
G1X68937Y270051D3*
G1X68937Y272021D3*
G1X68937Y273991D3*
G1X68937Y275961D3*
G1X68937Y277931D3*
G1X68937Y279901D3*
G1X68937Y281871D3*
G1X68937Y283831D3*
G1X88417Y277931D3*
G1X88417Y275961D3*
G1X88417Y273991D3*
G1X88417Y272021D3*
G1X88417Y270051D3*
G1X88417Y283831D3*
G1X88417Y281871D3*
G1X88417Y279901D3*
G54D36*
G1X78677Y276941D3*
G54D10*
G36*
G1X220042Y219995D2*
G1X416892Y219995D1*
G1X416892Y282200D1*
G1X335396Y282200D1*
G1X335396Y292436D1*
G1X312529Y292436D1*
G1X312529Y287601D1*
G1X312935Y287195D1*
G1X319341Y287195D1*
G75*
G2X319341Y282395I701J-2400D1*
G1X312529Y282395D1*
G1X312529Y272640D1*
G1X312974Y272195D1*
G1X319341Y272195D1*
G2X319341Y267395I701J-2400D1*
G1X312529Y267395D1*
G1X312529Y253873D1*
G1X291315Y253873D1*
G1X291242Y253801D1*
G1X291242Y246696D1*
G2X286442Y246696I-2400J-702D1*
G1X286442Y253873D1*
G1X284092Y253873D1*
G1X283742Y253524D1*
G1X283742Y246696D1*
G2X278942Y246696I-2400J-702D1*
G1X278942Y249678D1*
G1X275622Y249678D1*
G2X274982Y249910I-1J997D1*
G1X274841Y250027D1*
G1X274558Y249744D1*
G2X271813Y248607I-2744J2740D1*
G1X258004Y248607D1*
G1X257949Y248495D1*
G2X257051Y247935I-897J437D1*
G1X253114Y247935D1*
G2X252114Y248935I0J1000D1*
G1X252114Y252479D1*
G2X253114Y253479I1001J-2D1*
G1X256960Y253479D1*
G1X256960Y254910D1*
G1X238070Y273800D1*
G1X236593Y273800D1*
G1X236593Y273538D1*
G2X235593Y272538I-999J-2D1*
G1X220042Y272538D1*
G1X220042Y219995D1*
G37*
G36*
G1X239810Y278001D2*
G1X258707Y259103D1*
G1X260365Y259103D1*
G1X260412Y259236D1*
G2X261355Y259903I944J-336D1*
G1X264522Y259903D1*
G1X264522Y272903D1*
G1X264130Y273295D1*
G1X257743Y273295D1*
G2X257743Y278095I-701J2400D1*
G1X264522Y278095D1*
G1X264522Y280383D1*
G1X264110Y280795D1*
G1X257743Y280795D1*
G2X257743Y285595I-701J2400D1*
G1X264522Y285595D1*
G1X264522Y288195D1*
G1X257743Y288195D1*
G2X257743Y292995I-701J2400D1*
G1X264052Y292995D1*
G1X264522Y293465D1*
G1X264522Y303028D1*
G1X272135Y303028D1*
G1X273835Y304728D1*
G1X273835Y306241D1*
G2X274835Y307241I1001J-2D1*
G1X278042Y307241D1*
G1X278042Y313994D1*
G2X282842Y313994I2400J700D1*
G1X282842Y303508D1*
G1X283322Y303028D1*
G1X298456Y303028D1*
G1X298456Y305360D1*
G2X298956Y306226I1003J-2D1*
G1X298956Y307796D1*
G1X298257Y308495D1*
G1X298257Y311893D1*
G1X298124Y311940D1*
G2X297591Y312383I332J942D1*
G1X297235Y312383D1*
G1X297146Y312294D1*
G1X295643Y312294D1*
G2X294777Y311794I-865J497D1*
G1X290977Y311794D1*
G2X289976Y312794I-1J1000D1*
G1X289976Y315995D1*
G2X290977Y316995I1001J-2D1*
G1X294767Y316995D1*
G1X294767Y322690D1*
G1X298450Y322690D1*
G1X298450Y322683D1*
G1X300287Y322683D1*
G1X301289Y323685D1*
G1X301187Y323932D1*
G1X301144Y323932D1*
G1X301144Y331018D1*
G1X320303Y331018D1*
G1X320309Y331212D1*
G2X323592Y338814I11228J-340D1*
G1X335396Y350618D1*
G1X335396Y354640D1*
G1X416892Y354640D1*
G1X416892Y416845D1*
G1X220042Y416845D1*
G1X220042Y279263D1*
G1X235593Y279263D1*
G2X236593Y278263I-1J-1001D1*
G1X236593Y278001D1*
G1X239810Y278001D1*
G37*
G36*
G1X309794Y307779D2*
G1X312529Y307779D1*
G1X312529Y306554D1*
G3X312748Y306355I199J-1D1*
G2X312842Y306360I129J-1550D1*
G1X321642Y306360D1*
G2X322508Y305860I-1J-1002D1*
G1X330568Y305860D1*
G2X330634Y305960I1170J-701D1*
G1X330634Y308440D1*
G2X330434Y309040I804J601D1*
G1X330434Y312840D1*
G2X331434Y313840I1001J-2D1*
G1X336033Y313840D1*
G1X336033Y313841D1*
G1X352869Y313841D1*
G1X352869Y300559D1*
G1X331434Y300559D1*
G2X330568Y301059I-1J999D1*
G1X322508Y301059D1*
G2X321642Y300559I-865J497D1*
G1X316930Y300559D1*
G1X316930Y299522D1*
G1X341302Y299522D1*
G1X341302Y289286D1*
G1X416892Y289286D1*
G1X416892Y347554D1*
G1X338272Y347554D1*
G1X326562Y335843D1*
G3X324528Y331451I4975J-4972D1*
G3X324926Y331018I398J-34D1*
G1X325554Y331018D1*
G1X325554Y323932D1*
G1X313418Y323932D1*
G1X313418Y317083D1*
G1X317218Y317083D1*
G2X318218Y316083I-1J-1001D1*
G1X318218Y312883D1*
G2X317218Y311883I-999J-2D1*
G1X313417Y311883D1*
G2X312609Y312294I-1J998D1*
G1X310603Y312294D1*
G2X310071Y311852I-862J495D1*
G1X309938Y311805D1*
G1X309938Y308889D1*
G1X309511Y308462D1*
G3X309794Y307779I283J-283D1*
G37*
G36*
G1X337033Y301560D2*
G1X351868Y301560D1*
G1X351868Y312841D1*
G1X337033Y312841D1*
G1X337033Y301560D1*
G37*
%LPC*%
G36*
G1X243664Y240845D2*
G1X247601Y240845D1*
G3X248601Y241845I1J998D1*
G1X248601Y245389D1*
G3X247601Y246389I-1001J-1D1*
G1X243664Y246389D1*
G3X242664Y245389I1J-1002D1*
G1X242664Y241845D1*
G3X243664Y240845I1000J0D1*
G37*
G36*
G1X240442Y259404D2*
G1X243232Y256614D1*
G1X243232Y253388D1*
G1X243138Y253329D1*
G3X242664Y252479I529J-853D1*
G1X242664Y248935D1*
G3X243664Y247935I1000J0D1*
G1X247601Y247935D1*
G3X248601Y248935I0J999D1*
G1X248601Y252479D1*
G3X248128Y253329I-999J0D1*
G1X248033Y253388D1*
G1X248033Y254234D1*
G3X248538Y255103I-493J867D1*
G1X248538Y258903D1*
G3X247538Y259903I-1001J-1D1*
G1X246732Y259903D1*
G1X243837Y262799D1*
G1X243823Y262823D1*
G3X240418Y259418I-2179J-1227D1*
G1X240442Y259404D1*
G37*
G36*
G1X401788Y400347D2*
G1X407588Y400347D1*
G3X408588Y401347I1J998D1*
G1X408588Y407147D1*
G3X407588Y408147I-1001J-1D1*
G1X401788Y408147D1*
G3X400788Y407147I1J-1002D1*
G1X400788Y401347D1*
G3X401788Y400347I999J0D1*
G37*
G36*
G1X361788Y390347D2*
G1X367588Y390347D1*
G3X368588Y391347I1J998D1*
G1X368588Y397147D1*
G3X367588Y398147I-1001J-1D1*
G1X361788Y398147D1*
G3X360788Y397147I1J-1002D1*
G1X360788Y391347D1*
G3X361788Y390347I999J0D1*
G37*
G36*
G1X271042Y373485D2*
G1X271042Y372506D1*
G1X271032Y372506D1*
G1X271032Y371104D1*
G1X271042Y371104D1*
G1X271042Y353095D1*
G1X301542Y353095D1*
G1X301542Y371104D1*
G1X301554Y371104D1*
G1X301554Y372506D1*
G1X301542Y372506D1*
G1X301542Y386995D1*
G1X271042Y386995D1*
G1X271042Y386190D1*
G1X271037Y386167D1*
G3X271010Y385940I1032J-238D1*
G1X271010Y373735D1*
G3X271037Y373507I1048J8D1*
G1X271042Y373485D1*
G37*
G74*
G54D18*
G1X314688Y404247D3*
G1X334688Y404247D3*
G1X324688Y404247D3*
G1X344688Y404247D3*
G1X354688Y404247D3*
G54D17*
G1X314688Y394247D3*
G1X334688Y394247D3*
G1X324688Y394247D3*
G1X344688Y394247D3*
G1X354688Y394247D3*
G1X364688Y404247D3*
G1X374688Y394247D3*
G1X374688Y404247D3*
G1X394688Y394247D3*
G1X384688Y394247D3*
G1X394688Y404247D3*
G1X384688Y404247D3*
G1X404688Y394247D3*
%LPD*%
G36*
G1X272042Y354095D2*
G1X300542Y354095D1*
G1X300542Y370095D1*
G1X272042Y370095D1*
G1X272042Y354095D1*
G37*
G36*
G1X272042Y373495D2*
G1X300542Y373495D1*
G1X300542Y385995D1*
G1X272042Y385995D1*
G1X272042Y373495D1*
G37*
G1X245938Y257003D2*
G54D10*
G1X245938Y257303D1*
G1X241644Y261597D1*
G1X245633Y250707D2*
G1X245633Y256697D1*
G1X245938Y257003D1*
G1X257042Y275695D2*
G1X265124Y275695D1*
G1X268555Y272263D1*
G1X268555Y294404D2*
G1X268555Y294104D1*
G1X265046Y290595D1*
G1X257042Y290595D1*
G1X257042Y283195D2*
G1X265104Y283195D1*
G1X268555Y279744D1*
G1X268555Y279444D1*
G1X268555Y271963D2*
G1X268555Y272263D1*
G1X281342Y245995D2*
G1X281342Y254518D1*
G1X284703Y257879D1*
G1X288842Y245995D2*
G1X288842Y254795D1*
G1X291926Y257879D1*
G1X292183Y257879D1*
G1X285003Y257879D2*
G1X284703Y257879D1*
G1X280442Y314695D2*
G1X280442Y302514D1*
G1X283915Y299041D1*
G1X284215Y299041D1*
G1X292483Y257879D2*
G1X292183Y257879D1*
G1X308537Y266058D2*
G1X308537Y259995D1*
G1X320042Y269795D2*
G1X311980Y269795D1*
G1X308537Y273238D1*
G1X308537Y273538D1*
G1X320042Y284795D2*
G1X311940Y284795D1*
G1X308537Y288199D1*
G1X308537Y288499D1*
G1X314442Y303460D2*
G1X314530Y303371D1*
G1X314530Y295979D1*
G1X333034Y303460D2*
G1X320042Y303460D1*
G1X333034Y310940D2*
G1X333034Y303460D1*
G1X229884Y249523D3*
G1X225160Y259759D3*
G1X229491Y259759D3*
G1X229097Y292830D3*
G1X224373Y292830D3*
G1X229884Y308578D3*
G1X229884Y328263D3*
G1X229884Y347948D3*
G1X229884Y367633D3*
G1X229884Y387318D3*
G1X229884Y407003D3*
G1X239727Y239680D3*
G1X239727Y279050D3*
G1X239727Y298735D3*
G1X239727Y318420D3*
G1X239727Y338105D3*
G1X239727Y377475D3*
G1X239727Y397160D3*
G1X249570Y229837D3*
G1X259412Y239680D3*
G1X249963Y269208D3*
G1X258231Y268420D3*
G1X259412Y279050D3*
G1X249570Y288893D3*
G1X259412Y298735D3*
G1X249570Y308578D3*
G1X259412Y318420D3*
G1X259412Y338105D3*
G1X249570Y328263D3*
G1X259412Y377475D3*
G1X259412Y397160D3*
G1X249570Y387318D3*
G1X269255Y229837D3*
G1X274766Y271570D3*
G1X269255Y308578D3*
G1X269255Y328263D3*
G1X269255Y347948D3*
G1X269255Y407003D3*
G1X288940Y229837D3*
G1X279097Y239680D3*
G1X282621Y262934D3*
G1X285003Y273932D3*
G1X288546Y277475D3*
G1X285003Y277475D3*
G1X288546Y273932D3*
G1X287763Y263696D3*
G1X285003Y263696D3*
G1X288546Y280625D3*
G1X285003Y280625D3*
G1X279097Y318420D3*
G1X288152Y319995D3*
G1X284215Y309365D3*
G1X279097Y338105D3*
G1X288940Y328263D3*
G1X288940Y347948D3*
G1X279097Y397160D3*
G1X288940Y407003D3*
G1X298782Y239680D3*
G1X296420Y263302D3*
G1X301834Y274029D3*
G1X298389Y266335D3*
G1X292089Y277475D3*
G1X292089Y273932D3*
G1X301932Y271176D3*
G1X300751Y268420D3*
G1X292089Y280625D3*
G1X295307Y290467D3*
G1X291696Y309365D3*
G1X298782Y338105D3*
G1X298782Y397160D3*
G1X308625Y229837D3*
G1X318467Y239680D3*
G1X314136Y261334D3*
G1X318467Y259365D3*
G1X320042Y320389D3*
G1X318467Y338105D3*
G1X308625Y347948D3*
G1X308625Y367633D3*
G1X318467Y357790D3*
G1X318467Y377475D3*
G1X328310Y229837D3*
G1X328310Y249523D3*
G1X322798Y276294D3*
G1X321617Y288893D3*
G1X327128Y283774D3*
G1X328310Y367633D3*
G1X347995Y229837D3*
G1X338152Y239680D3*
G1X338152Y259365D3*
G1X347995Y249523D3*
G1X347995Y269208D3*
G1X338152Y279050D3*
G1X338152Y338105D3*
G1X347995Y367633D3*
G1X338152Y357790D3*
G1X338152Y377475D3*
G1X357837Y239680D3*
G1X357837Y259365D3*
G1X351144Y275507D3*
G1X357837Y279050D3*
G1X357837Y298735D3*
G1X357837Y318420D3*
G1X357837Y357790D3*
G1X351538Y361334D3*
G1X357837Y377475D3*
G1X367680Y229837D3*
G1X377522Y239680D3*
G1X367680Y249523D3*
G1X377522Y259365D3*
G1X370829Y275507D3*
G1X367680Y269208D3*
G1X377522Y279050D3*
G1X377522Y298735D3*
G1X377522Y318420D3*
G1X367680Y308578D3*
G1X377522Y338105D3*
G1X370829Y361334D3*
G1X367680Y367633D3*
G1X377916Y358578D3*
G1X378310Y377475D3*
G1X387365Y229837D3*
G1X387365Y249523D3*
G1X387365Y269208D3*
G1X387365Y308578D3*
G1X387365Y328263D3*
G1X387365Y367633D3*
G1X407050Y229837D3*
G1X397207Y239680D3*
G1X407050Y249523D3*
G1X397207Y259365D3*
G1X407444Y269208D3*
G1X397207Y279050D3*
G1X397207Y298735D3*
G1X405869Y301885D3*
G1X407050Y308578D3*
G1X397207Y318420D3*
G1X397207Y338105D3*
G1X407050Y328263D3*
G1X406262Y334562D3*
G1X397995Y357790D3*
G1X407837Y367633D3*
G1X397995Y377475D3*
G1X412955Y269208D3*
G1X412562Y301885D3*
G1X412955Y334562D3*
G1X412562Y367633D3*
G54D37*
G1X289723Y267239D3*
G1X287763Y267239D3*
G1X285793Y267239D3*
G1X283823Y267239D3*
G1X281853Y267239D3*
G1X281853Y286729D3*
G1X283823Y286729D3*
G1X285793Y286729D3*
G1X287763Y286729D3*
G1X289723Y286729D3*
G1X295633Y267239D3*
G1X293663Y267239D3*
G1X291693Y267239D3*
G1X291693Y286729D3*
G1X293663Y286729D3*
G1X295633Y286729D3*
G54D35*
G1X227916Y265074D3*
G1X227916Y275901D3*
G1X227916Y286727D3*
G1X409018Y274916D3*
G1X409018Y285743D3*
G1X409018Y296570D3*
G1X409018Y340271D3*
G1X409018Y351097D3*
G1X409018Y361924D3*
G54D41*
G1X245633Y243617D3*
G1X245633Y250707D3*
G1X255083Y243617D3*
G1X255083Y250707D3*
G54D26*
G1X298042Y367595D3*
G1X298042Y375995D3*
G54D12*
G1X314688Y394247D3*
G1X314688Y404247D3*
G1X334688Y394247D3*
G1X324688Y394247D3*
G1X334688Y404247D3*
G1X324688Y404247D3*
G1X344688Y394247D3*
G1X344688Y404247D3*
G1X354688Y394247D3*
G1X364688Y404247D3*
G1X354688Y404247D3*
G1X374688Y394247D3*
G1X374688Y404247D3*
G1X394688Y394247D3*
G1X384688Y394247D3*
G1X394688Y404247D3*
G1X384688Y404247D3*
G1X404688Y394247D3*
G54D23*
G1X245938Y257003D3*
G1X251538Y257003D3*
G1X262955Y257003D3*
G1X268555Y257003D3*
G1X262955Y271963D3*
G1X268555Y271963D3*
G1X262955Y264483D3*
G1X268555Y264483D3*
G1X262955Y279444D3*
G1X268555Y279444D3*
G1X262955Y286924D3*
G1X268555Y286924D3*
G1X262955Y294404D3*
G1X268555Y294404D3*
G1X268042Y355995D3*
G1X273642Y355995D3*
G1X301056Y303460D3*
G1X304294Y327475D3*
G1X314136Y273538D3*
G1X308537Y273538D3*
G1X314136Y266058D3*
G1X308537Y266058D3*
G1X314136Y281019D3*
G1X308537Y281019D3*
G1X314136Y288499D3*
G1X308537Y288499D3*
G1X314530Y295979D3*
G1X320130Y295979D3*
G1X320042Y303460D3*
G1X314442Y303460D3*
G1X306656Y303460D3*
G1X316804Y327475D3*
G1X309894Y327475D3*
G1X333034Y303460D3*
G1X333034Y295979D3*
G1X333034Y310940D3*
G1X322404Y327475D3*
G1X338546Y285743D3*
G1X344146Y285743D3*
G1X338634Y303460D3*
G1X338634Y295979D3*
G1X350268Y303460D3*
G1X338634Y310940D3*
G1X350268Y310940D3*
G1X338546Y351097D3*
G1X344146Y351097D3*
G1X358231Y285743D3*
G1X363831Y285743D3*
G1X355868Y303460D3*
G1X355868Y310940D3*
G1X358231Y351097D3*
G1X363831Y351097D3*
G1X377916Y285743D3*
G1X377916Y351097D3*
G1X383516Y285743D3*
G1X383516Y351097D3*
G54D13*
G1X364688Y394247D3*
G1X404688Y404247D3*
G54D11*
G1X241644Y261597D3*
G1X257042Y275695D3*
G1X257042Y283195D3*
G1X257042Y290595D3*
G1X281342Y245995D3*
G1X288842Y245995D3*
G1X280442Y314695D3*
G1X280672Y366451D3*
G1X291695Y357790D3*
G1X291302Y366451D3*
G1X286184Y357790D3*
G1X286184Y366451D3*
G1X280672Y357790D3*
G1X297207Y357790D3*
G1X308537Y259995D3*
G1X320042Y269795D3*
G1X320042Y284795D3*
G1X344451Y309759D3*
G1X344451Y304247D3*
G1X314688Y399847D2*
G54D14*
G1X314688Y404247D1*
G1X314688Y408647D1*
G1X310288Y404247D2*
G1X314688Y404247D1*
G1X319088Y404247D1*
G1X324688Y399847D2*
G1X324688Y404247D1*
G1X324688Y408647D1*
G1X320288Y404247D2*
G1X324688Y404247D1*
G1X329088Y404247D1*
G1X334688Y399847D2*
G1X334688Y404247D1*
G1X334688Y408647D1*
G1X330288Y404247D2*
G1X334688Y404247D1*
G1X339088Y404247D1*
G1X344688Y399847D2*
G1X344688Y404247D1*
G1X344688Y408647D1*
G1X340288Y404247D2*
G1X344688Y404247D1*
G1X349088Y404247D1*
G1X354688Y399847D2*
G1X354688Y404247D1*
G1X354688Y408647D1*
G1X350287Y404247D2*
G1X354688Y404247D1*
G1X359088Y404247D1*
G54D39*
G1X247598Y356808D3*
G1X247598Y407787D3*
G1X274766Y271570D2*
G54D15*
G1X277226Y274029D1*
G1X279003Y274029D1*
G1X268555Y272263D2*
G1X274261Y277969D1*
G1X279003Y277969D1*
G1X279003Y275999D2*
G1X276028Y275999D1*
G1X272010Y271981D1*
G1X272010Y268238D1*
G1X268555Y264783D1*
G1X268555Y264483D1*
G1X279003Y283869D2*
G1X279003Y286857D1*
G1X271455Y294404D1*
G1X268555Y294404D1*
G1X268555Y279444D2*
G1X272404Y279444D1*
G1X272900Y279939D1*
G1X279003Y279939D1*
G1X268555Y286924D2*
G1X271617Y286924D1*
G1X276632Y281909D1*
G1X279003Y281909D1*
G1X276735Y304641D2*
G1X276435Y304641D1*
G1X272798Y301004D1*
G1X272798Y295784D1*
G1X276146Y292436D1*
G1X279121Y292436D1*
G1X281853Y289704D1*
G1X281853Y286729D1*
G1X282621Y262934D2*
G1X282688Y263001D1*
G1X282688Y264435D1*
G1X283404Y265151D1*
G1X283404Y265152D1*
G1X283823Y265571D1*
G1X283823Y267239D1*
G1X281853Y267239D2*
G1X281853Y266117D1*
G1X279959Y264223D1*
G1X279959Y262622D1*
G1X284703Y257879D1*
G1X292183Y257879D2*
G1X289763Y260299D1*
G1X289763Y264135D1*
G1X289723Y264175D1*
G1X289723Y267239D1*
G1X287763Y267239D2*
G1X287763Y263696D1*
G1X285793Y267239D2*
G1X285793Y264486D1*
G1X285003Y263696D1*
G1X276735Y299041D2*
G1X277035Y299041D1*
G1X283823Y292252D1*
G1X283823Y286729D1*
G1X284215Y299041D2*
G1X284215Y296141D1*
G1X285793Y294563D1*
G1X285793Y286729D1*
G1X291696Y299041D2*
G1X291396Y299041D1*
G1X287758Y295404D1*
G1X287758Y289708D1*
G1X287763Y289704D1*
G1X287763Y286729D1*
G1X299963Y257879D2*
G1X299663Y257879D1*
G1X296602Y260940D1*
G1X294451Y260940D1*
G1X291693Y263698D1*
G1X291693Y267239D1*
G1X298483Y274029D2*
G1X301834Y274029D1*
G1X296420Y263302D2*
G1X294627Y263302D1*
G1X293663Y264266D1*
G1X293663Y267239D1*
G1X295633Y267239D2*
G1X297484Y267239D1*
G1X298389Y266335D1*
G1X298483Y272059D2*
G1X301048Y272059D1*
G1X301932Y271176D1*
G1X300751Y268420D2*
G1X300751Y269089D1*
G1X299751Y270089D1*
G1X298483Y270089D1*
G1X298483Y275999D2*
G1X300975Y275999D1*
G1X301006Y276029D1*
G1X302663Y276029D1*
G1X302693Y275999D1*
G1X303014Y275999D1*
G1X305081Y273932D1*
G1X305081Y269813D1*
G1X308537Y266358D1*
G1X308537Y266058D1*
G1X308537Y273538D2*
G1X308537Y273838D1*
G1X304406Y277969D1*
G1X298483Y277969D1*
G1X308537Y281019D2*
G1X303507Y281019D1*
G1X302427Y279939D1*
G1X298483Y279939D1*
G1X308537Y288499D2*
G1X305073Y288499D1*
G1X303113Y286539D1*
G1X303113Y283564D1*
G1X301458Y281909D1*
G1X298483Y281909D1*
G1X293663Y286729D2*
G1X293663Y288823D1*
G1X295307Y290467D1*
G54D24*
G1X276735Y304641D3*
G1X276735Y299041D3*
G1X277522Y252279D3*
G1X277522Y257879D3*
G1X285003Y252279D3*
G1X285003Y257879D3*
G1X284215Y304641D3*
G1X284215Y299041D3*
G1X291696Y304641D3*
G1X291696Y299041D3*
G1X299963Y252279D3*
G1X299963Y257879D3*
G1X292483Y252279D3*
G1X292483Y257879D3*
G1X300357Y314483D3*
G1X300357Y320083D3*
G1X292877Y319995D3*
G1X292877Y314395D3*
G1X315318Y314483D3*
G1X315318Y320083D3*
G1X307837Y319995D3*
G1X307837Y314395D3*
G1X351144Y280231D3*
G1X351144Y285831D3*
G1X351144Y351009D3*
G1X351144Y356609D3*
G1X370829Y280231D3*
G1X370829Y285831D3*
G1X370829Y351009D3*
G1X370829Y356609D3*
G1X227916Y275901D2*
G54D42*
G1X238940Y275901D1*
G1X257837Y257003D1*
G1X262955Y257003D1*
G1X277522Y252279D2*
G1X274702Y252279D1*
G75*
G3X273712Y251868I1J-1400D1*
G74*
G1X273073Y251229D1*
G75*
G2X271813Y250707I-1260J1260D1*
G74*
G1X255083Y250707D1*
G1X268555Y257003D2*
G1X272404Y257003D1*
G1X273280Y257879D1*
G1X277522Y257879D1*
G1X277522Y264503D1*
G1X279003Y265983D1*
G1X279003Y270089D1*
G1X289723Y286729D2*
G1X289727Y286733D1*
G1X289727Y292829D1*
G1X292321Y295423D1*
G1X299013Y295423D1*
G1X301056Y297466D1*
G1X301056Y303460D1*
G1X306656Y303460D2*
G1X306656Y299916D1*
G1X299963Y293223D1*
G1X294845Y293223D1*
G1X291693Y290071D1*
G1X291693Y286729D1*
G1X314530Y295979D2*
G1X309018Y295979D1*
G1X299768Y286729D1*
G1X295633Y286729D1*
G1X301056Y303460D2*
G1X301056Y308666D1*
G1X300357Y309365D1*
G1X300357Y314483D1*
G1X292877Y314395D2*
G1X296277Y314395D1*
G1X296365Y314483D1*
G1X300357Y314483D1*
G1X307837Y319995D2*
G1X307837Y320176D1*
G1X304294Y323719D1*
G1X300357Y320083D2*
G1X300657Y320083D1*
G1X304294Y323719D1*
G1X304294Y327475D2*
G1X304294Y323719D1*
G1X306656Y303460D2*
G1X306656Y308578D1*
G1X307837Y309759D1*
G1X307837Y314395D1*
G1X320130Y295979D2*
G1X333034Y295979D1*
G1X307837Y314395D2*
G1X311829Y314395D1*
G1X311918Y314483D1*
G1X315318Y314483D1*
G1X309894Y327475D2*
G1X316804Y327475D1*
G1X338546Y351097D2*
G1X338546Y350797D1*
G1X325077Y337329D1*
G75*
G3X322404Y330875I6454J-6454D1*
G74*
G1X322404Y327475D1*
G1X338634Y295979D2*
G1X338634Y290949D1*
G1X338546Y290861D1*
G1X338546Y285743D1*
G1X344146Y285743D2*
G1X347656Y285743D1*
G1X347744Y285831D1*
G1X351144Y285831D1*
G1X351144Y351009D2*
G1X347744Y351009D1*
G1X347657Y351097D1*
G1X344146Y351097D1*
G1X351144Y285831D2*
G1X355042Y285831D1*
G1X355131Y285743D1*
G1X358231Y285743D1*
G1X363831Y285743D2*
G1X367341Y285743D1*
G1X367429Y285831D1*
G1X370829Y285831D1*
G1X358231Y351097D2*
G1X355131Y351097D1*
G1X355043Y351009D1*
G1X351144Y351009D1*
G1X370829Y351009D2*
G1X367429Y351009D1*
G1X367342Y351097D1*
G1X363831Y351097D1*
G1X370829Y285831D2*
G1X374727Y285831D1*
G1X374816Y285743D1*
G1X377916Y285743D1*
G1X377916Y351097D2*
G1X374816Y351097D1*
G1X374728Y351009D1*
G1X370829Y351009D1*
G1X383516Y285743D2*
G1X409018Y285743D1*
G1X409018Y351097D2*
G1X399844Y351097D1*
G1X399843Y351097D1*
G1X383516Y351097D1*
G54D40*
G1X280278Y379837D3*
G54D38*
G1X279003Y270089D3*
G1X279003Y272059D3*
G1X279003Y274029D3*
G1X279003Y275999D3*
G1X279003Y277969D3*
G1X279003Y279939D3*
G1X279003Y281909D3*
G1X279003Y283869D3*
G1X298483Y277969D3*
G1X298483Y275999D3*
G1X298483Y274029D3*
G1X298483Y272059D3*
G1X298483Y270089D3*
G1X298483Y283869D3*
G1X298483Y281909D3*
G1X298483Y279939D3*
G54D36*
G1X288743Y276979D3*
G54D10*
G36*
G1X430026Y220025D2*
G1X626876Y220025D1*
G1X626876Y282230D1*
G1X545380Y282230D1*
G1X545380Y292466D1*
G1X522513Y292466D1*
G1X522513Y287631D1*
G1X522919Y287225D1*
G1X529325Y287225D1*
G75*
G2X529325Y282425I701J-2400D1*
G1X522513Y282425D1*
G1X522513Y272670D1*
G1X522958Y272225D1*
G1X529325Y272225D1*
G2X529325Y267425I701J-2400D1*
G1X522513Y267425D1*
G1X522513Y253903D1*
G1X501299Y253903D1*
G1X501226Y253831D1*
G1X501226Y246726D1*
G2X496426Y246726I-2401J-701D1*
G1X496426Y253903D1*
G1X494076Y253903D1*
G1X493726Y253554D1*
G1X493726Y246726D1*
G2X488926Y246726I-2401J-701D1*
G1X488926Y249708D1*
G1X485606Y249708D1*
G2X484966Y249940I2J1005D1*
G1X484825Y250057D1*
G1X484542Y249774D1*
G2X481797Y248637I-2748J2750D1*
G1X467988Y248637D1*
G1X467933Y248525D1*
G2X467035Y247965I-900J441D1*
G1X463098Y247965D1*
G2X462098Y248966I1J1001D1*
G1X462098Y252509D1*
G2X463098Y253509I999J0D1*
G1X466944Y253509D1*
G1X466944Y254940D1*
G1X448054Y273830D1*
G1X446577Y273830D1*
G1X446577Y273568D1*
G2X445577Y272568I-1001J0D1*
G1X430026Y272568D1*
G1X430026Y220025D1*
G37*
G36*
G1X449794Y278031D2*
G1X468691Y259133D1*
G1X470349Y259133D1*
G1X470396Y259266D1*
G2X471339Y259933I942J-332D1*
G1X474506Y259933D1*
G1X474506Y272933D1*
G1X474114Y273325D1*
G1X467727Y273325D1*
G2X467727Y278125I-702J2400D1*
G1X474506Y278125D1*
G1X474506Y280413D1*
G1X474094Y280825D1*
G1X467727Y280825D1*
G2X467727Y285625I-702J2400D1*
G1X474506Y285625D1*
G1X474506Y288225D1*
G1X467727Y288225D1*
G2X467727Y293025I-702J2400D1*
G1X474036Y293025D1*
G1X474506Y293495D1*
G1X474506Y303058D1*
G1X482119Y303058D1*
G1X483819Y304758D1*
G1X483819Y306271D1*
G2X484819Y307271I999J0D1*
G1X488026Y307271D1*
G1X488026Y314024D1*
G2X492826Y314024I2399J701D1*
G1X492826Y303538D1*
G1X493306Y303058D1*
G1X508440Y303058D1*
G1X508440Y305390D1*
G2X508940Y306256I998J0D1*
G1X508940Y307826D1*
G1X508241Y308525D1*
G1X508241Y311923D1*
G1X508108Y311970D1*
G2X507575Y312413I335J945D1*
G1X507219Y312413D1*
G1X507130Y312324D1*
G1X505627Y312324D1*
G2X504761Y311824I-868J502D1*
G1X500961Y311824D1*
G2X499960Y312825I0J1001D1*
G1X499960Y316025D1*
G2X500961Y317025I999J0D1*
G1X504751Y317025D1*
G1X504751Y322720D1*
G1X508434Y322720D1*
G1X508434Y322713D1*
G1X510271Y322713D1*
G1X511273Y323715D1*
G1X511171Y323962D1*
G1X511128Y323962D1*
G1X511128Y331048D1*
G1X530287Y331048D1*
G1X530293Y331242D1*
G2X533576Y338844I11220J-336D1*
G1X545380Y350648D1*
G1X545380Y354670D1*
G1X626876Y354670D1*
G1X626876Y416875D1*
G1X430026Y416875D1*
G1X430026Y279293D1*
G1X445577Y279293D1*
G2X446577Y278293I0J-1000D1*
G1X446577Y278031D1*
G1X449794Y278031D1*
G37*
G36*
G1X519778Y307809D2*
G1X522513Y307809D1*
G1X522513Y306584D1*
G3X522732Y306385I200J0D1*
G2X522826Y306390I88J-785D1*
G1X531626Y306390D1*
G2X532492Y305890I0J-999D1*
G1X540552Y305890D1*
G2X540618Y305990I769J-437D1*
G1X540618Y308470D1*
G2X540418Y309070I801J600D1*
G1X540418Y312870D1*
G2X541418Y313870I999J0D1*
G1X546017Y313870D1*
G1X546017Y313871D1*
G1X562853Y313871D1*
G1X562853Y300589D1*
G1X541418Y300589D1*
G2X540552Y301089I1J1001D1*
G1X532492Y301089D1*
G2X531626Y300589I-868J502D1*
G1X526914Y300589D1*
G1X526914Y299552D1*
G1X551286Y299552D1*
G1X551286Y289316D1*
G1X626876Y289316D1*
G1X626876Y347584D1*
G1X548256Y347584D1*
G1X536546Y335873D1*
G3X534512Y331481I4966J-4967D1*
G3X534910Y331048I398J-34D1*
G1X535538Y331048D1*
G1X535538Y323962D1*
G1X523402Y323962D1*
G1X523402Y317113D1*
G1X527202Y317113D1*
G2X528202Y316113I0J-1000D1*
G1X528202Y312913D1*
G2X527202Y311913I-1001J0D1*
G1X523401Y311913D1*
G2X522593Y312324I1J1001D1*
G1X520587Y312324D1*
G2X520055Y311882I-870J505D1*
G1X519922Y311835D1*
G1X519922Y308919D1*
G1X519495Y308492D1*
G3X519778Y307809I283J-283D1*
G37*
G36*
G1X547017Y301590D2*
G1X561852Y301590D1*
G1X561852Y312871D1*
G1X547017Y312871D1*
G1X547017Y301590D1*
G37*
%LPC*%
G36*
G1X453648Y240875D2*
G1X457585Y240875D1*
G3X458585Y241875I-1J1000D1*
G1X458585Y245419D1*
G3X457585Y246419I-1000J0D1*
G1X453648Y246419D1*
G3X452648Y245419I-1J-1000D1*
G1X452648Y241875D1*
G3X453648Y240875I1000J0D1*
G37*
G36*
G1X450426Y259434D2*
G1X453216Y256644D1*
G1X453216Y253418D1*
G1X453122Y253359D1*
G3X452648Y252509I524J-850D1*
G1X452648Y248965D1*
G3X453648Y247965I1000J0D1*
G1X457585Y247965D1*
G3X458585Y248966I-2J1001D1*
G1X458585Y252510D1*
G3X458112Y253359I-999J-1D1*
G1X458017Y253418D1*
G1X458017Y254264D1*
G3X458522Y255133I-497J869D1*
G1X458522Y258933D1*
G3X457522Y259933I-1000J0D1*
G1X456716Y259933D1*
G1X453821Y262829D1*
G1X453807Y262853D1*
G3X450402Y259448I-2180J-1226D1*
G1X450426Y259434D1*
G37*
G36*
G1X611772Y400377D2*
G1X617572Y400377D1*
G3X618572Y401377I-1J1000D1*
G1X618572Y407177D1*
G3X617572Y408177I-1000J0D1*
G1X611772Y408177D1*
G3X610772Y407177I-1J-1000D1*
G1X610772Y401377D1*
G3X611772Y400377I1000J0D1*
G37*
G36*
G1X571772Y390377D2*
G1X577572Y390377D1*
G3X578572Y391377I-1J1000D1*
G1X578572Y397177D1*
G3X577572Y398177I-1000J0D1*
G1X571772Y398177D1*
G3X570772Y397177I-1J-1000D1*
G1X570772Y391377D1*
G3X571772Y390377I1000J0D1*
G37*
G36*
G1X481026Y373515D2*
G1X481026Y372536D1*
G1X481016Y372536D1*
G1X481016Y371134D1*
G1X481026Y371134D1*
G1X481026Y353125D1*
G1X511526Y353125D1*
G1X511526Y371134D1*
G1X511538Y371134D1*
G1X511538Y372536D1*
G1X511526Y372536D1*
G1X511526Y387025D1*
G1X481026Y387025D1*
G1X481026Y386220D1*
G1X481021Y386197D1*
G3X480994Y385970I955J-229D1*
G1X480994Y373765D1*
G3X481021Y373537I996J2D1*
G1X481026Y373515D1*
G37*
G74*
G54D18*
G1X524672Y404277D3*
G1X544672Y404277D3*
G1X534672Y404277D3*
G1X554672Y404277D3*
G1X564672Y404277D3*
G54D17*
G1X524672Y394277D3*
G1X544672Y394277D3*
G1X534672Y394277D3*
G1X554672Y394277D3*
G1X564672Y394277D3*
G1X574672Y404277D3*
G1X584672Y394277D3*
G1X584672Y404277D3*
G1X604672Y394277D3*
G1X594672Y394277D3*
G1X604672Y404277D3*
G1X594672Y404277D3*
G1X614672Y394277D3*
%LPD*%
G36*
G1X482026Y354125D2*
G1X510526Y354125D1*
G1X510526Y370125D1*
G1X482026Y370125D1*
G1X482026Y354125D1*
G37*
G36*
G1X482026Y373525D2*
G1X510526Y373525D1*
G1X510526Y386025D1*
G1X482026Y386025D1*
G1X482026Y373525D1*
G37*
G1X455922Y257033D2*
G54D10*
G1X455922Y257333D1*
G1X451628Y261627D1*
G1X455617Y250737D2*
G1X455617Y256727D1*
G1X455922Y257033D1*
G1X467026Y275725D2*
G1X475108Y275725D1*
G1X478539Y272293D1*
G1X478539Y294434D2*
G1X478539Y294134D1*
G1X475030Y290625D1*
G1X467026Y290625D1*
G1X467026Y283225D2*
G1X475088Y283225D1*
G1X478539Y279774D1*
G1X478539Y279474D1*
G1X478539Y271993D2*
G1X478539Y272293D1*
G1X491326Y246025D2*
G1X491326Y254548D1*
G1X494687Y257909D1*
G1X498826Y246025D2*
G1X498826Y254825D1*
G1X501910Y257909D1*
G1X502167Y257909D1*
G1X494987Y257909D2*
G1X494687Y257909D1*
G1X490426Y314725D2*
G1X490426Y302544D1*
G1X493899Y299071D1*
G1X494199Y299071D1*
G1X502467Y257909D2*
G1X502167Y257909D1*
G1X518521Y266088D2*
G1X518521Y260025D1*
G1X530026Y269825D2*
G1X521964Y269825D1*
G1X518521Y273268D1*
G1X518521Y273568D1*
G1X530026Y284825D2*
G1X521924Y284825D1*
G1X518521Y288229D1*
G1X518521Y288529D1*
G1X524426Y303490D2*
G1X524514Y303401D1*
G1X524514Y296009D1*
G1X543018Y303490D2*
G1X530026Y303490D1*
G1X543018Y310970D2*
G1X543018Y303490D1*
G1X439868Y249553D3*
G1X435144Y259789D3*
G1X439475Y259789D3*
G1X439081Y292860D3*
G1X434357Y292860D3*
G1X439868Y308608D3*
G1X439868Y328293D3*
G1X439868Y347978D3*
G1X439868Y367663D3*
G1X439868Y387348D3*
G1X439868Y407033D3*
G1X449711Y239710D3*
G1X449711Y279080D3*
G1X449711Y298765D3*
G1X449711Y318450D3*
G1X449711Y338135D3*
G1X449711Y377505D3*
G1X449711Y397190D3*
G1X459554Y229867D3*
G1X469396Y239710D3*
G1X459947Y269238D3*
G1X468215Y268450D3*
G1X469396Y279080D3*
G1X459554Y288923D3*
G1X469396Y298765D3*
G1X459554Y308608D3*
G1X469396Y318450D3*
G1X469396Y338135D3*
G1X459554Y328293D3*
G1X469396Y377505D3*
G1X469396Y397190D3*
G1X459554Y387348D3*
G1X479239Y229867D3*
G1X484750Y271600D3*
G1X479239Y308608D3*
G1X479239Y328293D3*
G1X479239Y347978D3*
G1X479239Y407033D3*
G1X498924Y229867D3*
G1X489081Y239710D3*
G1X492605Y262964D3*
G1X494987Y273962D3*
G1X498530Y277505D3*
G1X494987Y277505D3*
G1X498530Y273962D3*
G1X497747Y263726D3*
G1X494987Y263726D3*
G1X498530Y280655D3*
G1X494987Y280655D3*
G1X489081Y318450D3*
G1X498136Y320025D3*
G1X494199Y309395D3*
G1X489081Y338135D3*
G1X498924Y328293D3*
G1X498924Y347978D3*
G1X489081Y397190D3*
G1X498924Y407033D3*
G1X508766Y239710D3*
G1X506404Y263332D3*
G1X511818Y274059D3*
G1X508373Y266365D3*
G1X502073Y277505D3*
G1X502073Y273962D3*
G1X511916Y271206D3*
G1X510735Y268450D3*
G1X502073Y280655D3*
G1X505291Y290497D3*
G1X501680Y309395D3*
G1X508766Y338135D3*
G1X508766Y397190D3*
G1X518609Y229867D3*
G1X528451Y239710D3*
G1X524120Y261364D3*
G1X528451Y259395D3*
G1X530026Y320419D3*
G1X528451Y338135D3*
G1X518609Y347978D3*
G1X518609Y367663D3*
G1X528451Y357820D3*
G1X528451Y377505D3*
G1X538294Y229867D3*
G1X538294Y249553D3*
G1X532782Y276324D3*
G1X531601Y288923D3*
G1X537112Y283804D3*
G1X538294Y367663D3*
G1X557979Y229867D3*
G1X548136Y239710D3*
G1X548136Y259395D3*
G1X557979Y249553D3*
G1X557979Y269238D3*
G1X548136Y279080D3*
G1X548136Y338135D3*
G1X557979Y367663D3*
G1X548136Y357820D3*
G1X548136Y377505D3*
G1X567821Y239710D3*
G1X567821Y259395D3*
G1X561128Y275537D3*
G1X567821Y279080D3*
G1X567821Y298765D3*
G1X567821Y318450D3*
G1X567821Y357820D3*
G1X561522Y361364D3*
G1X567821Y377505D3*
G1X577664Y229867D3*
G1X587506Y239710D3*
G1X577664Y249553D3*
G1X587506Y259395D3*
G1X580813Y275537D3*
G1X577664Y269238D3*
G1X587506Y279080D3*
G1X587506Y298765D3*
G1X587506Y318450D3*
G1X577664Y308608D3*
G1X587506Y338135D3*
G1X580813Y361364D3*
G1X577664Y367663D3*
G1X587900Y358608D3*
G1X588294Y377505D3*
G1X597349Y229867D3*
G1X597349Y249553D3*
G1X597349Y269238D3*
G1X597349Y308608D3*
G1X597349Y328293D3*
G1X597349Y367663D3*
G1X617034Y229867D3*
G1X607191Y239710D3*
G1X617034Y249553D3*
G1X607191Y259395D3*
G1X617428Y269238D3*
G1X607191Y279080D3*
G1X607191Y298765D3*
G1X615853Y301915D3*
G1X617034Y308608D3*
G1X607191Y318450D3*
G1X607191Y338135D3*
G1X617034Y328293D3*
G1X616246Y334592D3*
G1X607979Y357820D3*
G1X617821Y367663D3*
G1X607979Y377505D3*
G1X622939Y269238D3*
G1X622546Y301915D3*
G1X622939Y334592D3*
G1X622546Y367663D3*
G54D37*
G1X499707Y267269D3*
G1X497747Y267269D3*
G1X495777Y267269D3*
G1X493807Y267269D3*
G1X491837Y267269D3*
G1X491837Y286759D3*
G1X493807Y286759D3*
G1X495777Y286759D3*
G1X497747Y286759D3*
G1X499707Y286759D3*
G1X505617Y267269D3*
G1X503647Y267269D3*
G1X501677Y267269D3*
G1X501677Y286759D3*
G1X503647Y286759D3*
G1X505617Y286759D3*
G54D35*
G1X437900Y265104D3*
G1X437900Y275931D3*
G1X437900Y286757D3*
G1X619002Y274946D3*
G1X619002Y285773D3*
G1X619002Y296600D3*
G1X619002Y340301D3*
G1X619002Y351127D3*
G1X619002Y361954D3*
G54D41*
G1X455617Y243647D3*
G1X455617Y250737D3*
G1X465067Y243647D3*
G1X465067Y250737D3*
G54D26*
G1X508026Y367625D3*
G1X508026Y376025D3*
G54D12*
G1X524672Y394277D3*
G1X524672Y404277D3*
G1X544672Y394277D3*
G1X534672Y394277D3*
G1X544672Y404277D3*
G1X534672Y404277D3*
G1X554672Y394277D3*
G1X554672Y404277D3*
G1X564672Y394277D3*
G1X574672Y404277D3*
G1X564672Y404277D3*
G1X584672Y394277D3*
G1X584672Y404277D3*
G1X604672Y394277D3*
G1X594672Y394277D3*
G1X604672Y404277D3*
G1X594672Y404277D3*
G1X614672Y394277D3*
G54D23*
G1X455922Y257033D3*
G1X461522Y257033D3*
G1X472939Y257033D3*
G1X478539Y257033D3*
G1X472939Y271993D3*
G1X478539Y271993D3*
G1X472939Y264513D3*
G1X478539Y264513D3*
G1X472939Y279474D3*
G1X478539Y279474D3*
G1X472939Y286954D3*
G1X478539Y286954D3*
G1X472939Y294434D3*
G1X478539Y294434D3*
G1X478026Y356025D3*
G1X483626Y356025D3*
G1X511040Y303490D3*
G1X514278Y327505D3*
G1X524120Y273568D3*
G1X518521Y273568D3*
G1X524120Y266088D3*
G1X518521Y266088D3*
G1X524120Y281049D3*
G1X518521Y281049D3*
G1X524120Y288529D3*
G1X518521Y288529D3*
G1X524514Y296009D3*
G1X530114Y296009D3*
G1X530026Y303490D3*
G1X524426Y303490D3*
G1X516640Y303490D3*
G1X526788Y327505D3*
G1X519878Y327505D3*
G1X543018Y303490D3*
G1X543018Y296009D3*
G1X543018Y310970D3*
G1X532388Y327505D3*
G1X548530Y285773D3*
G1X554130Y285773D3*
G1X548618Y303490D3*
G1X548618Y296009D3*
G1X560252Y303490D3*
G1X548618Y310970D3*
G1X560252Y310970D3*
G1X548530Y351127D3*
G1X554130Y351127D3*
G1X568215Y285773D3*
G1X573815Y285773D3*
G1X565852Y303490D3*
G1X565852Y310970D3*
G1X568215Y351127D3*
G1X573815Y351127D3*
G1X587900Y285773D3*
G1X587900Y351127D3*
G1X593500Y285773D3*
G1X593500Y351127D3*
G54D13*
G1X574672Y394277D3*
G1X614672Y404277D3*
G54D11*
G1X451628Y261627D3*
G1X467026Y275725D3*
G1X467026Y283225D3*
G1X467026Y290625D3*
G1X491326Y246025D3*
G1X498826Y246025D3*
G1X490426Y314725D3*
G1X490656Y366481D3*
G1X501679Y357820D3*
G1X501286Y366481D3*
G1X496168Y357820D3*
G1X496168Y366481D3*
G1X490656Y357820D3*
G1X507191Y357820D3*
G1X518521Y260025D3*
G1X530026Y269825D3*
G1X530026Y284825D3*
G1X554435Y309789D3*
G1X554435Y304277D3*
G1X524672Y399877D2*
G54D14*
G1X524672Y404277D1*
G1X524672Y408677D1*
G1X520272Y404277D2*
G1X524672Y404277D1*
G1X529072Y404277D1*
G1X534672Y399877D2*
G1X534672Y404277D1*
G1X534672Y408677D1*
G1X530272Y404277D2*
G1X534672Y404277D1*
G1X539072Y404277D1*
G1X544672Y399877D2*
G1X544672Y404277D1*
G1X544672Y408677D1*
G1X540272Y404277D2*
G1X544672Y404277D1*
G1X549072Y404277D1*
G1X554672Y399877D2*
G1X554672Y404277D1*
G1X554672Y408677D1*
G1X550272Y404277D2*
G1X554672Y404277D1*
G1X559072Y404277D1*
G1X564672Y399877D2*
G1X564672Y404277D1*
G1X564672Y408677D1*
G1X560271Y404277D2*
G1X564672Y404277D1*
G1X569072Y404277D1*
G54D39*
G1X457582Y356838D3*
G1X457582Y407817D3*
G1X484750Y271600D2*
G54D15*
G1X487210Y274059D1*
G1X488987Y274059D1*
G1X478539Y272293D2*
G1X484245Y277999D1*
G1X488987Y277999D1*
G1X488987Y276029D2*
G1X486012Y276029D1*
G1X481994Y272011D1*
G1X481994Y268268D1*
G1X478539Y264813D1*
G1X478539Y264513D1*
G1X488987Y283899D2*
G1X488987Y286887D1*
G1X481439Y294434D1*
G1X478539Y294434D1*
G1X478539Y279474D2*
G1X482388Y279474D1*
G1X482884Y279969D1*
G1X488987Y279969D1*
G1X478539Y286954D2*
G1X481601Y286954D1*
G1X486616Y281939D1*
G1X488987Y281939D1*
G1X486719Y304671D2*
G1X486419Y304671D1*
G1X482782Y301034D1*
G1X482782Y295814D1*
G1X486130Y292466D1*
G1X489105Y292466D1*
G1X491837Y289734D1*
G1X491837Y286759D1*
G1X492605Y262964D2*
G1X492672Y263031D1*
G1X492672Y264465D1*
G1X493388Y265181D1*
G1X493388Y265182D1*
G1X493807Y265601D1*
G1X493807Y267269D1*
G1X491837Y267269D2*
G1X491837Y266147D1*
G1X489943Y264253D1*
G1X489943Y262652D1*
G1X494687Y257909D1*
G1X502167Y257909D2*
G1X499747Y260329D1*
G1X499747Y264165D1*
G1X499707Y264205D1*
G1X499707Y267269D1*
G1X497747Y267269D2*
G1X497747Y263726D1*
G1X495777Y267269D2*
G1X495777Y264516D1*
G1X494987Y263726D1*
G1X486719Y299071D2*
G1X487019Y299071D1*
G1X493807Y292282D1*
G1X493807Y286759D1*
G1X494199Y299071D2*
G1X494199Y296171D1*
G1X495777Y294593D1*
G1X495777Y286759D1*
G1X501680Y299071D2*
G1X501380Y299071D1*
G1X497742Y295434D1*
G1X497742Y289738D1*
G1X497747Y289734D1*
G1X497747Y286759D1*
G1X509947Y257909D2*
G1X509647Y257909D1*
G1X506586Y260970D1*
G1X504435Y260970D1*
G1X501677Y263728D1*
G1X501677Y267269D1*
G1X508467Y274059D2*
G1X511818Y274059D1*
G1X506404Y263332D2*
G1X504611Y263332D1*
G1X503647Y264296D1*
G1X503647Y267269D1*
G1X505617Y267269D2*
G1X507468Y267269D1*
G1X508373Y266365D1*
G1X508467Y272089D2*
G1X511032Y272089D1*
G1X511916Y271206D1*
G1X510735Y268450D2*
G1X510735Y269119D1*
G1X509735Y270119D1*
G1X508467Y270119D1*
G1X508467Y276029D2*
G1X510959Y276029D1*
G1X510990Y276059D1*
G1X512647Y276059D1*
G1X512677Y276029D1*
G1X512998Y276029D1*
G1X515065Y273962D1*
G1X515065Y269843D1*
G1X518521Y266388D1*
G1X518521Y266088D1*
G1X518521Y273568D2*
G1X518521Y273868D1*
G1X514390Y277999D1*
G1X508467Y277999D1*
G1X518521Y281049D2*
G1X513491Y281049D1*
G1X512411Y279969D1*
G1X508467Y279969D1*
G1X518521Y288529D2*
G1X515057Y288529D1*
G1X513097Y286569D1*
G1X513097Y283594D1*
G1X511442Y281939D1*
G1X508467Y281939D1*
G1X503647Y286759D2*
G1X503647Y288853D1*
G1X505291Y290497D1*
G54D24*
G1X486719Y304671D3*
G1X486719Y299071D3*
G1X487506Y252309D3*
G1X487506Y257909D3*
G1X494987Y252309D3*
G1X494987Y257909D3*
G1X494199Y304671D3*
G1X494199Y299071D3*
G1X501680Y304671D3*
G1X501680Y299071D3*
G1X509947Y252309D3*
G1X509947Y257909D3*
G1X502467Y252309D3*
G1X502467Y257909D3*
G1X510341Y314513D3*
G1X510341Y320113D3*
G1X502861Y320025D3*
G1X502861Y314425D3*
G1X525302Y314513D3*
G1X525302Y320113D3*
G1X517821Y320025D3*
G1X517821Y314425D3*
G1X561128Y280261D3*
G1X561128Y285861D3*
G1X561128Y351039D3*
G1X561128Y356639D3*
G1X580813Y280261D3*
G1X580813Y285861D3*
G1X580813Y351039D3*
G1X580813Y356639D3*
G1X437900Y275931D2*
G54D42*
G1X448924Y275931D1*
G1X467821Y257033D1*
G1X472939Y257033D1*
G1X487506Y252309D2*
G1X484686Y252309D1*
G75*
G3X483696Y251898I1J-1400D1*
G74*
G1X483057Y251259D1*
G75*
G2X481797Y250737I-1260J1260D1*
G74*
G1X465067Y250737D1*
G1X478539Y257033D2*
G1X482388Y257033D1*
G1X483264Y257909D1*
G1X487506Y257909D1*
G1X487506Y264533D1*
G1X488987Y266013D1*
G1X488987Y270119D1*
G1X499707Y286759D2*
G1X499711Y286763D1*
G1X499711Y292859D1*
G1X502305Y295453D1*
G1X508997Y295453D1*
G1X511040Y297496D1*
G1X511040Y303490D1*
G1X516640Y303490D2*
G1X516640Y299946D1*
G1X509947Y293253D1*
G1X504829Y293253D1*
G1X501677Y290101D1*
G1X501677Y286759D1*
G1X524514Y296009D2*
G1X519002Y296009D1*
G1X509752Y286759D1*
G1X505617Y286759D1*
G1X511040Y303490D2*
G1X511040Y308696D1*
G1X510341Y309395D1*
G1X510341Y314513D1*
G1X502861Y314425D2*
G1X506261Y314425D1*
G1X506349Y314513D1*
G1X510341Y314513D1*
G1X517821Y320025D2*
G1X517821Y320206D1*
G1X514278Y323749D1*
G1X510341Y320113D2*
G1X510641Y320113D1*
G1X514278Y323749D1*
G1X514278Y327505D2*
G1X514278Y323749D1*
G1X516640Y303490D2*
G1X516640Y308608D1*
G1X517821Y309789D1*
G1X517821Y314425D1*
G1X530114Y296009D2*
G1X543018Y296009D1*
G1X517821Y314425D2*
G1X521813Y314425D1*
G1X521902Y314513D1*
G1X525302Y314513D1*
G1X519878Y327505D2*
G1X526788Y327505D1*
G1X548530Y351127D2*
G1X548530Y350827D1*
G1X535061Y337359D1*
G75*
G3X532388Y330905I6454J-6454D1*
G74*
G1X532388Y327505D1*
G1X548618Y296009D2*
G1X548618Y290979D1*
G1X548530Y290891D1*
G1X548530Y285773D1*
G1X554130Y285773D2*
G1X557640Y285773D1*
G1X557728Y285861D1*
G1X561128Y285861D1*
G1X561128Y351039D2*
G1X557728Y351039D1*
G1X557641Y351127D1*
G1X554130Y351127D1*
G1X561128Y285861D2*
G1X565026Y285861D1*
G1X565115Y285773D1*
G1X568215Y285773D1*
G1X573815Y285773D2*
G1X577325Y285773D1*
G1X577413Y285861D1*
G1X580813Y285861D1*
G1X568215Y351127D2*
G1X565115Y351127D1*
G1X565027Y351039D1*
G1X561128Y351039D1*
G1X580813Y351039D2*
G1X577413Y351039D1*
G1X577326Y351127D1*
G1X573815Y351127D1*
G1X580813Y285861D2*
G1X584711Y285861D1*
G1X584800Y285773D1*
G1X587900Y285773D1*
G1X587900Y351127D2*
G1X584800Y351127D1*
G1X584712Y351039D1*
G1X580813Y351039D1*
G1X593500Y285773D2*
G1X619002Y285773D1*
G1X619002Y351127D2*
G1X609828Y351127D1*
G1X609827Y351127D1*
G1X593500Y351127D1*
G54D40*
G1X490262Y379867D3*
G54D38*
G1X488987Y270119D3*
G1X488987Y272089D3*
G1X488987Y274059D3*
G1X488987Y276029D3*
G1X488987Y277999D3*
G1X488987Y279969D3*
G1X488987Y281939D3*
G1X488987Y283899D3*
G1X508467Y277999D3*
G1X508467Y276029D3*
G1X508467Y274059D3*
G1X508467Y272089D3*
G1X508467Y270119D3*
G1X508467Y283899D3*
G1X508467Y281939D3*
G1X508467Y279969D3*
G54D36*
G1X498727Y277009D3*
M2*
