*
%LPD*%
%LNtransceiverSMB*%
%FSLAX25Y25*%
%MOIN*%
%AD*%
%AD*%
%ADD10C,0.02*%
%ADD12C,0.058*%
%ADD13R,0.058X0.058*%
%ADD49C,0.067011811*%
%ADD50R,0.067011811X0.067011811*%
G54D10*
%SRX1Y1I0.0J0.0*%
G36*
G1X10000Y52520D2*
G1X25748Y52520D1*
G1X25748Y57638D1*
G1X10000Y57638D1*
G1X10000Y52520D1*
G37*
G36*
G1X10000Y74173D2*
G1X25748Y74173D1*
G1X25748Y79291D1*
G1X10000Y79291D1*
G1X10000Y74173D1*
G37*
G36*
G1X191102Y62362D2*
G1X206850Y62362D1*
G1X206850Y67480D1*
G1X191102Y67480D1*
G1X191102Y62362D1*
G37*
G36*
G1X191102Y84016D2*
G1X206850Y84016D1*
G1X206850Y89134D1*
G1X191102Y89134D1*
G1X191102Y84016D1*
G37*
G36*
G1X191102Y127716D2*
G1X206850Y127716D1*
G1X206850Y132835D1*
G1X191102Y132835D1*
G1X191102Y127716D1*
G37*
G36*
G1X191102Y149370D2*
G1X206850Y149370D1*
G1X206850Y154488D1*
G1X191102Y154488D1*
G1X191102Y149370D1*
G37*
G54D12*
G1X104646Y184252D3*
G1X104646Y194252D3*
G1X124646Y184252D3*
G1X114646Y184252D3*
G1X124646Y194252D3*
G1X114646Y194252D3*
G1X134646Y184252D3*
G1X134646Y194252D3*
G1X144646Y184252D3*
G1X154646Y194252D3*
G1X144646Y194252D3*
G1X164646Y184252D3*
G1X164646Y194252D3*
G1X184646Y184252D3*
G1X174646Y184252D3*
G1X184646Y194252D3*
G1X174646Y194252D3*
G1X194646Y184252D3*
G54D13*
G1X154646Y184252D3*
G1X194646Y194252D3*
G54D10*
G36*
G1X219998Y62363D2*
G1X235746Y62363D1*
G1X235746Y67481D1*
G1X219998Y67481D1*
G1X219998Y62363D1*
G37*
G36*
G1X219998Y84017D2*
G1X235746Y84017D1*
G1X235746Y89135D1*
G1X219998Y89135D1*
G1X219998Y84017D1*
G37*
G36*
G1X219998Y127717D2*
G1X235746Y127717D1*
G1X235746Y132836D1*
G1X219998Y132836D1*
G1X219998Y127717D1*
G37*
G36*
G1X219998Y149371D2*
G1X235746Y149371D1*
G1X235746Y154489D1*
G1X219998Y154489D1*
G1X219998Y149371D1*
G37*
G36*
G1X401100Y100552D2*
G1X417045Y100552D1*
G1X417045Y105867D1*
G1X401100Y105867D1*
G1X401100Y100552D1*
G37*
G36*
G1X401100Y122206D2*
G1X417045Y122206D1*
G1X417045Y127521D1*
G1X401100Y127521D1*
G1X401100Y122206D1*
G37*
G54D50*
G1X229848Y197939D3*
G54D49*
G1X239848Y197939D3*
G1X249848Y197939D3*
G1X259848Y197939D3*
G1X269848Y197939D3*
G1X279848Y197939D3*
G1X289848Y197939D3*
G1X299848Y197939D3*
G1X309848Y197939D3*
G1X319848Y197939D3*
G54D10*
G36*
G1X430016Y62340D2*
G1X445764Y62340D1*
G1X445764Y67458D1*
G1X430016Y67458D1*
G1X430016Y62340D1*
G37*
G36*
G1X430016Y83994D2*
G1X445764Y83994D1*
G1X445764Y89112D1*
G1X430016Y89112D1*
G1X430016Y83994D1*
G37*
G36*
G1X430016Y127694D2*
G1X445764Y127694D1*
G1X445764Y132813D1*
G1X430016Y132813D1*
G1X430016Y127694D1*
G37*
G36*
G1X430016Y149348D2*
G1X445764Y149348D1*
G1X445764Y154466D1*
G1X430016Y154466D1*
G1X430016Y149348D1*
G37*
G36*
G1X611118Y100529D2*
G1X627063Y100529D1*
G1X627063Y105844D1*
G1X611118Y105844D1*
G1X611118Y100529D1*
G37*
G36*
G1X611118Y122183D2*
G1X627063Y122183D1*
G1X627063Y127498D1*
G1X611118Y127498D1*
G1X611118Y122183D1*
G37*
G54D50*
G1X439866Y197916D3*
G54D49*
G1X449866Y197916D3*
G1X459866Y197916D3*
G1X469866Y197916D3*
G1X479866Y197916D3*
G1X489866Y197916D3*
G1X499866Y197916D3*
G1X509866Y197916D3*
G1X519866Y197916D3*
G1X529866Y197916D3*
G54D10*
G36*
G1X640013Y62337D2*
G1X655761Y62337D1*
G1X655761Y67455D1*
G1X640013Y67455D1*
G1X640013Y62337D1*
G37*
G36*
G1X640013Y83991D2*
G1X655761Y83991D1*
G1X655761Y89109D1*
G1X640013Y89109D1*
G1X640013Y83991D1*
G37*
G36*
G1X640013Y127691D2*
G1X655761Y127691D1*
G1X655761Y132810D1*
G1X640013Y132810D1*
G1X640013Y127691D1*
G37*
G36*
G1X640013Y149345D2*
G1X655761Y149345D1*
G1X655761Y154463D1*
G1X640013Y154463D1*
G1X640013Y149345D1*
G37*
G36*
G1X821115Y100526D2*
G1X837060Y100526D1*
G1X837060Y105841D1*
G1X821115Y105841D1*
G1X821115Y100526D1*
G37*
G36*
G1X821115Y122180D2*
G1X837060Y122180D1*
G1X837060Y127495D1*
G1X821115Y127495D1*
G1X821115Y122180D1*
G37*
G54D50*
G1X649863Y197913D3*
G54D49*
G1X659863Y197913D3*
G1X669863Y197913D3*
G1X679863Y197913D3*
G1X689863Y197913D3*
G1X699863Y197913D3*
G1X709863Y197913D3*
G1X719863Y197913D3*
G1X729863Y197913D3*
G1X739863Y197913D3*
G54D10*
G36*
G1X640012Y272313D2*
G1X655760Y272313D1*
G1X655760Y277431D1*
G1X640012Y277431D1*
G1X640012Y272313D1*
G37*
G36*
G1X640012Y293967D2*
G1X655760Y293967D1*
G1X655760Y299085D1*
G1X640012Y299085D1*
G1X640012Y293967D1*
G37*
G36*
G1X640012Y337667D2*
G1X655760Y337667D1*
G1X655760Y342786D1*
G1X640012Y342786D1*
G1X640012Y337667D1*
G37*
G36*
G1X640012Y359321D2*
G1X655760Y359321D1*
G1X655760Y364439D1*
G1X640012Y364439D1*
G1X640012Y359321D1*
G37*
G36*
G1X821114Y310502D2*
G1X837059Y310502D1*
G1X837059Y315817D1*
G1X821114Y315817D1*
G1X821114Y310502D1*
G37*
G36*
G1X821114Y332156D2*
G1X837059Y332156D1*
G1X837059Y337471D1*
G1X821114Y337471D1*
G1X821114Y332156D1*
G37*
G54D50*
G1X649862Y407889D3*
G54D49*
G1X659862Y407889D3*
G1X669862Y407889D3*
G1X679862Y407889D3*
G1X689862Y407889D3*
G1X699862Y407889D3*
G1X709862Y407889D3*
G1X719862Y407889D3*
G1X729862Y407889D3*
G1X739862Y407889D3*
G54D10*
G36*
G1X9976Y262477D2*
G1X25724Y262477D1*
G1X25724Y267595D1*
G1X9976Y267595D1*
G1X9976Y262477D1*
G37*
G36*
G1X9976Y284130D2*
G1X25724Y284130D1*
G1X25724Y289248D1*
G1X9976Y289248D1*
G1X9976Y284130D1*
G37*
G36*
G1X191078Y272319D2*
G1X206826Y272319D1*
G1X206826Y277437D1*
G1X191078Y277437D1*
G1X191078Y272319D1*
G37*
G36*
G1X191078Y293973D2*
G1X206826Y293973D1*
G1X206826Y299091D1*
G1X191078Y299091D1*
G1X191078Y293973D1*
G37*
G36*
G1X191078Y337673D2*
G1X206826Y337673D1*
G1X206826Y342792D1*
G1X191078Y342792D1*
G1X191078Y337673D1*
G37*
G36*
G1X191078Y359327D2*
G1X206826Y359327D1*
G1X206826Y364445D1*
G1X191078Y364445D1*
G1X191078Y359327D1*
G37*
G54D12*
G1X104622Y394209D3*
G1X104622Y404209D3*
G1X124622Y394209D3*
G1X114622Y394209D3*
G1X124622Y404209D3*
G1X114622Y404209D3*
G1X134622Y394209D3*
G1X134622Y404209D3*
G1X144622Y394209D3*
G1X154622Y404209D3*
G1X144622Y404209D3*
G1X164622Y394209D3*
G1X164622Y404209D3*
G1X184622Y394209D3*
G1X174622Y394209D3*
G1X184622Y404209D3*
G1X174622Y404209D3*
G1X194622Y394209D3*
G54D13*
G1X154622Y394209D3*
G1X194622Y404209D3*
G54D10*
G36*
G1X220042Y262515D2*
G1X235790Y262515D1*
G1X235790Y267633D1*
G1X220042Y267633D1*
G1X220042Y262515D1*
G37*
G36*
G1X220042Y284168D2*
G1X235790Y284168D1*
G1X235790Y289286D1*
G1X220042Y289286D1*
G1X220042Y284168D1*
G37*
G36*
G1X401144Y272357D2*
G1X416892Y272357D1*
G1X416892Y277475D1*
G1X401144Y277475D1*
G1X401144Y272357D1*
G37*
G36*
G1X401144Y294011D2*
G1X416892Y294011D1*
G1X416892Y299129D1*
G1X401144Y299129D1*
G1X401144Y294011D1*
G37*
G36*
G1X401144Y337711D2*
G1X416892Y337711D1*
G1X416892Y342830D1*
G1X401144Y342830D1*
G1X401144Y337711D1*
G37*
G36*
G1X401144Y359365D2*
G1X416892Y359365D1*
G1X416892Y364483D1*
G1X401144Y364483D1*
G1X401144Y359365D1*
G37*
G54D12*
G1X314688Y394247D3*
G1X314688Y404247D3*
G1X334688Y394247D3*
G1X324688Y394247D3*
G1X334688Y404247D3*
G1X324688Y404247D3*
G1X344688Y394247D3*
G1X344688Y404247D3*
G1X354688Y394247D3*
G1X364688Y404247D3*
G1X354688Y404247D3*
G1X374688Y394247D3*
G1X374688Y404247D3*
G1X394688Y394247D3*
G1X384688Y394247D3*
G1X394688Y404247D3*
G1X384688Y404247D3*
G1X404688Y394247D3*
G54D13*
G1X364688Y394247D3*
G1X404688Y404247D3*
G54D10*
G36*
G1X430026Y262545D2*
G1X445774Y262545D1*
G1X445774Y267663D1*
G1X430026Y267663D1*
G1X430026Y262545D1*
G37*
G36*
G1X430026Y284198D2*
G1X445774Y284198D1*
G1X445774Y289316D1*
G1X430026Y289316D1*
G1X430026Y284198D1*
G37*
G36*
G1X611128Y272387D2*
G1X626876Y272387D1*
G1X626876Y277505D1*
G1X611128Y277505D1*
G1X611128Y272387D1*
G37*
G36*
G1X611128Y294041D2*
G1X626876Y294041D1*
G1X626876Y299159D1*
G1X611128Y299159D1*
G1X611128Y294041D1*
G37*
G36*
G1X611128Y337741D2*
G1X626876Y337741D1*
G1X626876Y342860D1*
G1X611128Y342860D1*
G1X611128Y337741D1*
G37*
G36*
G1X611128Y359395D2*
G1X626876Y359395D1*
G1X626876Y364513D1*
G1X611128Y364513D1*
G1X611128Y359395D1*
G37*
G54D12*
G1X524672Y394277D3*
G1X524672Y404277D3*
G1X544672Y394277D3*
G1X534672Y394277D3*
G1X544672Y404277D3*
G1X534672Y404277D3*
G1X554672Y394277D3*
G1X554672Y404277D3*
G1X564672Y394277D3*
G1X574672Y404277D3*
G1X564672Y404277D3*
G1X584672Y394277D3*
G1X584672Y404277D3*
G1X604672Y394277D3*
G1X594672Y394277D3*
G1X604672Y404277D3*
G1X594672Y404277D3*
G1X614672Y394277D3*
G54D13*
G1X574672Y394277D3*
G1X614672Y404277D3*
M2*
