*
%LPD*%
%LNtransceiverSMT*%
%FSLAX25Y25*%
%MOIN*%
%AD*%
%AD*%
%ADD12C,0.058*%
%ADD13R,0.058X0.058*%
%ADD21R,0.157479921X0.051181102*%
%ADD22R,0.138583071X0.138583071*%
%ADD23R,0.032X0.038*%
%ADD24R,0.038X0.032*%
%ADD25C,0.05*%
%ADD26R,0.05X0.05*%
%ADD27R,0.013779921X0.036220079*%
%ADD28R,0.036220079X0.013779921*%
%ADD29R,0.244094094X0.161416929*%
%ADD30R,0.043307087X0.039370079*%
%ADD31R,0.173227953X0.129920866*%
%ADD49C,0.067011811*%
%ADD50R,0.067011811X0.067011811*%
%ADD51R,0.066929134X0.066929134*%
%ADD52R,0.062988189X0.062988189*%
%ADD53R,0.110240157X0.035429134*%
%AMD54_Rectangle*
20,1,0.032011,0.01343,-0.01343,-0.01343,0.01343,0*
%
%ADD54D54_Rectangle*%
%ADD55R,0.244090945X0.161420866*%
%ADD56R,0.015748031X0.0315*%
%ADD57R,0.0315X0.015748031*%
%ADD58R,0.014961024X0.029129921*%
%ADD59R,0.029129921X0.014961024*%
%ADD60R,0.043311024X0.027559055*%
%ADD61R,0.027559055X0.043311024*%
%ADD62R,0.0315X0.066929134*%
%ADD63R,0.02361811X0.035429134*%
%ADD64R,0.032011811X0.037988189*%
%AMD65_Rectangle*
20,1,0.032011,-0.01343,-0.01343,0.01343,0.01343,0*
%
%ADD65D65_Rectangle*%
%ADD66R,0.037988189X0.032011811*%
G54D21*
%SRX1Y1I0.0J0.0*%
G1X17874Y55079D3*
G1X17874Y65906D3*
G1X17874Y76732D3*
G1X198976Y64921D3*
G1X198976Y75748D3*
G1X198976Y86575D3*
G1X198976Y130276D3*
G1X198976Y141102D3*
G1X198976Y151929D3*
G54D30*
G1X35591Y33622D3*
G1X35591Y40712D3*
G1X45041Y33622D3*
G1X45041Y40712D3*
G54D26*
G1X88000Y157600D3*
G1X88000Y166000D3*
G54D12*
G1X104646Y184252D3*
G1X104646Y194252D3*
G1X124646Y184252D3*
G1X114646Y184252D3*
G1X124646Y194252D3*
G1X114646Y194252D3*
G1X134646Y184252D3*
G1X134646Y194252D3*
G1X144646Y184252D3*
G1X154646Y194252D3*
G1X144646Y194252D3*
G1X164646Y184252D3*
G1X164646Y194252D3*
G1X184646Y184252D3*
G1X174646Y184252D3*
G1X184646Y194252D3*
G1X174646Y194252D3*
G1X194646Y184252D3*
G54D23*
G1X35896Y47008D3*
G1X41496Y47008D3*
G1X52913Y47008D3*
G1X58513Y47008D3*
G1X52913Y61968D3*
G1X58513Y61968D3*
G1X52913Y54488D3*
G1X58513Y54488D3*
G1X52913Y69449D3*
G1X58513Y69449D3*
G1X52913Y76929D3*
G1X58513Y76929D3*
G1X52913Y84409D3*
G1X58513Y84409D3*
G1X58000Y146000D3*
G1X63600Y146000D3*
G1X91014Y93465D3*
G1X94252Y117480D3*
G1X104094Y63543D3*
G1X98495Y63543D3*
G1X104094Y56063D3*
G1X98495Y56063D3*
G1X104094Y71024D3*
G1X98495Y71024D3*
G1X104094Y78504D3*
G1X98495Y78504D3*
G1X104488Y85984D3*
G1X110088Y85984D3*
G1X110000Y93465D3*
G1X104400Y93465D3*
G1X96614Y93465D3*
G1X106762Y117480D3*
G1X99852Y117480D3*
G1X122992Y93465D3*
G1X122992Y85984D3*
G1X122992Y100945D3*
G1X112362Y117480D3*
G1X128504Y75748D3*
G1X134104Y75748D3*
G1X128592Y93465D3*
G1X128592Y85984D3*
G1X140226Y93465D3*
G1X128592Y100945D3*
G1X140226Y100945D3*
G1X128504Y141102D3*
G1X134104Y141102D3*
G1X148189Y75748D3*
G1X153789Y75748D3*
G1X145826Y93465D3*
G1X145826Y100945D3*
G1X148189Y141102D3*
G1X153789Y141102D3*
G1X167874Y75748D3*
G1X167874Y141102D3*
G1X173474Y75748D3*
G1X173474Y141102D3*
G54D13*
G1X154646Y184252D3*
G1X194646Y194252D3*
G54D25*
G1X31602Y51602D3*
G1X47000Y65700D3*
G1X47000Y73200D3*
G1X47000Y80600D3*
G1X71300Y36000D3*
G1X78800Y36000D3*
G1X70400Y104700D3*
G1X70630Y156456D3*
G1X81653Y147795D3*
G1X81260Y156456D3*
G1X76142Y147795D3*
G1X76142Y156456D3*
G1X70630Y147795D3*
G1X87165Y147795D3*
G1X98495Y50000D3*
G1X110000Y59800D3*
G1X110000Y74800D3*
G1X134409Y99764D3*
G1X134409Y94252D3*
G54D29*
G1X37556Y146813D3*
G1X37556Y197792D3*
G54D24*
G1X66693Y94646D3*
G1X66693Y89046D3*
G1X67480Y42284D3*
G1X67480Y47884D3*
G1X74961Y42284D3*
G1X74961Y47884D3*
G1X74173Y94646D3*
G1X74173Y89046D3*
G1X81654Y94646D3*
G1X81654Y89046D3*
G1X89921Y42284D3*
G1X89921Y47884D3*
G1X82441Y42284D3*
G1X82441Y47884D3*
G1X90315Y104488D3*
G1X90315Y110088D3*
G1X82835Y110000D3*
G1X82835Y104400D3*
G1X105276Y104488D3*
G1X105276Y110088D3*
G1X97795Y110000D3*
G1X97795Y104400D3*
G1X141102Y70236D3*
G1X141102Y75836D3*
G1X141102Y141014D3*
G1X141102Y146614D3*
G1X160787Y70236D3*
G1X160787Y75836D3*
G1X160787Y141014D3*
G1X160787Y146614D3*
G54D31*
G1X70236Y169842D3*
G54D28*
G1X68961Y60094D3*
G1X68961Y62064D3*
G1X68961Y64034D3*
G1X68961Y66004D3*
G1X68961Y67974D3*
G1X68961Y69944D3*
G1X68961Y71914D3*
G1X68961Y73874D3*
G1X88441Y67974D3*
G1X88441Y66004D3*
G1X88441Y64034D3*
G1X88441Y62064D3*
G1X88441Y60094D3*
G1X88441Y73874D3*
G1X88441Y71914D3*
G1X88441Y69944D3*
G54D22*
G1X78701Y66984D3*
G54D27*
G1X79681Y57244D3*
G1X77721Y57244D3*
G1X75751Y57244D3*
G1X73781Y57244D3*
G1X71811Y57244D3*
G1X71811Y76734D3*
G1X73781Y76734D3*
G1X75751Y76734D3*
G1X77721Y76734D3*
G1X79681Y76734D3*
G1X85591Y57244D3*
G1X83621Y57244D3*
G1X81651Y57244D3*
G1X81651Y76734D3*
G1X83621Y76734D3*
G1X85591Y76734D3*
G54D21*
G1X227872Y64922D3*
G1X227872Y75749D3*
G1X227872Y86576D3*
G1X227872Y130276D3*
G1X227872Y151930D3*
G1X227872Y141103D3*
G1X409118Y103190D3*
G1X409118Y114017D3*
G1X409118Y124844D3*
G54D50*
G1X229848Y197939D3*
G54D57*
G1X276298Y160442D3*
G1X276298Y162411D3*
G1X276298Y164379D3*
G1X276298Y166348D3*
G1X296032Y97863D3*
G1X296032Y95894D3*
G1X296032Y93926D3*
G1X285402Y93926D3*
G1X285402Y95894D3*
G1X285402Y97863D3*
G1X283385Y166348D3*
G1X283385Y164379D3*
G1X283385Y162411D3*
G1X283385Y160442D3*
G54D63*
G1X375428Y96287D3*
G1X371688Y96287D3*
G1X371688Y106523D3*
G1X375428Y106523D3*
G1X398080Y77769D3*
G1X394340Y77769D3*
G1X390600Y77769D3*
G1X379168Y96287D3*
G1X390600Y88005D3*
G1X394340Y88005D3*
G1X398080Y88005D3*
G1X379168Y106523D3*
G54D59*
G1X297183Y45444D3*
G1X297183Y47413D3*
G1X297183Y49381D3*
G1X297183Y51350D3*
G1X307419Y51350D3*
G1X307419Y49381D3*
G1X307419Y47413D3*
G1X307419Y45444D3*
G54D49*
G1X239848Y197939D3*
G1X249848Y197939D3*
G1X259848Y197939D3*
G1X269848Y197939D3*
G1X279848Y197939D3*
G1X289848Y197939D3*
G1X299848Y197939D3*
G1X309848Y197939D3*
G1X319848Y197939D3*
G54D55*
G1X389575Y147748D3*
G1X389575Y198732D3*
G54D25*
G1X260186Y21427D3*
G1X260798Y88801D3*
G1X266490Y21427D3*
G1X272794Y21427D3*
G1X279098Y21427D3*
G1X276340Y70283D3*
G1X265308Y115987D3*
G1X262944Y109289D3*
G1X275946Y155387D3*
G1X275946Y143173D3*
G1X275946Y149083D3*
G1X284614Y21427D3*
G1X281856Y70283D3*
G1X284975Y114118D3*
G1X290212Y136787D3*
G1X315740Y20245D3*
G1X315740Y26943D3*
G1X315740Y34035D3*
G1X303298Y77769D3*
G1X312194Y74617D3*
G1X306678Y83285D3*
G1X303132Y113214D3*
G1X311800Y110471D3*
G1X311800Y116775D3*
G1X311800Y123473D3*
G1X303214Y134505D3*
G1X323998Y63191D3*
G1X337804Y198333D3*
G1X344108Y188483D3*
G1X352382Y193211D3*
G1X346472Y193211D3*
G1X349624Y198333D3*
G1X355534Y198333D3*
G1X350018Y188483D3*
G1X355534Y188483D3*
G1X343714Y198333D3*
G1X390600Y72801D3*
G1X384300Y97470D3*
G1X398080Y97470D3*
G1X394340Y92935D3*
G54D51*
G1X290717Y95894D3*
G54D60*
G1X259398Y34031D3*
G1X259398Y28519D3*
G54D56*
G1X292685Y90580D3*
G1X290717Y90580D3*
G1X288748Y90580D3*
G1X288748Y101209D3*
G1X290717Y101209D3*
G1X292685Y101209D3*
G54D65*
G1X247578Y70283D3*
G1X251536Y66325D3*
G1X358686Y94711D3*
G1X362645Y90752D3*
G54D53*
G1X318498Y39558D3*
G1X318498Y48219D3*
G54D54*
G1X247184Y80921D3*
G1X251142Y84879D3*
G1X358686Y72253D3*
G1X362645Y76211D3*
G54D52*
G1X302301Y48397D3*
G54D64*
G1X256246Y101015D3*
G1X260186Y162479D3*
G1X254588Y162479D3*
G1X275158Y55705D3*
G1X269560Y55705D3*
G1X275158Y63585D3*
G1X269560Y63585D3*
G1X268854Y92741D3*
G1X274452Y92741D3*
G1X268854Y84861D3*
G1X274452Y84861D3*
G1X261844Y101015D3*
G1X268854Y101015D3*
G1X274452Y101015D3*
G1X268854Y108895D3*
G1X274452Y108895D3*
G1X268460Y141991D3*
G1X262862Y141991D3*
G1X268460Y149477D3*
G1X262862Y149477D3*
G1X269248Y173905D3*
G1X263650Y173905D3*
G1X294464Y34429D3*
G1X283400Y47412D3*
G1X288998Y47412D3*
G1X289342Y55705D3*
G1X283744Y55705D3*
G1X283826Y63585D3*
G1X289424Y63585D3*
G1X286978Y83285D3*
G1X292576Y83285D3*
G1X284975Y109243D3*
G1X290573Y109243D3*
G1X297534Y109289D3*
G1X297616Y117169D3*
G1X284614Y129777D3*
G1X290212Y129777D3*
G1X297616Y125049D3*
G1X296434Y162479D3*
G1X290836Y162479D3*
G1X300062Y34429D3*
G1X305496Y94711D3*
G1X311094Y94711D3*
G1X318416Y116381D3*
G1X303132Y109289D3*
G1X303214Y117169D3*
G1X318416Y124261D3*
G1X303214Y125049D3*
G1X322044Y25367D3*
G1X327642Y25367D3*
G1X322044Y33247D3*
G1X327642Y33247D3*
G1X329530Y48219D3*
G1X335128Y48219D3*
G1X325984Y94711D3*
G1X331582Y94711D3*
G1X324014Y116381D3*
G1X324014Y124261D3*
G1X354352Y108501D3*
G1X373658Y83679D3*
G1X375628Y114017D3*
G1X359950Y108501D3*
G1X368930Y199121D3*
G1X363332Y199121D3*
G1X379256Y83679D3*
G1X381226Y114017D3*
G54D58*
G1X299348Y53515D3*
G1X301317Y53515D3*
G1X303285Y53515D3*
G1X305254Y53515D3*
G1X305254Y43279D3*
G1X303285Y43279D3*
G1X301317Y43279D3*
G1X299348Y43279D3*
G54D66*
G1X267278Y28519D3*
G1X267278Y34117D3*
G1X275946Y28519D3*
G1X275946Y34117D3*
G1X275158Y41915D3*
G1X275158Y47513D3*
G1X268460Y156881D3*
G1X268460Y162479D3*
G1X278704Y179421D3*
G1X278704Y173823D3*
G1X294464Y20163D3*
G1X294464Y25761D3*
G1X285796Y28519D3*
G1X285796Y34117D3*
G1X297616Y63191D3*
G1X297616Y68789D3*
G1X290130Y116693D3*
G1X290130Y122291D3*
G1X316922Y63191D3*
G1X316922Y68789D3*
G1X307072Y63191D3*
G1X307072Y68789D3*
G1X318498Y95105D3*
G1X318498Y89507D3*
G1X318498Y103379D3*
G1X318498Y108977D3*
G1X338986Y89195D3*
G1X338986Y94793D3*
G1X358686Y48219D3*
G1X358686Y53817D3*
G1X342926Y48219D3*
G1X342926Y53817D3*
G1X350806Y48219D3*
G1X350806Y53817D3*
G54D61*
G1X327950Y18669D3*
G1X322438Y18669D3*
G54D62*
G1X279842Y163395D3*
G54D26*
G1X337016Y179421D3*
G1X337016Y187823D3*
G54D31*
G1X356898Y175701D3*
G54D21*
G1X437890Y64899D3*
G1X437890Y75726D3*
G1X437890Y86553D3*
G1X437890Y130253D3*
G1X437890Y151907D3*
G1X437890Y141080D3*
G1X619136Y103167D3*
G1X619136Y113994D3*
G1X619136Y124821D3*
G54D50*
G1X439866Y197916D3*
G54D57*
G1X486316Y160419D3*
G1X486316Y162388D3*
G1X486316Y164356D3*
G1X486316Y166325D3*
G1X506050Y97840D3*
G1X506050Y95871D3*
G1X506050Y93903D3*
G1X495420Y93903D3*
G1X495420Y95871D3*
G1X495420Y97840D3*
G1X493403Y166325D3*
G1X493403Y164356D3*
G1X493403Y162388D3*
G1X493403Y160419D3*
G54D63*
G1X585446Y96264D3*
G1X581706Y96264D3*
G1X581706Y106500D3*
G1X585446Y106500D3*
G1X608098Y77746D3*
G1X604358Y77746D3*
G1X600618Y77746D3*
G1X589186Y96264D3*
G1X600618Y87982D3*
G1X604358Y87982D3*
G1X608098Y87982D3*
G1X589186Y106500D3*
G54D59*
G1X507201Y45421D3*
G1X507201Y47390D3*
G1X507201Y49358D3*
G1X507201Y51327D3*
G1X517437Y51327D3*
G1X517437Y49358D3*
G1X517437Y47390D3*
G1X517437Y45421D3*
G54D49*
G1X449866Y197916D3*
G1X459866Y197916D3*
G1X469866Y197916D3*
G1X479866Y197916D3*
G1X489866Y197916D3*
G1X499866Y197916D3*
G1X509866Y197916D3*
G1X519866Y197916D3*
G1X529866Y197916D3*
G54D55*
G1X599593Y147725D3*
G1X599593Y198709D3*
G54D25*
G1X470204Y21404D3*
G1X470816Y88778D3*
G1X476508Y21404D3*
G1X482812Y21404D3*
G1X489116Y21404D3*
G1X486358Y70260D3*
G1X475326Y115964D3*
G1X472962Y109266D3*
G1X485964Y155364D3*
G1X485964Y143150D3*
G1X485964Y149060D3*
G1X494632Y21404D3*
G1X491874Y70260D3*
G1X494993Y114095D3*
G1X500230Y136764D3*
G1X525758Y20222D3*
G1X525758Y26920D3*
G1X525758Y34012D3*
G1X513316Y77746D3*
G1X522212Y74594D3*
G1X516696Y83262D3*
G1X513150Y113191D3*
G1X521818Y110448D3*
G1X521818Y116752D3*
G1X521818Y123450D3*
G1X513232Y134482D3*
G1X534016Y63168D3*
G1X547822Y198310D3*
G1X554126Y188460D3*
G1X562400Y193188D3*
G1X556490Y193188D3*
G1X559642Y198310D3*
G1X565552Y198310D3*
G1X560036Y188460D3*
G1X565552Y188460D3*
G1X553732Y198310D3*
G1X600618Y72778D3*
G1X594318Y97447D3*
G1X608098Y97447D3*
G1X604358Y92912D3*
G54D51*
G1X500735Y95871D3*
G54D60*
G1X469416Y34008D3*
G1X469416Y28496D3*
G54D56*
G1X502703Y90557D3*
G1X500735Y90557D3*
G1X498766Y90557D3*
G1X498766Y101186D3*
G1X500735Y101186D3*
G1X502703Y101186D3*
G54D65*
G1X457596Y70260D3*
G1X461554Y66302D3*
G1X568704Y94688D3*
G1X572663Y90729D3*
G54D53*
G1X528516Y39535D3*
G1X528516Y48196D3*
G54D54*
G1X457202Y80898D3*
G1X461160Y84856D3*
G1X568704Y72230D3*
G1X572663Y76188D3*
G54D52*
G1X512319Y48374D3*
G54D64*
G1X466264Y100992D3*
G1X470204Y162456D3*
G1X464606Y162456D3*
G1X485176Y55682D3*
G1X479578Y55682D3*
G1X485176Y63562D3*
G1X479578Y63562D3*
G1X478872Y92718D3*
G1X484470Y92718D3*
G1X478872Y84838D3*
G1X484470Y84838D3*
G1X471862Y100992D3*
G1X478872Y100992D3*
G1X484470Y100992D3*
G1X478872Y108872D3*
G1X484470Y108872D3*
G1X478478Y141968D3*
G1X472880Y141968D3*
G1X478478Y149454D3*
G1X472880Y149454D3*
G1X479266Y173882D3*
G1X473668Y173882D3*
G1X504482Y34406D3*
G1X493418Y47389D3*
G1X499016Y47389D3*
G1X499360Y55682D3*
G1X493762Y55682D3*
G1X493844Y63562D3*
G1X499442Y63562D3*
G1X496996Y83262D3*
G1X502594Y83262D3*
G1X494993Y109220D3*
G1X500591Y109220D3*
G1X507552Y109266D3*
G1X507634Y117146D3*
G1X494632Y129754D3*
G1X500230Y129754D3*
G1X507634Y125026D3*
G1X506452Y162456D3*
G1X500854Y162456D3*
G1X510080Y34406D3*
G1X515514Y94688D3*
G1X521112Y94688D3*
G1X528434Y116358D3*
G1X513150Y109266D3*
G1X513232Y117146D3*
G1X528434Y124238D3*
G1X513232Y125026D3*
G1X532062Y25344D3*
G1X537660Y25344D3*
G1X532062Y33224D3*
G1X537660Y33224D3*
G1X539548Y48196D3*
G1X545146Y48196D3*
G1X536002Y94688D3*
G1X541600Y94688D3*
G1X534032Y116358D3*
G1X534032Y124238D3*
G1X564370Y108478D3*
G1X583676Y83656D3*
G1X585646Y113994D3*
G1X569968Y108478D3*
G1X578948Y199098D3*
G1X573350Y199098D3*
G1X589274Y83656D3*
G1X591244Y113994D3*
G54D58*
G1X509366Y53492D3*
G1X511335Y53492D3*
G1X513303Y53492D3*
G1X515272Y53492D3*
G1X515272Y43256D3*
G1X513303Y43256D3*
G1X511335Y43256D3*
G1X509366Y43256D3*
G54D66*
G1X477296Y28496D3*
G1X477296Y34094D3*
G1X485964Y28496D3*
G1X485964Y34094D3*
G1X485176Y41892D3*
G1X485176Y47490D3*
G1X478478Y156858D3*
G1X478478Y162456D3*
G1X488722Y179398D3*
G1X488722Y173800D3*
G1X504482Y20140D3*
G1X504482Y25738D3*
G1X495814Y28496D3*
G1X495814Y34094D3*
G1X507634Y63168D3*
G1X507634Y68766D3*
G1X500148Y116670D3*
G1X500148Y122268D3*
G1X526940Y63168D3*
G1X526940Y68766D3*
G1X517090Y63168D3*
G1X517090Y68766D3*
G1X528516Y95082D3*
G1X528516Y89484D3*
G1X528516Y103356D3*
G1X528516Y108954D3*
G1X549004Y89172D3*
G1X549004Y94770D3*
G1X568704Y48196D3*
G1X568704Y53794D3*
G1X552944Y48196D3*
G1X552944Y53794D3*
G1X560824Y48196D3*
G1X560824Y53794D3*
G54D61*
G1X537968Y18646D3*
G1X532456Y18646D3*
G54D62*
G1X489860Y163372D3*
G54D26*
G1X547034Y179398D3*
G1X547034Y187800D3*
G54D31*
G1X566916Y175678D3*
G54D21*
G1X647887Y64896D3*
G1X647887Y75723D3*
G1X647887Y86550D3*
G1X647887Y130250D3*
G1X647887Y151904D3*
G1X647887Y141077D3*
G1X829133Y103164D3*
G1X829133Y113991D3*
G1X829133Y124818D3*
G54D50*
G1X649863Y197913D3*
G54D57*
G1X696313Y160416D3*
G1X696313Y162385D3*
G1X696313Y164353D3*
G1X696313Y166322D3*
G1X716047Y97837D3*
G1X716047Y95868D3*
G1X716047Y93900D3*
G1X705417Y93900D3*
G1X705417Y95868D3*
G1X705417Y97837D3*
G1X703400Y166322D3*
G1X703400Y164353D3*
G1X703400Y162385D3*
G1X703400Y160416D3*
G54D63*
G1X795443Y96261D3*
G1X791703Y96261D3*
G1X791703Y106497D3*
G1X795443Y106497D3*
G1X818095Y77743D3*
G1X814355Y77743D3*
G1X810615Y77743D3*
G1X799183Y96261D3*
G1X810615Y87979D3*
G1X814355Y87979D3*
G1X818095Y87979D3*
G1X799183Y106497D3*
G54D59*
G1X717198Y45418D3*
G1X717198Y47387D3*
G1X717198Y49355D3*
G1X717198Y51324D3*
G1X727434Y51324D3*
G1X727434Y49355D3*
G1X727434Y47387D3*
G1X727434Y45418D3*
G54D49*
G1X659863Y197913D3*
G1X669863Y197913D3*
G1X679863Y197913D3*
G1X689863Y197913D3*
G1X699863Y197913D3*
G1X709863Y197913D3*
G1X719863Y197913D3*
G1X729863Y197913D3*
G1X739863Y197913D3*
G54D55*
G1X809590Y147722D3*
G1X809590Y198706D3*
G54D25*
G1X680201Y21401D3*
G1X680813Y88775D3*
G1X686505Y21401D3*
G1X692809Y21401D3*
G1X699113Y21401D3*
G1X696355Y70257D3*
G1X685323Y115961D3*
G1X682959Y109263D3*
G1X695961Y155361D3*
G1X695961Y143147D3*
G1X695961Y149057D3*
G1X704629Y21401D3*
G1X701871Y70257D3*
G1X704990Y114092D3*
G1X710227Y136761D3*
G1X735755Y20219D3*
G1X735755Y26917D3*
G1X735755Y34009D3*
G1X723313Y77743D3*
G1X732209Y74591D3*
G1X726693Y83259D3*
G1X723147Y113188D3*
G1X731815Y110445D3*
G1X731815Y116749D3*
G1X731815Y123447D3*
G1X723229Y134479D3*
G1X744013Y63165D3*
G1X757819Y198307D3*
G1X764123Y188457D3*
G1X772397Y193185D3*
G1X766487Y193185D3*
G1X769639Y198307D3*
G1X775549Y198307D3*
G1X770033Y188457D3*
G1X775549Y188457D3*
G1X763729Y198307D3*
G1X810615Y72775D3*
G1X804315Y97444D3*
G1X818095Y97444D3*
G1X814355Y92909D3*
G54D51*
G1X710732Y95868D3*
G54D60*
G1X679413Y34005D3*
G1X679413Y28493D3*
G54D56*
G1X712700Y90554D3*
G1X710732Y90554D3*
G1X708763Y90554D3*
G1X708763Y101183D3*
G1X710732Y101183D3*
G1X712700Y101183D3*
G54D65*
G1X667593Y70257D3*
G1X671551Y66299D3*
G1X778701Y94685D3*
G1X782660Y90726D3*
G54D53*
G1X738513Y39532D3*
G1X738513Y48193D3*
G54D54*
G1X667199Y80895D3*
G1X671157Y84853D3*
G1X778701Y72227D3*
G1X782660Y76185D3*
G54D52*
G1X722316Y48371D3*
G54D64*
G1X676261Y100989D3*
G1X680201Y162453D3*
G1X674603Y162453D3*
G1X695173Y55679D3*
G1X689575Y55679D3*
G1X695173Y63559D3*
G1X689575Y63559D3*
G1X688869Y92715D3*
G1X694467Y92715D3*
G1X688869Y84835D3*
G1X694467Y84835D3*
G1X681859Y100989D3*
G1X688869Y100989D3*
G1X694467Y100989D3*
G1X688869Y108869D3*
G1X694467Y108869D3*
G1X688475Y141965D3*
G1X682877Y141965D3*
G1X688475Y149451D3*
G1X682877Y149451D3*
G1X689263Y173879D3*
G1X683665Y173879D3*
G1X714479Y34403D3*
G1X703415Y47386D3*
G1X709013Y47386D3*
G1X709357Y55679D3*
G1X703759Y55679D3*
G1X703841Y63559D3*
G1X709439Y63559D3*
G1X706993Y83259D3*
G1X712591Y83259D3*
G1X704990Y109217D3*
G1X710588Y109217D3*
G1X717549Y109263D3*
G1X717631Y117143D3*
G1X704629Y129751D3*
G1X710227Y129751D3*
G1X717631Y125023D3*
G1X716449Y162453D3*
G1X710851Y162453D3*
G1X720077Y34403D3*
G1X725511Y94685D3*
G1X731109Y94685D3*
G1X738431Y116355D3*
G1X723147Y109263D3*
G1X723229Y117143D3*
G1X738431Y124235D3*
G1X723229Y125023D3*
G1X742059Y25341D3*
G1X747657Y25341D3*
G1X742059Y33221D3*
G1X747657Y33221D3*
G1X749545Y48193D3*
G1X755143Y48193D3*
G1X745999Y94685D3*
G1X751597Y94685D3*
G1X744029Y116355D3*
G1X744029Y124235D3*
G1X774367Y108475D3*
G1X793673Y83653D3*
G1X795643Y113991D3*
G1X779965Y108475D3*
G1X788945Y199095D3*
G1X783347Y199095D3*
G1X799271Y83653D3*
G1X801241Y113991D3*
G54D58*
G1X719363Y53489D3*
G1X721332Y53489D3*
G1X723300Y53489D3*
G1X725269Y53489D3*
G1X725269Y43253D3*
G1X723300Y43253D3*
G1X721332Y43253D3*
G1X719363Y43253D3*
G54D66*
G1X687293Y28493D3*
G1X687293Y34091D3*
G1X695961Y28493D3*
G1X695961Y34091D3*
G1X695173Y41889D3*
G1X695173Y47487D3*
G1X688475Y156855D3*
G1X688475Y162453D3*
G1X698719Y179395D3*
G1X698719Y173797D3*
G1X714479Y20137D3*
G1X714479Y25735D3*
G1X705811Y28493D3*
G1X705811Y34091D3*
G1X717631Y63165D3*
G1X717631Y68763D3*
G1X710145Y116667D3*
G1X710145Y122265D3*
G1X736937Y63165D3*
G1X736937Y68763D3*
G1X727087Y63165D3*
G1X727087Y68763D3*
G1X738513Y95079D3*
G1X738513Y89481D3*
G1X738513Y103353D3*
G1X738513Y108951D3*
G1X759001Y89169D3*
G1X759001Y94767D3*
G1X778701Y48193D3*
G1X778701Y53791D3*
G1X762941Y48193D3*
G1X762941Y53791D3*
G1X770821Y48193D3*
G1X770821Y53791D3*
G54D61*
G1X747965Y18643D3*
G1X742453Y18643D3*
G54D62*
G1X699857Y163369D3*
G54D26*
G1X757031Y179395D3*
G1X757031Y187797D3*
G54D31*
G1X776913Y175675D3*
G54D21*
G1X647886Y274872D3*
G1X647886Y285699D3*
G1X647886Y296526D3*
G1X647886Y340226D3*
G1X647886Y361880D3*
G1X647886Y351053D3*
G1X829132Y313140D3*
G1X829132Y323967D3*
G1X829132Y334794D3*
G54D50*
G1X649862Y407889D3*
G54D57*
G1X696312Y370392D3*
G1X696312Y372361D3*
G1X696312Y374329D3*
G1X696312Y376298D3*
G1X716046Y307813D3*
G1X716046Y305844D3*
G1X716046Y303876D3*
G1X705416Y303876D3*
G1X705416Y305844D3*
G1X705416Y307813D3*
G1X703399Y376298D3*
G1X703399Y374329D3*
G1X703399Y372361D3*
G1X703399Y370392D3*
G54D63*
G1X795442Y306237D3*
G1X791702Y306237D3*
G1X791702Y316473D3*
G1X795442Y316473D3*
G1X818094Y287719D3*
G1X814354Y287719D3*
G1X810614Y287719D3*
G1X799182Y306237D3*
G1X810614Y297955D3*
G1X814354Y297955D3*
G1X818094Y297955D3*
G1X799182Y316473D3*
G54D59*
G1X717197Y255394D3*
G1X717197Y257363D3*
G1X717197Y259331D3*
G1X717197Y261300D3*
G1X727433Y261300D3*
G1X727433Y259331D3*
G1X727433Y257363D3*
G1X727433Y255394D3*
G54D49*
G1X659862Y407889D3*
G1X669862Y407889D3*
G1X679862Y407889D3*
G1X689862Y407889D3*
G1X699862Y407889D3*
G1X709862Y407889D3*
G1X719862Y407889D3*
G1X729862Y407889D3*
G1X739862Y407889D3*
G54D55*
G1X809589Y357698D3*
G1X809589Y408682D3*
G54D25*
G1X680200Y231377D3*
G1X680812Y298751D3*
G1X686504Y231377D3*
G1X692808Y231377D3*
G1X699112Y231377D3*
G1X696354Y280233D3*
G1X685322Y325937D3*
G1X682958Y319239D3*
G1X695960Y365337D3*
G1X695960Y353123D3*
G1X695960Y359033D3*
G1X704628Y231377D3*
G1X701870Y280233D3*
G1X704989Y324068D3*
G1X710226Y346737D3*
G1X735754Y230195D3*
G1X735754Y236893D3*
G1X735754Y243985D3*
G1X723312Y287719D3*
G1X732208Y284567D3*
G1X726692Y293235D3*
G1X723146Y323164D3*
G1X731814Y320421D3*
G1X731814Y326725D3*
G1X731814Y333423D3*
G1X723228Y344455D3*
G1X744012Y273141D3*
G1X757818Y408283D3*
G1X764122Y398433D3*
G1X772396Y403161D3*
G1X766486Y403161D3*
G1X769638Y408283D3*
G1X775548Y408283D3*
G1X770032Y398433D3*
G1X775548Y398433D3*
G1X763728Y408283D3*
G1X810614Y282751D3*
G1X804314Y307420D3*
G1X818094Y307420D3*
G1X814354Y302885D3*
G54D51*
G1X710731Y305844D3*
G54D60*
G1X679412Y243981D3*
G1X679412Y238469D3*
G54D56*
G1X712699Y300530D3*
G1X710731Y300530D3*
G1X708762Y300530D3*
G1X708762Y311159D3*
G1X710731Y311159D3*
G1X712699Y311159D3*
G54D65*
G1X667592Y280233D3*
G1X671550Y276275D3*
G1X778700Y304661D3*
G1X782659Y300702D3*
G54D53*
G1X738512Y249508D3*
G1X738512Y258169D3*
G54D54*
G1X667198Y290871D3*
G1X671156Y294829D3*
G1X778700Y282203D3*
G1X782659Y286161D3*
G54D52*
G1X722315Y258347D3*
G54D64*
G1X676260Y310965D3*
G1X680200Y372429D3*
G1X674602Y372429D3*
G1X695172Y265655D3*
G1X689574Y265655D3*
G1X695172Y273535D3*
G1X689574Y273535D3*
G1X688868Y302691D3*
G1X694466Y302691D3*
G1X688868Y294811D3*
G1X694466Y294811D3*
G1X681858Y310965D3*
G1X688868Y310965D3*
G1X694466Y310965D3*
G1X688868Y318845D3*
G1X694466Y318845D3*
G1X688474Y351941D3*
G1X682876Y351941D3*
G1X688474Y359427D3*
G1X682876Y359427D3*
G1X689262Y383855D3*
G1X683664Y383855D3*
G1X714478Y244379D3*
G1X703414Y257362D3*
G1X709012Y257362D3*
G1X709356Y265655D3*
G1X703758Y265655D3*
G1X703840Y273535D3*
G1X709438Y273535D3*
G1X706992Y293235D3*
G1X712590Y293235D3*
G1X704989Y319193D3*
G1X710587Y319193D3*
G1X717548Y319239D3*
G1X717630Y327119D3*
G1X704628Y339727D3*
G1X710226Y339727D3*
G1X717630Y334999D3*
G1X716448Y372429D3*
G1X710850Y372429D3*
G1X720076Y244379D3*
G1X725510Y304661D3*
G1X731108Y304661D3*
G1X738430Y326331D3*
G1X723146Y319239D3*
G1X723228Y327119D3*
G1X738430Y334211D3*
G1X723228Y334999D3*
G1X742058Y235317D3*
G1X747656Y235317D3*
G1X742058Y243197D3*
G1X747656Y243197D3*
G1X749544Y258169D3*
G1X755142Y258169D3*
G1X745998Y304661D3*
G1X751596Y304661D3*
G1X744028Y326331D3*
G1X744028Y334211D3*
G1X774366Y318451D3*
G1X793672Y293629D3*
G1X795642Y323967D3*
G1X779964Y318451D3*
G1X788944Y409071D3*
G1X783346Y409071D3*
G1X799270Y293629D3*
G1X801240Y323967D3*
G54D58*
G1X719362Y263465D3*
G1X721331Y263465D3*
G1X723299Y263465D3*
G1X725268Y263465D3*
G1X725268Y253229D3*
G1X723299Y253229D3*
G1X721331Y253229D3*
G1X719362Y253229D3*
G54D66*
G1X687292Y238469D3*
G1X687292Y244067D3*
G1X695960Y238469D3*
G1X695960Y244067D3*
G1X695172Y251865D3*
G1X695172Y257463D3*
G1X688474Y366831D3*
G1X688474Y372429D3*
G1X698718Y389371D3*
G1X698718Y383773D3*
G1X714478Y230113D3*
G1X714478Y235711D3*
G1X705810Y238469D3*
G1X705810Y244067D3*
G1X717630Y273141D3*
G1X717630Y278739D3*
G1X710144Y326643D3*
G1X710144Y332241D3*
G1X736936Y273141D3*
G1X736936Y278739D3*
G1X727086Y273141D3*
G1X727086Y278739D3*
G1X738512Y305055D3*
G1X738512Y299457D3*
G1X738512Y313329D3*
G1X738512Y318927D3*
G1X759000Y299145D3*
G1X759000Y304743D3*
G1X778700Y258169D3*
G1X778700Y263767D3*
G1X762940Y258169D3*
G1X762940Y263767D3*
G1X770820Y258169D3*
G1X770820Y263767D3*
G54D61*
G1X747964Y228619D3*
G1X742452Y228619D3*
G54D62*
G1X699856Y373345D3*
G54D26*
G1X757030Y389371D3*
G1X757030Y397773D3*
G54D31*
G1X776912Y385651D3*
G54D21*
G1X17850Y265036D3*
G1X17850Y275863D3*
G1X17850Y286689D3*
G1X198952Y274878D3*
G1X198952Y285705D3*
G1X198952Y296532D3*
G1X198952Y340233D3*
G1X198952Y351059D3*
G1X198952Y361886D3*
G54D30*
G1X35567Y243579D3*
G1X35567Y250669D3*
G1X45017Y243579D3*
G1X45017Y250669D3*
G54D26*
G1X87976Y367557D3*
G1X87976Y375957D3*
G54D12*
G1X104622Y394209D3*
G1X104622Y404209D3*
G1X124622Y394209D3*
G1X114622Y394209D3*
G1X124622Y404209D3*
G1X114622Y404209D3*
G1X134622Y394209D3*
G1X134622Y404209D3*
G1X144622Y394209D3*
G1X154622Y404209D3*
G1X144622Y404209D3*
G1X164622Y394209D3*
G1X164622Y404209D3*
G1X184622Y394209D3*
G1X174622Y394209D3*
G1X184622Y404209D3*
G1X174622Y404209D3*
G1X194622Y394209D3*
G54D23*
G1X35872Y256965D3*
G1X41472Y256965D3*
G1X52889Y256965D3*
G1X58489Y256965D3*
G1X52889Y271925D3*
G1X58489Y271925D3*
G1X52889Y264445D3*
G1X58489Y264445D3*
G1X52889Y279406D3*
G1X58489Y279406D3*
G1X52889Y286886D3*
G1X58489Y286886D3*
G1X52889Y294366D3*
G1X58489Y294366D3*
G1X57976Y355957D3*
G1X63576Y355957D3*
G1X90990Y303422D3*
G1X94228Y327437D3*
G1X104070Y273500D3*
G1X98471Y273500D3*
G1X104070Y266020D3*
G1X98471Y266020D3*
G1X104070Y280981D3*
G1X98471Y280981D3*
G1X104070Y288461D3*
G1X98471Y288461D3*
G1X104464Y295941D3*
G1X110064Y295941D3*
G1X109976Y303422D3*
G1X104376Y303422D3*
G1X96590Y303422D3*
G1X106738Y327437D3*
G1X99828Y327437D3*
G1X122968Y303422D3*
G1X122968Y295941D3*
G1X122968Y310902D3*
G1X112338Y327437D3*
G1X128480Y285705D3*
G1X134080Y285705D3*
G1X128568Y303422D3*
G1X128568Y295941D3*
G1X140202Y303422D3*
G1X128568Y310902D3*
G1X140202Y310902D3*
G1X128480Y351059D3*
G1X134080Y351059D3*
G1X148165Y285705D3*
G1X153765Y285705D3*
G1X145802Y303422D3*
G1X145802Y310902D3*
G1X148165Y351059D3*
G1X153765Y351059D3*
G1X167850Y285705D3*
G1X167850Y351059D3*
G1X173450Y285705D3*
G1X173450Y351059D3*
G54D13*
G1X154622Y394209D3*
G1X194622Y404209D3*
G54D25*
G1X31578Y261559D3*
G1X46976Y275657D3*
G1X46976Y283157D3*
G1X46976Y290557D3*
G1X71276Y245957D3*
G1X78776Y245957D3*
G1X70376Y314657D3*
G1X70606Y366413D3*
G1X81629Y357752D3*
G1X81236Y366413D3*
G1X76118Y357752D3*
G1X76118Y366413D3*
G1X70606Y357752D3*
G1X87141Y357752D3*
G1X98471Y259957D3*
G1X109976Y269757D3*
G1X109976Y284757D3*
G1X134385Y309721D3*
G1X134385Y304209D3*
G54D29*
G1X37532Y356770D3*
G1X37532Y407749D3*
G54D24*
G1X66669Y304603D3*
G1X66669Y299003D3*
G1X67456Y252241D3*
G1X67456Y257841D3*
G1X74937Y252241D3*
G1X74937Y257841D3*
G1X74149Y304603D3*
G1X74149Y299003D3*
G1X81630Y304603D3*
G1X81630Y299003D3*
G1X89897Y252241D3*
G1X89897Y257841D3*
G1X82417Y252241D3*
G1X82417Y257841D3*
G1X90291Y314445D3*
G1X90291Y320045D3*
G1X82811Y319957D3*
G1X82811Y314357D3*
G1X105252Y314445D3*
G1X105252Y320045D3*
G1X97771Y319957D3*
G1X97771Y314357D3*
G1X141078Y280193D3*
G1X141078Y285793D3*
G1X141078Y350971D3*
G1X141078Y356571D3*
G1X160763Y280193D3*
G1X160763Y285793D3*
G1X160763Y350971D3*
G1X160763Y356571D3*
G54D31*
G1X70212Y379799D3*
G54D28*
G1X68937Y270051D3*
G1X68937Y272021D3*
G1X68937Y273991D3*
G1X68937Y275961D3*
G1X68937Y277931D3*
G1X68937Y279901D3*
G1X68937Y281871D3*
G1X68937Y283831D3*
G1X88417Y277931D3*
G1X88417Y275961D3*
G1X88417Y273991D3*
G1X88417Y272021D3*
G1X88417Y270051D3*
G1X88417Y283831D3*
G1X88417Y281871D3*
G1X88417Y279901D3*
G54D22*
G1X78677Y276941D3*
G54D27*
G1X79657Y267201D3*
G1X77697Y267201D3*
G1X75727Y267201D3*
G1X73757Y267201D3*
G1X71787Y267201D3*
G1X71787Y286691D3*
G1X73757Y286691D3*
G1X75727Y286691D3*
G1X77697Y286691D3*
G1X79657Y286691D3*
G1X85567Y267201D3*
G1X83597Y267201D3*
G1X81627Y267201D3*
G1X81627Y286691D3*
G1X83597Y286691D3*
G1X85567Y286691D3*
G54D21*
G1X227916Y265074D3*
G1X227916Y275901D3*
G1X227916Y286727D3*
G1X409018Y274916D3*
G1X409018Y285743D3*
G1X409018Y296570D3*
G1X409018Y340271D3*
G1X409018Y351097D3*
G1X409018Y361924D3*
G54D30*
G1X245633Y243617D3*
G1X245633Y250707D3*
G1X255083Y243617D3*
G1X255083Y250707D3*
G54D26*
G1X298042Y367595D3*
G1X298042Y375995D3*
G54D12*
G1X314688Y394247D3*
G1X314688Y404247D3*
G1X334688Y394247D3*
G1X324688Y394247D3*
G1X334688Y404247D3*
G1X324688Y404247D3*
G1X344688Y394247D3*
G1X344688Y404247D3*
G1X354688Y394247D3*
G1X364688Y404247D3*
G1X354688Y404247D3*
G1X374688Y394247D3*
G1X374688Y404247D3*
G1X394688Y394247D3*
G1X384688Y394247D3*
G1X394688Y404247D3*
G1X384688Y404247D3*
G1X404688Y394247D3*
G54D23*
G1X245938Y257003D3*
G1X251538Y257003D3*
G1X262955Y257003D3*
G1X268555Y257003D3*
G1X262955Y271963D3*
G1X268555Y271963D3*
G1X262955Y264483D3*
G1X268555Y264483D3*
G1X262955Y279444D3*
G1X268555Y279444D3*
G1X262955Y286924D3*
G1X268555Y286924D3*
G1X262955Y294404D3*
G1X268555Y294404D3*
G1X268042Y355995D3*
G1X273642Y355995D3*
G1X301056Y303460D3*
G1X304294Y327475D3*
G1X314136Y273538D3*
G1X308537Y273538D3*
G1X314136Y266058D3*
G1X308537Y266058D3*
G1X314136Y281019D3*
G1X308537Y281019D3*
G1X314136Y288499D3*
G1X308537Y288499D3*
G1X314530Y295979D3*
G1X320130Y295979D3*
G1X320042Y303460D3*
G1X314442Y303460D3*
G1X306656Y303460D3*
G1X316804Y327475D3*
G1X309894Y327475D3*
G1X333034Y303460D3*
G1X333034Y295979D3*
G1X333034Y310940D3*
G1X322404Y327475D3*
G1X338546Y285743D3*
G1X344146Y285743D3*
G1X338634Y303460D3*
G1X338634Y295979D3*
G1X350268Y303460D3*
G1X338634Y310940D3*
G1X350268Y310940D3*
G1X338546Y351097D3*
G1X344146Y351097D3*
G1X358231Y285743D3*
G1X363831Y285743D3*
G1X355868Y303460D3*
G1X355868Y310940D3*
G1X358231Y351097D3*
G1X363831Y351097D3*
G1X377916Y285743D3*
G1X377916Y351097D3*
G1X383516Y285743D3*
G1X383516Y351097D3*
G54D13*
G1X364688Y394247D3*
G1X404688Y404247D3*
G54D25*
G1X241644Y261597D3*
G1X257042Y275695D3*
G1X257042Y283195D3*
G1X257042Y290595D3*
G1X281342Y245995D3*
G1X288842Y245995D3*
G1X280442Y314695D3*
G1X280672Y366451D3*
G1X291695Y357790D3*
G1X291302Y366451D3*
G1X286184Y357790D3*
G1X286184Y366451D3*
G1X280672Y357790D3*
G1X297207Y357790D3*
G1X308537Y259995D3*
G1X320042Y269795D3*
G1X320042Y284795D3*
G1X344451Y309759D3*
G1X344451Y304247D3*
G54D29*
G1X247598Y356808D3*
G1X247598Y407787D3*
G54D24*
G1X276735Y304641D3*
G1X276735Y299041D3*
G1X277522Y252279D3*
G1X277522Y257879D3*
G1X285003Y252279D3*
G1X285003Y257879D3*
G1X284215Y304641D3*
G1X284215Y299041D3*
G1X291696Y304641D3*
G1X291696Y299041D3*
G1X299963Y252279D3*
G1X299963Y257879D3*
G1X292483Y252279D3*
G1X292483Y257879D3*
G1X300357Y314483D3*
G1X300357Y320083D3*
G1X292877Y319995D3*
G1X292877Y314395D3*
G1X315318Y314483D3*
G1X315318Y320083D3*
G1X307837Y319995D3*
G1X307837Y314395D3*
G1X351144Y280231D3*
G1X351144Y285831D3*
G1X351144Y351009D3*
G1X351144Y356609D3*
G1X370829Y280231D3*
G1X370829Y285831D3*
G1X370829Y351009D3*
G1X370829Y356609D3*
G54D31*
G1X280278Y379837D3*
G54D28*
G1X279003Y270089D3*
G1X279003Y272059D3*
G1X279003Y274029D3*
G1X279003Y275999D3*
G1X279003Y277969D3*
G1X279003Y279939D3*
G1X279003Y281909D3*
G1X279003Y283869D3*
G1X298483Y277969D3*
G1X298483Y275999D3*
G1X298483Y274029D3*
G1X298483Y272059D3*
G1X298483Y270089D3*
G1X298483Y283869D3*
G1X298483Y281909D3*
G1X298483Y279939D3*
G54D22*
G1X288743Y276979D3*
G54D27*
G1X289723Y267239D3*
G1X287763Y267239D3*
G1X285793Y267239D3*
G1X283823Y267239D3*
G1X281853Y267239D3*
G1X281853Y286729D3*
G1X283823Y286729D3*
G1X285793Y286729D3*
G1X287763Y286729D3*
G1X289723Y286729D3*
G1X295633Y267239D3*
G1X293663Y267239D3*
G1X291693Y267239D3*
G1X291693Y286729D3*
G1X293663Y286729D3*
G1X295633Y286729D3*
G54D21*
G1X437900Y265104D3*
G1X437900Y275931D3*
G1X437900Y286757D3*
G1X619002Y274946D3*
G1X619002Y285773D3*
G1X619002Y296600D3*
G1X619002Y340301D3*
G1X619002Y351127D3*
G1X619002Y361954D3*
G54D30*
G1X455617Y243647D3*
G1X455617Y250737D3*
G1X465067Y243647D3*
G1X465067Y250737D3*
G54D26*
G1X508026Y367625D3*
G1X508026Y376025D3*
G54D12*
G1X524672Y394277D3*
G1X524672Y404277D3*
G1X544672Y394277D3*
G1X534672Y394277D3*
G1X544672Y404277D3*
G1X534672Y404277D3*
G1X554672Y394277D3*
G1X554672Y404277D3*
G1X564672Y394277D3*
G1X574672Y404277D3*
G1X564672Y404277D3*
G1X584672Y394277D3*
G1X584672Y404277D3*
G1X604672Y394277D3*
G1X594672Y394277D3*
G1X604672Y404277D3*
G1X594672Y404277D3*
G1X614672Y394277D3*
G54D23*
G1X455922Y257033D3*
G1X461522Y257033D3*
G1X472939Y257033D3*
G1X478539Y257033D3*
G1X472939Y271993D3*
G1X478539Y271993D3*
G1X472939Y264513D3*
G1X478539Y264513D3*
G1X472939Y279474D3*
G1X478539Y279474D3*
G1X472939Y286954D3*
G1X478539Y286954D3*
G1X472939Y294434D3*
G1X478539Y294434D3*
G1X478026Y356025D3*
G1X483626Y356025D3*
G1X511040Y303490D3*
G1X514278Y327505D3*
G1X524120Y273568D3*
G1X518521Y273568D3*
G1X524120Y266088D3*
G1X518521Y266088D3*
G1X524120Y281049D3*
G1X518521Y281049D3*
G1X524120Y288529D3*
G1X518521Y288529D3*
G1X524514Y296009D3*
G1X530114Y296009D3*
G1X530026Y303490D3*
G1X524426Y303490D3*
G1X516640Y303490D3*
G1X526788Y327505D3*
G1X519878Y327505D3*
G1X543018Y303490D3*
G1X543018Y296009D3*
G1X543018Y310970D3*
G1X532388Y327505D3*
G1X548530Y285773D3*
G1X554130Y285773D3*
G1X548618Y303490D3*
G1X548618Y296009D3*
G1X560252Y303490D3*
G1X548618Y310970D3*
G1X560252Y310970D3*
G1X548530Y351127D3*
G1X554130Y351127D3*
G1X568215Y285773D3*
G1X573815Y285773D3*
G1X565852Y303490D3*
G1X565852Y310970D3*
G1X568215Y351127D3*
G1X573815Y351127D3*
G1X587900Y285773D3*
G1X587900Y351127D3*
G1X593500Y285773D3*
G1X593500Y351127D3*
G54D13*
G1X574672Y394277D3*
G1X614672Y404277D3*
G54D25*
G1X451628Y261627D3*
G1X467026Y275725D3*
G1X467026Y283225D3*
G1X467026Y290625D3*
G1X491326Y246025D3*
G1X498826Y246025D3*
G1X490426Y314725D3*
G1X490656Y366481D3*
G1X501679Y357820D3*
G1X501286Y366481D3*
G1X496168Y357820D3*
G1X496168Y366481D3*
G1X490656Y357820D3*
G1X507191Y357820D3*
G1X518521Y260025D3*
G1X530026Y269825D3*
G1X530026Y284825D3*
G1X554435Y309789D3*
G1X554435Y304277D3*
G54D29*
G1X457582Y356838D3*
G1X457582Y407817D3*
G54D24*
G1X486719Y304671D3*
G1X486719Y299071D3*
G1X487506Y252309D3*
G1X487506Y257909D3*
G1X494987Y252309D3*
G1X494987Y257909D3*
G1X494199Y304671D3*
G1X494199Y299071D3*
G1X501680Y304671D3*
G1X501680Y299071D3*
G1X509947Y252309D3*
G1X509947Y257909D3*
G1X502467Y252309D3*
G1X502467Y257909D3*
G1X510341Y314513D3*
G1X510341Y320113D3*
G1X502861Y320025D3*
G1X502861Y314425D3*
G1X525302Y314513D3*
G1X525302Y320113D3*
G1X517821Y320025D3*
G1X517821Y314425D3*
G1X561128Y280261D3*
G1X561128Y285861D3*
G1X561128Y351039D3*
G1X561128Y356639D3*
G1X580813Y280261D3*
G1X580813Y285861D3*
G1X580813Y351039D3*
G1X580813Y356639D3*
G54D31*
G1X490262Y379867D3*
G54D28*
G1X488987Y270119D3*
G1X488987Y272089D3*
G1X488987Y274059D3*
G1X488987Y276029D3*
G1X488987Y277999D3*
G1X488987Y279969D3*
G1X488987Y281939D3*
G1X488987Y283899D3*
G1X508467Y277999D3*
G1X508467Y276029D3*
G1X508467Y274059D3*
G1X508467Y272089D3*
G1X508467Y270119D3*
G1X508467Y283899D3*
G1X508467Y281939D3*
G1X508467Y279969D3*
G54D22*
G1X498727Y277009D3*
G54D27*
G1X499707Y267269D3*
G1X497747Y267269D3*
G1X495777Y267269D3*
G1X493807Y267269D3*
G1X491837Y267269D3*
G1X491837Y286759D3*
G1X493807Y286759D3*
G1X495777Y286759D3*
G1X497747Y286759D3*
G1X499707Y286759D3*
G1X505617Y267269D3*
G1X503647Y267269D3*
G1X501677Y267269D3*
G1X501677Y286759D3*
G1X503647Y286759D3*
G1X505617Y286759D3*
M2*
