G04 ================== begin FILE IDENTIFICATION RECORD ==================*
G04 Layout Name:  Transceiver.brd*
G04 Film Name:    transceiverBOTTOM*
G04 File Format:  Gerber RS274X*
G04 File Origin:  Cadence Allegro 17.2-S022*
G04 Origin Date:  Tue Apr 17 13:41:28 2018*
G04 *
G04 Layer:  ETCH/BOTTOM*
G04 Layer:  PIN/BOTTOM*
G04 Layer:  VIA CLASS/BOTTOM*
G04 *
G04 Offset:    (0.000 0.000)*
G04 Mirror:    No*
G04 Mode:      Positive*
G04 Rotation:  0*
G04 FullContactRelief:  No*
G04 UndefLineWidth:     39.370*
G04 ================== end FILE IDENTIFICATION RECORD ====================*
%FSLAX25Y25*MOIN*%
%IR0*IPPOS*OFA0.00000B0.00000*MIA0B0*SFA1.00000B1.00000*%
%ADD10C,.02*%
%ADD11C,.03*%
%ADD12C,.058*%
%ADD13R,.058X.058*%
%ADD14C,.005*%
%ADD15C,.01*%
%ADD16C,.050004*%
%ADD18C,.084004*%
%ADD17C,.078004*%
G75*
%LPD*%
G75*
G36*
G01X0Y0D02*
Y196850D01*
X196850D01*
Y0D01*
X0D01*
G37*
%LPC*%
G75*
G36*
G01X180746Y181352D02*
Y187152D01*
G02X181746Y188152I1000J0D01*
G01X187546D01*
G02X188546Y187152I0J-1000D01*
G01Y181352D01*
G02X187546Y180352I-1000J0D01*
G01X181746D01*
G02X180746Y181352I0J1000D01*
G37*
G36*
G01X68348Y145280D02*
G02Y147633I-2206J1177D01*
G03X69054I353J188D01*
G02Y145280I2206J-1176D01*
G03X68348I-353J-188D01*
G37*
G36*
G01X80189Y35501D02*
X67418D01*
X63507Y39413D01*
X63418D01*
X61678Y41154D01*
X61651Y41168D01*
G02X61120Y44307I929J1772D01*
G03X61111Y44864I-292J274D01*
G01X55974Y50000D01*
Y63780D01*
X61417Y69223D01*
X73020D01*
G03X73394Y69764I0J400D01*
G02X74336Y72244I1871J707D01*
G01X74364Y72258D01*
X102746Y100640D01*
Y170846D01*
G02X106546I1900J3406D01*
G01Y101537D01*
G03X107229Y101255I400J0D01*
G01X112745Y106771D01*
Y170846D01*
G02X116546I1900J3406D01*
G01Y108388D01*
G03X117229Y108105I400J0D01*
G01X122746Y113622D01*
Y170846D01*
G02X126546I1900J3406D01*
G01Y115632D01*
G03X127229Y115349I400J0D01*
G01X132746Y120866D01*
Y170846D01*
G02X136546I1900J3406D01*
G01Y122876D01*
G03X137229Y122593I400J0D01*
G01X142746Y128110D01*
Y170352D01*
X141746D01*
G02X140746Y171352I0J1000D01*
G01Y177152D01*
G02X141746Y178152I1000J0D01*
G01X147546D01*
G02X148546Y177152I0J-1000D01*
G01Y171352D01*
G02X147546Y170352I-1000J0D01*
G01X146546D01*
Y129726D01*
G03X147229Y129444I400J0D01*
G01X152746Y134960D01*
Y170846D01*
G02X156546I1900J3406D01*
G01Y136577D01*
G03X157229Y136294I400J0D01*
G01X162746Y141811D01*
Y170846D01*
G02X166546I1900J3406D01*
G01Y142441D01*
G03X167229Y142158I400J0D01*
G01X172746Y147675D01*
Y170846D01*
G02X176546I1900J3406D01*
G01Y149884D01*
G03X177229Y149601I400J0D01*
G01X182745Y155118D01*
Y170846D01*
G02X186546Y170846I1901J3406D01*
G01Y169265D01*
X186546Y169264D01*
Y153543D01*
X175916Y142913D01*
Y123622D01*
X109842Y57549D01*
X102236D01*
X87847Y43160D01*
G03X88180Y42480I283J-283D01*
G02X86014Y40314I314J-2480D01*
G03X85334Y40647I-397J50D01*
G01X80189Y35501D01*
G37*
G54D16*
X21602Y41602D03*
X37000Y55700D03*
Y70600D03*
Y63200D03*
X68800Y26000D03*
X61300D03*
X60400Y94700D03*
X60630Y137795D03*
X66142D03*
X71653D03*
X60630Y146456D03*
X77165Y137795D03*
X100000Y49800D03*
G54D18*
X94646Y184252D03*
X114646D03*
X104646D03*
X124646D03*
X134646D03*
G54D17*
X94646Y174252D03*
X144646Y184252D03*
X154646D03*
X174646D03*
X164646D03*
%LPD*%
G75*
G36*
G01X98146Y59399D02*
G03X97863Y59516I-283J-283D01*
G01X90927D01*
G02X90644Y60199I0J400D01*
G01X171432Y140987D01*
G02X172115Y140704I283J-283D01*
G01Y125196D01*
X108268Y61349D01*
X100662D01*
X98712Y59399D01*
G02X98146Y59399I-283J283D01*
G37*
%LPC*%
G75*
G54D16*
X100000Y64800D03*
X124409Y84252D03*
Y89764D03*
%LPD*%
G75*
G54D10*
X9842Y29528D03*
X5118Y39764D03*
X9449D03*
X9055Y72835D03*
X4331D03*
X9842Y88583D03*
Y108268D03*
Y127953D03*
Y147638D03*
Y167323D03*
Y187008D03*
X19685Y19685D03*
Y59055D03*
Y78740D03*
Y98425D03*
Y118110D03*
Y157480D03*
Y177165D03*
X29528Y9842D03*
X39370Y19685D03*
X29921Y49213D03*
X38189Y48425D03*
X39370Y59055D03*
X29528Y68898D03*
X39370Y78740D03*
X29528Y88583D03*
X39370Y98425D03*
Y118110D03*
X29528Y108268D03*
X39370Y157480D03*
Y177165D03*
X29528Y167323D03*
X49213Y9842D03*
X54724Y51575D03*
X49213Y88583D03*
Y108268D03*
Y127953D03*
Y187008D03*
X68898Y9842D03*
X59055Y19685D03*
X62579Y42939D03*
X64961Y53937D03*
X68504Y57480D03*
X64961D03*
X68504Y53937D03*
X67721Y43701D03*
X64961D03*
X68504Y60630D03*
X64961D03*
X59055Y98425D03*
X68110Y100000D03*
X64173Y89370D03*
X59055Y118110D03*
X68898Y108268D03*
Y127953D03*
X59055Y177165D03*
X68898Y187008D03*
X78740Y19685D03*
X76378Y43307D03*
X81792Y54034D03*
X78347Y46340D03*
X72047Y57480D03*
Y53937D03*
X81890Y51181D03*
X80709Y48425D03*
X72047Y60630D03*
X75265Y70472D03*
X71654Y89370D03*
X78740Y118110D03*
Y177165D03*
X88583Y9842D03*
X98425Y19685D03*
X94094Y41339D03*
X98425Y39370D03*
X100000Y100394D03*
X98425Y118110D03*
X88583Y127953D03*
Y147638D03*
X98425Y137795D03*
Y157480D03*
X108268Y9842D03*
Y29528D03*
X102756Y56299D03*
X101575Y68898D03*
X107086Y63779D03*
X108268Y147638D03*
X127953Y9842D03*
X118110Y19685D03*
Y39370D03*
X127953Y29528D03*
Y49213D03*
X118110Y59055D03*
Y118110D03*
X127953Y147638D03*
X118110Y137795D03*
Y157480D03*
X137795Y19685D03*
Y39370D03*
X131102Y55512D03*
X137795Y59055D03*
Y78740D03*
Y98425D03*
Y137795D03*
X131496Y141339D03*
X137795Y157480D03*
X147638Y9842D03*
X157480Y19685D03*
X147638Y29528D03*
X157480Y39370D03*
X150787Y55512D03*
X147638Y49213D03*
X157480Y59055D03*
Y78740D03*
Y98425D03*
X147638Y88583D03*
X157480Y118110D03*
X150787Y141339D03*
X147638Y147638D03*
X157874Y138583D03*
X158268Y157480D03*
X167323Y9842D03*
Y29528D03*
Y49213D03*
Y88583D03*
Y108268D03*
Y147638D03*
X187008Y9842D03*
X177165Y19685D03*
X187008Y29528D03*
X177165Y39370D03*
X187402Y49213D03*
X177165Y59055D03*
Y78740D03*
X185827Y81890D03*
X187008Y88583D03*
X177165Y98425D03*
Y118110D03*
X187008Y108268D03*
X186220Y114567D03*
X177953Y137795D03*
X187795Y147638D03*
X177953Y157480D03*
X192913Y49213D03*
X192520Y81890D03*
X192913Y114567D03*
X192520Y147638D03*
G54D11*
X21602Y41602D03*
X37000Y55700D03*
Y63200D03*
Y70600D03*
X61300Y26000D03*
X68800D03*
X60400Y94700D03*
X60630Y146456D03*
X71653Y137795D03*
X71260Y146456D03*
X66142Y137795D03*
Y146456D03*
X60630Y137795D03*
X77165D03*
X88495Y40000D03*
X100000Y49800D03*
Y64800D03*
X124409Y89764D03*
Y84252D03*
G54D12*
X94646Y174252D03*
Y184252D03*
X114646Y174252D03*
X104646D03*
X114646Y184252D03*
X104646D03*
X124646Y174252D03*
Y184252D03*
X134646Y174252D03*
X144646Y184252D03*
X134646D03*
X154646Y174252D03*
Y184252D03*
X174646Y174252D03*
X164646D03*
X174646Y184252D03*
X164646D03*
X184646Y174252D03*
G54D13*
X144646D03*
X184646Y184252D03*
G54D14*
G01X94646Y179852D02*
Y184252D01*
G01D02*
Y188652D01*
G01X90246Y184252D02*
X94646D01*
G01D02*
X99046D01*
G01X104646Y179852D02*
Y184252D01*
G01D02*
Y188652D01*
G01X100246Y184252D02*
X104646D01*
G01D02*
X109046D01*
G01X114646Y179852D02*
Y184252D01*
G01D02*
Y188652D01*
G01X110246Y184252D02*
X114646D01*
G01D02*
X119046D01*
G01X124646Y179852D02*
Y184252D01*
G01D02*
Y188652D01*
G01X120246Y184252D02*
X124646D01*
G01D02*
X129046D01*
G01X134646Y179852D02*
Y184252D01*
G01D02*
Y188652D01*
G01X130245Y184252D02*
X134646D01*
G01D02*
X139046D01*
G54D15*
G01X184646Y174252D02*
Y170052D01*
X184645Y170052D01*
Y154330D01*
X174015Y143700D01*
Y124409D01*
X109055Y59449D01*
X101449D01*
X79402Y37402D01*
X68206D01*
X64294Y41313D01*
X64205D01*
X62579Y42939D01*
G01X134646Y174252D02*
Y120079D01*
X77559Y62992D01*
X63386D01*
X62205Y61811D01*
Y53150D01*
X70079Y45276D01*
Y42520D01*
X73228Y39370D01*
X78370D01*
X83858Y44858D01*
Y49213D01*
X81890Y51181D01*
G01X124646Y174252D02*
Y112835D01*
X77165Y65354D01*
X62992D01*
X59842Y62205D01*
Y52362D01*
X67721Y44484D01*
Y43701D01*
G01X114646Y174252D02*
Y105984D01*
X75984Y67323D01*
X62204D01*
X57874Y62992D01*
Y50787D01*
X64961Y43701D01*
G01X144646Y174252D02*
Y127322D01*
X74047Y56724D01*
Y42094D01*
X75197Y40945D01*
X77202D01*
X80709Y44451D01*
Y48425D01*
G01X81792Y54034D02*
X174646Y146888D01*
Y174252D01*
G01X154646D02*
Y134173D01*
X75984Y55512D01*
Y45276D01*
X76378Y44882D01*
Y43307D01*
G01X164646Y174252D02*
Y141024D01*
X78347Y54724D01*
Y46340D01*
G01X104646Y174252D02*
Y99853D01*
X75265Y70472D01*
M02*
