G04 ================== begin FILE IDENTIFICATION RECORD ==================*
G04 Layout Name:  Transceiver.brd*
G04 Film Name:    transceiverInner1*
G04 File Format:  Gerber RS274X*
G04 File Origin:  Cadence Allegro 17.2-S022*
G04 Origin Date:  Mon Apr 16 21:44:38 2018*
G04 *
G04 Layer:  VIA CLASS/INNER 1*
G04 Layer:  PIN/INNER 1*
G04 Layer:  ETCH/INNER 1*
G04 *
G04 Offset:    (0.0000 0.0000)*
G04 Mirror:    No*
G04 Mode:      Positive*
G04 Rotation:  0*
G04 FullContactRelief:  No*
G04 UndefLineWidth:     0.0000*
G04 ================== end FILE IDENTIFICATION RECORD ====================*
%FSLAX25Y25*MOIN*%
%IR0*IPPOS*OFA0.00000B0.00000*MIA0B0*SFA1.00000B1.00000*%
%ADD10C,.015*%
%ADD11C,.025*%
%ADD12C,.058*%
%ADD13R,.058X.058*%
%ADD14C,.005*%
%ADD16C,.035016*%
%ADD18C,.084016*%
%ADD15C,.045016*%
%ADD17C,.078016*%
G75*
%LPD*%
G75*
G36*
G01X2500Y2500D02*
Y195000D01*
X195000D01*
Y2500D01*
X2500D01*
G37*
%LPC*%
G75*
G36*
G01X180745Y181352D02*
Y187152D01*
G02X181746Y188153I1001J0D01*
G01X187546D01*
G02X188546Y187152I0J-1001D01*
G01Y181352D01*
G02X187546Y180351I-1001J0D01*
G01X181746D01*
G02X180745Y181352I0J1001D01*
G37*
G36*
G01X140745Y171352D02*
Y177152D01*
G02X141746Y178153I1001J0D01*
G01X147546D01*
G02X148546Y177152I0J-1001D01*
G01Y171352D01*
G02X147546Y170351I-1001J0D01*
G01X141746D01*
G02X140745Y171352I0J1001D01*
G37*
G36*
G01X64301Y42079D02*
G03X64057Y42001I-75J-185D01*
G02X63239Y44561I-1478J939D01*
G03X63483Y44639I75J185D01*
G02X66199Y44938I1478J-939D01*
G03X66482I142J141D01*
G02Y42463I1239J-1237D01*
G03X66199I-142J-141D01*
G02X64301Y42079I-1239J1237D01*
G37*
G36*
G01X77975Y44025D02*
G02X76383Y45058I-1597J-718D01*
G03X76750Y45622I1J400D01*
G02X78519Y48082I1597J718D01*
G03X78958Y48470I39J398D01*
G02X80035Y50041I1750J-45D01*
G03X80255Y50554I-154J369D01*
G02X80541Y52298I1635J627D01*
G03X80523Y52828I-308J255D01*
G02X83141Y52918I1269J1206D01*
G03X83159Y52387I308J-255D01*
G02X82563Y49565I-1269J-1206D01*
G03X82343Y49052I154J-369D01*
G02X80536Y46683I-1635J-627D01*
G03X80097Y46295I-39J-398D01*
G02X78341Y44589I-1750J45D01*
G03X77975Y44025I-1J-400D01*
G37*
G54D16*
X75265Y70472D03*
G54D18*
X94646Y184252D03*
X114646D03*
X104646D03*
X124646D03*
X134646D03*
G54D15*
X21602Y41602D03*
X37000Y55700D03*
Y70600D03*
Y63200D03*
X68800Y26000D03*
X61300D03*
X60400Y94700D03*
X71000Y146000D03*
X65500D03*
X59500D03*
X65500Y138000D03*
X60000D03*
X71000D03*
X76500D03*
X88494Y40000D03*
X100000Y49800D03*
Y64800D03*
X124500Y84500D03*
Y90000D03*
G54D17*
X94646Y174252D03*
X114646D03*
X104646D03*
X124646D03*
X134646D03*
X144646Y184252D03*
X154646Y174252D03*
Y184252D03*
X174646Y174252D03*
X164646D03*
X174646Y184252D03*
X164646D03*
X184646Y174252D03*
%LPD*%
G75*
G54D10*
X9843Y29528D03*
X9449Y39764D03*
X5118D03*
X4331Y72835D03*
X9055D03*
X9843Y88583D03*
Y108268D03*
Y127953D03*
Y147638D03*
Y167323D03*
Y187008D03*
X19685Y19685D03*
Y59055D03*
Y78740D03*
Y98425D03*
Y118110D03*
Y157480D03*
Y177165D03*
X29528Y9843D03*
X39370Y19685D03*
X29921Y49213D03*
X38189Y48425D03*
X39370Y59055D03*
X29528Y68898D03*
X39370Y78740D03*
Y98425D03*
X29528Y88583D03*
X39370Y118110D03*
X29528Y108268D03*
X39370Y157480D03*
Y177165D03*
X29528Y167323D03*
X49213Y9843D03*
X55512Y52362D03*
X49213Y88583D03*
Y108268D03*
Y127953D03*
Y187008D03*
X68898Y9843D03*
X59055Y19685D03*
X62579Y42939D03*
X68504Y57480D03*
X64961D03*
Y53937D03*
X68504D03*
X67721Y43701D03*
X64961D03*
Y60630D03*
X68504D03*
X59055Y98425D03*
X68110Y100000D03*
X64173Y89370D03*
X59055Y118110D03*
X68898Y108268D03*
Y127953D03*
X59055Y177165D03*
X68898Y187008D03*
X78740Y19685D03*
X76378Y43307D03*
X81792Y54034D03*
X78346Y46340D03*
X72047Y53937D03*
Y57480D03*
X81890Y51181D03*
X80709Y48425D03*
X72047Y60630D03*
X75265Y70472D03*
X71654Y89370D03*
X78740Y118110D03*
Y177165D03*
X88583Y9843D03*
X98425Y19685D03*
Y39370D03*
X94094Y41339D03*
X98819Y71260D03*
X100000Y100394D03*
X98425Y118110D03*
X88583Y127953D03*
X98425Y137795D03*
X88583Y147638D03*
X98425Y157480D03*
X108268Y9843D03*
Y29528D03*
Y147638D03*
X127953Y9843D03*
X118110Y19685D03*
Y39370D03*
X127953Y29528D03*
Y49213D03*
X118110Y59055D03*
Y118110D03*
Y137795D03*
X127953Y147638D03*
X118110Y157480D03*
X137795Y19685D03*
Y39370D03*
X131102Y55512D03*
X137795Y59055D03*
Y78740D03*
Y98425D03*
Y137795D03*
X131496Y141339D03*
X137795Y157480D03*
X147638Y9843D03*
X157480Y19685D03*
Y39370D03*
X147638Y29528D03*
Y49213D03*
X150787Y55512D03*
X157480Y59055D03*
Y78740D03*
Y98425D03*
X147638Y88583D03*
X157480Y118110D03*
X157874Y138583D03*
X147638Y147638D03*
X150787Y141339D03*
X158268Y157480D03*
X167323Y9843D03*
Y29528D03*
Y49213D03*
Y88583D03*
Y108268D03*
Y147638D03*
X187008Y9843D03*
X177165Y19685D03*
Y39370D03*
X187008Y29528D03*
X187402Y49213D03*
X177165Y59055D03*
Y78740D03*
X185827Y81890D03*
X177165Y98425D03*
X187008Y88583D03*
X177165Y118110D03*
X187008Y108268D03*
X186220Y114567D03*
X177953Y137795D03*
X187795Y147638D03*
X177953Y157480D03*
X192913Y49213D03*
X192520Y81890D03*
X192913Y114567D03*
X192520Y147638D03*
G54D11*
X21602Y41602D03*
X37000Y55700D03*
Y70600D03*
Y63200D03*
X61300Y26000D03*
X68800D03*
X60400Y94700D03*
X65500Y146000D03*
X59500D03*
X60000Y138000D03*
X65500D03*
X71000D03*
Y146000D03*
X76500Y138000D03*
X88494Y40000D03*
X100000Y49800D03*
Y64800D03*
X124500Y90000D03*
Y84500D03*
G54D12*
X94646Y174252D03*
Y184252D03*
X114646Y174252D03*
X104646D03*
X114646Y184252D03*
X104646D03*
X124646Y174252D03*
Y184252D03*
X134646Y174252D03*
X144646Y184252D03*
X134646D03*
X154646Y174252D03*
Y184252D03*
X174646Y174252D03*
X164646D03*
X174646Y184252D03*
X164646D03*
X184646Y174252D03*
G54D13*
X144646D03*
X184646Y184252D03*
G54D14*
G01X94646Y179851D02*
Y184252D01*
G01D02*
Y188653D01*
G01X90245Y184252D02*
X94646D01*
G01D02*
X99046D01*
G01X104646Y179851D02*
Y184252D01*
G01D02*
Y188653D01*
G01X100245Y184252D02*
X104646D01*
G01D02*
X109046D01*
G01X114646Y179851D02*
Y184252D01*
G01D02*
Y188653D01*
G01X110245Y184252D02*
X114646D01*
G01D02*
X119046D01*
G01X124646Y179851D02*
Y184252D01*
G01D02*
Y188653D01*
G01X120245Y184252D02*
X124646D01*
G01D02*
X129046D01*
G01X134646Y179851D02*
Y184252D01*
G01D02*
Y188653D01*
G01X130245Y184252D02*
X134646D01*
G01D02*
X139046D01*
M02*
