G04 ================== begin FILE IDENTIFICATION RECORD ==================*
G04 Layout Name:  Transceiver.brd*
G04 Film Name:    transceiverSST*
G04 File Format:  Gerber RS274X*
G04 File Origin:  Cadence Allegro 17.2-S022*
G04 Origin Date:  Tue Apr 17 13:41:28 2018*
G04 *
G04 Layer:  REF DES/SILKSCREEN_TOP*
G04 Layer:  PACKAGE GEOMETRY/SILKSCREEN_TOP*
G04 Layer:  BOARD GEOMETRY/SILKSCREEN_TOP*
G04 *
G04 Offset:    (0.000 0.000)*
G04 Mirror:    No*
G04 Mode:      Positive*
G04 Rotation:  0*
G04 FullContactRelief:  No*
G04 UndefLineWidth:     0.000*
G04 ================== end FILE IDENTIFICATION RECORD ====================*
%FSLAX25Y25*MOIN*%
%IR0*IPPOS*OFA0.00000B0.00000*MIA0B0*SFA1.00000B1.00000*%
%ADD10C,.005*%
%ADD11C,.006*%
%ADD12C,.008*%
%ADD13C,.003902*%
%ADD14C,.003937*%
G75*
%LPD*%
G75*
G54D10*
G01X6172Y38295D02*
X6306Y38045D01*
X6466Y37879D01*
X6652Y37795D01*
X6866Y37879D01*
X7026Y38045D01*
X7186Y38295D01*
X7239Y38629D01*
Y40295D01*
G01X8319Y38295D02*
X8479Y38004D01*
X8692Y37837D01*
X8932Y37795D01*
X9146Y37837D01*
X9359Y38045D01*
X9492Y38295D01*
X9519Y38545D01*
X9466Y38837D01*
X9279Y39045D01*
X9092Y39129D01*
X8852D01*
G01X9092D02*
X9252Y39254D01*
X9386Y39462D01*
X9439Y39712D01*
X9386Y39962D01*
X9252Y40170D01*
X9012Y40295D01*
X8772Y40254D01*
X8532Y40087D01*
G01X23468Y18110D02*
X24588Y20610D01*
G01X23468D02*
X24588Y18110D01*
G01X26228D02*
Y20610D01*
X25908Y20110D01*
G01Y18110D02*
X26548D01*
G01X17528Y36150D02*
X17368Y36275D01*
X17182Y36358D01*
X16968D01*
X16728Y36233D01*
X16542Y36025D01*
X16408Y35775D01*
X16302Y35358D01*
X16275Y34983D01*
X16328Y34608D01*
X16408Y34358D01*
X16568Y34108D01*
X16755Y33942D01*
X16942Y33858D01*
X17128D01*
X17315Y33942D01*
X17475Y34067D01*
X17608Y34233D01*
G01X18635Y35942D02*
X18795Y36192D01*
X18982Y36317D01*
X19195Y36358D01*
X19462Y36275D01*
X19648Y36067D01*
X19702Y35817D01*
X19675Y35567D01*
X19568Y35358D01*
X19035Y34942D01*
X18795Y34650D01*
X18635Y34233D01*
X18582Y33858D01*
X19702D01*
G01X21288D02*
X21342Y34400D01*
X21422Y34858D01*
X21528Y35275D01*
X21662Y35733D01*
X21875Y36358D01*
X20808D01*
G01X34458Y45205D02*
X34298Y45330D01*
X34111Y45413D01*
X33898D01*
X33658Y45288D01*
X33471Y45080D01*
X33338Y44830D01*
X33231Y44413D01*
X33204Y44038D01*
X33258Y43663D01*
X33338Y43413D01*
X33498Y43163D01*
X33684Y42997D01*
X33871Y42913D01*
X34058D01*
X34244Y42997D01*
X34404Y43122D01*
X34538Y43288D01*
G01X36071Y42913D02*
Y45413D01*
X35751Y44913D01*
G01Y42913D02*
X36391D01*
G01X38591D02*
Y45413D01*
X37604Y43622D01*
X38938D01*
G01X30127Y60166D02*
X29967Y60291D01*
X29780Y60374D01*
X29567D01*
X29327Y60249D01*
X29140Y60041D01*
X29007Y59791D01*
X28900Y59374D01*
X28874Y58999D01*
X28927Y58624D01*
X29007Y58374D01*
X29167Y58124D01*
X29354Y57957D01*
X29540Y57874D01*
X29727D01*
X29914Y57957D01*
X30074Y58082D01*
X30207Y58249D01*
G01X31233Y59957D02*
X31394Y60207D01*
X31580Y60332D01*
X31794Y60374D01*
X32060Y60291D01*
X32247Y60082D01*
X32300Y59832D01*
X32274Y59582D01*
X32167Y59374D01*
X31633Y58957D01*
X31394Y58666D01*
X31233Y58249D01*
X31180Y57874D01*
X32300D01*
G01X33354Y58249D02*
X33514Y58041D01*
X33700Y57916D01*
X33940Y57874D01*
X34180Y57957D01*
X34367Y58124D01*
X34500Y58416D01*
X34527Y58749D01*
X34474Y59082D01*
X34340Y59291D01*
X34154Y59457D01*
X33967Y59499D01*
X33780Y59457D01*
X33540Y59291D01*
X33620Y60374D01*
X34340D01*
G01X34458Y51110D02*
X34298Y51236D01*
X34111Y51319D01*
X33898D01*
X33658Y51194D01*
X33471Y50986D01*
X33338Y50736D01*
X33231Y50319D01*
X33204Y49944D01*
X33258Y49569D01*
X33338Y49319D01*
X33498Y49069D01*
X33684Y48902D01*
X33871Y48819D01*
X34058D01*
X34244Y48902D01*
X34404Y49027D01*
X34538Y49194D01*
G01X35564Y50902D02*
X35724Y51152D01*
X35911Y51277D01*
X36124Y51319D01*
X36391Y51236D01*
X36578Y51027D01*
X36631Y50777D01*
X36604Y50527D01*
X36498Y50319D01*
X35964Y49902D01*
X35724Y49611D01*
X35564Y49194D01*
X35511Y48819D01*
X36631D01*
G01X37684Y49319D02*
X37844Y49027D01*
X38058Y48861D01*
X38298Y48819D01*
X38511Y48861D01*
X38724Y49069D01*
X38858Y49319D01*
X38884Y49569D01*
X38831Y49860D01*
X38644Y50069D01*
X38458Y50152D01*
X38218D01*
G01X38458D02*
X38618Y50277D01*
X38751Y50486D01*
X38804Y50736D01*
X38751Y50986D01*
X38618Y51194D01*
X38378Y51319D01*
X38138Y51277D01*
X37898Y51110D01*
G01X30127Y68040D02*
X29967Y68165D01*
X29780Y68248D01*
X29567D01*
X29327Y68123D01*
X29140Y67915D01*
X29007Y67665D01*
X28900Y67248D01*
X28874Y66873D01*
X28927Y66498D01*
X29007Y66248D01*
X29167Y65998D01*
X29354Y65831D01*
X29540Y65748D01*
X29727D01*
X29914Y65831D01*
X30074Y65956D01*
X30207Y66123D01*
G01X31740Y65748D02*
Y68248D01*
X31420Y67748D01*
G01Y65748D02*
X32060D01*
G01X33354Y66123D02*
X33514Y65915D01*
X33700Y65790D01*
X33940Y65748D01*
X34180Y65831D01*
X34367Y65998D01*
X34500Y66290D01*
X34527Y66623D01*
X34474Y66956D01*
X34340Y67165D01*
X34154Y67331D01*
X33967Y67373D01*
X33780Y67331D01*
X33540Y67165D01*
X33620Y68248D01*
X34340D01*
G01X34458Y76701D02*
X34298Y76826D01*
X34111Y76909D01*
X33898D01*
X33658Y76784D01*
X33471Y76576D01*
X33338Y76326D01*
X33231Y75909D01*
X33204Y75534D01*
X33258Y75159D01*
X33338Y74909D01*
X33498Y74659D01*
X33684Y74493D01*
X33871Y74409D01*
X34058D01*
X34244Y74493D01*
X34404Y74618D01*
X34538Y74784D01*
G01X35564Y76493D02*
X35724Y76743D01*
X35911Y76868D01*
X36124Y76909D01*
X36391Y76826D01*
X36578Y76618D01*
X36631Y76368D01*
X36604Y76118D01*
X36498Y75909D01*
X35964Y75493D01*
X35724Y75201D01*
X35564Y74784D01*
X35511Y74409D01*
X36631D01*
G01X37764Y75451D02*
X37951Y75743D01*
X38111Y75909D01*
X38324Y75993D01*
X38511Y75909D01*
X38644Y75743D01*
X38751Y75493D01*
X38778Y75201D01*
X38751Y74951D01*
X38644Y74701D01*
X38484Y74493D01*
X38298Y74409D01*
X38084Y74493D01*
X37898Y74743D01*
X37791Y75118D01*
X37764Y75534D01*
X37818Y76076D01*
X37898Y76368D01*
X38031Y76659D01*
X38218Y76868D01*
X38404Y76909D01*
X38591Y76826D01*
X38724Y76618D01*
G01X55189Y26190D02*
X55064Y26030D01*
X54980Y25843D01*
Y25630D01*
X55105Y25390D01*
X55314Y25203D01*
X55564Y25070D01*
X55980Y24963D01*
X56355Y24936D01*
X56730Y24990D01*
X56980Y25070D01*
X57230Y25230D01*
X57397Y25416D01*
X57480Y25603D01*
Y25790D01*
X57397Y25976D01*
X57272Y26136D01*
X57105Y26270D01*
G01X57480Y27803D02*
X54980D01*
X55480Y27483D01*
G01X57480D02*
Y28123D01*
G01X43968Y30315D02*
Y32815D01*
X44634D01*
X44848Y32690D01*
X44981Y32523D01*
X45034Y32190D01*
X44981Y31857D01*
X44821Y31648D01*
X44634Y31523D01*
X43968D01*
G01X44634D02*
X45034Y30315D01*
G01X46194Y32398D02*
X46354Y32648D01*
X46541Y32773D01*
X46754Y32815D01*
X47021Y32732D01*
X47208Y32523D01*
X47261Y32273D01*
X47234Y32023D01*
X47127Y31815D01*
X46594Y31398D01*
X46354Y31107D01*
X46194Y30690D01*
X46141Y30315D01*
X47261D01*
G01X56111Y74732D02*
X55951Y74858D01*
X55764Y74941D01*
X55551D01*
X55311Y74816D01*
X55124Y74608D01*
X54991Y74358D01*
X54884Y73941D01*
X54858Y73566D01*
X54911Y73191D01*
X54991Y72941D01*
X55151Y72691D01*
X55338Y72524D01*
X55524Y72441D01*
X55711D01*
X55898Y72524D01*
X56058Y72649D01*
X56191Y72816D01*
G01X57218Y74524D02*
X57378Y74774D01*
X57564Y74899D01*
X57778Y74941D01*
X58044Y74858D01*
X58231Y74649D01*
X58284Y74399D01*
X58258Y74149D01*
X58151Y73941D01*
X57618Y73524D01*
X57378Y73233D01*
X57218Y72816D01*
X57164Y72441D01*
X58284D01*
G01X46269Y131426D02*
X46108Y131551D01*
X45922Y131634D01*
X45709D01*
X45468Y131509D01*
X45282Y131301D01*
X45149Y131050D01*
X45042Y130634D01*
X45015Y130259D01*
X45069Y129884D01*
X45149Y129634D01*
X45309Y129384D01*
X45495Y129217D01*
X45682Y129134D01*
X45869D01*
X46055Y129217D01*
X46215Y129342D01*
X46349Y129509D01*
G01X47375Y131217D02*
X47535Y131467D01*
X47722Y131592D01*
X47935Y131634D01*
X48202Y131551D01*
X48389Y131342D01*
X48442Y131092D01*
X48415Y130842D01*
X48308Y130634D01*
X47775Y130217D01*
X47535Y129926D01*
X47375Y129509D01*
X47322Y129134D01*
X48442D01*
G01X50082D02*
X50269Y129176D01*
X50482Y129301D01*
X50615Y129509D01*
X50669Y129801D01*
X50615Y130092D01*
X50455Y130342D01*
X50215Y130467D01*
X49949D01*
X49789Y130551D01*
X49655Y130759D01*
X49602Y131050D01*
X49682Y131342D01*
X49868Y131551D01*
X50082Y131634D01*
X50295Y131551D01*
X50482Y131342D01*
X50562Y131050D01*
X50508Y130759D01*
X50375Y130551D01*
X50215Y130467D01*
X49949D01*
X49709Y130342D01*
X49549Y130092D01*
X49495Y129801D01*
X49549Y129509D01*
X49682Y129301D01*
X49895Y129176D01*
X50082Y129134D01*
G01X63850Y19497D02*
X63725Y19337D01*
X63642Y19150D01*
Y18937D01*
X63767Y18697D01*
X63975Y18510D01*
X64225Y18377D01*
X64642Y18270D01*
X65017Y18244D01*
X65392Y18297D01*
X65642Y18377D01*
X65892Y18537D01*
X66058Y18724D01*
X66142Y18910D01*
Y19097D01*
X66058Y19284D01*
X65933Y19444D01*
X65767Y19577D01*
G01X66142Y21110D02*
X63642D01*
X64142Y20790D01*
G01X66142D02*
Y21430D01*
G01Y23310D02*
X66100Y23497D01*
X65975Y23710D01*
X65767Y23844D01*
X65475Y23897D01*
X65183Y23844D01*
X64933Y23684D01*
X64808Y23444D01*
Y23177D01*
X64725Y23017D01*
X64517Y22884D01*
X64225Y22830D01*
X63933Y22910D01*
X63725Y23097D01*
X63642Y23310D01*
X63725Y23524D01*
X63933Y23710D01*
X64225Y23790D01*
X64517Y23737D01*
X64725Y23604D01*
X64808Y23444D01*
Y23177D01*
X64933Y22937D01*
X65183Y22777D01*
X65475Y22724D01*
X65767Y22777D01*
X65975Y22910D01*
X66100Y23124D01*
X66142Y23310D01*
G01X57694Y44626D02*
Y42834D01*
X57800Y42459D01*
X58014Y42209D01*
X58280Y42126D01*
X58547Y42209D01*
X58760Y42459D01*
X58867Y42834D01*
Y44626D01*
G01X60480Y42126D02*
Y44626D01*
X60160Y44126D01*
G01Y42126D02*
X60800D01*
G01X62410Y74732D02*
X62250Y74858D01*
X62064Y74941D01*
X61850D01*
X61610Y74816D01*
X61424Y74608D01*
X61290Y74358D01*
X61184Y73941D01*
X61157Y73566D01*
X61210Y73191D01*
X61290Y72941D01*
X61450Y72691D01*
X61637Y72524D01*
X61824Y72441D01*
X62010D01*
X62197Y72524D01*
X62357Y72649D01*
X62490Y72816D01*
G01X63517Y74524D02*
X63677Y74774D01*
X63864Y74899D01*
X64077Y74941D01*
X64344Y74858D01*
X64530Y74649D01*
X64584Y74399D01*
X64557Y74149D01*
X64450Y73941D01*
X63917Y73524D01*
X63677Y73233D01*
X63517Y72816D01*
X63464Y72441D01*
X64584D01*
G01X66544D02*
Y74941D01*
X65557Y73149D01*
X66890D01*
G01X69891Y74732D02*
X69730Y74858D01*
X69544Y74941D01*
X69331D01*
X69090Y74816D01*
X68904Y74608D01*
X68771Y74358D01*
X68664Y73941D01*
X68637Y73566D01*
X68691Y73191D01*
X68771Y72941D01*
X68931Y72691D01*
X69117Y72524D01*
X69304Y72441D01*
X69491D01*
X69677Y72524D01*
X69837Y72649D01*
X69971Y72816D01*
G01X71504Y72441D02*
Y74941D01*
X71184Y74441D01*
G01Y72441D02*
X71824D01*
G01X73197Y73482D02*
X73384Y73774D01*
X73544Y73941D01*
X73757Y74024D01*
X73944Y73941D01*
X74077Y73774D01*
X74184Y73524D01*
X74211Y73233D01*
X74184Y72982D01*
X74077Y72733D01*
X73917Y72524D01*
X73731Y72441D01*
X73517Y72524D01*
X73331Y72774D01*
X73224Y73149D01*
X73197Y73566D01*
X73250Y74108D01*
X73331Y74399D01*
X73464Y74691D01*
X73651Y74899D01*
X73837Y74941D01*
X74024Y74858D01*
X74157Y74649D01*
G01X66347Y98355D02*
X66187Y98480D01*
X66001Y98563D01*
X65787D01*
X65547Y98438D01*
X65361Y98230D01*
X65227Y97980D01*
X65121Y97563D01*
X65094Y97188D01*
X65147Y96813D01*
X65227Y96563D01*
X65387Y96313D01*
X65574Y96146D01*
X65761Y96063D01*
X65947D01*
X66134Y96146D01*
X66294Y96271D01*
X66427Y96438D01*
G01X68281Y96063D02*
Y98563D01*
X67294Y96771D01*
X68627D01*
G01X59716Y178059D02*
X59849Y177809D01*
X60009Y177642D01*
X60196Y177559D01*
X60409Y177642D01*
X60569Y177809D01*
X60729Y178059D01*
X60782Y178392D01*
Y180059D01*
G01X61862Y177934D02*
X62022Y177726D01*
X62209Y177601D01*
X62449Y177559D01*
X62689Y177642D01*
X62875Y177809D01*
X63009Y178101D01*
X63036Y178434D01*
X62982Y178767D01*
X62849Y178976D01*
X62662Y179142D01*
X62476Y179184D01*
X62289Y179142D01*
X62049Y178976D01*
X62129Y180059D01*
X62849D01*
G01X79204Y23828D02*
X79079Y23668D01*
X78996Y23481D01*
Y23268D01*
X79121Y23028D01*
X79329Y22841D01*
X79580Y22708D01*
X79996Y22601D01*
X80371Y22574D01*
X80746Y22628D01*
X80996Y22708D01*
X81246Y22868D01*
X81413Y23054D01*
X81496Y23241D01*
Y23428D01*
X81413Y23614D01*
X81288Y23774D01*
X81121Y23908D01*
G01X81496Y25441D02*
X78996D01*
X79496Y25121D01*
G01X81496D02*
Y25761D01*
G01Y27588D02*
X80954Y27641D01*
X80496Y27721D01*
X80079Y27828D01*
X79621Y27961D01*
X78996Y28174D01*
Y27108D01*
G01X72905Y23828D02*
X72780Y23668D01*
X72697Y23481D01*
Y23268D01*
X72822Y23028D01*
X73030Y22841D01*
X73280Y22708D01*
X73697Y22601D01*
X74072Y22574D01*
X74447Y22628D01*
X74697Y22708D01*
X74947Y22868D01*
X75114Y23054D01*
X75197Y23241D01*
Y23428D01*
X75114Y23614D01*
X74989Y23774D01*
X74822Y23908D01*
G01X75197Y25441D02*
X72697D01*
X73197Y25121D01*
G01X75197D02*
Y25761D01*
G01X74905Y27188D02*
X75114Y27374D01*
X75197Y27588D01*
X75114Y27801D01*
X74864Y27988D01*
X74489Y28121D01*
X74114Y28174D01*
X73655D01*
X73280Y28121D01*
X72947Y27988D01*
X72780Y27828D01*
X72697Y27641D01*
X72780Y27428D01*
X72947Y27268D01*
X73197Y27161D01*
X73530Y27108D01*
X73822Y27161D01*
X74114Y27294D01*
X74280Y27454D01*
X74322Y27641D01*
X74239Y27854D01*
X74030Y28014D01*
X73655Y28174D01*
G01X79007Y90689D02*
Y88189D01*
X80074D01*
G01X81234Y90272D02*
X81394Y90522D01*
X81580Y90647D01*
X81794Y90689D01*
X82060Y90606D01*
X82247Y90397D01*
X82300Y90147D01*
X82274Y89897D01*
X82167Y89689D01*
X81634Y89272D01*
X81394Y88981D01*
X81234Y88564D01*
X81180Y88189D01*
X82300D01*
G01X78613Y79272D02*
Y76772D01*
X79680D01*
G01X81346D02*
Y79272D01*
X81026Y78772D01*
G01Y76772D02*
X81666D01*
G01X82157Y114311D02*
Y111811D01*
X83223D01*
G01X85210D02*
Y114311D01*
X84223Y112519D01*
X85556D01*
G01X83338Y146201D02*
Y143701D01*
X84404D01*
G01X86071D02*
Y146201D01*
X85751Y145701D01*
G01Y143701D02*
X86391D01*
G01X87684Y144201D02*
X87844Y143909D01*
X88058Y143742D01*
X88298Y143701D01*
X88511Y143742D01*
X88724Y143951D01*
X88858Y144201D01*
X88884Y144451D01*
X88831Y144742D01*
X88644Y144951D01*
X88458Y145034D01*
X88218D01*
G01X88458D02*
X88618Y145159D01*
X88751Y145367D01*
X88804Y145617D01*
X88751Y145868D01*
X88618Y146076D01*
X88378Y146201D01*
X88138Y146159D01*
X87898Y145992D01*
G01X99418Y45599D02*
X99258Y45724D01*
X99072Y45807D01*
X98858D01*
X98618Y45682D01*
X98432Y45474D01*
X98298Y45224D01*
X98192Y44807D01*
X98165Y44432D01*
X98218Y44057D01*
X98298Y43807D01*
X98458Y43557D01*
X98645Y43390D01*
X98832Y43307D01*
X99018D01*
X99205Y43390D01*
X99365Y43515D01*
X99498Y43682D01*
G01X100525Y45390D02*
X100685Y45640D01*
X100872Y45765D01*
X101085Y45807D01*
X101352Y45724D01*
X101538Y45515D01*
X101591Y45266D01*
X101565Y45015D01*
X101458Y44807D01*
X100925Y44390D01*
X100685Y44099D01*
X100525Y43682D01*
X100472Y43307D01*
X101591D01*
G01X103232Y45807D02*
X103018Y45724D01*
X102858Y45515D01*
X102752Y45266D01*
X102672Y44932D01*
X102645Y44557D01*
X102672Y44182D01*
X102752Y43849D01*
X102858Y43599D01*
X103018Y43390D01*
X103232Y43307D01*
X103445Y43390D01*
X103605Y43599D01*
X103712Y43849D01*
X103791Y44182D01*
X103818Y44557D01*
X103791Y44932D01*
X103712Y45266D01*
X103605Y45515D01*
X103445Y45724D01*
X103232Y45807D01*
G01X99418Y55835D02*
X99258Y55960D01*
X99072Y56043D01*
X98858D01*
X98618Y55918D01*
X98432Y55710D01*
X98298Y55460D01*
X98192Y55043D01*
X98165Y54668D01*
X98218Y54293D01*
X98298Y54043D01*
X98458Y53793D01*
X98645Y53627D01*
X98832Y53543D01*
X99018D01*
X99205Y53627D01*
X99365Y53752D01*
X99498Y53918D01*
G01X100525Y55627D02*
X100685Y55877D01*
X100872Y56002D01*
X101085Y56043D01*
X101352Y55960D01*
X101538Y55752D01*
X101591Y55502D01*
X101565Y55252D01*
X101458Y55043D01*
X100925Y54627D01*
X100685Y54335D01*
X100525Y53918D01*
X100472Y53543D01*
X101591D01*
G01X103232D02*
Y56043D01*
X102912Y55543D01*
G01Y53543D02*
X103552D01*
G01X98298Y58661D02*
Y61161D01*
X98965D01*
X99178Y61036D01*
X99312Y60870D01*
X99365Y60536D01*
X99312Y60203D01*
X99152Y59995D01*
X98965Y59870D01*
X98298D01*
G01X98965D02*
X99365Y58661D01*
G01X101032D02*
Y61161D01*
X100712Y60661D01*
G01Y58661D02*
X101352D01*
G01X87275Y76909D02*
Y74409D01*
X88341D01*
G01X89554Y74701D02*
X89741Y74493D01*
X89955Y74409D01*
X90168Y74493D01*
X90355Y74743D01*
X90488Y75118D01*
X90541Y75493D01*
Y75951D01*
X90488Y76326D01*
X90355Y76659D01*
X90195Y76826D01*
X90008Y76909D01*
X89795Y76826D01*
X89635Y76659D01*
X89528Y76409D01*
X89475Y76076D01*
X89528Y75784D01*
X89661Y75493D01*
X89821Y75326D01*
X90008Y75284D01*
X90221Y75368D01*
X90381Y75576D01*
X90541Y75951D01*
G01X99873Y90295D02*
Y87795D01*
X100940D01*
G01X102606D02*
X102793Y87837D01*
X103006Y87962D01*
X103140Y88170D01*
X103193Y88462D01*
X103140Y88754D01*
X102980Y89004D01*
X102740Y89129D01*
X102473D01*
X102313Y89212D01*
X102180Y89420D01*
X102126Y89712D01*
X102206Y90004D01*
X102393Y90212D01*
X102606Y90295D01*
X102820Y90212D01*
X103006Y90004D01*
X103086Y89712D01*
X103033Y89420D01*
X102900Y89212D01*
X102740Y89129D01*
X102473D01*
X102233Y89004D01*
X102073Y88754D01*
X102020Y88462D01*
X102073Y88170D01*
X102206Y87962D01*
X102420Y87837D01*
X102606Y87795D01*
G01X87607Y90481D02*
X87447Y90606D01*
X87261Y90689D01*
X87047D01*
X86807Y90564D01*
X86621Y90356D01*
X86487Y90106D01*
X86380Y89689D01*
X86354Y89314D01*
X86407Y88939D01*
X86487Y88689D01*
X86647Y88439D01*
X86834Y88272D01*
X87020Y88189D01*
X87207D01*
X87394Y88272D01*
X87554Y88397D01*
X87687Y88564D01*
G01X88634Y88689D02*
X88794Y88397D01*
X89007Y88231D01*
X89247Y88189D01*
X89460Y88231D01*
X89674Y88439D01*
X89807Y88689D01*
X89834Y88939D01*
X89780Y89231D01*
X89594Y89439D01*
X89407Y89522D01*
X89167D01*
G01X89407D02*
X89567Y89647D01*
X89700Y89856D01*
X89754Y90106D01*
X89700Y90356D01*
X89567Y90564D01*
X89327Y90689D01*
X89087Y90647D01*
X88847Y90481D01*
G01X99479Y98957D02*
Y96457D01*
X100546D01*
G01X101626Y96957D02*
X101786Y96665D01*
X101999Y96498D01*
X102239Y96457D01*
X102453Y96498D01*
X102666Y96707D01*
X102799Y96957D01*
X102826Y97207D01*
X102773Y97498D01*
X102586Y97707D01*
X102399Y97790D01*
X102159D01*
G01X102399D02*
X102559Y97915D01*
X102693Y98123D01*
X102746Y98373D01*
X102693Y98623D01*
X102559Y98832D01*
X102319Y98957D01*
X102079Y98915D01*
X101839Y98748D01*
G01X95481Y114103D02*
X95321Y114228D01*
X95134Y114311D01*
X94921D01*
X94681Y114186D01*
X94494Y113978D01*
X94361Y113728D01*
X94254Y113311D01*
X94228Y112936D01*
X94281Y112561D01*
X94361Y112311D01*
X94521Y112061D01*
X94708Y111894D01*
X94894Y111811D01*
X95081D01*
X95268Y111894D01*
X95428Y112019D01*
X95561Y112186D01*
G01X96508D02*
X96668Y111978D01*
X96854Y111853D01*
X97094Y111811D01*
X97334Y111894D01*
X97521Y112061D01*
X97654Y112353D01*
X97681Y112686D01*
X97628Y113019D01*
X97494Y113228D01*
X97308Y113394D01*
X97121Y113436D01*
X96934Y113394D01*
X96694Y113228D01*
X96775Y114311D01*
X97494D01*
G01X90030Y165854D02*
X90164Y165604D01*
X90324Y165438D01*
X90510Y165354D01*
X90724Y165438D01*
X90884Y165604D01*
X91044Y165854D01*
X91097Y166188D01*
Y167854D01*
G01X93084Y165354D02*
Y167854D01*
X92097Y166063D01*
X93430D01*
G01X106111Y70402D02*
X105951Y70527D01*
X105764Y70610D01*
X105551D01*
X105311Y70485D01*
X105124Y70277D01*
X104991Y70027D01*
X104884Y69610D01*
X104858Y69235D01*
X104911Y68860D01*
X104991Y68610D01*
X105151Y68360D01*
X105338Y68193D01*
X105524Y68110D01*
X105711D01*
X105898Y68193D01*
X106058Y68318D01*
X106191Y68485D01*
G01X107217Y70193D02*
X107378Y70443D01*
X107564Y70568D01*
X107778Y70610D01*
X108044Y70527D01*
X108231Y70318D01*
X108284Y70068D01*
X108258Y69818D01*
X108151Y69610D01*
X107617Y69193D01*
X107378Y68902D01*
X107217Y68485D01*
X107164Y68110D01*
X108284D01*
G01X109417Y70193D02*
X109578Y70443D01*
X109764Y70568D01*
X109978Y70610D01*
X110244Y70527D01*
X110431Y70318D01*
X110484Y70068D01*
X110458Y69818D01*
X110351Y69610D01*
X109817Y69193D01*
X109578Y68902D01*
X109417Y68485D01*
X109364Y68110D01*
X110484D01*
G01X105779Y82284D02*
Y84784D01*
X106445D01*
X106659Y84658D01*
X106792Y84492D01*
X106845Y84158D01*
X106792Y83825D01*
X106632Y83617D01*
X106445Y83492D01*
X105779D01*
G01X106445D02*
X106845Y82284D01*
G01X107925Y82784D02*
X108085Y82492D01*
X108298Y82325D01*
X108538Y82284D01*
X108752Y82325D01*
X108965Y82533D01*
X109098Y82784D01*
X109125Y83034D01*
X109072Y83325D01*
X108885Y83534D01*
X108698Y83617D01*
X108459D01*
G01X108698D02*
X108859Y83742D01*
X108992Y83950D01*
X109045Y84200D01*
X108992Y84450D01*
X108859Y84658D01*
X108618Y84784D01*
X108378Y84742D01*
X108138Y84575D01*
G01X106898Y94024D02*
X106738Y94149D01*
X106552Y94232D01*
X106338D01*
X106098Y94107D01*
X105912Y93899D01*
X105779Y93649D01*
X105672Y93232D01*
X105645Y92857D01*
X105698Y92482D01*
X105779Y92232D01*
X105938Y91982D01*
X106125Y91816D01*
X106312Y91732D01*
X106498D01*
X106685Y91816D01*
X106845Y91941D01*
X106979Y92107D01*
G01X108512Y91732D02*
X108698Y91774D01*
X108912Y91899D01*
X109045Y92107D01*
X109098Y92399D01*
X109045Y92691D01*
X108885Y92941D01*
X108645Y93066D01*
X108378D01*
X108218Y93149D01*
X108085Y93357D01*
X108032Y93649D01*
X108112Y93941D01*
X108298Y94149D01*
X108512Y94232D01*
X108725Y94149D01*
X108912Y93941D01*
X108992Y93649D01*
X108938Y93357D01*
X108805Y93149D01*
X108645Y93066D01*
X108378D01*
X108138Y92941D01*
X107978Y92691D01*
X107925Y92399D01*
X107978Y92107D01*
X108112Y91899D01*
X108325Y91774D01*
X108512Y91732D01*
G01X102375Y167854D02*
Y165354D01*
G01X101762Y167854D02*
X102988D01*
G01X104042Y165354D02*
Y167854D01*
X104708D01*
X104922Y167729D01*
X105055Y167563D01*
X105108Y167229D01*
X105055Y166896D01*
X104895Y166688D01*
X104708Y166563D01*
X104042D01*
G01X104708D02*
X105108Y165354D01*
G01X106215D02*
X107335Y167854D01*
G01X106215D02*
X107335Y165354D01*
G01X110409Y166604D02*
X110942D01*
Y165854D01*
X110782Y165604D01*
X110596Y165438D01*
X110329Y165354D01*
X110062Y165438D01*
X109876Y165604D01*
X109716Y165854D01*
X109609Y166146D01*
X109555Y166479D01*
Y166771D01*
X109609Y167021D01*
X109716Y167313D01*
X109876Y167563D01*
X110035Y167729D01*
X110249Y167854D01*
X110436D01*
X110649Y167771D01*
X110809Y167604D01*
G01X111915Y165354D02*
Y167854D01*
X112556D01*
X112769Y167729D01*
X112929Y167438D01*
X112982Y167104D01*
X112929Y166771D01*
X112796Y166521D01*
X112556Y166396D01*
X111915D01*
G01X114329Y167854D02*
X114969D01*
G01X114649D02*
Y165354D01*
G01X114329D02*
X114969D01*
G01X116849D02*
X116635Y165396D01*
X116449Y165563D01*
X116289Y165813D01*
X116182Y166104D01*
X116129Y166438D01*
Y166771D01*
X116182Y167104D01*
X116289Y167396D01*
X116449Y167646D01*
X116635Y167813D01*
X116849Y167854D01*
X117062Y167813D01*
X117249Y167646D01*
X117409Y167396D01*
X117516Y167104D01*
X117569Y166771D01*
Y166438D01*
X117516Y166104D01*
X117409Y165813D01*
X117249Y165563D01*
X117062Y165396D01*
X116849Y165354D01*
G01X118462Y165854D02*
X118622Y165563D01*
X118835Y165396D01*
X119076Y165354D01*
X119289Y165396D01*
X119502Y165604D01*
X119636Y165854D01*
X119662Y166104D01*
X119609Y166396D01*
X119422Y166604D01*
X119236Y166688D01*
X118995D01*
G01X119236D02*
X119395Y166813D01*
X119529Y167021D01*
X119582Y167271D01*
X119529Y167521D01*
X119395Y167729D01*
X119156Y167854D01*
X118916Y167813D01*
X118676Y167646D01*
G01X120739Y61161D02*
Y58661D01*
X121806D01*
G01X123472D02*
Y61161D01*
X123152Y60661D01*
G01Y58661D02*
X123792D01*
G01X125672Y61161D02*
X125459Y61078D01*
X125299Y60870D01*
X125192Y60620D01*
X125112Y60286D01*
X125086Y59911D01*
X125112Y59536D01*
X125192Y59203D01*
X125299Y58953D01*
X125459Y58745D01*
X125672Y58661D01*
X125886Y58745D01*
X126046Y58953D01*
X126152Y59203D01*
X126232Y59536D01*
X126259Y59911D01*
X126232Y60286D01*
X126152Y60620D01*
X126046Y60870D01*
X125886Y61078D01*
X125672Y61161D01*
G01X129733Y72370D02*
X129573Y72495D01*
X129386Y72579D01*
X129173D01*
X128933Y72454D01*
X128746Y72245D01*
X128613Y71995D01*
X128507Y71579D01*
X128480Y71204D01*
X128533Y70829D01*
X128613Y70579D01*
X128773Y70329D01*
X128960Y70162D01*
X129146Y70079D01*
X129333D01*
X129520Y70162D01*
X129680Y70287D01*
X129813Y70454D01*
G01X131346Y70079D02*
Y72579D01*
X131027Y72079D01*
G01Y70079D02*
X131666D01*
G01X133040Y72162D02*
X133200Y72412D01*
X133386Y72537D01*
X133600Y72579D01*
X133866Y72495D01*
X134053Y72287D01*
X134107Y72037D01*
X134080Y71787D01*
X133973Y71579D01*
X133440Y71162D01*
X133200Y70870D01*
X133040Y70454D01*
X132986Y70079D01*
X134107D01*
G01X124221Y76701D02*
X124061Y76826D01*
X123875Y76909D01*
X123661D01*
X123421Y76784D01*
X123235Y76576D01*
X123101Y76326D01*
X122995Y75909D01*
X122968Y75534D01*
X123021Y75159D01*
X123101Y74909D01*
X123261Y74659D01*
X123448Y74493D01*
X123635Y74409D01*
X123821D01*
X124008Y74493D01*
X124168Y74618D01*
X124301Y74784D01*
G01X125835Y74409D02*
Y76909D01*
X125515Y76409D01*
G01Y74409D02*
X126155D01*
G01X128035D02*
Y76909D01*
X127715Y76409D01*
G01Y74409D02*
X128355D01*
G01X119952Y126516D02*
Y124016D01*
X121018D01*
G01X122098Y124391D02*
X122258Y124182D01*
X122445Y124057D01*
X122685Y124016D01*
X122925Y124099D01*
X123112Y124266D01*
X123245Y124557D01*
X123272Y124891D01*
X123218Y125224D01*
X123085Y125432D01*
X122898Y125599D01*
X122712Y125641D01*
X122525Y125599D01*
X122285Y125432D01*
X122365Y126516D01*
X123085D01*
G01X130521Y126307D02*
X130361Y126432D01*
X130174Y126516D01*
X129961D01*
X129720Y126391D01*
X129534Y126182D01*
X129401Y125932D01*
X129294Y125516D01*
X129267Y125141D01*
X129321Y124766D01*
X129401Y124516D01*
X129561Y124266D01*
X129747Y124099D01*
X129934Y124016D01*
X130121D01*
X130307Y124099D01*
X130467Y124224D01*
X130601Y124391D01*
G01X131627Y125057D02*
X131814Y125349D01*
X131974Y125516D01*
X132187Y125599D01*
X132374Y125516D01*
X132507Y125349D01*
X132614Y125099D01*
X132641Y124807D01*
X132614Y124557D01*
X132507Y124307D01*
X132347Y124099D01*
X132161Y124016D01*
X131947Y124099D01*
X131761Y124349D01*
X131654Y124724D01*
X131627Y125141D01*
X131680Y125682D01*
X131761Y125974D01*
X131894Y126266D01*
X132081Y126474D01*
X132267Y126516D01*
X132454Y126432D01*
X132587Y126224D01*
G01X120251Y163061D02*
X120785D01*
Y162311D01*
X120625Y162061D01*
X120438Y161894D01*
X120171Y161811D01*
X119905Y161894D01*
X119718Y162061D01*
X119558Y162311D01*
X119451Y162603D01*
X119398Y162936D01*
Y163228D01*
X119451Y163478D01*
X119558Y163769D01*
X119718Y164019D01*
X119878Y164186D01*
X120091Y164311D01*
X120278D01*
X120491Y164228D01*
X120651Y164061D01*
G01X121758Y161811D02*
Y164311D01*
X122398D01*
X122611Y164186D01*
X122771Y163894D01*
X122825Y163561D01*
X122771Y163228D01*
X122638Y162978D01*
X122398Y162853D01*
X121758D01*
G01X124171Y164311D02*
X124811D01*
G01X124491D02*
Y161811D01*
G01X124171D02*
X124811D01*
G01X126691D02*
X126478Y161853D01*
X126291Y162019D01*
X126131Y162269D01*
X126025Y162561D01*
X125971Y162894D01*
Y163228D01*
X126025Y163561D01*
X126131Y163853D01*
X126291Y164103D01*
X126478Y164269D01*
X126691Y164311D01*
X126905Y164269D01*
X127091Y164103D01*
X127251Y163853D01*
X127358Y163561D01*
X127411Y163228D01*
Y162894D01*
X127358Y162561D01*
X127251Y162269D01*
X127091Y162019D01*
X126905Y161853D01*
X126691Y161811D01*
G01X128385Y163894D02*
X128545Y164144D01*
X128731Y164269D01*
X128945Y164311D01*
X129211Y164228D01*
X129398Y164019D01*
X129451Y163769D01*
X129425Y163519D01*
X129318Y163311D01*
X128785Y162894D01*
X128545Y162603D01*
X128385Y162186D01*
X128331Y161811D01*
X129451D01*
G01X130488Y166998D02*
X131021D01*
Y166248D01*
X130861Y165998D01*
X130674Y165831D01*
X130408Y165748D01*
X130141Y165831D01*
X129954Y165998D01*
X129794Y166248D01*
X129688Y166540D01*
X129634Y166873D01*
Y167165D01*
X129688Y167415D01*
X129794Y167706D01*
X129954Y167956D01*
X130114Y168123D01*
X130328Y168248D01*
X130514D01*
X130728Y168165D01*
X130888Y167998D01*
G01X131994Y165748D02*
Y168248D01*
X132634D01*
X132848Y168123D01*
X133008Y167831D01*
X133061Y167498D01*
X133008Y167165D01*
X132874Y166915D01*
X132634Y166790D01*
X131994D01*
G01X134408Y168248D02*
X135048D01*
G01X134728D02*
Y165748D01*
G01X134408D02*
X135048D01*
G01X136928D02*
X136714Y165790D01*
X136528Y165956D01*
X136368Y166206D01*
X136261Y166498D01*
X136208Y166831D01*
Y167165D01*
X136261Y167498D01*
X136368Y167790D01*
X136528Y168040D01*
X136714Y168206D01*
X136928Y168248D01*
X137141Y168206D01*
X137328Y168040D01*
X137488Y167790D01*
X137594Y167498D01*
X137648Y167165D01*
Y166831D01*
X137594Y166498D01*
X137488Y166206D01*
X137328Y165956D01*
X137141Y165790D01*
X136928Y165748D01*
G01X139128Y168248D02*
X138914Y168165D01*
X138754Y167956D01*
X138648Y167706D01*
X138568Y167373D01*
X138541Y166998D01*
X138568Y166623D01*
X138648Y166290D01*
X138754Y166040D01*
X138914Y165831D01*
X139128Y165748D01*
X139341Y165831D01*
X139501Y166040D01*
X139608Y166290D01*
X139688Y166623D01*
X139714Y166998D01*
X139688Y167373D01*
X139608Y167706D01*
X139501Y167956D01*
X139341Y168165D01*
X139128Y168248D01*
G01X140818Y61161D02*
Y58661D01*
X141884D01*
G01X143551D02*
Y61161D01*
X143231Y60661D01*
G01Y58661D02*
X143871D01*
G01X145751D02*
Y61161D01*
X145431Y60661D01*
G01Y58661D02*
X146071D01*
G01X141544Y84575D02*
X141384Y84700D01*
X141198Y84784D01*
X140984D01*
X140744Y84658D01*
X140558Y84450D01*
X140424Y84200D01*
X140318Y83784D01*
X140291Y83409D01*
X140344Y83034D01*
X140424Y82784D01*
X140584Y82533D01*
X140771Y82367D01*
X140958Y82284D01*
X141144D01*
X141331Y82367D01*
X141491Y82492D01*
X141624Y82658D01*
G01X142704Y82575D02*
X142891Y82367D01*
X143104Y82284D01*
X143318Y82367D01*
X143504Y82617D01*
X143638Y82992D01*
X143691Y83367D01*
Y83825D01*
X143638Y84200D01*
X143504Y84534D01*
X143344Y84700D01*
X143158Y84784D01*
X142944Y84700D01*
X142784Y84534D01*
X142678Y84284D01*
X142624Y83950D01*
X142678Y83658D01*
X142811Y83367D01*
X142971Y83200D01*
X143158Y83158D01*
X143371Y83242D01*
X143531Y83450D01*
X143691Y83825D01*
G01X141544Y91662D02*
X141384Y91787D01*
X141198Y91870D01*
X140984D01*
X140744Y91745D01*
X140558Y91537D01*
X140424Y91287D01*
X140318Y90870D01*
X140291Y90495D01*
X140344Y90120D01*
X140424Y89870D01*
X140584Y89620D01*
X140771Y89453D01*
X140958Y89370D01*
X141144D01*
X141331Y89453D01*
X141491Y89578D01*
X141624Y89745D01*
G01X143158Y89370D02*
Y91870D01*
X142838Y91370D01*
G01Y89370D02*
X143478D01*
G01X145358Y91870D02*
X145144Y91787D01*
X144984Y91578D01*
X144878Y91328D01*
X144798Y90995D01*
X144771Y90620D01*
X144798Y90245D01*
X144878Y89912D01*
X144984Y89662D01*
X145144Y89453D01*
X145358Y89370D01*
X145571Y89453D01*
X145731Y89662D01*
X145838Y89912D01*
X145918Y90245D01*
X145944Y90620D01*
X145918Y90995D01*
X145838Y91328D01*
X145731Y91578D01*
X145571Y91787D01*
X145358Y91870D01*
G01X139637Y126516D02*
Y124016D01*
X140703D01*
G01X141863Y125057D02*
X142050Y125349D01*
X142210Y125516D01*
X142423Y125599D01*
X142610Y125516D01*
X142743Y125349D01*
X142850Y125099D01*
X142877Y124807D01*
X142850Y124557D01*
X142743Y124307D01*
X142583Y124099D01*
X142397Y124016D01*
X142183Y124099D01*
X141997Y124349D01*
X141890Y124724D01*
X141863Y125141D01*
X141917Y125682D01*
X141997Y125974D01*
X142130Y126266D01*
X142317Y126474D01*
X142503Y126516D01*
X142690Y126432D01*
X142824Y126224D01*
G01X140658Y165748D02*
Y168248D01*
X141351Y166165D01*
X142045Y168248D01*
Y165748D01*
G01X143231Y168248D02*
X143871D01*
G01X143551D02*
Y165748D01*
G01X143231D02*
X143871D01*
G01X145191Y166081D02*
X145404Y165873D01*
X145644Y165748D01*
X145858D01*
X146071Y165873D01*
X146231Y166081D01*
X146311Y166373D01*
X146258Y166665D01*
X146124Y166915D01*
X145884Y167081D01*
X145564Y167165D01*
X145378Y167331D01*
X145298Y167623D01*
X145351Y167915D01*
X145485Y168123D01*
X145671Y168248D01*
X145858D01*
X146044Y168165D01*
X146205Y167956D01*
G01X147951Y165748D02*
X147738Y165790D01*
X147551Y165956D01*
X147391Y166206D01*
X147284Y166498D01*
X147231Y166831D01*
Y167165D01*
X147284Y167498D01*
X147391Y167790D01*
X147551Y168040D01*
X147738Y168206D01*
X147951Y168248D01*
X148164Y168206D01*
X148351Y168040D01*
X148511Y167790D01*
X148618Y167498D01*
X148671Y167165D01*
Y166831D01*
X148618Y166498D01*
X148511Y166206D01*
X148351Y165956D01*
X148164Y165790D01*
X147951Y165748D01*
G01X149024Y72370D02*
X148864Y72495D01*
X148678Y72579D01*
X148464D01*
X148224Y72454D01*
X148038Y72245D01*
X147905Y71995D01*
X147798Y71579D01*
X147771Y71204D01*
X147824Y70829D01*
X147905Y70579D01*
X148064Y70329D01*
X148251Y70162D01*
X148438Y70079D01*
X148624D01*
X148811Y70162D01*
X148971Y70287D01*
X149105Y70454D01*
G01X150638Y70079D02*
Y72579D01*
X150318Y72079D01*
G01Y70079D02*
X150958D01*
G01X152251Y70579D02*
X152411Y70287D01*
X152624Y70120D01*
X152864Y70079D01*
X153078Y70120D01*
X153291Y70329D01*
X153424Y70579D01*
X153451Y70829D01*
X153398Y71120D01*
X153211Y71329D01*
X153024Y71412D01*
X152784D01*
G01X153024D02*
X153184Y71537D01*
X153318Y71745D01*
X153371Y71995D01*
X153318Y72245D01*
X153184Y72454D01*
X152944Y72579D01*
X152705Y72537D01*
X152464Y72370D01*
G01X159322Y126516D02*
Y124016D01*
X160388D01*
G01X162002D02*
X162055Y124557D01*
X162135Y125016D01*
X162242Y125432D01*
X162375Y125891D01*
X162588Y126516D01*
X161522D01*
G01X150206Y126307D02*
X150046Y126432D01*
X149859Y126516D01*
X149646D01*
X149406Y126391D01*
X149219Y126182D01*
X149086Y125932D01*
X148979Y125516D01*
X148952Y125141D01*
X149006Y124766D01*
X149086Y124516D01*
X149246Y124266D01*
X149432Y124099D01*
X149619Y124016D01*
X149806D01*
X149992Y124099D01*
X150152Y124224D01*
X150286Y124391D01*
G01X151766Y124016D02*
X151819Y124557D01*
X151899Y125016D01*
X152006Y125432D01*
X152139Y125891D01*
X152352Y126516D01*
X151286D01*
G01X150500Y165748D02*
Y168248D01*
X151194Y166165D01*
X151887Y168248D01*
Y165748D01*
G01X153394D02*
X153180Y165790D01*
X152994Y165956D01*
X152834Y166206D01*
X152727Y166498D01*
X152674Y166831D01*
Y167165D01*
X152727Y167498D01*
X152834Y167790D01*
X152994Y168040D01*
X153180Y168206D01*
X153394Y168248D01*
X153607Y168206D01*
X153794Y168040D01*
X153954Y167790D01*
X154060Y167498D01*
X154114Y167165D01*
Y166831D01*
X154060Y166498D01*
X153954Y166206D01*
X153794Y165956D01*
X153607Y165790D01*
X153394Y165748D01*
G01X155034Y166081D02*
X155247Y165873D01*
X155487Y165748D01*
X155700D01*
X155914Y165873D01*
X156074Y166081D01*
X156154Y166373D01*
X156100Y166665D01*
X155967Y166915D01*
X155727Y167081D01*
X155407Y167165D01*
X155220Y167331D01*
X155140Y167623D01*
X155194Y167915D01*
X155327Y168123D01*
X155514Y168248D01*
X155700D01*
X155887Y168165D01*
X156047Y167956D01*
G01X157474Y168248D02*
X158114D01*
G01X157794D02*
Y165748D01*
G01X157474D02*
X158114D01*
G01X160897Y61161D02*
Y58661D01*
X161963D01*
G01X163630D02*
Y61161D01*
X163310Y60661D01*
G01Y58661D02*
X163950D01*
G01X165323Y60745D02*
X165483Y60995D01*
X165670Y61120D01*
X165883Y61161D01*
X166150Y61078D01*
X166337Y60870D01*
X166390Y60620D01*
X166363Y60370D01*
X166256Y60161D01*
X165723Y59745D01*
X165483Y59453D01*
X165323Y59036D01*
X165270Y58661D01*
X166390D01*
G01X160870Y166081D02*
X161083Y165873D01*
X161323Y165748D01*
X161537D01*
X161750Y165873D01*
X161910Y166081D01*
X161990Y166373D01*
X161937Y166665D01*
X161803Y166915D01*
X161563Y167081D01*
X161243Y167165D01*
X161057Y167331D01*
X160976Y167623D01*
X161030Y167915D01*
X161163Y168123D01*
X161350Y168248D01*
X161537D01*
X161723Y168165D01*
X161883Y167956D01*
G01X164217Y168040D02*
X164056Y168165D01*
X163870Y168248D01*
X163657D01*
X163416Y168123D01*
X163230Y167915D01*
X163097Y167665D01*
X162990Y167248D01*
X162963Y166873D01*
X163017Y166498D01*
X163097Y166248D01*
X163257Y165998D01*
X163443Y165831D01*
X163630Y165748D01*
X163817D01*
X164003Y165831D01*
X164163Y165956D01*
X164297Y166123D01*
G01X165297Y168248D02*
Y165748D01*
X166363D01*
G01X167443D02*
Y168248D01*
G01X168456D02*
X167443Y166706D01*
G01X168617Y165748D02*
X167897Y167415D01*
G01X173040Y168040D02*
X172880Y168165D01*
X172694Y168248D01*
X172480D01*
X172240Y168123D01*
X172054Y167915D01*
X171920Y167665D01*
X171814Y167248D01*
X171787Y166873D01*
X171840Y166498D01*
X171920Y166248D01*
X172080Y165998D01*
X172267Y165831D01*
X172454Y165748D01*
X172640D01*
X172827Y165831D01*
X172987Y165956D01*
X173120Y166123D01*
G01X174094Y166081D02*
X174307Y165873D01*
X174547Y165748D01*
X174760D01*
X174974Y165873D01*
X175134Y166081D01*
X175214Y166373D01*
X175160Y166665D01*
X175027Y166915D01*
X174787Y167081D01*
X174467Y167165D01*
X174280Y167331D01*
X174200Y167623D01*
X174254Y167915D01*
X174387Y168123D01*
X174574Y168248D01*
X174760D01*
X174947Y168165D01*
X175107Y167956D01*
G01X176240Y165748D02*
Y168248D01*
X177467Y165748D01*
Y168248D01*
G01X186881Y48138D02*
X187014Y47888D01*
X187174Y47721D01*
X187361Y47638D01*
X187574Y47721D01*
X187734Y47888D01*
X187894Y48138D01*
X187948Y48471D01*
Y50138D01*
G01X189108Y49721D02*
X189268Y49971D01*
X189454Y50096D01*
X189668Y50138D01*
X189934Y50054D01*
X190121Y49846D01*
X190174Y49596D01*
X190148Y49346D01*
X190041Y49138D01*
X189508Y48721D01*
X189268Y48430D01*
X189108Y48013D01*
X189054Y47638D01*
X190174D01*
G01X187275Y113492D02*
X187408Y113242D01*
X187568Y113075D01*
X187755Y112992D01*
X187968Y113075D01*
X188128Y113242D01*
X188288Y113492D01*
X188341Y113825D01*
Y115492D01*
G01X190008Y112992D02*
Y115492D01*
X189688Y114992D01*
G01Y112992D02*
X190328D01*
G01X179794Y165748D02*
Y168248D01*
X180461D01*
X180674Y168123D01*
X180808Y167956D01*
X180861Y167623D01*
X180808Y167290D01*
X180648Y167081D01*
X180461Y166956D01*
X179794D01*
G01X180461D02*
X180861Y165748D01*
G01X183061D02*
X181994D01*
Y168248D01*
X183061D01*
G01X182634Y167040D02*
X181994D01*
G01X184168Y166081D02*
X184381Y165873D01*
X184621Y165748D01*
X184834D01*
X185048Y165873D01*
X185208Y166081D01*
X185288Y166373D01*
X185234Y166665D01*
X185101Y166915D01*
X184861Y167081D01*
X184541Y167165D01*
X184354Y167331D01*
X184274Y167623D01*
X184328Y167915D01*
X184461Y168123D01*
X184648Y168248D01*
X184834D01*
X185021Y168165D01*
X185181Y167956D01*
G01X187461Y165748D02*
X186394D01*
Y168248D01*
X187461D01*
G01X187034Y167040D02*
X186394D01*
G01X189128Y168248D02*
Y165748D01*
G01X188514Y168248D02*
X189741D01*
G54D11*
G01X34446Y33808D02*
X22946D01*
G01D02*
Y40258D01*
G01D02*
X34446D01*
G01X39963Y33758D02*
Y40208D01*
G01D02*
X51463D01*
G01Y33758D02*
X39963D01*
G01X34446Y40258D02*
Y33808D01*
G01X39963Y41238D02*
Y47688D01*
G01X51463Y41238D02*
X39963D01*
G01Y56199D02*
Y62649D01*
G01X51463Y56199D02*
X39963D01*
G01Y48718D02*
Y55168D01*
G01D02*
X51463D01*
G01Y48718D02*
X39963D01*
G01Y47688D02*
X51463D01*
G01X39963Y62649D02*
X51463D01*
G01X39963Y71159D02*
Y77609D01*
G01X51463Y71159D02*
X39963D01*
G01Y63679D02*
Y70129D01*
G01D02*
X51463D01*
G01Y63679D02*
X39963D01*
G01Y77609D02*
X51463D01*
G01X60730Y29334D02*
X54280D01*
G01D02*
Y40834D01*
G01D02*
X60730D01*
G01X51463Y40208D02*
Y33758D01*
G01Y47688D02*
Y41238D01*
G01Y62649D02*
Y56199D01*
G01Y55168D02*
Y48718D01*
G01Y77609D02*
Y71159D01*
G01Y70129D02*
Y63679D01*
G01X53443Y87596D02*
X59893D01*
G01Y76096D02*
X53443D01*
G01D02*
Y87596D01*
G01X45050Y132750D02*
Y139200D01*
G01D02*
X56550D01*
G01Y132750D02*
X45050D01*
G01X60730Y40834D02*
Y29334D01*
G01X75691D02*
X69241D01*
G01D02*
Y40834D01*
G01D02*
X75691D01*
G01X68211Y29334D02*
X61761D01*
G01D02*
Y40834D01*
G01D02*
X68211D01*
G01D02*
Y29334D01*
G01X60923Y87596D02*
X67373D01*
G01D02*
Y76096D01*
G01D02*
X60923D01*
G01D02*
Y87596D01*
G01X68404D02*
X74854D01*
G01Y76096D02*
X68404D01*
G01D02*
Y87596D01*
G01X59893D02*
Y76096D01*
G01X76035Y91450D02*
X69585D01*
G01D02*
Y102950D01*
G01D02*
X76035D01*
G01X56550Y139200D02*
Y132750D01*
G01X83171Y29334D02*
X76721D01*
G01D02*
Y40834D01*
G01D02*
X83171D01*
G01D02*
Y29334D01*
G01X75691Y40834D02*
Y29334D01*
G01X89564Y80265D02*
X78064D01*
G01D02*
Y86715D01*
G01D02*
X89564D01*
G01X74854Y87596D02*
Y76096D01*
G01X83565Y91538D02*
X77115D01*
G01D02*
Y103038D01*
G01X83565D02*
Y91538D01*
G01X76035Y102950D02*
Y91450D01*
G01X90995D02*
X84545D01*
G01D02*
Y102950D01*
G01X81302Y104230D02*
Y110680D01*
G01D02*
X92802D01*
G01Y104230D02*
X81302D01*
G01X77115Y103038D02*
X83565D01*
G01X84545Y102950D02*
X90995D01*
G01X74250Y143800D02*
Y159800D01*
G01X81750D02*
Y143800D01*
G01D02*
X74250D01*
G01Y159800D02*
X81750D01*
G01X97045Y56793D02*
Y50343D01*
G01D02*
X85545D01*
G01D02*
Y56793D01*
G01D02*
X97045D01*
G01Y49313D02*
Y42863D01*
G01D02*
X85545D01*
G01D02*
Y49313D01*
G01D02*
X97045D01*
G01Y64274D02*
Y57824D01*
G01D02*
X85545D01*
G01D02*
Y64274D01*
G01D02*
X97045D01*
G01Y71754D02*
Y65304D01*
G01D02*
X85545D01*
G01D02*
Y71754D01*
G01D02*
X97045D01*
G01X91538Y72734D02*
Y79184D01*
G01D02*
X103038D01*
G01Y72734D02*
X91538D01*
G01X102950Y80265D02*
X91450D01*
G01D02*
Y86715D01*
G01D02*
X102950D01*
G01X89564D02*
Y80265D01*
G01X98526Y91538D02*
X92076D01*
G01D02*
Y103038D01*
G01X98526D02*
Y91538D01*
G01X90995Y102950D02*
Y91450D01*
G01X105312Y104280D02*
X93812D01*
G01D02*
Y110730D01*
G01D02*
X105312D01*
G01X92802Y110680D02*
Y104230D01*
G01X92076Y103038D02*
X98526D01*
G01X110042Y80215D02*
Y86665D01*
G01D02*
X121542D01*
G01Y80215D02*
X110042D01*
G01X103038Y79184D02*
Y72734D01*
G01X102950Y86715D02*
Y80265D01*
G01X110042Y72734D02*
Y79184D01*
G01D02*
X121542D01*
G01Y72734D02*
X110042D01*
G01Y87695D02*
Y94145D01*
G01D02*
X121542D01*
G01Y87695D02*
X110042D01*
G01X105312Y110730D02*
Y104280D01*
G01X134352Y57286D02*
X127902D01*
G01D02*
Y68786D01*
G01X115554Y62498D02*
Y68948D01*
G01D02*
X127054D01*
G01D02*
Y62498D01*
G01D02*
X115554D01*
G01X127902Y68786D02*
X134352D01*
G01X121542Y86665D02*
Y80215D01*
G01Y79184D02*
Y72734D01*
G01X138776Y80265D02*
X127276D01*
G01D02*
Y86715D01*
G01D02*
X138776D01*
G01X121542Y94145D02*
Y87695D01*
G01X138776Y87745D02*
X127276D01*
G01D02*
Y94195D01*
G01D02*
X138776D01*
G01X115554Y127852D02*
Y134302D01*
G01X127054D02*
Y127852D01*
G01D02*
X115554D01*
G01X134302Y128064D02*
X127852D01*
G01D02*
Y139564D01*
G01X115554Y134302D02*
X127054D01*
G01X127852Y139564D02*
X134302D01*
G01X134352Y68786D02*
Y57286D01*
G01X135239Y62498D02*
Y68948D01*
G01D02*
X146739D01*
G01Y62498D02*
X135239D01*
G01X138776Y86715D02*
Y80265D01*
G01Y94195D02*
Y87745D01*
G01X135239Y127852D02*
Y134302D01*
G01X146739Y127852D02*
X135239D01*
G01X134302Y139564D02*
Y128064D01*
G01X135239Y134302D02*
X146739D01*
G01X154037Y57286D02*
X147587D01*
G01D02*
Y68786D01*
G01X154037D02*
Y57286D01*
G01X154924Y62498D02*
Y68948D01*
G01D02*
X166424D01*
G01Y62498D02*
X154924D01*
G01X146739Y68948D02*
Y62498D01*
G01X147587Y68786D02*
X154037D01*
G01X146739Y134302D02*
Y127852D01*
G01X154924D02*
Y134302D01*
G01X166424Y127852D02*
X154924D01*
G01X153987Y139564D02*
Y128064D01*
G01D02*
X147537D01*
G01D02*
Y139564D01*
G01X154924Y134302D02*
X166424D01*
G01X147537Y139564D02*
X153987D01*
G01X166424Y68948D02*
Y62498D01*
G01Y134302D02*
Y127852D01*
G54D12*
G01X89646Y189252D02*
Y169252D01*
G01D02*
X189646D01*
G01Y189252D02*
X89646D01*
G01X189646Y169252D02*
Y189252D01*
G54D13*
G01X15156Y180122D02*
X786D01*
Y144682D01*
X15156D01*
G01X22050Y20472D02*
G02X22441Y20082I-3J-393D01*
G02X22050Y19682I-395J-5D01*
G02X21650Y20082I-3J397D01*
G02X22050Y20472I395J-5D01*
G01X22830Y33072D02*
Y21262D01*
X37791D01*
Y33072D01*
X22830D01*
G01X39956Y144682D02*
X57876D01*
Y153152D01*
G01Y166532D02*
Y180122D01*
X39956D01*
G01X55811Y44584D02*
G02X56301Y45074I489J1D01*
G02X56791Y44584I-1J-491D01*
G02X56301Y44094I-492J2D01*
G02X55811Y44584I1J491D01*
G01X61021Y45574D02*
X57281D01*
Y49314D01*
G01Y64664D02*
Y68404D01*
X61021D01*
G01X80121Y49314D02*
Y45574D01*
X76381D01*
G01Y68404D02*
X80121D01*
Y64664D01*
G54D14*
G01X197Y69488D02*
Y70276D01*
X16535D01*
Y41535D01*
X197D01*
Y42323D01*
G01X196654Y52165D02*
Y51378D01*
X180315D01*
Y80118D01*
X196654D01*
Y79331D01*
G01Y117520D02*
Y116732D01*
X180315D01*
Y145472D01*
X196654D01*
Y144685D01*
M02*
