G04 ================== begin FILE IDENTIFICATION RECORD ==================*
G04 Layout Name:  Transceiver.brd*
G04 Film Name:    transceiverTOP*
G04 File Format:  Gerber RS274X*
G04 File Origin:  Cadence Allegro 17.2-S022*
G04 Origin Date:  Mon Apr 16 21:44:38 2018*
G04 *
G04 Layer:  ETCH/TOP*
G04 Layer:  PIN/TOP*
G04 Layer:  VIA CLASS/TOP*
G04 *
G04 Offset:    (0.0000 0.0000)*
G04 Mirror:    No*
G04 Mode:      Positive*
G04 Rotation:  0*
G04 FullContactRelief:  No*
G04 UndefLineWidth:     1.0000*
G04 ================== end FILE IDENTIFICATION RECORD ====================*
%FSLAX25Y25*MOIN*%
%IR0*IPPOS*OFA0.00000B0.00000*MIA0B0*SFA1.00000B1.00000*%
%ADD12R,.03937X.035433*%
%ADD10C,.02*%
%ADD14C,.03*%
%ADD17R,.165354X.122047*%
%ADD11R,.153543X.047244*%
%ADD15R,.23622X.153543*%
%ADD20R,.011024X.033465*%
%ADD18R,.033465X.011024*%
%ADD22C,.058*%
%ADD21R,.05X.05*%
%ADD19R,.135827X.135827*%
%ADD23R,.058X.058*%
%ADD13R,.032X.038*%
%ADD16R,.038X.032*%
%ADD24C,.005*%
%ADD25C,.01*%
%ADD26C,.014*%
%ADD28C,.084016*%
%ADD27C,.078016*%
G75*
%LPD*%
G75*
G36*
G01X196850Y62385D02*
Y0D01*
X0D01*
Y52543D01*
X15551D01*
G03X16552Y53543I0J1001D01*
G01Y53805D01*
X18028D01*
X36918Y34914D01*
Y33485D01*
X33072D01*
G03X32071Y32484I0J-1001D01*
G01Y28941D01*
G03X33072Y27940I1001J0D01*
G01X37009D01*
G03X37907Y28500I0J1001D01*
G01X37962Y28611D01*
X51771D01*
G03X54517Y29749I0J3883D01*
G01X54799Y30031D01*
X54940Y29915D01*
G03X55580Y29683I641J769D01*
G01X58899D01*
Y26701D01*
X58892Y26674D01*
G03X63708I2408J-674D01*
G01X63701Y26701D01*
Y33528D01*
X64051Y33878D01*
X66399D01*
Y26701D01*
X66392Y26674D01*
G03X71208I2408J-674D01*
G01X71201Y26701D01*
Y33806D01*
X71274Y33878D01*
X92487D01*
Y47399D01*
X99299D01*
X99326Y47392D01*
G03Y52208I674J2408D01*
G01X99299Y52201D01*
X92932D01*
X92487Y52646D01*
Y62399D01*
X99299D01*
X99326Y62392D01*
G03Y67208I674J2408D01*
G01X99299Y67201D01*
X92893D01*
X92487Y67607D01*
Y72683D01*
G02X92887Y73083I400J0D01*
G01X101688D01*
G03X102631Y73750I0J1001D01*
G01X102679Y73883D01*
X110401D01*
X110448Y73750D01*
G03X111392Y73083I943J334D01*
G01X116491D01*
Y71824D01*
X116403Y71736D01*
Y68515D01*
G03X115903Y67648I501J-867D01*
G01Y63848D01*
G03X116904Y62847I1001J0D01*
G01X125704D01*
G03X126647Y63514I0J1001D01*
G01X126694Y63647D01*
X128393D01*
G03X129202Y63235I809J589D01*
G01X133002D01*
G03X133869Y63735I0J1001D01*
G01X134130D01*
X134219Y63647D01*
X135598D01*
X135645Y63514D01*
G03X136589Y62847I943J334D01*
G01X145389D01*
G03X146332Y63514I0J1001D01*
G01X146379Y63647D01*
X148078D01*
G03X148887Y63235I809J589D01*
G01X152687D01*
G03X153554Y63735I0J1001D01*
G01X153815D01*
X153904Y63647D01*
X155283D01*
X155330Y63514D01*
G03X156274Y62847I943J334D01*
G01X165074D01*
G03X166017Y63514I0J1001D01*
G01X166064Y63647D01*
X180298D01*
Y63386D01*
G03X181299Y62385I1001J0D01*
G01X196850D01*
G37*
G36*
G01X38665Y39109D02*
X19768Y58006D01*
X16552D01*
Y58268D01*
G03X15551Y59269I-1001J0D01*
G01X0D01*
Y196850D01*
X196850D01*
Y134465D01*
X181299D01*
G03X180298Y133465I0J-1001D01*
G01Y133203D01*
X179802D01*
G03X179763Y133203I2J-2101D01*
G01X166064D01*
X166017Y133336D01*
G03X165074Y134003I-943J-334D01*
G01X156274D01*
G03X155330Y133336I0J-1001D01*
G01X155283Y133203D01*
X153904D01*
X153816Y133115D01*
X153554D01*
G03X152687Y133615I-867J-501D01*
G01X148887D01*
G03X148078Y133203I0J-1001D01*
G01X146379D01*
X146332Y133336D01*
G03X145389Y134003I-943J-334D01*
G01X136589D01*
G03X135645Y133336I0J-1001D01*
G01X135598Y133203D01*
X134219D01*
X134131Y133115D01*
X133869D01*
G03X133002Y133615I-867J-501D01*
G01X129202D01*
G03X128393Y133203I0J-1001D01*
G01X126694D01*
X126647Y133336D01*
G03X125704Y134003I-943J-334D01*
G01X116904D01*
G03X115903Y133002I0J-1001D01*
G01Y131172D01*
X103550Y118819D01*
G03X100261Y110880I7939J-7939D01*
G01Y110381D01*
X95162D01*
G03X94219Y109714I0J-1001D01*
G01X94171Y109581D01*
X92443D01*
X92395Y109714D01*
G03X91452Y110381I-943J-334D01*
G01X82652D01*
G03X81651Y109380I0J-1001D01*
G01Y105580D01*
G03X81916Y104902I1001J0D01*
G02X81904Y104348I-294J-271D01*
G01X80245Y102689D01*
X78407D01*
Y102695D01*
X74725D01*
Y97000D01*
X70935D01*
G03X69934Y96000I0J-1001D01*
G01Y92800D01*
G03X70935Y91799I1001J0D01*
G01X74735D01*
G03X75601Y92299I0J1001D01*
G01X77105D01*
X77193Y92387D01*
X77548D01*
G03X78081Y91944I866J501D01*
G01X78214Y91897D01*
Y88500D01*
X78913Y87800D01*
Y86231D01*
G03X78413Y85365I501J-867D01*
G01Y83033D01*
X63281D01*
X62801Y83513D01*
Y93999D01*
X62808Y94026D01*
G03X57992I-2408J674D01*
G01X57999Y93999D01*
Y87246D01*
X54793D01*
G03X53792Y86246I0J-1001D01*
G01Y84733D01*
X52092Y83033D01*
X44480D01*
Y73471D01*
X44009Y73001D01*
X37701D01*
X37674Y73008D01*
G03Y68192I-674J-2408D01*
G01X37701Y68199D01*
X44480D01*
Y65601D01*
X37701D01*
X37674Y65608D01*
G03Y60792I-674J-2408D01*
G01X37701Y60799D01*
X44068D01*
X44480Y60387D01*
Y58101D01*
X37701D01*
X37674Y58108D01*
G03Y53292I-674J-2408D01*
G01X37701Y53299D01*
X44087D01*
X44480Y52907D01*
Y39909D01*
X41313D01*
G03X40370Y39242I0J-1001D01*
G01X40323Y39109D01*
X38665D01*
G37*
G36*
G01X196850Y127739D02*
Y69111D01*
X181299D01*
G03X180298Y68110I0J-1001D01*
G01Y67849D01*
X166064D01*
X166017Y67982D01*
G03X165074Y68649I-943J-334D01*
G01X156274D01*
G03X155359Y68056I0J-1001D01*
G01X155307Y67937D01*
X153554D01*
G03X152687Y68437I-867J-501D01*
G01X148887D01*
G03X148020Y67937I0J-1001D01*
G01X146356D01*
X146303Y68056D01*
G03X145389Y68649I-914J-408D01*
G01X136589D01*
G03X135674Y68056I0J-1001D01*
G01X135622Y67937D01*
X133869D01*
G03X133002Y68437I-867J-501D01*
G01X129202D01*
G03X128335Y67937I0J-1001D01*
G01X126670D01*
X126618Y68056D01*
G03X125704Y68649I-914J-408D01*
G01X120604D01*
Y69996D01*
X120693Y70084D01*
Y73218D01*
G03X121193Y74084I-501J867D01*
G01Y77941D01*
X121199D01*
Y80564D01*
X132827D01*
Y93846D01*
X115991D01*
X111392Y93846D01*
G03X110391Y92845I0J-1001D01*
G01Y89045D01*
G03X110591Y88444I1001J0D01*
G01Y85965D01*
G03X110525Y85865I801J-600D01*
G01X102466D01*
G03X101600Y86365I-867J-501D01*
G01X92800D01*
G03X92706Y86361I-1J-1001D01*
G02X92487Y86560I-19J199D01*
G01Y87784D01*
X89752D01*
G02X89470Y88467I0J400D01*
G01X89896Y88894D01*
Y91809D01*
X90029Y91856D01*
G03X90562Y92299I-334J943D01*
G01X92567D01*
G03X93376Y91887I809J589D01*
G01X97176D01*
G03X98176Y92888I0J1001D01*
G01Y96088D01*
G03X97176Y97089I-1001J0D01*
G01X93376D01*
Y105379D01*
X94171D01*
X94219Y105246D01*
G03X95162Y104579I943J334D01*
G01X103962D01*
G03X104963Y105580I0J1001D01*
G01Y109380D01*
G03X104463Y110246I-1001J0D01*
G01Y110880D01*
G02X106520Y115848I7026J0D01*
G01X118874Y128201D01*
X125704D01*
G03X126618Y128795I0J1001D01*
G01X126670Y128913D01*
X128336D01*
G03X129202Y128413I867J501D01*
G01X133002D01*
G03X133869Y128913I0J1001D01*
G01X135622D01*
X135674Y128795D01*
G03X136589Y128201I914J407D01*
G01X145389D01*
G03X146303Y128795I0J1001D01*
G01X146356Y128913D01*
X148021D01*
G03X148887Y128413I867J501D01*
G01X152687D01*
G03X153554Y128913I0J1001D01*
G01X155307D01*
X155359Y128795D01*
G03X156274Y128201I914J407D01*
G01X165074D01*
G03X166017Y128868I0J1001D01*
G01X166064Y129001D01*
X179801D01*
G03X179840Y129002I-2J2101D01*
G01X180298D01*
Y128740D01*
G03X181299Y127739I1001J0D01*
G01X196850D01*
G37*
G36*
G01X131826Y92846D02*
Y81565D01*
X116991D01*
Y92846D01*
X131826D01*
G37*
%LPC*%
G75*
G36*
G01X22621Y21850D02*
Y25394D01*
G02X23622Y26394I1001J0D01*
G01X27559D01*
G02X28560Y25394I0J-1001D01*
G01Y21850D01*
G02X27559Y20850I-1001J0D01*
G01X23622D01*
G02X22621Y21850I0J1001D01*
G37*
G36*
G01X23095Y33335D02*
X23190Y33393D01*
Y36619D01*
X20400Y39409D01*
X20376Y39422D01*
G02X23781Y42828I1226J2180D01*
G01X23795Y42804D01*
X26691Y39909D01*
X27496D01*
G02X28497Y38908I0J-1001D01*
G01Y35108D01*
G02X27991Y34238I-1001J0D01*
G01Y33393D01*
X28086Y33335D01*
G02X28560Y32484I-527J-851D01*
G01Y28941D01*
G02X27559Y27940I-1001J0D01*
G01X23622D01*
G02X22621Y28941I0J1001D01*
G01Y32484D01*
G02X23095Y33335I1001J0D01*
G37*
G36*
G01X180745Y181352D02*
Y187152D01*
G02X181746Y188153I1001J0D01*
G01X187546D01*
G02X188546Y187152I0J-1001D01*
G01Y181352D01*
G02X187546Y180351I-1001J0D01*
G01X181746D01*
G02X180745Y181352I0J1001D01*
G37*
G36*
G01X140745Y171352D02*
Y177152D01*
G02X141746Y178153I1001J0D01*
G01X147546D01*
G02X148546Y177152I0J-1001D01*
G01Y171352D01*
G02X147546Y170351I-1001J0D01*
G01X141746D01*
G02X140745Y171352I0J1001D01*
G37*
G36*
G01X81501Y133099D02*
X50999D01*
Y151109D01*
X50990D01*
Y152511D01*
X50999D01*
Y153490D01*
X50994Y153513D01*
G02X50968Y153740I974J228D01*
G01Y165945D01*
G02X50994Y166172I1001J-1D01*
G01X50999Y166195D01*
Y167001D01*
X81501D01*
Y152511D01*
X81512D01*
Y151109D01*
X81501D01*
Y133099D01*
G37*
G54D28*
X94646Y184252D03*
X114646D03*
X104646D03*
X124646D03*
X134646D03*
G54D27*
X94646Y174252D03*
X114646D03*
X104646D03*
X124646D03*
X134646D03*
X144646Y184252D03*
X154646Y174252D03*
Y184252D03*
X174646Y174252D03*
X164646D03*
X174646Y184252D03*
X164646D03*
X184646Y174252D03*
%LPD*%
G75*
G36*
G01X52000Y150100D02*
X80500D01*
Y134100D01*
X52000D01*
Y150100D01*
G37*
G36*
G01Y166000D02*
X80500D01*
Y153500D01*
X52000D01*
Y166000D01*
G37*
G54D10*
G01X25591Y30712D02*
Y36702D01*
X25896Y37008D01*
G01D02*
Y37308D01*
X21602Y41602D01*
G01X31496Y37008D02*
Y26970D01*
X34844Y23622D01*
X35041D01*
G01X37000Y55700D02*
X45082D01*
X48513Y52269D01*
G01X37000Y63200D02*
X45062D01*
X48513Y59749D01*
Y59449D01*
G01Y74409D02*
Y74109D01*
X45004Y70600D01*
X37000D01*
G01X48513Y51969D02*
Y52269D01*
G01X61300Y26000D02*
Y34523D01*
X64661Y37883D01*
G01X68800Y26000D02*
Y34800D01*
X71883Y37883D01*
X72141D01*
G01X64961D02*
X64661D01*
G01X60400Y94700D02*
Y82519D01*
X63873Y79046D01*
X64173D01*
G01X72441Y37883D02*
X72141D01*
G01X88494Y46063D02*
Y40000D01*
G01X100000Y49800D02*
X91938D01*
X88494Y53243D01*
Y53543D01*
G01X100000Y64800D02*
X91898D01*
X88494Y68204D01*
Y68504D01*
G01X94400Y83465D02*
X94488Y83376D01*
Y75984D01*
G01X112992Y83465D02*
X100000D01*
G01X112992Y90945D02*
Y83465D01*
X9843Y29528D03*
X9449Y39764D03*
X5118D03*
X4331Y72835D03*
X9055D03*
X9843Y88583D03*
Y108268D03*
Y127953D03*
Y147638D03*
Y167323D03*
Y187008D03*
X19685Y19685D03*
Y59055D03*
Y78740D03*
Y98425D03*
Y118110D03*
Y157480D03*
Y177165D03*
X29528Y9843D03*
X39370Y19685D03*
X29921Y49213D03*
X38189Y48425D03*
X39370Y59055D03*
X29528Y68898D03*
X39370Y78740D03*
Y98425D03*
X29528Y88583D03*
X39370Y118110D03*
X29528Y108268D03*
X39370Y157480D03*
Y177165D03*
X29528Y167323D03*
X49213Y9843D03*
X55512Y52362D03*
X49213Y88583D03*
Y108268D03*
Y127953D03*
Y187008D03*
X68898Y9843D03*
X59055Y19685D03*
X62579Y42939D03*
X68504Y57480D03*
X64961D03*
Y53937D03*
X68504D03*
X67721Y43701D03*
X64961D03*
Y60630D03*
X68504D03*
X59055Y98425D03*
X68110Y100000D03*
X64173Y89370D03*
X59055Y118110D03*
X68898Y108268D03*
Y127953D03*
X59055Y177165D03*
X68898Y187008D03*
X78740Y19685D03*
X76378Y43307D03*
X81792Y54034D03*
X78346Y46340D03*
X72047Y53937D03*
Y57480D03*
X81890Y51181D03*
X80709Y48425D03*
X72047Y60630D03*
X75265Y70472D03*
X71654Y89370D03*
X78740Y118110D03*
Y177165D03*
X88583Y9843D03*
X98425Y19685D03*
Y39370D03*
X94094Y41339D03*
X98819Y71260D03*
X100000Y100394D03*
X98425Y118110D03*
X88583Y127953D03*
X98425Y137795D03*
X88583Y147638D03*
X98425Y157480D03*
X108268Y9843D03*
Y29528D03*
Y147638D03*
X127953Y9843D03*
X118110Y19685D03*
Y39370D03*
X127953Y29528D03*
Y49213D03*
X118110Y59055D03*
Y118110D03*
Y137795D03*
X127953Y147638D03*
X118110Y157480D03*
X137795Y19685D03*
Y39370D03*
X131102Y55512D03*
X137795Y59055D03*
Y78740D03*
Y98425D03*
Y137795D03*
X131496Y141339D03*
X137795Y157480D03*
X147638Y9843D03*
X157480Y19685D03*
Y39370D03*
X147638Y29528D03*
Y49213D03*
X150787Y55512D03*
X157480Y59055D03*
Y78740D03*
Y98425D03*
X147638Y88583D03*
X157480Y118110D03*
X157874Y138583D03*
X147638Y147638D03*
X150787Y141339D03*
X158268Y157480D03*
X167323Y9843D03*
Y29528D03*
Y49213D03*
Y88583D03*
Y108268D03*
Y147638D03*
X187008Y9843D03*
X177165Y19685D03*
Y39370D03*
X187008Y29528D03*
X187402Y49213D03*
X177165Y59055D03*
Y78740D03*
X185827Y81890D03*
X177165Y98425D03*
X187008Y88583D03*
X177165Y118110D03*
X187008Y108268D03*
X186220Y114567D03*
X177953Y137795D03*
X187795Y147638D03*
X177953Y157480D03*
X192913Y49213D03*
X192520Y81890D03*
X192913Y114567D03*
X192520Y147638D03*
G54D20*
X69681Y47244D03*
X67721D03*
X65751D03*
X63781D03*
X61811D03*
Y66734D03*
X63781D03*
X65751D03*
X67721D03*
X69681D03*
X75591Y47244D03*
X73621D03*
X71651D03*
Y66734D03*
X73621D03*
X75591D03*
G54D11*
X7874Y45079D03*
Y55906D03*
Y66732D03*
X188976Y54921D03*
Y65748D03*
Y76575D03*
Y120276D03*
Y131102D03*
Y141929D03*
G54D21*
X78000Y147600D03*
Y156000D03*
G54D12*
X25591Y23622D03*
Y30712D03*
X35041Y23622D03*
Y30712D03*
G54D13*
X25896Y37008D03*
X31496D03*
X42913D03*
X48513D03*
X42913Y51969D03*
X48513D03*
X42913Y44488D03*
X48513D03*
X42913Y59449D03*
X48513D03*
X42913Y66929D03*
X48513D03*
X42913Y74409D03*
X48513D03*
X48000Y136000D03*
X53600D03*
X81014Y83465D03*
X84252Y107480D03*
X94094Y53543D03*
X88494D03*
X94094Y46063D03*
X88494D03*
X94094Y61024D03*
X88494D03*
X94094Y68504D03*
X88494D03*
X94488Y75984D03*
X100088D03*
X100000Y83465D03*
X94400D03*
X86614D03*
X96762Y107480D03*
X89852D03*
X112992Y83465D03*
Y75984D03*
Y90945D03*
X102362Y107480D03*
X118504Y65748D03*
X124104D03*
X118592Y83465D03*
Y75984D03*
X130226Y83465D03*
X118592Y90945D03*
X130226D03*
X118504Y131102D03*
X124104D03*
X138189Y65748D03*
X143789D03*
X135826Y83465D03*
Y90945D03*
X138189Y131102D03*
X143789D03*
X157874Y65748D03*
Y131102D03*
X163474Y65748D03*
Y131102D03*
G54D22*
X94646Y174252D03*
Y184252D03*
X114646Y174252D03*
X104646D03*
X114646Y184252D03*
X104646D03*
X124646Y174252D03*
Y184252D03*
X134646Y174252D03*
X144646Y184252D03*
X134646D03*
X154646Y174252D03*
Y184252D03*
X174646Y174252D03*
X164646D03*
X174646Y184252D03*
X164646D03*
X184646Y174252D03*
G54D23*
X144646D03*
X184646Y184252D03*
G54D14*
X21602Y41602D03*
X37000Y55700D03*
Y70600D03*
Y63200D03*
X61300Y26000D03*
X68800D03*
X60400Y94700D03*
X65500Y146000D03*
X59500D03*
X60000Y138000D03*
X65500D03*
X71000D03*
Y146000D03*
X76500Y138000D03*
X88494Y40000D03*
X100000Y49800D03*
Y64800D03*
X124500Y90000D03*
Y84500D03*
G54D24*
G01X94646Y179851D02*
Y184252D01*
G01D02*
Y188653D01*
G01X90245Y184252D02*
X94646D01*
G01D02*
X99046D01*
G01X104646Y179851D02*
Y184252D01*
G01D02*
Y188653D01*
G01X100245Y184252D02*
X104646D01*
G01D02*
X109046D01*
G01X114646Y179851D02*
Y184252D01*
G01D02*
Y188653D01*
G01X110245Y184252D02*
X114646D01*
G01D02*
X119046D01*
G01X124646Y179851D02*
Y184252D01*
G01D02*
Y188653D01*
G01X120245Y184252D02*
X124646D01*
G01D02*
X129046D01*
G01X134646Y179851D02*
Y184252D01*
G01D02*
Y188653D01*
G01X130245Y184252D02*
X134646D01*
G01D02*
X139046D01*
G54D15*
X27556Y136813D03*
Y187793D03*
G54D25*
G01X55512Y52362D02*
X57184Y54034D01*
X58961D01*
G01X48513Y52269D02*
X54219Y57974D01*
X58961D01*
G01X48513Y44488D02*
Y44788D01*
X53150Y49424D01*
Y53167D01*
X55986Y56004D01*
X58961D01*
G01Y63874D02*
Y66862D01*
X51413Y74409D01*
X48513D01*
G01Y59449D02*
X52362D01*
X52857Y59944D01*
X58961D01*
G01X48513Y66929D02*
X51575D01*
X56590Y61914D01*
X58961D01*
G01X56693Y84646D02*
X56393D01*
X52756Y81009D01*
Y75789D01*
X56104Y72441D01*
X59080D01*
X61811Y69709D01*
Y66734D01*
G01X62579Y42939D02*
X62646Y43006D01*
Y44440D01*
X63362Y45156D01*
Y45157D01*
X63781Y45576D01*
Y47244D01*
G01X61811D02*
Y46122D01*
X59917Y44228D01*
Y42627D01*
X64661Y37883D01*
G01X72141D02*
X69721Y40304D01*
Y44140D01*
X69681Y44180D01*
Y47244D01*
G01X67721D02*
Y43701D01*
G01X65751Y47244D02*
Y44491D01*
X64961Y43701D01*
G01X56693Y79046D02*
X56993D01*
X63781Y72257D01*
Y66734D01*
G01X64173Y79046D02*
Y76146D01*
X65751Y74568D01*
Y66734D01*
G01X71654Y79046D02*
X71354D01*
X67717Y75409D01*
Y69713D01*
X67721Y69709D01*
Y66734D01*
G01X79921Y37883D02*
X79621D01*
X76560Y40945D01*
X74409D01*
X71651Y43703D01*
Y47244D01*
G01X78441Y54034D02*
X81792D01*
G01X76378Y43307D02*
X74585D01*
X73621Y44271D01*
Y47244D01*
G01X75591D02*
X77442D01*
X78346Y46340D01*
G01X78441Y52064D02*
X81006D01*
X81890Y51181D01*
G01X80709Y48425D02*
Y49094D01*
X79709Y50094D01*
X78441D01*
G01Y56004D02*
X80933D01*
X80964Y56034D01*
X82621D01*
X82651Y56004D01*
X82972D01*
X85039Y53937D01*
Y49818D01*
X88494Y46363D01*
Y46063D01*
G01Y53543D02*
Y53843D01*
X84364Y57974D01*
X78441D01*
G01X88494Y61024D02*
X83465D01*
X82385Y59944D01*
X78441D01*
G01X88494Y68504D02*
X85031D01*
X83071Y66544D01*
Y63569D01*
X81416Y61914D01*
X78441D01*
G01X73621Y66734D02*
Y68828D01*
X75265Y70472D01*
G54D16*
X56693Y84646D03*
Y79046D03*
X57480Y32283D03*
Y37883D03*
X64961Y32283D03*
Y37883D03*
X64173Y84646D03*
Y79046D03*
X71654Y84646D03*
Y79046D03*
X79921Y32283D03*
Y37883D03*
X72441Y32283D03*
Y37883D03*
X80315Y94488D03*
Y100088D03*
X72835Y100000D03*
Y94400D03*
X95276Y94488D03*
Y100088D03*
X87795Y100000D03*
Y94400D03*
X131102Y60236D03*
Y65836D03*
X131102Y131014D03*
Y136614D03*
X150787Y60236D03*
Y65836D03*
X150787Y131014D03*
Y136614D03*
G54D26*
G01X7874Y55906D02*
X18898D01*
X37795Y37008D01*
X42913D01*
G01X57480Y32283D02*
X54660D01*
G03X53670Y31873I0J-1400D01*
G01X53031Y31234D01*
G02X51770Y30712I-1260J1260D01*
G01X35041D01*
G01X48513Y37008D02*
X52362D01*
X53238Y37883D01*
X57480D01*
G01D02*
Y44507D01*
X58961Y45988D01*
Y50094D01*
G01X69681Y66734D02*
X69685Y66738D01*
Y72834D01*
X72279Y75428D01*
X78971D01*
X81014Y77471D01*
Y83465D01*
G01X86614D02*
Y79921D01*
X79921Y73228D01*
X74803D01*
X71651Y70076D01*
Y66734D01*
G01X94488Y75984D02*
X88976D01*
X79726Y66734D01*
X75591D01*
G01X81014Y83465D02*
Y88670D01*
X80315Y89370D01*
Y94488D01*
G01X72835Y94400D02*
X76235D01*
X76323Y94488D01*
X80315D01*
G01X87795Y100000D02*
Y100181D01*
X84252Y103724D01*
G01X80315Y100088D02*
X80615D01*
X84252Y103724D01*
G01Y107480D02*
Y103724D01*
G01X86614Y83465D02*
Y88583D01*
X87795Y89764D01*
Y94400D01*
G01X100088Y75984D02*
X112992D01*
G01X87795Y94400D02*
X91787D01*
X91876Y94488D01*
X95276D01*
G01X89852Y107480D02*
X96762D01*
G01X118504Y131102D02*
Y130802D01*
X105035Y117333D01*
G03X102362Y110880I6454J-6454D01*
G01Y107480D01*
G01X118592Y75984D02*
Y70954D01*
X118504Y70866D01*
Y65748D01*
G01X124104D02*
X127614D01*
X127702Y65836D01*
X131102D01*
G01X131102Y131014D02*
X127702D01*
X127615Y131102D01*
X124104D01*
G01X131102Y65836D02*
X135000D01*
X135089Y65748D01*
X138189D01*
G01X143789D02*
X147299D01*
X147387Y65836D01*
X150787D01*
G01X138189Y131102D02*
X135089D01*
X135001Y131014D01*
X131102D01*
G01X150787D02*
X147387D01*
X147300Y131102D01*
X143789D01*
G01X150787Y65836D02*
X154685D01*
X154774Y65748D01*
X157874D01*
G01Y131102D02*
X154774D01*
X154686Y131014D01*
X150787D01*
G01X163474Y65748D02*
X188976D01*
G01Y131102D02*
X179802D01*
X179801Y131102D01*
X163474D01*
G54D17*
X60236Y159843D03*
G54D18*
X58961Y50094D03*
Y52064D03*
Y54034D03*
Y56004D03*
Y57974D03*
Y59944D03*
Y61914D03*
Y63874D03*
X78441Y57974D03*
Y56004D03*
Y54034D03*
Y52064D03*
Y50094D03*
Y63874D03*
Y61914D03*
Y59944D03*
G54D19*
X68701Y56984D03*
M02*
