M48
INCH,LZ
T01C.037
T02C.02
T03C.01
;LEADER: 12 
;HEADER: 
;CODE  : ASCII 
;FILE  : Transceiver-1-4.drl for  ... layers TOP and BOTTOM
;DESIGN: Transceiver.brd
;T01 Holesize 1. = 37.000000 Tolerance = +0.000000/-0.000000 PLATED MILS Quantity = 20
;T02 Holesize 2. = 20.000000 Tolerance = +0.000000/-0.000000 PLATED MILS Quantity = 19
;T03 Holesize 3. = 10.000000 Tolerance = +0.000000/-0.000000 PLATED MILS Quantity = 146
%
G90
T01
X018465Y018425
X018465Y017425
X017465Y018425
X017465Y017425
X016465Y018425
X016465Y017425
X015465Y018425
X015465Y017425
X014465Y018425
X014465Y017425
X013465Y018425
X013465Y017425
X012465Y018425
X012465Y017425
X011465Y018425
X011465Y017425
X010465Y018425
X010465Y017425
X009465Y018425
X009465Y017425
T02
X006063Y01378
X006614Y014646
X006614Y01378
X012441Y008425
X007126Y014646
X007165Y01378
X006063Y014646
X012441Y008976
X007717Y01378
X00604Y00947
X008849Y004
X0037Y00557
X00688Y0026
X01Y00648
X00613Y0026
X00216Y00416
X0037Y00706
X01Y00498
X0037Y00632
T03
X007526Y007047
X006496Y00437
X006772Y00437
X008071Y004843
X008189Y005118
X010276Y00563
X010709Y006378
X000433Y007283
X000906Y007283
X000945Y003976
X000512Y003976
X01878Y014764
X019252Y014764
X018622Y011457
X019291Y011457
X018583Y008189
X019252Y008189
X01874Y004921
X019291Y004921
X014764Y004921
X003819Y004843
X012795Y004921
X006417Y008937
X006811Y01
X018701Y010827
X003937Y001968
X014764Y008858
X015079Y005551
X018701Y000984
X016732Y000984
X016732Y002953
X001968Y007874
X012795Y000984
X017795Y01378
X001968Y017717
X015787Y013858
X01378Y001968
X011811Y001968
X009843Y001968
X007874Y001968
X005906Y001968
X001968Y009843
X016732Y010827
X012795Y002953
X00689Y010827
X008858Y000984
X003937Y015748
X014764Y014764
X00685Y005394
X007205Y005394
X011811Y01378
X009843Y01378
X01Y010039
X005906Y009843
X005906Y011811
X015748Y001968
X009843Y011811
X002953Y00689
X011811Y011811
X007874Y011811
X016732Y004921
X006496Y005748
X016732Y008858
X004921Y000984
X001968Y001968
X01315Y014134
X015079Y014134
X00685Y005748
X016732Y014764
X007165Y008937
X002992Y004921
X014764Y000984
X001968Y015748
X006496Y005394
X010827Y000984
X007205Y005748
X01378Y009843
X015748Y009843
X015748Y011811
X017717Y011811
X017717Y009843
X01378Y007874
X015748Y007874
X017717Y007874
X017717Y005906
X015748Y005906
X01378Y005906
X011811Y005906
X018701Y008858
X009843Y003937
X011811Y003937
X01378Y003937
X015748Y003937
X017717Y003937
X017717Y001968
X01378Y01378
X002953Y010827
X014764Y002953
X000984Y018701
X000984Y016732
X000984Y014764
X000984Y012795
X000984Y010827
X000984Y008858
X000984Y002953
X00689Y018701
X004921Y018701
X004921Y012795
X00689Y012795
X008858Y012795
X008858Y014764
X002953Y016732
X010827Y002953
X006496Y006063
X003937Y017717
X005906Y017717
X007874Y017717
X009843Y015748
X011811Y015748
X01378Y015748
X015827Y015748
X017795Y015748
X005472Y005157
X003937Y011811
X003937Y005906
X003937Y007874
X003937Y009843
X01311Y005551
X012795Y014764
X010827Y014764
X007205Y006063
X004921Y008858
X002953Y000984
X00685Y006063
X00689Y000984
X001968Y011811
X002953Y008858
X009409Y004134
X004921Y010827
X001968Y005906
X010157Y00689
X018701Y002953
X007835Y004634
X007638Y004331
X006258Y004294
X008179Y005403
M30
