G04 ================== begin FILE IDENTIFICATION RECORD ==================*
G04 Layout Name:  Transceiver.brd*
G04 Film Name:    transceiverInner2*
G04 File Format:  Gerber RS274X*
G04 File Origin:  Cadence Allegro 17.2-S022*
G04 Origin Date:  Tue Apr 17 13:41:28 2018*
G04 *
G04 Layer:  VIA CLASS/INNER 2*
G04 Layer:  PIN/INNER 2*
G04 Layer:  ETCH/INNER 2*
G04 *
G04 Offset:    (0.000 0.000)*
G04 Mirror:    No*
G04 Mode:      Positive*
G04 Rotation:  0*
G04 FullContactRelief:  No*
G04 UndefLineWidth:     0.000*
G04 ================== end FILE IDENTIFICATION RECORD ====================*
%FSLAX25Y25*MOIN*%
%IR0*IPPOS*OFA0.00000B0.00000*MIA0B0*SFA1.00000B1.00000*%
%ADD10C,.02*%
%ADD11C,.03*%
%ADD12C,.058*%
%ADD13R,.058X.058*%
%ADD14C,.005*%
%ADD15C,.040004*%
%ADD17C,.084004*%
%ADD16C,.078004*%
G75*
%LPD*%
G75*
G36*
G01X2500Y2500D02*
Y70907D01*
G02X3138Y71229I400J0D01*
G03Y74441I1192J1606D01*
G02X2500Y74762I-238J321D01*
G01Y195000D01*
X195000D01*
Y116275D01*
G02X194319Y115990I-400J0D01*
G03Y113144I-1405J-1423D01*
G02X195000Y112859I281J-285D01*
G01Y50920D01*
G02X194319Y50636I-400J0D01*
G03Y47790I-1405J-1423D01*
G02X195000Y47505I281J-285D01*
G01Y2500D01*
X2500D01*
G37*
%LPC*%
G75*
G36*
G01X180446Y181352D02*
Y187152D01*
G02X181746Y188452I1300J0D01*
G01X187546D01*
G02X188846Y187152I0J-1300D01*
G01Y181352D01*
G02X187546Y180052I-1300J0D01*
G01X181746D01*
G02X180446Y181352I0J1300D01*
G37*
G36*
G01X140746Y171352D02*
Y177152D01*
G02X141746Y178152I1000J0D01*
G01X147546D01*
G02X148546Y177152I0J-1000D01*
G01Y171352D01*
G02X147546Y170352I-1000J0D01*
G01X141746D01*
G02X140746Y171352I0J1000D01*
G37*
G36*
G01X67028Y52588D02*
G03X66437I-295J-270D01*
G02X63611Y55413I-1476J1350D01*
G03Y56004I-270J295D01*
G02X63451Y58793I1349J1476D01*
G03Y59318I-302J262D01*
G02X66437Y61979I1509J1312D01*
G03X67028I295J270D01*
G02X69980I1476J-1349D01*
G03X70571I295J270D01*
G02X73557Y59318I1476J-1350D01*
G03Y58793I302J-262D01*
G02X73397Y56004I-1509J-1312D01*
G03Y55413I270J-295D01*
G02X70571Y52588I-1350J-1476D01*
G03X69980I-295J-270D01*
G02X67028I-1476J1350D01*
G37*
G36*
G01X78630Y44360D02*
G03X78302Y43854I57J-396D01*
G02X76095Y45287I-1924J-547D01*
G03X76423Y45792I-57J396D01*
G02X78332Y48340I1924J547D01*
G03X78726Y48688I-3J400D01*
G02X79900Y50255I1983J-262D01*
G03X80007Y50505I-81J183D01*
G02X80324Y52426I1883J676D01*
G03X80315Y52685I-157J124D01*
G02X83358Y52790I1477J1349D01*
G03X83367Y52530I157J-124D01*
G02X82699Y49352I-1477J-1349D01*
G03X82591Y49101I81J-183D01*
G02X80723Y46425I-1882J-676D01*
G03X80329Y46078I3J-400D01*
G02X78630Y44360I-1983J262D01*
G37*
G36*
G01X66341Y42253D02*
G02X64245Y41833I-1380J1448D01*
G02X63294Y44807I-1666J1107D01*
G02X66341Y45149I1666J-1106D01*
G02Y42253I1380J-1448D01*
G37*
G36*
G01X6923Y38901D02*
G02Y40627I-1804J863D01*
G03X7644I361J173D01*
G02Y38901I1805J-863D01*
G03X6923I-361J-173D01*
G37*
G54D15*
X9842Y29528D03*
X9055Y72835D03*
X9842Y88583D03*
Y108268D03*
Y127953D03*
Y147638D03*
Y167323D03*
Y187008D03*
X19685Y19685D03*
Y59055D03*
Y78740D03*
Y98425D03*
Y118110D03*
Y157480D03*
Y177165D03*
X29528Y9842D03*
X39370Y19685D03*
X38189Y48425D03*
X29921Y49213D03*
X29528Y68898D03*
X39370Y59055D03*
Y78740D03*
Y98425D03*
X29528Y88583D03*
Y108268D03*
X39370Y118110D03*
Y157480D03*
X29528Y167323D03*
X39370Y177165D03*
X49213Y9842D03*
X54724Y51575D03*
X49213Y88583D03*
Y108268D03*
Y127953D03*
Y187008D03*
X68898Y9842D03*
X59055Y19685D03*
X64173Y89370D03*
X68110Y100000D03*
X59055Y98425D03*
X68898Y108268D03*
X59055Y118110D03*
X68898Y127953D03*
X59055Y177165D03*
X68898Y187008D03*
X78740Y19685D03*
X75265Y70472D03*
X71654Y89370D03*
X78740Y118110D03*
Y177165D03*
X88583Y9842D03*
X98425Y19685D03*
Y39370D03*
X94094Y41339D03*
X100000Y100394D03*
X98425Y118110D03*
X88583Y127953D03*
X98425Y137795D03*
X88583Y147638D03*
X98425Y157480D03*
X108268Y9842D03*
Y29528D03*
X102756Y56299D03*
X107086Y63779D03*
X101575Y68898D03*
X108268Y147638D03*
X127953Y9842D03*
X118110Y19685D03*
X127953Y29528D03*
X118110Y39370D03*
X127953Y49213D03*
X118110Y59055D03*
Y118110D03*
Y137795D03*
X127953Y147638D03*
X118110Y157480D03*
X137795Y19685D03*
Y39370D03*
X131102Y55512D03*
X137795Y59055D03*
Y78740D03*
Y98425D03*
X131496Y141339D03*
X137795Y137795D03*
Y157480D03*
X147638Y9842D03*
X157480Y19685D03*
Y39370D03*
X147638Y29528D03*
Y49213D03*
X150787Y55512D03*
X157480Y59055D03*
Y78740D03*
X147638Y88583D03*
X157480Y98425D03*
Y118110D03*
X157874Y138583D03*
X147638Y147638D03*
X150787Y141339D03*
X158268Y157480D03*
X167323Y9842D03*
Y29528D03*
Y49213D03*
Y88583D03*
Y108268D03*
Y147638D03*
X187008Y9842D03*
X177165Y19685D03*
Y39370D03*
X187008Y29528D03*
X187402Y49213D03*
X177165Y59055D03*
X185827Y81890D03*
X177165Y78740D03*
Y98425D03*
X187008Y88583D03*
X186220Y114567D03*
X187008Y108268D03*
X177165Y118110D03*
X187795Y147638D03*
X177953Y137795D03*
Y157480D03*
X192520Y81890D03*
Y147638D03*
G54D17*
X144646Y184252D03*
X154646D03*
X174646D03*
X164646D03*
G54D16*
X94646Y174252D03*
Y184252D03*
X114646Y174252D03*
X104646D03*
X114646Y184252D03*
X104646D03*
X124646Y174252D03*
Y184252D03*
X134646Y174252D03*
Y184252D03*
X154646Y174252D03*
X174646D03*
X164646D03*
X184646D03*
%LPD*%
G75*
G54D10*
X9842Y29528D03*
X5118Y39764D03*
X9449D03*
X9055Y72835D03*
X4331D03*
X9842Y88583D03*
Y108268D03*
Y127953D03*
Y147638D03*
Y167323D03*
Y187008D03*
X19685Y19685D03*
Y59055D03*
Y78740D03*
Y98425D03*
Y118110D03*
Y157480D03*
Y177165D03*
X29528Y9842D03*
X39370Y19685D03*
X29921Y49213D03*
X38189Y48425D03*
X39370Y59055D03*
X29528Y68898D03*
X39370Y78740D03*
X29528Y88583D03*
X39370Y98425D03*
Y118110D03*
X29528Y108268D03*
X39370Y157480D03*
Y177165D03*
X29528Y167323D03*
X49213Y9842D03*
X54724Y51575D03*
X49213Y88583D03*
Y108268D03*
Y127953D03*
Y187008D03*
X68898Y9842D03*
X59055Y19685D03*
X62579Y42939D03*
X64961Y53937D03*
X68504Y57480D03*
X64961D03*
X68504Y53937D03*
X67721Y43701D03*
X64961D03*
X68504Y60630D03*
X64961D03*
X59055Y98425D03*
X68110Y100000D03*
X64173Y89370D03*
X59055Y118110D03*
X68898Y108268D03*
Y127953D03*
X59055Y177165D03*
X68898Y187008D03*
X78740Y19685D03*
X76378Y43307D03*
X81792Y54034D03*
X78347Y46340D03*
X72047Y57480D03*
Y53937D03*
X81890Y51181D03*
X80709Y48425D03*
X72047Y60630D03*
X75265Y70472D03*
X71654Y89370D03*
X78740Y118110D03*
Y177165D03*
X88583Y9842D03*
X98425Y19685D03*
X94094Y41339D03*
X98425Y39370D03*
X100000Y100394D03*
X98425Y118110D03*
X88583Y127953D03*
Y147638D03*
X98425Y137795D03*
Y157480D03*
X108268Y9842D03*
Y29528D03*
X102756Y56299D03*
X101575Y68898D03*
X107086Y63779D03*
X108268Y147638D03*
X127953Y9842D03*
X118110Y19685D03*
Y39370D03*
X127953Y29528D03*
Y49213D03*
X118110Y59055D03*
Y118110D03*
X127953Y147638D03*
X118110Y137795D03*
Y157480D03*
X137795Y19685D03*
Y39370D03*
X131102Y55512D03*
X137795Y59055D03*
Y78740D03*
Y98425D03*
Y137795D03*
X131496Y141339D03*
X137795Y157480D03*
X147638Y9842D03*
X157480Y19685D03*
X147638Y29528D03*
X157480Y39370D03*
X150787Y55512D03*
X147638Y49213D03*
X157480Y59055D03*
Y78740D03*
Y98425D03*
X147638Y88583D03*
X157480Y118110D03*
X150787Y141339D03*
X147638Y147638D03*
X157874Y138583D03*
X158268Y157480D03*
X167323Y9842D03*
Y29528D03*
Y49213D03*
Y88583D03*
Y108268D03*
Y147638D03*
X187008Y9842D03*
X177165Y19685D03*
X187008Y29528D03*
X177165Y39370D03*
X187402Y49213D03*
X177165Y59055D03*
Y78740D03*
X185827Y81890D03*
X187008Y88583D03*
X177165Y98425D03*
Y118110D03*
X187008Y108268D03*
X186220Y114567D03*
X177953Y137795D03*
X187795Y147638D03*
X177953Y157480D03*
X192913Y49213D03*
X192520Y81890D03*
X192913Y114567D03*
X192520Y147638D03*
G54D11*
X21602Y41602D03*
X37000Y55700D03*
Y63200D03*
Y70600D03*
X61300Y26000D03*
X68800D03*
X60400Y94700D03*
X60630Y146456D03*
X71653Y137795D03*
X71260Y146456D03*
X66142Y137795D03*
Y146456D03*
X60630Y137795D03*
X77165D03*
X88495Y40000D03*
X100000Y49800D03*
Y64800D03*
X124409Y89764D03*
Y84252D03*
G54D12*
X94646Y174252D03*
Y184252D03*
X114646Y174252D03*
X104646D03*
X114646Y184252D03*
X104646D03*
X124646Y174252D03*
Y184252D03*
X134646Y174252D03*
X144646Y184252D03*
X134646D03*
X154646Y174252D03*
Y184252D03*
X174646Y174252D03*
X164646D03*
X174646Y184252D03*
X164646D03*
X184646Y174252D03*
G54D13*
X144646D03*
X184646Y184252D03*
G54D14*
G01X144646Y179852D02*
Y184252D01*
G01D02*
Y188652D01*
G01X140246Y184252D02*
X144646D01*
G01D02*
X149046D01*
G01X154646Y179852D02*
Y184252D01*
G01D02*
Y188652D01*
G01X150246Y184252D02*
X154646D01*
G01D02*
X159046D01*
G01X164646Y179852D02*
Y184252D01*
G01D02*
Y188652D01*
G01X160246Y184252D02*
X164646D01*
G01D02*
X169046D01*
G01X174646Y179852D02*
Y184252D01*
G01D02*
Y188652D01*
G01X170246Y184252D02*
X174646D01*
G01D02*
X179046D01*
G01X184646Y179852D02*
Y184252D01*
G01D02*
Y188652D01*
G01X180246Y184252D02*
X184646D01*
G01D02*
X189046D01*
M02*
