M48
INCH,LZ
T01C.037
T02C.02
T03C.01
;LEADER: 12 
;HEADER: 
;CODE  : ASCII 
;FILE  : Transceiver-1-4.drl for  ... layers TOP and BOTTOM
;DESIGN: Transceiver.brd
;T01 Holesize 1. = 37.000000 Tolerance = +0.000000/-0.000000 PLATED MILS Quantity = 20
;T02 Holesize 2. = 20.000000 Tolerance = +0.000000/-0.000000 PLATED MILS Quantity = 19
;T03 Holesize 3. = 10.000000 Tolerance = +0.000000/-0.000000 PLATED MILS Quantity = 144
%
G90
T01
X018465Y018425
X018465Y017425
X017465Y018425
X017465Y017425
X016465Y018425
X016465Y017425
X015465Y018425
X015465Y017425
X014465Y018425
X014465Y017425
X013465Y018425
X013465Y017425
X012465Y018425
X012465Y017425
X011465Y018425
X011465Y017425
X010465Y018425
X010465Y017425
X009465Y018425
X009465Y017425
T02
X00604Y00947
X01Y00648
X0037Y00632
X01Y00498
X0037Y00557
X008849Y004
X00688Y0026
X00613Y0026
X0037Y00706
X0071Y0146
X00765Y0138
R03X-00055
X00595Y0146
X00655Y0146
X01245Y00845
X01245Y009
X00216Y00416
T03
X007526Y007047
X006496Y00437
X006772Y00437
X008071Y004843
X008189Y005118
X019252Y014764
X01878Y014764
X019291Y011457
X018622Y011457
X019252Y008189
X018583Y008189
X000906Y007283
X000433Y007283
X01874Y004921
X000512Y003976
X000945Y003976
X019291Y004921
X015079Y014134
X01315Y014134
X007165Y008937
X006417Y008937
X006811Y01
X009882Y007126
X015079Y005551
X01311Y005551
X009409Y004134
X003819Y004843
X00689Y018701
X004921Y018701
X000984Y018701
X002953Y016732
X000984Y016732
X016732Y014764
R04X-001969
X000984Y014764
X008858Y012795
R02X-001969
X000984Y012795
X018701Y010827
X016732Y010827
X00689Y010827
R03X-001969
X018701Y008858
R02X-001969
X004921Y008858
R02X-001969
X002953Y00689
X016732Y004921
R02X-001969
X002992Y004921
X018701Y002953
R03X-001969
X000984Y002953
X018701Y000984
R08X-001969
X010827Y002953
X007874Y017717
R03X-001969
X017795Y015748
X015827Y015748
X01378Y015748
R02X-001969
X003937Y015748
X001969Y015748
X017795Y01378
X015787Y013858
X01378Y01378
R02X-001969
X017717Y011811
X015748Y011811
X011811Y011811
R05X-001969
X017717Y009843
R02X-001969
X01Y010039
X005906Y009843
R02X-001969
X017717Y007874
R02X-001969
X003937Y007874
X001969Y007874
X017717Y005906
R03X-001969
X003937Y005906
X001969Y005906
X017717Y003937
R04X-001969
X017717Y001969
R08X-001969
X00685Y005394
X007205Y005748
X006496Y005394
X007205Y005394
X006496Y005748
X007205Y006063
R02X-000354
X00685Y005748
X005551Y005236
X007835Y004634
X007638Y004331
X006258Y004294
X008179Y005403
M30
