G04 ================== begin FILE IDENTIFICATION RECORD ==================*
G04 Layout Name:  Transceiver.brd*
G04 Film Name:    transceiverSMT*
G04 File Format:  Gerber RS274X*
G04 File Origin:  Cadence Allegro 17.2-S022*
G04 Origin Date:  Tue Apr 17 13:41:28 2018*
G04 *
G04 Layer:  BOARD GEOMETRY/SOLDERMASK_TOP*
G04 Layer:  VIA CLASS/SOLDERMASK_TOP*
G04 Layer:  PIN/SOLDERMASK_TOP*
G04 *
G04 Offset:    (0.000 0.000)*
G04 Mirror:    No*
G04 Mode:      Positive*
G04 Rotation:  0*
G04 FullContactRelief:  No*
G04 UndefLineWidth:     0.000*
G04 ================== end FILE IDENTIFICATION RECORD ====================*
%FSLAX25Y25*MOIN*%
%IR0*IPPOS*OFA0.00000B0.00000*MIA0B0*SFA1.00000B1.00000*%
%ADD10R,.15748X.051181*%
%ADD18R,.138583X.138583*%
%ADD12R,.032X.038*%
%ADD15R,.038X.032*%
%ADD13C,.05*%
%ADD20R,.05X.05*%
%ADD21C,.058*%
%ADD19R,.01378X.03622*%
%ADD17R,.03622X.01378*%
%ADD22R,.058X.058*%
%ADD14R,.244094X.161417*%
%ADD11R,.043307X.03937*%
%ADD16R,.173228X.129921*%
%LPD*%
G75*
G54D10*
X7874Y45079D03*
Y55906D03*
Y66732D03*
X188976Y54921D03*
Y65748D03*
Y76575D03*
Y120276D03*
Y131102D03*
Y141929D03*
G54D11*
X25591Y23622D03*
Y30712D03*
X35041Y23622D03*
Y30712D03*
G54D20*
X78000Y147600D03*
Y156000D03*
G54D21*
X94646Y174252D03*
Y184252D03*
X114646Y174252D03*
X104646D03*
X114646Y184252D03*
X104646D03*
X124646Y174252D03*
Y184252D03*
X134646Y174252D03*
X144646Y184252D03*
X134646D03*
X154646Y174252D03*
Y184252D03*
X174646Y174252D03*
X164646D03*
X174646Y184252D03*
X164646D03*
X184646Y174252D03*
G54D12*
X25896Y37008D03*
X31496D03*
X42913D03*
X48513D03*
X42913Y51968D03*
X48513D03*
X42913Y44488D03*
X48513D03*
X42913Y59449D03*
X48513D03*
X42913Y66929D03*
X48513D03*
X42913Y74409D03*
X48513D03*
X48000Y136000D03*
X53600D03*
X81014Y83465D03*
X84252Y107480D03*
X94094Y53543D03*
X88495D03*
X94094Y46063D03*
X88495D03*
X94094Y61024D03*
X88495D03*
X94094Y68504D03*
X88495D03*
X94488Y75984D03*
X100088D03*
X100000Y83465D03*
X94400D03*
X86614D03*
X96762Y107480D03*
X89852D03*
X112992Y83465D03*
Y75984D03*
Y90945D03*
X102362Y107480D03*
X118504Y65748D03*
X124104D03*
X118592Y83465D03*
Y75984D03*
X130226Y83465D03*
X118592Y90945D03*
X130226D03*
X118504Y131102D03*
X124104D03*
X138189Y65748D03*
X143789D03*
X135826Y83465D03*
Y90945D03*
X138189Y131102D03*
X143789D03*
X157874Y65748D03*
Y131102D03*
X163474Y65748D03*
Y131102D03*
G54D22*
X144646Y174252D03*
X184646Y184252D03*
G54D13*
X21602Y41602D03*
X37000Y55700D03*
Y63200D03*
Y70600D03*
X61300Y26000D03*
X68800D03*
X60400Y94700D03*
X60630Y146456D03*
X71653Y137795D03*
X71260Y146456D03*
X66142Y137795D03*
Y146456D03*
X60630Y137795D03*
X77165D03*
X88495Y40000D03*
X100000Y49800D03*
Y64800D03*
X124409Y89764D03*
Y84252D03*
G54D14*
X27556Y136813D03*
Y187792D03*
G54D15*
X56693Y84646D03*
Y79046D03*
X57480Y32284D03*
Y37884D03*
X64961Y32284D03*
Y37884D03*
X64173Y84646D03*
Y79046D03*
X71654Y84646D03*
Y79046D03*
X79921Y32284D03*
Y37884D03*
X72441Y32284D03*
Y37884D03*
X80315Y94488D03*
Y100088D03*
X72835Y100000D03*
Y94400D03*
X95276Y94488D03*
Y100088D03*
X87795Y100000D03*
Y94400D03*
X131102Y60236D03*
Y65836D03*
X131102Y131014D03*
Y136614D03*
X150787Y60236D03*
Y65836D03*
X150787Y131014D03*
Y136614D03*
G54D16*
X60236Y159842D03*
G54D17*
X58961Y50094D03*
Y52064D03*
Y54034D03*
Y56004D03*
Y57974D03*
Y59944D03*
Y61914D03*
Y63874D03*
X78441Y57974D03*
Y56004D03*
Y54034D03*
Y52064D03*
Y50094D03*
Y63874D03*
Y61914D03*
Y59944D03*
G54D18*
X68701Y56984D03*
G54D19*
X69681Y47244D03*
X67721D03*
X65751D03*
X63781D03*
X61811D03*
Y66734D03*
X63781D03*
X65751D03*
X67721D03*
X69681D03*
X75591Y47244D03*
X73621D03*
X71651D03*
Y66734D03*
X73621D03*
X75591D03*
M02*
