G04 ================== begin FILE IDENTIFICATION RECORD ==================*
G04 Layout Name:  frontend.brd*
G04 Film Name:    frontendTOP*
G04 File Format:  Gerber RS274X*
G04 File Origin:  Cadence Allegro 17.2-S022*
G04 Origin Date:  Mon Apr 16 21:59:06 2018*
G04 *
G04 Layer:  ETCH/TOP*
G04 Layer:  PIN/TOP*
G04 Layer:  VIA CLASS/TOP*
G04 *
G04 Offset:    (0.0000 0.0000)*
G04 Mirror:    No*
G04 Mode:      Positive*
G04 Rotation:  0*
G04 FullContactRelief:  No*
G04 UndefLineWidth:     0.0000*
G04 ================== end FILE IDENTIFICATION RECORD ====================*
%FSLAX25Y25*MOIN*%
%IR0*IPPOS*OFA0.00000B0.00000*MIA0B0*SFA1.00000B1.00000*%
%ADD23R,.062988X.062988*%
%ADD11R,.153539X.04724*%
%ADD25R,.106299X.0315*%
%ADD10C,.02*%
%ADD14C,.03*%
%ADD15R,.03937X.023618*%
%ADD28R,.023618X.03937*%
%ADD20R,.027559X.062988*%
%AMMACRO17*
21,1,.037988,.032012,0.0,0.0,135.*%
%ADD17MACRO17*%
%ADD26R,.059059X.059059*%
%ADD24R,.011811X.027559*%
%ADD21R,.027559X.011811*%
%ADD31R,.019689X.0315*%
%ADD29R,.05X.05*%
%ADD13C,.062012*%
%ADD30R,.16535X.122051*%
%ADD12R,.062012X.062012*%
%ADD27R,.01102X.025201*%
%ADD22R,.025201X.01102*%
%ADD32R,.23622X.153539*%
%ADD18R,.032012X.037988*%
%AMMACRO16*
21,1,.037988,.032012,0.0,0.0,45.*%
%ADD16MACRO16*%
%ADD19R,.037988X.032012*%
%ADD33C,.012012*%
%ADD34C,.005*%
%ADD35C,.01*%
%ADD36C,.025*%
%ADD37C,.014*%
%ADD39C,.078008*%
%ADD38C,.072031*%
G75*
%LPD*%
G75*
G36*
G01X55Y46D02*
Y62385D01*
X15551D01*
G03X16552Y63386I0J1001D01*
G01Y63647D01*
X21244D01*
X24262Y60629D01*
X24201Y60500D01*
G03X24397Y59363I904J-430D01*
G01X26661Y57099D01*
G03X27605Y56835I707J708D01*
G02X28091Y56349I95J-391D01*
G03X28356Y55405I972J-237D01*
G01X29226Y54534D01*
Y45815D01*
X39712Y35329D01*
X44998D01*
X45080Y35411D01*
X51952D01*
Y34181D01*
X62482D01*
Y21132D01*
X36192D01*
Y5936D01*
X68701D01*
Y21079D01*
X71815D01*
Y18022D01*
G03X71566Y17361I752J-661D01*
G01Y14159D01*
G03X72567Y13158I1001J0D01*
G01X73956D01*
X73975Y13155D01*
G03X74957I491J2605D01*
G01X74976Y13158D01*
X76365D01*
G03X77366Y14159I0J1001D01*
G01Y17361D01*
G03X77117Y18022I-1001J0D01*
G01Y21079D01*
X77536D01*
Y21220D01*
X83218D01*
Y21291D01*
X92171D01*
Y5576D01*
X104703D01*
Y27518D01*
X104722Y27558D01*
G03X104816Y27982I-907J424D01*
G01Y31132D01*
G03X104722Y31556I-1001J0D01*
G01X104703Y31596D01*
Y32111D01*
X104026D01*
X104007Y32114D01*
G03X103815Y32133I-194J-982D01*
G01X101297D01*
Y35567D01*
X107270D01*
G03X107931Y35318I661J752D01*
G01X116731D01*
G03X117417Y35591I0J1001D01*
G01X141950D01*
Y40956D01*
X141698D01*
G02X141380Y41604I0J402D01*
G03X141588Y42216I-792J612D01*
G01Y45417D01*
G03X140923Y46360I-1001J0D01*
G01X140789Y46407D01*
Y57196D01*
X141000Y57407D01*
Y60462D01*
X141871Y61333D01*
G03X142135Y62277I-708J707D01*
G02X142621Y62763I391J95D01*
G03X143565Y63028I237J972D01*
G01X145829Y65291D01*
G03X146025Y66429I-708J708D01*
G01X145964Y66557D01*
X150643Y71235D01*
G02X151251Y71188I284J-284D01*
G03X152059Y70778I808J590D01*
G01X160858D01*
G03X161859Y71779I0J1001D01*
G01Y75577D01*
G03X161359Y76444I-1001J0D01*
G01Y83990D01*
X161271Y84078D01*
Y86286D01*
G03X161165Y86943I-2101J0D01*
G01X161155Y86974D01*
Y87443D01*
G02X161498Y87585I201J0D01*
G01X161808Y87276D01*
X161816Y87205D01*
G03X166803Y87509I2487J265D01*
G02X167489Y87800I402J6D01*
G01X168701Y86587D01*
Y79983D01*
X168687Y79948D01*
G03X168617Y79579I930J-369D01*
G01Y76429D01*
G03X168658Y76145I1001J0D01*
G01X168666Y76117D01*
Y69655D01*
X168658Y69627D01*
G03X168617Y69343I960J-285D01*
G01Y66193D01*
G03X168687Y65824I1001J0D01*
G01X168701Y65789D01*
Y64425D01*
G03X172503I1901J-1625D01*
G01Y65789D01*
X172517Y65824D01*
G03X172587Y66193I-930J369D01*
G01Y69343D01*
G03X172585Y69400I-1001J-7D01*
G01Y69612D01*
X173431D01*
X173440Y69603D01*
X176098D01*
Y69392D01*
G03X176097Y69343I999J-49D01*
G01Y66193D01*
G03X177098Y65192I1001J0D01*
G01X179066D01*
G03X180067Y66193I0J1001D01*
G01Y69343D01*
G03X180007Y69685I-1001J1D01*
G01X179995Y69718D01*
Y76054D01*
X180007Y76087D01*
G03X180067Y76429I-941J341D01*
G01Y79579D01*
G03X179997Y79948I-1001J1D01*
G01X179983Y79983D01*
Y85844D01*
G03X176137Y85898I-1901J1625D01*
G01X176181Y85843D01*
Y85456D01*
G02X175580Y85107I-402J0D01*
G03X173104I-1238J-2173D01*
G02X172503Y85456I-199J349D01*
G01Y88162D01*
X162243Y98423D01*
X161109D01*
X161054Y98536D01*
G03X160154Y99098I-899J-439D01*
G01X157531D01*
Y99546D01*
X157731Y99746D01*
Y101116D01*
X162828D01*
G03X163772Y101781I0J1001D01*
G01X163819Y101915D01*
X180443D01*
Y101654D01*
G03X181443Y100654I1001J0D01*
G01X196900D01*
Y46D01*
X55D01*
G37*
G36*
G01X16552Y67849D02*
Y68110D01*
G03X15551Y69111I-1001J0D01*
G01X55D01*
Y127739D01*
X15551D01*
G03X16552Y128740I0J1001D01*
G01Y129001D01*
X18106D01*
X36691Y147586D01*
Y149578D01*
X41789D01*
G03X42732Y150243I0J1001D01*
G01X42779Y150377D01*
X45696D01*
G03X45837Y150189I866J501D01*
G02X45556Y149510I-292J-277D01*
G01Y129155D01*
X46504D01*
X46536Y129144D01*
G03X46861Y129090I325J947D01*
G01X50062D01*
G03X50387Y129144I0J1001D01*
G01X50419Y129155D01*
X61787D01*
Y148213D01*
X63948D01*
Y150309D01*
X67135D01*
X67203Y150377D01*
X68247D01*
X68294Y150243D01*
G03X69237Y149578I943J335D01*
G01X76066D01*
X129245Y96399D01*
X131763D01*
X131810Y96265D01*
G03X132754Y95600I943J335D01*
G01X137769D01*
Y93690D01*
X147274Y84185D01*
X149854D01*
G03X150706Y83710I851J526D01*
G01X152675D01*
G03X153676Y84711I0J1001D01*
G01Y85598D01*
X153685Y85629D01*
G03Y86943I-1995J657D01*
G01X153676Y86974D01*
Y87861D01*
G03X153663Y88016I-1001J-1D01*
G01X153661Y88031D01*
Y88248D01*
X157199D01*
Y88031D01*
X157197Y88016D01*
G03X157185Y87861I989J-153D01*
G01Y86974D01*
X157175Y86943D01*
G03X157069Y86286I1995J-657D01*
G01Y82344D01*
X157157Y82256D01*
Y76578D01*
X152059D01*
G03X151251Y76168I0J-1001D01*
G02X150643Y76121I-324J237D01*
G01X146086Y80677D01*
X146106Y80781D01*
G03X145829Y81670I-984J182D01*
G01X143565Y83934D01*
G03X142621Y84199I-707J-708D01*
G02X142135Y84685I-95J391D01*
G03X141871Y85629I-972J237D01*
G01X139607Y87893D01*
G03X138192I-708J-708D01*
G01X136899Y86600D01*
X135583D01*
X135458Y86725D01*
Y88147D01*
X101509D01*
Y121325D01*
X85117D01*
Y122879D01*
G03X81315I-1901J1625D01*
G01Y121325D01*
X72865D01*
Y126786D01*
G03X67563I-2651J0D01*
G01Y121325D01*
X45337D01*
Y110646D01*
X39218D01*
Y88109D01*
X45337D01*
Y81201D01*
X41501D01*
X41474Y81208D01*
G03X38627Y77562I-674J-2408D01*
G02X38278Y76961I-349J-199D01*
G01X34443D01*
X34250Y76768D01*
X32933D01*
X31641Y78061D01*
G03X30225I-708J-708D01*
G01X27961Y75797D01*
G03X27697Y74853I708J-707D01*
G02X27211Y74367I-391J-95D01*
G03X26267Y74103I-237J-972D01*
G01X24003Y71839D01*
G03X23807Y70702I708J-708D01*
G01X23868Y70573D01*
X21144Y67849D01*
X16552D01*
G37*
G36*
G01X149014Y88387D02*
X141971Y95430D01*
Y95684D01*
X142068Y95743D01*
G03X142554Y96601I-515J858D01*
G01Y100399D01*
G03X141553Y101400I-1001J0D01*
G01X132754D01*
G03X131810Y100735I0J-1001D01*
G01X131763Y100601D01*
X130985D01*
X79037Y152549D01*
Y154377D01*
G03X78036Y155378I-1001J0D01*
G01X69237D01*
G03X68294Y154713I0J-1001D01*
G01X68247Y154579D01*
X65463D01*
X65395Y154511D01*
X63948D01*
Y158518D01*
X55760D01*
Y156279D01*
X54409D01*
X51151Y159537D01*
Y161041D01*
X51268Y161095D01*
G03X51837Y161836I-418J910D01*
G01X51866Y162003D01*
X54637D01*
X54719Y161921D01*
X55843D01*
X55897Y161804D01*
G03X56806Y161220I910J417D01*
G01X60606D01*
G03X61606Y162221I0J1001D01*
G01Y165423D01*
G03X60606Y166424I-1001J0D01*
G01X56806D01*
G03X55931Y165908I0J-1001D01*
G01X55874Y165805D01*
X51866D01*
X51837Y165972D01*
G03X50850Y166804I-986J-169D01*
G01X42051D01*
G03X41065Y165972I0J-1001D01*
G01X41036Y165805D01*
X34671D01*
X13451Y187025D01*
Y191039D01*
G03X12950Y191539I-501J0D01*
G01X6750D01*
G03X6249Y191039I0J-501D01*
G01Y184838D01*
G03X6750Y184337I501J0D01*
G01X10763D01*
X33096Y162003D01*
X41036D01*
X41065Y161836D01*
G03X42051Y161004I986J169D01*
G01X47349D01*
Y157963D01*
X49546Y155765D01*
G02X49262Y155080I-284J-284D01*
G01X46562D01*
G03X45696Y154579I0J-1001D01*
G01X42779D01*
X42732Y154713D01*
G03X41789Y155378I-943J-335D01*
G01X32990D01*
G03X31989Y154377I0J-1001D01*
G01Y150579D01*
G03X32489Y149712I1001J0D01*
G01Y149326D01*
X17048Y133885D01*
G02X16416Y133967I-284J284D01*
G03X15551Y134465I-865J-503D01*
G01X55D01*
Y196828D01*
X196900D01*
Y107379D01*
X181443D01*
G03X180443Y106378I0J-1001D01*
G01Y106117D01*
X163819D01*
X163772Y106251D01*
G03X162828Y106917I-943J-335D01*
G01X154029D01*
G03X153028Y105916I0J-1001D01*
G01Y102117D01*
G03X153329Y101402I1001J0D01*
G01Y99098D01*
X150706D01*
G03X149705Y98097I0J-1001D01*
G01Y94946D01*
G03X149721Y94768I1001J1D01*
G01X149724Y94750D01*
Y94531D01*
X149642D01*
Y88387D01*
X149014D01*
G37*
G36*
G01X37193Y20131D02*
X67700D01*
Y6937D01*
X37193D01*
Y20131D01*
G37*
G36*
G01X41452Y39531D02*
X33428Y47555D01*
Y54535D01*
X34721Y55827D01*
G03Y57243I-708J708D01*
G01X32457Y59506D01*
G03X31513Y59771I-707J-708D01*
G02X31027Y60257I-95J391D01*
G03X30763Y61201I-972J237D01*
G01X28499Y63465D01*
G03X27361Y63661I-708J-708D01*
G01X27233Y63600D01*
X25035Y65798D01*
X26839Y67602D01*
X26967Y67541D01*
G03X28105Y67737I430J904D01*
G01X30369Y70001D01*
G03X30633Y70945I-708J707D01*
G02X31119Y71431I391J95D01*
G03X32063Y71696I237J972D01*
G01X32933Y72566D01*
X35990D01*
X36183Y72759D01*
X45337D01*
Y71645D01*
X69976D01*
Y71384D01*
G03X70977Y70383I1001J0D01*
G01X74179D01*
G03X75165Y71216I0J1001D01*
G01X75194Y71383D01*
X85055D01*
G03X88569Y71645I1625J1901D01*
G01X101509D01*
Y81723D01*
X135458D01*
Y82398D01*
X136898D01*
X137769Y81527D01*
G03X138713Y81263I707J708D01*
G02X139199Y80777I95J-391D01*
G03X139464Y79833I972J-237D01*
G01X141728Y77569D01*
G03X142865Y77373I708J708D01*
G01X142993Y77434D01*
X143969Y76458D01*
X144363D01*
X147143Y73678D01*
X142993Y69528D01*
X142865Y69589D01*
G03X141728Y69393I-430J-904D01*
G01X139464Y67129D01*
G03X139199Y66185I708J-707D01*
G02X138713Y65699I-391J-95D01*
G03X137769Y65435I-237J-972D01*
G01X135506Y63171D01*
G03Y61756I708J-708D01*
G01X136798Y60463D01*
Y59145D01*
X136587Y58934D01*
Y46407D01*
X136454Y46360D01*
G03X135788Y45417I335J-943D01*
G01Y42216D01*
G03X135997Y41604I1001J-1D01*
G02X135679Y40956I-318J-246D01*
G01X117280D01*
X117233Y40983D01*
G03X116731Y41118I-502J-866D01*
G01X107931D01*
G03X107270Y40869I-1J-1001D01*
G01X101297D01*
Y50539D01*
X104000D01*
G03Y55841I0J2651D01*
G01X101297D01*
Y55855D01*
X94097D01*
Y62991D01*
G03X90295I-1901J1625D01*
G01Y55899D01*
X90251Y55855D01*
X82419D01*
Y64198D01*
X83494Y65274D01*
X83565Y65281D01*
G03X80813Y68032I-264J2487D01*
G01X80806Y67962D01*
X78617Y65773D01*
Y57560D01*
X78537Y57480D01*
Y56498D01*
X77894Y55855D01*
X66358D01*
G03X66349Y55876I-925J-382D01*
G01Y64939D01*
X52456D01*
Y42808D01*
X53464D01*
X53472Y42807D01*
G03X53559Y42804I84J997D01*
G01X56761D01*
G03X56847Y42807I2J1001D01*
G01X56856Y42808D01*
X62050D01*
X62059Y42807D01*
G03X62146Y42804I84J997D01*
G01X62482D01*
Y40311D01*
X61802D01*
G03X61348Y40203I0J-1001D01*
G01X61306Y40181D01*
X51952D01*
Y39613D01*
X43340D01*
X43258Y39531D01*
X41452D01*
G37*
G36*
G01X65348Y43809D02*
X53457D01*
Y63938D01*
X65348D01*
Y43809D01*
G37*
G36*
G01X50458Y89110D02*
X40219D01*
Y109645D01*
X50458D01*
Y89110D01*
G37*
G36*
G01X46557Y130156D02*
Y148509D01*
X51363D01*
G03X54935Y148507I1787J900D01*
G01X54937Y148509D01*
X60786D01*
Y130156D01*
X46557D01*
G37*
G36*
G01X87070Y82781D02*
X74870D01*
Y86657D01*
X87070D01*
Y82781D01*
G37*
G36*
G01X93172Y6577D02*
Y31110D01*
X103702D01*
Y6577D01*
X93172D01*
G37*
G36*
G01X86258Y35439D02*
Y41353D01*
X86350Y41412D01*
G03X86690Y41782I-544J841D01*
G01X86747Y41888D01*
X88668D01*
Y34905D01*
X86747D01*
X86690Y35011D01*
G03X86350Y35380I-883J-473D01*
G01X86258Y35439D01*
G37*
G36*
G01X88693Y97376D02*
Y116143D01*
X100425D01*
Y97376D01*
X88693D01*
G37*
%LPC*%
G75*
G36*
G01X145168Y158597D02*
X128632D01*
G02X128482Y158608I-2J1001D01*
G01X128467Y158610D01*
X113366D01*
Y173064D01*
X113380D01*
Y174324D01*
X113498D01*
Y192099D01*
X145964D01*
Y174324D01*
X146409D01*
Y173072D01*
X146376D01*
Y158610D01*
X145333D01*
X145318Y158608D01*
G02X145168Y158597I-148J990D01*
G37*
G54D39*
X69850Y187938D03*
X79850D03*
X89850D03*
X99850D03*
G54D38*
X19850D03*
X29850D03*
X39850D03*
X49850D03*
X59850D03*
%LPD*%
G75*
G36*
G01X114367Y159611D02*
Y172063D01*
X145375D01*
Y159611D01*
X114367D01*
G37*
G36*
G01X144963Y175328D02*
X114499D01*
Y191098D01*
X144963D01*
Y175328D01*
G37*
G54D10*
G01X40800Y78800D02*
X50813D01*
X54454Y82441D01*
Y82740D01*
X9843Y9843D03*
X19685D03*
Y19685D03*
X9843D03*
Y29528D03*
X19685D03*
Y39370D03*
X9843D03*
X19685Y49213D03*
X9843D03*
X19685Y59055D03*
Y88583D03*
X9843D03*
X19685Y98425D03*
Y108268D03*
X9843D03*
Y98425D03*
X19685Y118110D03*
X9843Y157480D03*
X19685D03*
Y167323D03*
X9843D03*
Y177165D03*
X29528Y9843D03*
Y19685D03*
Y29528D03*
X34843Y24409D03*
X29528Y39370D03*
X35800Y67900D03*
X29528Y88583D03*
Y108268D03*
Y98425D03*
X36220Y96260D03*
X29528Y118110D03*
X39370D03*
X29528Y127953D03*
Y137795D03*
X38189Y139370D03*
X37795Y132283D03*
X42913Y28346D03*
X44685Y49409D03*
X42700Y67900D03*
X49400D03*
X56500D03*
X49700Y61200D03*
X42700D03*
X53150Y149409D03*
X58661Y174016D03*
X60630Y28150D03*
X73425Y34243D03*
X74126Y39961D03*
X62400Y68100D03*
X69400Y61400D03*
X69300Y65100D03*
X73900Y65200D03*
X68800Y87900D03*
X70719Y85893D03*
X68800Y83900D03*
X72600Y84000D03*
X72700Y88000D03*
X59800Y152500D03*
Y155100D03*
X84100Y36600D03*
X80500Y40200D03*
X80512Y36614D03*
X84000Y40300D03*
X82303Y38396D03*
X83661Y64173D03*
X98425Y157480D03*
X111811Y5906D03*
X112402Y13189D03*
Y19685D03*
X108268Y49213D03*
X118110D03*
Y59055D03*
X108268D03*
Y68898D03*
X118110D03*
X101969Y58858D03*
X107874Y101378D03*
X118110Y118110D03*
X108268Y127953D03*
X109252Y110433D03*
X118110Y137795D03*
X108268Y147638D03*
X118110D03*
X108268Y157480D03*
X127953Y9843D03*
X137795D03*
X127953Y19685D03*
X137795D03*
X127953Y49213D03*
Y59055D03*
Y68898D03*
Y78740D03*
X118898Y74803D03*
X137795Y118110D03*
X127953Y127953D03*
X137795D03*
X127953Y137795D03*
X137795D03*
X127953Y147638D03*
X147638Y9843D03*
X157480D03*
X147638Y19685D03*
X157480D03*
X147638Y29528D03*
X157480D03*
X147638Y39370D03*
X157480D03*
X147638Y49213D03*
X157480D03*
Y59055D03*
X147638Y118110D03*
X157480D03*
X147638Y127953D03*
X157480D03*
X147638Y137795D03*
Y147638D03*
X157480D03*
Y157480D03*
Y167323D03*
Y177165D03*
X149409Y183858D03*
X177165Y9843D03*
X167323D03*
X177165Y19685D03*
X167323D03*
Y29528D03*
X177165D03*
X167323Y39370D03*
X177165D03*
X167323Y49213D03*
X177165D03*
X167323Y59055D03*
X177165D03*
Y108268D03*
Y98425D03*
Y118110D03*
X167323D03*
X177165Y127953D03*
X167323D03*
X177165Y147638D03*
X167323D03*
X177165Y157480D03*
X167323D03*
X177165Y167323D03*
X167323D03*
Y177165D03*
X177165D03*
X187008Y9843D03*
Y19685D03*
Y29528D03*
Y39370D03*
Y49213D03*
Y68898D03*
Y59055D03*
Y78740D03*
Y127953D03*
Y137795D03*
Y147638D03*
Y157480D03*
Y167323D03*
Y187008D03*
Y177165D03*
G54D20*
X59844Y153394D03*
G54D11*
X7874Y54921D03*
Y65748D03*
Y76575D03*
Y120275D03*
Y141929D03*
Y131102D03*
X189120Y93189D03*
Y104016D03*
Y114843D03*
G54D12*
X9850Y187938D03*
G54D30*
X136900Y165700D03*
G54D21*
X56300Y150441D03*
Y152410D03*
Y154378D03*
Y156347D03*
X76034Y87862D03*
Y85893D03*
Y83925D03*
X65404D03*
Y85893D03*
Y87862D03*
X63387Y156347D03*
Y154378D03*
Y152410D03*
Y150441D03*
G54D22*
X77185Y35443D03*
Y37412D03*
Y39380D03*
Y41349D03*
X87421D03*
Y39380D03*
Y37412D03*
Y35443D03*
G54D13*
X19850Y187938D03*
X29850D03*
X39850D03*
X49850D03*
X59850D03*
X69850D03*
X79850D03*
X89850D03*
X99850D03*
G54D31*
X155430Y86286D03*
X151690D03*
Y96522D03*
X155430D03*
X178082Y67768D03*
X174342D03*
X170602D03*
X159170Y86286D03*
X170602Y78004D03*
X174342D03*
X178082D03*
X159170Y96522D03*
G54D32*
X169577Y137747D03*
Y188731D03*
G54D14*
X40188Y11426D03*
X40800Y78800D03*
X46492Y11426D03*
X52796D03*
X59100D03*
X56342Y60282D03*
X45310Y105986D03*
X42946Y99288D03*
X55948Y133172D03*
Y139082D03*
Y145386D03*
X64616Y11426D03*
X61858Y60282D03*
X64977Y104117D03*
X70214Y126786D03*
X95742Y10244D03*
Y24034D03*
Y16942D03*
X83300Y67768D03*
X92196Y64616D03*
X86680Y73284D03*
X83134Y103213D03*
X91802Y100470D03*
Y106774D03*
Y113472D03*
X83216Y124504D03*
X104000Y53190D03*
X117806Y188332D03*
X129626D03*
X135536D03*
X124110Y178482D03*
X130020D03*
X135536D03*
X123716Y188332D03*
X126474Y183210D03*
X132384D03*
X170602Y62800D03*
X178082Y87469D03*
X164302D03*
X174342Y82934D03*
G54D23*
X70719Y85893D03*
G54D33*
G01X77185Y37412D02*
X72001D01*
X72000Y37411D01*
X69000D01*
G54D24*
X72687Y80579D03*
X70719D03*
X68750D03*
Y91208D03*
X70719D03*
X72687D03*
G54D15*
X39400Y24030D03*
Y18518D03*
G54D34*
G01X75749Y187938D02*
X79850D01*
G01X69850Y183837D02*
Y187938D01*
G01D02*
Y192039D01*
G01X65749Y187938D02*
X69850D01*
G01D02*
X73951D01*
G01X95749D02*
X99850D01*
G01X89850Y183837D02*
Y187938D01*
G01D02*
Y192039D01*
G01X85749Y187938D02*
X89850D01*
G01D02*
X93951D01*
G01X79850Y183837D02*
Y187938D01*
G01D02*
Y192039D01*
G01Y187938D02*
X83951D01*
G01X99850Y183837D02*
Y187938D01*
G01D02*
Y192039D01*
G01Y187938D02*
X103951D01*
G54D16*
X27580Y60282D03*
X31538Y56324D03*
X138688Y84710D03*
X142646Y80752D03*
G54D25*
X98500Y29557D03*
Y38218D03*
G54D35*
G01X43652Y163904D02*
X33884D01*
X9850Y187938D01*
G01X48856Y82740D02*
X43835D01*
G01X61858Y85893D02*
X65404D01*
G01Y87862D02*
X62252Y91014D01*
X54454D01*
G01Y98894D02*
X59113D01*
X66799Y91208D01*
X68750D01*
G01X54724Y157874D02*
X56252Y156347D01*
X56300D01*
G01Y150441D02*
X54181D01*
X53150Y149409D01*
G01X49250Y163904D02*
Y158750D01*
X53622Y154378D01*
X56300D01*
G01X49250Y163904D02*
X55424D01*
X55506Y163822D01*
X58706D01*
G01X77185Y35443D02*
X74626D01*
X73425Y34243D01*
G01X77185Y39380D02*
X74990D01*
X74409Y39961D01*
X74126D01*
G01X79350Y43514D02*
Y48557D01*
X77618Y50289D01*
Y53190D01*
G01X77185Y41349D02*
X77127D01*
X76346Y42130D01*
X72619D01*
X69344Y45405D01*
Y45704D01*
G01X69400Y58800D02*
X69426Y58774D01*
G01D02*
Y53584D01*
G01X83300Y67768D02*
X80518Y64986D01*
Y56773D01*
X80438Y56693D01*
Y55711D01*
X77917Y53190D01*
X77618D01*
G01X66980Y73284D02*
Y70619D01*
G01X72687Y80579D02*
Y76593D01*
X72578Y76484D01*
Y73284D01*
G01X86680D02*
X72578D01*
G01X76034Y87862D02*
Y89753D01*
G01Y87862D02*
Y85893D01*
G01X70575Y96042D02*
X70719Y95898D01*
Y91208D01*
G01X64977Y99242D02*
Y104117D01*
G01X72687Y91208D02*
Y94140D01*
X77536Y98989D01*
Y99288D01*
G01D02*
Y103886D01*
X77618Y103968D01*
Y107168D01*
G01D02*
Y115048D01*
G01X64616Y119776D02*
Y122982D01*
G01X63387Y156347D02*
X65402D01*
G01X66064Y155906D02*
Y155218D01*
G01X65157Y149409D02*
X64126Y150441D01*
X63387D01*
G01X66064Y155218D02*
X65224Y154378D01*
X63387D01*
G01X81319Y33278D02*
Y30718D01*
X80069Y29468D01*
X80064D01*
G01D02*
X79350Y30182D01*
Y33278D01*
G01X81319Y43514D02*
Y47734D01*
X86775Y53190D01*
X87074D01*
G01X83287Y43514D02*
Y46074D01*
X84887Y47674D01*
G01X96625Y53190D02*
X96924D01*
G01X87074D02*
X90274D01*
X92196Y55112D01*
Y64616D01*
G01X98500Y79506D02*
X104506D01*
G01X83134Y99288D02*
Y103213D01*
G01X83216Y107168D02*
Y103295D01*
X83134Y103213D01*
G01X83216Y115048D02*
Y124504D01*
G01X164302Y87469D02*
X160433Y91339D01*
X153999D01*
X151690Y93647D01*
Y96522D01*
G01X170602Y67768D02*
Y62800D01*
G01X159170Y96522D02*
X161455Y96522D01*
X170602Y87375D01*
Y78004D01*
G01D02*
Y75129D01*
X174227Y71504D01*
X177221D01*
X178082Y70643D01*
Y67768D01*
G01X174342Y78004D02*
Y82934D01*
G01X178082Y78004D02*
Y87469D01*
G54D26*
X82303Y38396D03*
G54D17*
X27186Y70920D03*
X31144Y74878D03*
X138688Y62252D03*
X142646Y66210D03*
G54D36*
G01X54454Y82740D02*
X58705D01*
X61858Y85893D01*
G01X74466Y24428D02*
Y15760D01*
G01Y24428D02*
X69310D01*
X68998Y24116D01*
X65798D01*
G01X76034Y89753D02*
X79659Y93378D01*
X98500D01*
G01X70575Y99242D02*
X70575Y103348D01*
X70132Y103791D01*
Y106692D01*
G01X70575Y99242D02*
X70575Y96042D01*
G01X70132Y112290D02*
Y116494D01*
X70214Y116576D01*
Y119776D01*
G01D02*
Y126786D01*
G01X80064Y29468D02*
Y24428D01*
G01X84887Y47674D02*
X91109D01*
X96625Y53190D01*
G01X98500Y38218D02*
X109532D01*
G01X87421Y37412D02*
X88227Y38218D01*
G01D02*
X98500D01*
G01X96924Y53190D02*
X104000D01*
G54D18*
X36248Y91014D03*
X40188Y152478D03*
X34590D03*
X55160Y45704D03*
X49562D03*
X55160Y53584D03*
X49562D03*
X48856Y82740D03*
X54454D03*
X48856Y74860D03*
X54454D03*
X41846Y91014D03*
X48856D03*
X54454D03*
X48856Y98894D03*
X54454D03*
X48462Y131990D03*
X42864D03*
X48462Y139476D03*
X42864D03*
X49250Y163904D03*
X43652D03*
X74466Y24428D03*
X63402Y37411D03*
X69000D03*
X69344Y45704D03*
X63746D03*
X63828Y53584D03*
X69426D03*
X66980Y73284D03*
X72578D03*
X64977Y99242D03*
X70575D03*
X77536Y99288D03*
X77618Y107168D03*
X64616Y119776D03*
X70214D03*
X77618Y115048D03*
X76436Y152478D03*
X70838D03*
X80064Y24428D03*
X85498Y84710D03*
X91096D03*
X98418Y106380D03*
X83134Y99288D03*
X83216Y107168D03*
X98418Y114260D03*
X83216Y115048D03*
X102046Y15366D03*
X107644D03*
X102046Y23246D03*
X107644D03*
X109532Y38218D03*
X115130D03*
X105986Y84710D03*
X111584D03*
X104016Y106380D03*
Y114260D03*
X134354Y98500D03*
X153660Y73678D03*
X155630Y104016D03*
X139952Y98500D03*
X148932Y189120D03*
X143334D03*
X159258Y73678D03*
X161228Y104016D03*
G54D27*
X79350Y43514D03*
X81319D03*
X83287D03*
X85256D03*
Y33278D03*
X83287D03*
X81319D03*
X79350D03*
G54D37*
G01X7874Y65748D02*
X22114D01*
G01X7874Y131102D02*
X17236D01*
X34590Y148456D01*
Y152478D01*
G01X55160Y37512D02*
X44210Y37512D01*
X44128Y37430D01*
X40582D01*
X31327Y46685D01*
Y56113D01*
X31538Y56324D01*
G01X22114Y65748D02*
X27580Y60282D01*
G01X27186Y70920D02*
X22114Y65848D01*
Y65748D01*
G01X48856Y74860D02*
X35313D01*
X35120Y74667D01*
X31355D01*
X31144Y74878D01*
G01X63402Y37411D02*
X58661D01*
X58560Y37512D01*
X55160D01*
G01X54454Y74860D02*
X58430D01*
X65404Y81834D01*
Y83925D01*
G01X48462Y152478D02*
X53354D01*
X53422Y152410D01*
X56300D01*
G01X48462Y152478D02*
X40188D01*
G01X70838D02*
X66333D01*
X66265Y152410D01*
X63387D01*
G01X134354Y98500D02*
X130115D01*
X76436Y152179D01*
Y152478D01*
G01X91096Y84710D02*
X94706D01*
X95100Y85104D01*
X98500D01*
G01D02*
X102491D01*
X102885Y84710D01*
X105986D01*
G01X115130Y38218D02*
X122928D01*
G01X111584Y84710D02*
X115506D01*
X115588Y84792D01*
X118988D01*
G01X122928Y38218D02*
X130808D01*
G01D02*
X138688D01*
G01X118988Y84792D02*
X134419D01*
X134712Y84499D01*
X138477D01*
X138688Y84710D01*
G01Y43816D02*
Y58065D01*
X138899Y58276D01*
Y62041D01*
X138688Y62252D01*
G01X142646Y66210D02*
X150114Y73678D01*
G01X139952Y98500D02*
X139870Y98418D01*
Y94560D01*
X148144Y86286D01*
X151690D01*
G01X150114Y73678D02*
X153660D01*
G01X142646Y80752D02*
X144839Y78559D01*
X145233D01*
X150114Y73678D01*
G01X155430Y96522D02*
X155430Y100416D01*
X155630Y100616D01*
Y104016D01*
G01X159258Y73678D02*
Y83123D01*
X159170Y83211D01*
Y86286D01*
G01X161228Y104016D02*
X189120D01*
G54D19*
X47280Y18518D03*
Y24116D03*
X55948Y18518D03*
Y24116D03*
X55160Y31914D03*
Y37512D03*
X48462Y146880D03*
Y152478D03*
X58706Y169420D03*
Y163822D03*
X74466Y10162D03*
Y15760D03*
X65798Y18518D03*
Y24116D03*
X77618Y53190D03*
Y58788D03*
X70132Y106692D03*
Y112290D03*
X96924Y53190D03*
Y58788D03*
X87074Y53190D03*
Y58788D03*
X98500Y85104D03*
Y79506D03*
Y93378D03*
Y98976D03*
X118988Y79194D03*
Y84792D03*
X138688Y38218D03*
Y43816D03*
X122928Y38218D03*
Y43816D03*
X130808Y38218D03*
Y43816D03*
G54D28*
X107952Y8668D03*
X102440D03*
G54D29*
X117018Y169420D03*
Y177822D03*
M02*
