G04 ================== begin FILE IDENTIFICATION RECORD ==================*
G04 Layout Name:  frontend.brd*
G04 Film Name:    frontendINNER2*
G04 File Format:  Gerber RS274X*
G04 File Origin:  Cadence Allegro 17.2-S022*
G04 Origin Date:  Mon Apr 16 21:59:07 2018*
G04 *
G04 Layer:  VIA CLASS/LAYER_2*
G04 Layer:  PIN/LAYER_2*
G04 Layer:  ETCH/LAYER_2*
G04 Layer:  BOARD GEOMETRY/OUTLINE*
G04 *
G04 Offset:    (0.0000 0.0000)*
G04 Mirror:    No*
G04 Mode:      Positive*
G04 Rotation:  0*
G04 FullContactRelief:  No*
G04 UndefLineWidth:     0.0000*
G04 ================== end FILE IDENTIFICATION RECORD ====================*
%FSLAX25Y25*MOIN*%
%IR0*IPPOS*OFA0.00000B0.00000*MIA0B0*SFA1.00000B1.00000*%
%ADD10C,.015*%
%ADD13C,.025*%
%ADD12C,.062012*%
%ADD11R,.062012X.062012*%
%ADD14C,.003941*%
%ADD15C,.035016*%
%ADD17C,.045016*%
%ADD16C,.072031*%
G75*
%LPD*%
G75*
G36*
G01X2600Y2607D02*
Y195667D01*
X195512D01*
Y2607D01*
X2600D01*
G37*
%LPC*%
G75*
G36*
G01X6249Y184838D02*
Y191039D01*
G02X6750Y191539I501J0D01*
G01X12950D01*
G02X13451Y191039I0J-501D01*
G01Y184838D01*
G02X12950Y184337I-501J0D01*
G01X6750D01*
G02X6249Y184838I0J501D01*
G37*
G36*
G01X61106Y153934D02*
G03Y153666I150J-134D01*
G02X58494I-1306J-1166D01*
G03Y153934I-150J134D01*
G02X61106I1306J1166D01*
G37*
G36*
G01X84806Y66096D02*
G03X84811Y65494I269J-299D01*
G02X82272Y65238I-1149J-1321D01*
G03X82157Y65829I-319J245D01*
G02X84806Y66096I1143J1939D01*
G37*
G36*
G01X84935Y38820D02*
G03X84954Y38129I215J-340D01*
G02X82637Y35638I-854J-1529D01*
G03X81967Y35641I-336J-221D01*
G02X79538Y38069I-1455J973D01*
G03X79536Y38739I-223J334D01*
G02X81894Y41259I964J1461D01*
G03X82548Y41278I320J243D01*
G02X84935Y38820I1452J-977D01*
G37*
G36*
G01X70367Y83119D02*
G02X68771Y85650I-1567J781D01*
G03X68969Y85856I-3J201D01*
G02X68969Y85943I1750J36D01*
G03X68771Y86150I-201J6D01*
G02X70367Y88681I29J1751D01*
G03X71095Y88700I360J179D01*
G02X72668Y86250I1605J-700D01*
G03X72464Y86033I-4J-201D01*
G02X72469Y85944I-1745J-138D01*
G03X72663Y85750I201J6D01*
G02X71076Y83137I-63J-1750D01*
G03X70367Y83119I-350J-198D01*
G37*
G36*
G01X70254Y62929D02*
G02X68465Y62880I-853J-1529D01*
G03X68446Y63571I-215J340D01*
G02X70235Y63620I853J1529D01*
G03X70254Y62929I215J-340D01*
G37*
G54D15*
X29528Y19685D03*
X19685D03*
X9843D03*
Y9843D03*
X19685D03*
X29528D03*
Y39370D03*
X19685D03*
X9843D03*
Y29528D03*
X19685D03*
X29528D03*
X19685Y59055D03*
Y49213D03*
X9843D03*
X29528Y88583D03*
X19685D03*
X9843D03*
X19685Y118110D03*
X29528D03*
Y108268D03*
Y98425D03*
X19685D03*
Y108268D03*
X9843D03*
Y98425D03*
X29528Y137795D03*
Y127953D03*
X9843Y157480D03*
X19685D03*
Y167323D03*
X9843D03*
Y177165D03*
X34843Y24409D03*
X42913Y28346D03*
X44685Y49409D03*
X35800Y67900D03*
X42700D03*
X49400D03*
X56500D03*
X49700Y61200D03*
X42700D03*
X36220Y96260D03*
X39370Y118110D03*
X38189Y139370D03*
X37795Y132283D03*
X53150Y149409D03*
X60630Y28150D03*
X74126Y39961D03*
X73425Y34243D03*
X62400Y68100D03*
X73900Y65200D03*
X58661Y174016D03*
X101969Y58858D03*
X98425Y157480D03*
X111811Y5906D03*
X112402Y13189D03*
Y19685D03*
X127953Y9843D03*
Y19685D03*
X108268Y49213D03*
X118110D03*
X127953D03*
Y59055D03*
X118110D03*
X108268D03*
Y68898D03*
X118110D03*
X127953D03*
X118898Y74803D03*
X127953Y78740D03*
X107874Y101378D03*
X109252Y110433D03*
X118110Y118110D03*
X108268Y127953D03*
X118110Y137795D03*
X127953D03*
Y127953D03*
X108268Y157480D03*
Y147638D03*
X127953D03*
X118110D03*
X147638Y9843D03*
Y19685D03*
X137795D03*
Y9843D03*
X147638Y29528D03*
Y39370D03*
Y49213D03*
Y118110D03*
X137795D03*
X147638Y127953D03*
Y137795D03*
X137795D03*
Y127953D03*
X147638Y147638D03*
X149409Y183858D03*
X177165Y19685D03*
Y9843D03*
X167323D03*
Y19685D03*
X157480D03*
Y9843D03*
Y39370D03*
Y29528D03*
X167323D03*
Y39370D03*
X177165D03*
Y29528D03*
X167323Y59055D03*
X177165D03*
X157480D03*
Y49213D03*
X167323D03*
X177165D03*
Y108268D03*
Y98425D03*
Y118110D03*
X167323D03*
X157480D03*
X177165Y127953D03*
X167323D03*
X157480D03*
X177165Y147638D03*
X167323D03*
X157480D03*
X177165Y157480D03*
X167323D03*
X157480D03*
Y177165D03*
X167323D03*
X177165D03*
Y167323D03*
X167323D03*
X157480D03*
X187008Y9843D03*
Y19685D03*
Y39370D03*
Y29528D03*
Y68898D03*
Y59055D03*
Y49213D03*
Y78740D03*
Y127953D03*
Y137795D03*
Y147638D03*
Y157480D03*
Y187008D03*
Y177165D03*
Y167323D03*
G54D17*
X83134Y103213D03*
X64977Y104117D03*
X92196Y64616D03*
X86680Y73284D03*
X83216Y124504D03*
X170602Y62800D03*
X164302Y87469D03*
X178082D03*
G54D16*
X19850Y187938D03*
X29850D03*
X39850D03*
X49850D03*
X59850D03*
X69850D03*
X79850D03*
X89850D03*
X99850D03*
%LPD*%
G75*
G54D10*
X9843Y9843D03*
X19685D03*
Y19685D03*
X9843D03*
Y29528D03*
X19685D03*
Y39370D03*
X9843D03*
X19685Y49213D03*
X9843D03*
X19685Y59055D03*
Y88583D03*
X9843D03*
X19685Y98425D03*
Y108268D03*
X9843D03*
Y98425D03*
X19685Y118110D03*
X9843Y157480D03*
X19685D03*
Y167323D03*
X9843D03*
Y177165D03*
X29528Y9843D03*
Y19685D03*
Y29528D03*
X34843Y24409D03*
X29528Y39370D03*
X35800Y67900D03*
X29528Y88583D03*
Y108268D03*
Y98425D03*
X36220Y96260D03*
X29528Y118110D03*
X39370D03*
X29528Y127953D03*
Y137795D03*
X38189Y139370D03*
X37795Y132283D03*
X42913Y28346D03*
X44685Y49409D03*
X42700Y67900D03*
X49400D03*
X56500D03*
X49700Y61200D03*
X42700D03*
X53150Y149409D03*
X58661Y174016D03*
X60630Y28150D03*
X73425Y34243D03*
X74126Y39961D03*
X62400Y68100D03*
X69400Y61400D03*
X69300Y65100D03*
X73900Y65200D03*
X68800Y87900D03*
X70719Y85893D03*
X68800Y83900D03*
X72600Y84000D03*
X72700Y88000D03*
X59800Y152500D03*
Y155100D03*
X84100Y36600D03*
X80500Y40200D03*
X80512Y36614D03*
X84000Y40300D03*
X82303Y38396D03*
X83661Y64173D03*
X98425Y157480D03*
X111811Y5906D03*
X112402Y13189D03*
Y19685D03*
X108268Y49213D03*
X118110D03*
Y59055D03*
X108268D03*
Y68898D03*
X118110D03*
X101969Y58858D03*
X107874Y101378D03*
X118110Y118110D03*
X108268Y127953D03*
X109252Y110433D03*
X118110Y137795D03*
X108268Y147638D03*
X118110D03*
X108268Y157480D03*
X127953Y9843D03*
X137795D03*
X127953Y19685D03*
X137795D03*
X127953Y49213D03*
Y59055D03*
Y68898D03*
Y78740D03*
X118898Y74803D03*
X137795Y118110D03*
X127953Y127953D03*
X137795D03*
X127953Y137795D03*
X137795D03*
X127953Y147638D03*
X147638Y9843D03*
X157480D03*
X147638Y19685D03*
X157480D03*
X147638Y29528D03*
X157480D03*
X147638Y39370D03*
X157480D03*
X147638Y49213D03*
X157480D03*
Y59055D03*
X147638Y118110D03*
X157480D03*
X147638Y127953D03*
X157480D03*
X147638Y137795D03*
Y147638D03*
X157480D03*
Y157480D03*
Y167323D03*
Y177165D03*
X149409Y183858D03*
X177165Y9843D03*
X167323D03*
X177165Y19685D03*
X167323D03*
Y29528D03*
X177165D03*
X167323Y39370D03*
X177165D03*
X167323Y49213D03*
X177165D03*
X167323Y59055D03*
X177165D03*
Y108268D03*
Y98425D03*
Y118110D03*
X167323D03*
X177165Y127953D03*
X167323D03*
X177165Y147638D03*
X167323D03*
X177165Y157480D03*
X167323D03*
X177165Y167323D03*
X167323D03*
Y177165D03*
X177165D03*
X187008Y9843D03*
Y19685D03*
Y29528D03*
Y39370D03*
Y49213D03*
Y68898D03*
Y59055D03*
Y78740D03*
Y127953D03*
Y137795D03*
Y147638D03*
Y157480D03*
Y167323D03*
Y187008D03*
Y177165D03*
G54D11*
X9850Y187938D03*
G54D12*
X19850D03*
X29850D03*
X39850D03*
X49850D03*
X59850D03*
X69850D03*
X79850D03*
X89850D03*
X99850D03*
G54D13*
X40188Y11426D03*
X40800Y78800D03*
X46492Y11426D03*
X52796D03*
X59100D03*
X56342Y60282D03*
X45310Y105986D03*
X42946Y99288D03*
X55948Y133172D03*
Y139082D03*
Y145386D03*
X64616Y11426D03*
X61858Y60282D03*
X64977Y104117D03*
X70214Y126786D03*
X95742Y10244D03*
Y24034D03*
Y16942D03*
X83300Y67768D03*
X92196Y64616D03*
X86680Y73284D03*
X83134Y103213D03*
X91802Y100470D03*
Y106774D03*
Y113472D03*
X83216Y124504D03*
X104000Y53190D03*
X117806Y188332D03*
X129626D03*
X135536D03*
X124110Y178482D03*
X130020D03*
X135536D03*
X123716Y188332D03*
X126474Y183210D03*
X132384D03*
X170602Y62800D03*
X178082Y87469D03*
X164302D03*
X174342Y82934D03*
G54D14*
G01X0Y0D02*
X196850D01*
Y196850D01*
X0D01*
Y0D01*
M02*
