M48
INCH,TZ
FMAT,2
ICI,OFF
T01C.037
T02C.02
T03C.01
%
T01
G05
X18465Y18425
X18465Y17425
X17465Y18425
X17465Y17425
X16465Y18425
X16465Y17425
X15465Y18425
X15465Y17425
X14465Y18425
X14465Y17425
X13465Y18425
X13465Y17425
X12465Y18425
X12465Y17425
X11465Y18425
X11465Y17425
X10465Y18425
X10465Y17425
X9465Y18425
X9465Y17425
T02
X6063Y13780
X6614Y14646
X6614Y13780
X12441Y8425
X7126Y14646
X7165Y13780
X6063Y14646
X12441Y8976
X7717Y13780
X6040Y9470
X8849Y4000
X3700Y5570
X6880Y2600
X10000Y6480
X6130Y2600
X2160Y4160
X3700Y7060
X10000Y4980
X3700Y6320
T03
X7526Y7047
X6496Y4370
X6772Y4370
X8071Y4843
X8189Y5118
X10276Y5630
X10709Y6378
X433Y7283
X906Y7283
X945Y3976
X512Y3976
X18780Y14764
X19252Y14764
X18622Y11457
X19291Y11457
X18583Y8189
X19252Y8189
X18740Y4921
X19291Y4921
X14764Y4921
X3819Y4843
X12795Y4921
X6417Y8937
X6811Y10000
X18701Y10827
X3937Y1968
X14764Y8858
X15079Y5551
X18701Y984
X16732Y984
X16732Y2953
X1968Y7874
X12795Y984
X17795Y13780
X1968Y17717
X15787Y13858
X13780Y1968
X11811Y1968
X9843Y1968
X7874Y1968
X5906Y1968
X1968Y9843
X16732Y10827
X12795Y2953
X6890Y10827
X8858Y984
X3937Y15748
X14764Y14764
X6850Y5394
X7205Y5394
X11811Y13780
X9843Y13780
X10000Y10039
X5906Y9843
X5906Y11811
X15748Y1968
X9843Y11811
X2953Y6890
X11811Y11811
X7874Y11811
X16732Y4921
X6496Y5748
X16732Y8858
X4921Y984
X1968Y1968
X13150Y14134
X15079Y14134
X6850Y5748
X16732Y14764
X7165Y8937
X2992Y4921
X14764Y984
X1968Y15748
X6496Y5394
X10827Y984
X7205Y5748
X13780Y9843
X15748Y9843
X15748Y11811
X17717Y11811
X17717Y9843
X13780Y7874
X15748Y7874
X17717Y7874
X17717Y5906
X15748Y5906
X13780Y5906
X11811Y5906
X18701Y8858
X9843Y3937
X11811Y3937
X13780Y3937
X15748Y3937
X17717Y3937
X17717Y1968
X13780Y13780
X2953Y10827
X14764Y2953
X984Y18701
X984Y16732
X984Y14764
X984Y12795
X984Y10827
X984Y8858
X984Y2953
X6890Y18701
X4921Y18701
X4921Y12795
X6890Y12795
X8858Y12795
X8858Y14764
X2953Y16732
X10827Y2953
X6496Y6063
X3937Y17717
X5906Y17717
X7874Y17717
X9843Y15748
X11811Y15748
X13780Y15748
X15827Y15748
X17795Y15748
X5472Y5157
X3937Y11811
X3937Y5906
X3937Y7874
X3937Y9843
X13110Y5551
X12795Y14764
X10827Y14764
X7205Y6063
X4921Y8858
X2953Y984
X6850Y6063
X6890Y984
X1968Y11811
X2953Y8858
X9409Y4134
X4921Y10827
X1968Y5906
X10157Y6890
X18701Y2953
X7835Y4634
X7638Y4331
X6258Y4294
X8179Y5403
M30
