*
%LPD*%
%LNtransceiverBOTTOM*%
%FSLAX25Y25*%
%MOIN*%
%AD*%
%AD*%
%ADD10C,0.02*%
%ADD11C,0.03*%
%ADD12C,0.058*%
%ADD13R,0.058X0.058*%
%ADD14C,0.005*%
%ADD15C,0.01*%
%ADD16C,0.050003937*%
%ADD17C,0.078003937*%
%ADD18C,0.084003937*%
G54D10*
%SRX1Y1I0.0J0.0*%
G36*
G1X0Y0D2*
G1X196850Y0D1*
G1X196850Y196850D1*
G1X0Y196850D1*
G1X0Y0D1*
G37*
%LPC*%
G36*
G1X181746Y180352D2*
G1X187546Y180352D1*
G75*
G3X188546Y181352I-1J1000D1*
G1X188546Y187152D1*
G3X187546Y188152I-1001J-1D1*
G1X181746Y188152D1*
G3X180746Y187152I0J-1001D1*
G1X180746Y181352D1*
G3X181746Y180352I1000J0D1*
G37*
G36*
G1X68348Y145280D2*
G2X69054Y145280I353J-189D1*
G3X69054Y147633I2205J1176D1*
G2X68348Y147633I-353J188D1*
G3X68348Y145280I-2206J-1177D1*
G37*
G36*
G1X67418Y35501D2*
G1X80189Y35501D1*
G1X85334Y40647D1*
G2X86014Y40314I283J-283D1*
G3X88180Y42480I2480J-314D1*
G2X87847Y43160I-51J397D1*
G1X102236Y57549D1*
G1X109842Y57549D1*
G1X175916Y123622D1*
G1X175916Y142913D1*
G1X186546Y153543D1*
G1X186546Y170846D1*
G3X182745Y170846I-1901J3405D1*
G1X182745Y155118D1*
G1X177229Y149601D1*
G2X176546Y149884I-283J283D1*
G1X176546Y170846D1*
G3X172746Y170846I-1901J3405D1*
G1X172746Y147675D1*
G1X167229Y142158D1*
G2X166546Y142441I-283J282D1*
G1X166546Y170846D1*
G3X162746Y170846I-1901J3405D1*
G1X162746Y141811D1*
G1X157229Y136294D1*
G2X156546Y136577I-283J283D1*
G1X156546Y170846D1*
G3X152746Y170846I-1901J3405D1*
G1X152746Y134960D1*
G1X147229Y129444D1*
G2X146546Y129726I-284J282D1*
G1X146546Y170352D1*
G1X147546Y170352D1*
G3X148546Y171352I-1J1000D1*
G1X148546Y177152D1*
G3X147546Y178152I-1001J-1D1*
G1X141746Y178152D1*
G3X140746Y177152I0J-1001D1*
G1X140746Y171352D1*
G3X141746Y170352I1000J0D1*
G1X142746Y170352D1*
G1X142746Y128110D1*
G1X137229Y122593D1*
G2X136546Y122876I-283J282D1*
G1X136546Y170846D1*
G3X132746Y170846I-1901J3405D1*
G1X132746Y120866D1*
G1X127229Y115349D1*
G2X126546Y115632I-283J283D1*
G1X126546Y170846D1*
G3X122746Y170846I-1901J3405D1*
G1X122746Y113622D1*
G1X117229Y108105D1*
G2X116546Y108388I-283J282D1*
G1X116546Y170846D1*
G3X112745Y170846I-1901J3405D1*
G1X112745Y106771D1*
G1X107229Y101255D1*
G2X106546Y101537I-284J282D1*
G1X106546Y170846D1*
G3X102746Y170846I-1901J3405D1*
G1X102746Y100640D1*
G1X74364Y72258D1*
G1X74336Y72244D1*
G3X73394Y69764I929J-1772D1*
G2X73020Y69223I-375J-142D1*
G1X61417Y69223D1*
G1X55974Y63780D1*
G1X55974Y50000D1*
G1X61111Y44864D1*
G2X61120Y44307I-284J-284D1*
G3X60580Y42940I1457J-1366D1*
G3X61678Y41154I1999J-2D1*
G1X63418Y39413D1*
G1X63507Y39413D1*
G1X67418Y35501D1*
G37*
G74*
G54D16*
G1X21602Y41602D3*
G1X37000Y55700D3*
G1X37000Y70600D3*
G1X37000Y63200D3*
G1X68800Y26000D3*
G1X61300Y26000D3*
G1X60400Y94700D3*
G1X60630Y137795D3*
G1X66142Y137795D3*
G1X71653Y137795D3*
G1X60630Y146456D3*
G1X77165Y137795D3*
G1X100000Y49800D3*
G54D18*
G1X94646Y184252D3*
G1X114646Y184252D3*
G1X104646Y184252D3*
G1X124646Y184252D3*
G1X134646Y184252D3*
G54D17*
G1X94646Y174252D3*
G1X144646Y184252D3*
G1X154646Y184252D3*
G1X174646Y184252D3*
G1X164646Y184252D3*
%LPD*%
G36*
G1X90927Y59516D2*
G1X97863Y59516D1*
G75*
G2X98146Y59399I0J-401D1*
G3X98712Y59399I283J282D1*
G1X100662Y61349D1*
G1X108268Y61349D1*
G1X172115Y125196D1*
G1X172115Y140704D1*
G3X171432Y140987I-401J-1D1*
G1X90644Y60199D1*
G3X90927Y59516I282J-283D1*
G37*
%LPC*%
G74*
G54D16*
G1X100000Y64800D3*
G1X124409Y84252D3*
G1X124409Y89764D3*
%LPD*%
G54D10*
G1X9842Y29528D3*
G1X5118Y39764D3*
G1X9449Y39764D3*
G1X9055Y72835D3*
G1X4331Y72835D3*
G1X9842Y88583D3*
G1X9842Y108268D3*
G1X9842Y127953D3*
G1X9842Y147638D3*
G1X9842Y167323D3*
G1X9842Y187008D3*
G1X19685Y19685D3*
G1X19685Y59055D3*
G1X19685Y78740D3*
G1X19685Y98425D3*
G1X19685Y118110D3*
G1X19685Y157480D3*
G1X19685Y177165D3*
G1X29528Y9842D3*
G1X39370Y19685D3*
G1X29921Y49213D3*
G1X38189Y48425D3*
G1X39370Y59055D3*
G1X29528Y68898D3*
G1X39370Y78740D3*
G1X29528Y88583D3*
G1X39370Y98425D3*
G1X39370Y118110D3*
G1X29528Y108268D3*
G1X39370Y157480D3*
G1X39370Y177165D3*
G1X29528Y167323D3*
G1X49213Y9842D3*
G1X54724Y51575D3*
G1X49213Y88583D3*
G1X49213Y108268D3*
G1X49213Y127953D3*
G1X49213Y187008D3*
G1X68898Y9842D3*
G1X59055Y19685D3*
G1X62579Y42939D3*
G1X64961Y53937D3*
G1X68504Y57480D3*
G1X64961Y57480D3*
G1X68504Y53937D3*
G1X67721Y43701D3*
G1X64961Y43701D3*
G1X68504Y60630D3*
G1X64961Y60630D3*
G1X59055Y98425D3*
G1X68110Y100000D3*
G1X64173Y89370D3*
G1X59055Y118110D3*
G1X68898Y108268D3*
G1X68898Y127953D3*
G1X59055Y177165D3*
G1X68898Y187008D3*
G1X78740Y19685D3*
G1X76378Y43307D3*
G1X81792Y54034D3*
G1X78347Y46340D3*
G1X72047Y57480D3*
G1X72047Y53937D3*
G1X81890Y51181D3*
G1X80709Y48425D3*
G1X72047Y60630D3*
G1X75265Y70472D3*
G1X71654Y89370D3*
G1X78740Y118110D3*
G1X78740Y177165D3*
G1X88583Y9842D3*
G1X98425Y19685D3*
G1X94094Y41339D3*
G1X98425Y39370D3*
G1X100000Y100394D3*
G1X98425Y118110D3*
G1X88583Y127953D3*
G1X88583Y147638D3*
G1X98425Y137795D3*
G1X98425Y157480D3*
G1X108268Y9842D3*
G1X108268Y29528D3*
G1X102756Y56299D3*
G1X101575Y68898D3*
G1X107086Y63779D3*
G1X108268Y147638D3*
G1X127953Y9842D3*
G1X118110Y19685D3*
G1X118110Y39370D3*
G1X127953Y29528D3*
G1X127953Y49213D3*
G1X118110Y59055D3*
G1X118110Y118110D3*
G1X127953Y147638D3*
G1X118110Y137795D3*
G1X118110Y157480D3*
G1X137795Y19685D3*
G1X137795Y39370D3*
G1X131102Y55512D3*
G1X137795Y59055D3*
G1X137795Y78740D3*
G1X137795Y98425D3*
G1X137795Y137795D3*
G1X131496Y141339D3*
G1X137795Y157480D3*
G1X147638Y9842D3*
G1X157480Y19685D3*
G1X147638Y29528D3*
G1X157480Y39370D3*
G1X150787Y55512D3*
G1X147638Y49213D3*
G1X157480Y59055D3*
G1X157480Y78740D3*
G1X157480Y98425D3*
G1X147638Y88583D3*
G1X157480Y118110D3*
G1X150787Y141339D3*
G1X147638Y147638D3*
G1X157874Y138583D3*
G1X158268Y157480D3*
G1X167323Y9842D3*
G1X167323Y29528D3*
G1X167323Y49213D3*
G1X167323Y88583D3*
G1X167323Y108268D3*
G1X167323Y147638D3*
G1X187008Y9842D3*
G1X177165Y19685D3*
G1X187008Y29528D3*
G1X177165Y39370D3*
G1X187402Y49213D3*
G1X177165Y59055D3*
G1X177165Y78740D3*
G1X185827Y81890D3*
G1X187008Y88583D3*
G1X177165Y98425D3*
G1X177165Y118110D3*
G1X187008Y108268D3*
G1X186220Y114567D3*
G1X177953Y137795D3*
G1X187795Y147638D3*
G1X177953Y157480D3*
G1X192913Y49213D3*
G1X192520Y81890D3*
G1X192913Y114567D3*
G1X192520Y147638D3*
G54D11*
G1X21602Y41602D3*
G1X37000Y55700D3*
G1X37000Y63200D3*
G1X37000Y70600D3*
G1X61300Y26000D3*
G1X68800Y26000D3*
G1X60400Y94700D3*
G1X60630Y146456D3*
G1X71653Y137795D3*
G1X71260Y146456D3*
G1X66142Y137795D3*
G1X66142Y146456D3*
G1X60630Y137795D3*
G1X77165Y137795D3*
G1X88495Y40000D3*
G1X100000Y49800D3*
G1X100000Y64800D3*
G1X124409Y89764D3*
G1X124409Y84252D3*
G54D12*
G1X94646Y174252D3*
G1X94646Y184252D3*
G1X114646Y174252D3*
G1X104646Y174252D3*
G1X114646Y184252D3*
G1X104646Y184252D3*
G1X124646Y174252D3*
G1X124646Y184252D3*
G1X134646Y174252D3*
G1X144646Y184252D3*
G1X134646Y184252D3*
G1X154646Y174252D3*
G1X154646Y184252D3*
G1X174646Y174252D3*
G1X164646Y174252D3*
G1X174646Y184252D3*
G1X164646Y184252D3*
G1X184646Y174252D3*
G54D13*
G1X144646Y174252D3*
G1X184646Y184252D3*
G1X94646Y179852D2*
G54D14*
G1X94646Y184252D1*
G1X94646Y188652D1*
G1X90246Y184252D2*
G1X94646Y184252D1*
G1X99046Y184252D1*
G1X104646Y179852D2*
G1X104646Y184252D1*
G1X104646Y188652D1*
G1X100246Y184252D2*
G1X104646Y184252D1*
G1X109046Y184252D1*
G1X114646Y179852D2*
G1X114646Y184252D1*
G1X114646Y188652D1*
G1X110246Y184252D2*
G1X114646Y184252D1*
G1X119046Y184252D1*
G1X124646Y179852D2*
G1X124646Y184252D1*
G1X124646Y188652D1*
G1X120246Y184252D2*
G1X124646Y184252D1*
G1X129046Y184252D1*
G1X134646Y179852D2*
G1X134646Y184252D1*
G1X134646Y188652D1*
G1X130245Y184252D2*
G1X134646Y184252D1*
G1X139046Y184252D1*
G1X184646Y174252D2*
G54D15*
G1X184646Y170052D1*
G1X184645Y170052D1*
G1X184645Y154330D1*
G1X174015Y143700D1*
G1X174015Y124409D1*
G1X109055Y59449D1*
G1X101449Y59449D1*
G1X79402Y37402D1*
G1X68206Y37402D1*
G1X64294Y41313D1*
G1X64205Y41313D1*
G1X62579Y42939D1*
G1X134646Y174252D2*
G1X134646Y120079D1*
G1X77559Y62992D1*
G1X63386Y62992D1*
G1X62205Y61811D1*
G1X62205Y53150D1*
G1X70079Y45276D1*
G1X70079Y42520D1*
G1X73228Y39370D1*
G1X78370Y39370D1*
G1X83858Y44858D1*
G1X83858Y49213D1*
G1X81890Y51181D1*
G1X124646Y174252D2*
G1X124646Y112835D1*
G1X77165Y65354D1*
G1X62992Y65354D1*
G1X59842Y62205D1*
G1X59842Y52362D1*
G1X67721Y44484D1*
G1X67721Y43701D1*
G1X114646Y174252D2*
G1X114646Y105984D1*
G1X75984Y67323D1*
G1X62204Y67323D1*
G1X57874Y62992D1*
G1X57874Y50787D1*
G1X64961Y43701D1*
G1X144646Y174252D2*
G1X144646Y127322D1*
G1X74047Y56724D1*
G1X74047Y42094D1*
G1X75197Y40945D1*
G1X77202Y40945D1*
G1X80709Y44451D1*
G1X80709Y48425D1*
G1X81792Y54034D2*
G1X174646Y146888D1*
G1X174646Y174252D1*
G1X154646Y174252D2*
G1X154646Y134173D1*
G1X75984Y55512D1*
G1X75984Y45276D1*
G1X76378Y44882D1*
G1X76378Y43307D1*
G1X164646Y174252D2*
G1X164646Y141024D1*
G1X78347Y54724D1*
G1X78347Y46340D1*
G1X104646Y174252D2*
G1X104646Y99853D1*
G1X75265Y70472D1*
M2*
