*
%LPD*%
%LNtransceiverSMB*%
%FSLAX25Y25*%
%MOIN*%
%AD*%
%AD*%
%ADD10C,0.02*%
%ADD12C,0.058*%
%ADD13R,0.058X0.058*%
G54D10*
%SRX1Y1I0.0J0.0*%
G36*
G1X0Y42520D2*
G1X15748Y42520D1*
G1X15748Y47638D1*
G1X0Y47638D1*
G1X0Y42520D1*
G37*
G36*
G1X0Y64173D2*
G1X15748Y64173D1*
G1X15748Y69291D1*
G1X0Y69291D1*
G1X0Y64173D1*
G37*
G36*
G1X181102Y52362D2*
G1X196850Y52362D1*
G1X196850Y57480D1*
G1X181102Y57480D1*
G1X181102Y52362D1*
G37*
G36*
G1X181102Y74016D2*
G1X196850Y74016D1*
G1X196850Y79134D1*
G1X181102Y79134D1*
G1X181102Y74016D1*
G37*
G36*
G1X181102Y117716D2*
G1X196850Y117716D1*
G1X196850Y122835D1*
G1X181102Y122835D1*
G1X181102Y117716D1*
G37*
G36*
G1X181102Y139370D2*
G1X196850Y139370D1*
G1X196850Y144488D1*
G1X181102Y144488D1*
G1X181102Y139370D1*
G37*
G54D12*
G1X94646Y174252D3*
G1X94646Y184252D3*
G1X114646Y174252D3*
G1X104646Y174252D3*
G1X114646Y184252D3*
G1X104646Y184252D3*
G1X124646Y174252D3*
G1X124646Y184252D3*
G1X134646Y174252D3*
G1X144646Y184252D3*
G1X134646Y184252D3*
G1X154646Y174252D3*
G1X154646Y184252D3*
G1X174646Y174252D3*
G1X164646Y174252D3*
G1X174646Y184252D3*
G1X164646Y184252D3*
G1X184646Y174252D3*
G54D13*
G1X144646Y174252D3*
G1X184646Y184252D3*
M2*
