*
%LPD*%
%LNtransceiverInner1*%
%FSLAX25Y25*%
%MOIN*%
%AD*%
%AD*%
%ADD10C,0.02*%
%ADD11C,0.03*%
%ADD12C,0.058*%
%ADD13R,0.058X0.058*%
%ADD14C,0.005*%
%ADD16C,0.050003937*%
%ADD17C,0.078003937*%
%ADD18C,0.084003937*%
%ADD19C,0.040003937*%
G54D10*
%SRX1Y1I0.0J0.0*%
G36*
G1X2500Y2500D2*
G1X195000Y2500D1*
G1X195000Y195000D1*
G1X2500Y195000D1*
G1X2500Y2500D1*
G37*
%LPC*%
G36*
G1X181746Y180352D2*
G1X187546Y180352D1*
G75*
G3X188546Y181352I-1J1000D1*
G1X188546Y187152D1*
G3X187546Y188152I-1001J-1D1*
G1X181746Y188152D1*
G3X180746Y187152I0J-1001D1*
G1X180746Y181352D1*
G3X181746Y180352I1000J0D1*
G37*
G36*
G1X141746Y170352D2*
G1X147546Y170352D1*
G3X148546Y171352I-1J1000D1*
G1X148546Y177152D1*
G3X147546Y178152I-1001J-1D1*
G1X141746Y178152D1*
G3X140746Y177152I0J-1001D1*
G1X140746Y171352D1*
G3X141746Y170352I1000J0D1*
G37*
G36*
G1X78302Y43854D2*
G2X78630Y44360I384J109D1*
G3X80329Y46078I-285J1980D1*
G2X80723Y46425I396J-54D1*
G3X82591Y49101I-15J1999D1*
G2X82699Y49352I188J67D1*
G3X83367Y52530I-809J1829D1*
G2X83358Y52790I148J135D1*
G3X80315Y52685I-1567J1243D1*
G2X80324Y52426I-148J-135D1*
G3X80007Y50505I1565J-1246D1*
G2X79900Y50255I-189J-68D1*
G3X78726Y48688I808J-1830D1*
G2X78332Y48340I-397J52D1*
G3X76423Y45792I15J-2001D1*
G2X76095Y45287I-386J-109D1*
G3X78302Y43854I283J-1981D1*
G37*
G36*
G1X66341Y45149D2*
G3X63294Y44807I-1381J-1448D1*
G3X64245Y41833I-715J-1868D1*
G3X66341Y42253I715J1868D1*
G3X66341Y45149I1379J1448D1*
G37*
G36*
G1X68348Y145280D2*
G2X69054Y145280I353J-189D1*
G3X69054Y147633I2205J1176D1*
G2X68348Y147633I-353J188D1*
G3X68348Y145280I-2206J-1177D1*
G37*
G74*
G54D19*
G1X75265Y70472D3*
G54D16*
G1X21602Y41602D3*
G1X37000Y55700D3*
G1X37000Y70600D3*
G1X37000Y63200D3*
G1X68800Y26000D3*
G1X61300Y26000D3*
G1X60400Y94700D3*
G1X60630Y137795D3*
G1X66142Y137795D3*
G1X71653Y137795D3*
G1X60630Y146456D3*
G1X77165Y137795D3*
G1X88495Y40000D3*
G1X100000Y49800D3*
G1X100000Y64800D3*
G1X124409Y84252D3*
G1X124409Y89764D3*
G54D18*
G1X94646Y184252D3*
G1X114646Y184252D3*
G1X104646Y184252D3*
G1X124646Y184252D3*
G1X134646Y184252D3*
G54D17*
G1X94646Y174252D3*
G1X114646Y174252D3*
G1X104646Y174252D3*
G1X124646Y174252D3*
G1X134646Y174252D3*
G1X144646Y184252D3*
G1X154646Y174252D3*
G1X154646Y184252D3*
G1X174646Y174252D3*
G1X164646Y174252D3*
G1X174646Y184252D3*
G1X164646Y184252D3*
G1X184646Y174252D3*
%LPD*%
G54D10*
G1X9842Y29528D3*
G1X5118Y39764D3*
G1X9449Y39764D3*
G1X9055Y72835D3*
G1X4331Y72835D3*
G1X9842Y88583D3*
G1X9842Y108268D3*
G1X9842Y127953D3*
G1X9842Y147638D3*
G1X9842Y167323D3*
G1X9842Y187008D3*
G1X19685Y19685D3*
G1X19685Y59055D3*
G1X19685Y78740D3*
G1X19685Y98425D3*
G1X19685Y118110D3*
G1X19685Y157480D3*
G1X19685Y177165D3*
G1X29528Y9842D3*
G1X39370Y19685D3*
G1X29921Y49213D3*
G1X38189Y48425D3*
G1X39370Y59055D3*
G1X29528Y68898D3*
G1X39370Y78740D3*
G1X29528Y88583D3*
G1X39370Y98425D3*
G1X39370Y118110D3*
G1X29528Y108268D3*
G1X39370Y157480D3*
G1X39370Y177165D3*
G1X29528Y167323D3*
G1X49213Y9842D3*
G1X54724Y51575D3*
G1X49213Y88583D3*
G1X49213Y108268D3*
G1X49213Y127953D3*
G1X49213Y187008D3*
G1X68898Y9842D3*
G1X59055Y19685D3*
G1X62579Y42939D3*
G1X64961Y53937D3*
G1X68504Y57480D3*
G1X64961Y57480D3*
G1X68504Y53937D3*
G1X67721Y43701D3*
G1X64961Y43701D3*
G1X68504Y60630D3*
G1X64961Y60630D3*
G1X59055Y98425D3*
G1X68110Y100000D3*
G1X64173Y89370D3*
G1X59055Y118110D3*
G1X68898Y108268D3*
G1X68898Y127953D3*
G1X59055Y177165D3*
G1X68898Y187008D3*
G1X78740Y19685D3*
G1X76378Y43307D3*
G1X81792Y54034D3*
G1X78347Y46340D3*
G1X72047Y57480D3*
G1X72047Y53937D3*
G1X81890Y51181D3*
G1X80709Y48425D3*
G1X72047Y60630D3*
G1X75265Y70472D3*
G1X71654Y89370D3*
G1X78740Y118110D3*
G1X78740Y177165D3*
G1X88583Y9842D3*
G1X98425Y19685D3*
G1X94094Y41339D3*
G1X98425Y39370D3*
G1X100000Y100394D3*
G1X98425Y118110D3*
G1X88583Y127953D3*
G1X88583Y147638D3*
G1X98425Y137795D3*
G1X98425Y157480D3*
G1X108268Y9842D3*
G1X108268Y29528D3*
G1X102756Y56299D3*
G1X101575Y68898D3*
G1X107086Y63779D3*
G1X108268Y147638D3*
G1X127953Y9842D3*
G1X118110Y19685D3*
G1X118110Y39370D3*
G1X127953Y29528D3*
G1X127953Y49213D3*
G1X118110Y59055D3*
G1X118110Y118110D3*
G1X127953Y147638D3*
G1X118110Y137795D3*
G1X118110Y157480D3*
G1X137795Y19685D3*
G1X137795Y39370D3*
G1X131102Y55512D3*
G1X137795Y59055D3*
G1X137795Y78740D3*
G1X137795Y98425D3*
G1X137795Y137795D3*
G1X131496Y141339D3*
G1X137795Y157480D3*
G1X147638Y9842D3*
G1X157480Y19685D3*
G1X147638Y29528D3*
G1X157480Y39370D3*
G1X150787Y55512D3*
G1X147638Y49213D3*
G1X157480Y59055D3*
G1X157480Y78740D3*
G1X157480Y98425D3*
G1X147638Y88583D3*
G1X157480Y118110D3*
G1X150787Y141339D3*
G1X147638Y147638D3*
G1X157874Y138583D3*
G1X158268Y157480D3*
G1X167323Y9842D3*
G1X167323Y29528D3*
G1X167323Y49213D3*
G1X167323Y88583D3*
G1X167323Y108268D3*
G1X167323Y147638D3*
G1X187008Y9842D3*
G1X177165Y19685D3*
G1X187008Y29528D3*
G1X177165Y39370D3*
G1X187402Y49213D3*
G1X177165Y59055D3*
G1X177165Y78740D3*
G1X185827Y81890D3*
G1X187008Y88583D3*
G1X177165Y98425D3*
G1X177165Y118110D3*
G1X187008Y108268D3*
G1X186220Y114567D3*
G1X177953Y137795D3*
G1X187795Y147638D3*
G1X177953Y157480D3*
G1X192913Y49213D3*
G1X192520Y81890D3*
G1X192913Y114567D3*
G1X192520Y147638D3*
G54D11*
G1X21602Y41602D3*
G1X37000Y55700D3*
G1X37000Y63200D3*
G1X37000Y70600D3*
G1X61300Y26000D3*
G1X68800Y26000D3*
G1X60400Y94700D3*
G1X60630Y146456D3*
G1X71653Y137795D3*
G1X71260Y146456D3*
G1X66142Y137795D3*
G1X66142Y146456D3*
G1X60630Y137795D3*
G1X77165Y137795D3*
G1X88495Y40000D3*
G1X100000Y49800D3*
G1X100000Y64800D3*
G1X124409Y89764D3*
G1X124409Y84252D3*
G54D12*
G1X94646Y174252D3*
G1X94646Y184252D3*
G1X114646Y174252D3*
G1X104646Y174252D3*
G1X114646Y184252D3*
G1X104646Y184252D3*
G1X124646Y174252D3*
G1X124646Y184252D3*
G1X134646Y174252D3*
G1X144646Y184252D3*
G1X134646Y184252D3*
G1X154646Y174252D3*
G1X154646Y184252D3*
G1X174646Y174252D3*
G1X164646Y174252D3*
G1X174646Y184252D3*
G1X164646Y184252D3*
G1X184646Y174252D3*
G54D13*
G1X144646Y174252D3*
G1X184646Y184252D3*
G1X94646Y179852D2*
G54D14*
G1X94646Y184252D1*
G1X94646Y188652D1*
G1X90246Y184252D2*
G1X94646Y184252D1*
G1X99046Y184252D1*
G1X104646Y179852D2*
G1X104646Y184252D1*
G1X104646Y188652D1*
G1X100246Y184252D2*
G1X104646Y184252D1*
G1X109046Y184252D1*
G1X114646Y179852D2*
G1X114646Y184252D1*
G1X114646Y188652D1*
G1X110246Y184252D2*
G1X114646Y184252D1*
G1X119046Y184252D1*
G1X124646Y179852D2*
G1X124646Y184252D1*
G1X124646Y188652D1*
G1X120246Y184252D2*
G1X124646Y184252D1*
G1X129046Y184252D1*
G1X134646Y179852D2*
G1X134646Y184252D1*
G1X134646Y188652D1*
G1X130245Y184252D2*
G1X134646Y184252D1*
G1X139046Y184252D1*
M2*
