*
%LPD*%
%LNtransceiverTOP*%
%FSLAX25Y25*%
%MOIN*%
%AD*%
%AD*%
%ADD10C,0.02*%
%ADD11C,0.03*%
%ADD12C,0.058*%
%ADD13R,0.058X0.058*%
%ADD14C,0.005*%
%ADD15C,0.01*%
%ADD17C,0.078003937*%
%ADD18C,0.084003937*%
%ADD23R,0.032X0.038*%
%ADD24R,0.038X0.032*%
%ADD26R,0.05X0.05*%
%ADD35R,0.153542913X0.047244094*%
%ADD36R,0.135827165X0.135827165*%
%ADD37R,0.011024016X0.033464961*%
%ADD38R,0.033464961X0.011024016*%
%ADD39R,0.236220079X0.153542913*%
%ADD40R,0.165353937X0.12204685*%
%ADD41R,0.039370079X0.035433071*%
%ADD42C,0.014*%
G54D10*
%SRX1Y1I0.0J0.0*%
G36*
G1X0Y0D2*
G1X196850Y0D1*
G1X196850Y62205D1*
G1X115354Y62205D1*
G1X115354Y72441D1*
G1X92487Y72441D1*
G1X92487Y67606D1*
G1X92893Y67200D1*
G1X99299Y67200D1*
G75*
G2X99299Y62400I701J-2400D1*
G1X92487Y62400D1*
G1X92487Y52645D1*
G1X92932Y52200D1*
G1X99299Y52200D1*
G2X99299Y47400I701J-2400D1*
G1X92487Y47400D1*
G1X92487Y33878D1*
G1X71273Y33878D1*
G1X71200Y33806D1*
G1X71200Y26701D1*
G2X66400Y26701I-2400J-702D1*
G1X66400Y33878D1*
G1X64050Y33878D1*
G1X63700Y33529D1*
G1X63700Y26701D1*
G2X58900Y26701I-2400J-702D1*
G1X58900Y29683D1*
G1X55580Y29683D1*
G2X54940Y29915I0J1000D1*
G1X54799Y30032D1*
G1X54516Y29749D1*
G2X51771Y28612I-2746J2746D1*
G1X37962Y28612D1*
G1X37907Y28500D1*
G2X37009Y27940I-899J440D1*
G1X33072Y27940D1*
G2X32072Y28941I0J1000D1*
G1X32072Y32484D1*
G2X33072Y33484I1000J-1D1*
G1X36918Y33484D1*
G1X36918Y34915D1*
G1X18028Y53805D1*
G1X16551Y53805D1*
G1X16551Y53543D1*
G2X15551Y52543I-1001J0D1*
G1X0Y52543D1*
G1X0Y0D1*
G37*
G36*
G1X19768Y58006D2*
G1X38665Y39108D1*
G1X40323Y39108D1*
G1X40370Y39241D1*
G2X41313Y39908I943J-334D1*
G1X44480Y39908D1*
G1X44480Y52908D1*
G1X44088Y53300D1*
G1X37701Y53300D1*
G2X37701Y58100I-702J2400D1*
G1X44480Y58100D1*
G1X44480Y60388D1*
G1X44068Y60800D1*
G1X37701Y60800D1*
G2X37701Y65600I-702J2400D1*
G1X44480Y65600D1*
G1X44480Y68200D1*
G1X37701Y68200D1*
G2X37701Y73000I-702J2400D1*
G1X44010Y73000D1*
G1X44480Y73470D1*
G1X44480Y83033D1*
G1X52093Y83033D1*
G1X53793Y84733D1*
G1X53793Y86246D1*
G2X54793Y87246I1000J-1D1*
G1X58000Y87246D1*
G1X58000Y93999D1*
G2X62800Y93999I2400J701D1*
G1X62800Y83513D1*
G1X63280Y83033D1*
G1X78414Y83033D1*
G1X78414Y85365D1*
G2X78914Y86231I1000J-1D1*
G1X78914Y87801D1*
G1X78215Y88500D1*
G1X78215Y91898D1*
G1X78082Y91945D1*
G2X77549Y92388I333J943D1*
G1X77193Y92388D1*
G1X77104Y92299D1*
G1X75601Y92299D1*
G2X74735Y91799I-867J500D1*
G1X70935Y91799D1*
G2X69934Y92800I-1J1000D1*
G1X69934Y96000D1*
G2X70935Y97000I1000J-1D1*
G1X74725Y97000D1*
G1X74725Y102695D1*
G1X78408Y102695D1*
G1X78408Y102688D1*
G1X80245Y102688D1*
G1X81247Y103690D1*
G1X81145Y103937D1*
G1X81102Y103937D1*
G1X81102Y111023D1*
G1X100261Y111023D1*
G1X100267Y111217D1*
G2X103550Y118819I11222J-337D1*
G1X115354Y130623D1*
G1X115354Y134645D1*
G1X196850Y134645D1*
G1X196850Y196850D1*
G1X0Y196850D1*
G1X0Y59268D1*
G1X15551Y59268D1*
G2X16551Y58268I-1J-1001D1*
G1X16551Y58006D1*
G1X19768Y58006D1*
G37*
G36*
G1X89752Y87784D2*
G1X92487Y87784D1*
G1X92487Y86559D1*
G3X92706Y86360I199J0D1*
G2X92800Y86365I101J-1019D1*
G1X101600Y86365D1*
G2X102466Y85865I-1J-1001D1*
G1X110526Y85865D1*
G2X110592Y85965I876J-507D1*
G1X110592Y88445D1*
G2X110392Y89045I800J600D1*
G1X110392Y92845D1*
G2X111392Y93845I1000J-1D1*
G1X115991Y93845D1*
G1X115991Y93846D1*
G1X132827Y93846D1*
G1X132827Y80564D1*
G1X111392Y80564D1*
G2X110526Y81064I0J1000D1*
G1X102466Y81064D1*
G2X101600Y80564I-867J500D1*
G1X96888Y80564D1*
G1X96888Y79527D1*
G1X121260Y79527D1*
G1X121260Y69291D1*
G1X196850Y69291D1*
G1X196850Y127559D1*
G1X118230Y127559D1*
G1X106520Y115848D1*
G3X104486Y111456I4969J-4969D1*
G3X104884Y111023I398J-34D1*
G1X105512Y111023D1*
G1X105512Y103937D1*
G1X93376Y103937D1*
G1X93376Y97088D1*
G1X97176Y97088D1*
G2X98176Y96088I-1J-1001D1*
G1X98176Y92888D1*
G2X97176Y91888I-1001J0D1*
G1X93375Y91888D1*
G2X92567Y92299I0J999D1*
G1X90561Y92299D1*
G2X90029Y91857I-867J501D1*
G1X89896Y91810D1*
G1X89896Y88894D1*
G1X89469Y88467D1*
G3X89752Y87784I283J-283D1*
G37*
G36*
G1X116991Y81565D2*
G1X131826Y81565D1*
G1X131826Y92846D1*
G1X116991Y92846D1*
G1X116991Y81565D1*
G37*
%LPC*%
G36*
G1X23622Y20850D2*
G1X27559Y20850D1*
G3X28559Y21850I-1J1000D1*
G1X28559Y25394D1*
G3X27559Y26394I-1001J-1D1*
G1X23622Y26394D1*
G3X22622Y25394I0J-1001D1*
G1X22622Y21850D1*
G3X23622Y20850I1000J0D1*
G37*
G36*
G1X20400Y39409D2*
G1X23190Y36619D1*
G1X23190Y33393D1*
G1X23096Y33334D1*
G3X22622Y32484I525J-851D1*
G1X22622Y28940D1*
G3X23622Y27940I1000J0D1*
G1X27559Y27940D1*
G3X28559Y28941I-1J1000D1*
G1X28559Y32484D1*
G3X28086Y33334I-1000J0D1*
G1X27991Y33393D1*
G1X27991Y34239D1*
G3X28496Y35108I-495J868D1*
G1X28496Y38908D1*
G3X27496Y39908I-1001J-1D1*
G1X26690Y39908D1*
G1X23795Y42804D1*
G1X23781Y42828D1*
G3X20376Y39423I-2180J-1226D1*
G1X20400Y39409D1*
G37*
G36*
G1X181746Y180352D2*
G1X187546Y180352D1*
G3X188546Y181352I-1J1000D1*
G1X188546Y187152D1*
G3X187546Y188152I-1001J-1D1*
G1X181746Y188152D1*
G3X180746Y187152I0J-1001D1*
G1X180746Y181352D1*
G3X181746Y180352I1000J0D1*
G37*
G36*
G1X141746Y170352D2*
G1X147546Y170352D1*
G3X148546Y171352I-1J1000D1*
G1X148546Y177152D1*
G3X147546Y178152I-1001J-1D1*
G1X141746Y178152D1*
G3X140746Y177152I0J-1001D1*
G1X140746Y171352D1*
G3X141746Y170352I1000J0D1*
G37*
G36*
G1X51000Y153490D2*
G1X51000Y152511D1*
G1X50990Y152511D1*
G1X50990Y151109D1*
G1X51000Y151109D1*
G1X51000Y133100D1*
G1X81500Y133100D1*
G1X81500Y151109D1*
G1X81512Y151109D1*
G1X81512Y152511D1*
G1X81500Y152511D1*
G1X81500Y167000D1*
G1X51000Y167000D1*
G1X51000Y166195D1*
G1X50995Y166172D1*
G3X50968Y165945I975J-232D1*
G1X50968Y153740D1*
G3X50995Y153512I1005J3D1*
G1X51000Y153490D1*
G37*
G74*
G54D18*
G1X94646Y184252D3*
G1X114646Y184252D3*
G1X104646Y184252D3*
G1X124646Y184252D3*
G1X134646Y184252D3*
G54D17*
G1X94646Y174252D3*
G1X114646Y174252D3*
G1X104646Y174252D3*
G1X124646Y174252D3*
G1X134646Y174252D3*
G1X144646Y184252D3*
G1X154646Y174252D3*
G1X154646Y184252D3*
G1X174646Y174252D3*
G1X164646Y174252D3*
G1X174646Y184252D3*
G1X164646Y184252D3*
G1X184646Y174252D3*
%LPD*%
G36*
G1X52000Y134100D2*
G1X80500Y134100D1*
G1X80500Y150100D1*
G1X52000Y150100D1*
G1X52000Y134100D1*
G37*
G36*
G1X52000Y153500D2*
G1X80500Y153500D1*
G1X80500Y166000D1*
G1X52000Y166000D1*
G1X52000Y153500D1*
G37*
G1X25896Y37008D2*
G54D10*
G1X25896Y37308D1*
G1X21602Y41602D1*
G1X25591Y30712D2*
G1X25591Y36702D1*
G1X25896Y37008D1*
G1X37000Y55700D2*
G1X45082Y55700D1*
G1X48513Y52268D1*
G1X48513Y74409D2*
G1X48513Y74109D1*
G1X45004Y70600D1*
G1X37000Y70600D1*
G1X37000Y63200D2*
G1X45062Y63200D1*
G1X48513Y59749D1*
G1X48513Y59449D1*
G1X48513Y51968D2*
G1X48513Y52268D1*
G1X61300Y26000D2*
G1X61300Y34523D1*
G1X64661Y37884D1*
G1X68800Y26000D2*
G1X68800Y34800D1*
G1X71884Y37884D1*
G1X72141Y37884D1*
G1X64961Y37884D2*
G1X64661Y37884D1*
G1X60400Y94700D2*
G1X60400Y82519D1*
G1X63873Y79046D1*
G1X64173Y79046D1*
G1X72441Y37884D2*
G1X72141Y37884D1*
G1X88495Y46063D2*
G1X88495Y40000D1*
G1X100000Y49800D2*
G1X91938Y49800D1*
G1X88495Y53243D1*
G1X88495Y53543D1*
G1X100000Y64800D2*
G1X91898Y64800D1*
G1X88495Y68204D1*
G1X88495Y68504D1*
G1X94400Y83465D2*
G1X94488Y83376D1*
G1X94488Y75984D1*
G1X112992Y83465D2*
G1X100000Y83465D1*
G1X112992Y90945D2*
G1X112992Y83465D1*
G1X9842Y29528D3*
G1X5118Y39764D3*
G1X9449Y39764D3*
G1X9055Y72835D3*
G1X4331Y72835D3*
G1X9842Y88583D3*
G1X9842Y108268D3*
G1X9842Y127953D3*
G1X9842Y147638D3*
G1X9842Y167323D3*
G1X9842Y187008D3*
G1X19685Y19685D3*
G1X19685Y59055D3*
G1X19685Y78740D3*
G1X19685Y98425D3*
G1X19685Y118110D3*
G1X19685Y157480D3*
G1X19685Y177165D3*
G1X29528Y9842D3*
G1X39370Y19685D3*
G1X29921Y49213D3*
G1X38189Y48425D3*
G1X39370Y59055D3*
G1X29528Y68898D3*
G1X39370Y78740D3*
G1X29528Y88583D3*
G1X39370Y98425D3*
G1X39370Y118110D3*
G1X29528Y108268D3*
G1X39370Y157480D3*
G1X39370Y177165D3*
G1X29528Y167323D3*
G1X49213Y9842D3*
G1X54724Y51575D3*
G1X49213Y88583D3*
G1X49213Y108268D3*
G1X49213Y127953D3*
G1X49213Y187008D3*
G1X68898Y9842D3*
G1X59055Y19685D3*
G1X62579Y42939D3*
G1X64961Y53937D3*
G1X68504Y57480D3*
G1X64961Y57480D3*
G1X68504Y53937D3*
G1X67721Y43701D3*
G1X64961Y43701D3*
G1X68504Y60630D3*
G1X64961Y60630D3*
G1X59055Y98425D3*
G1X68110Y100000D3*
G1X64173Y89370D3*
G1X59055Y118110D3*
G1X68898Y108268D3*
G1X68898Y127953D3*
G1X59055Y177165D3*
G1X68898Y187008D3*
G1X78740Y19685D3*
G1X76378Y43307D3*
G1X81792Y54034D3*
G1X78347Y46340D3*
G1X72047Y57480D3*
G1X72047Y53937D3*
G1X81890Y51181D3*
G1X80709Y48425D3*
G1X72047Y60630D3*
G1X75265Y70472D3*
G1X71654Y89370D3*
G1X78740Y118110D3*
G1X78740Y177165D3*
G1X88583Y9842D3*
G1X98425Y19685D3*
G1X94094Y41339D3*
G1X98425Y39370D3*
G1X100000Y100394D3*
G1X98425Y118110D3*
G1X88583Y127953D3*
G1X88583Y147638D3*
G1X98425Y137795D3*
G1X98425Y157480D3*
G1X108268Y9842D3*
G1X108268Y29528D3*
G1X102756Y56299D3*
G1X101575Y68898D3*
G1X107086Y63779D3*
G1X108268Y147638D3*
G1X127953Y9842D3*
G1X118110Y19685D3*
G1X118110Y39370D3*
G1X127953Y29528D3*
G1X127953Y49213D3*
G1X118110Y59055D3*
G1X118110Y118110D3*
G1X127953Y147638D3*
G1X118110Y137795D3*
G1X118110Y157480D3*
G1X137795Y19685D3*
G1X137795Y39370D3*
G1X131102Y55512D3*
G1X137795Y59055D3*
G1X137795Y78740D3*
G1X137795Y98425D3*
G1X137795Y137795D3*
G1X131496Y141339D3*
G1X137795Y157480D3*
G1X147638Y9842D3*
G1X157480Y19685D3*
G1X147638Y29528D3*
G1X157480Y39370D3*
G1X150787Y55512D3*
G1X147638Y49213D3*
G1X157480Y59055D3*
G1X157480Y78740D3*
G1X157480Y98425D3*
G1X147638Y88583D3*
G1X157480Y118110D3*
G1X150787Y141339D3*
G1X147638Y147638D3*
G1X157874Y138583D3*
G1X158268Y157480D3*
G1X167323Y9842D3*
G1X167323Y29528D3*
G1X167323Y49213D3*
G1X167323Y88583D3*
G1X167323Y108268D3*
G1X167323Y147638D3*
G1X187008Y9842D3*
G1X177165Y19685D3*
G1X187008Y29528D3*
G1X177165Y39370D3*
G1X187402Y49213D3*
G1X177165Y59055D3*
G1X177165Y78740D3*
G1X185827Y81890D3*
G1X187008Y88583D3*
G1X177165Y98425D3*
G1X177165Y118110D3*
G1X187008Y108268D3*
G1X186220Y114567D3*
G1X177953Y137795D3*
G1X187795Y147638D3*
G1X177953Y157480D3*
G1X192913Y49213D3*
G1X192520Y81890D3*
G1X192913Y114567D3*
G1X192520Y147638D3*
G54D37*
G1X69681Y47244D3*
G1X67721Y47244D3*
G1X65751Y47244D3*
G1X63781Y47244D3*
G1X61811Y47244D3*
G1X61811Y66734D3*
G1X63781Y66734D3*
G1X65751Y66734D3*
G1X67721Y66734D3*
G1X69681Y66734D3*
G1X75591Y47244D3*
G1X73621Y47244D3*
G1X71651Y47244D3*
G1X71651Y66734D3*
G1X73621Y66734D3*
G1X75591Y66734D3*
G54D35*
G1X7874Y45079D3*
G1X7874Y55906D3*
G1X7874Y66732D3*
G1X188976Y54921D3*
G1X188976Y65748D3*
G1X188976Y76575D3*
G1X188976Y120276D3*
G1X188976Y131102D3*
G1X188976Y141929D3*
G54D41*
G1X25591Y23622D3*
G1X25591Y30712D3*
G1X35041Y23622D3*
G1X35041Y30712D3*
G54D26*
G1X78000Y147600D3*
G1X78000Y156000D3*
G54D12*
G1X94646Y174252D3*
G1X94646Y184252D3*
G1X114646Y174252D3*
G1X104646Y174252D3*
G1X114646Y184252D3*
G1X104646Y184252D3*
G1X124646Y174252D3*
G1X124646Y184252D3*
G1X134646Y174252D3*
G1X144646Y184252D3*
G1X134646Y184252D3*
G1X154646Y174252D3*
G1X154646Y184252D3*
G1X174646Y174252D3*
G1X164646Y174252D3*
G1X174646Y184252D3*
G1X164646Y184252D3*
G1X184646Y174252D3*
G54D23*
G1X25896Y37008D3*
G1X31496Y37008D3*
G1X42913Y37008D3*
G1X48513Y37008D3*
G1X42913Y51968D3*
G1X48513Y51968D3*
G1X42913Y44488D3*
G1X48513Y44488D3*
G1X42913Y59449D3*
G1X48513Y59449D3*
G1X42913Y66929D3*
G1X48513Y66929D3*
G1X42913Y74409D3*
G1X48513Y74409D3*
G1X48000Y136000D3*
G1X53600Y136000D3*
G1X81014Y83465D3*
G1X84252Y107480D3*
G1X94094Y53543D3*
G1X88495Y53543D3*
G1X94094Y46063D3*
G1X88495Y46063D3*
G1X94094Y61024D3*
G1X88495Y61024D3*
G1X94094Y68504D3*
G1X88495Y68504D3*
G1X94488Y75984D3*
G1X100088Y75984D3*
G1X100000Y83465D3*
G1X94400Y83465D3*
G1X86614Y83465D3*
G1X96762Y107480D3*
G1X89852Y107480D3*
G1X112992Y83465D3*
G1X112992Y75984D3*
G1X112992Y90945D3*
G1X102362Y107480D3*
G1X118504Y65748D3*
G1X124104Y65748D3*
G1X118592Y83465D3*
G1X118592Y75984D3*
G1X130226Y83465D3*
G1X118592Y90945D3*
G1X130226Y90945D3*
G1X118504Y131102D3*
G1X124104Y131102D3*
G1X138189Y65748D3*
G1X143789Y65748D3*
G1X135826Y83465D3*
G1X135826Y90945D3*
G1X138189Y131102D3*
G1X143789Y131102D3*
G1X157874Y65748D3*
G1X157874Y131102D3*
G1X163474Y65748D3*
G1X163474Y131102D3*
G54D13*
G1X144646Y174252D3*
G1X184646Y184252D3*
G54D11*
G1X21602Y41602D3*
G1X37000Y55700D3*
G1X37000Y63200D3*
G1X37000Y70600D3*
G1X61300Y26000D3*
G1X68800Y26000D3*
G1X60400Y94700D3*
G1X60630Y146456D3*
G1X71653Y137795D3*
G1X71260Y146456D3*
G1X66142Y137795D3*
G1X66142Y146456D3*
G1X60630Y137795D3*
G1X77165Y137795D3*
G1X88495Y40000D3*
G1X100000Y49800D3*
G1X100000Y64800D3*
G1X124409Y89764D3*
G1X124409Y84252D3*
G1X94646Y179852D2*
G54D14*
G1X94646Y184252D1*
G1X94646Y188652D1*
G1X90246Y184252D2*
G1X94646Y184252D1*
G1X99046Y184252D1*
G1X104646Y179852D2*
G1X104646Y184252D1*
G1X104646Y188652D1*
G1X100246Y184252D2*
G1X104646Y184252D1*
G1X109046Y184252D1*
G1X114646Y179852D2*
G1X114646Y184252D1*
G1X114646Y188652D1*
G1X110246Y184252D2*
G1X114646Y184252D1*
G1X119046Y184252D1*
G1X124646Y179852D2*
G1X124646Y184252D1*
G1X124646Y188652D1*
G1X120246Y184252D2*
G1X124646Y184252D1*
G1X129046Y184252D1*
G1X134646Y179852D2*
G1X134646Y184252D1*
G1X134646Y188652D1*
G1X130245Y184252D2*
G1X134646Y184252D1*
G1X139046Y184252D1*
G54D39*
G1X27556Y136813D3*
G1X27556Y187792D3*
G1X54724Y51575D2*
G54D15*
G1X57184Y54034D1*
G1X58961Y54034D1*
G1X48513Y52268D2*
G1X54219Y57974D1*
G1X58961Y57974D1*
G1X58961Y56004D2*
G1X55986Y56004D1*
G1X51968Y51986D1*
G1X51968Y48243D1*
G1X48513Y44788D1*
G1X48513Y44488D1*
G1X58961Y63874D2*
G1X58961Y66862D1*
G1X51413Y74409D1*
G1X48513Y74409D1*
G1X48513Y59449D2*
G1X52362Y59449D1*
G1X52858Y59944D1*
G1X58961Y59944D1*
G1X48513Y66929D2*
G1X51575Y66929D1*
G1X56590Y61914D1*
G1X58961Y61914D1*
G1X56693Y84646D2*
G1X56393Y84646D1*
G1X52756Y81009D1*
G1X52756Y75789D1*
G1X56104Y72441D1*
G1X59079Y72441D1*
G1X61811Y69709D1*
G1X61811Y66734D1*
G1X62579Y42939D2*
G1X62646Y43006D1*
G1X62646Y44440D1*
G1X63362Y45156D1*
G1X63362Y45157D1*
G1X63781Y45576D1*
G1X63781Y47244D1*
G1X61811Y47244D2*
G1X61811Y46122D1*
G1X59917Y44228D1*
G1X59917Y42627D1*
G1X64661Y37884D1*
G1X72141Y37884D2*
G1X69721Y40304D1*
G1X69721Y44140D1*
G1X69681Y44180D1*
G1X69681Y47244D1*
G1X67721Y47244D2*
G1X67721Y43701D1*
G1X65751Y47244D2*
G1X65751Y44491D1*
G1X64961Y43701D1*
G1X56693Y79046D2*
G1X56993Y79046D1*
G1X63781Y72257D1*
G1X63781Y66734D1*
G1X64173Y79046D2*
G1X64173Y76146D1*
G1X65751Y74568D1*
G1X65751Y66734D1*
G1X71654Y79046D2*
G1X71354Y79046D1*
G1X67716Y75409D1*
G1X67716Y69713D1*
G1X67721Y69709D1*
G1X67721Y66734D1*
G1X79921Y37884D2*
G1X79621Y37884D1*
G1X76560Y40945D1*
G1X74409Y40945D1*
G1X71651Y43703D1*
G1X71651Y47244D1*
G1X78441Y54034D2*
G1X81792Y54034D1*
G1X76378Y43307D2*
G1X74585Y43307D1*
G1X73621Y44271D1*
G1X73621Y47244D1*
G1X75591Y47244D2*
G1X77442Y47244D1*
G1X78347Y46340D1*
G1X78441Y52064D2*
G1X81006Y52064D1*
G1X81890Y51181D1*
G1X80709Y48425D2*
G1X80709Y49094D1*
G1X79709Y50094D1*
G1X78441Y50094D1*
G1X78441Y56004D2*
G1X80933Y56004D1*
G1X80964Y56034D1*
G1X82621Y56034D1*
G1X82651Y56004D1*
G1X82972Y56004D1*
G1X85039Y53937D1*
G1X85039Y49818D1*
G1X88495Y46363D1*
G1X88495Y46063D1*
G1X88495Y53543D2*
G1X88495Y53843D1*
G1X84364Y57974D1*
G1X78441Y57974D1*
G1X88495Y61024D2*
G1X83465Y61024D1*
G1X82385Y59944D1*
G1X78441Y59944D1*
G1X88495Y68504D2*
G1X85031Y68504D1*
G1X83071Y66544D1*
G1X83071Y63569D1*
G1X81416Y61914D1*
G1X78441Y61914D1*
G1X73621Y66734D2*
G1X73621Y68828D1*
G1X75265Y70472D1*
G54D24*
G1X56693Y84646D3*
G1X56693Y79046D3*
G1X57480Y32284D3*
G1X57480Y37884D3*
G1X64961Y32284D3*
G1X64961Y37884D3*
G1X64173Y84646D3*
G1X64173Y79046D3*
G1X71654Y84646D3*
G1X71654Y79046D3*
G1X79921Y32284D3*
G1X79921Y37884D3*
G1X72441Y32284D3*
G1X72441Y37884D3*
G1X80315Y94488D3*
G1X80315Y100088D3*
G1X72835Y100000D3*
G1X72835Y94400D3*
G1X95276Y94488D3*
G1X95276Y100088D3*
G1X87795Y100000D3*
G1X87795Y94400D3*
G1X131102Y60236D3*
G1X131102Y65836D3*
G1X131102Y131014D3*
G1X131102Y136614D3*
G1X150787Y60236D3*
G1X150787Y65836D3*
G1X150787Y131014D3*
G1X150787Y136614D3*
G1X7874Y55906D2*
G54D42*
G1X18898Y55906D1*
G1X37795Y37008D1*
G1X42913Y37008D1*
G1X57480Y32284D2*
G1X54660Y32284D1*
G75*
G3X53670Y31873I1J-1400D1*
G74*
G1X53031Y31234D1*
G75*
G2X51771Y30712I-1260J1260D1*
G74*
G1X35041Y30712D1*
G1X48513Y37008D2*
G1X52362Y37008D1*
G1X53238Y37884D1*
G1X57480Y37884D1*
G1X57480Y44508D1*
G1X58961Y45988D1*
G1X58961Y50094D1*
G1X69681Y66734D2*
G1X69685Y66738D1*
G1X69685Y72834D1*
G1X72279Y75428D1*
G1X78971Y75428D1*
G1X81014Y77471D1*
G1X81014Y83465D1*
G1X86614Y83465D2*
G1X86614Y79921D1*
G1X79921Y73228D1*
G1X74803Y73228D1*
G1X71651Y70076D1*
G1X71651Y66734D1*
G1X94488Y75984D2*
G1X88976Y75984D1*
G1X79726Y66734D1*
G1X75591Y66734D1*
G1X81014Y83465D2*
G1X81014Y88671D1*
G1X80315Y89370D1*
G1X80315Y94488D1*
G1X72835Y94400D2*
G1X76235Y94400D1*
G1X76323Y94488D1*
G1X80315Y94488D1*
G1X87795Y100000D2*
G1X87795Y100181D1*
G1X84252Y103724D1*
G1X80315Y100088D2*
G1X80615Y100088D1*
G1X84252Y103724D1*
G1X84252Y107480D2*
G1X84252Y103724D1*
G1X86614Y83465D2*
G1X86614Y88583D1*
G1X87795Y89764D1*
G1X87795Y94400D1*
G1X100088Y75984D2*
G1X112992Y75984D1*
G1X87795Y94400D2*
G1X91787Y94400D1*
G1X91876Y94488D1*
G1X95276Y94488D1*
G1X89852Y107480D2*
G1X96762Y107480D1*
G1X118504Y131102D2*
G1X118504Y130802D1*
G1X105035Y117334D1*
G75*
G3X102362Y110880I6454J-6454D1*
G74*
G1X102362Y107480D1*
G1X118592Y75984D2*
G1X118592Y70954D1*
G1X118504Y70866D1*
G1X118504Y65748D1*
G1X124104Y65748D2*
G1X127614Y65748D1*
G1X127702Y65836D1*
G1X131102Y65836D1*
G1X131102Y131014D2*
G1X127702Y131014D1*
G1X127615Y131102D1*
G1X124104Y131102D1*
G1X131102Y65836D2*
G1X135000Y65836D1*
G1X135089Y65748D1*
G1X138189Y65748D1*
G1X143789Y65748D2*
G1X147299Y65748D1*
G1X147387Y65836D1*
G1X150787Y65836D1*
G1X138189Y131102D2*
G1X135089Y131102D1*
G1X135001Y131014D1*
G1X131102Y131014D1*
G1X150787Y131014D2*
G1X147387Y131014D1*
G1X147300Y131102D1*
G1X143789Y131102D1*
G1X150787Y65836D2*
G1X154685Y65836D1*
G1X154774Y65748D1*
G1X157874Y65748D1*
G1X157874Y131102D2*
G1X154774Y131102D1*
G1X154686Y131014D1*
G1X150787Y131014D1*
G1X163474Y65748D2*
G1X188976Y65748D1*
G1X188976Y131102D2*
G1X179802Y131102D1*
G1X179801Y131102D1*
G1X163474Y131102D1*
G54D40*
G1X60236Y159842D3*
G54D38*
G1X58961Y50094D3*
G1X58961Y52064D3*
G1X58961Y54034D3*
G1X58961Y56004D3*
G1X58961Y57974D3*
G1X58961Y59944D3*
G1X58961Y61914D3*
G1X58961Y63874D3*
G1X78441Y57974D3*
G1X78441Y56004D3*
G1X78441Y54034D3*
G1X78441Y52064D3*
G1X78441Y50094D3*
G1X78441Y63874D3*
G1X78441Y61914D3*
G1X78441Y59944D3*
G54D36*
G1X68701Y56984D3*
M2*
