*
%LPD*%
%LNfrontendSST*%
%FSLAX25Y25*%
%MOIN*%
%AD*%
%AD*%
%ADD14C,0.005*%
%ADD20C,0.003940945*%
%ADD44C,0.005979921*%
%ADD45C,0.007988189*%
G54D14*
%SRX1Y1I0.0J0.0*%
G1X13455Y48532D2*
G1X13588Y48281D1*
G1X13748Y48115D1*
G1X13935Y48032D1*
G1X14148Y48115D1*
G1X14308Y48281D1*
G1X14467Y48532D1*
G1X14521Y48865D1*
G1X14521Y50531D1*
G1X15678Y50115D2*
G1X15838Y50365D1*
G1X16024Y50490D1*
G1X16237Y50531D1*
G1X16504Y50448D1*
G1X16690Y50240D1*
G1X16743Y49990D1*
G1X16717Y49740D1*
G1X16610Y49532D1*
G1X16078Y49115D1*
G1X15838Y48823D1*
G1X15678Y48406D1*
G1X15625Y48032D1*
G1X16743Y48032D1*
G1X13062Y146760D2*
G1X13195Y146510D1*
G1X13355Y146343D1*
G1X13541Y146260D1*
G1X13754Y146343D1*
G1X13914Y146510D1*
G1X14074Y146760D1*
G1X14127Y147093D1*
G1X14127Y148760D1*
G1X15204Y146760D2*
G1X15364Y146468D1*
G1X15577Y146302D1*
G1X15817Y146260D1*
G1X16030Y146302D1*
G1X16243Y146510D1*
G1X16376Y146760D1*
G1X16403Y147010D1*
G1X16350Y147301D1*
G1X16163Y147510D1*
G1X15977Y147593D1*
G1X15737Y147593D1*
G1X15977Y147593D2*
G1X16136Y147718D1*
G1X16270Y147926D1*
G1X16323Y148176D1*
G1X16270Y148427D1*
G1X16136Y148635D1*
G1X15897Y148760D1*
G1X15657Y148718D1*
G1X15417Y148551D1*
G1X6959Y179528D2*
G1X6959Y182028D1*
G1X7598Y182028D1*
G1X7811Y181903D1*
G1X7971Y181611D1*
G1X8025Y181278D1*
G1X7971Y180944D1*
G1X7838Y180694D1*
G1X7598Y180569D1*
G1X6959Y180569D1*
G1X8889Y178694D2*
G1X10487Y178694D1*
G1X11298Y179528D2*
G1X11298Y182028D1*
G1X11831Y182028D1*
G1X12044Y181903D1*
G1X12204Y181736D1*
G1X12337Y181486D1*
G1X12443Y181194D1*
G1X12470Y180778D1*
G1X12443Y180361D1*
G1X12337Y180069D1*
G1X12204Y179819D1*
G1X12044Y179653D1*
G1X11831Y179528D1*
G1X11298Y179528D1*
G1X16999Y179331D2*
G1X16999Y181831D1*
G1X17638Y181831D1*
G1X17851Y181706D1*
G1X18011Y181414D1*
G1X18064Y181081D1*
G1X18011Y180747D1*
G1X17878Y180497D1*
G1X17638Y180372D1*
G1X16999Y180372D1*
G1X19141Y179331D2*
G1X19141Y181831D1*
G1X19674Y181831D1*
G1X19887Y181706D1*
G1X20047Y181539D1*
G1X20180Y181289D1*
G1X20287Y180997D1*
G1X20313Y180581D1*
G1X20287Y180164D1*
G1X20180Y179872D1*
G1X20047Y179622D1*
G1X19887Y179456D1*
G1X19674Y179331D1*
G1X19141Y179331D1*
G1X22509Y181622D2*
G1X22349Y181747D1*
G1X22163Y181831D1*
G1X21950Y181831D1*
G1X21710Y181706D1*
G1X21524Y181497D1*
G1X21391Y181247D1*
G1X21284Y180831D1*
G1X21257Y180456D1*
G1X21311Y180081D1*
G1X21391Y179831D1*
G1X21550Y179581D1*
G1X21737Y179414D1*
G1X21923Y179331D1*
G1X22110Y179331D1*
G1X22296Y179414D1*
G1X22456Y179539D1*
G1X22589Y179706D1*
G1X37501Y30139D2*
G1X37376Y29979D1*
G1X37293Y29793D1*
G1X37293Y29580D1*
G1X37418Y29340D1*
G1X37626Y29153D1*
G1X37876Y29020D1*
G1X38293Y28914D1*
G1X38668Y28887D1*
G1X39043Y28940D1*
G1X39293Y29020D1*
G1X39543Y29180D1*
G1X39710Y29366D1*
G1X39793Y29553D1*
G1X39793Y29739D1*
G1X39710Y29926D1*
G1X39585Y30086D1*
G1X39418Y30219D1*
G1X37710Y31243D2*
G1X37460Y31403D1*
G1X37335Y31589D1*
G1X37293Y31802D1*
G1X37376Y32068D1*
G1X37585Y32255D1*
G1X37835Y32308D1*
G1X38085Y32282D1*
G1X38293Y32175D1*
G1X38710Y31642D1*
G1X39001Y31403D1*
G1X39418Y31243D1*
G1X39793Y31190D1*
G1X39793Y32308D1*
G1X37710Y33439D2*
G1X37460Y33599D1*
G1X37335Y33785D1*
G1X37293Y33998D1*
G1X37376Y34264D1*
G1X37585Y34451D1*
G1X37835Y34504D1*
G1X38085Y34478D1*
G1X38293Y34371D1*
G1X38710Y33838D1*
G1X39001Y33599D1*
G1X39418Y33439D1*
G1X39793Y33386D1*
G1X39793Y34504D1*
G1X30897Y62607D2*
G1X32665Y64375D1*
G1X33136Y63904D1*
G1X33198Y63665D1*
G1X33174Y63453D1*
G1X32976Y63180D1*
G1X32703Y62981D1*
G1X32443Y62947D1*
G1X32222Y62991D1*
G1X31751Y63461D1*
G1X32222Y62991D2*
G1X31650Y61854D1*
G1X32826Y60677D2*
G1X34594Y62445D1*
G1X34015Y62318D1*
G1X32600Y60904D2*
G1X33052Y60452D1*
G1X35495Y60956D2*
G1X35784Y61019D1*
G1X36005Y60976D1*
G1X36185Y60855D1*
G1X36314Y60608D1*
G1X36299Y60328D1*
G1X36160Y60114D1*
G1X35964Y59956D1*
G1X35741Y59884D1*
G1X35070Y59966D1*
G1X34694Y59929D1*
G1X34287Y59748D1*
G1X33984Y59520D1*
G1X34775Y58729D1*
G1X32669Y67117D2*
G1X30901Y68885D1*
G1X31372Y69356D1*
G1X31611Y69418D1*
G1X31823Y69395D1*
G1X32096Y69196D1*
G1X32294Y68923D1*
G1X32328Y68663D1*
G1X32285Y68443D1*
G1X31814Y67972D1*
G1X32285Y68443D2*
G1X33422Y67871D1*
G1X34560Y69009D2*
G1X34215Y69430D1*
G1X33948Y69810D1*
G1X33728Y70180D1*
G1X33498Y70599D1*
G1X33207Y71191D1*
G1X32454Y70438D1*
G1X29928Y93827D2*
G1X29768Y93952D1*
G1X29582Y94035D1*
G1X29369Y94035D1*
G1X29129Y93910D1*
G1X28943Y93702D1*
G1X28810Y93452D1*
G1X28703Y93035D1*
G1X28676Y92660D1*
G1X28730Y92285D1*
G1X28810Y92035D1*
G1X28969Y91785D1*
G1X29156Y91619D1*
G1X29342Y91535D1*
G1X29529Y91535D1*
G1X29715Y91619D1*
G1X29875Y91744D1*
G1X30008Y91910D1*
G1X31538Y91535D2*
G1X31725Y91577D1*
G1X31938Y91702D1*
G1X32071Y91910D1*
G1X32124Y92202D1*
G1X32071Y92494D1*
G1X31911Y92744D1*
G1X31671Y92869D1*
G1X31405Y92869D1*
G1X31245Y92952D1*
G1X31112Y93160D1*
G1X31059Y93452D1*
G1X31139Y93744D1*
G1X31325Y93952D1*
G1X31538Y94035D1*
G1X31751Y93952D1*
G1X31938Y93744D1*
G1X32018Y93452D1*
G1X31964Y93160D1*
G1X31831Y92952D1*
G1X31671Y92869D1*
G1X31405Y92869D1*
G1X31165Y92744D1*
G1X31006Y92494D1*
G1X30952Y92202D1*
G1X31006Y91910D1*
G1X31139Y91702D1*
G1X31352Y91577D1*
G1X31538Y91535D1*
G1X36621Y130047D2*
G1X36461Y130173D1*
G1X36275Y130256D1*
G1X36062Y130256D1*
G1X35822Y130131D1*
G1X35636Y129923D1*
G1X35502Y129672D1*
G1X35396Y129256D1*
G1X35369Y128881D1*
G1X35423Y128506D1*
G1X35502Y128256D1*
G1X35662Y128006D1*
G1X35849Y127839D1*
G1X36035Y127756D1*
G1X36222Y127756D1*
G1X36408Y127839D1*
G1X36568Y127964D1*
G1X36701Y128131D1*
G1X38551Y127756D2*
G1X38551Y130256D1*
G1X37565Y128464D1*
G1X38897Y128464D1*
G1X36621Y136937D2*
G1X36461Y137062D1*
G1X36275Y137146D1*
G1X36062Y137146D1*
G1X35822Y137021D1*
G1X35636Y136812D1*
G1X35502Y136562D1*
G1X35396Y136146D1*
G1X35369Y135771D1*
G1X35423Y135396D1*
G1X35502Y135146D1*
G1X35662Y134896D1*
G1X35849Y134729D1*
G1X36035Y134646D1*
G1X36222Y134646D1*
G1X36408Y134729D1*
G1X36568Y134854D1*
G1X36701Y135021D1*
G1X37645Y135021D2*
G1X37805Y134812D1*
G1X37992Y134687D1*
G1X38231Y134646D1*
G1X38471Y134729D1*
G1X38657Y134896D1*
G1X38790Y135187D1*
G1X38817Y135521D1*
G1X38764Y135854D1*
G1X38631Y136062D1*
G1X38444Y136229D1*
G1X38258Y136271D1*
G1X38071Y136229D1*
G1X37832Y136062D1*
G1X37912Y137146D1*
G1X38631Y137146D1*
G1X32684Y158984D2*
G1X32524Y159110D1*
G1X32338Y159193D1*
G1X32125Y159193D1*
G1X31885Y159068D1*
G1X31699Y158860D1*
G1X31565Y158610D1*
G1X31459Y158193D1*
G1X31432Y157818D1*
G1X31486Y157443D1*
G1X31565Y157193D1*
G1X31725Y156943D1*
G1X31912Y156776D1*
G1X32098Y156693D1*
G1X32285Y156693D1*
G1X32471Y156776D1*
G1X32631Y156901D1*
G1X32764Y157068D1*
G1X33788Y157734D2*
G1X33975Y158026D1*
G1X34134Y158193D1*
G1X34348Y158276D1*
G1X34534Y158193D1*
G1X34667Y158026D1*
G1X34774Y157776D1*
G1X34800Y157485D1*
G1X34774Y157234D1*
G1X34667Y156985D1*
G1X34507Y156776D1*
G1X34321Y156693D1*
G1X34108Y156776D1*
G1X33921Y157026D1*
G1X33815Y157401D1*
G1X33788Y157818D1*
G1X33841Y158360D1*
G1X33921Y158651D1*
G1X34055Y158943D1*
G1X34241Y159151D1*
G1X34427Y159193D1*
G1X34614Y159110D1*
G1X34747Y158901D1*
G1X26251Y179528D2*
G1X26251Y182028D1*
G1X26890Y182028D1*
G1X27103Y181903D1*
G1X27263Y181611D1*
G1X27316Y181278D1*
G1X27263Y180944D1*
G1X27130Y180694D1*
G1X26890Y180569D1*
G1X26251Y180569D1*
G1X28393Y179528D2*
G1X28393Y182028D1*
G1X28926Y182028D1*
G1X29139Y181903D1*
G1X29299Y181736D1*
G1X29432Y181486D1*
G1X29539Y181194D1*
G1X29565Y180778D1*
G1X29539Y180361D1*
G1X29432Y180069D1*
G1X29299Y179819D1*
G1X29139Y179653D1*
G1X28926Y179528D1*
G1X28393Y179528D1*
G1X31708Y179528D2*
G1X30643Y179528D1*
G1X30643Y182028D1*
G1X31708Y182028D1*
G1X31282Y180819D2*
G1X30643Y180819D1*
G1X33371Y182028D2*
G1X33371Y179528D1*
G1X32759Y182028D2*
G1X33984Y182028D1*
G1X36354Y179528D2*
G1X37020Y182028D1*
G1X37685Y179528D1*
G1X37446Y180403D2*
G1X36593Y180403D1*
G1X38683Y179528D2*
G1X38683Y182028D1*
G1X39322Y182028D1*
G1X39535Y181903D1*
G1X39695Y181611D1*
G1X39748Y181278D1*
G1X39695Y180944D1*
G1X39562Y180694D1*
G1X39322Y180569D1*
G1X38683Y180569D1*
G1X41997Y181819D2*
G1X41838Y181944D1*
G1X41651Y182028D1*
G1X41438Y182028D1*
G1X41198Y181903D1*
G1X41012Y181694D1*
G1X40879Y181444D1*
G1X40772Y181028D1*
G1X40746Y180653D1*
G1X40799Y180278D1*
G1X40879Y180028D1*
G1X41039Y179778D1*
G1X41225Y179611D1*
G1X41412Y179528D1*
G1X41598Y179528D1*
G1X41784Y179611D1*
G1X41944Y179736D1*
G1X42077Y179902D1*
G1X43608Y179528D2*
G1X43608Y182028D1*
G1X43288Y181528D1*
G1X43288Y179528D2*
G1X43927Y179528D1*
G1X54992Y10440D2*
G1X54867Y10280D1*
G1X54784Y10094D1*
G1X54784Y9881D1*
G1X54909Y9641D1*
G1X55117Y9455D1*
G1X55367Y9321D1*
G1X55784Y9215D1*
G1X56158Y9188D1*
G1X56534Y9242D1*
G1X56784Y9321D1*
G1X57034Y9481D1*
G1X57200Y9668D1*
G1X57284Y9854D1*
G1X57284Y10040D1*
G1X57200Y10227D1*
G1X57075Y10387D1*
G1X56909Y10520D1*
G1X55200Y11544D2*
G1X54950Y11704D1*
G1X54825Y11890D1*
G1X54784Y12103D1*
G1X54867Y12370D1*
G1X55075Y12556D1*
G1X55325Y12609D1*
G1X55575Y12583D1*
G1X55784Y12476D1*
G1X56200Y11944D1*
G1X56492Y11704D1*
G1X56909Y11544D1*
G1X57284Y11491D1*
G1X57284Y12609D1*
G1X57284Y14566D2*
G1X54784Y14566D1*
G1X56575Y13580D1*
G1X56575Y14912D1*
G1X44756Y30322D2*
G1X44630Y30162D1*
G1X44547Y29976D1*
G1X44547Y29763D1*
G1X44672Y29523D1*
G1X44880Y29337D1*
G1X45131Y29203D1*
G1X45547Y29097D1*
G1X45922Y29070D1*
G1X46297Y29123D1*
G1X46547Y29203D1*
G1X46797Y29363D1*
G1X46964Y29550D1*
G1X47047Y29736D1*
G1X47047Y29922D1*
G1X46964Y30109D1*
G1X46839Y30269D1*
G1X46672Y30402D1*
G1X44964Y31426D2*
G1X44714Y31586D1*
G1X44589Y31772D1*
G1X44547Y31985D1*
G1X44630Y32252D1*
G1X44839Y32438D1*
G1X45089Y32491D1*
G1X45339Y32465D1*
G1X45547Y32358D1*
G1X45964Y31826D1*
G1X46256Y31586D1*
G1X46672Y31426D1*
G1X47047Y31373D1*
G1X47047Y32491D1*
G1X46547Y33542D2*
G1X46839Y33702D1*
G1X47006Y33915D1*
G1X47047Y34155D1*
G1X47006Y34368D1*
G1X46797Y34581D1*
G1X46547Y34714D1*
G1X46297Y34741D1*
G1X46006Y34687D1*
G1X45797Y34501D1*
G1X45714Y34314D1*
G1X45714Y34075D1*
G1X45714Y34314D2*
G1X45589Y34474D1*
G1X45381Y34607D1*
G1X45131Y34661D1*
G1X44880Y34607D1*
G1X44672Y34474D1*
G1X44547Y34234D1*
G1X44589Y33995D1*
G1X44756Y33755D1*
G1X50787Y29006D2*
G1X48287Y29006D1*
G1X48287Y29672D1*
G1X48412Y29885D1*
G1X48579Y30019D1*
G1X48912Y30072D1*
G1X49246Y30019D1*
G1X49454Y29859D1*
G1X49579Y29672D1*
G1X49579Y29006D1*
G1X49579Y29672D2*
G1X50787Y30072D1*
G1X50787Y31735D2*
G1X48287Y31735D1*
G1X48787Y31416D1*
G1X50787Y31416D2*
G1X50787Y32055D1*
G1X48287Y33931D2*
G1X48371Y33718D1*
G1X48579Y33558D1*
G1X48829Y33452D1*
G1X49162Y33372D1*
G1X49537Y33345D1*
G1X49912Y33372D1*
G1X50246Y33452D1*
G1X50496Y33558D1*
G1X50704Y33718D1*
G1X50787Y33931D1*
G1X50704Y34144D1*
G1X50496Y34304D1*
G1X50246Y34411D1*
G1X49912Y34490D1*
G1X49537Y34517D1*
G1X49162Y34490D1*
G1X48829Y34411D1*
G1X48579Y34304D1*
G1X48371Y34144D1*
G1X48287Y33931D1*
G1X41346Y46780D2*
G1X41186Y46905D1*
G1X40999Y46988D1*
G1X40786Y46988D1*
G1X40546Y46863D1*
G1X40360Y46655D1*
G1X40227Y46405D1*
G1X40120Y45988D1*
G1X40094Y45613D1*
G1X40147Y45238D1*
G1X40227Y44988D1*
G1X40387Y44738D1*
G1X40573Y44572D1*
G1X40760Y44488D1*
G1X40946Y44488D1*
G1X41132Y44572D1*
G1X41292Y44696D1*
G1X41426Y44863D1*
G1X42956Y44488D2*
G1X42956Y46988D1*
G1X42636Y46488D1*
G1X42636Y44488D2*
G1X43275Y44488D1*
G1X45152Y44488D2*
G1X45338Y44530D1*
G1X45551Y44655D1*
G1X45684Y44863D1*
G1X45738Y45155D1*
G1X45684Y45446D1*
G1X45524Y45696D1*
G1X45285Y45822D1*
G1X45018Y45822D1*
G1X44859Y45905D1*
G1X44725Y46113D1*
G1X44672Y46405D1*
G1X44752Y46696D1*
G1X44938Y46905D1*
G1X45152Y46988D1*
G1X45365Y46905D1*
G1X45551Y46696D1*
G1X45631Y46405D1*
G1X45578Y46113D1*
G1X45445Y45905D1*
G1X45285Y45822D1*
G1X45018Y45822D1*
G1X44779Y45696D1*
G1X44619Y45446D1*
G1X44566Y45155D1*
G1X44619Y44863D1*
G1X44752Y44655D1*
G1X44965Y44530D1*
G1X45152Y44488D1*
G1X41346Y54654D2*
G1X41186Y54779D1*
G1X40999Y54862D1*
G1X40786Y54862D1*
G1X40546Y54737D1*
G1X40360Y54529D1*
G1X40227Y54279D1*
G1X40120Y53862D1*
G1X40094Y53487D1*
G1X40147Y53112D1*
G1X40227Y52862D1*
G1X40387Y52612D1*
G1X40573Y52446D1*
G1X40760Y52362D1*
G1X40946Y52362D1*
G1X41132Y52446D1*
G1X41292Y52571D1*
G1X41426Y52737D1*
G1X42956Y52362D2*
G1X42956Y54862D1*
G1X42636Y54362D1*
G1X42636Y52362D2*
G1X43275Y52362D1*
G1X44699Y52654D2*
G1X44885Y52446D1*
G1X45098Y52362D1*
G1X45311Y52446D1*
G1X45498Y52696D1*
G1X45631Y53071D1*
G1X45684Y53446D1*
G1X45684Y53904D1*
G1X45631Y54279D1*
G1X45498Y54612D1*
G1X45338Y54779D1*
G1X45152Y54862D1*
G1X44938Y54779D1*
G1X44779Y54612D1*
G1X44672Y54362D1*
G1X44619Y54029D1*
G1X44672Y53737D1*
G1X44805Y53446D1*
G1X44965Y53279D1*
G1X45152Y53237D1*
G1X45365Y53321D1*
G1X45524Y53529D1*
G1X45684Y53904D1*
G1X50463Y71398D2*
G1X50463Y68898D1*
G1X51529Y68898D1*
G1X52686Y70981D2*
G1X52846Y71231D1*
G1X53032Y71356D1*
G1X53245Y71398D1*
G1X53512Y71314D1*
G1X53698Y71106D1*
G1X53751Y70856D1*
G1X53725Y70606D1*
G1X53618Y70398D1*
G1X53085Y69981D1*
G1X52846Y69689D1*
G1X52686Y69272D1*
G1X52633Y68898D1*
G1X53751Y68898D1*
G1X42527Y86544D2*
G1X42367Y86669D1*
G1X42180Y86752D1*
G1X41967Y86752D1*
G1X41728Y86627D1*
G1X41541Y86419D1*
G1X41408Y86169D1*
G1X41302Y85752D1*
G1X41275Y85377D1*
G1X41328Y85002D1*
G1X41408Y84752D1*
G1X41568Y84502D1*
G1X41754Y84335D1*
G1X41941Y84252D1*
G1X42127Y84252D1*
G1X42314Y84335D1*
G1X42473Y84460D1*
G1X42607Y84627D1*
G1X43684Y84544D2*
G1X43870Y84335D1*
G1X44083Y84252D1*
G1X44296Y84335D1*
G1X44483Y84585D1*
G1X44616Y84960D1*
G1X44669Y85335D1*
G1X44669Y85794D1*
G1X44616Y86169D1*
G1X44483Y86502D1*
G1X44323Y86669D1*
G1X44137Y86752D1*
G1X43924Y86669D1*
G1X43764Y86502D1*
G1X43657Y86252D1*
G1X43604Y85919D1*
G1X43657Y85627D1*
G1X43790Y85335D1*
G1X43950Y85169D1*
G1X44137Y85127D1*
G1X44350Y85210D1*
G1X44510Y85419D1*
G1X44669Y85794D1*
G1X58865Y105638D2*
G1X58705Y105763D1*
G1X58519Y105846D1*
G1X58306Y105846D1*
G1X58066Y105722D1*
G1X57880Y105513D1*
G1X57747Y105263D1*
G1X57640Y104846D1*
G1X57613Y104471D1*
G1X57667Y104096D1*
G1X57747Y103846D1*
G1X57906Y103596D1*
G1X58093Y103430D1*
G1X58279Y103346D1*
G1X58466Y103346D1*
G1X58652Y103430D1*
G1X58812Y103555D1*
G1X58945Y103721D1*
G1X60475Y103346D2*
G1X60475Y105846D1*
G1X60156Y105346D1*
G1X60156Y103346D2*
G1X60795Y103346D1*
G1X62671Y103346D2*
G1X62671Y105846D1*
G1X62352Y105346D1*
G1X62352Y103346D2*
G1X62991Y103346D1*
G1X41605Y95079D2*
G1X41605Y97579D1*
G1X42271Y97579D1*
G1X42484Y97454D1*
G1X42617Y97287D1*
G1X42670Y96954D1*
G1X42617Y96620D1*
G1X42457Y96412D1*
G1X42271Y96287D1*
G1X41605Y96287D1*
G1X42271Y96287D2*
G1X42670Y95079D1*
G1X43748Y95579D2*
G1X43907Y95287D1*
G1X44120Y95120D1*
G1X44360Y95079D1*
G1X44573Y95120D1*
G1X44786Y95329D1*
G1X44920Y95579D1*
G1X44946Y95829D1*
G1X44893Y96120D1*
G1X44706Y96329D1*
G1X44520Y96412D1*
G1X44280Y96412D1*
G1X44520Y96412D2*
G1X44680Y96537D1*
G1X44813Y96745D1*
G1X44866Y96995D1*
G1X44813Y97245D1*
G1X44680Y97454D1*
G1X44440Y97579D1*
G1X44200Y97537D1*
G1X43961Y97370D1*
G1X48888Y102756D2*
G1X48888Y105256D1*
G1X49554Y105256D1*
G1X49767Y105131D1*
G1X49900Y104964D1*
G1X49954Y104631D1*
G1X49900Y104298D1*
G1X49741Y104089D1*
G1X49554Y103964D1*
G1X48888Y103964D1*
G1X49554Y103964D2*
G1X49954Y102756D1*
G1X51937Y102756D2*
G1X51937Y105256D1*
G1X50951Y103464D1*
G1X52283Y103464D1*
G1X43967Y158996D2*
G1X43967Y156496D1*
G1X45032Y156496D1*
G1X46696Y156496D2*
G1X46696Y158996D1*
G1X46376Y158496D1*
G1X46376Y156496D2*
G1X47015Y156496D1*
G1X49282Y168504D2*
G1X49282Y171004D1*
G1X49948Y171004D1*
G1X50161Y170879D1*
G1X50294Y170712D1*
G1X50347Y170379D1*
G1X50294Y170046D1*
G1X50134Y169837D1*
G1X49948Y169712D1*
G1X49282Y169712D1*
G1X49948Y169712D2*
G1X50347Y168504D1*
G1X52011Y168504D2*
G1X52011Y171004D1*
G1X51691Y170504D1*
G1X51691Y168504D2*
G1X52330Y168504D1*
G1X46590Y179331D2*
G1X47256Y181831D1*
G1X47922Y179331D1*
G1X47682Y180206D2*
G1X46830Y180206D1*
G1X48919Y179331D2*
G1X48919Y181831D1*
G1X49558Y181831D1*
G1X49771Y181706D1*
G1X49931Y181414D1*
G1X49984Y181081D1*
G1X49931Y180747D1*
G1X49798Y180497D1*
G1X49558Y180372D1*
G1X48919Y180372D1*
G1X52234Y181622D2*
G1X52074Y181747D1*
G1X51887Y181831D1*
G1X51674Y181831D1*
G1X51435Y181706D1*
G1X51248Y181497D1*
G1X51115Y181247D1*
G1X51008Y180831D1*
G1X50982Y180456D1*
G1X51035Y180081D1*
G1X51115Y179831D1*
G1X51275Y179581D1*
G1X51461Y179414D1*
G1X51648Y179331D1*
G1X51834Y179331D1*
G1X52021Y179414D1*
G1X52180Y179539D1*
G1X52314Y179706D1*
G1X53338Y181414D2*
G1X53498Y181664D1*
G1X53684Y181789D1*
G1X53897Y181831D1*
G1X54163Y181747D1*
G1X54350Y181539D1*
G1X54403Y181289D1*
G1X54376Y181039D1*
G1X54270Y180831D1*
G1X53737Y180414D1*
G1X53498Y180122D1*
G1X53338Y179706D1*
G1X53284Y179331D1*
G1X54403Y179331D1*
G1X58275Y181622D2*
G1X58115Y181747D1*
G1X57928Y181831D1*
G1X57716Y181831D1*
G1X57476Y181706D1*
G1X57289Y181497D1*
G1X57156Y181247D1*
G1X57050Y180831D1*
G1X57023Y180456D1*
G1X57076Y180081D1*
G1X57156Y179831D1*
G1X57316Y179581D1*
G1X57502Y179414D1*
G1X57689Y179331D1*
G1X57875Y179331D1*
G1X58062Y179414D1*
G1X58222Y179539D1*
G1X58355Y179706D1*
G1X59885Y181831D2*
G1X59885Y179331D1*
G1X59272Y181831D2*
G1X60497Y181831D1*
G1X61548Y181831D2*
G1X61548Y179331D1*
G1X62614Y179331D1*
G1X69291Y9321D2*
G1X66791Y9321D1*
G1X66791Y9987D1*
G1X66916Y10200D1*
G1X67083Y10334D1*
G1X67416Y10387D1*
G1X67750Y10334D1*
G1X67958Y10174D1*
G1X68083Y9987D1*
G1X68083Y9321D1*
G1X68083Y9987D2*
G1X69291Y10387D1*
G1X69291Y12050D2*
G1X66791Y12050D1*
G1X67291Y11730D1*
G1X69291Y11730D2*
G1X69291Y12370D1*
G1X69291Y14246D2*
G1X66791Y14246D1*
G1X67291Y13926D1*
G1X69291Y13926D2*
G1X69291Y14566D1*
G1X64968Y32803D2*
G1X64808Y32929D1*
G1X64621Y33012D1*
G1X64408Y33012D1*
G1X64169Y32887D1*
G1X63982Y32679D1*
G1X63849Y32428D1*
G1X63742Y32012D1*
G1X63716Y31637D1*
G1X63769Y31262D1*
G1X63849Y31012D1*
G1X64009Y30762D1*
G1X64195Y30595D1*
G1X64382Y30512D1*
G1X64568Y30512D1*
G1X64755Y30595D1*
G1X64914Y30720D1*
G1X65048Y30887D1*
G1X66072Y32595D2*
G1X66232Y32845D1*
G1X66418Y32970D1*
G1X66631Y33012D1*
G1X66897Y32929D1*
G1X67084Y32720D1*
G1X67137Y32470D1*
G1X67110Y32220D1*
G1X67004Y32012D1*
G1X66471Y31595D1*
G1X66232Y31304D1*
G1X66072Y30887D1*
G1X66018Y30512D1*
G1X67137Y30512D1*
G1X68774Y30512D2*
G1X68774Y33012D1*
G1X68454Y32512D1*
G1X68454Y30512D2*
G1X69093Y30512D1*
G1X73495Y46850D2*
G1X73495Y49350D1*
G1X74160Y49350D1*
G1X74374Y49225D1*
G1X74507Y49059D1*
G1X74560Y48725D1*
G1X74507Y48392D1*
G1X74347Y48184D1*
G1X74160Y48059D1*
G1X73495Y48059D1*
G1X74160Y48059D2*
G1X74560Y46850D1*
G1X75771Y47142D2*
G1X75957Y46934D1*
G1X76170Y46850D1*
G1X76383Y46934D1*
G1X76570Y47184D1*
G1X76703Y47559D1*
G1X76756Y47934D1*
G1X76756Y48392D1*
G1X76703Y48767D1*
G1X76570Y49100D1*
G1X76410Y49267D1*
G1X76223Y49350D1*
G1X76010Y49267D1*
G1X75850Y49100D1*
G1X75744Y48850D1*
G1X75691Y48517D1*
G1X75744Y48225D1*
G1X75877Y47934D1*
G1X76037Y47767D1*
G1X76223Y47725D1*
G1X76436Y47809D1*
G1X76596Y48017D1*
G1X76756Y48392D1*
G1X75661Y63786D2*
G1X75536Y63627D1*
G1X75453Y63440D1*
G1X75453Y63227D1*
G1X75578Y62987D1*
G1X75786Y62801D1*
G1X76036Y62668D1*
G1X76453Y62561D1*
G1X76828Y62535D1*
G1X77203Y62588D1*
G1X77453Y62668D1*
G1X77703Y62828D1*
G1X77870Y63014D1*
G1X77953Y63201D1*
G1X77953Y63387D1*
G1X77870Y63574D1*
G1X77744Y63733D1*
G1X77578Y63866D1*
G1X77453Y64811D2*
G1X77744Y64970D1*
G1X77911Y65184D1*
G1X77953Y65423D1*
G1X77911Y65636D1*
G1X77703Y65849D1*
G1X77453Y65983D1*
G1X77203Y66009D1*
G1X76911Y65956D1*
G1X76703Y65770D1*
G1X76619Y65583D1*
G1X76619Y65343D1*
G1X76619Y65583D2*
G1X76495Y65743D1*
G1X76286Y65876D1*
G1X76036Y65929D1*
G1X75786Y65876D1*
G1X75578Y65743D1*
G1X75453Y65503D1*
G1X75495Y65263D1*
G1X75661Y65024D1*
G1X77953Y67912D2*
G1X75453Y67912D1*
G1X77244Y66927D1*
G1X77244Y68258D1*
G1X65164Y59772D2*
G1X65005Y59897D1*
G1X64818Y59980D1*
G1X64605Y59980D1*
G1X64365Y59855D1*
G1X64179Y59647D1*
G1X64046Y59397D1*
G1X63939Y58980D1*
G1X63913Y58605D1*
G1X63966Y58230D1*
G1X64046Y57980D1*
G1X64206Y57730D1*
G1X64392Y57564D1*
G1X64578Y57480D1*
G1X64765Y57480D1*
G1X64951Y57564D1*
G1X65111Y57689D1*
G1X65244Y57855D1*
G1X66268Y59564D2*
G1X66428Y59814D1*
G1X66615Y59939D1*
G1X66828Y59980D1*
G1X67094Y59897D1*
G1X67280Y59689D1*
G1X67334Y59439D1*
G1X67307Y59189D1*
G1X67201Y58980D1*
G1X66668Y58564D1*
G1X66428Y58272D1*
G1X66268Y57855D1*
G1X66215Y57480D1*
G1X67334Y57480D1*
G1X68970Y59980D2*
G1X68757Y59897D1*
G1X68598Y59689D1*
G1X68491Y59439D1*
G1X68411Y59105D1*
G1X68385Y58730D1*
G1X68411Y58355D1*
G1X68491Y58022D1*
G1X68598Y57772D1*
G1X68757Y57564D1*
G1X68970Y57480D1*
G1X69184Y57564D1*
G1X69343Y57772D1*
G1X69450Y58022D1*
G1X69530Y58355D1*
G1X69556Y58730D1*
G1X69530Y59105D1*
G1X69450Y59439D1*
G1X69343Y59689D1*
G1X69184Y59897D1*
G1X68970Y59980D1*
G1X68708Y69024D2*
G1X68548Y69149D1*
G1X68362Y69232D1*
G1X68148Y69232D1*
G1X67909Y69107D1*
G1X67722Y68899D1*
G1X67589Y68649D1*
G1X67483Y68232D1*
G1X67456Y67857D1*
G1X67509Y67482D1*
G1X67589Y67232D1*
G1X67749Y66982D1*
G1X67935Y66816D1*
G1X68122Y66732D1*
G1X68308Y66732D1*
G1X68495Y66816D1*
G1X68654Y66941D1*
G1X68788Y67107D1*
G1X70318Y66732D2*
G1X70318Y69232D1*
G1X69998Y68732D1*
G1X69998Y66732D2*
G1X70637Y66732D1*
G1X72008Y67774D2*
G1X72194Y68066D1*
G1X72354Y68232D1*
G1X72567Y68316D1*
G1X72754Y68232D1*
G1X72887Y68066D1*
G1X72993Y67816D1*
G1X73020Y67524D1*
G1X72993Y67274D1*
G1X72887Y67024D1*
G1X72727Y66816D1*
G1X72540Y66732D1*
G1X72327Y66816D1*
G1X72141Y67066D1*
G1X72034Y67441D1*
G1X72008Y67857D1*
G1X72061Y68399D1*
G1X72141Y68691D1*
G1X72274Y68982D1*
G1X72460Y69191D1*
G1X72647Y69232D1*
G1X72833Y69149D1*
G1X72967Y68941D1*
G1X77772Y81634D2*
G1X77772Y79842D1*
G1X77879Y79467D1*
G1X78092Y79217D1*
G1X78358Y79134D1*
G1X78624Y79217D1*
G1X78838Y79467D1*
G1X78944Y79842D1*
G1X78944Y81634D1*
G1X80874Y79134D2*
G1X80874Y81634D1*
G1X79888Y79842D1*
G1X81220Y79842D1*
G1X62605Y126504D2*
G1X62446Y126629D1*
G1X62259Y126713D1*
G1X62046Y126713D1*
G1X61806Y126588D1*
G1X61620Y126379D1*
G1X61487Y126129D1*
G1X61380Y125713D1*
G1X61354Y125338D1*
G1X61407Y124963D1*
G1X61487Y124713D1*
G1X61647Y124463D1*
G1X61833Y124296D1*
G1X62020Y124213D1*
G1X62206Y124213D1*
G1X62392Y124296D1*
G1X62552Y124421D1*
G1X62685Y124588D1*
G1X64216Y124213D2*
G1X64216Y126713D1*
G1X63896Y126213D1*
G1X63896Y124213D2*
G1X64535Y124213D1*
G1X66412Y126713D2*
G1X66198Y126629D1*
G1X66039Y126421D1*
G1X65932Y126171D1*
G1X65852Y125838D1*
G1X65826Y125463D1*
G1X65852Y125088D1*
G1X65932Y124754D1*
G1X66039Y124504D1*
G1X66198Y124296D1*
G1X66412Y124213D1*
G1X66624Y124296D1*
G1X66784Y124504D1*
G1X66891Y124754D1*
G1X66971Y125088D1*
G1X66997Y125463D1*
G1X66971Y125838D1*
G1X66891Y126171D1*
G1X66784Y126421D1*
G1X66624Y126629D1*
G1X66412Y126713D1*
G1X62471Y115098D2*
G1X62471Y112598D1*
G1X63536Y112598D1*
G1X64614Y113098D2*
G1X64774Y112807D1*
G1X64987Y112640D1*
G1X65226Y112598D1*
G1X65439Y112640D1*
G1X65652Y112848D1*
G1X65786Y113098D1*
G1X65812Y113348D1*
G1X65759Y113640D1*
G1X65573Y113848D1*
G1X65386Y113932D1*
G1X65146Y113932D1*
G1X65386Y113932D2*
G1X65546Y114057D1*
G1X65679Y114265D1*
G1X65732Y114515D1*
G1X65679Y114765D1*
G1X65546Y114973D1*
G1X65306Y115098D1*
G1X65066Y115057D1*
G1X64827Y114890D1*
G1X65174Y160374D2*
G1X65174Y158582D1*
G1X65280Y158207D1*
G1X65493Y157957D1*
G1X65760Y157874D1*
G1X66026Y157957D1*
G1X66239Y158207D1*
G1X66346Y158582D1*
G1X66346Y160374D1*
G1X67370Y158374D2*
G1X67529Y158082D1*
G1X67742Y157916D1*
G1X67982Y157874D1*
G1X68195Y157916D1*
G1X68408Y158124D1*
G1X68542Y158374D1*
G1X68568Y158624D1*
G1X68515Y158916D1*
G1X68328Y159124D1*
G1X68142Y159207D1*
G1X67902Y159207D1*
G1X68142Y159207D2*
G1X68302Y159332D1*
G1X68435Y159541D1*
G1X68488Y159791D1*
G1X68435Y160041D1*
G1X68302Y160249D1*
G1X68062Y160374D1*
G1X67822Y160332D1*
G1X67583Y160166D1*
G1X77369Y158984D2*
G1X77209Y159110D1*
G1X77023Y159193D1*
G1X76810Y159193D1*
G1X76570Y159068D1*
G1X76384Y158860D1*
G1X76251Y158610D1*
G1X76144Y158193D1*
G1X76117Y157818D1*
G1X76171Y157443D1*
G1X76251Y157193D1*
G1X76410Y156943D1*
G1X76597Y156776D1*
G1X76783Y156693D1*
G1X76970Y156693D1*
G1X77156Y156776D1*
G1X77316Y156901D1*
G1X77449Y157068D1*
G1X78926Y156693D2*
G1X78979Y157234D1*
G1X79059Y157693D1*
G1X79166Y158110D1*
G1X79299Y158568D1*
G1X79512Y159193D1*
G1X78447Y159193D1*
G1X63062Y169882D2*
G1X63062Y172382D1*
G1X63728Y172382D1*
G1X63940Y172257D1*
G1X64074Y172090D1*
G1X64127Y171757D1*
G1X64074Y171424D1*
G1X63914Y171215D1*
G1X63728Y171090D1*
G1X63062Y171090D1*
G1X63728Y171090D2*
G1X64127Y169882D1*
G1X65284Y171965D2*
G1X65444Y172215D1*
G1X65630Y172340D1*
G1X65844Y172382D1*
G1X66110Y172299D1*
G1X66296Y172090D1*
G1X66350Y171840D1*
G1X66323Y171590D1*
G1X66216Y171382D1*
G1X65684Y170965D1*
G1X65444Y170674D1*
G1X65284Y170257D1*
G1X65231Y169882D1*
G1X66350Y169882D1*
G1X80125Y18433D2*
G1X79965Y18558D1*
G1X79779Y18642D1*
G1X79566Y18642D1*
G1X79326Y18517D1*
G1X79140Y18308D1*
G1X79006Y18058D1*
G1X78900Y17642D1*
G1X78873Y17267D1*
G1X78927Y16892D1*
G1X79006Y16642D1*
G1X79166Y16392D1*
G1X79353Y16225D1*
G1X79539Y16142D1*
G1X79726Y16142D1*
G1X79912Y16225D1*
G1X80072Y16350D1*
G1X80205Y16517D1*
G1X81229Y18225D2*
G1X81389Y18475D1*
G1X81575Y18600D1*
G1X81788Y18642D1*
G1X82055Y18558D1*
G1X82241Y18350D1*
G1X82294Y18100D1*
G1X82268Y17850D1*
G1X82161Y17642D1*
G1X81629Y17225D1*
G1X81389Y16933D1*
G1X81229Y16517D1*
G1X81176Y16142D1*
G1X82294Y16142D1*
G1X83345Y16517D2*
G1X83505Y16308D1*
G1X83692Y16183D1*
G1X83931Y16142D1*
G1X84171Y16225D1*
G1X84357Y16392D1*
G1X84490Y16683D1*
G1X84517Y17017D1*
G1X84464Y17350D1*
G1X84331Y17558D1*
G1X84144Y17725D1*
G1X83958Y17767D1*
G1X83771Y17725D1*
G1X83532Y17558D1*
G1X83612Y18642D1*
G1X84331Y18642D1*
G1X84321Y26909D2*
G1X84321Y24409D1*
G1X85387Y24409D1*
G1X86997Y24409D2*
G1X87050Y24951D1*
G1X87130Y25409D1*
G1X87236Y25826D1*
G1X87370Y26284D1*
G1X87583Y26909D1*
G1X86517Y26909D1*
G1X89583Y45217D2*
G1X89583Y43425D1*
G1X89690Y43050D1*
G1X89903Y42800D1*
G1X90169Y42716D1*
G1X90435Y42800D1*
G1X90648Y43050D1*
G1X90755Y43425D1*
G1X90755Y45217D1*
G1X91779Y43091D2*
G1X91939Y42883D1*
G1X92125Y42758D1*
G1X92365Y42716D1*
G1X92605Y42800D1*
G1X92791Y42966D1*
G1X92924Y43258D1*
G1X92951Y43592D1*
G1X92898Y43925D1*
G1X92765Y44133D1*
G1X92578Y44300D1*
G1X92392Y44342D1*
G1X92205Y44300D1*
G1X91966Y44133D1*
G1X92046Y45217D1*
G1X92765Y45217D1*
G1X96723Y43248D2*
G1X96723Y40748D1*
G1X97788Y40748D1*
G1X98999Y41040D2*
G1X99185Y40831D1*
G1X99398Y40748D1*
G1X99612Y40831D1*
G1X99798Y41081D1*
G1X99931Y41456D1*
G1X99984Y41831D1*
G1X99984Y42290D1*
G1X99931Y42665D1*
G1X99798Y42998D1*
G1X99638Y43165D1*
G1X99452Y43248D1*
G1X99239Y43165D1*
G1X99079Y42998D1*
G1X98972Y42748D1*
G1X98919Y42415D1*
G1X98972Y42123D1*
G1X99106Y41831D1*
G1X99265Y41665D1*
G1X99452Y41623D1*
G1X99665Y41706D1*
G1X99825Y41915D1*
G1X99984Y42290D1*
G1X96857Y65284D2*
G1X96698Y65409D1*
G1X96511Y65492D1*
G1X96298Y65492D1*
G1X96058Y65367D1*
G1X95872Y65159D1*
G1X95739Y64909D1*
G1X95632Y64492D1*
G1X95606Y64117D1*
G1X95659Y63742D1*
G1X95739Y63492D1*
G1X95899Y63242D1*
G1X96085Y63075D1*
G1X96271Y62992D1*
G1X96458Y62992D1*
G1X96644Y63075D1*
G1X96804Y63200D1*
G1X96937Y63367D1*
G1X97882Y63492D2*
G1X98041Y63200D1*
G1X98254Y63034D1*
G1X98494Y62992D1*
G1X98707Y63034D1*
G1X98920Y63242D1*
G1X99053Y63492D1*
G1X99080Y63742D1*
G1X99027Y64034D1*
G1X98840Y64242D1*
G1X98654Y64326D1*
G1X98414Y64326D1*
G1X98654Y64326D2*
G1X98814Y64450D1*
G1X98947Y64659D1*
G1X99000Y64909D1*
G1X98947Y65159D1*
G1X98814Y65367D1*
G1X98574Y65492D1*
G1X98334Y65450D1*
G1X98094Y65284D1*
G1X100157Y65075D2*
G1X100317Y65325D1*
G1X100504Y65450D1*
G1X100717Y65492D1*
G1X100983Y65409D1*
G1X101169Y65200D1*
G1X101223Y64950D1*
G1X101196Y64700D1*
G1X101090Y64492D1*
G1X100557Y64075D1*
G1X100317Y63784D1*
G1X100157Y63367D1*
G1X100104Y62992D1*
G1X101223Y62992D1*
G1X86685Y63786D2*
G1X86560Y63627D1*
G1X86476Y63440D1*
G1X86476Y63227D1*
G1X86601Y62987D1*
G1X86810Y62801D1*
G1X87060Y62668D1*
G1X87476Y62561D1*
G1X87851Y62535D1*
G1X88226Y62588D1*
G1X88476Y62668D1*
G1X88726Y62828D1*
G1X88893Y63014D1*
G1X88976Y63201D1*
G1X88976Y63387D1*
G1X88893Y63574D1*
G1X88768Y63733D1*
G1X88602Y63866D1*
G1X88476Y64811D2*
G1X88768Y64970D1*
G1X88935Y65184D1*
G1X88976Y65423D1*
G1X88935Y65636D1*
G1X88726Y65849D1*
G1X88476Y65983D1*
G1X88226Y66009D1*
G1X87935Y65956D1*
G1X87726Y65770D1*
G1X87643Y65583D1*
G1X87643Y65343D1*
G1X87643Y65583D2*
G1X87518Y65743D1*
G1X87310Y65876D1*
G1X87060Y65929D1*
G1X86810Y65876D1*
G1X86601Y65743D1*
G1X86476Y65503D1*
G1X86518Y65263D1*
G1X86685Y65024D1*
G1X88476Y67007D2*
G1X88768Y67166D1*
G1X88935Y67379D1*
G1X88976Y67619D1*
G1X88935Y67832D1*
G1X88726Y68045D1*
G1X88476Y68178D1*
G1X88226Y68205D1*
G1X87935Y68152D1*
G1X87726Y67966D1*
G1X87643Y67779D1*
G1X87643Y67539D1*
G1X87643Y67779D2*
G1X87518Y67939D1*
G1X87310Y68072D1*
G1X87060Y68125D1*
G1X86810Y68072D1*
G1X86601Y67939D1*
G1X86476Y67699D1*
G1X86518Y67459D1*
G1X86685Y67220D1*
G1X87802Y80048D2*
G1X87642Y80173D1*
G1X87456Y80256D1*
G1X87243Y80256D1*
G1X87003Y80131D1*
G1X86817Y79923D1*
G1X86684Y79672D1*
G1X86577Y79256D1*
G1X86550Y78881D1*
G1X86604Y78506D1*
G1X86684Y78256D1*
G1X86843Y78006D1*
G1X87030Y77839D1*
G1X87216Y77756D1*
G1X87403Y77756D1*
G1X87589Y77839D1*
G1X87749Y77964D1*
G1X87882Y78131D1*
G1X89412Y77756D2*
G1X89412Y80256D1*
G1X89093Y79756D1*
G1X89093Y77756D2*
G1X89732Y77756D1*
G1X91555Y77756D2*
G1X91608Y78298D1*
G1X91688Y78756D1*
G1X91795Y79173D1*
G1X91928Y79631D1*
G1X92141Y80256D1*
G1X91076Y80256D1*
G1X96920Y75728D2*
G1X96920Y73228D1*
G1X97985Y73228D1*
G1X99142Y74270D2*
G1X99329Y74562D1*
G1X99489Y74728D1*
G1X99702Y74812D1*
G1X99888Y74728D1*
G1X100021Y74562D1*
G1X100128Y74312D1*
G1X100154Y74020D1*
G1X100128Y73770D1*
G1X100021Y73520D1*
G1X99862Y73312D1*
G1X99675Y73228D1*
G1X99462Y73312D1*
G1X99276Y73562D1*
G1X99169Y73937D1*
G1X99142Y74353D1*
G1X99196Y74895D1*
G1X99276Y75187D1*
G1X99409Y75478D1*
G1X99595Y75687D1*
G1X99782Y75728D1*
G1X99968Y75645D1*
G1X100101Y75437D1*
G1X88393Y97961D2*
G1X88233Y98086D1*
G1X88047Y98169D1*
G1X87834Y98169D1*
G1X87594Y98044D1*
G1X87407Y97836D1*
G1X87274Y97586D1*
G1X87168Y97169D1*
G1X87141Y96794D1*
G1X87194Y96419D1*
G1X87274Y96169D1*
G1X87434Y95919D1*
G1X87620Y95753D1*
G1X87807Y95669D1*
G1X87993Y95669D1*
G1X88180Y95753D1*
G1X88340Y95878D1*
G1X88473Y96044D1*
G1X90003Y95669D2*
G1X90003Y98169D1*
G1X89683Y97669D1*
G1X89683Y95669D2*
G1X90322Y95669D1*
G1X91693Y97753D2*
G1X91853Y98003D1*
G1X92039Y98128D1*
G1X92252Y98169D1*
G1X92518Y98086D1*
G1X92705Y97878D1*
G1X92758Y97628D1*
G1X92732Y97378D1*
G1X92625Y97169D1*
G1X92092Y96753D1*
G1X91853Y96461D1*
G1X91693Y96044D1*
G1X91640Y95669D1*
G1X92758Y95669D1*
G1X87077Y107677D2*
G1X87077Y110177D1*
G1X87743Y110177D1*
G1X87956Y110052D1*
G1X88089Y109886D1*
G1X88143Y109552D1*
G1X88089Y109219D1*
G1X87930Y109011D1*
G1X87743Y108886D1*
G1X87077Y108886D1*
G1X87743Y108886D2*
G1X88143Y107677D1*
G1X89220Y108052D2*
G1X89380Y107844D1*
G1X89566Y107719D1*
G1X89806Y107677D1*
G1X90046Y107761D1*
G1X90232Y107927D1*
G1X90365Y108219D1*
G1X90392Y108552D1*
G1X90339Y108886D1*
G1X90206Y109094D1*
G1X90019Y109260D1*
G1X89833Y109302D1*
G1X89646Y109260D1*
G1X89407Y109094D1*
G1X89486Y110177D1*
G1X90206Y110177D1*
G1X98826Y120795D2*
G1X98666Y120921D1*
G1X98480Y121004D1*
G1X98267Y121004D1*
G1X98027Y120879D1*
G1X97840Y120671D1*
G1X97707Y120420D1*
G1X97601Y120004D1*
G1X97574Y119629D1*
G1X97627Y119254D1*
G1X97707Y119004D1*
G1X97867Y118754D1*
G1X98054Y118587D1*
G1X98240Y118504D1*
G1X98426Y118504D1*
G1X98613Y118587D1*
G1X98773Y118712D1*
G1X98906Y118879D1*
G1X100436Y118504D2*
G1X100436Y121004D1*
G1X100116Y120504D1*
G1X100116Y118504D2*
G1X100756Y118504D1*
G1X102952Y118504D2*
G1X102952Y121004D1*
G1X101966Y119212D1*
G1X103298Y119212D1*
G1X87274Y115748D2*
G1X87274Y118248D1*
G1X87940Y118248D1*
G1X88153Y118123D1*
G1X88286Y117956D1*
G1X88340Y117623D1*
G1X88286Y117290D1*
G1X88126Y117081D1*
G1X87940Y116956D1*
G1X87274Y116956D1*
G1X87940Y116956D2*
G1X88340Y115748D1*
G1X89497Y116790D2*
G1X89683Y117081D1*
G1X89843Y117248D1*
G1X90056Y117331D1*
G1X90243Y117248D1*
G1X90376Y117081D1*
G1X90482Y116831D1*
G1X90509Y116540D1*
G1X90482Y116290D1*
G1X90376Y116040D1*
G1X90216Y115831D1*
G1X90030Y115748D1*
G1X89816Y115831D1*
G1X89630Y116081D1*
G1X89524Y116456D1*
G1X89497Y116873D1*
G1X89550Y117415D1*
G1X89630Y117706D1*
G1X89763Y117998D1*
G1X89950Y118206D1*
G1X90136Y118248D1*
G1X90322Y118165D1*
G1X90456Y117956D1*
G1X112212Y10362D2*
G1X112052Y10488D1*
G1X111866Y10571D1*
G1X111653Y10571D1*
G1X111413Y10446D1*
G1X111226Y10238D1*
G1X111093Y9988D1*
G1X110987Y9571D1*
G1X110960Y9196D1*
G1X111013Y8821D1*
G1X111093Y8571D1*
G1X111253Y8321D1*
G1X111439Y8154D1*
G1X111626Y8071D1*
G1X111812Y8071D1*
G1X111999Y8154D1*
G1X112158Y8279D1*
G1X112292Y8446D1*
G1X113316Y10154D2*
G1X113476Y10404D1*
G1X113662Y10529D1*
G1X113875Y10571D1*
G1X114141Y10488D1*
G1X114328Y10279D1*
G1X114381Y10029D1*
G1X114354Y9779D1*
G1X114248Y9571D1*
G1X113715Y9154D1*
G1X113476Y8863D1*
G1X113316Y8446D1*
G1X113262Y8071D1*
G1X114381Y8071D1*
G1X115512Y9112D2*
G1X115698Y9404D1*
G1X115858Y9571D1*
G1X116071Y9654D1*
G1X116258Y9571D1*
G1X116391Y9404D1*
G1X116497Y9154D1*
G1X116524Y8863D1*
G1X116497Y8612D1*
G1X116391Y8362D1*
G1X116231Y8154D1*
G1X116044Y8071D1*
G1X115831Y8154D1*
G1X115645Y8404D1*
G1X115538Y8779D1*
G1X115512Y9196D1*
G1X115565Y9738D1*
G1X115645Y10029D1*
G1X115778Y10321D1*
G1X115964Y10529D1*
G1X116151Y10571D1*
G1X116337Y10488D1*
G1X116471Y10279D1*
G1X112999Y17449D2*
G1X112839Y17574D1*
G1X112653Y17658D1*
G1X112440Y17658D1*
G1X112200Y17532D1*
G1X112014Y17324D1*
G1X111880Y17074D1*
G1X111774Y16658D1*
G1X111747Y16282D1*
G1X111801Y15908D1*
G1X111880Y15658D1*
G1X112040Y15407D1*
G1X112227Y15241D1*
G1X112413Y15157D1*
G1X112600Y15157D1*
G1X112786Y15241D1*
G1X112946Y15366D1*
G1X113079Y15532D1*
G1X114023Y15658D2*
G1X114183Y15366D1*
G1X114396Y15199D1*
G1X114636Y15157D1*
G1X114849Y15199D1*
G1X115062Y15407D1*
G1X115195Y15658D1*
G1X115222Y15908D1*
G1X115168Y16199D1*
G1X114982Y16408D1*
G1X114796Y16491D1*
G1X114556Y16491D1*
G1X114796Y16491D2*
G1X114955Y16616D1*
G1X115089Y16824D1*
G1X115142Y17074D1*
G1X115089Y17324D1*
G1X114955Y17532D1*
G1X114716Y17658D1*
G1X114476Y17616D1*
G1X114236Y17449D1*
G1X116805Y15157D2*
G1X116805Y17658D1*
G1X116486Y17158D1*
G1X116486Y15157D2*
G1X117125Y15157D1*
G1X113196Y24929D2*
G1X113036Y25054D1*
G1X112850Y25138D1*
G1X112637Y25138D1*
G1X112397Y25013D1*
G1X112211Y24804D1*
G1X112077Y24554D1*
G1X111971Y24138D1*
G1X111944Y23763D1*
G1X111997Y23388D1*
G1X112077Y23138D1*
G1X112237Y22888D1*
G1X112424Y22721D1*
G1X112610Y22638D1*
G1X112796Y22638D1*
G1X112983Y22721D1*
G1X113143Y22846D1*
G1X113276Y23013D1*
G1X114220Y23138D2*
G1X114380Y22846D1*
G1X114593Y22680D1*
G1X114833Y22638D1*
G1X115046Y22680D1*
G1X115259Y22888D1*
G1X115392Y23138D1*
G1X115419Y23388D1*
G1X115365Y23679D1*
G1X115179Y23888D1*
G1X114992Y23971D1*
G1X114753Y23971D1*
G1X114992Y23971D2*
G1X115152Y24096D1*
G1X115285Y24304D1*
G1X115339Y24554D1*
G1X115285Y24804D1*
G1X115152Y25013D1*
G1X114912Y25138D1*
G1X114673Y25096D1*
G1X114433Y24929D1*
G1X117002Y25138D2*
G1X116789Y25054D1*
G1X116629Y24846D1*
G1X116523Y24596D1*
G1X116443Y24263D1*
G1X116416Y23888D1*
G1X116443Y23513D1*
G1X116523Y23179D1*
G1X116629Y22929D1*
G1X116789Y22721D1*
G1X117002Y22638D1*
G1X117215Y22721D1*
G1X117375Y22929D1*
G1X117481Y23179D1*
G1X117561Y23513D1*
G1X117588Y23888D1*
G1X117561Y24263D1*
G1X117481Y24596D1*
G1X117375Y24846D1*
G1X117215Y25054D1*
G1X117002Y25138D1*
G1X110896Y33799D2*
G1X110896Y31299D1*
G1X111962Y31299D1*
G1X113625Y31299D2*
G1X113811Y31341D1*
G1X114024Y31466D1*
G1X114158Y31674D1*
G1X114211Y31966D1*
G1X114158Y32258D1*
G1X113998Y32508D1*
G1X113758Y32633D1*
G1X113492Y32633D1*
G1X113332Y32716D1*
G1X113199Y32924D1*
G1X113145Y33216D1*
G1X113225Y33508D1*
G1X113412Y33716D1*
G1X113625Y33799D1*
G1X113838Y33716D1*
G1X114024Y33508D1*
G1X114104Y33216D1*
G1X114051Y32924D1*
G1X113918Y32716D1*
G1X113758Y32633D1*
G1X113492Y32633D1*
G1X113252Y32508D1*
G1X113092Y32258D1*
G1X113039Y31966D1*
G1X113092Y31674D1*
G1X113225Y31466D1*
G1X113438Y31341D1*
G1X113625Y31299D1*
G1X117330Y91071D2*
G1X117170Y91196D1*
G1X116984Y91280D1*
G1X116771Y91280D1*
G1X116531Y91154D1*
G1X116344Y90946D1*
G1X116211Y90696D1*
G1X116105Y90280D1*
G1X116078Y89904D1*
G1X116131Y89530D1*
G1X116211Y89280D1*
G1X116371Y89029D1*
G1X116558Y88863D1*
G1X116744Y88780D1*
G1X116930Y88780D1*
G1X117117Y88863D1*
G1X117277Y88988D1*
G1X117410Y89154D1*
G1X118940Y88780D2*
G1X118940Y91280D1*
G1X118620Y90780D1*
G1X118620Y88780D2*
G1X119260Y88780D1*
G1X120550Y89154D2*
G1X120710Y88946D1*
G1X120896Y88821D1*
G1X121136Y88780D1*
G1X121376Y88863D1*
G1X121562Y89029D1*
G1X121695Y89321D1*
G1X121722Y89654D1*
G1X121669Y89988D1*
G1X121535Y90196D1*
G1X121349Y90363D1*
G1X121163Y90404D1*
G1X120976Y90363D1*
G1X120736Y90196D1*
G1X120816Y91280D1*
G1X121535Y91280D1*
G1X106959Y91280D2*
G1X106959Y88780D1*
G1X108025Y88780D1*
G1X110008Y88780D2*
G1X110008Y91280D1*
G1X109022Y89488D1*
G1X110354Y89488D1*
G1X109456Y107410D2*
G1X109296Y107535D1*
G1X109110Y107618D1*
G1X108897Y107618D1*
G1X108657Y107493D1*
G1X108470Y107285D1*
G1X108337Y107035D1*
G1X108231Y106618D1*
G1X108204Y106243D1*
G1X108257Y105868D1*
G1X108337Y105618D1*
G1X108497Y105368D1*
G1X108684Y105201D1*
G1X108870Y105118D1*
G1X109056Y105118D1*
G1X109243Y105201D1*
G1X109403Y105326D1*
G1X109536Y105493D1*
G1X111066Y105118D2*
G1X111066Y107618D1*
G1X110746Y107118D1*
G1X110746Y105118D2*
G1X111386Y105118D1*
G1X112676Y105618D2*
G1X112836Y105326D1*
G1X113049Y105160D1*
G1X113289Y105118D1*
G1X113502Y105160D1*
G1X113715Y105368D1*
G1X113848Y105618D1*
G1X113874Y105868D1*
G1X113821Y106160D1*
G1X113635Y106368D1*
G1X113448Y106452D1*
G1X113209Y106452D1*
G1X113448Y106452D2*
G1X113608Y106576D1*
G1X113741Y106785D1*
G1X113795Y107035D1*
G1X113741Y107285D1*
G1X113608Y107493D1*
G1X113368Y107618D1*
G1X113129Y107576D1*
G1X112889Y107410D1*
G1X103613Y99154D2*
G1X103613Y96654D1*
G1X104678Y96654D1*
G1X105756Y97028D2*
G1X105915Y96820D1*
G1X106102Y96695D1*
G1X106342Y96654D1*
G1X106581Y96737D1*
G1X106768Y96903D1*
G1X106901Y97195D1*
G1X106927Y97528D1*
G1X106874Y97862D1*
G1X106741Y98070D1*
G1X106555Y98237D1*
G1X106368Y98278D1*
G1X106182Y98237D1*
G1X105942Y98070D1*
G1X106022Y99154D1*
G1X106741Y99154D1*
G1X106762Y169823D2*
G1X106762Y167323D1*
G1X107828Y167323D1*
G1X109491Y167323D2*
G1X109491Y169823D1*
G1X109172Y169323D1*
G1X109172Y167323D2*
G1X109811Y167323D1*
G1X111687Y169823D2*
G1X111474Y169740D1*
G1X111314Y169531D1*
G1X111208Y169281D1*
G1X111128Y168948D1*
G1X111101Y168573D1*
G1X111128Y168198D1*
G1X111208Y167864D1*
G1X111314Y167614D1*
G1X111474Y167406D1*
G1X111687Y167323D1*
G1X111900Y167406D1*
G1X112060Y167614D1*
G1X112166Y167864D1*
G1X112246Y168198D1*
G1X112273Y168573D1*
G1X112246Y168948D1*
G1X112166Y169281D1*
G1X112060Y169531D1*
G1X111900Y169740D1*
G1X111687Y169823D1*
G1X101644Y179831D2*
G1X101778Y179581D1*
G1X101937Y179414D1*
G1X102124Y179331D1*
G1X102337Y179414D1*
G1X102497Y179581D1*
G1X102656Y179831D1*
G1X102710Y180164D1*
G1X102710Y181831D1*
G1X103867Y180372D2*
G1X104053Y180664D1*
G1X104213Y180831D1*
G1X104426Y180914D1*
G1X104613Y180831D1*
G1X104746Y180664D1*
G1X104852Y180414D1*
G1X104879Y180122D1*
G1X104852Y179872D1*
G1X104746Y179622D1*
G1X104586Y179414D1*
G1X104400Y179331D1*
G1X104187Y179414D1*
G1X104000Y179664D1*
G1X103894Y180039D1*
G1X103867Y180456D1*
G1X103920Y180997D1*
G1X104000Y181289D1*
G1X104133Y181581D1*
G1X104320Y181789D1*
G1X104506Y181831D1*
G1X104693Y181747D1*
G1X104826Y181539D1*
G1X137866Y29731D2*
G1X137741Y29572D1*
G1X137658Y29385D1*
G1X137658Y29172D1*
G1X137782Y28932D1*
G1X137991Y28746D1*
G1X138241Y28613D1*
G1X138658Y28506D1*
G1X139032Y28480D1*
G1X139408Y28533D1*
G1X139658Y28613D1*
G1X139908Y28773D1*
G1X140074Y28959D1*
G1X140158Y29145D1*
G1X140158Y29332D1*
G1X140074Y29518D1*
G1X139949Y29678D1*
G1X139783Y29811D1*
G1X138074Y30836D2*
G1X137824Y30995D1*
G1X137699Y31182D1*
G1X137658Y31395D1*
G1X137741Y31661D1*
G1X137949Y31848D1*
G1X138199Y31901D1*
G1X138449Y31874D1*
G1X138658Y31768D1*
G1X139074Y31235D1*
G1X139366Y30995D1*
G1X139783Y30836D1*
G1X140158Y30782D1*
G1X140158Y31901D1*
G1X139866Y33085D2*
G1X140074Y33271D1*
G1X140158Y33484D1*
G1X140074Y33697D1*
G1X139824Y33884D1*
G1X139449Y34017D1*
G1X139074Y34070D1*
G1X138616Y34070D1*
G1X138241Y34017D1*
G1X137908Y33884D1*
G1X137741Y33724D1*
G1X137658Y33538D1*
G1X137741Y33324D1*
G1X137908Y33165D1*
G1X138158Y33058D1*
G1X138491Y33005D1*
G1X138782Y33058D1*
G1X139074Y33191D1*
G1X139241Y33351D1*
G1X139282Y33538D1*
G1X139199Y33750D1*
G1X138991Y33910D1*
G1X138616Y34070D1*
G1X122708Y29928D2*
G1X122583Y29768D1*
G1X122500Y29582D1*
G1X122500Y29369D1*
G1X122625Y29129D1*
G1X122833Y28943D1*
G1X123083Y28810D1*
G1X123500Y28703D1*
G1X123875Y28676D1*
G1X124250Y28730D1*
G1X124500Y28810D1*
G1X124750Y28969D1*
G1X124917Y29156D1*
G1X125000Y29342D1*
G1X125000Y29529D1*
G1X124917Y29715D1*
G1X124792Y29875D1*
G1X124625Y30008D1*
G1X122917Y31032D2*
G1X122667Y31192D1*
G1X122542Y31379D1*
G1X122500Y31592D1*
G1X122583Y31858D1*
G1X122792Y32044D1*
G1X123042Y32098D1*
G1X123292Y32071D1*
G1X123500Y31964D1*
G1X123917Y31432D1*
G1X124208Y31192D1*
G1X124625Y31032D1*
G1X125000Y30979D1*
G1X125000Y32098D1*
G1X125000Y33681D2*
G1X124458Y33734D1*
G1X124000Y33814D1*
G1X123583Y33921D1*
G1X123125Y34054D1*
G1X122500Y34267D1*
G1X122500Y33202D1*
G1X129795Y29928D2*
G1X129670Y29768D1*
G1X129587Y29582D1*
G1X129587Y29369D1*
G1X129712Y29129D1*
G1X129920Y28943D1*
G1X130170Y28810D1*
G1X130587Y28703D1*
G1X130962Y28676D1*
G1X131337Y28730D1*
G1X131587Y28810D1*
G1X131837Y28969D1*
G1X132003Y29156D1*
G1X132087Y29342D1*
G1X132087Y29529D1*
G1X132003Y29715D1*
G1X131878Y29875D1*
G1X131712Y30008D1*
G1X130003Y31032D2*
G1X129753Y31192D1*
G1X129628Y31379D1*
G1X129587Y31592D1*
G1X129670Y31858D1*
G1X129878Y32044D1*
G1X130128Y32098D1*
G1X130378Y32071D1*
G1X130587Y31964D1*
G1X131003Y31432D1*
G1X131295Y31192D1*
G1X131712Y31032D1*
G1X132087Y30979D1*
G1X132087Y32098D1*
G1X132087Y33734D2*
G1X132045Y33921D1*
G1X131920Y34134D1*
G1X131712Y34267D1*
G1X131420Y34320D1*
G1X131128Y34267D1*
G1X130878Y34107D1*
G1X130753Y33868D1*
G1X130753Y33601D1*
G1X130670Y33441D1*
G1X130462Y33308D1*
G1X130170Y33255D1*
G1X129878Y33335D1*
G1X129670Y33521D1*
G1X129587Y33734D1*
G1X129670Y33947D1*
G1X129878Y34134D1*
G1X130170Y34214D1*
G1X130462Y34160D1*
G1X130670Y34027D1*
G1X130753Y33868D1*
G1X130753Y33601D1*
G1X130878Y33361D1*
G1X131128Y33202D1*
G1X131420Y33148D1*
G1X131712Y33202D1*
G1X131920Y33335D1*
G1X132045Y33548D1*
G1X132087Y33734D1*
G1X135228Y78355D2*
G1X136996Y80123D1*
G1X137466Y79652D1*
G1X137528Y79413D1*
G1X137505Y79201D1*
G1X137307Y78928D1*
G1X137034Y78729D1*
G1X136773Y78695D1*
G1X136553Y78739D1*
G1X136082Y79209D1*
G1X136553Y78739D2*
G1X135981Y77602D1*
G1X137157Y76426D2*
G1X137318Y76323D1*
G1X137558Y76261D1*
G1X137799Y76314D1*
G1X138043Y76483D1*
G1X138211Y76726D1*
G1X138275Y77016D1*
G1X138194Y77274D1*
G1X138006Y77462D1*
G1X137952Y77634D1*
G1X138005Y77876D1*
G1X138173Y78120D1*
G1X138436Y78270D1*
G1X138715Y78285D1*
G1X138925Y78193D1*
G1X139017Y77984D1*
G1X139001Y77705D1*
G1X138851Y77442D1*
G1X138608Y77273D1*
G1X138366Y77220D1*
G1X138194Y77274D1*
G1X138006Y77462D1*
G1X137748Y77544D1*
G1X137458Y77480D1*
G1X137214Y77311D1*
G1X137046Y77067D1*
G1X136992Y76826D1*
G1X137055Y76587D1*
G1X137157Y76426D1*
G1X137015Y104851D2*
G1X136855Y104976D1*
G1X136669Y105059D1*
G1X136456Y105059D1*
G1X136216Y104934D1*
G1X136029Y104726D1*
G1X135896Y104476D1*
G1X135790Y104059D1*
G1X135763Y103684D1*
G1X135816Y103309D1*
G1X135896Y103059D1*
G1X136056Y102809D1*
G1X136242Y102642D1*
G1X136429Y102559D1*
G1X136615Y102559D1*
G1X136802Y102642D1*
G1X136962Y102767D1*
G1X137095Y102934D1*
G1X138625Y102559D2*
G1X138625Y105059D1*
G1X138305Y104559D1*
G1X138305Y102559D2*
G1X138944Y102559D1*
G1X155519Y69024D2*
G1X155359Y69149D1*
G1X155173Y69232D1*
G1X154960Y69232D1*
G1X154720Y69107D1*
G1X154533Y68899D1*
G1X154400Y68649D1*
G1X154294Y68232D1*
G1X154267Y67857D1*
G1X154320Y67482D1*
G1X154400Y67232D1*
G1X154560Y66982D1*
G1X154746Y66816D1*
G1X154933Y66732D1*
G1X155119Y66732D1*
G1X155306Y66816D1*
G1X155466Y66941D1*
G1X155599Y67107D1*
G1X156623Y68816D2*
G1X156783Y69066D1*
G1X156969Y69191D1*
G1X157182Y69232D1*
G1X157448Y69149D1*
G1X157635Y68941D1*
G1X157688Y68691D1*
G1X157662Y68441D1*
G1X157555Y68232D1*
G1X157022Y67816D1*
G1X156783Y67524D1*
G1X156623Y67107D1*
G1X156570Y66732D1*
G1X157688Y66732D1*
G1X143889Y57472D2*
G1X142121Y59240D1*
G1X142592Y59710D1*
G1X142831Y59773D1*
G1X143043Y59749D1*
G1X143317Y59551D1*
G1X143515Y59278D1*
G1X143549Y59017D1*
G1X143506Y58797D1*
G1X143035Y58326D1*
G1X143506Y58797D2*
G1X144642Y58225D1*
G1X145819Y59401D2*
G1X144051Y61169D1*
G1X144178Y60589D1*
G1X145593Y59175D2*
G1X146044Y59627D1*
G1X146604Y60893D2*
G1X146923Y60800D1*
G1X147191Y60833D1*
G1X147390Y60973D1*
G1X147511Y61153D1*
G1X147515Y61451D1*
G1X147432Y61722D1*
G1X147274Y61917D1*
G1X147030Y62086D1*
G1X146751Y62102D1*
G1X146560Y62029D1*
G1X146391Y61859D1*
G1X146560Y62029D2*
G1X146585Y62230D1*
G1X146532Y62472D1*
G1X146393Y62686D1*
G1X146178Y62825D1*
G1X145937Y62878D1*
G1X145679Y62797D1*
G1X145539Y62598D1*
G1X145487Y62311D1*
G1X145882Y95216D2*
G1X145882Y93425D1*
G1X145989Y93050D1*
G1X146202Y92800D1*
G1X146468Y92716D1*
G1X146735Y92800D1*
G1X146948Y93050D1*
G1X147054Y93425D1*
G1X147054Y95216D1*
G1X148664Y92716D2*
G1X148664Y95216D1*
G1X148345Y94716D1*
G1X148345Y92716D2*
G1X148984Y92716D1*
G1X157881Y110756D2*
G1X157721Y110881D1*
G1X157535Y110965D1*
G1X157322Y110965D1*
G1X157082Y110840D1*
G1X156896Y110631D1*
G1X156762Y110381D1*
G1X156656Y109965D1*
G1X156629Y109590D1*
G1X156682Y109215D1*
G1X156762Y108965D1*
G1X156922Y108714D1*
G1X157109Y108548D1*
G1X157295Y108465D1*
G1X157482Y108465D1*
G1X157668Y108548D1*
G1X157828Y108673D1*
G1X157961Y108840D1*
G1X158905Y108965D2*
G1X159065Y108673D1*
G1X159278Y108506D1*
G1X159518Y108465D1*
G1X159731Y108506D1*
G1X159944Y108714D1*
G1X160077Y108965D1*
G1X160104Y109215D1*
G1X160050Y109506D1*
G1X159864Y109715D1*
G1X159678Y109798D1*
G1X159438Y109798D1*
G1X159678Y109798D2*
G1X159837Y109923D1*
G1X159970Y110131D1*
G1X160024Y110381D1*
G1X159970Y110631D1*
G1X159837Y110840D1*
G1X159598Y110965D1*
G1X159358Y110923D1*
G1X159118Y110756D1*
G1X139243Y142429D2*
G1X139376Y142179D1*
G1X139536Y142012D1*
G1X139722Y141929D1*
G1X139935Y142012D1*
G1X140095Y142179D1*
G1X140255Y142429D1*
G1X140308Y142762D1*
G1X140308Y144429D1*
G1X141918Y141929D2*
G1X141971Y142471D1*
G1X142051Y142929D1*
G1X142158Y143346D1*
G1X142291Y143804D1*
G1X142504Y144429D1*
G1X141439Y144429D1*
G1X144495Y195599D2*
G1X144335Y195724D1*
G1X144149Y195807D1*
G1X143936Y195807D1*
G1X143696Y195682D1*
G1X143510Y195474D1*
G1X143377Y195224D1*
G1X143270Y194807D1*
G1X143243Y194432D1*
G1X143297Y194057D1*
G1X143377Y193807D1*
G1X143536Y193557D1*
G1X143723Y193390D1*
G1X143909Y193307D1*
G1X144096Y193307D1*
G1X144282Y193390D1*
G1X144442Y193515D1*
G1X144575Y193682D1*
G1X145519Y193807D2*
G1X145679Y193515D1*
G1X145892Y193349D1*
G1X146132Y193307D1*
G1X146345Y193349D1*
G1X146558Y193557D1*
G1X146691Y193807D1*
G1X146718Y194057D1*
G1X146664Y194349D1*
G1X146478Y194557D1*
G1X146292Y194640D1*
G1X146052Y194640D1*
G1X146292Y194640D2*
G1X146451Y194765D1*
G1X146585Y194974D1*
G1X146638Y195224D1*
G1X146585Y195474D1*
G1X146451Y195682D1*
G1X146212Y195807D1*
G1X145972Y195765D1*
G1X145732Y195599D1*
G1X147715Y193682D2*
G1X147875Y193474D1*
G1X148062Y193349D1*
G1X148301Y193307D1*
G1X148541Y193390D1*
G1X148727Y193557D1*
G1X148860Y193849D1*
G1X148887Y194182D1*
G1X148834Y194515D1*
G1X148701Y194724D1*
G1X148514Y194890D1*
G1X148328Y194932D1*
G1X148141Y194890D1*
G1X147902Y194724D1*
G1X147982Y195807D1*
G1X148701Y195807D1*
G1X181119Y73957D2*
G1X181119Y72165D1*
G1X181225Y71790D1*
G1X181438Y71540D1*
G1X181704Y71457D1*
G1X181971Y71540D1*
G1X182184Y71790D1*
G1X182290Y72165D1*
G1X182290Y73957D1*
G1X183394Y73540D2*
G1X183554Y73790D1*
G1X183741Y73915D1*
G1X183954Y73957D1*
G1X184220Y73873D1*
G1X184406Y73665D1*
G1X184460Y73415D1*
G1X184433Y73165D1*
G1X184327Y72957D1*
G1X183794Y72540D1*
G1X183554Y72248D1*
G1X183394Y71832D1*
G1X183341Y71457D1*
G1X184460Y71457D1*
G1X180581Y120185D2*
G1X180714Y119935D1*
G1X180874Y119768D1*
G1X181061Y119685D1*
G1X181274Y119768D1*
G1X181434Y119935D1*
G1X181593Y120185D1*
G1X181647Y120518D1*
G1X181647Y122185D1*
G1X182724Y120060D2*
G1X182884Y119852D1*
G1X183070Y119727D1*
G1X183310Y119685D1*
G1X183550Y119768D1*
G1X183736Y119935D1*
G1X183869Y120227D1*
G1X183896Y120560D1*
G1X183843Y120893D1*
G1X183710Y121102D1*
G1X183523Y121268D1*
G1X183337Y121310D1*
G1X183150Y121268D1*
G1X182910Y121102D1*
G1X182990Y122185D1*
G1X183710Y122185D1*
G1X197Y79331D2*
G54D20*
G1X197Y80119D1*
G1X16536Y80119D1*
G1X16536Y51378D1*
G1X197Y51378D1*
G1X197Y52166D1*
G1X193Y144685D2*
G1X193Y145472D1*
G1X16536Y145472D1*
G1X16536Y116732D1*
G1X193Y116732D1*
G1X193Y117520D1*
G1X36250Y15565D2*
G75*
G3X35660Y16156I-591J0D1*
G3X35069Y15565I0J-591D1*
G3X35660Y14975I591J1D1*
G3X36250Y15565I-1J591D1*
G74*
G1X36841Y16746D2*
G1X36841Y25801D1*
G1X41959Y25801D1*
G1X41959Y16746D1*
G1X36841Y16746D1*
G1X63978Y149260D2*
G1X63978Y148275D1*
G1X55710Y148275D1*
G1X55710Y149260D1*
G1X63978Y157527D2*
G1X63978Y158512D1*
G1X55710Y158512D1*
G1X55710Y157527D1*
G1X74823Y46266D2*
G75*
G2X75418Y45680I4J-591D1*
G2X74823Y45085I-592J-3D1*
G2X74233Y45680I2J592D1*
G2X74823Y46266I590J-4D1*
G74*
G1X78366Y32097D2*
G1X76004Y32097D1*
G1X76004Y34455D1*
G1X76004Y42329D2*
G1X76004Y44695D1*
G1X78366Y44695D1*
G1X67767Y79792D2*
G1X64621Y79792D1*
G1X64621Y82937D1*
G1X76826Y82937D2*
G1X76826Y79792D1*
G1X73672Y79792D1*
G1X73672Y91996D2*
G1X76826Y91996D1*
G1X76826Y88847D1*
G1X64621Y88847D2*
G1X64621Y91996D1*
G1X67767Y91996D1*
G1X63440Y93567D2*
G75*
G2X64026Y92981I-3J-589D1*
G2X63440Y92390I-589J-2D1*
G2X62845Y92981I-4J591D1*
G2X63440Y93567I591J-4D1*
G1X64962Y146504D2*
G2X64372Y147094I0J590D1*
G2X64962Y147685I591J0D1*
G2X65553Y147094I0J-591D1*
G2X64962Y146504I-590J0D1*
G74*
G1X92792Y39793D2*
G1X92004Y39793D1*
G1X92004Y27982D1*
G1X92792Y27982D1*
G1X88607Y34455D2*
G1X88607Y32097D1*
G1X86241Y32097D1*
G1X86241Y44695D2*
G1X88607Y44695D1*
G1X88607Y42329D1*
G1X100668Y11227D2*
G1X109723Y11227D1*
G1X109723Y6109D1*
G1X100668Y6109D1*
G1X100668Y11227D1*
G1X99487Y11818D2*
G75*
G3X100078Y12408I0J591D1*
G3X99487Y12999I-591J0D1*
G3X98896Y12408I0J-591D1*
G3X99487Y11818I590J0D1*
G74*
G1X104209Y39793D2*
G1X104997Y39793D1*
G1X104997Y27982D1*
G1X104209Y27982D1*
G1X148147Y87270D2*
G75*
G2X148737Y87861I590J1D1*
G2X149324Y87270I-3J-590D1*
G2X148737Y86680I-590J0D1*
G2X148147Y87270I0J590D1*
G74*
G1X149722Y88255D2*
G1X149722Y94554D1*
G1X161135Y94554D1*
G1X161135Y88255D1*
G1X149722Y88255D1*
G1X139262Y159007D2*
G1X139262Y145424D1*
G1X157175Y145424D1*
G1X157175Y180857D2*
G1X139262Y180857D1*
G1X139262Y172393D1*
G1X167059Y68753D2*
G75*
G2X167649Y69343I590J0D1*
G2X168240Y68753I0J-591D1*
G2X167649Y68162I-591J0D1*
G2X167059Y68753I1J591D1*
G74*
G1X168633Y69737D2*
G1X168633Y76036D1*
G1X180051Y76036D1*
G1X180051Y69737D1*
G1X168633Y69737D1*
G1X196798Y90433D2*
G1X196798Y89646D1*
G1X180459Y89646D1*
G1X180459Y118386D1*
G1X196798Y118386D1*
G1X196798Y117598D1*
G1X181978Y145424D2*
G1X196348Y145424D1*
G1X196348Y180857D1*
G1X181978Y180857D1*
G1X23195Y60068D2*
G54D44*
G1X27757Y64630D1*
G1X35889Y56498D1*
G1X31327Y51936D1*
G1X23195Y60068D1*
G1X27400Y66535D2*
G1X22838Y71097D1*
G1X35532Y74667D2*
G1X27400Y66535D1*
G1X33299Y87762D2*
G1X33299Y94215D1*
G1X44799Y87762D2*
G1X33299Y87762D1*
G1X22838Y71097D2*
G1X30970Y79229D1*
G1X35532Y74667D1*
G1X33299Y94215D2*
G1X44799Y94215D1*
G1X43137Y149277D2*
G1X31637Y149277D1*
G1X31637Y155730D1*
G1X43137Y155730D1*
G1X50532Y15569D2*
G1X44080Y15569D1*
G1X44080Y27069D1*
G1X50532Y27069D1*
G1X50532Y15569D1*
G1X59200Y15569D2*
G1X52748Y15569D1*
G1X52748Y27069D1*
G1X59200Y27069D1*
G1X58412Y28965D2*
G1X51959Y28965D1*
G1X51959Y40465D1*
G1X58412Y40465D2*
G1X58412Y28965D1*
G1X58108Y48956D2*
G1X58108Y42503D1*
G1X46608Y42503D1*
G1X46608Y48956D1*
G1X58108Y48956D1*
G1X51959Y40465D2*
G1X58412Y40465D1*
G1X58108Y56836D2*
G1X58108Y50383D1*
G1X46608Y50383D1*
G1X46608Y56836D1*
G1X58108Y56836D1*
G1X44799Y94215D2*
G1X44799Y87762D1*
G1X45907Y79488D2*
G1X45907Y85940D1*
G1X57407Y85940D1*
G1X57407Y79488D1*
G1X45907Y79488D1*
G1X45907Y71608D2*
G1X45907Y78061D1*
G1X57407Y78061D1*
G1X57407Y71608D1*
G1X45907Y71608D1*
G1X45907Y87762D2*
G1X45907Y94215D1*
G1X57407Y94215D2*
G1X57407Y87762D1*
G1X45907Y87762D1*
G1X45907Y94215D2*
G1X57407Y94215D1*
G1X45907Y95642D2*
G1X45907Y102095D1*
G1X57407Y102095D1*
G1X57407Y95642D1*
G1X45907Y95642D1*
G1X51411Y135242D2*
G1X51411Y128790D1*
G1X39911Y128790D1*
G1X39911Y135242D1*
G1X51411Y135242D1*
G1X51411Y142728D2*
G1X51411Y136276D1*
G1X39911Y136276D1*
G1X39911Y142728D1*
G1X51411Y142728D1*
G1X51663Y155427D2*
G1X51663Y143927D1*
G1X45210Y143927D1*
G1X45210Y155427D1*
G1X43137Y155730D2*
G1X43137Y149277D1*
G1X45210Y155427D2*
G1X51663Y155427D1*
G1X52198Y167156D2*
G1X52198Y160707D1*
G1X40698Y160707D1*
G1X40698Y167156D1*
G1X52198Y167156D1*
G1X61907Y160868D2*
G1X55454Y160868D1*
G1X55454Y172368D1*
G1X61907Y172368D1*
G1X77667Y18709D2*
G1X77667Y7209D1*
G1X71214Y7209D1*
G1X71214Y18709D1*
G1X77667Y18709D1*
G1X59200Y27069D2*
G1X59200Y15569D1*
G1X71517Y21176D2*
G1X71517Y27628D1*
G1X83017Y27628D1*
G1X83017Y21176D2*
G1X71517Y21176D1*
G1X69047Y15569D2*
G1X62598Y15569D1*
G1X62598Y27069D1*
G1X69047Y27069D1*
G1X69047Y15569D1*
G1X60458Y34159D2*
G1X60458Y40608D1*
G1X71958Y40608D1*
G1X71958Y34159D1*
G1X60458Y34159D1*
G1X72293Y48956D2*
G1X72293Y42504D1*
G1X60793Y42504D1*
G1X60793Y48956D1*
G1X72293Y48956D1*
G1X80870Y50242D2*
G1X74417Y50242D1*
G1X74417Y61742D1*
G1X80870Y61742D1*
G1X60880Y50332D2*
G1X60880Y56785D1*
G1X72380Y56785D1*
G1X72380Y50332D1*
G1X60880Y50332D1*
G1X64031Y70032D2*
G1X64031Y76485D1*
G1X75531Y76485D1*
G1X75531Y70032D1*
G1X64031Y70032D1*
G1X62028Y95990D2*
G1X62028Y102443D1*
G1X73528Y102443D1*
G1X73528Y95990D1*
G1X62028Y95990D1*
G1X86082Y96088D2*
G1X74582Y96088D1*
G1X74582Y102540D1*
G1X86082Y102540D1*
G1X73333Y115239D2*
G1X73333Y103739D1*
G1X66880Y103739D1*
G1X66880Y115239D1*
G1X74669Y103916D2*
G1X74669Y110369D1*
G1X86169Y103916D2*
G1X74669Y103916D1*
G1X61667Y116524D2*
G1X61667Y122977D1*
G1X73167Y122977D1*
G1X73167Y116524D1*
G1X61667Y116524D1*
G1X66880Y115239D2*
G1X73333Y115239D1*
G1X74669Y110369D2*
G1X86169Y110369D1*
G1X74669Y111796D2*
G1X74669Y118248D1*
G1X86169Y118248D1*
G1X86169Y111796D2*
G1X74669Y111796D1*
G1X79384Y149277D2*
G1X67884Y149277D1*
G1X67884Y155730D1*
G1X79384Y155730D1*
G1X61907Y172368D2*
G1X61907Y160868D1*
G1X83017Y27628D2*
G1X83017Y21176D1*
G1X100176Y50241D2*
G1X93727Y50241D1*
G1X93727Y61741D1*
G1X100176Y61741D1*
G1X90326Y50241D2*
G1X83874Y50241D1*
G1X83874Y61741D1*
G1X90326Y61741D1*
G1X90326Y50241D1*
G1X80870Y61742D2*
G1X80870Y50242D1*
G1X82549Y81458D2*
G1X82549Y87911D1*
G1X94049Y87911D1*
G1X94049Y81458D1*
G1X82549Y81458D1*
G1X95248Y88053D2*
G1X101700Y88053D1*
G1X101700Y76553D2*
G1X95248Y76553D1*
G1X95248Y88053D1*
G1X106965Y103179D2*
G1X95465Y103179D1*
G1X95465Y109632D1*
G1X86082Y102540D2*
G1X86082Y96088D1*
G1X101752Y90429D2*
G1X95299Y90429D1*
G1X95299Y101929D1*
G1X101752Y101929D1*
G1X86169Y110369D2*
G1X86169Y103916D1*
G1X95465Y109632D2*
G1X106965Y109632D1*
G1X106965Y111063D2*
G1X95465Y111063D1*
G1X95465Y117512D1*
G1X106965Y117512D1*
G1X86169Y118248D2*
G1X86169Y111796D1*
G1X79384Y155730D2*
G1X79384Y149277D1*
G1X99097Y12114D2*
G1X99097Y18563D1*
G1X110597Y18563D1*
G1X110597Y12114D1*
G1X99097Y12114D1*
G1X99098Y19994D2*
G1X99098Y26447D1*
G1X110598Y26447D1*
G1X110598Y19994D1*
G1X99098Y19994D1*
G1X106583Y34966D2*
G1X106583Y41419D1*
G1X118083Y41419D1*
G1X118083Y34966D1*
G1X106583Y34966D1*
G1X100176Y61741D2*
G1X100176Y50241D1*
G1X122240Y76245D2*
G1X115787Y76245D1*
G1X115787Y87745D1*
G1X122240Y87745D1*
G1X103037Y81458D2*
G1X103037Y87911D1*
G1X114537Y87911D1*
G1X114537Y81458D1*
G1X103037Y81458D1*
G1X101700Y88053D2*
G1X101700Y76553D1*
G1X106965Y109632D2*
G1X106965Y103179D1*
G1X101752Y101929D2*
G1X101752Y90429D1*
G1X106965Y117512D2*
G1X106965Y111063D1*
G1X120766Y165621D2*
G1X113270Y165621D1*
G1X113270Y181621D1*
G1X120766Y181621D1*
G1X141940Y35269D2*
G1X135491Y35269D1*
G1X135491Y46769D1*
G1X141940Y46769D1*
G1X126180Y35269D2*
G1X119727Y35269D1*
G1X119727Y46769D1*
G1X126180Y46769D1*
G1X126180Y35269D1*
G1X134060Y35269D2*
G1X127607Y35269D1*
G1X127607Y46769D1*
G1X134060Y46769D1*
G1X134060Y35269D1*
G1X138902Y57867D2*
G1X134339Y62430D1*
G1X142471Y70562D1*
G1X122240Y87745D2*
G1X122240Y76245D1*
G1X134303Y84496D2*
G1X138866Y89059D1*
G1X142435Y76364D2*
G1X134303Y84496D1*
G1X131405Y95248D2*
G1X131405Y101701D1*
G1X142905Y101701D1*
G1X142905Y95248D2*
G1X131405Y95248D1*
G1X120766Y181621D2*
G1X120766Y165621D1*
G1X141940Y46769D2*
G1X141940Y35269D1*
G1X142471Y70562D2*
G1X147034Y65999D1*
G1X138902Y57867D1*
G1X150711Y70426D2*
G1X150711Y76879D1*
G1X162211Y76879D1*
G1X162211Y70426D2*
G1X150711Y70426D1*
G1X138866Y89059D2*
G1X146998Y80927D1*
G1X142435Y76364D1*
G1X152685Y100764D2*
G1X152685Y107217D1*
G1X164185Y107217D1*
G1X164185Y100764D2*
G1X152685Y100764D1*
G1X142905Y101701D2*
G1X142905Y95248D1*
G1X151881Y192372D2*
G1X151881Y185920D1*
G1X140381Y185920D1*
G1X140381Y192372D1*
G1X151881Y192372D1*
G1X162211Y76879D2*
G1X162211Y70426D1*
G1X164185Y107217D2*
G1X164185Y100764D1*
G1X19850Y182938D2*
G54D45*
G1X9850Y182938D1*
G1X4350Y182938D1*
G1X4350Y192938D1*
G1X105350Y192938D1*
G1X39850Y182938D2*
G1X29850Y182938D1*
G1X19850Y182938D1*
G1X69850Y182938D2*
G1X49850Y182938D1*
G1X39850Y182938D1*
G1X89850Y182938D2*
G1X69850Y182938D1*
G1X105350Y182938D2*
G1X89850Y182938D1*
G1X105350Y192938D2*
G1X105350Y182938D1*
M2*
