M48
INCH,TZ
FMAT,2
ICI,OFF
T01C.042012
T02C.02
T03C.01
%
T01
G05
X985Y18794
X1985Y18794
X2985Y18794
X3985Y18794
X4985Y18794
X5985Y18794
X6985Y18794
X7985Y18794
X8985Y18794
X9985Y18794
T02
X8322Y12450
X6186Y6028
X9180Y11347
X5634Y6028
X12372Y18833
X17434Y8293
X9180Y10677
X13554Y17848
X7021Y12679
X13002Y17848
X5595Y13908
X5595Y13317
X4295Y9929
X5595Y14539
X13554Y18833
X9574Y2403
X4080Y7880
X6462Y1143
X4531Y10599
X5910Y1143
X9180Y10047
X11781Y18833
X12963Y18833
X12647Y18321
X13238Y18321
X10400Y5319
X4019Y1143
X9574Y1694
X12411Y17848
X5280Y1143
X4649Y1143
X9574Y1024
X17060Y6280
X8668Y7328
X9220Y6462
X8330Y6777
X17808Y8747
X16430Y8747
X6498Y10412
X8313Y10321
T03
X17717Y12795
X16732Y12795
X15748Y12795
X18701Y12795
X18701Y13780
X14764Y14764
X18701Y14764
X17717Y14764
X16732Y14764
X15748Y14764
X18701Y18701
X15748Y17717
X16732Y17717
X17717Y17717
X18701Y17717
X18701Y15748
X18701Y16732
X17717Y16732
X17717Y15748
X16732Y15748
X16732Y16732
X15748Y16732
X15748Y15748
X10827Y15748
X9843Y15748
X10827Y12795
X10827Y14764
X12795Y14764
X11811Y14764
X11811Y13780
X12795Y13780
X12795Y12795
X11811Y11811
X17717Y11811
X16732Y11811
X15748Y11811
X14764Y11811
X14764Y12795
X14764Y13780
X13780Y13780
X13780Y12795
X13780Y11811
X984Y15748
X1968Y15748
X1968Y16732
X984Y16732
X984Y17717
X1968Y11811
X2953Y13780
X2953Y12795
X3937Y11811
X2953Y11811
X2953Y10827
X2953Y9843
X1968Y9843
X1968Y10827
X984Y10827
X7390Y6520
X14941Y18386
X11240Y1319
X10787Y10138
X3484Y2441
X6063Y2815
X11240Y1968
X984Y9843
X4468Y4941
X10197Y5886
X12795Y1968
X1968Y5906
X6930Y6510
X11890Y7480
X4970Y6120
X6940Y6140
X3580Y6790
X4270Y6120
X3819Y13937
X17717Y10827
X17717Y9843
X18701Y6890
X18701Y7874
X4291Y2835
X5866Y17402
X11181Y591
X5315Y14941
X8400Y4030
X5986Y15437
X2953Y8858
X12795Y6890
X7270Y8800
X12795Y7874
X7260Y8400
X6880Y8390
X10925Y11043
X7072Y8589
X3780Y13228
X8230Y3840
X8410Y3660
X8366Y6417
X6880Y8790
X1968Y8858
X2953Y3937
X1968Y3937
X984Y3937
X984Y2953
X1968Y2953
X2953Y2953
X2953Y1968
X1968Y1968
X984Y1968
X984Y984
X1968Y984
X2953Y984
X16732Y5906
X18701Y5906
X17717Y5906
X15748Y5906
X14764Y2953
X14764Y3937
X14764Y4921
X15748Y4921
X15748Y3937
X15748Y2953
X16732Y2953
X16732Y3937
X16732Y4921
X17717Y4921
X17717Y3937
X17717Y2953
X18701Y4921
X18701Y3937
X18701Y2953
X18701Y984
X18701Y1968
X17717Y1968
X17717Y984
X16732Y984
X16732Y1968
X15748Y1968
X15748Y984
X14764Y984
X14764Y1968
X13780Y1968
X13780Y984
X12795Y984
X11811Y4921
X10827Y4921
X10827Y5906
X4270Y6790
X4940Y6790
X10827Y6890
X12795Y5906
X12795Y4921
X5986Y15181
X11811Y6890
X11811Y5906
X6240Y6810
X984Y4921
X1968Y4921
X3622Y9626
X7343Y3424
X7413Y3996
X5650Y6790
X8050Y4020
X8051Y3661
X984Y8858
M30
