*
%LPD*%
%LNfrontendINNER2*%
%FSLAX25Y25*%
%MOIN*%
%AD*%
%AD*%
%ADD10C,0.02*%
%ADD11R,0.062011811X0.062011811*%
%ADD12C,0.062011811*%
%ADD13C,0.03*%
%ADD16C,0.050003937*%
%ADD18C,0.082016142*%
%ADD19C,0.040003937*%
G54D10*
%SRX1Y1I0.0J0.0*%
G36*
G1X2600Y195667D2*
G1X2600Y2607D1*
G1X195512Y2607D1*
G1X195512Y195667D1*
G1X2600Y195667D1*
G37*
%LPC*%
G36*
G1X6749Y183837D2*
G1X12951Y183837D1*
G75*
G3X13951Y184838I-1J1000D1*
G1X13951Y191039D1*
G3X12951Y192039I-1001J-1D1*
G1X6749Y192039D1*
G3X5749Y191039I0J-1001D1*
G1X5749Y184837D1*
G3X6749Y183837I1000J0D1*
G37*
G36*
G1X61395Y153090D2*
G3X58321Y153090I-1538J1280D1*
G3X61395Y153090I1536J-1280D1*
G37*
G36*
G1X70414Y82719D2*
G2X71050Y82736I324J-238D1*
G3X73748Y85638I1549J1264D1*
G2X73765Y86307I231J328D1*
G3X71046Y89125I-1066J1692D1*
G2X70394Y89109I-332J227D1*
G3X67692Y86235I-1594J-1209D1*
G2X67692Y85565I-224J-335D1*
G3X70414Y82719I1108J-1665D1*
G37*
G36*
G1X85135Y65526D2*
G2X85136Y66071I296J271D1*
G3X81839Y65739I-1837J1697D1*
G2X81948Y65206I-235J-326D1*
G3X85135Y65526I1713J-1034D1*
G37*
G36*
G1X70633Y62975D2*
G2X70616Y63594I248J316D1*
G3X68067Y63525I-1317J1506D1*
G2X68084Y62906I-249J-317D1*
G3X70633Y62975I1316J-1506D1*
G37*
G36*
G1X82000Y35278D2*
G2X82601Y35276I299J-269D1*
G3X85333Y38175I1499J1324D1*
G2X85316Y38794I248J316D1*
G3X82504Y41627I-1316J1505D1*
G2X81918Y41611I-301J266D1*
G3X79174Y38703I-1419J-1411D1*
G2X79176Y38103I-268J-301D1*
G3X82000Y35278I1335J-1490D1*
G37*
G74*
G54D19*
G1X9842Y9842D3*
G1X19685Y9842D3*
G1X9842Y29528D3*
G1X19685Y29528D3*
G1X19685Y19685D3*
G1X9842Y19685D3*
G1X19685Y39370D3*
G1X9842Y39370D3*
G1X9842Y49213D3*
G1X19685Y49213D3*
G1X19685Y59055D3*
G1X19685Y88583D3*
G1X9842Y88583D3*
G1X19685Y98425D3*
G1X19685Y108268D3*
G1X9842Y108268D3*
G1X9842Y98425D3*
G1X19685Y118110D3*
G1X9842Y157480D3*
G1X19685Y157480D3*
G1X19685Y167323D3*
G1X9842Y167323D3*
G1X9842Y177165D3*
G1X29528Y9842D3*
G1X34843Y24409D3*
G1X29528Y29528D3*
G1X29528Y19685D3*
G1X29528Y39370D3*
G1X35800Y67900D3*
G1X29528Y88583D3*
G1X29528Y108268D3*
G1X29528Y98425D3*
G1X36220Y96260D3*
G1X29528Y127953D3*
G1X39370Y118110D3*
G1X29528Y118110D3*
G1X29528Y137795D3*
G1X38189Y139370D3*
G1X37795Y132284D3*
G1X42913Y28346D3*
G1X44685Y49409D3*
G1X49700Y61200D3*
G1X42700Y61200D3*
G1X42700Y67900D3*
G1X49400Y67900D3*
G1X56500Y67900D3*
G1X53150Y149409D3*
G1X58661Y174016D3*
G1X60630Y28150D3*
G1X73425Y34242D3*
G1X74126Y39961D3*
G1X73900Y65200D3*
G1X62400Y68100D3*
G1X98425Y157480D3*
G1X111811Y5906D3*
G1X112402Y13189D3*
G1X112402Y19685D3*
G1X118110Y49213D3*
G1X108268Y49213D3*
G1X101968Y58858D3*
G1X108268Y59055D3*
G1X108268Y68898D3*
G1X118110Y68898D3*
G1X118110Y59055D3*
G1X107874Y101378D3*
G1X108268Y127953D3*
G1X118110Y118110D3*
G1X109252Y110433D3*
G1X108268Y147638D3*
G1X118110Y147638D3*
G1X118110Y137795D3*
G1X108268Y157480D3*
G1X137795Y9842D3*
G1X127953Y9842D3*
G1X127953Y19685D3*
G1X137795Y19685D3*
G1X127953Y49213D3*
G1X127953Y68898D3*
G1X127953Y59055D3*
G1X118898Y74803D3*
G1X127953Y78740D3*
G1X127953Y127953D3*
G1X137795Y127953D3*
G1X137795Y118110D3*
G1X127953Y147638D3*
G1X127953Y137795D3*
G1X137795Y137795D3*
G1X157480Y9842D3*
G1X147638Y9842D3*
G1X147638Y29528D3*
G1X157480Y29528D3*
G1X157480Y19685D3*
G1X147638Y19685D3*
G1X147638Y39370D3*
G1X147638Y49213D3*
G1X157480Y49213D3*
G1X157480Y39370D3*
G1X157480Y59055D3*
G1X157480Y127953D3*
G1X157480Y118110D3*
G1X147638Y118110D3*
G1X147638Y127953D3*
G1X147638Y147638D3*
G1X157480Y147638D3*
G1X147638Y137795D3*
G1X157480Y167323D3*
G1X157480Y157480D3*
G1X157480Y177165D3*
G1X149409Y183858D3*
G1X177165Y9842D3*
G1X167323Y9842D3*
G1X167323Y29528D3*
G1X177165Y29528D3*
G1X177165Y19685D3*
G1X167323Y19685D3*
G1X167323Y39370D3*
G1X167323Y49213D3*
G1X177165Y49213D3*
G1X177165Y39370D3*
G1X167323Y59055D3*
G1X177165Y59055D3*
G1X177165Y108268D3*
G1X177165Y98425D3*
G1X177165Y127953D3*
G1X167323Y127953D3*
G1X177165Y118110D3*
G1X167323Y118110D3*
G1X177165Y147638D3*
G1X167323Y147638D3*
G1X177165Y167323D3*
G1X177165Y157480D3*
G1X167323Y157480D3*
G1X167323Y167323D3*
G1X167323Y177165D3*
G1X177165Y177165D3*
G1X187008Y9842D3*
G1X187008Y29528D3*
G1X187008Y19685D3*
G1X187008Y49213D3*
G1X187008Y39370D3*
G1X187008Y68898D3*
G1X187008Y59055D3*
G1X187008Y78740D3*
G1X187008Y127953D3*
G1X187008Y137795D3*
G1X187008Y147638D3*
G1X187008Y157480D3*
G1X187008Y167323D3*
G1X187008Y187008D3*
G1X187008Y177165D3*
G54D16*
G1X64977Y104117D3*
G1X92196Y64616D3*
G1X86680Y73284D3*
G1X83134Y103213D3*
G1X83216Y124504D3*
G1X170602Y62800D3*
G1X178082Y87469D3*
G1X164302Y87469D3*
G54D18*
G1X19850Y187938D3*
G1X29850Y187938D3*
G1X39850Y187938D3*
G1X49850Y187938D3*
G1X59850Y187938D3*
G1X69850Y187938D3*
G1X79850Y187938D3*
G1X89850Y187938D3*
G1X99850Y187938D3*
%LPD*%
G54D10*
G1X19685Y9842D3*
G1X9842Y9842D3*
G1X9842Y19685D3*
G1X19685Y19685D3*
G1X19685Y29528D3*
G1X9842Y29528D3*
G1X19685Y49213D3*
G1X9842Y49213D3*
G1X9842Y39370D3*
G1X19685Y39370D3*
G1X19685Y59055D3*
G1X9842Y88583D3*
G1X19685Y88583D3*
G1X9842Y98425D3*
G1X9842Y108268D3*
G1X19685Y108268D3*
G1X19685Y98425D3*
G1X19685Y118110D3*
G1X9842Y167323D3*
G1X19685Y167323D3*
G1X19685Y157480D3*
G1X9842Y157480D3*
G1X9842Y177165D3*
G1X29528Y9842D3*
G1X29528Y19685D3*
G1X29528Y29528D3*
G1X34843Y24409D3*
G1X29528Y39370D3*
G1X35800Y67900D3*
G1X29528Y88583D3*
G1X36220Y96260D3*
G1X29528Y98425D3*
G1X29528Y108268D3*
G1X29528Y118110D3*
G1X39370Y118110D3*
G1X29528Y127953D3*
G1X37795Y132284D3*
G1X38189Y139370D3*
G1X29528Y137795D3*
G1X42913Y28346D3*
G1X44685Y49409D3*
G1X56500Y67900D3*
G1X49400Y67900D3*
G1X42700Y67900D3*
G1X42700Y61200D3*
G1X49700Y61200D3*
G1X53150Y149409D3*
G1X58661Y174016D3*
G1X60630Y28150D3*
G1X74126Y39961D3*
G1X73425Y34242D3*
G1X62400Y68100D3*
G1X69400Y61400D3*
G1X69300Y65100D3*
G1X73900Y65200D3*
G1X68800Y87900D3*
G1X70719Y85893D3*
G1X68800Y83900D3*
G1X72600Y84000D3*
G1X72700Y88000D3*
G1X59858Y151810D3*
G1X59858Y154370D3*
G1X80512Y36614D3*
G1X80500Y40200D3*
G1X84100Y36600D3*
G1X82303Y38396D3*
G1X84000Y40300D3*
G1X83661Y64173D3*
G1X98425Y157480D3*
G1X111811Y5906D3*
G1X112402Y19685D3*
G1X112402Y13189D3*
G1X108268Y49213D3*
G1X118110Y49213D3*
G1X118110Y59055D3*
G1X118110Y68898D3*
G1X108268Y68898D3*
G1X108268Y59055D3*
G1X101968Y58858D3*
G1X107874Y101378D3*
G1X109252Y110433D3*
G1X118110Y118110D3*
G1X108268Y127953D3*
G1X118110Y137795D3*
G1X118110Y147638D3*
G1X108268Y147638D3*
G1X108268Y157480D3*
G1X127953Y9842D3*
G1X137795Y9842D3*
G1X137795Y19685D3*
G1X127953Y19685D3*
G1X127953Y49213D3*
G1X127953Y59055D3*
G1X127953Y68898D3*
G1X127953Y78740D3*
G1X118898Y74803D3*
G1X137795Y118110D3*
G1X137795Y127953D3*
G1X127953Y127953D3*
G1X137795Y137795D3*
G1X127953Y137795D3*
G1X127953Y147638D3*
G1X147638Y9842D3*
G1X157480Y9842D3*
G1X147638Y19685D3*
G1X157480Y19685D3*
G1X157480Y29528D3*
G1X147638Y29528D3*
G1X157480Y39370D3*
G1X157480Y49213D3*
G1X147638Y49213D3*
G1X147638Y39370D3*
G1X157480Y59055D3*
G1X147638Y127953D3*
G1X147638Y118110D3*
G1X157480Y118110D3*
G1X157480Y127953D3*
G1X147638Y137795D3*
G1X157480Y147638D3*
G1X147638Y147638D3*
G1X157480Y157480D3*
G1X157480Y167323D3*
G1X149409Y183858D3*
G1X157480Y177165D3*
G1X167323Y9842D3*
G1X177165Y9842D3*
G1X167323Y19685D3*
G1X177165Y19685D3*
G1X177165Y29528D3*
G1X167323Y29528D3*
G1X177165Y39370D3*
G1X177165Y49213D3*
G1X167323Y49213D3*
G1X167323Y39370D3*
G1X177165Y59055D3*
G1X167323Y59055D3*
G1X177165Y98425D3*
G1X177165Y108268D3*
G1X167323Y118110D3*
G1X177165Y118110D3*
G1X167323Y127953D3*
G1X177165Y127953D3*
G1X167323Y147638D3*
G1X177165Y147638D3*
G1X167323Y167323D3*
G1X167323Y157480D3*
G1X177165Y157480D3*
G1X177165Y167323D3*
G1X177165Y177165D3*
G1X167323Y177165D3*
G1X187008Y9842D3*
G1X187008Y19685D3*
G1X187008Y29528D3*
G1X187008Y39370D3*
G1X187008Y49213D3*
G1X187008Y59055D3*
G1X187008Y68898D3*
G1X187008Y78740D3*
G1X187008Y127953D3*
G1X187008Y147638D3*
G1X187008Y137795D3*
G1X187008Y167323D3*
G1X187008Y157480D3*
G1X187008Y177165D3*
G1X187008Y187008D3*
G54D11*
G1X9850Y187938D3*
G54D12*
G1X19850Y187938D3*
G1X29850Y187938D3*
G1X39850Y187938D3*
G1X49850Y187938D3*
G1X59850Y187938D3*
G1X69850Y187938D3*
G1X79850Y187938D3*
G1X89850Y187938D3*
G1X99850Y187938D3*
G54D13*
G1X40188Y11426D3*
G1X40800Y78800D3*
G1X46492Y11426D3*
G1X52796Y11426D3*
G1X59100Y11426D3*
G1X56342Y60282D3*
G1X45310Y105986D3*
G1X42946Y99288D3*
G1X55948Y145386D3*
G1X55948Y133172D3*
G1X55948Y139082D3*
G1X64616Y11426D3*
G1X61858Y60282D3*
G1X64977Y104117D3*
G1X70214Y126786D3*
G1X95742Y10244D3*
G1X95742Y16942D3*
G1X95742Y24034D3*
G1X83300Y67768D3*
G1X92196Y64616D3*
G1X86680Y73284D3*
G1X83134Y103213D3*
G1X91802Y100470D3*
G1X91802Y106774D3*
G1X91802Y113472D3*
G1X83216Y124504D3*
G1X104000Y53190D3*
G1X117806Y188332D3*
G1X124110Y178482D3*
G1X132384Y183210D3*
G1X126474Y183210D3*
G1X129626Y188332D3*
G1X135536Y188332D3*
G1X130020Y178482D3*
G1X135536Y178482D3*
G1X123716Y188332D3*
G1X170602Y62800D3*
G1X164302Y87469D3*
G1X178082Y87469D3*
G1X174342Y82934D3*
M2*
