G04 ================== begin FILE IDENTIFICATION RECORD ==================*
G04 Layout Name:  frontend.brd*
G04 Film Name:    frontendSMT*
G04 File Format:  Gerber RS274X*
G04 File Origin:  Cadence Allegro 17.2-S022*
G04 Origin Date:  Tue Apr 17 14:35:24 2018*
G04 *
G04 Layer:  BOARD GEOMETRY/SOLDERMASK_TOP*
G04 Layer:  VIA CLASS/SOLDERMASK_TOP*
G04 Layer:  PIN/SOLDERMASK_TOP*
G04 *
G04 Offset:    (0.000 0.000)*
G04 Mirror:    No*
G04 Mode:      Positive*
G04 Rotation:  0*
G04 FullContactRelief:  No*
G04 UndefLineWidth:     1.000*
G04 ================== end FILE IDENTIFICATION RECORD ====================*
%FSLAX25Y25*MOIN*%
%IR0*IPPOS*OFA0.00000B0.00000*MIA0B0*SFA1.00000B1.00000*%
%ADD22R,.066929X.066929*%
%ADD25R,.062988X.062988*%
%ADD24R,.11024X.035429*%
%ADD10R,.15748X.051181*%
%AMMACRO16*
21,1,.037988,.032012,0.0,0.0,135.*%
%ADD16MACRO16*%
%ADD13C,.05*%
%ADD28R,.05X.05*%
%ADD12C,.067012*%
%ADD31R,.244091X.161421*%
%ADD23R,.015748X.0315*%
%ADD20R,.0315X.015748*%
%ADD26R,.014961X.02913*%
%ADD21R,.02913X.014961*%
%ADD11R,.067012X.067012*%
%ADD14R,.043311X.027559*%
%ADD27R,.027559X.043311*%
%ADD19R,.0315X.066929*%
%ADD30R,.023618X.035429*%
%ADD29R,.173228X.129921*%
%ADD17R,.032012X.037988*%
%AMMACRO15*
21,1,.037988,.032012,0.0,0.0,45.*%
%ADD15MACRO15*%
%ADD18R,.037988X.032012*%
%LPD*%
G75*
G54D10*
X7874Y54921D03*
Y65748D03*
Y76575D03*
Y120275D03*
Y141929D03*
Y131102D03*
X189120Y93189D03*
Y104016D03*
Y114843D03*
G54D11*
X9850Y187938D03*
G54D20*
X56300Y150441D03*
Y152410D03*
Y154378D03*
Y156347D03*
X76034Y87862D03*
Y85893D03*
Y83925D03*
X65404D03*
Y85893D03*
Y87862D03*
X63387Y156347D03*
Y154378D03*
Y152410D03*
Y150441D03*
G54D30*
X155430Y86286D03*
X151690D03*
Y96522D03*
X155430D03*
X178082Y67768D03*
X174342D03*
X170602D03*
X159170Y86286D03*
X170602Y78004D03*
X174342D03*
X178082D03*
X159170Y96522D03*
G54D21*
X77185Y35443D03*
Y37412D03*
Y39380D03*
Y41349D03*
X87421D03*
Y39380D03*
Y37412D03*
Y35443D03*
G54D12*
X19850Y187938D03*
X29850D03*
X39850D03*
X49850D03*
X59850D03*
X69850D03*
X79850D03*
X89850D03*
X99850D03*
G54D31*
X169577Y137747D03*
Y188731D03*
G54D13*
X40188Y11426D03*
X40800Y78800D03*
X46492Y11426D03*
X52796D03*
X59100D03*
X56342Y60282D03*
X45310Y105986D03*
X42946Y99288D03*
X55948Y145386D03*
Y133172D03*
Y139082D03*
X64616Y11426D03*
X61858Y60282D03*
X64977Y104117D03*
X70214Y126786D03*
X95742Y10244D03*
Y16942D03*
Y24034D03*
X83300Y67768D03*
X92196Y64616D03*
X86680Y73284D03*
X83134Y103213D03*
X91802Y100470D03*
Y106774D03*
Y113472D03*
X83216Y124504D03*
X104000Y53190D03*
X117806Y188332D03*
X124110Y178482D03*
X132384Y183210D03*
X126474D03*
X129626Y188332D03*
X135536D03*
X130020Y178482D03*
X135536D03*
X123716Y188332D03*
X170602Y62800D03*
X164302Y87469D03*
X178082D03*
X174342Y82934D03*
G54D22*
X70719Y85893D03*
G54D14*
X39400Y24030D03*
Y18518D03*
G54D23*
X72687Y80579D03*
X70719D03*
X68750D03*
Y91208D03*
X70719D03*
X72687D03*
G54D15*
X27580Y60282D03*
X31538Y56324D03*
X138688Y84710D03*
X142647Y80751D03*
G54D24*
X98500Y29557D03*
Y38218D03*
G54D16*
X27186Y70920D03*
X31144Y74878D03*
X138688Y62252D03*
X142647Y66210D03*
G54D25*
X82303Y38396D03*
G54D17*
X36248Y91014D03*
X40188Y152478D03*
X34590D03*
X55160Y45704D03*
X49562D03*
X55160Y53584D03*
X49562D03*
X48856Y82740D03*
X54454D03*
X48856Y74860D03*
X54454D03*
X41846Y91014D03*
X48856D03*
X54454D03*
X48856Y98894D03*
X54454D03*
X48462Y131990D03*
X42864D03*
X48462Y139476D03*
X42864D03*
X49250Y163904D03*
X43652D03*
X74466Y24428D03*
X63402Y37411D03*
X69000D03*
X69344Y45704D03*
X63746D03*
X63828Y53584D03*
X69426D03*
X66980Y73284D03*
X72578D03*
X64977Y99242D03*
X70575D03*
X77536Y99288D03*
X77618Y107168D03*
X64616Y119776D03*
X70214D03*
X77618Y115048D03*
X76436Y152478D03*
X70838D03*
X80064Y24428D03*
X85498Y84710D03*
X91096D03*
X98418Y106380D03*
X83134Y99288D03*
X83216Y107168D03*
X98418Y114260D03*
X83216Y115048D03*
X102046Y15366D03*
X107644D03*
X102046Y23246D03*
X107644D03*
X109532Y38218D03*
X115130D03*
X105986Y84710D03*
X111584D03*
X104016Y106380D03*
Y114260D03*
X134354Y98500D03*
X153660Y73678D03*
X155630Y104016D03*
X139952Y98500D03*
X148932Y189120D03*
X143334D03*
X159258Y73678D03*
X161228Y104016D03*
G54D26*
X79350Y43514D03*
X81319D03*
X83287D03*
X85256D03*
Y33278D03*
X83287D03*
X81319D03*
X79350D03*
G54D18*
X47280Y18518D03*
Y24116D03*
X55948Y18518D03*
Y24116D03*
X55160Y31914D03*
Y37512D03*
X48462Y146880D03*
Y152478D03*
X58706Y169420D03*
Y163822D03*
X74466Y10162D03*
Y15760D03*
X65798Y18518D03*
Y24116D03*
X77618Y53190D03*
Y58788D03*
X70132Y106692D03*
Y112290D03*
X96924Y53190D03*
Y58788D03*
X87074Y53190D03*
Y58788D03*
X98500Y85104D03*
Y79506D03*
Y93378D03*
Y98976D03*
X118988Y79194D03*
Y84792D03*
X138688Y38218D03*
Y43816D03*
X122928Y38218D03*
Y43816D03*
X130808Y38218D03*
Y43816D03*
G54D27*
X107952Y8668D03*
X102440D03*
G54D19*
X59844Y153394D03*
G54D28*
X117018Y169420D03*
Y177822D03*
G54D29*
X136900Y165700D03*
M02*
