M48
INCH,LZ
T01C.042012
T02C.02
T03C.01
;LEADER: 12 
;HEADER: 
;CODE  : ASCII 
;FILE  : frontend-1-4.drl for  ... layers TOP and BOTTOM
;DESIGN: frontend.brd
;T01 Holesize 1. = 42.012000 Tolerance = +0.000000/-0.000000 PLATED MILS Quantity = 10
;T02 Holesize 2. = 20.000000 Tolerance = +0.000000/-0.000000 PLATED MILS Quantity = 40
;T03 Holesize 3. = 10.000000 Tolerance = +0.000000/-0.000000 PLATED MILS Quantity = 165
%
G90
T01
X000985Y018794
R09X001
T02
X008322Y01245
X006186Y006028
X00918Y011347
X005634Y006028
X012372Y018833
X017434Y008293
X00918Y010677
X013554Y017848
X007021Y012679
X013002Y017848
X005595Y013908
X005595Y013317
X004295Y009929
X005595Y014539
X013554Y018833
X009574Y002403
X00408Y00788
X006462Y001143
X004531Y010599
X00591Y001143
X00918Y010047
X011781Y018833
X012963Y018833
X012647Y018321
X013238Y018321
X0104Y005319
X004019Y001143
X009574Y001694
X012411Y017848
X00528Y001143
X004649Y001143
X009574Y001024
X01706Y00628
X008668Y007328
X00922Y006462
X00833Y006777
X017808Y008747
X01643Y008747
X006498Y010412
X008313Y010321
T03
X017717Y012795
X016732Y012795
X015748Y012795
X018701Y012795
X018701Y01378
X014764Y014764
X018701Y014764
X017717Y014764
X016732Y014764
X015748Y014764
X018701Y018701
X015748Y017717
X016732Y017717
X017717Y017717
X018701Y017717
X018701Y015748
X018701Y016732
X017717Y016732
X017717Y015748
X016732Y015748
X016732Y016732
X015748Y016732
X015748Y015748
X010827Y015748
X009843Y015748
X010827Y012795
X010827Y014764
X012795Y014764
X011811Y014764
X011811Y01378
X012795Y01378
X012795Y012795
X011811Y011811
X017717Y011811
X016732Y011811
R02X-000984
X014764Y012795
X014764Y01378
X01378Y01378
X01378Y012795
X01378Y011811
X000984Y015748
X001968Y015748
X001968Y016732
X000984Y016732
X000984Y017717
X001968Y011811
X002953Y01378
X002953Y012795
X003937Y011811
X002953Y011811
X002953Y010827
X002953Y009843
X001968Y009843
X001968Y010827
X000984Y010827
X00739Y00652
X014941Y018386
X01124Y001319
X010787Y010138
X003484Y002441
X006063Y002815
X01124Y001968
X000984Y009843
X004468Y004941
X010197Y005886
X012795Y001968
X001968Y005906
X00693Y00651
X01189Y00748
X00497Y00612
X00694Y00614
X00358Y00679
X00427Y00612
X003819Y013937
X017717Y010827
X017717Y009843
X018701Y00689
X018701Y007874
X004291Y002835
X005866Y017402
X011181Y000591
X005315Y014941
X0084Y00403
X005986Y015437
X002953Y008858
X012795Y00689
X00727Y0088
X012795Y007874
X00726Y0084
X00688Y00839
X010925Y011043
X007072Y008589
X00378Y013228
X00823Y00384
X00841Y00366
X008366Y006417
X00688Y00879
X001968Y008858
X002953Y003937
X001968Y003937
X000984Y003937
X000984Y002953
X001968Y002953
X002953Y002953
X002953Y001968
X001968Y001968
X000984Y001968
X000984Y000984
X001968Y000984
X002953Y000984
X016732Y005906
X018701Y005906
X017717Y005906
X015748Y005906
X014764Y002953
R02Y000984
X015748Y004921
R02Y-000984
X016732Y002953
R02Y000984
X017717Y004921
R02Y-000984
X018701Y004921
R02Y-000984
X018701Y000984
X018701Y001968
X017717Y001968
X017717Y000984
X016732Y000984
X016732Y001968
X015748Y001968
X015748Y000984
X014764Y000984
X014764Y001968
X01378Y001968
X01378Y000984
X012795Y000984
X011811Y004921
X010827Y004921
X010827Y005906
X00427Y00679
X00494Y00679
X010827Y00689
X012795Y005906
X012795Y004921
X005986Y015181
X011811Y00689
X011811Y005906
X00624Y00681
X000984Y004921
X001968Y004921
X003622Y009626
X007343Y003424
X007413Y003996
X00565Y00679
X00805Y00402
X008051Y003661
X000984Y008858
M30
