G04 ================== begin FILE IDENTIFICATION RECORD ==================*
G04 Layout Name:  frontend.brd*
G04 Film Name:    frontendINNER1*
G04 File Format:  Gerber RS274X*
G04 File Origin:  Cadence Allegro 17.2-S022*
G04 Origin Date:  Tue Apr 17 14:35:25 2018*
G04 *
G04 Layer:  VIA CLASS/LAYER_1*
G04 Layer:  PIN/LAYER_1*
G04 Layer:  ETCH/LAYER_1*
G04 *
G04 Offset:    (0.000 0.000)*
G04 Mirror:    No*
G04 Mode:      Positive*
G04 Rotation:  0*
G04 FullContactRelief:  No*
G04 UndefLineWidth:     1.000*
G04 ================== end FILE IDENTIFICATION RECORD ====================*
%FSLAX25Y25*MOIN*%
%IR0*IPPOS*OFA0.00000B0.00000*MIA0B0*SFA1.00000B1.00000*%
%ADD10C,.02*%
%ADD13C,.03*%
%ADD12C,.062012*%
%ADD11R,.062012X.062012*%
%ADD14C,.005*%
%ADD16C,.050004*%
%ADD15C,.082016*%
%ADD17C,.087992*%
G75*
%LPD*%
G75*
G36*
G01X2600Y2607D02*
Y195663D01*
X195514D01*
Y2607D01*
X2600D01*
G37*
%LPC*%
G75*
G36*
G01X5749Y184838D02*
Y191039D01*
G02X6749Y192039I1000J0D01*
G01X12951D01*
G02X13951Y191039I0J-1000D01*
G01Y184838D01*
G02X12951Y183837I-1000J0D01*
G01X6749D01*
G02X5749Y184838I0J1000D01*
G37*
G36*
G01X131962Y180057D02*
G02X130114Y180980I-1942J-1575D01*
G03X130442Y181635I15J402D01*
G02X132290Y180711I1942J1575D01*
G03X131962Y180057I-15J-402D01*
G37*
G36*
G01X126052D02*
G02X124204Y180980I-1942J-1575D01*
G03X124532Y181635I15J402D01*
G02X126379Y180711I1942J1575D01*
G03X126052Y180057I-15J-402D01*
G37*
G54D16*
X40188Y11426D03*
X40800Y78800D03*
X59100Y11426D03*
X52796D03*
X46492D03*
X56342Y60282D03*
X42946Y99288D03*
X45310Y105986D03*
X55948Y139082D03*
Y133172D03*
Y145386D03*
X64616Y11426D03*
X61858Y60282D03*
X70214Y126786D03*
X95742Y10244D03*
Y24034D03*
Y16942D03*
X83300Y67768D03*
X92196Y64616D03*
X86680Y73284D03*
X91802Y106774D03*
Y100470D03*
Y113472D03*
X83216Y124504D03*
X104000Y53190D03*
X117806Y188332D03*
X123716D03*
X135536Y178482D03*
Y188332D03*
X129626D03*
X170602Y62800D03*
X178082Y87469D03*
X164302D03*
X174342Y82934D03*
G54D15*
X19850Y187938D03*
X29850D03*
X39850D03*
X49850D03*
X59850D03*
G54D17*
X69850D03*
X79850D03*
X89850D03*
X99850D03*
%LPD*%
G75*
G54D10*
X19685Y9842D03*
X9842D03*
Y19685D03*
X19685D03*
Y29528D03*
X9842D03*
X19685Y49213D03*
X9842D03*
Y39370D03*
X19685D03*
Y59055D03*
X9842Y88583D03*
X19685D03*
X9842Y98425D03*
Y108268D03*
X19685D03*
Y98425D03*
Y118110D03*
X9842Y167323D03*
X19685D03*
Y157480D03*
X9842D03*
Y177165D03*
X29528Y9842D03*
Y19685D03*
Y29528D03*
X34843Y24409D03*
X29528Y39370D03*
X35800Y67900D03*
X29528Y88583D03*
X36220Y96260D03*
X29528Y98425D03*
Y108268D03*
Y118110D03*
X39370D03*
X29528Y127953D03*
X37795Y132284D03*
X38189Y139370D03*
X29528Y137795D03*
X42913Y28346D03*
X44685Y49409D03*
X56500Y67900D03*
X49400D03*
X42700D03*
Y61200D03*
X49700D03*
X53150Y149409D03*
X58661Y174016D03*
X60630Y28150D03*
X74126Y39961D03*
X73425Y34242D03*
X62400Y68100D03*
X69400Y61400D03*
X69300Y65100D03*
X73900Y65200D03*
X68800Y87900D03*
X70719Y85893D03*
X68800Y83900D03*
X72600Y84000D03*
X72700Y88000D03*
X59858Y151810D03*
Y154370D03*
X80512Y36614D03*
X80500Y40200D03*
X84100Y36600D03*
X82303Y38396D03*
X84000Y40300D03*
X83661Y64173D03*
X98425Y157480D03*
X111811Y5906D03*
X112402Y19685D03*
Y13189D03*
X108268Y49213D03*
X118110D03*
Y59055D03*
Y68898D03*
X108268D03*
Y59055D03*
X101968Y58858D03*
X107874Y101378D03*
X109252Y110433D03*
X118110Y118110D03*
X108268Y127953D03*
X118110Y137795D03*
Y147638D03*
X108268D03*
Y157480D03*
X127953Y9842D03*
X137795D03*
Y19685D03*
X127953D03*
Y49213D03*
Y59055D03*
Y68898D03*
Y78740D03*
X118898Y74803D03*
X137795Y118110D03*
Y127953D03*
X127953D03*
X137795Y137795D03*
X127953D03*
Y147638D03*
X147638Y9842D03*
X157480D03*
X147638Y19685D03*
X157480D03*
Y29528D03*
X147638D03*
X157480Y39370D03*
Y49213D03*
X147638D03*
Y39370D03*
X157480Y59055D03*
X147638Y127953D03*
Y118110D03*
X157480D03*
Y127953D03*
X147638Y137795D03*
X157480Y147638D03*
X147638D03*
X157480Y157480D03*
Y167323D03*
X149409Y183858D03*
X157480Y177165D03*
X167323Y9842D03*
X177165D03*
X167323Y19685D03*
X177165D03*
Y29528D03*
X167323D03*
X177165Y39370D03*
Y49213D03*
X167323D03*
Y39370D03*
X177165Y59055D03*
X167323D03*
X177165Y98425D03*
Y108268D03*
X167323Y118110D03*
X177165D03*
X167323Y127953D03*
X177165D03*
X167323Y147638D03*
X177165D03*
X167323Y167323D03*
Y157480D03*
X177165D03*
Y167323D03*
Y177165D03*
X167323D03*
X187008Y9842D03*
Y19685D03*
Y29528D03*
Y39370D03*
Y49213D03*
Y59055D03*
Y68898D03*
Y78740D03*
Y127953D03*
Y147638D03*
Y137795D03*
Y167323D03*
Y157480D03*
Y177165D03*
Y187008D03*
G54D11*
X9850Y187938D03*
G54D12*
X19850D03*
X29850D03*
X39850D03*
X49850D03*
X59850D03*
X69850D03*
X79850D03*
X89850D03*
X99850D03*
G54D13*
X40188Y11426D03*
X40800Y78800D03*
X46492Y11426D03*
X52796D03*
X59100D03*
X56342Y60282D03*
X45310Y105986D03*
X42946Y99288D03*
X55948Y145386D03*
Y133172D03*
Y139082D03*
X64616Y11426D03*
X61858Y60282D03*
X64977Y104117D03*
X70214Y126786D03*
X95742Y10244D03*
Y16942D03*
Y24034D03*
X83300Y67768D03*
X92196Y64616D03*
X86680Y73284D03*
X83134Y103213D03*
X91802Y100470D03*
Y106774D03*
Y113472D03*
X83216Y124504D03*
X104000Y53190D03*
X117806Y188332D03*
X124110Y178482D03*
X132384Y183210D03*
X126474D03*
X129626Y188332D03*
X135536D03*
X130020Y178482D03*
X135536D03*
X123716Y188332D03*
X170602Y62800D03*
X164302Y87469D03*
X178082D03*
X174342Y82934D03*
G54D14*
G01X75249Y187938D02*
X79850D01*
G01X69850Y183338D02*
Y187938D01*
G01D02*
Y192539D01*
G01X65249Y187938D02*
X69850D01*
G01D02*
X74451D01*
G01X95249D02*
X99850D01*
G01X89850Y183338D02*
Y187938D01*
G01D02*
Y192539D01*
G01X85249Y187938D02*
X89850D01*
G01D02*
X94451D01*
G01X79850Y183338D02*
Y187938D01*
G01D02*
Y192539D01*
G01Y187938D02*
X84451D01*
G01X99850Y183338D02*
Y187938D01*
G01D02*
Y192539D01*
G01Y187938D02*
X104451D01*
M02*
